<?xml version="1.0" encoding="UTF-8"?>
<svg height="16px" viewBox="0 0 16 16" width="16px" xmlns="http://www.w3.org/2000/svg" xmlns:xlink="http://www.w3.org/1999/xlink">
    <filter id="a" height="100%" width="100%" x="0%" y="0%">
        <feColorMatrix in="SourceGraphic" type="matrix" values="0 0 0 0 1 0 0 0 0 1 0 0 0 0 1 0 0 0 1 0"/>
    </filter>
    <mask id="b">
        <g filter="url(#a)">
            <rect fill-opacity="0.3" height="16" width="16"/>
        </g>
    </mask>
    <clipPath id="c">
        <rect height="152" width="192"/>
    </clipPath>
    <g clip-path="url(#c)" mask="url(#b)" transform="matrix(1 0 0 1 -168 -16)">
        <path d="m 95.757812 85.757812 l 28.285157 -28.285156 l 2.121093 -0.707031 l 2.121094 2.121094 l -0.285156 3.113281 l -28 28 l -5.65625 -1 v -1.828125 z m 0 0"/>
    </g>
    <g fill="#3d3846">
        <path d="m 2 7 c -0.550781 0 -1 0.449219 -1 1 c 0 1.070312 0.574219 2.0625 1.5 2.597656 s 2.074219 0.535156 3 0 s 1.5 -1.527344 1.5 -2.597656 c 0 -0.550781 -0.449219 -1 -1 -1 s -1 0.449219 -1 1 c 0 0.359375 -0.1875 0.6875 -0.5 0.863281 c -0.3125 0.179688 -0.6875 0.179688 -1 0 c -0.3125 -0.175781 -0.5 -0.503906 -0.5 -0.863281 c 0 -0.550781 -0.449219 -1 -1 -1 z m 0 0"/>
        <path d="m 5 8 c 0 0.796875 0.316406 1.558594 0.878906 2.121094 s 1.324219 0.878906 2.121094 0.878906 v -2 c -0.265625 0 -0.519531 -0.105469 -0.707031 -0.292969 s -0.292969 -0.441406 -0.292969 -0.707031 z m 0 0"/>
        <path d="m 5 4 v 4 h 2 v -4 z m 0 0"/>
        <path d="m 1 4 v 11 h 2 v -11 z m 0 0"/>
        <path d="m 8 8 v -2 l 6 -6 l 2 2 l -6 6 z m 0 0"/>
    </g>
</svg>
