<svg xmlns="http://www.w3.org/2000/svg" xmlns:xlink="http://www.w3.org/1999/xlink" width="64" height="64" viewBox="0 0 4.156 7.5"><svg overflow="visible" x="-.125" y="5.359"><path style="stroke:none" d="M1.688 1.688A45.416 45.416 0 0 1 1.64-.376c.406.078.765.297 1.078.547L4.063-.891c.218-.593.218-1.312.218-1.921 0-.438-.015-.876-.047-1.313-.421-.156-.828-.36-1.171-.64A18.68 18.68 0 0 1 1.64-3.704c.015-.125.03-.328.03-.344-.218-.219-.468-.516-.468-.812 0-.157.078-.297.188-.422l-.14-.078c-.297.28-.828.86-.828 1.157 0 .094.11.219.453.687v2.47c-.14.093-.5.437-.75.671l.11.14c.171-.171.406-.234.64-.234 0 .547-.063 1.703-.094 2.531l.11.079zm-.032-5.141c.266-.172.516-.328.813-.438.297.094.703.235.953.375.031.407.062.813.062 1.22 0 .952-.109 1.483-.265 1.78-.485-.234-1.172-.546-1.563-.546zm0 0"/></svg></svg>