<svg xmlns="http://www.w3.org/2000/svg" xmlns:xlink="http://www.w3.org/1999/xlink" width="64" height="64" viewBox="0 0 8.109 7.13"><svg overflow="visible" x="-.172" y="6.818"><path style="stroke:none" d="M8.281-6.438c0-.453-.781-.375-1.078-.375H3.437c-.5 0-1.39.282-1.546.829.015.046.046.062.109.062.219 0 .516-.172.656-.328.297 0 .61-.016.906-.016h.626s-.047.172-.047.188a21.46 21.46 0 0 1-1.407 4.344C2.672-1.61 2.141-.36 2-.234c-.438 0-.781-.25-.953-.641-.031-.047-.031-.094-.094-.094-.234 0-.781.328-.781.485 0 .03 0 .046.016.062.187.469.625.734 1.125.734s1.093-.359 1.406-.734c.328-.375.984-2.015 1.25-2.61H5.89c-.016.016-.016.016-.016.032 0 .047.063.063.094.063.218 0 .797-.266.797-.579 0-.078-.079-.062-.204-.062h-2.39c.266-.89.61-1.781.781-2.688h1.313c.25 0 .953-.046 1.125.172.03.047 0 .157.03.203a.12.12 0 0 0 .079.032c.234 0 .781-.297.781-.579zm0 0"/></svg></svg>