<svg xmlns="http://www.w3.org/2000/svg" xmlns:xlink="http://www.w3.org/1999/xlink" width="64" height="64" viewBox="0 0 8.844 3.328"><svg overflow="visible" x="-.563" y="4.156"><path style="stroke:none" d="M9.047-2.297c.187 0 .36 0 .36-.203 0-.188-.188-.188-.36-.188h-5.86a3.682 3.682 0 0 0 1-1.468h-.312c-.266.734-.781 1.203-1.156 1.468h-1.36a3.724 3.724 0 0 0 1.016-1.468h-.313A3.056 3.056 0 0 1 .563-2.5c.938.516 1.344 1.219 1.5 1.672h.313A3.724 3.724 0 0 0 1.36-2.297h1.36c.36.25.875.719 1.156 1.469h.313a3.697 3.697 0 0 0-1-1.469zm0 0"/></svg></svg>