<svg xmlns="http://www.w3.org/2000/svg" xmlns:xlink="http://www.w3.org/1999/xlink" width="64" height="64" viewBox="0 0 5.047 4.984"><svg overflow="visible" x="-.078" y="4.719"><path style="stroke:none" d="m4.203-4.672-.86.438c.032.562.032 1.078.032 1.609 0 .484 0 .984-.031 1.484l-.875.579-1.016-.47c.234-.827.266-1.655.266-2.515 0-.219-.016-.437-.016-.656-.203-.14-.36-.328-.516-.516l-1.109.875.156.094.375-.203c.36.312.36.875.36 1.328C.969-1.906.844-1 .547-.485c.375.126.984.579 1.25.75 0 0 .844-.687 1.516-1.14.124.36.328.719.515 1.031l.078.016c.39-.36.797-.703 1.219-1.047l-.063-.156c-.093.047-.421.203-.53.203-.407 0-.391-.922-.391-1.422 0-.781.03-1.563.125-2.36zm0 0"/></svg></svg>