<svg xmlns="http://www.w3.org/2000/svg" xmlns:xlink="http://www.w3.org/1999/xlink" width="64" height="64" viewBox="0 0 7.172 6.922"><svg overflow="visible" x=".547" y="6.922"><path style="stroke:none" d="M4.125-4.234h2.14c.173 0 .36 0 .36-.188 0-.203-.172-.203-.344-.203H4.547L6.5-6.515c.11-.094.125-.11.125-.204 0-.125-.078-.203-.188-.203-.093 0-.125.031-.265.188l-.766.718c-.156.157-.578.547-.734.72-.234.234-.547.53-.703.671H2.89v-1.938c0-.171 0-.359-.204-.359-.187 0-.187.188-.187.36v3.359L.953-1.734v-4.829c0-.171 0-.359-.203-.359-.188 0-.188.188-.188.36v5.015c0 .188 0 .203-.078.266l-.718.687c-.188.172-.313.281-.313.39 0 .095.063.204.203.204.078 0 .14-.063.453-.36l.454-.437v.438c0 .171 0 .359.187.359.203 0 .203-.172.203-.344v-.828L2.5-2.656V-.36c0 .171 0 .359.188.359.203 0 .203-.172.203-.344v-1.953h3.39c.172 0 .344 0 .344-.203 0-.188-.188-.188-.36-.188H2.892v-.359zm-.578 0-.656.64v-.64zm0 0"/></svg></svg>