<svg xmlns="http://www.w3.org/2000/svg" xmlns:xlink="http://www.w3.org/1999/xlink" width="3.667" height="6.021" viewBox="0 0 2.75 4.516"><svg overflow="visible" x="148.712" y="134.765" transform="translate(-149.275 -130.468)"><path style="stroke:none" d="M.953-3.922c0-.172 0-.375-.203-.375-.188 0-.188.172-.188.344v3.828c0 .172 0 .344.188.344.203 0 .203-.203.203-.375zm2.36-.031c0-.172 0-.344-.204-.344-.203 0-.203.203-.203.375v3.766c0 .172 0 .375.203.375.204 0 .204-.172.204-.344zm0 0"/></svg></svg>