<svg xmlns="http://www.w3.org/2000/svg" xmlns:xlink="http://www.w3.org/1999/xlink" width="64" height="64" viewBox="0 0 5.891 12.672"><svg overflow="visible" x="-.828" y="8.828"><path style="stroke:none" d="M6.484-6.297c.141-.047.235-.11.235-.234 0-.14-.11-.172-.203-.219L1.203-8.766c-.14-.062-.156-.062-.172-.062-.11 0-.203.078-.203.187 0 .141.11.188.203.235L5.97-6.531 1.062-4.656c-.156.062-.234.11-.234.234 0 .11.094.188.203.188.032 0 .047 0 .188-.047zm0 5.969c.141-.047.235-.094.235-.234 0-.11-.094-.188-.203-.188-.016 0-.032 0-.172.047L1.062 1.312c-.125.047-.234.094-.234.235 0 .14.11.172.203.219L6.328 3.78c.14.063.156.063.188.063.109 0 .203-.078.203-.188 0-.14-.125-.187-.203-.234L1.578 1.547zm-.109-1.969c.172 0 .344 0 .344-.203 0-.188-.188-.188-.36-.188H1.188c-.172 0-.36 0-.36.188 0 .203.172.203.344.203zm0 0"/></svg></svg>