<svg xmlns="http://www.w3.org/2000/svg" xmlns:xlink="http://www.w3.org/1999/xlink" width="64" height="64" viewBox="0 0 6.969 7.141"><svg overflow="visible" x="-.563" y="6.875"><path style="stroke:none" d="M3.375-5.063c-.531.141-1.094.594-1.094 1.188 0 .516.453.797.953.797.766 0 1.594-.328 2.282-.328.796 0 1.234.64 1.234 1.344 0 .453-.156.968-.469 1.296-.453.454-1.11.5-1.75.5-1.968 0-3.14-1.687-3.14-3.5 0-1.156.78-2.5 1.953-2.5.906 0 1.937 1.11 2.703 1.172.719-.265 1.297-.64 1.484-1.437l-.187-.11c-.11.375-.313.75-.813.75-.547 0-1.328-.453-2.297-.984-.921.203-1.937.578-2.593 1.25C.953-4.937.562-4.047.562-3.078c0 .969.391 1.922 1.063 2.594.547.546 1.328.75 2.094.75 1.781 0 3.765-.938 3.765-3.032 0-.812-.64-1.328-1.375-1.328-.703 0-1.859.438-2.437.438-.375 0-.64-.203-.64-.594 0-.297.155-.578.484-.688zm0 0"/></svg></svg>