<svg xmlns="http://www.w3.org/2000/svg" xmlns:xlink="http://www.w3.org/1999/xlink" width="64" height="64" viewBox="0 0 8.828 5.641"><svg overflow="visible" x="-.563" y="5.313"><path style="stroke:none" d="M5.25-4.938c.047-.125.047-.14.047-.171a.194.194 0 0 0-.188-.204c-.125 0-.171.063-.218.22l-.61 1.437H.906c-.172 0-.344 0-.344.203 0 .187.188.187.36.187h3.187l-.656 1.547H.922c-.172 0-.36 0-.36.188 0 .203.172.203.344.203h2.39c-.093.187-.608 1.39-.608 1.453 0 .14.124.203.203.203.125 0 .171-.094.203-.187l.625-1.47h3.047c-.797.876-1 1.423-1 1.454 0 .125.109.125.203.125.156 0 .156-.016.25-.188a4.797 4.797 0 0 1 3-2.421c.125-.032.172-.047.172-.141 0-.078-.047-.094-.157-.125-1.593-.453-2.5-1.453-2.984-2.36-.11-.187-.11-.202-.125-.218-.047-.031-.094-.031-.156-.031-.094 0-.203 0-.203.125 0 .015.203.562 1 1.453H4.703zm-1.36 3.22.641-1.548h2.485c.187 0 .203 0 .328.11a5.26 5.26 0 0 0 1.14.656c-.046.031-.625.281-1.062.61-.11.093-.188.14-.188.14-.03.016-.03.031-.218.031zm0 0"/></svg></svg>