<svg xmlns="http://www.w3.org/2000/svg" xmlns:xlink="http://www.w3.org/1999/xlink" width="64" height="64" viewBox="0 0 6.125 7.109"><svg overflow="visible" x="-.313" y="6.844"><path style="stroke:none" d="M6.266-1.969c-.094.36-.22.703-.47.969-.312.297-.75.36-1.171.36-.844 0-1.75-.344-2.547-.672.094-.063 1.156-1.016 1.156-1.344 0-.61-.546-1.406-.734-2a1.55 1.55 0 0 1-.11-.547c0-.781.672-1.219 1.36-1.219.563 0 1.063.297 1.063 1.016 0 .406-.079.781-.079.922 0 .25.266.453.407.453l1.187-.297V-4.5c-.312 0-.672-.031-.672-.313 0-.171.047-.625.047-.875 0-.953-.625-1.156-1.234-1.156-1.094 0-2.11.547-2.688 1.547-.093.188-.187.406-.187.625 0 .89.922 1.766.922 2.406 0 .375-.407.72-.782.844h-.312C.812-1.328.532-.532.312 0l.126.156c.234-.422.546-.844.843-.844.219 0 .438.063.625.157.907.39 1.907.797 2.813.797.89 0 1.36-.25 1.718-2.125zm0 0"/></svg></svg>