<svg xmlns="http://www.w3.org/2000/svg" xmlns:xlink="http://www.w3.org/1999/xlink" width="64" height="64" viewBox="0 0 7.266 6.812"><svg overflow="visible" x="-.375" y="6.812"><path style="stroke:none" d="M4.672-3.5c.39.016.578.047.64.094.016.015.016.062.032.078 0 .094.078.094.125.094.156 0 .468-.172.468-.375 0-.25-.421-.297-.64-.313-.016 0-.156 0-.156-.015 0-.016.156-.172.234-.266.938-.938 2.266-2.438 2.266-2.531 0-.032 0-.079-.079-.079-.062 0-.328.063-.609.282-.187 0-.437 0-1.016-.11-.546-.093-.906-.171-1.296-.171-.641 0-1.235.234-1.766.546-.89.579-.969 1.157-.969 1.157 0 .03 0 .078.094.078.188 0 .781-.282.875-.547.125-.39.25-.61.938-.61.078 0 .359 0 .968.11.5.094.907.172 1.266.172.11 0 .234 0 .344-.032a39.88 39.88 0 0 1-1.86 2.016h-1c-.515 0-.61.297-.61.328 0 .094.095.094.267.094h.906c-.078.078-.547.547-1.844 1.719-.016.015-.734.672-1.563 1.36-.125.108-.312.28-.312.358 0 .016 0 .063.078.063.125 0 .328-.094.469-.172.172-.11.344-.11.5-.11.453 0 1.094.079 1.562.126C3.454-.078 4.125 0 4.61 0c.735 0 1.329-.406 1.641-.703.61-.531.781-1.235.781-1.297 0-.063-.031-.078-.078-.078-.187 0-.797.297-.875.578-.062.188-.172.531-.469.875-.312 0-.656 0-1.578-.11-.5-.062-1.234-.156-1.765-.156-.063 0-.297 0-.485.032zm0 0"/></svg></svg>