<svg xmlns="http://www.w3.org/2000/svg" xmlns:xlink="http://www.w3.org/1999/xlink" width="64" height="64" viewBox="0 0 7.641 7.156"><svg overflow="visible" x="-.484" y="6.891"><path style="stroke:none" d="M5.36.266c.609 0 1.202-.5 2.39-1.485.14-.39.219-.578.219-1.015 0-.938-.657-1.579-1.766-1.579l.89-.64c.329-.219.657-.328 1.032-.469v-.219c-.14.047-.297.094-.438.11-.625 0-.484-1.297-.78-1.594-.173-.172-.407-.219-.641-.219-.75 0-1.5.532-2.016 1.063-.266-.547-.844-1.11-1.422-1.11-.937 0-1.594.625-1.828.86-.281.281-.516.578-.516.984 0 .672.844 1.313.844 1.594 0 .328-.36.656-.625.797l.14.11c.329-.157 1.235-.61 1.235-1.329 0-.469-.89-1.188-.89-1.516 0-.593.39-.875.968-.875.625 0 1.578.641 1.578 2.266 0 .469-.046 1.172-.078 1.484-.031.282-.219.844-1.469 1.579L.954-.204 1.078 0C1.5-.266 2-.484 2.5-.484c.797 0 1.797.75 2.86.75zm-.813-3.75c.016-.141.016-.36.016-.5 0-.422-.032-.985-.094-1.235.172-.531.5-1.093 1.218-1.093.407 0 .657.265.75.921.047.313.141.75.375.86-.843.578-1.296.687-2.265 1.047zm-.344 1.421a3.44 3.44 0 0 0 .328-1.171c.25-.11.516-.172.782-.172.921 0 1.812.672 1.812 1.656C7.125-1.11 6.75-.375 6-.375c-.781 0-1.89-.797-2.969-.797zm0 0"/></svg></svg>