<svg xmlns="http://www.w3.org/2000/svg" xmlns:xlink="http://www.w3.org/1999/xlink" width="64" height="64" viewBox="0 0 6.641 8.859"><svg overflow="visible" x="-.828" y="6.922"><path style="stroke:none" d="M6.016-6.547c0-.187 0-.375-.204-.375-.203 0-.203.156-.203.344V1.14C5.391.906 4.922.406 4.141.125c-.766.281-1.235.781-1.454 1.016v-7.72c0-.187 0-.343-.203-.343s-.203.188-.203.375v7.672a3.77 3.77 0 0 0-1.453-1v.297a3.06 3.06 0 0 1 1.656 1.516A3.157 3.157 0 0 1 4.141.421c.718.281 1.328.812 1.656 1.516h.016A3.17 3.17 0 0 1 7.468.421V.125a3.625 3.625 0 0 0-1.453 1zm0 0"/></svg></svg>