<svg xmlns="http://www.w3.org/2000/svg" xmlns:xlink="http://www.w3.org/1999/xlink" width="64" height="64" viewBox="0 0 2.609 4.516"><svg overflow="visible" x=".203" y="4.297"><path style="stroke:none" d="M1.313-2.422c.265-.265.296-.297.734-.765l.219-.22c.109-.124.14-.155.14-.218a.197.197 0 0 0-.203-.203c-.094 0-.11.015-.234.156-.063.047-.485.5-.657.672v-.953c0-.156 0-.344-.203-.344s-.203.188-.203.36v1.359l-.75.781-.218.219c-.11.125-.141.156-.141.219 0 .109.078.203.203.203.094 0 .11-.032.234-.14.078-.095.438-.47.672-.704v1.875c0 .172 0 .344.203.344.204 0 .204-.172.204-.344zm0 0"/></svg></svg>