<svg xmlns="http://www.w3.org/2000/svg" xmlns:xlink="http://www.w3.org/1999/xlink" width="64" height="64" viewBox="0 0 8.844 5.641"><svg overflow="visible" x="-.563" y="5.313"><path style="stroke:none" d="M6.5-3.266h2.547c.172 0 .36 0 .36-.187 0-.203-.188-.203-.36-.203H6.672l.531-1.281c.047-.125.063-.141.063-.172 0-.141-.125-.204-.204-.204-.109 0-.156.063-.218.22l-.61 1.437H3.188c.812-.875 1-1.422 1-1.453 0-.125-.11-.125-.204-.125-.14 0-.14.015-.25.187-.5.969-1.421 1.969-3 2.422-.109.031-.171.047-.171.125 0 .094.062.11.171.14C2.328-1.905 3.22-.905 3.704 0c.108.188.108.203.14.219.031.031.078.031.14.031.094 0 .204 0 .204-.125 0-.016-.188-.563-1-1.453H5.25c-.078.187-.594 1.39-.594 1.453 0 .14.125.203.203.203.125 0 .172-.094.204-.187l.625-1.47h3.359c.172 0 .36 0 .36-.202 0-.188-.188-.188-.36-.188H5.859zm-.422 0-.656 1.547H2.938c-.172 0-.204 0-.329-.11-.562-.421-1.093-.64-1.14-.671a5.893 5.893 0 0 0 1.078-.594.564.564 0 0 1 .187-.14c.016-.016.032-.032.204-.032zm0 0"/></svg></svg>