<svg xmlns="http://www.w3.org/2000/svg" xmlns:xlink="http://www.w3.org/1999/xlink" width="64" height="64" viewBox="0 0 6.625 9.547"><svg overflow="visible" x="-.563" y="7.297"><path style="stroke:none" d="M7.188.266c0-.235-.063-.329-.141-.329-.125 0-.14.235-.14.297-.032.86-.657 1.454-1.376 1.454-.64 0-1.11-.407-1.547-.813C3.422.391 2.906-.063 2.22-.063 1.172-.063.563 1 .563 1.923c0 .234.062.328.14.328.11 0 .14-.203.14-.234C.892.875 1.689.484 2.22.484c.625 0 1.094.422 1.547.829.546.484 1.062.937 1.765.937 1.047 0 1.657-1.063 1.657-1.984zm-3.47-4.672c1.845-.36 2.579-1.032 2.954-1.797.203-.39.25-.828.25-.89a.206.206 0 0 0-.203-.204.215.215 0 0 0-.203.172c-.094.688-.344 1.688-2.36 2.203-1.031.281-2.39.313-3.047.313-.093 0-.28 0-.28.203 0 .078.046.125.077.156a.12.12 0 0 0 .078.031c.016.016.032.016.344.016 1.031 0 2.063.078 3.063.36 1.593.468 2 1.312 2.125 2.062.015.11.03.25.203.25.093 0 .203-.063.203-.203 0-.063-.047-.532-.266-.954-.484-.874-1.422-1.421-2.937-1.718zm0 0"/></svg></svg>