<svg xmlns="http://www.w3.org/2000/svg" xmlns:xlink="http://www.w3.org/1999/xlink" width="64" height="64" viewBox="0 0 4.813 4.797"><svg overflow="visible" x="-1.468" y="4.891"><path style="stroke:none" d="M6.14-4.469c.126-.125.141-.14.141-.218a.197.197 0 0 0-.203-.204c-.078 0-.11.032-.219.141L3.875-2.766 1.891-4.75c-.125-.125-.141-.14-.22-.14-.202 0-.202.187-.202.359v4.078c0 .172 0 .36.203.36.078 0 .094-.016.219-.141L3.875-2.22c.484.485 1.938 1.953 2.063 2.063.015.031.078.062.14.062.125 0 .203-.078.203-.203 0-.016 0-.062-.047-.125A310.226 310.226 0 0 1 4.172-2.5zM1.86-.766v-3.437L3.577-2.5zm0 0"/></svg></svg>