<svg xmlns="http://www.w3.org/2000/svg" xmlns:xlink="http://www.w3.org/1999/xlink" width="64" height="64" viewBox="0 0 6.094 9.641"><svg overflow="visible" x="-.828" y="7.5"><path style="stroke:none" d="M3.828-7.11c1.61 0 2.688 1.173 2.688 2.485 0 1.36-1.125 2.484-2.672 2.484H1.172c-.172 0-.344 0-.344.204 0 .203.172.203.344.203h2.703C5.547-1.734 6.922-3 6.922-4.61c0-1.625-1.375-2.891-3.063-2.891H1.172c-.172 0-.344 0-.344.188 0 .203.172.203.344.203zm2.735 9.25c.171 0 .359 0 .359-.203s-.188-.203-.36-.203h-5.39c-.172 0-.344 0-.344.204 0 .203.172.203.344.203zm0-1.937c.171 0 .359 0 .359-.203s-.188-.203-.36-.203h-5.39C1-.203.828-.203.828 0s.172.203.344.203zm0 0"/></svg></svg>