<svg xmlns="http://www.w3.org/2000/svg" xmlns:xlink="http://www.w3.org/1999/xlink" width="64" height="64" viewBox="0 0 3.578 7.016"><svg overflow="visible" x="-.594" y="4.781"><path style="stroke:none" d="M4.047 1.781C3.984.734 3.984-.344 3.984-1.406c0-1.11.032-2.469.188-3.313l-.078-.062-.703.468c-.329-.062-.641-.218-.922-.406-.5.407-1.078.735-1.656 1.047C.64-2.969.593-2.234.593-1.5c0 .281 0 .563.032.86l.828.937c.61-.39 1.172-.766 1.734-1.219 0 .985-.03 2.078-.078 3.063l.11.093zM2.172-.5c-.266-.234-.781-.734-.781-.938-.016-.03-.016-.359-.016-.562 0-.656.047-1.422.36-1.969.484.156.984.281 1.5.313-.047.797-.047 1.656-.047 2.453-.313.219-.782.578-1.016.703zm0 0"/></svg></svg>