<svg xmlns="http://www.w3.org/2000/svg" xmlns:xlink="http://www.w3.org/1999/xlink" width="64" height="64" viewBox="0 0 5.516 6.187"><svg overflow="visible" x="-.563" y="5.969"><path style="stroke:none" d="M4.547-5.61c0-.171 0-.359-.203-.359s-.203.188-.203.36v3.03c0 .204 0 .392-.22.61a.82.82 0 0 1-.608.25.88.88 0 0 1-.594-.234C2.5-2.172 2.5-2.36 2.5-2.578V-5.61c0-.172 0-.36-.203-.36s-.203.188-.203.36v3.062c0 .985.844 1.235 1.219 1.235.39 0 1.234-.25 1.234-1.235zm1.531 0c0-.171 0-.359-.203-.359-.188 0-.188.188-.188.36V-2c0 1.422-1.515 1.828-2.375 1.828-.546 0-1.156-.156-1.624-.469C.953-1.14.953-1.75.953-2v-3.61c0-.171 0-.359-.203-.359-.188 0-.188.188-.188.36v3.64C.563-.422 2.095.22 3.313.22c1.235 0 2.766-.656 2.766-2.188zm0 0"/></svg></svg>