<svg xmlns="http://www.w3.org/2000/svg" xmlns:xlink="http://www.w3.org/1999/xlink" width="8.125" height="7.688" viewBox="0 0 6.094 5.766"><svg overflow="visible" x="148.712" y="134.765" transform="translate(-149.54 -129.39)"><path style="stroke:none" d="M5.938-2.5a.64.64 0 0 0-.641-.625.627.627 0 0 0-.625.625c0 .375.297.64.625.64.36 0 .64-.296.64-.64zm.78-2.453c.157-.078.204-.14.204-.219 0-.14-.125-.203-.203-.203a.35.35 0 0 0-.157.047l-5.546 2.61C.89-2.657.828-2.61.828-2.5c0 .14.078.172.203.234L6.547.328c.11.047.125.063.172.063.078 0 .203-.063.203-.204 0-.124-.078-.14-.203-.203L1.5-2.5zm0 0"/></svg></svg>