<svg xmlns="http://www.w3.org/2000/svg" xmlns:xlink="http://www.w3.org/1999/xlink" width="64" height="64" viewBox="0 0 13.291 3.734"><g style="fill:#000;fill-opacity:1"><svg overflow="visible" x="148.712" y="134.765"><path style="stroke:none" d="M3.813-2.297c.171 0 .343 0 .343-.203 0-.188-.172-.188-.343-.188H1.171c-.172 0-.344 0-.344.188 0 .203.172.203.344.203zm0 0"/></svg><svg overflow="visible" x="153.693" y="134.765"><path style="stroke:none" d="M3.813-2.297c.171 0 .343 0 .343-.203 0-.188-.172-.188-.343-.188H1.171c-.172 0-.344 0-.344.188 0 .203.172.203.344.203zm0 0"/></svg><svg overflow="visible" x="158.675" y="134.765"><path style="stroke:none" d="M2.813-2.25c-.516.5-.876 1.266-.876 1.422 0 .203.22.203.36.203.172 0 .281 0 .344-.14a2.9 2.9 0 0 1 1.328-1.5c.125-.079.187-.11.187-.235 0-.078-.047-.14-.125-.188-.297-.156-.953-.515-1.375-1.484-.078-.172-.125-.187-.36-.187-.14 0-.358 0-.358.203 0 .14.359.922.875 1.422H.984c-.171 0-.406 0-.406.234 0 .25.235.25.406.25zm0 0"/></svg></g></svg>