<svg xmlns="http://www.w3.org/2000/svg" xmlns:xlink="http://www.w3.org/1999/xlink" width="64" height="64" viewBox="0 0 6.625 5.844"><svg overflow="visible" x="-.563" y="5.828"><path style="stroke:none" d="M7.047-5.406c.14-.125.14-.188.14-.219 0-.203-.171-.203-.203-.203-.062 0-.093.016-.28.172l-.766.672c-.204-.22-.938-.844-2.063-.844A2.907 2.907 0 0 0 .953-2.906c0 .937.375 1.484.578 1.765-.156.157-.172.157-.75.672-.203.172-.219.203-.219.297 0 .11.079.188.188.188.078 0 .094 0 .281-.172l.766-.672c.094.094.828.844 2.078.844 1.688 0 2.922-1.375 2.922-2.922 0-.922-.39-1.5-.594-1.766.016-.016.078-.062.11-.11zM1.828-1.391c-.484-.687-.484-1.296-.484-1.515a2.52 2.52 0 0 1 2.531-2.531c1.063 0 1.656.609 1.75.718zm4.078-3.03c.328.437.5.937.5 1.515A2.52 2.52 0 0 1 3.875-.375c-1.063 0-1.656-.61-1.766-.719zm0 0"/></svg></svg>