<svg xmlns="http://www.w3.org/2000/svg" xmlns:xlink="http://www.w3.org/1999/xlink" width="64" height="64" viewBox="0 0 7.359 7.359"><svg overflow="visible" x="-.468" y="7.141"><path style="stroke:none" d="M7.828-5.39c0-.188 0-.266-.11-.266-.046 0-.077.047-.093.062C6.641-3.89 5.5-3.625 4.25-3.562c0-2.172 1.422-3.016 2.016-3.36.046-.031.093-.062.093-.11 0-.109-.078-.109-.265-.109h-3.89c-.173 0-.267 0-.267.11 0 .047.047.078.125.125.594.343 1.985 1.187 1.985 3.343-.86-.03-2.266-.124-3.313-1.937-.109-.156-.109-.156-.156-.156-.11 0-.11.078-.11.265v3.86c0 .203 0 .281.11.281.063 0 .094-.063.094-.078 1-1.703 2.125-1.969 3.375-2.031 0 2.187-1.422 3.015-2 3.359-.063.047-.11.063-.11.125 0 .094.094.094.266.094h3.89c.188 0 .266 0 .266-.094 0-.063-.046-.078-.125-.14C5.641-.36 4.25-1.204 4.25-3.36c.86.046 2.266.125 3.328 1.937.094.156.11.172.14.172.11 0 .11-.078.11-.281zm0 0"/></svg></svg>