<svg xmlns="http://www.w3.org/2000/svg" xmlns:xlink="http://www.w3.org/1999/xlink" width="64" height="64" viewBox="0 0 7.328 7.531"><svg overflow="visible" x="-.109" y="7.265"><path style="stroke:none" d="M4.313-5.938c1.265 0 2.218.485 2.218 2.641 0 1.453-.453 2.938-1.953 2.938-.953 0-1.719-.391-2.594-.672a1.088 1.088 0 0 0-.39-.078C2.047-1.5 2.609-2 2.609-2.61c0-.672-.968-1.563-.968-2.22 0-.359.406-.734.703-.952l-.203-.11C1.469-5.5.797-4.828.797-4.094c0 .25.265.516.64 1.078.188.282.422.61.422.954 0 .5-.406.859-.843 1A9.85 9.85 0 0 0 .109 0l.157.156c.218-.312.578-.531.953-.531s.734.203 1.062.328c.5.203 1.047.313 1.594.313.938 0 1.922-.72 2.656-1.375.735-.641.907-1.875.907-2.875 0-1.313-.485-2.454-2.391-2.61-.953-.078-1.64-.093-1.64-.422a.4.4 0 0 1 .109-.25h-.172c-.235.313-.688.5-.688.891 0 .344.485.469.797.469zm0 0"/></svg></svg>