<svg xmlns="http://www.w3.org/2000/svg" xmlns:xlink="http://www.w3.org/1999/xlink" width="64" height="64" viewBox="0 0 7.438 6.812"><svg overflow="visible" x="-.203" y="6.812"><path style="stroke:none" d="M2.031 0c2.328 0 5.61-1.781 5.61-4.5 0-.89-.422-1.438-.907-1.75-.859-.563-1.78-.563-2.734-.563-.844 0-1.438 0-2.281.36C.406-5.86.203-5.031.203-4.953c0 .062.047.078.11.078.156 0 .39-.14.468-.188.203-.14.235-.203.297-.39.14-.406.422-.75 1.672-.813-.156 2.094-.672 4-1.36 5.735-.374.125-.609.36-.609.469C.781-.017.781 0 1 0zm.047-.547c1.14-2.781 1.344-4.516 1.485-5.719.671 0 3.218 0 3.218 2.204 0 1.953-1.75 3.515-4.156 3.515zm0 0"/></svg></svg>