<svg xmlns="http://www.w3.org/2000/svg" xmlns:xlink="http://www.w3.org/1999/xlink" width="64" height="64" viewBox="0 0 6.094 11.016"><svg overflow="visible" x="-.828" y="8"><path style="stroke:none" d="M4.344-3.094c.703-.14 1.437-.172 2.172-.172.25 0 .406 0 .406-.187 0-.203-.172-.203-.297-.203l-1.094-.031a8.907 8.907 0 0 1-.906-.094L6.219-7.61c.047-.125.062-.141.062-.204 0-.109-.078-.187-.203-.187-.062 0-.11.016-.14.063l-1.72 4.093c-1.827-.312-2.796-1-2.984-2.234-.015-.125-.03-.266-.203-.266-.11 0-.203.078-.203.219 0 0 .031.516.313 1.031C1.75-4.062 2.984-3.656 4-3.454c-1.844.36-2.547 1.048-2.938 1.798a2.896 2.896 0 0 0-.234.875.21.21 0 0 0 .203.219c.078 0 .172-.063.188-.188.062-.344.14-.953.797-1.469.593-.484 1.359-.703 1.859-.797L2.219.97H1.172C1 .97.828.97.828 1.173c0 .187.172.187.344.187h.875c-.078.22-.578 1.36-.578 1.47 0 .108.078.187.203.187s.156-.094.219-.235l.593-1.422h4.079c.171 0 .359 0 .359-.187 0-.203-.188-.203-.36-.203H2.656zm0 0"/></svg></svg>