<svg xmlns="http://www.w3.org/2000/svg" xmlns:xlink="http://www.w3.org/1999/xlink" width="64" height="64" viewBox="0 0 8.828 8.828"><svg overflow="visible" x="-.078" y="7.078"><path style="stroke:none" d="M8.906-2.656c0-2.422-1.953-4.422-4.406-4.422-2.469 0-4.422 2-4.422 4.422C.078-.203 2.094 1.75 4.5 1.75a4.411 4.411 0 0 0 4.406-4.406zM4.5 1.359A4.024 4.024 0 0 1 .484-2.656 4.004 4.004 0 0 1 4.5-6.672a4.014 4.014 0 0 1 4.016 4.016c0 2.203-1.813 4.015-4.016 4.015zm.078-3.609c.531.125.64.14.86.36.062.03.328.312.328.75 0 .5-.391 1.03-1.079 1.03-.265 0-.796-.046-1.234-.39-.437-.344-.469-.828-.484-1.11-.016-.077-.094-.077-.125-.077-.125 0-.125.046-.125.265v1.297c0 .188 0 .266.11.266.046 0 .077-.032.108-.094.016-.016.282-.39.297-.39.282.25.797.484 1.454.484.968 0 1.578-.766 1.578-1.563 0-.625-.391-1.016-.391-1.031-.36-.375-.516-.406-1.375-.61a61.01 61.01 0 0 1-.61-.14c-.5-.203-.656-.594-.656-.89 0-.47.391-.954 1.063-.954 1.266 0 1.437 1.172 1.484 1.484.016.079.016.141.125.141.14 0 .14-.062.14-.265V-5c0-.188 0-.266-.109-.266-.062 0-.078.032-.109.094-.031.016-.281.39-.297.39a1.79 1.79 0 0 0-1.25-.484c-.906 0-1.562.688-1.562 1.454 0 .562.328.89.437 1.015.297.297.5.328 1.422.547zm0 0"/></svg></svg>