<svg xmlns="http://www.w3.org/2000/svg" xmlns:xlink="http://www.w3.org/1999/xlink" width="64" height="64" viewBox="0 0 5.344 7.25"><svg overflow="visible" x="-.391" y="7.031"><path style="stroke:none" d="M2.125-2.688c.172 0 .36 0 .36-.187 0-.203-.188-.203-.36-.203H.735c-.313 0-.344.031-.344.344v2.14c0 .422 0 .813 1.89.813.547 0 1.453 0 2.406-.953.563-.547 1.047-1.516 1.047-2.672 0-1.906-1.343-3.625-3.265-3.625-.547 0-1.11.125-1.703.406-.188.078-.297.14-.297.281 0 .094.094.188.203.188.062 0 .125-.032.203-.078a3.512 3.512 0 0 1 1.594-.391c1.703 0 2.86 1.563 2.86 3.219 0 .719-.188 1.547-.798 2.265-.828.97-1.781.97-2.25.97-.14 0-.61 0-.969-.063-.53-.063-.53-.157-.53-.391v-2.063zm0 0"/></svg></svg>