<svg xmlns="http://www.w3.org/2000/svg" xmlns:xlink="http://www.w3.org/1999/xlink" width="64" height="64" viewBox="0 0 4.406 10.234"><svg overflow="visible" x="-.563" y="8.578"><path style="stroke:none" d="M4.031-8.172c.032-.125.032-.156.032-.203a.19.19 0 0 0-.188-.203c-.172 0-.203.172-.219.265l-.312 1.391H.906c-.172 0-.344 0-.344.203s.172.203.344.203H3.25l-.64 2.86H1.046c-.172 0-.344 0-.344.203 0 .187.172.187.344.187h1.469l-.641 2.86H.906c-.172 0-.344 0-.344.203S.734 0 .906 0h.875c-.11.453-.062.297-.172.734-.046.25-.14.688-.14.72 0 .171.14.202.203.202.156 0 .187-.14.203-.234.156-.656.172-.719.313-1.422h2.437c.313 0 .344-.031.344-.344v-6.218c0-.313-.032-.36-.344-.36H3.75zM3.016-3.656l.64-2.86h.922v2.86zM2.28-.406l.656-2.86h1.641v2.86zm0 0"/></svg></svg>