<svg xmlns="http://www.w3.org/2000/svg" xmlns:xlink="http://www.w3.org/1999/xlink" width="64" height="64" viewBox="0 0 13.494 3.734"><g style="fill:#000;fill-opacity:1"><svg overflow="visible" x="148.712" y="134.765"><path style="stroke:none" d="M3.813-2.25c.156 0 .39 0 .39-.25 0-.234-.234-.234-.39-.234H1.968c.515-.5.875-1.266.875-1.422 0-.203-.219-.203-.344-.203-.188 0-.297 0-.36.14-.109.297-.421 1.016-1.328 1.5-.109.078-.187.11-.187.219 0 .094.047.156.125.203.313.156.969.516 1.375 1.485.078.171.125.187.375.187.125 0 .344 0 .344-.203 0-.14-.36-.922-.875-1.422zm0 0"/></svg><svg overflow="visible" x="153.693" y="134.765"><path style="stroke:none" d="M3.813-2.297c.171 0 .343 0 .343-.203 0-.188-.172-.188-.343-.188H1.171c-.172 0-.344 0-.344.188 0 .203.172.203.344.203zm0 0"/></svg><svg overflow="visible" x="158.675" y="134.765"><path style="stroke:none" d="M3.813-2.297c.171 0 .343 0 .343-.203 0-.188-.172-.188-.343-.188H1.171c-.172 0-.344 0-.344.188 0 .203.172.203.344.203zm0 0"/></svg></g></svg>