<svg xmlns="http://www.w3.org/2000/svg" xmlns:xlink="http://www.w3.org/1999/xlink" width="64" height="64" viewBox="0 0 4.953 9.078"><svg overflow="visible" x="-.563" y="8.109"><path style="stroke:none" d="M5.156-7.703c.172 0 .36 0 .36-.203s-.172-.203-.344-.203H.906c-.172 0-.344 0-.344.203s.188.203.36.203zm-1.89 3.656c-.063-.094-.11-.187-.22-.187-.14 0-.171.093-.218.203L.625.562C.562.704.562.75.562.766c0 .109.079.203.188.203C.89.969.922.89.984.766l2.063-4.344L5.109.782c.047.109.11.187.22.187.109 0 .187-.094.187-.203 0-.063-.032-.125-.047-.172zM.906-6.172c-.172 0-.344 0-.344.203s.188.203.36.203h4.234c.172 0 .36 0 .36-.203s-.172-.203-.344-.203zm0 0"/></svg></svg>