<svg xmlns="http://www.w3.org/2000/svg" xmlns:xlink="http://www.w3.org/1999/xlink" width="64" height="64" viewBox="0 0 6.844 7.219"><svg overflow="visible" x="-.218" y="6.953"><path style="stroke:none" d="M3.984-3.188c.297-.593.485-1.28.485-1.953 0-.968-.797-1.703-1.75-1.703-.813 0-1.688.578-1.938.828-.265.282-.562.579-.562.97 0 .593.484.874.781 1.327.063.078.11.172.11.266 0 .328-.329.625-.626.797l.157.11c.53-.25 1.156-.735 1.156-1.329 0-.578-.938-1.047-.938-1.484 0-.579.594-.954 1.11-.954.984 0 1.703.844 1.703 1.813 0 .531-.094 1.156-.438 1.594-.39.531-1.156 1.078-1.796 1.578L.313-.484l.171.109c.36-.219.672-.39 1.047-.39.688 0 1.125.484 1.453 1.03L5-1.218c.156.516.328 1 .625 1.485l1.438-1.11L7.016-1c-.172.078-.454.25-.61.25-.172 0-.422-.64-.515-.89-.032-.094-.032-.22-.047-.329a34.036 34.036 0 0 1-.047-1.797c0-1-.047-2.39.156-2.656.063-.094.266-.281.422-.422l-.172-.11-1.266.97C4.97-5.61 5-5.141 5-4.72v3.235c-.5.312-1.328.843-1.438.843l-.484-.468c-.219-.22-.469-.438-.86-.438zm0 0"/></svg></svg>