<svg xmlns="http://www.w3.org/2000/svg" xmlns:xlink="http://www.w3.org/1999/xlink" width="64" height="64" viewBox="0 0 6.625 9.297"><svg overflow="visible" x="-.563" y="7.141"><path style="stroke:none" d="M6.281-6.75c.078-.14.078-.156.078-.188 0-.078-.062-.203-.203-.203-.11 0-.14.063-.218.204l-4.47 8.703c-.077.14-.077.156-.077.187 0 .078.062.203.187.203s.156-.062.219-.203zm0 0"/></svg><svg overflow="visible" x="-.563" y="7.141"><path style="stroke:none" d="M6.844-3.266c.156 0 .343 0 .343-.187 0-.203-.187-.203-.328-.203H.891c-.141 0-.329 0-.329.203 0 .187.188.187.329.187zm.015 1.938c.141 0 .329 0 .329-.203 0-.188-.188-.188-.344-.188H.89c-.141 0-.329 0-.329.188 0 .203.188.203.329.203zm0 0"/></svg></svg>