<svg xmlns="http://www.w3.org/2000/svg" xmlns:xlink="http://www.w3.org/1999/xlink" width="64" height="64" viewBox="0 0 8.625 7.203"><svg overflow="visible" x="-.563" y="6.094"><path style="stroke:none" d="M6.453-4.234c.188 0 .203.015.281.109.22.281.688.86 1.532 1.438H.906c-.203 0-.344 0-.344.187 0 .203.141.203.344.203h7.36c-.844.578-1.329 1.188-1.532 1.422-.078.11-.093.125-.28.125H.905c-.172 0-.344 0-.344.188 0 .203.172.203.344.203H6.36a8.14 8.14 0 0 0-.718 1.468h.468A6.622 6.622 0 0 1 9.188-2.5c-1.422-.781-2.516-2-3.079-3.594h-.468c.14.407.375.922.718 1.469H.906c-.172 0-.344 0-.344.203 0 .188.172.188.344.188zm0 0"/></svg></svg>