<svg xmlns="http://www.w3.org/2000/svg" xmlns:xlink="http://www.w3.org/1999/xlink" width="64" height="64" viewBox="0 0 6.625 5.547"><svg overflow="visible" x="-.563" y="5.265"><path style="stroke:none" d="M4.5-4.64a.627.627 0 0 0-.625-.626.614.614 0 0 0-.61.625c0 .329.266.61.61.61a.624.624 0 0 0 .625-.61zm0 4.296a.624.624 0 0 0-.625-.61.61.61 0 0 0-.61.61c0 .344.266.625.61.625A.627.627 0 0 0 4.5-.344zm1.64-4.125c.126-.125.141-.14.141-.218a.197.197 0 0 0-.203-.204c-.078 0-.11.032-.219.141L3.875-2.766 1.891-4.75c-.125-.125-.141-.14-.22-.14a.197.197 0 0 0-.202.202c0 .079.031.11.14.22l1.766 1.78H.906c-.172 0-.344 0-.344.188 0 .203.172.203.344.203h2.469L1.609-.516c-.109.11-.14.172-.14.22 0 .124.093.202.203.202.078 0 .094-.015.219-.14L3.875-2.22c.484.485 1.938 1.953 2.063 2.063.015.031.078.062.14.062.125 0 .203-.078.203-.203 0-.078-.015-.094-.14-.219l-1.782-1.78h2.485c.172 0 .343 0 .343-.204 0-.188-.171-.188-.343-.188H4.359zm0 0"/></svg></svg>