<svg xmlns="http://www.w3.org/2000/svg" xmlns:xlink="http://www.w3.org/1999/xlink" width="64" height="64" viewBox="0 0 6.563 6.812"><svg overflow="visible" x=".234" y="6.812"><path style="stroke:none" d="M3.531-6.813c-1.234 0-1.765.235-2 .329C.516-6.063.281-5.391.281-5.25c0 .063.047.078.11.078.171 0 .656-.25.734-.469.125-.375.156-.468.813-.562.343-.031.671-.063 1.015-.063h.906c-.625.61-.921 1.688-1.28 3.11-.282 1.187-.517 1.953-.923 2.484-.093.11-.11.125-.375.125h-.64c-.188 0-.297 0-.547.14-.11.063-.328.235-.328.344 0 .047 0 .063.218.063h3.422c1.156 0 2.031-.875 2.031-1.219 0-.078-.078-.078-.109-.078-.172 0-.64.234-.75.484-.062.204-.094.266-.594.266H2.078c.719-.61 1.016-1.594 1.344-2.953.281-1.078.515-2.047.922-2.656.062-.094.078-.11.265-.11h.86c.187 0 .281 0 .547-.14.078-.047.312-.219.312-.328 0-.063-.016-.079-.234-.079zm0 0"/></svg></svg>