<svg xmlns="http://www.w3.org/2000/svg" xmlns:xlink="http://www.w3.org/1999/xlink" width="64" height="64" viewBox="0 0 4.156 6.437"><svg overflow="visible" x="-.125" y="6.094"><path style="stroke:none" d="M4-1.094c.266-.656.281-1.281.281-2.172 0-.515-.015-1.093-.031-1.265-.828-.688-1.844-1.453-2.75-1.563-.438.203-.938.438-1.375.688l.14.156.454-.188h.234c.875 0 1.781.797 2.406 1.454.079.453.125.89.125 1.328 0 .719-.109 1.453-.5 2.062-.046.078-.109.11-.156.11-.172 0-.61-.313-.797-.454-.156-.125-.312-.25-.453-.406-.016-.36-.062-.797-.062-1.187 0-.36.046-.688.125-.922.078-.203.187-.469.656-.969l-.188-.031c-.437.281-.906.719-1.328 1.11a42.02 42.02 0 0 0-.047 1.687c0 .281 0 .547.016.843.39.47.89.813 1.39 1.157zm0 0"/></svg></svg>