<svg xmlns="http://www.w3.org/2000/svg" xmlns:xlink="http://www.w3.org/1999/xlink" width="64" height="64" viewBox="0 0 7.984 7.141"><svg overflow="visible" x="-.297" y="6.844"><path style="stroke:none" d="M4.203-5.313c-.25-.78-.844-1.515-1.578-1.515-.938 0-1.594.625-1.828.86-.281.28-.5.577-.5.968 0 .531.406.89.703 1.328.063.078.14.172.14.266 0 .328-.327.64-.64.812l.14.11c.594-.297 1.235-.704 1.235-1.329 0-.593-.922-1.062-.922-1.687 0-.563.469-.703 1-.703.469 0 .906.344 1.172.719.313.437.594 1.625.594 2.828 0 .625-.047 1.484-.422 1.875-.188.187-.39.375-.672.375-.39 0-.625-.36-.719-.594h-.11l-.562.64c.188.282.516.579.86.579.453 0 1.312-.75 1.781-1.172a1.64 1.64 0 0 0 .156-.266c.36-.687.438-1.5.438-2.281 0-.422-.078-1.078-.157-1.5.297-.516.797-1.266 1.532-1.266.61 0 .672.97.86 1.22.062.077.14.187.312.218-.266.281-.657.625-.75.953-.063.219-.063.781-.063 1.172v1.672l.64 1.328L8.282-.75v-.234c-.172.093-.422.234-.64.234-.579 0-.688-1.39-.688-2.016 0-.64 0-1.75.375-2.062.266-.219.578-.453.875-.672v-.125a1.07 1.07 0 0 1-.453.11c-.234 0-.328-.094-.469-.579-.14-.468-.328-.75-1.078-.75-.547 0-1.172.344-1.484.828a6.511 6.511 0 0 1-.516.704zm0 0"/></svg></svg>