<svg xmlns="http://www.w3.org/2000/svg" xmlns:xlink="http://www.w3.org/1999/xlink" width="64" height="64" viewBox="0 0 6.094 14.609"><svg overflow="visible" x="-.828" y="10"><path style="stroke:none" d="M6.688-7.469c.171-.062.234-.125.234-.234 0-.125-.11-.172-.219-.219L1.22-9.938C1.062-10 1.047-10 1.03-10a.207.207 0 0 0-.203.203c0 .125.11.172.203.219l5.11 1.875-5.079 1.875c-.187.078-.234.14-.234.234 0 .14.125.203.203.203.016 0 .032 0 .172-.062zm0 7.907c.187-.063.234-.126.234-.235 0-.14-.14-.187-.203-.187-.016 0-.047 0-.172.046L1.063 2.079c-.11.047-.235.094-.235.235 0 .14.11.187.203.218l5.5 2.031c.14.047.172.047.188.047.11 0 .203-.078.203-.187 0-.14-.11-.188-.219-.219L1.61 2.313zm-.125-1.97c.171 0 .359 0 .359-.187 0-.203-.188-.203-.36-.203H1.188c-.171 0-.359 0-.359.203 0 .188.172.188.344.188zm0-1.921c.171 0 .359 0 .359-.203s-.188-.203-.36-.203h-5.39c-.172 0-.344 0-.344.203s.188.203.36.203zm0 0"/></svg></svg>