<svg xmlns="http://www.w3.org/2000/svg" xmlns:xlink="http://www.w3.org/1999/xlink" width="64" height="64" viewBox="0 0 6.094 7.703"><svg overflow="visible" x="-.828" y="6.344"><path style="stroke:none" d="M6.719-3.234c.156-.063.203-.141.203-.22 0-.124-.078-.155-.203-.218l-5.5-2.594c-.125-.078-.172-.078-.188-.078a.207.207 0 0 0-.203.203c0 .125.078.157.203.22L6.25-3.454 1.016-.984C.875-.922.828-.86.828-.766c0 .11.094.204.203.204.032 0 .047 0 .172-.079zm0 1.937c.156-.062.203-.14.203-.219 0-.203-.188-.203-.266-.203L1.016.953c-.094.047-.188.11-.188.219 0 .11.094.187.203.187.032 0 .047 0 .172-.062zm0 0"/></svg></svg>