<svg xmlns="http://www.w3.org/2000/svg" xmlns:xlink="http://www.w3.org/1999/xlink" width="64" height="64" viewBox="0 0 8.844 6.656"><svg overflow="visible" x="-.563" y="6.656"><path style="stroke:none" d="M8.594-4.781c-.094.078-.656.562-1 1.468h.297c.171-.468.562-1.171 1.5-1.671-.938-.516-1.329-1.22-1.5-1.672h-.297c.218.562.547 1.078 1 1.468H.906c-.172 0-.344 0-.344.204 0 .203.172.203.344.203zm.453 3.312c.187 0 .36 0 .36-.203 0-.187-.173-.187-.36-.187H1.359a3.884 3.884 0 0 0 1.016-1.454h-.313c-.28.766-.89 1.344-1.5 1.641.704.39 1.22.938 1.5 1.672h.313c-.094-.234-.344-.875-1.016-1.469zm0 0"/></svg></svg>