<svg xmlns="http://www.w3.org/2000/svg" xmlns:xlink="http://www.w3.org/1999/xlink" width="64" height="64" viewBox="0 0 6.625 7.359"><svg overflow="visible" x="-.563" y="6.531"><path style="stroke:none" d="M5.266-3.922a3.057 3.057 0 0 0-.579-1.312l.063-.204A3.093 3.093 0 0 1 6.938-2.5 3.07 3.07 0 0 1 3.874.578C2.172.578.812-.812.812-2.5c0-.703.282-1.969 1.657-2.719.11-.062.14-.078.14-.156 0-.016 0-.125-.109-.125-.188 0-1.938.953-1.938 3 0 1.86 1.5 3.328 3.313 3.328 1.844 0 3.313-1.5 3.313-3.328 0-1.219-.704-2.594-2.297-3.156a3.3 3.3 0 0 0 1.093-.797c-.046 0-.218-.063-.296-.078-.579.625-1.235.765-1.266.765-.031 0-.313-.046-.469-.046-.078 0-.203 0-.203.125 0 .109.125.125.188.125.124.015.14.015.296.171.422.407.641.891.735 1.391zm0 0"/></svg></svg>