<svg xmlns="http://www.w3.org/2000/svg" xmlns:xlink="http://www.w3.org/1999/xlink" width="64" height="64" viewBox="0 0 6.641 8.578"><svg overflow="visible" x="-.563" y="7.641"><path style="stroke:none" d="M4.078-2.297h2.766c.172 0 .36 0 .36-.203 0-.188-.188-.188-.36-.188H4.078v-2.89c0-.156 0-.344-.203-.344s-.203.188-.203.344v2.89H.906c-.172 0-.344 0-.344.188 0 .203.172.203.344.203h2.766v2.89c0 .157 0 .345.203.345s.203-.188.203-.344zm.297-4.844c0-.28-.234-.5-.5-.5s-.5.22-.5.5c0 .297.25.5.5.5.266 0 .5-.203.5-.5zm0 0"/></svg></svg>