<svg xmlns="http://www.w3.org/2000/svg" xmlns:xlink="http://www.w3.org/1999/xlink" width="64" height="64" viewBox="0 0 7.125 9.031"><svg overflow="visible" x="-.266" y="6.844"><path style="stroke:none" d="M3.516-3.953c0 1.14-.36 2.187-1.36 2.734-.156-.015-.469-.015-.687-.015C1.079-.891.625-.5.266-.11l.109.156c.36-.266.797-.578 1.25-.578.234 0 .625.125 1 .328.313.187.766.406 1.063.406.421 0 .906-.672 1.234-1.094l-.094-.171c-.219.25-.5.484-.844.484-.515 0-.984-.406-1.53-.563l1.155-.921c.516-.782.672-1.704.704-2.61 0-.14-.016-.297-.047-.437.406-.532 1.078-.86 1.156-.875.36.14.64.437.89.734.235.688.282 1.406.282 2.125 0 1.547-.11 3.281-1.094 4.234-.406.391-.734.594-1.36.594-.53 0-.984-.422-1.093-.922h-.094l-.672.703c.203.516.813.704 1.328.704 1.125 0 2.454-.985 3.125-2.032.547-1.031.657-2.344.657-3.562 0-.844 0-1.735-.157-2.531-.39-.266-.78-.547-1.078-.907-.703.328-1.36.89-1.906 1.438l-.047.047c-.219-.704-.86-1.485-1.594-1.485-.937 0-1.578.625-1.828.86-.265.28-.5.578-.5.984 0 .531.406.89.719 1.328.063.078.125.156.125.266 0 .312-.328.64-.64.797l.155.11c.578-.297 1.218-.688 1.218-1.328 0-.594-.921-1.063-.921-1.672 0-.469.359-.703 1-.703 1.015 0 1.578 1.156 1.578 2.25zm0 0"/></svg></svg>