<svg xmlns="http://www.w3.org/2000/svg" xmlns:xlink="http://www.w3.org/1999/xlink" width="64" height="64" viewBox="0 0 6.094 8.812"><svg overflow="visible" x="-.828" y="6.344"><path style="stroke:none" d="M6.375 1.36c.172 0 .344 0 .344-.188 0-.203-.172-.203-.344-.203H2.141L3.156-.562h.719c1.672 0 3.047-1.266 3.047-2.891s-1.375-2.89-3.063-2.89H1.172c-.172 0-.344 0-.344.202 0 .204.172.204.344.204h2.656c1.61 0 2.688 1.171 2.688 2.484C6.516-2.11 5.39-.97 3.844-.97h-.422l.453-.656C4-1.797 4-1.828 4-1.875c0-.063-.047-.203-.203-.203-.11 0-.14.047-.235.203l-.609.906H1.172c-.172 0-.344 0-.344.203 0 .204.172.204.344.204h1.516L1.671.968h-.5c-.172 0-.344 0-.344.204a.19.19 0 0 0 .188.187h.375l-.438.672c-.094.125-.125.188-.125.235 0 .109.094.203.203.203.11 0 .14-.047.235-.203l.593-.907zm0 0"/></svg></svg>