<svg xmlns="http://www.w3.org/2000/svg" xmlns:xlink="http://www.w3.org/1999/xlink" width="64" height="64" viewBox="0 0 10.047 8.219"><svg overflow="visible" x=".297" y="7.719"><path style="stroke:none" d="M3.047-5.719c.187.516.406 1.266.844 2.485.64 1.703.921 2.312 1.515 3.265.14.203.157.219.25.219.14 0 .344-.125.453-.203.141-.125.157-.14.266-.625.594-2.625 1.344-5.36 1.547-5.813.016-.015.219-.39 1.437-.421.204 0 .391-.532.391-.75 0-.157-.063-.157-.203-.157-1 0-1.438.407-1.563.547-.28.36-.515 1.078-.968 2.75-.36 1.266-.672 2.563-.985 3.86-.547-.829-.86-1.625-1.343-2.907a58.211 58.211 0 0 1-1.11-3.344c-.062-.203-.062-.218-.156-.218-.016 0-.219 0-.516.25-.094.078-.11.172-.11.281-.28 2.656-1.218 5.281-1.483 5.75-.094.156-.204.328-.407.328-.094 0-.484-.047-.75-.281C.11-.75.094-.75.078-.75c-.156 0-.375.5-.375.734 0 .313.61.516.89.516.641 0 1.157-1.406 1.313-1.86a26.75 26.75 0 0 0 1.14-4.359zm0 0"/></svg></svg>