<svg xmlns="http://www.w3.org/2000/svg" xmlns:xlink="http://www.w3.org/1999/xlink" width="64" height="64" viewBox="0 0 6.047 5.375"><svg overflow="visible" x="-.297" y="4.625"><path style="stroke:none" d="M3.844-4.094a.524.524 0 1 0-1.047 0c0 .282.234.532.515.532a.537.537 0 0 0 .532-.532zM6.344.22a.548.548 0 0 0-.532-.531.537.537 0 0 0-.53.53c0 .298.234.532.53.532A.537.537 0 0 0 6.344.22zm-4.985 0a.548.548 0 0 0-.53-.531.537.537 0 0 0-.532.53C.297.517.53.75.828.75A.537.537 0 0 0 1.36.219zm0 0"/></svg></svg>