<svg xmlns="http://www.w3.org/2000/svg" xmlns:xlink="http://www.w3.org/1999/xlink" width="64" height="64" viewBox="0 0 12.156 6.297"><svg overflow="visible" x="-.563" y="5.641"><path style="stroke:none" d="M6.156-5.219c.14-.078.203-.11.203-.218 0-.141-.109-.204-.203-.204-.047 0-.062.016-.172.063L.75-2.718c-.125.077-.188.109-.188.218 0 .125.032.14.188.234L5.969.594c.125.062.156.062.187.062.14 0 .203-.11.203-.203 0-.11-.062-.14-.203-.219L1.172-2.5zm6.36 0c.14-.078.203-.11.203-.218 0-.141-.11-.204-.203-.204-.047 0-.063.016-.172.063l-5.235 2.86c-.125.077-.187.109-.187.218 0 .125.031.14.203.234l5.203 2.86c.125.062.156.062.188.062.14 0 .203-.11.203-.203 0-.11-.063-.14-.203-.219L7.53-2.5zm-3.172 0c.125-.078.203-.11.203-.218 0-.141-.11-.204-.203-.204-.047 0-.078.016-.188.063l-5.234 2.86c-.11.077-.188.109-.188.218 0 .125.047.14.204.234L9.155.594c.11.062.156.062.188.062.14 0 .203-.11.203-.203 0-.11-.078-.14-.203-.219L4.359-2.5zm0 0"/></svg></svg>