<svg xmlns="http://www.w3.org/2000/svg" xmlns:xlink="http://www.w3.org/1999/xlink" width="64" height="64" viewBox="0 0 6.063 7.328"><svg overflow="visible" x="-.563" y="7.125"><path style="stroke:none" d="M6.516-6.703c.109-.14.109-.172.109-.219 0-.11-.078-.203-.188-.203-.062 0-.125.031-.234.14L.672-.405c-.094.11-.11.14-.11.203C.563 0 .75 0 .922 0h3.031c.031.156.14.203.203.203A.209.209 0 0 0 4.36 0h1.922c.172 0 .344 0 .344-.203s-.172-.203-.344-.203H4.344c-.11-.938-.453-1.719-1.063-2.469zM1.187-.406l1.829-2.14c.687.78.875 1.733.921 2.14zm0 0"/></svg></svg>