<svg xmlns="http://www.w3.org/2000/svg" xmlns:xlink="http://www.w3.org/1999/xlink" width="64" height="64" viewBox="0 0 7.016 7.25"><svg overflow="visible" x="-.297" y="7.031"><path style="stroke:none" d="M1.953-6.36C1.843-4.186.937-1.561.343 0 .298.125.298.14.298.156c0 .063.078.063.11.063.171 0 .53-.188.687-.375.047-.078 1.343-3.328 1.64-5.86.063-.406.079-.812.079-.859 0-.11 0-.156-.11-.156s-.406.156-.61.25c-.452.234-.843.422-.843.593 0 .063.078.063.11.063.093 0 .109 0 .593-.234zM7.25-1.265c0-.015 0-.093-.125-.093a.503.503 0 0 0-.297.125c-.125.078-.14.109-.187.265-.266.766-1.25.766-1.266.766C4.406-.203 3-3.343 3-4.234c0-.157.031-.266.375-.625.734-.72 2.5-1.735 2.969-1.735.218 0 .36.157.36.407 0 .078-.016.125-.016.171 0 .047.03.11.125.11.015 0 .5-.032.5-.532 0-.328-.22-.593-.579-.593-.687 0-2.062.797-2.843 1.36-.422.312-1.485 1.062-1.485 1.687 0 .859 1 3 1.719 3.734.344.344.563.469.86.469.78 0 1.577-.406 1.968-.89.25-.313.297-.563.297-.595zm0 0"/></svg></svg>