<svg xmlns="http://www.w3.org/2000/svg" xmlns:xlink="http://www.w3.org/1999/xlink" width="64" height="64" viewBox="0 0 3.594 6.594"><svg overflow="visible" x="-.094" y="4.719"><path style="stroke:none" d="m1.906-3.75.032-.313c-.141-.078-.516-.437-.766-.656-.36.313-.703.625-1.031.953l.125.094c.046 0 .343-.172.406-.172.078 0 .265.172.406.328.031.532.031 1.079.031 1.61 0 .406-.015.906-.078 1.312C.641-.156.094.47.094.984c0 .532.672.782 1.125.891l.64-.406V1.39C1.344 1.328.641 1.125.641.53c0-.375.343-.765.609-1.015.313.218.594.453.844.734L3.578-.797l-.031-.187-.625.343c-.094.047-.172.047-.219.047-.187 0-.578-.39-.765-.578a21.606 21.606 0 0 1-.047-1.422c0-.25-.016-.562.046-.86.079-.108.344-.343.5-.437.11.094.297.375.579.516l.671-.594c-.265-.187-.515-.39-.687-.672zm0 0"/></svg></svg>