<svg xmlns="http://www.w3.org/2000/svg" xmlns:xlink="http://www.w3.org/1999/xlink" width="64" height="64" viewBox="0 0 2.922 4.969"><svg overflow="visible" x="-.703" y="4.656"><path style="stroke:none" d="M.844-3.656a11.36 11.36 0 0 0-.14 1.781c0 .344 0 .688.046 1.031.344.422.734.781 1.14 1.156A17.865 17.865 0 0 0 3.563-.875l-.047-.156-.735.39c-.047.016-.187.016-.234.032-.39-.172-.969-.641-.985-.782a.736.736 0 0 1-.062-.265c.578-.453 1.438-1.25 2.125-1.907a5.57 5.57 0 0 1-1.172-1.093zm.625 1.734c0-.875.031-2.031.265-2.031h.016c.328.312.703.61 1.078.844-.375.406-.89.843-1.36 1.187zm0 0"/></svg></svg>