<svg xmlns="http://www.w3.org/2000/svg" xmlns:xlink="http://www.w3.org/1999/xlink" width="64" height="64" viewBox="0 0 9.266 5.641"><svg overflow="visible" x="-.344" y="5.313"><path style="stroke:none" d="M5.969-4.953c0-.016.047-.156.047-.156 0-.172-.157-.204-.204-.204-.156 0-.187.11-.218.204-.157.484-.313.968-.453 1.453H2.547c.578-.688.86-1.406.86-1.453 0-.125-.126-.125-.188-.125-.156 0-.156.015-.235.187C2.234-3.359.891-2.797.406-2.594c-.015.016-.062.047-.062.094 0 .094.062.11.078.11C1.359-2 2.375-1.313 2.984.062c.079.171.094.187.235.187.062 0 .187 0 .187-.125 0-.047-.265-.75-.86-1.453h1.845c-.047.156-.157.547-.22.75-.046.11-.218.64-.218.703 0 .172.14.203.188.203.156 0 .187-.11.218-.203.157-.484.313-.969.454-1.453h2.593c-.578.687-.86 1.406-.86 1.453 0 .125.126.125.188.125.157 0 .157-.016.25-.188.735-1.687 2.079-2.25 2.563-2.453.015-.015.062-.046.062-.109 0-.078-.062-.094-.062-.094-.938-.39-1.953-1.078-2.563-2.453-.093-.172-.093-.187-.25-.187-.062 0-.187 0-.187.125 0 .046.266.75.86 1.453h-1.86zM2.156-1.72A5.334 5.334 0 0 0 1.11-2.5a4.66 4.66 0 0 0 1.047-.766h2.86L4.53-1.719zm3.281-1.547h2.375c.329.329.735.61 1.047.766a4.912 4.912 0 0 0-1.046.781H4.938zm0 0"/></svg></svg>