<svg xmlns="http://www.w3.org/2000/svg" xmlns:xlink="http://www.w3.org/1999/xlink" width="64" height="64" viewBox="0 0 3.906 7.406"><svg overflow="visible" x="-.453" y="5.219"><path style="stroke:none" d="M.89-2.547C.89-1.78.876-1.125.782-.516c.203.172.422.5.578.782l.75-.75c-.296-.375-.437-.657-.437-1.032 0-1.062.016-1.234.016-1.875.312-.234.75-.5.89-.5.266.047.563.188.797.344.063.547.11 1.11.11 1.656 0 1.141.015 2.563-.72 3.282-.265.265-.593.453-.937.625l.39.171c.673-.515 1.704-1.5 1.845-1.953.218-.765.296-1.703.296-2.5 0-.562-.046-1.265-.109-1.859-.406-.156-.781-.375-1.156-.594L1.688-3.656v-.328c-.235-.266-.47-.516-.47-.735 0-.172.079-.328.173-.468L1.25-5.22c-.297.282-.797.844-.797 1.125 0 .36.375.469.406.75.032.453.016.5.032.797zm0 0"/></svg></svg>