<svg xmlns="http://www.w3.org/2000/svg" xmlns:xlink="http://www.w3.org/1999/xlink" width="64" height="64" viewBox="0 0 9.328 4.594"><svg overflow="visible" x="-.468" y="4.609"><path style="stroke:none" d="M8.219-.828C7.984-3.156 6.234-4.61 4.344-4.61 1.922-4.61.469-2.297.469-.36c0 .171 0 .343.203.343s.203-.218.203-.296c.016-2.063 1.484-3.891 3.469-3.891 1.875 0 3.297 1.531 3.468 3.328-.671-.844-1.406-1.047-1.437-1.047-.11 0-.11.125-.11.14 0 .126 0 .126.188.22.969.406 1.328 1.171 1.453 1.437.032.078.063.11.125.11a.142.142 0 0 0 .11-.048c.156-.359.5-1.078 1.515-1.53.125-.048.14-.063.14-.173 0-.046 0-.156-.108-.156-.079 0-.922.313-1.47 1.094zm0 0"/></svg></svg>