<svg xmlns="http://www.w3.org/2000/svg" xmlns:xlink="http://www.w3.org/1999/xlink" width="64" height="64" viewBox="0 0 4.891 7.031"><svg overflow="visible" x="-.547" y="6.922"><path style="stroke:none" d="m2.469-5.172 2.328-.734c.125-.032.187-.063.187-.14 0-.079-.046-.126-.125-.126 0 0-.03 0-.14.031l-2.188.688.344-1.344c0-.094-.063-.125-.14-.125-.188 0-.985.078-1.22.11-.077 0-.187.015-.187.203 0 .109.094.109.234.109.485 0 .5.063.5.172 0 .031-.14.61-.265 1.11-.219.062-.594.171-.766.218-.093.047-.156.063-.156.156 0 .125.11.125.11.125.046 0 .656-.203.734-.218L.594-.407C.547-.25.547-.233.547-.171c0 .219.172.281.297.281a.38.38 0 0 0 .36-.265c.015-.047.124-.5.187-.75l.234-.89c.031-.141.125-.532.156-.673.047-.156.125-.469.125-.5.094-.172.625-1.219 1.625-1.219.438 0 .531.36.531.688 0 .625-.453 1.828-.64 2.297-.047.156-.11.297-.11.484 0 .516.376.828.829.828.953 0 1.296-1.468 1.296-1.53 0-.11-.078-.11-.109-.11-.11 0-.11.031-.156.187-.281 1.016-.734 1.235-1 1.235-.188 0-.25-.125-.25-.329 0-.25.11-.53.172-.703.156-.437.61-1.625.61-2.187 0-.735-.454-1.078-1.141-1.078-.313 0-.907.062-1.485.75zm0 0"/></svg></svg>