<svg xmlns="http://www.w3.org/2000/svg" xmlns:xlink="http://www.w3.org/1999/xlink" width="64" height="64" viewBox="0 0 6.094 5.766"><svg overflow="visible" x="-.828" y="5.375"><path style="stroke:none" d="M3.078-2.5a.627.627 0 0 0-.625-.625.64.64 0 0 0-.64.625c0 .344.28.64.64.64a.63.63 0 0 0 .625-.64zM1.203-5.313c-.11-.046-.14-.062-.172-.062-.11 0-.203.094-.203.188 0 .078.031.156.203.234L6.25-2.5 1.031-.031C.86.047.828.125.828.203c0 .094.094.188.203.188.047 0 .078-.016.157-.047l5.546-2.61c.11-.062.188-.109.188-.234s-.078-.156-.203-.219zm0 0"/></svg></svg>