<svg xmlns="http://www.w3.org/2000/svg" xmlns:xlink="http://www.w3.org/1999/xlink" width="64" height="64" viewBox="0 0 6.625 8.109"><svg overflow="visible" x="-.563" y="6.547"><path style="stroke:none" d="M3.813-2h3.03c.173 0 .345 0 .345-.203S7-2.406 6.813-2.406H4.046l.89-1.547c.282.094.5.094.594.094.985 0 1.657-.75 1.657-1.61 0-.25-.079-.312-.141-.312-.047 0-.125.047-.14.265-.032.657-.704 1.094-1.376 1.094-.062 0-.172 0-.312-.031l.984-1.703c.063-.125.078-.14.078-.188a.197.197 0 0 0-.203-.203c-.11 0-.156.078-.219.188l-.953 1.671c-.078.11-.078.11-.093.11-.016 0-.204-.047-.844-.469-.547-.36-1.11-.75-1.75-.75-.922 0-1.656.719-1.656 1.625 0 .219.062.297.14.297.11 0 .14-.172.14-.219.048-.843.86-1.14 1.376-1.14.469 0 .875.203 1.25.453.422.25.625.437 1.094.672l-.97 1.703H.923c-.172 0-.36 0-.36.203S.734-2 .906-2H3.36L2.484-.469H.922c-.172 0-.36 0-.36.203 0 .204.172.204.344.204H2.25c-.438.765-.61 1.078-.719 1.265-.047.078-.062.11-.062.156 0 .11.078.204.203.204.11 0 .14-.063.234-.235l.813-1.39h4.125c.172 0 .343 0 .343-.204 0-.203-.187-.203-.375-.203H2.938zm0 0"/></svg></svg>