<svg xmlns="http://www.w3.org/2000/svg" xmlns:xlink="http://www.w3.org/1999/xlink" width="64" height="64" viewBox="0 0 6.047 5.375"><svg overflow="visible" x="-.297" y="4.625"><path style="stroke:none" d="M1.36-4.094a.537.537 0 0 0-.532-.531.527.527 0 0 0-.531.531c0 .282.234.532.531.532a.537.537 0 0 0 .531-.532zM3.843.22a.537.537 0 0 0-.531-.531.534.534 0 0 0-.516.53.524.524 0 1 0 1.047 0zm2.5-4.313a.537.537 0 0 0-.532-.531.527.527 0 0 0-.53.531c0 .282.234.532.53.532a.537.537 0 0 0 .532-.532zm0 0"/></svg></svg>