<svg xmlns="http://www.w3.org/2000/svg" xmlns:xlink="http://www.w3.org/1999/xlink" width="64" height="64" viewBox="0 0 6.625 6.859"><svg overflow="visible" x="-.563" y="6.031"><path style="stroke:none" d="M2.36-2.5h1.874c.11 0 .266 0 .438-.047.125-.031.031-.031.094-.062-.063-.016.03-.016-.094-.047-.172-.047-.328-.047-.438-.047H2.406l.781-3.125h3.47c.109 0 .265 0 .437-.047.125-.031.031-.031.093-.063-.062-.03.032-.03-.093-.046-.172-.047-.328-.047-.438-.047h-3.89c-.266 0-.391.015-.547.078L.594.563a.58.58 0 0 0-.031.14c0 .125.421.125.5.125.03 0 .218 0 .359-.031.11-.031.11-.047.156-.219zm0 0"/></svg></svg>