<svg xmlns="http://www.w3.org/2000/svg" xmlns:xlink="http://www.w3.org/1999/xlink" width="64" height="64" viewBox="0 0 2.531 6.937"><svg overflow="visible" x="-.141" y="6.735"><path style="stroke:none" d="M.266-3.672c.14-.11.312-.187.421-.219l.204.235c.03.578.046 1.14.046 1.719 0 .468 0 .859-.03 1.39l.546.75A14.71 14.71 0 0 0 2.672-.828l-.063-.188c-.093.063-.39.266-.53.266-.438-.422-.376-.969-.376-1.625 0-.61.016-1.219.078-1.813a3.913 3.913 0 0 1-.593-.546c-.344.312-.704.64-1.047.921zM1.859-6.14a7.42 7.42 0 0 1-.546-.593c-.172.218-.391.39-.594.578.172.218.375.422.578.61zm0 0"/></svg></svg>