<svg xmlns="http://www.w3.org/2000/svg" xmlns:xlink="http://www.w3.org/1999/xlink" width="64" height="64" viewBox="0 0 7.938 7.113"><svg overflow="visible" x="-.297" y="6.844"><path style="stroke:none" d="M3.766-2.234c.406-.797.546-1.61.546-2.61a3.05 3.05 0 0 1 .657-.953s.375-.36.656-.36c.672 0 1.078.688 1.703.688l-.734.86c-.078.218-.11.453-.11.687 0 .64.11 1.313.11 1.86 0 .812-.047 1.75-1.016 1.75-.297 0-.766-.172-1.437-.579-.61-.39-.907-.578-1.297-.609zm1.015-3.75a4.178 4.178 0 0 0-.547.734c-.25-.797-.828-1.594-1.609-1.594-.938 0-1.594.625-1.828.86-.281.28-.5.578-.5.984 0 .531.406.89.703 1.328.063.078.14.156.14.266 0 .312-.327.64-.64.797l.14.109c.594-.297 1.235-.688 1.235-1.328 0-.61-.922-1.031-.922-1.672 0-.547.438-.703 1-.703.984 0 1.563 1.094 1.578 2.187 0 1.22-.281 2.485-1.453 2.485-.484.297-.906.687-1.281 1.11l.11.155C1.218-.625 1.64-.89 2.14-.89c.437 0 1.328.516 1.53.625.72.438 1.188.532 1.485.532A.816.816 0 0 0 5.688.14l1.156-.844c.406-.297.64-.953.64-1.469 0-.515-.25-1.453-.25-2.172 0-.703.438-1.312 1-1.703v-.156a.73.73 0 0 1-.265.047c-.157 0-.438-.047-.797-.313-.297-.203-.61-.375-.969-.375-.469 0-1.062.453-1.422.86zm0 0"/></svg></svg>