<svg xmlns="http://www.w3.org/2000/svg" xmlns:xlink="http://www.w3.org/1999/xlink" width="64" height="64" viewBox="0 0 5.516 7.078"><svg overflow="visible" x="-.594" y="6.844"><path style="stroke:none" d="M2.656-5.984c-.578.25-1.125.609-1.64 1a3.996 3.996 0 0 0-.422 1.796c0 .891.156 1.922.781 2.547.625.594 1.5.875 2.375.875.281 0 .547-.015.813-.078A16.775 16.775 0 0 0 6-.859v-.204l-.86.47c-.14.077-.39.14-.718.14-.828 0-1.656-.281-2.234-.875-.61-.594-.797-1.438-.797-2.281 0-.86.328-1.985 1.375-2.016-.032.11-.032.203-.032.297 0 .531.297 1.266.297 1.672 0 .234 0 .531-.156.687-.219.203-.469.36-.734.422l.109.172c.844-.14 1.734-.547 1.734-1.61 0-.296-.14-.765-.203-.921a2.798 2.798 0 0 1-.125-.672c0-.11.047-.547.485-.688.234.375.53.86.796 1.016.391-.047.829-.25 1.172-.406v-.235c-.125.032-.343.094-.5.094-.203 0-.218-.094-.28-.234l-.282-.813c-.719.282-1.438.563-2.063 1.016zm0 0"/></svg></svg>