<svg xmlns="http://www.w3.org/2000/svg" xmlns:xlink="http://www.w3.org/1999/xlink" width="64" height="64" viewBox="0 0 6.625 10.75"><svg overflow="visible" x="-.563" y="7.297"><path style="stroke:none" d="M3.906 1.438c.547.453 1 .812 1.625.812 1.047 0 1.657-1.063 1.657-1.984 0-.235-.063-.329-.141-.329-.125 0-.14.235-.14.297-.032.86-.657 1.454-1.376 1.454-.531 0-.937-.266-1.39-.657L5.17-.875c.095-.14.095-.156.095-.203a.206.206 0 0 0-.204-.203c-.125 0-.14.047-.25.265L3.845.75c-.547-.453-1-.813-1.625-.813C1.172-.063.563 1 .563 1.923c0 .234.062.328.14.328.11 0 .14-.203.14-.234C.892.875 1.689.484 2.22.484c.515 0 .937.282 1.39.672l-1.03 1.89c-.095.157-.095.173-.095.22 0 .093.063.187.204.187.109 0 .14-.031.25-.25zM3.72-4.407c1.844-.36 2.578-1.032 2.953-1.797.203-.39.25-.828.25-.89a.206.206 0 0 0-.203-.204.215.215 0 0 0-.203.172c-.094.688-.344 1.688-2.36 2.203-1.031.281-2.39.313-3.047.313-.093 0-.28 0-.28.203 0 .078.046.125.077.156a.12.12 0 0 0 .078.031c.016.016.032.016.344.016 1.031 0 2.063.078 3.063.36 1.593.468 2 1.312 2.125 2.062.015.11.03.25.203.25.093 0 .203-.063.203-.203 0-.063-.047-.532-.266-.954-.484-.874-1.422-1.421-2.937-1.718zm0 0"/></svg></svg>