<svg xmlns="http://www.w3.org/2000/svg" xmlns:xlink="http://www.w3.org/1999/xlink" width="64" height="64" viewBox="0 0 6.313 7.031"><svg overflow="visible" x="-.438" y="6.812"><path style="stroke:none" d="M6.453-6.594c-.047-.203-.062-.218-.297-.218H4.86c-.25 0-.28 0-.28.203 0 .703.327 1.578.53 2.14.282.703.547 1.453.547 2.203C5.656-.734 4.578 0 3.594 0 2.578 0 1.53-.766 1.53-2.266c0-.75.266-1.515.532-2.187.218-.578.546-1.438.546-2.156 0-.204-.03-.204-.265-.204H1.047c-.25 0-.266.016-.313.22L.47-5.5a.373.373 0 0 0-.031.14c0 .11.078.126.124.126.094 0 .11-.016.172-.282.11-.406.141-.5.188-.578.062-.11.422-.11.594-.11h.812c-.125.563-.39.985-.89 1.735-.47.703-.875 1.39-.875 2.188 0 1.39 1.343 2.5 3.03 2.5 1.704 0 3.032-1.14 3.032-2.5 0-.797-.406-1.485-.875-2.188-.5-.734-.766-1.156-.89-1.734h.812c.11 0 .531 0 .594.094.046.062.078.171.187.578.031.172.031.187.063.218.015.063.046.079.109.079.047 0 .125-.016.125-.125A.456.456 0 0 0 6.72-5.5zm0 0"/></svg></svg>