<svg xmlns="http://www.w3.org/2000/svg" xmlns:xlink="http://www.w3.org/1999/xlink" width="64" height="64" viewBox="0 0 7.172 7.141"><svg overflow="visible" x="-.266" y="6.875"><path style="stroke:none" d="M3.672-5.578c-.688.36-1.547.937-1.547 1.703 0 .188.469.781.531.86.188.203.328.453.328.734 0 .672-.953.953-1.593.953A4.434 4.434 0 0 0 .312 0l.172.156c.235-.375.61-.797 1.063-.797.625 0 1.39.313 2.016.563.328.125.906.344 1.109.344.594 0 1.594-1.047 2.219-1.735.343-.89.546-1.656.546-2.625 0-1.172-.812-2.265-1.937-2.578-.656-.187-1.172-.203-1.781-.203-.906 0-1.938.313-2.61.969-.578.578-.843 1.328-.843 2.14l.218.11c.032-.594.22-1.25.657-1.688.593-.593 1.484-.75 2.312-.75.938 0 1.875.219 2.547.89.516.516.688 1.25.688 1.97 0 .64-.063 1.375-.422 1.906-.329.516-.532.844-1.157.844-.203 0-.937-.266-1.375-.422a10.768 10.768 0 0 0-1.328-.406c.61-.25 1.469-.735 1.469-1.454 0-.468-.89-1.234-.89-1.64 0-.375.578-.89.843-1.063zm0 0"/></svg></svg>