<svg xmlns="http://www.w3.org/2000/svg" xmlns:xlink="http://www.w3.org/1999/xlink" width="64" height="64" viewBox="0 0 6.625 9.547"><svg overflow="visible" x="-.563" y="7.297"><path style="stroke:none" d="M7.188.266c0-.235-.063-.329-.141-.329-.125 0-.14.235-.14.297-.032.86-.657 1.454-1.376 1.454-.64 0-1.11-.407-1.547-.813C3.422.391 2.906-.063 2.22-.063 1.172-.063.563 1 .563 1.923c0 .234.062.328.14.328.11 0 .14-.203.14-.234C.892.875 1.689.484 2.22.484c.625 0 1.094.422 1.547.829.546.484 1.062.937 1.765.937 1.047 0 1.657-1.063 1.657-1.984zm-.75-4.47h.125c.171 0 .359 0 .359-.202 0-.203-.188-.203-.36-.203h-.125c-.562 0-1.109-.032-1.656-.094-2.312-.266-3.36-1.047-3.547-2.36-.015-.062-.03-.234-.203-.234a.197.197 0 0 0-.203.203c0 .032.031 1.047.953 1.766.578.469 1.313.75 2.219.922v.015c-1.063.188-2.234.61-2.797 1.547-.203.313-.375.75-.375 1.11 0 .14.094.203.203.203.172 0 .188-.11.219-.36.313-1.906 2.984-2.312 5.188-2.312zm0 0"/></svg></svg>