<svg xmlns="http://www.w3.org/2000/svg" xmlns:xlink="http://www.w3.org/1999/xlink" width="64" height="64" viewBox="0 0 6.719 8.266"><svg overflow="visible" x="-1.125" y="7.031"><path style="stroke:none" d="M2.219-.281c-.188 0-.297 0-.547.156-.078.047-.313.203-.313.328 0 .063.047.063.094.063.672.03 1.078.125 2.078.468.688.25 1.39.5 2.188.5 1.156 0 2.125-1.03 2.125-1.437 0-.047-.032-.078-.094-.078-.094 0-.297.078-.469.187-.218.157-.25.219-.297.36-.14.39-.343.421-.609.421-.656 0-1.11-.156-2.547-.64 1.719-.5 3.89-2.219 3.89-4.625 0-1.36-.734-2.453-2.202-2.453-2.032 0-4.391 2.093-4.391 4.156 0 1.063.625 1.86 1.734 1.86C3.875-1.016 5-1.673 5-1.907c0-.063-.063-.063-.11-.063-.14 0-.312.094-.437.172a2.137 2.137 0 0 1-.937.234c-.891 0-1.547-.703-1.547-1.734 0-1.234 1.125-3.187 2.89-3.187 1.266 0 2.016 1 2.016 2.328a3.97 3.97 0 0 1-1.36 2.953c-.64.578-1.374.922-3 .922zm0 0"/></svg></svg>