<svg xmlns="http://www.w3.org/2000/svg" xmlns:xlink="http://www.w3.org/1999/xlink" width="64" height="64" viewBox="0 0 6.828 7.375"><svg overflow="visible" x="-.5" y="7.141"><path style="stroke:none" d="M3.297-5.938c-.14.11-.453.516-1.188 1.75-.296.5-.515 1.25-1.609 1.25v.313l1.219-.031.968.031v-.313c-.25 0-.703-.109-.703-.421 0-.22.25-.516.375-.75.844-1.391.86-1.25 1.094-1.625.219.234 1.219 1.593 1.578 2.437.11.297.078.156-.093.375l-.391.469c-.406.531-.672.922-.672 1.422 0 .422.188 1.265.906 1.265.266 0 1.344-.234 1.344-1.687 0-.953-.39-1.89-.39-1.938 0-.093.093-.093.421-.468.469-.532 1.172-1.032 1.172-1.797 0-.797-.75-1.485-1.828-1.485-1.125 0-1.656.735-1.781.735h-.016c-.062 0-.187-.14-.234-.188-.39-.281-.875-.547-1.469-.547-.875 0-1.453.657-1.453 1.422h.265c0-.593.532-1.093 1.11-1.093.687 0 1.187.734 1.375.875zm3.187.657c0 .297-.046.61-.187.86-.14.218-.578.702-.672.765-.281-.656-.688-1.266-1.125-1.828-.438-.594-.5-.563-.578-.72.515-.39.937-.609 1.547-.609.812 0 1.015.985 1.015 1.532zM4.75-.016c-.484 0-.61-.687-.61-1.046 0-.782 1.063-1.782 1.063-1.782.125.5.297 1.016.297 1.672 0 .89-.453 1.156-.75 1.156zm0 0"/></svg></svg>