<svg xmlns="http://www.w3.org/2000/svg" xmlns:xlink="http://www.w3.org/1999/xlink" width="64" height="64" viewBox="0 0 8.109 6.797"><svg overflow="visible" x="-.234" y="6.812"><path style="stroke:none" d="M.234-6.813v.297c.141 0 .266 0 .407.016.14.016.312.016.453.094.125.093.218.218.297.36.093.124.171.265.265.39.375.578.735 1.156 1.11 1.734.187.266.359.547.53.813.048.062.095.156.142.218.015.032.046.063.046.11 0 .031-.03.062-.046.094-.032.046-.063.078-.11.14-.156.188-.312.39-.469.578-.187.25-.375.485-.562.719-.172.219-.328.438-.547.594-.36.25-.797.344-1.219.344v.296h2.39v-.296c-.25-.016-.562-.157-.546-.438 0-.047.016-.094.031-.125.047-.078.11-.156.172-.234l.281-.344c.282-.344.547-.719.844-1.047.031.063.078.14.125.203.063.11.125.203.188.297.187.297.375.578.562.875.078.125.14.234.234.344.016.047.079.11.063.172 0 .078-.078.125-.14.171a1.127 1.127 0 0 1-.5.126v.296h4.109v-.296c-.14 0-.266 0-.406-.016-.157-.016-.329-.016-.454-.094a.985.985 0 0 1-.312-.36c-.094-.14-.172-.28-.266-.421-.39-.594-.781-1.203-1.172-1.813-.171-.28-.343-.53-.515-.796-.063-.079-.094-.141-.14-.22a.142.142 0 0 1-.048-.109.22.22 0 0 1 .032-.093c.046-.047.078-.079.109-.125l.453-.563c.188-.234.375-.484.578-.734.156-.203.313-.39.531-.547.329-.234.766-.313 1.172-.313v-.296h-2.39v.296c.234 0 .562.157.53.438 0 .047 0 .094-.03.11a.618.618 0 0 1-.157.234l-.265.343-.5.625c-.094.11-.172.235-.282.344-.078-.156-.187-.297-.28-.437-.173-.297-.36-.579-.548-.86-.062-.11-.14-.218-.218-.328-.032-.047-.079-.11-.063-.172 0-.078.078-.125.14-.172.141-.078.329-.125.5-.125v-.296zm6.86 6.5h-.89l-.095-.03-.125-.188-.25-.39-.828-1.266-1.828-2.829-.594-.937-.359-.563H3l.094.032.14.171.25.407.829 1.297 1.843 2.828.594.937zm0 0"/></svg></svg>