<svg xmlns="http://www.w3.org/2000/svg" xmlns:xlink="http://www.w3.org/1999/xlink" width="64" height="64" viewBox="0 0 6.297 6.766"><svg overflow="visible" x="-.328" y="6.781"><path style="stroke:none" d="M.328-6.781v.297c.234 0 .453 0 .672.03.11.016.234.032.297.141.078.11.062.282.062.422v5c0 .125.016.282-.046.407-.079.109-.188.125-.313.14-.219.031-.438.031-.672.031v.297h4.297v-.296c-.266 0-.531 0-.781-.032-.14 0-.281-.015-.39-.094-.11-.093-.11-.234-.11-.374V-3.25h.469c.124 0 .25 0 .374.016.157.03.313.109.407.234.062.094.078.203.093.297.032.203.032.406.032.625h.25v-2.64h-.25c0 .202 0 .405-.032.609-.015.109-.03.218-.093.296-.094.141-.25.204-.407.235-.125.015-.25.015-.375.015h-.468v-2.546c0-.094 0-.188.062-.266.063-.078.172-.094.266-.11.234-.015.484 0 .719 0 .515 0 1.156-.03 1.546.391.141.14.22.36.266.547.094.328.125.656.172 1h.25L6.5-5.563 6.344-6.78zm2.719.297v6.171H2.25v-6.171zm0 0"/></svg></svg>