<svg xmlns="http://www.w3.org/2000/svg" xmlns:xlink="http://www.w3.org/1999/xlink" width="64" height="64" viewBox="0 0 4.141 6.797"><svg overflow="visible" x="-.141" y="6.812"><path style="stroke:none" d="M.14-6.813v.297c.235 0 .485 0 .72.032.124.015.234.03.296.14.063.11.047.266.047.407v5.046c0 .125.031.297-.047.407-.062.109-.203.125-.312.14-.235.031-.469.031-.703.031v.297h4.14v-.296c-.25 0-.468 0-.718-.032-.11-.015-.235-.031-.297-.14-.079-.11-.063-.282-.063-.407v-5.046c0-.141-.015-.297.063-.407.062-.11.171-.125.296-.14.235-.032.47-.032.72-.032v-.296zm2.766.297v6.204H2.11v-6.204zm0 0"/></svg></svg>