<svg xmlns="http://www.w3.org/2000/svg" xmlns:xlink="http://www.w3.org/1999/xlink" width="64" height="64" viewBox="0 0 4.436 7.254"><svg overflow="visible" x="-.543" y="7.041"><path style="stroke:none" d="M3.063-2.984v2.89c-.657 0-1.329-.187-1.782-.687a2.49 2.49 0 0 1-.234-.328 2.009 2.009 0 0 1-.234-.844c0-.047-.016-.078-.016-.125 0-.063.015-.156-.063-.188-.078-.015-.156 0-.171.079-.032.03-.016.078-.016.14V.016c0 .046-.016.109.031.156C.641.25.734.188.781.125.86.015.921-.094 1-.219c.063-.093.11-.172.156-.265.157.125.297.25.485.359.687.39 1.609.469 2.312.094a1.65 1.65 0 0 0 .453-.344c.735-.781.766-2.063.078-2.875a1.668 1.668 0 0 0-.39-.344c-.313-.219-.64-.297-1-.375-.203-.047-.406-.125-.625-.14v-2.657c.297 0 .61.063.875.188.406.203.703.562.875.953.11.25.172.516.218.781.016.078-.015.25.094.282.047.015.14 0 .157-.063.03-.047.015-.094.015-.14v-2.079c0-.047.016-.11-.031-.156-.063-.078-.156-.016-.203.047-.078.11-.14.219-.219.344-.047.093-.11.171-.156.265-.157-.156-.313-.312-.5-.422-.64-.359-1.469-.375-2.11 0a1.947 1.947 0 0 0-.578 2.781c.11.141.235.282.39.407.329.25.704.344 1.079.437.234.047.453.125.688.157zM2.155-6.72v2.516a1.293 1.293 0 0 1-.61-.36c-.484-.515-.484-1.375.063-1.875.172-.125.344-.218.547-.28zm1.22 6.564v-2.75c.125.031.25.094.36.172.734.515.812 1.64.187 2.25-.14.156-.344.296-.547.328zm0 0"/></svg></svg>