<svg xmlns="http://www.w3.org/2000/svg" xmlns:xlink="http://www.w3.org/1999/xlink" width="64" height="64" viewBox="0 0 7.516 7.023"><svg overflow="visible" x="-.344" y="6.819"><path style="stroke:none" d="M.344-6.813v.297c.219 0 .437 0 .672.032.109.015.234.03.296.14.079.11.047.282.047.422V-.89c0 .125.032.282-.046.407-.063.109-.172.125-.297.14-.235.031-.454.031-.672.031v.297h4.015v-.296c-.218 0-.437 0-.656-.032-.094 0-.203-.015-.281-.094-.094-.078-.094-.203-.094-.312v-2.563c.219 0 .438 0 .656.016.454.063.922.297 1.141.719.125.25.125.531.125.812 0 .266-.031.547.016.813.03.219.125.437.265.61.078.077.14.156.219.218.14.094.297.172.453.219.203.078.422.11.625.11.125 0 .25 0 .375-.032.297-.094.484-.375.578-.656.047-.125.078-.266.078-.407 0-.062-.015-.125-.078-.156-.062-.016-.14 0-.172.063v.109c-.015.063-.015.11-.015.172a1.15 1.15 0 0 1-.282.547.493.493 0 0 1-.734-.032c-.203-.25-.234-.625-.281-.921-.047-.25-.094-.485-.125-.735-.031-.234-.063-.468-.172-.672-.14-.312-.406-.53-.703-.687a2.079 2.079 0 0 0-.547-.203v-.016c.203-.015.406-.094.578-.172.094-.031.188-.062.281-.11.532-.28 1.094-.765 1.016-1.437a.888.888 0 0 0-.063-.296 1.62 1.62 0 0 0-.234-.391c-.187-.25-.437-.422-.703-.563-.516-.28-1.11-.39-1.703-.421-.266-.016-.547 0-.828 0zm2.672.297v6.204h-.797v-6.204zm.312 2.985v-2.625c0-.078 0-.188.063-.266.03-.047.109-.062.171-.078.11-.016.22-.016.329 0 .359.016.703.078 1.03.234.141.079.282.172.391.297.188.235.266.485.297.766.032.406-.046.844-.328 1.156-.062.063-.156.125-.234.188-.516.328-1.125.328-1.719.328zm0 0"/></svg></svg>