<svg xmlns="http://www.w3.org/2000/svg" xmlns:xlink="http://www.w3.org/1999/xlink" width="64" height="64" viewBox="0 0 6.701 8.963"><svg overflow="visible" x="-.553" y="7.041"><path style="stroke:none" d="M4.828.063c.063.39.11.812.266 1.171.11.266.281.5.547.61.093.047.218.062.328.078.11 0 .187 0 .297-.016.578-.125.843-.75.937-1.281.031-.156.047-.328.047-.5 0-.063.016-.14-.016-.188-.03-.062-.14-.062-.171 0-.032.047-.032.11-.032.141-.015.078-.015.14-.047.219a.903.903 0 0 1-.671.578c-.079.016-.172.016-.266.016C5.64.875 5.407.484 5.25.14a3.232 3.232 0 0 0-.094-.22c.188-.062.36-.187.532-.296.39-.266.703-.61.953-1.016.968-1.562.64-3.796-.813-4.953a3.519 3.519 0 0 0-.781-.453 2.846 2.846 0 0 0-.953-.234 2.963 2.963 0 0 0-1.11.125c-.328.11-.625.25-.906.453-.25.156-.469.36-.656.594C.359-4.58.266-2.672 1.172-1.281c.14.218.328.422.516.61A3.348 3.348 0 0 0 3.64.203c.406.015.796-.032 1.187-.142zm.188-.485c-.172-.437-.438-.922-.922-1.047a.954.954 0 0 0-.469.016c-.297.11-.531.406-.547.719-.031.218.047.39.14.578-.093-.032-.171-.078-.265-.125-.047-.016-.078-.047-.11-.078-.015-.047-.015-.094-.015-.125v-5.844c0-.047 0-.094.016-.125.031-.063.11-.094.156-.11.156-.093.313-.14.484-.187.141-.031.297-.031.47-.031.812.015 1.483.625 1.843 1.343.266.532.36 1.125.39 1.735.047.656-.015 1.328-.218 1.937-.125.36-.313.704-.563.985-.11.14-.25.265-.39.36zm-2.5-5.797v5.625a1.843 1.843 0 0 1-.282-.328 2.828 2.828 0 0 1-.453-.86 4.998 4.998 0 0 1-.218-1.921c.015-.438.078-.875.218-1.297.11-.328.266-.656.469-.938.078-.093.172-.203.266-.28zm1.296 4.953c.22-.015.454.047.61.204.125.125.187.28.25.437.016.094.047.172.062.25a.198.198 0 0 1 .016.094c-.031.047-.11.078-.172.11-.156.046-.328.109-.484.124-.25.016-.485.031-.657-.187-.25-.297-.171-.813.204-.985.046-.015.109-.031.171-.047zm0 0"/></svg></svg>