<svg xmlns="http://www.w3.org/2000/svg" xmlns:xlink="http://www.w3.org/1999/xlink" width="64" height="64" viewBox="0 0 6.225 11.083"><svg overflow="visible" x="-.553" y=".008"><path style="stroke:none" d="M3.203 3.016c-.953.078-1.812.609-2.203 1.5C.516 5.672.937 7.078 2.047 7.719c.203.11.422.218.656.25 0 .36-.047.734-.094 1.093-.062.61-.14 1.438-.609 1.72-.313.155-.734.062-.984-.141.125-.032.234-.063.296-.172.188-.297-.03-.672-.359-.656-.312 0-.437.28-.39.546.078.5.703.782 1.328.704 1.062-.204 1.343-1.516 1.468-2.422.032-.204.047-.391.079-.579 1-.078 1.859-.671 2.234-1.609.094-.234.156-.484.156-.734.219.187.406.375.625.562.078.078.172.188.281.094.11-.11-.015-.219-.078-.297l-.61-.687c-.077-.094-.171-.188-.234-.282-.046-.093-.046-.203-.078-.296-.234-.829-.953-1.563-1.796-1.72 0-.359.046-.718.093-1.077.063-.625.14-1.454.625-1.72.282-.155.703-.062.953.126a.512.512 0 0 0-.296.187.427.427 0 0 0 .375.657c.296-.016.437-.282.39-.547C6 .313 5.562.047 5.141.016a.826.826 0 0 0-.391 0C3.672.219 3.406 1.53 3.281 2.437c-.031.188-.047.391-.078.579zm-.047.406c-.187 1.36-.297 2.765-.422 4.156-.718-.234-1.28-.781-1.484-1.516-.297-1.203.594-2.609 1.906-2.64zm.766.078c.562.219 1.031.531 1.297 1.094.062.125.11.25.156.375.016.062.031.11.016.172-.047.093-.172.187-.235.265L4.641 6c-.079.078-.266.234-.172.344.11.14.203 0 .312-.078.219-.188.422-.422.657-.61-.047.282-.079.532-.188.782-.313.656-1.016 1.187-1.766 1.203.22-1.204.297-2.422.391-3.688.016-.14 0-.312.047-.453zm0 0"/></svg></svg>