<svg xmlns="http://www.w3.org/2000/svg" xmlns:xlink="http://www.w3.org/1999/xlink" width="64" height="64" viewBox="0 0 5.922 11.072"><svg overflow="visible" x="-.359" y="-.001"><path style="stroke:none" d="M1.469 5.328H.562v.406L1.75 5.72c0-.016.016-.016.031 0 .14-.188.11-.5.188-.719.187-.5.61-.75 1.093-.906-.078.922-.218 1.843-.28 2.75-.063.968-.079 1.953-.266 2.906-.079.484-.282 1.11-.875 1.11a.922.922 0 0 1-.625-.22.41.41 0 0 0 .234-.109c.172-.14.172-.453.016-.61a.47.47 0 0 0-.563-.03c-.312.234-.11.734.14.921.376.297.97.344 1.407.126.61-.329.875-1.079 1.016-1.72.156-.765.218-1.562.328-2.343.062-.578.14-1.172.187-1.766.031-.296.063-.625.078-.937.485.266.829.61.922 1.266 0 .375.188.296.438.296h.86v-.406h-.923c-.062-.469-.265-.906-.656-1.234a2.186 2.186 0 0 0-.406-.25c-.063-.031-.172-.047-.203-.094-.016-.078.015-.188.015-.25l.047-.656c.031-.438.063-.875.125-1.297.063-.484.188-1.031.578-1.25.282-.156.703-.063.953.125a.575.575 0 0 0-.296.172.438.438 0 0 0 .296.672c.047 0 .11 0 .157-.016.359-.078.375-.516.203-.781-.313-.531-1.14-.578-1.64-.297-.22.125-.391.312-.516.531-.391.594-.47 1.297-.579 1.985l-.078.687c-.047.328-.031.313-.281.36-.766.171-1.297.843-1.406 1.593zm-.953 0c0 .031.015.016.015.016zm5.578 0c0 .031.031.016.031.016zm-5.61.031v-.015.015zm5.672 0v-.015.015zm-5.687 0H.453.47zm5.718 0h-.015.016zm-5.78.047.015-.031-.016.031zm5.827 0-.03-.031.03.031zm-5.843.032H.375h.016zm5.875 0H6.25h.016zm-5.891.03v-.015.016zm5.89 0v-.015.016zM.376 5.5.36 5.484l.016.016zm5.906 0-.015-.016.015.016zm0 0"/></svg></svg>