<svg xmlns="http://www.w3.org/2000/svg" xmlns:xlink="http://www.w3.org/1999/xlink" width="64" height="64" viewBox="0 0 6.228 11.083"><svg overflow="visible" x=".141" y=".008"><path style="stroke:none" d="M3.203 3.016c-1.031.078-1.937.718-2.281 1.703-.063.218-.11.437-.11.656C.595 5.172.376 5 .156 4.812.094 4.75-.03 4.61-.109 4.688c-.094.079.046.204.093.266l.594.703c.078.094.188.203.25.313.047.078.047.187.063.281.25.844.968 1.578 1.812 1.719 0 .36-.047.734-.094 1.093-.062.61-.14 1.438-.609 1.72-.313.155-.734.062-.984-.141.125-.032.234-.063.296-.172.188-.297-.03-.672-.359-.656-.312 0-.437.28-.39.546.078.5.703.782 1.328.704 1.062-.204 1.343-1.516 1.468-2.422.032-.204.047-.391.079-.579.953-.078 1.812-.609 2.187-1.5.5-1.156.078-2.562-1.031-3.203-.203-.109-.422-.218-.657-.265 0-.36.047-.719.094-1.078.063-.625.14-1.454.625-1.72.282-.155.703-.062.953.126a.512.512 0 0 0-.296.187.427.427 0 0 0 .375.657c.296-.016.437-.282.39-.547C6 .313 5.562.047 5.141.016a.826.826 0 0 0-.391 0C3.672.219 3.406 1.53 3.281 2.437c-.031.188-.047.391-.078.579zm-.047.406c-.187 1.36-.297 2.765-.422 4.156-.703-.219-1.234-.734-1.468-1.484-.016-.047-.032-.11-.016-.157.063-.109.172-.203.234-.296l.532-.61c.046-.078.25-.25.156-.343-.078-.079-.203.078-.266.14-.234.203-.453.422-.703.594.047-.281.078-.531.188-.781.312-.657 1.015-1.188 1.765-1.22zm.766.078c.172.063.36.125.531.234.406.266.734.672.875 1.125.36 1.079-.187 2.266-1.25 2.657-.187.078-.39.125-.594.125.22-1.204.297-2.422.391-3.688.016-.14 0-.312.047-.453zm0 0"/></svg></svg>