<svg xmlns="http://www.w3.org/2000/svg" xmlns:xlink="http://www.w3.org/1999/xlink" width="64" height="64" viewBox="0 0 5.922 11.076"><svg overflow="visible" x="-.359" y=".004"><path style="stroke:none" d="M2.781 6.89c-.36-.187-.672-.421-.812-.812-.063-.14-.078-.297-.11-.453 0-.078.016-.172-.062-.234-.11-.094-.25-.063-.36-.063H.563v.406h.907c.062.485.297.938.687 1.25.11.11.25.188.39.25.063.016.173.047.188.094.032.063 0 .172 0 .25l-.046.656c-.032.422-.063.86-.126 1.297-.062.485-.203 1.031-.562 1.25-.313.156-.734.063-.984-.14.125-.032.234-.063.296-.157.172-.265.016-.625-.28-.671H.874c-.375.093-.39.53-.219.796.11.172.297.313.485.375.64.235 1.312-.015 1.671-.593.391-.594.485-1.313.594-2l.078-.688c.047-.344.032-.312.282-.36a1.862 1.862 0 0 0 1.39-1.609h.922v-.406h-.875c-.11 0-.266-.031-.36.063-.077.062-.062.156-.077.265-.047.75-.594 1.14-1.188 1.328.078-.921.203-1.843.281-2.75.063-.968.079-1.953.25-2.906.094-.469.282-1.11.875-1.11.25 0 .485.079.625.204a.817.817 0 0 0-.234.11.459.459 0 0 0-.016.624c.157.14.391.14.563.032.328-.235.094-.75-.156-.938-.407-.313-.985-.328-1.422-.094-.61.328-.86 1.125-.985 1.75-.171.844-.234 1.719-.343 2.563-.094.812-.22 1.625-.235 2.422zM.516 5.329c0 .031.015.016.015.016zm5.578 0c0 .031.031.016.031.016zm-5.61.031v-.015.015zm5.672 0v-.015.015zm-5.687 0H.453.47zm5.718 0h-.015.016zm-5.78.047.015-.031-.016.031zm5.827 0-.03-.031.03.031zm-5.843.032H.375h.016zm5.875 0H6.25h.016zm-5.891.03v-.015.016zm5.89 0v-.015.016zM.376 5.5.36 5.484l.016.016zm5.906 0-.015-.016.015.016zm-4.453.125h.016-.016zm-.016.031h.016-.016zm3 0h.016-.016zm-3.03.047.015-.016-.016.016zm3.077 0v-.016.016zm-3.11.017.016-.016-.016.016zm3.125 0 .016-.016-.016.016zm-3.14 0h.015-.016zm3.156 0h.015-.015zm-3.172.015s-.016-.015 0-.015v.015zm3.203 0V5.72c.016 0 0 .015 0 .015zm0 0"/></svg></svg>