<svg xmlns="http://www.w3.org/2000/svg" xmlns:xlink="http://www.w3.org/1999/xlink" width="64" height="64" viewBox="0 0 6.225 11.083"><svg overflow="visible" x="-.553" y=".008"><path style="stroke:none" d="M3.203 3.016c-.953.078-1.812.609-2.203 1.5C.516 5.672.937 7.078 2.047 7.719c.203.11.422.218.656.25 0 .36-.047.734-.094 1.093-.062.61-.14 1.438-.609 1.72-.313.155-.734.062-.984-.141.125-.032.234-.063.296-.172.188-.297-.03-.672-.359-.656-.312 0-.437.28-.39.546.078.5.703.782 1.328.704 1.062-.204 1.343-1.516 1.468-2.422.032-.204.047-.391.079-.579.874-.062 1.64-.515 2.078-1.28.093-.157.156-.329.218-.485.063-.203.063-.328.204-.5L6.625 5c.047-.078.219-.219.125-.313-.078-.078-.203.063-.266.125-.218.188-.437.36-.656.563 0-.813-.547-1.61-1.25-2.016a1.795 1.795 0 0 0-.64-.265c0-.36.046-.719.093-1.078.063-.625.14-1.454.625-1.72.282-.155.703-.062.953.126a.512.512 0 0 0-.296.187.427.427 0 0 0 .375.657c.296-.016.437-.282.39-.547C6 .313 5.562.047 5.141.016a.826.826 0 0 0-.391 0C3.672.219 3.406 1.53 3.281 2.437c-.031.188-.047.391-.078.579zm-.047.406c-.187 1.36-.297 2.765-.422 4.156-.718-.234-1.28-.781-1.484-1.516-.297-1.203.594-2.609 1.906-2.64zm.766.078c.172.063.36.125.531.234.406.25.703.657.875 1.094.063.203.078.39.11.594-.25-.172-.47-.39-.704-.594-.062-.062-.171-.219-.265-.14-.11.093.11.265.156.343l.531.625c.078.078.203.172.235.282.015.062-.016.14-.032.187-.25.828-1.015 1.516-1.875 1.516.22-1.204.297-2.422.391-3.688.016-.14 0-.312.047-.453zm0 0"/></svg></svg>