<svg xmlns="http://www.w3.org/2000/svg" xmlns:xlink="http://www.w3.org/1999/xlink" width="64" height="64" viewBox="0 0 4.078 7.219"><svg overflow="visible" x="-.422" y="7.094"><path style="stroke:none" d="M2.625-4.36C1.391-4.061.422-2.765.422-1.561.422-.595 1.062.125 2 .125c1.156 0 1.984-1.578 1.984-2.953 0-.906-.39-1.406-.734-1.844-.36-.453-.953-1.203-.953-1.64 0-.22.203-.454.547-.454.312 0 .5.125.719.266.203.125.39.25.546.25.25 0 .391-.234.391-.406 0-.219-.156-.235-.516-.328-.515-.11-.656-.11-.812-.11-.781 0-1.14.438-1.14 1.032 0 .546.296 1.093.593 1.703zm.125.22c.25.468.547 1 .547 1.718 0 .656-.375 2.328-1.297 2.328-.547 0-.969-.422-.969-1.187 0-.625.375-2.5 1.719-2.86zm0 0"/></svg></svg>