<svg xmlns="http://www.w3.org/2000/svg" xmlns:xlink="http://www.w3.org/1999/xlink" width="64" height="64" viewBox="0 0 6.641 4.516"><svg overflow="visible" x="-.563" y="4.406"><path style="stroke:none" d="M7.203-.313c-.047 0-.203.016-.234.016-.782 0-1.313-.781-1.657-1.297-.093-.172-.375-.578-.484-.75.25-.531.906-1.765 2.094-1.765.078 0 .172 0 .281.015 0-.25-.016-.265-.031-.281a1.923 1.923 0 0 0-.313-.031c-1.265 0-2 1.218-2.25 1.718-.39-.609-.53-.828-.906-1.14-.61-.531-1.156-.578-1.406-.578-1.094 0-1.735 1.11-1.735 2.265 0 1.11.61 2.25 1.704 2.25 1.265 0 2.015-1.218 2.25-1.718.406.609.53.828.906 1.14.61.531 1.156.578 1.406.578.125 0 .281-.015.375-.046zm-2.906-1.64c-.234.531-.906 1.781-2.094 1.781C1.234-.172.781-1.234.781-2.14c0-.985.547-1.86 1.375-1.86.797 0 1.328.781 1.656 1.297.11.172.376.578.485.75zm0 0"/></svg></svg>