<svg xmlns="http://www.w3.org/2000/svg" xmlns:xlink="http://www.w3.org/1999/xlink" width="64" height="64" viewBox="0 0 8.844 5.203"><svg overflow="visible" x="-.563" y="5.094"><path style="stroke:none" d="M1.64-2.688c.548-.421.829-.828.907-.968.437-.688.531-1.313.531-1.313 0-.125-.125-.125-.203-.125-.172 0-.188.016-.219.203-.234.97-.828 1.797-1.953 2.266-.11.047-.14.063-.14.125 0 .078.046.094.14.14 1.047.422 1.703 1.204 1.953 2.313.031.125.047.156.219.156.078 0 .203 0 .203-.125 0-.015-.094-.64-.515-1.312a4.007 4.007 0 0 0-.922-.969h6.671c-.546.422-.812.828-.89.969-.453.687-.531 1.312-.531 1.312 0 .125.125.125.203.125.156 0 .172-.015.218-.203.22-.969.813-1.812 1.938-2.265.125-.047.156-.063.156-.141 0-.063-.062-.094-.078-.11-.453-.156-1.656-.656-2.031-2.328-.031-.125-.047-.156-.203-.156-.078 0-.203 0-.203.125 0 .016.093.64.5 1.313.203.297.5.64.921.969zm0 0"/></svg></svg>