<svg xmlns="http://www.w3.org/2000/svg" xmlns:xlink="http://www.w3.org/1999/xlink" width="64" height="64" viewBox="0 0 6.656 4.266"><svg overflow="visible" x="-.547" y="4.625"><path style="stroke:none" d="M7.203-4.313c0-.218-.078-.296-.14-.296-.047 0-.141.03-.141.265-.047.828-.734 1.297-1.39 1.297-.595 0-1.079-.36-1.595-.75-.53-.422-1.062-.828-1.718-.828-.985 0-1.672.875-1.672 1.813 0 .296.125.312.14.312.11 0 .141-.203.141-.234.047-.97.844-1.329 1.39-1.329.595 0 1.079.344 1.595.75.53.407 1.046.813 1.718.813.985 0 1.672-.875 1.672-1.813zM.906-.75c-.156 0-.36 0-.36.188 0 .203.188.203.345.203h5.953c.172 0 .36 0 .36-.204 0-.187-.188-.187-.36-.187zm0 0"/></svg></svg>