<svg xmlns="http://www.w3.org/2000/svg" xmlns:xlink="http://www.w3.org/1999/xlink" width="64" height="64" viewBox="0 0 5.797 6.75"><svg overflow="visible" x="-.422" y="6.75"><path style="stroke:none" d="M6.094-6.75H.547L.469-5.187h.25c.015-.422.047-.672.125-.782.047-.078.656-.078.75-.078h3.453c.11 0 .687 0 .75.078.078.11.11.36.125.782h.25zM.5 0h5.64l.079-1.672h-.25c-.032.469-.032.719-.11.86-.062.109-.578.109-.812.109H1.578c-.172 0-.719 0-.797-.094-.078-.125-.094-.422-.11-.875h-.25zm4.75-4.36H5v.5H1.64v-.5h-.25v1.704h.25v-.5H5v.5h.25zm0 0"/></svg></svg>