<svg xmlns="http://www.w3.org/2000/svg" xmlns:xlink="http://www.w3.org/1999/xlink" width="7.396" height="8.25" viewBox="0 0 5.547 6.187"><svg overflow="visible" x="148.712" y="134.765" transform="translate(-149.259 -128.796)"><path style="stroke:none" d="M6.016-5.563c.062-.125.078-.156.078-.203a.207.207 0 0 0-.203-.203c-.094 0-.157.078-.235.235L3.313-.47.983-5.75c-.092-.188-.17-.219-.233-.219a.207.207 0 0 0-.203.203c0 .032 0 .047.062.157L3.094.016c.078.156.14.203.219.203.14 0 .171-.063.218-.203zm0 0"/></svg></svg>