<svg xmlns="http://www.w3.org/2000/svg" xmlns:xlink="http://www.w3.org/1999/xlink" width="64" height="64" viewBox="0 0 8.859 4.516"><svg overflow="visible" x="-.547" y="4.406"><path style="stroke:none" d="M5.063-2.703c-.532-.672-.657-.828-.97-1.078-.562-.453-1.109-.625-1.624-.625-1.156 0-1.922 1.093-1.922 2.265C.547-1 1.28.11 2.437.11c1.141 0 1.97-.906 2.454-1.703.546.672.656.828.968 1.078.563.454 1.125.625 1.625.625 1.172 0 1.922-1.093 1.922-2.265 0-1.14-.734-2.25-1.875-2.25-1.156 0-1.984.906-2.468 1.703zm.265.344c.406-.72 1.14-1.735 2.266-1.735 1.062 0 1.593 1.047 1.593 1.938 0 .984-.671 1.781-1.546 1.781-.579 0-1.016-.406-1.235-.625-.25-.266-.468-.578-1.078-1.36zm-.687.421c-.407.72-1.157 1.735-2.282 1.735C1.313-.203.766-1.25.766-2.141c0-.984.671-1.78 1.546-1.78.579 0 1.032.405 1.235.624.25.266.484.578 1.094 1.36zm0 0"/></svg></svg>