<svg xmlns="http://www.w3.org/2000/svg" xmlns:xlink="http://www.w3.org/1999/xlink" width="7pt" height="64" viewBox="0 0 7 7.312"><svg overflow="visible" x="-.328" y="7.094"><path style="stroke:none" d="M2.25-6.125v-.688H.328v.297h.375c.36 0 .656.047.656.438V-.75c0 .375-.328.438-.671.438h-.36v.296h2.938v-.296H2.89c-.36 0-.641-.047-.641-.438v-4.563c0-.062-.016-.125-.016-.187 0-.219.188-.406.313-.563a2.273 2.273 0 0 1 1.656-.718c1.125 0 2.156.875 2.234 2.14v3.063c0 .594-.203 1.562-1.03 1.562-.407 0-.845-.218-1.063-.578h.078a.534.534 0 0 0 .547-.547.525.525 0 0 0-.547-.546c-.266 0-.531.187-.547.484v.078c0 .813.813 1.344 1.563 1.344.984 0 1.89-.672 1.89-1.75v-2.907c0-.687-.187-1.218-.656-1.75-.547-.593-1.36-.906-2.172-.906-.875 0-1.625.344-2.25.969zm0 0"/></svg></svg>