<svg xmlns="http://www.w3.org/2000/svg" xmlns:xlink="http://www.w3.org/1999/xlink" width="64" height="64" viewBox="0 0 9.938 9.969"><svg overflow="visible" x="-.563"><path style="stroke:none" d="M10.5 4.984A4.965 4.965 0 0 0 5.531 0 4.975 4.975 0 0 0 .563 4.984 4.975 4.975 0 0 0 5.53 9.97a4.965 4.965 0 0 0 4.97-4.986zM5.531 9.281A4.291 4.291 0 0 1 1.25 4.984 4.291 4.291 0 0 1 5.531.688a4.291 4.291 0 0 1 4.282 4.296A4.291 4.291 0 0 1 5.53 9.281zm.688-4.297a.674.674 0 0 0-.688-.687.674.674 0 0 0-.687.687c0 .391.297.688.687.688.39 0 .688-.297.688-.688zm0 0"/></svg></svg>