<svg xmlns="http://www.w3.org/2000/svg" xmlns:xlink="http://www.w3.org/1999/xlink" width="64" height="64" viewBox="0 0 4.922 7.016"><svg overflow="visible" x="-.328" y="6.922"><path style="stroke:none" d="M3.031-6.813v.297h.203c.329 0 .579.063.579.641v.266H1.671v.312h2.14l-.015 1.5c-.235-.406-.813-.61-1.266-.61C1.312-4.406.328-3.343.328-2.14c0 1.063.813 2.235 2.14 2.235.516 0 .985-.25 1.313-.64v.64l1.469-.11v-.296h-.14c-.329 0-.641-.032-.641-.5v-4.485h.672v-.312h-.672v-1.313zm-1.86 4.907v-.14c0-.75.079-1.485.766-1.954.204-.11.438-.188.672-.188.485 0 1.172.407 1.172 1.032v2.047a.465.465 0 0 1-.125.312c-.25.39-.687.672-1.156.672-.719 0-1.188-.656-1.297-1.344-.016-.14-.016-.297-.031-.437zm0 0"/></svg></svg>