<svg xmlns="http://www.w3.org/2000/svg" xmlns:xlink="http://www.w3.org/1999/xlink" width="64" height="64" viewBox="0 0 3.328 9.172"><svg overflow="visible" x="-.547" y="7.031"><path style="stroke:none" d="M2.11-4.406c-.391-.016-.782-.235-1.172-.235-.22 0-.391.125-.391.329 0 .203.14.359.375.359.406 0 .781-.219 1.187-.235-.03.204-.046.407-.078.61-.078.39-.172.797-.172 1.219v.25c0 .921.047 1.859.11 2.78l.093 1.126c.016.125-.015.344.157.344.156 0 .14-.22.14-.344L2.453.672c.063-.922.125-1.86.125-2.781v-.25c0-.422-.11-.829-.172-1.22-.047-.202-.062-.405-.094-.608.407.015.782.234 1.172.234.25 0 .391-.14.391-.328 0-.203-.14-.36-.375-.36-.406 0-.781.22-1.188.235.032-.75.25-1.485.25-2.235 0-.156-.046-.39-.343-.39-.281 0-.36.203-.36.39 0 .75.22 1.5.25 2.235zm0 0"/></svg></svg>