<svg xmlns="http://www.w3.org/2000/svg" xmlns:xlink="http://www.w3.org/1999/xlink" width="64" height="64" viewBox="0 0 9.391 9.969"><svg overflow="visible" x="-.563"><path style="stroke:none" d="M4.203 5.328.656 9.703c-.078.094-.094.11-.094.156 0 .11.094.11.282.11h8.25l.86-2.485h-.25c-.25.75-.907 1.36-1.767 1.641-.156.063-.843.297-2.312.297H1.391L4.859 5.14c.063-.094.079-.11.079-.157 0-.046 0-.046-.063-.14L1.641.406h3.937c1.14 0 3.438.063 4.125 1.922h.25L9.093 0H.844c-.28 0-.28.016-.28.313zm0 0"/></svg></svg>