<svg xmlns="http://www.w3.org/2000/svg" xmlns:xlink="http://www.w3.org/1999/xlink" width="64" height="64" viewBox="0 0 3.859 4.531"><svg overflow="visible" x="-.281" y="7.656"><path style="stroke:none" d="M2.078-7.656C.968-7.531.281-6.594.281-5.594c0 1 .813 1.969 1.922 1.969 1.094 0 1.938-.938 1.938-1.984 0-1.047-.797-2.047-1.954-2.047zM1.11-5.313v-.468c0-.453.032-.985.36-1.328.203-.204.468-.329.75-.329.625 0 1 .563 1.062 1.141.016.219.016.438.016.672 0 .547 0 1.281-.563 1.578a.906.906 0 0 1-.515.156 1.04 1.04 0 0 1-.844-.437c-.203-.281-.219-.64-.266-.984zm-.593 1.97c-.047.03-.079.062-.079.109 0 .078.079.109.157.109h3.219c.062 0 .156-.031.156-.11 0-.062-.047-.109-.094-.109H.781c-.047 0-.11-.015-.156-.015-.031 0-.078.015-.11.015zm0 0"/></svg></svg>