<svg xmlns="http://www.w3.org/2000/svg" xmlns:xlink="http://www.w3.org/1999/xlink" width="64" height="64" viewBox="0 0 3.281 4.406"><svg overflow="visible" x="-.468" y="4.297"><path style="stroke:none" d="M2.969-2.25c.156 0 .344 0 .344-.172 0-.14-.126-.14-.297-.14h-1.61c.235-.844.797-1.422 1.703-1.422h.313c.172 0 .328 0 .328-.172 0-.14-.125-.14-.297-.14h-.36c-1.296 0-2.624 1-2.624 2.515 0 1.11.75 1.89 1.797 1.89.656 0 1.296-.406 1.296-.515 0-.016 0-.125-.093-.125-.016 0-.047 0-.125.047-.313.203-.688.375-1.047.375-.578 0-1.078-.422-1.078-1.297a3.8 3.8 0 0 1 .11-.844zm0 0"/></svg></svg>