<svg xmlns="http://www.w3.org/2000/svg" xmlns:xlink="http://www.w3.org/1999/xlink" width="64" height="64" viewBox="0 0 6.719 6.797"><svg overflow="visible" x="-.344" y="6.812"><path style="stroke:none" d="M.344-6.813v.297h.328c.422 0 .687.032.687.438V-3.5H.516c-.11 0-.172.047-.172.156 0 .063.031.14.11.156h.905V-.75c0 .39-.328.438-.687.438H.344v.296h3.453c1.281 0 2.469-.609 3.047-2.062.14-.422.218-.844.218-1.281 0-1.563-.984-3.235-2.765-3.454h-.484zM2.219-3.5v-2.656c0-.328.203-.36.422-.36h.843c.625 0 1.25.079 1.797.625.625.625.782 1.547.782 2.422 0 1.328-.204 3.156-2.563 3.156h-.844c-.234 0-.437-.03-.437-.359v-2.515h1.75c.094 0 .14-.047.14-.157S4.08-3.5 3.984-3.5zm0 0"/></svg></svg>