<svg xmlns="http://www.w3.org/2000/svg" xmlns:xlink="http://www.w3.org/1999/xlink" width="64" height="64" viewBox="0 0 3.859 4.812"><svg overflow="visible" x="-1.109" y="4.828"><path style="stroke:none" d="M1.844-2.406A6.482 6.482 0 0 0 3.28-4.61a.226.226 0 0 0 .031-.11v-.015c0-.063-.062-.094-.109-.094-.094 0-.125.125-.156.187-.438.797-1.016 1.547-1.766 2.047-.062.047-.172.094-.172.172v.016c0 .078.204.187.313.265A5.88 5.88 0 0 1 2.969-.344c.047.11.14.328.234.328.063 0 .11-.046.11-.093 0-.157-.141-.407-.22-.563-.312-.625-.718-1.312-1.25-1.734zm1.656 0A6.482 6.482 0 0 0 4.938-4.61c.015-.032.03-.063.03-.11v-.015c0-.063-.062-.094-.109-.094-.093 0-.14.125-.171.187-.422.797-1.016 1.547-1.75 2.047-.063.047-.172.094-.172.172v.016c0 .078.203.187.312.265A5.88 5.88 0 0 1 4.625-.344c.047.11.14.328.234.328.063 0 .11-.046.11-.093 0-.157-.14-.407-.219-.563-.313-.625-.719-1.312-1.25-1.734zm0 0"/></svg></svg>