<svg xmlns="http://www.w3.org/2000/svg" xmlns:xlink="http://www.w3.org/1999/xlink" width="64" height="64" viewBox="0 0 14.663 5.203"><svg overflow="visible" x="-.828" y="5.094"><path style="stroke:none" d="M6.563-2.297c.171 0 .359 0 .359-.203 0-.188-.188-.188-.36-.188h-5.39c-.172 0-.344 0-.344.188 0 .203.172.203.344.203zm0 0"/></svg><svg overflow="visible" x="5.257" y="5.094"><path style="stroke:none" d="M8.313-2.297c-.547.422-.813.828-.891.969-.453.687-.531 1.312-.531 1.312 0 .125.125.125.203.125.156 0 .172-.015.218-.203.22-.969.813-1.812 1.938-2.265.125-.047.156-.063.156-.141 0-.063-.062-.094-.078-.11-.453-.156-1.656-.656-2.031-2.328-.031-.125-.047-.156-.203-.156-.078 0-.203 0-.203.125 0 .016.093.64.5 1.313.203.297.5.64.921.969H.907c-.172 0-.36 0-.36.187 0 .203.188.203.36.203zm0 0"/></svg></svg>