<svg xmlns="http://www.w3.org/2000/svg" xmlns:xlink="http://www.w3.org/1999/xlink" width="64" height="64" viewBox="0 0 4.984 5.797"><svg overflow="visible" x="-.828" y="5.391"><path style="stroke:none" d="M5.469-2.297c.156 0 .343 0 .343-.203 0-.188-.187-.188-.343-.188H1.234C1.36-4.03 2.5-4.983 3.906-4.983H5.47c.156 0 .343 0 .343-.204 0-.203-.187-.203-.343-.203H3.89C2.187-5.39.828-4.094.828-2.5.828-.89 2.188.406 3.891.406h1.578c.156 0 .343 0 .343-.203S5.625 0 5.47 0H3.906C2.5 0 1.36-.953 1.234-2.297zm0 0"/></svg></svg>