<svg xmlns="http://www.w3.org/2000/svg" xmlns:xlink="http://www.w3.org/1999/xlink" width="64" height="64" viewBox="0 0 4.734 4.734"><svg overflow="visible" x="-.125" y="4.859"><path style="stroke:none" d="M2.719-4.719c-.125-.125-.14-.14-.219-.14-.078 0-.094.015-.203.125L.25-2.688c-.11.11-.125.126-.125.188 0 .047.016.094.031.125.032.016.375.36.547.547L2.125-.406c.094.078.234.219.25.25 0 0 .063.031.125.031.016 0 .078 0 .125-.047l.25-.234L4.578-2.11l.234-.25c.016-.016.047-.047.047-.141 0-.078-.03-.11-.125-.203zM2.5-4.39 4.39-2.5 2.5-.594.61-2.5zm0 0"/></svg></svg>