<svg xmlns="http://www.w3.org/2000/svg" xmlns:xlink="http://www.w3.org/1999/xlink" width="64" height="64" viewBox="0 0 4.891 4.672"><svg overflow="visible" x="-.047" y="4.828"><path style="stroke:none" d="M2.375-1.563c.016-.015.094-.093.125-.093s.406.437.484.515c.282.313.579.625.875.938.032.047.063.047.079.047.078 0 .109-.078.109-.11 0-.046-.313-.593-.594-1.093l-.39-.72 1.734-.796c.14-.078.14-.11.14-.156 0-.047-.03-.094-.109-.094 0 0-.484.078-1.984.39l-.235-1.874c-.015-.188-.03-.22-.109-.22-.094 0-.125.048-.14.22l-.22 1.875L.298-3.11c-.047-.016-.125-.016-.14-.016-.079 0-.11.047-.11.094 0 .078.047.094.156.156l1.734.797L1-.422c-.047.11-.063.125-.063.156 0 .032.032.11.11.11.016 0 .047 0 .156-.11zm0 0"/></svg></svg>