<svg xmlns="http://www.w3.org/2000/svg" xmlns:xlink="http://www.w3.org/1999/xlink" width="64" height="64" viewBox="0 0 6.656 6.641"><svg overflow="visible" x="-.547" y="5.813"><path style="stroke:none" d="M7.203-2.5c0-1.828-1.5-3.313-3.328-3.313A3.328 3.328 0 0 0 .547-2.5 3.33 3.33 0 0 0 3.875.828 3.33 3.33 0 0 0 7.203-2.5zM1.891-4.64c-.016-.016-.094-.079-.094-.11s.812-.813 2.078-.813c.344 0 1.266.047 2.078.813L3.875-2.656zM1.609-.407A3.132 3.132 0 0 1 .797-2.5c0-.766.297-1.484.812-2.078L3.688-2.5zm4.516-4.172c.484.516.828 1.266.828 2.078 0 .781-.297 1.5-.812 2.094L4.062-2.5zM5.859-.344c.016.016.079.078.079.11 0 .03-.797.812-2.063.812a2.997 2.997 0 0 1-2.078-.812l2.078-2.094zm0 0"/></svg></svg>