<svg xmlns="http://www.w3.org/2000/svg" xmlns:xlink="http://www.w3.org/1999/xlink" width="64" height="64" viewBox="0 0 6.078 7.141"><svg overflow="visible" x="-.875" y="7.031"><path style="stroke:none" d="M2.953-.625c.75.531 1.031.734 1.547.734 1.156 0 1.813-1.171 1.813-1.484 0-.094-.11-.094-.157-.094-.11 0-.125 0-.172.157C5.797-.75 5.25-.298 4.688-.298 4.234-.297 4-.469 3.25-1a2.97 2.97 0 0 0 .297-.688l.406-1.625h.813c.171 0 .265 0 .265-.203 0-.109-.078-.109-.234-.109H4.03l.438-1.75c.312-1.063.906-1.438 1.343-1.438.5 0 .844.375.844 1.063v.172c-.187 0-.281 0-.406.094a.5.5 0 0 0-.172.375.32.32 0 0 0 .328.328c.485 0 .547-.563.547-.938 0-.703-.36-1.312-1.156-1.312-.875 0-1.781.843-2.016 1.812l-.39 1.594h-.563c-.172 0-.281 0-.281.219 0 .094.078.094.25.094h.515c-.093.359-.187.687-.265 1.046-.094.329-.203.797-.281 1a1.43 1.43 0 0 0-.579-.125C1.454-1.39.875-.828.875-.375c0 .344.344.484.672.484.469 0 1.047-.28 1.406-.734zm-.375-.219c-.312.5-.734.735-1.031.735-.234 0-.297-.157-.297-.266 0-.25.328-.61.75-.61.203 0 .39.063.578.141zm0 0"/></svg></svg>