<svg xmlns="http://www.w3.org/2000/svg" xmlns:xlink="http://www.w3.org/1999/xlink" width="1.396" height="12.043" viewBox="0 0 1.047 9.033"><svg overflow="visible" x="148.712" y="131.831" transform="translate(-149.571 -130.768)"><path style="stroke:none" d="M1.906-.531a.534.534 0 0 0-.515-.531.537.537 0 0 0-.532.53.524.524 0 1 0 1.047 0zm0 0"/></svg><svg overflow="visible" x="148.712" y="135.816" transform="translate(-149.571 -130.768)"><path style="stroke:none" d="M1.906-.531a.534.534 0 0 0-.515-.531.537.537 0 0 0-.532.53.524.524 0 1 0 1.047 0zm0 0"/></svg><svg overflow="visible" x="148.712" y="139.801" transform="translate(-149.571 -130.768)"><path style="stroke:none" d="M1.906-.531a.534.534 0 0 0-.515-.531.537.537 0 0 0-.532.53.524.524 0 1 0 1.047 0zm0 0"/></svg></svg>