<svg xmlns="http://www.w3.org/2000/svg" xmlns:xlink="http://www.w3.org/1999/xlink" width="64" height="64" viewBox="0 0 4.109 7.141"><svg overflow="visible" x="-.422" y="7.031"><path style="stroke:none" d="M4.531-4.984c0-.657-.172-2.047-1.187-2.047-1.39 0-2.922 2.812-2.922 5.093C.422-1 .703.11 1.609.11c1.407 0 2.922-2.859 2.922-5.093zM1.47-3.625c.172-.625.375-1.422.781-2.14.266-.485.625-1.048 1.078-1.048.485 0 .547.641.547 1.204 0 .5-.078 1-.313 1.984zm2 .328c-.11.453-.313 1.297-.703 2.016-.344.687-.72 1.172-1.157 1.172-.328 0-.53-.297-.53-1.22 0-.421.062-1 .312-1.968zm0 0"/></svg></svg>