<svg xmlns="http://www.w3.org/2000/svg" xmlns:xlink="http://www.w3.org/1999/xlink" width="8.083" height="9.083" viewBox="0 0 6.063 6.812"><svg overflow="visible" x="148.712" y="134.765" transform="translate(-149.275 -127.953)"><path style="stroke:none" d="M3.703-3.25c.094-.094.094-.14.094-.156a.233.233 0 0 0-.063-.14L1.688-6.5h2.296c1.688 0 2.188.36 2.391 1.938h.25l-.281-2.25H.812c-.234 0-.25 0-.25.234l2.485 3.61L.672-.267c-.11.11-.11.125-.11.157 0 .109.11.109.25.109h5.532l.281-2.36h-.25c-.172 1.674-.86 1.94-2.422 1.94h-2.75zm0 0"/></svg></svg>