<svg xmlns="http://www.w3.org/2000/svg" xmlns:xlink="http://www.w3.org/1999/xlink" width="64" height="64" viewBox="0 0 5.313 6.797"><svg overflow="visible" x="-.359" y="6.812"><path style="stroke:none" d="M.36-6.813v.297h.374c.36 0 .657.047.657.438V-.75c0 .375-.329.438-.672.438h-.36v.296h2.875v-.296h-.39c-.344 0-.625-.047-.625-.422v-1.047H3.78c.906-.11 1.89-.719 1.89-1.875 0-1.14-1.046-1.86-2.155-1.86H2.219v-.53c0-.423.328-.47.734-.47h.281v-.296zm1.859 4.72V-5.22H3.25c.234 0 .453.016.672.14.5.266.75.86.75 1.407 0 .703-.406 1.453-1.219 1.578zm0 0"/></svg></svg>