<svg xmlns="http://www.w3.org/2000/svg" xmlns:xlink="http://www.w3.org/1999/xlink" width="64" height="64" viewBox="0 0 3.328 9.187"><svg overflow="visible" x="-.547" y="7.031"><path style="stroke:none" d="M2.313-4.188c.14.016.234.016.453.094.218.063.53.14.734.14.313 0 .375-.25.375-.327 0-.14-.094-.344-.375-.344-.078 0-.266.016-.594.11-.344.093-.437.093-.594.124 0-.171.016-.437.11-1.046.047-.36.125-.813.125-1.172 0-.094 0-.422-.328-.422-.344 0-.344.328-.344.422 0 .343.094.953.125 1.218.094.594.11.813.11 1-.141-.03-.235-.03-.47-.093-.202-.063-.515-.141-.718-.141-.328 0-.375.234-.375.328 0 .14.078.344.375.344.078 0 .265-.031.578-.11.36-.093.453-.109.61-.125-.016.204-.032.313-.126.844-.109.578-.109.688-.109 1.172 0 1.578.125 3.266.203 4.125 0 .14.016.203.125.203.125 0 .125-.047.14-.187.048-.453.095-1.047.11-1.532a42.93 42.93 0 0 0 .094-2.609c0-.484 0-.594-.11-1.172-.109-.515-.109-.64-.124-.844zm0 0"/></svg></svg>