<svg xmlns="http://www.w3.org/2000/svg" xmlns:xlink="http://www.w3.org/1999/xlink" width="64" height="64" viewBox="0 0 3.125 2.984"><svg overflow="visible" x="-1.516" y="6.906"><path style="stroke:none" d="M2.719-4.453c0-.266-.172-.531-.531-.531a.582.582 0 0 0-.407.156.034.034 0 0 1-.031.031c-.016 0-.016-.14-.016-.172 0-.328.063-1.047.704-1.656.109-.125.109-.14.109-.172 0-.078-.047-.11-.094-.11-.11 0-.937.75-.937 1.938 0 .594.234 1.047.671 1.047a.525.525 0 0 0 .532-.531zm1.922 0c0-.266-.172-.531-.532-.531a.57.57 0 0 0-.39.156c-.016.016-.016.031-.031.031-.016 0-.016-.14-.016-.172 0-.328.062-1.047.687-1.656.125-.125.125-.14.125-.172 0-.078-.046-.11-.093-.11-.11 0-.938.75-.938 1.938 0 .594.235 1.047.656 1.047.36 0 .532-.281.532-.531zm0 0"/></svg></svg>