<svg xmlns="http://www.w3.org/2000/svg" xmlns:xlink="http://www.w3.org/1999/xlink" width="64" height="64" viewBox="0 0 5.516 11.078"><svg overflow="visible" x="-.563"><path style="stroke:none" d="M2.719 8.766c-.14 1.64-.5 2.093-1.063 2.093-.125 0-.437-.03-.64-.218a.397.397 0 0 0 .375-.407.406.406 0 0 0-.407-.421.414.414 0 0 0-.421.437c0 .469.5.828 1.093.828.953 0 1.422-.875 1.64-1.765.126-.516.485-3.422.579-4.532l.188-2.484C4.202.469 4.53.219 4.984.219c.094 0 .407.015.625.203a.418.418 0 0 0-.359.422c0 .281.219.406.406.406.203 0 .422-.125.422-.422 0-.484-.5-.828-1.11-.828-.937 0-1.327.969-1.5 1.719-.124.547-.484 3.36-.562 4.578zm0 0"/></svg></svg>