<svg xmlns="http://www.w3.org/2000/svg" xmlns:xlink="http://www.w3.org/1999/xlink" width="64" height="64" viewBox="0 0 3.859 8.047"><svg overflow="visible" x="-.563" y="7.485"><path style="stroke:none" d="M2.64-3.094c1.204.25 1.266 1.203 1.266 1.453 0 .657-.484 1.329-1.265 1.438zm-.312-.094v2.985C1.453-.266.984-.766.86-1.391a.555.555 0 0 0 .157.032c.265 0 .453-.204.453-.47a.435.435 0 0 0-.453-.452c-.063 0-.454.015-.454.5 0 .89.532 1.812 1.766 1.89v.454h.313v-.47C3.687.017 4.42-.921 4.42-1.936c0-.829-.452-1.344-.546-1.438-.39-.438-.75-.516-1.234-.64v-2.688c.843.031 1.328.469 1.468 1.031-.03-.016-.046-.016-.156-.016a.435.435 0 0 0-.453.454c0 .312.25.453.453.453.031 0 .469 0 .469-.5 0-.953-.656-1.688-1.781-1.75v-.453h-.313v.468c-1.11.094-1.765 1-1.765 1.907 0 .687.359 1.156.546 1.328.375.39.72.469 1.22.594zm0-.906C1.11-4.359 1.063-5.219 1.063-5.406c0-.61.468-1.219 1.265-1.297zm0 0"/></svg></svg>