<svg xmlns="http://www.w3.org/2000/svg" xmlns:xlink="http://www.w3.org/1999/xlink" width="64" height="64" viewBox="0 0 9.938 9.969"><svg overflow="visible" x="-.563"><path style="stroke:none" d="M10.5 4.984A4.965 4.965 0 0 0 5.531 0 4.975 4.975 0 0 0 .563 4.984 4.975 4.975 0 0 0 5.53 9.97a4.965 4.965 0 0 0 4.97-4.986zm-5.313-.343h-3.92C1.422 2.516 3.156.844 5.187.703zm.688 0V.703c2.016.14 3.781 1.813 3.922 3.938zm0 .687h3.938C9.64 7.484 7.875 9.125 5.874 9.266zm-.688 0v3.938c-2-.141-3.765-1.782-3.937-3.938zm0 0"/></svg></svg>