<svg xmlns="http://www.w3.org/2000/svg" xmlns:xlink="http://www.w3.org/1999/xlink" width="64" height="64" viewBox="0 0 6.656 8.547"><svg overflow="visible" x="-.547" y="7.25"><path style="stroke:none" d="M4 1.297c.172 0 .36 0 .36-.203 0-.032 0-.047-.048-.157a5.849 5.849 0 0 1-.234-1.64h.5c.031.875 1.11.922 1.297.922 1.219 0 1.328-1.594 1.328-2.25 0-1.156-.672-1.953-1.797-2.953-.765-.672-1.093-1.532-1.343-2.141a.203.203 0 0 0-.188-.125c-.14 0-.172.11-.203.172C3.5-6.625 3.125-5.672 2.359-5 1.203-3.969.547-3.156.547-2.031c0 .75.156 2.25 1.344 2.25.296 0 1.265-.094 1.296-.922h.485c0 .656-.094 1.156-.25 1.687-.016.079-.016.094-.016.11 0 .203.172.203.344.203zm0 0"/></svg></svg>