<svg xmlns="http://www.w3.org/2000/svg" xmlns:xlink="http://www.w3.org/1999/xlink" width="13.2" height="1.396" viewBox="0 0 9.9 1.047"><svg overflow="visible" x="148.712" y="134.765" transform="translate(-149.571 -131.75)"><path style="stroke:none" d="M1.906-2.5a.524.524 0 1 0-1.047.016.524.524 0 0 0 1.047-.016zm0 0"/></svg><svg overflow="visible" x="153.143" y="134.765" transform="translate(-149.571 -131.75)"><path style="stroke:none" d="M1.906-2.5a.524.524 0 1 0-1.047.016.524.524 0 0 0 1.047-.016zm0 0"/></svg><svg overflow="visible" x="157.565" y="134.765" transform="translate(-149.571 -131.75)"><path style="stroke:none" d="M1.906-2.5a.524.524 0 1 0-1.047.016.524.524 0 0 0 1.047-.016zm0 0"/></svg></svg>