<svg xmlns="http://www.w3.org/2000/svg" xmlns:xlink="http://www.w3.org/1999/xlink" width="64" height="64" viewBox="0 0 6.656 4.672"><svg overflow="visible" x="-.547" y="4.828"><path style="stroke:none" d="M7.203-4.625A.197.197 0 0 0 7-4.828c-.063 0-.078 0-.266.156-1.015.797-1.984 1.125-2.859 1.125-1.031 0-2-.453-2.906-1.14-.125-.11-.156-.141-.219-.141a.197.197 0 0 0-.203.203c0 .047 0 .078.047.14.031.016.656.563 1.469.923.765.343 1.374.406 1.812.406.89 0 1.86-.297 2.922-1.063.094-.078.312-.234.344-.281.015 0 .062-.063.062-.125zm0 4.266c0-.047 0-.079-.062-.141a6.688 6.688 0 0 0-1.454-.922c-.765-.344-1.375-.406-1.812-.406-.89 0-1.875.297-2.922 1.062a4.93 4.93 0 0 0-.36.282S.548-.422.548-.36c0 .109.078.203.203.203.063 0 .078 0 .25-.157 1.031-.796 2-1.125 2.875-1.125 1.031 0 2 .454 2.906 1.141.11.11.14.14.219.14a.197.197 0 0 0 .203-.202zm0 0"/></svg></svg>