<svg xmlns="http://www.w3.org/2000/svg" xmlns:xlink="http://www.w3.org/1999/xlink" width="11.727" height="9.386" viewBox="0 0 8.795 7.039"><svg overflow="visible" x="149.266" y="132.828" transform="translate(-150.125 -131.766)"><path style="stroke:none" d="M1.906-.531a.534.534 0 0 0-.515-.531.537.537 0 0 0-.532.53.524.524 0 1 0 1.047 0zm0 0"/></svg><svg overflow="visible" x="153.14" y="135.816" transform="translate(-150.125 -131.766)"><path style="stroke:none" d="M1.906-.531a.534.534 0 0 0-.515-.531.537.537 0 0 0-.532.53.524.524 0 1 0 1.047 0zm0 0"/></svg><svg overflow="visible" x="157.014" y="138.805" transform="translate(-150.125 -131.766)"><path style="stroke:none" d="M1.906-.531a.534.534 0 0 0-.515-.531.537.537 0 0 0-.532.53.524.524 0 1 0 1.047 0zm0 0"/></svg></svg>