<svg xmlns="http://www.w3.org/2000/svg" xmlns:xlink="http://www.w3.org/1999/xlink" width="64" height="64" viewBox="0 0 6.094 7.703"><svg overflow="visible" x="-.828" y="6.344"><path style="stroke:none" d="M3.844-5.938c1.562 0 2.672 1.157 2.672 2.485C6.516-2.11 5.39-.97 3.844-.97H1.172C1-.97.828-.97.828-.767c0 .204.172.204.344.204h2.687c1.72 0 3.063-1.313 3.063-2.891 0-1.594-1.375-2.89-3.063-2.89H1.172c-.172 0-.344 0-.344.202 0 .204.172.204.344.204zM6.375 1.36c.172 0 .344 0 .344-.187 0-.203-.172-.203-.344-.203H1.172C1 .97.828.97.828 1.173c0 .187.172.187.344.187zm0 0"/></svg></svg>