<svg xmlns="http://www.w3.org/2000/svg" xmlns:xlink="http://www.w3.org/1999/xlink" width="64" height="12" viewBox="0 0 4.219 9"><svg overflow="visible" x="-.234" y="6.953"><path style="stroke:none" d="M1.531-3.047C.453-2.328.234-1.39.234-1.03c0 .468.266.75.282.781.328.328.406.375 1.156.656l1.203.469c.156.063.36.125.36.422 0 .234-.188.531-.5.531-.438 0-.766-.25-.876-.328-.062-.031-.062-.047-.109-.047-.078 0-.094.078-.094.11 0 .125.532.484 1.078.484.625 0 1.047-.578 1.047-1.063a.767.767 0 0 0-.484-.718c-.14-.047-.469-.172-.61-.22a3.524 3.524 0 0 0-.609-.233l-.594-.235c-.453-.187-.75-.469-.75-.89 0-.407.391-1.282 1.235-1.704.36.141.656.141.875.141.297 0 .922 0 .922-.313 0-.25-.422-.265-.813-.265-.187 0-.469 0-.844.11-.25-.25-.296-.579-.296-.766 0-.563.359-1.329 1.109-1.704.172.22.406.22.64.22.25 0 .891 0 .891-.313 0-.25-.453-.266-.828-.266-.14 0-.375 0-.64.047a.804.804 0 0 1-.047-.328c0-.14.046-.344.046-.36 0-.078-.046-.14-.109-.14-.188 0-.188.469-.188.5 0 .187.063.344.079.375-1.079.312-1.75 1.11-1.75 1.875 0 .36.187.781.656 1.047zm1.625-2.86c.156-.046.36-.046.469-.046.344 0 .375.016.563.062-.079.032-.188.079-.625.079-.188 0-.297 0-.407-.094zm-.781 2.72c.234-.047.453-.047.563-.047.359 0 .39 0 .578.046-.094.047-.188.094-.641.094-.234 0-.328 0-.5-.094zm0 0"/></svg></svg>