<svg xmlns="http://www.w3.org/2000/svg" xmlns:xlink="http://www.w3.org/1999/xlink" width="13.2" height="1.417" viewBox="0 0 9.9 1.063"><svg overflow="visible" x="148.712" y="134.765" transform="translate(-149.571 -133.702)"><path style="stroke:none" d="M1.906-.531a.534.534 0 0 0-.515-.531.537.537 0 0 0-.532.53.524.524 0 1 0 1.047 0zm0 0"/></svg><svg overflow="visible" x="153.143" y="134.765" transform="translate(-149.571 -133.702)"><path style="stroke:none" d="M1.906-.531a.534.534 0 0 0-.515-.531.537.537 0 0 0-.532.53.524.524 0 1 0 1.047 0zm0 0"/></svg><svg overflow="visible" x="157.565" y="134.765" transform="translate(-149.571 -133.702)"><path style="stroke:none" d="M1.906-.531a.534.534 0 0 0-.515-.531.537.537 0 0 0-.532.53.524.524 0 1 0 1.047 0zm0 0"/></svg></svg>