<svg xmlns="http://www.w3.org/2000/svg" xmlns:xlink="http://www.w3.org/1999/xlink" width="64" height="64" viewBox="0 0 7.203 8.547"><svg overflow="visible" x="-.281" y="7.25"><path style="stroke:none" d="M4 1.297c.172 0 .36 0 .36-.203 0-.032 0-.047-.048-.157a5.849 5.849 0 0 1-.234-1.64h.5c.031.828.922.922 1.188.922.968 0 1.718-.89 1.718-1.953 0-.97-.53-1.938-1.468-1.938-.36 0-.672.14-.907.438l-.218-.47c.5-.405.75-.983.75-1.593 0-1.047-.75-1.953-1.766-1.953-1 0-1.766.906-1.766 1.953 0 .61.266 1.203.766 1.594l-.219.469a1.16 1.16 0 0 0-.922-.438c-.937 0-1.453.969-1.453 1.938 0 1.062.735 1.953 1.703 1.953.266 0 1.157-.094 1.204-.922h.484c0 .656-.094 1.156-.25 1.687-.016.079-.016.094-.016.11 0 .203.172.203.344.203zm0 0"/></svg></svg>