<svg xmlns="http://www.w3.org/2000/svg" xmlns:xlink="http://www.w3.org/1999/xlink" width="64" height="64" viewBox="0 0 5.453 10.391"><svg overflow="visible" x="-.313" y="7.687"><path style="stroke:none" d="M4.203-5.484c.672.562 1.406.859 1.453.859.11 0 .11-.094.11-.188 0-.14 0-.171-.079-.218-1.062-.453-1.937-1.172-2.5-2.5-.062-.125-.078-.157-.14-.157-.078 0-.094.047-.14.157A4.608 4.608 0 0 1 .53-5.078c-.172.078-.187.094-.187.11-.031.015-.031.03-.031.155 0 .094 0 .188.109.188.062 0 .781-.297 1.453-.86V.5C1.203-.063.485-.36.422-.36c-.11 0-.11.094-.11.188 0 .14 0 .172.094.219 1.047.453 1.922 1.172 2.5 2.5.047.125.063.156.14.156.063 0 .079-.047.142-.156A4.54 4.54 0 0 1 5.546.094c.172-.078.187-.094.187-.11.032-.015.032-.03.032-.156 0-.094 0-.187-.11-.187-.047 0-.781.296-1.453.859zm-1.937-.391c.343-.344.593-.719.78-1.047.173.328.438.703.767 1.047V.891a4.801 4.801 0 0 0-.766 1.046A4.912 4.912 0 0 0 2.266.891zm0 0"/></svg></svg>