<svg xmlns="http://www.w3.org/2000/svg" xmlns:xlink="http://www.w3.org/1999/xlink" width="64" height="64" viewBox="0 0 6.094 7.703"><svg overflow="visible" x="-.828" y="6.344"><path style="stroke:none" d="M4.031-3.453c-.797.156-1.593.39-2.25.906C.891-1.828.828-.844.828-.78c0 .156.11.219.203.219.172 0 .188-.172.203-.25.079-.47.266-1.485 2.063-2.047 1.015-.329 2.281-.375 3.328-.391.11 0 .297 0 .297-.203s-.14-.203-.5-.203c-1.39 0-3.578-.188-4.563-1.156a2.145 2.145 0 0 1-.625-1.282c-.015-.062-.03-.25-.203-.25a.21.21 0 0 0-.203.219c0 .14.094.625.297.984.39.688 1.125 1.36 2.906 1.688zM1.171.969c-.171 0-.343 0-.343.203 0 .187.172.187.344.187h5.39c.172 0 .36 0 .36-.187 0-.203-.188-.203-.36-.203zm0 0"/></svg></svg>