<svg xmlns="http://www.w3.org/2000/svg" xmlns:xlink="http://www.w3.org/1999/xlink" width="64" height="64" viewBox="0 0 5.609 6.453"><svg overflow="visible" x="-.313" y="4.406"><path style="stroke:none" d="M5.813-4.016c.109-.109.109-.125.109-.156a.123.123 0 0 0-.125-.125c-.063 0-.094.047-.156.125L3.359-1.64c-.406-1.265-.484-1.515-.703-2.03-.11-.235-.328-.735-1.203-.735-.578 0-.844.515-.844.656 0 .016 0 .094.125.094.079 0 .11-.047.125-.11a.616.616 0 0 1 .532-.421c.296 0 .593.765.765 1.203.313.78.64 1.937.64 1.968 0 .016 0 .032-.077.11L.422 1.656c-.11.11-.11.125-.11.157 0 .062.063.125.11.125.078 0 .125-.079.172-.11L2.875-.734c.313 1.03.438 1.421.672 1.984.125.297.344.797 1.234.797.578 0 .844-.516.844-.656 0-.047-.016-.11-.11-.11-.109 0-.109.047-.14.14-.094.25-.344.407-.531.407-.5 0-1.188-2.422-1.407-3.187zm0 0"/></svg></svg>