<svg xmlns="http://www.w3.org/2000/svg" xmlns:xlink="http://www.w3.org/1999/xlink" width="64" height="64" viewBox="0 0 8.406 6.812"><svg overflow="visible" x="-.313" y="6.812"><path style="stroke:none" d="M4.14-3.125V-.75c0 .438-.109.438-.765.438V0h4.922l.422-2.578h-.25c-.25 1.484-.39 2.265-2.063 2.265H5.47c-.469 0-.5-.062-.5-.39v-2.422h.86c.937 0 1.015.328 1.015 1.172h.25v-2.64h-.25c0 .827-.078 1.171-1.016 1.171h-.86v-2.672c0-.343.032-.406.5-.406h.938c1.422 0 1.625.578 1.782 1.938h.25l-.282-2.25H2.578v.312h.438c.14 0 .28.016.406.016l-1.969 5.5c-.14.39-.437.671-1.14.671V0a15.89 15.89 0 0 1 1.014-.031c.313 0 .828.015 1.156.031v-.313c-.5 0-.734-.25-.734-.5 0-.078 0-.078.047-.218l.75-2.094zm0-.297H2.657l1.078-3.031c.407 0 .407.266.407.437zm0 0"/></svg></svg>