<svg xmlns="http://www.w3.org/2000/svg" xmlns:xlink="http://www.w3.org/1999/xlink" width="64" height="64" viewBox="0 0 6.656 6.641"><svg overflow="visible" x="-.547" y="6.641"><path style="stroke:none" d="M4.078-3.125h2.766c.172 0 .36 0 .36-.188 0-.203-.188-.203-.36-.203H4.078v-2.75c0-.171 0-.375-.203-.375s-.203.188-.203.344v2.781H.89c-.157 0-.344 0-.344.204 0 .187.187.187.344.187h2.78v2.719H.892c-.157 0-.344 0-.344.203S.734 0 .89 0h5.953c.172 0 .36 0 .36-.203s-.188-.203-.36-.203H4.078zm0 0"/></svg></svg>