<svg xmlns="http://www.w3.org/2000/svg" xmlns:xlink="http://www.w3.org/1999/xlink" width="64" height="64" viewBox="0 0 3.891 8.031"><svg overflow="visible" x="-.531" y="7.485"><path style="stroke:none" d="M2.328-7.484v.453c-.969 0-1.765.953-1.765 1.906 0 .813.5 1.547 1.296 1.813.235.078.47.046.47.25V-.22C1.655-.219.968-.703.843-1.39c.047 0 .11.016.156.016.266 0 .469-.188.469-.453A.47.47 0 0 0 1-2.297c-.281 0-.469.219-.469.547 0 .969.672 1.688 1.688 1.844.078 0 .11.031.11.11v.343h.312V.094c1.125 0 1.78-1.188 1.78-2.047 0-.844-.5-1.64-1.312-1.938-.25-.093-.484-.062-.484-.28 0-.048.016-.095.016-.141V-6.72c.468 0 .968.203 1.25.578.109.141.171.297.234.454-.047 0-.11-.016-.156-.016-.297 0-.453.234-.453.469 0 .28.218.453.453.453.265 0 .453-.203.453-.516 0-.937-.625-1.578-1.672-1.734-.063 0-.11-.032-.11-.11v-.343zM2.641-.22v-2.89c.671.125 1.28.671 1.28 1.437 0 .688-.468 1.344-1.28 1.453zm-.313-6.5v2.61c-.61-.11-1.265-.547-1.265-1.297 0-.688.593-1.25 1.265-1.313zm0 0"/></svg></svg>