<svg xmlns="http://www.w3.org/2000/svg" xmlns:xlink="http://www.w3.org/1999/xlink" width="7.396" height="8.25" viewBox="0 0 5.547 6.187"><svg overflow="visible" x="148.712" y="134.765" transform="translate(-149.259 -128.796)"><path style="stroke:none" d="M6.094-5.61c0-.171 0-.359-.203-.359-.204 0-.204.188-.204.36V-2c0 1.5-1.625 1.828-2.375 1.828-.437 0-1.062-.094-1.593-.437C.953-1.094.953-1.734.953-2v-3.61c0-.171 0-.359-.203-.359s-.203.188-.203.36v3.656C.547-.437 2.078.219 3.312.219c1.297 0 2.782-.703 2.782-2.156zm0 0"/></svg></svg>