<svg xmlns="http://www.w3.org/2000/svg" xmlns:xlink="http://www.w3.org/1999/xlink" width="64" height="64" viewBox="0 0 14.928 5.484"><svg overflow="visible" x="-.563" y="5.235"><path style="stroke:none" d="M9.063-1.328c.171 0 .343 0 .343-.203 0-.188-.172-.188-.36-.188H2.72c-.422-.36-.922-.625-1.25-.781.36-.156.843-.406 1.25-.766h6.328c.187 0 .36 0 .36-.187 0-.203-.173-.203-.345-.203h-5.89c.484-.453 1-1.344 1-1.469 0-.11-.14-.11-.188-.11-.093 0-.156 0-.203.079-.203.375-.484.906-1.125 1.484-.687.61-1.36.875-1.875 1.031-.172.063-.187.063-.203.094-.015 0-.015.031-.015.047v.063l.03.03c.032 0 .032.016.22.079A4.761 4.761 0 0 1 3.719.047c.11.187.125.203.265.203.047 0 .188 0 .188-.11 0-.124-.516-1-1-1.468zm0 0"/></svg><svg overflow="visible" x="7.74" y="5.235"><path style="stroke:none" d="M6.844-3.266c.156 0 .343 0 .343-.187 0-.203-.187-.203-.328-.203H.891c-.141 0-.329 0-.329.203 0 .187.188.187.329.187zm.015 1.938c.141 0 .329 0 .329-.203 0-.188-.188-.188-.344-.188H.89c-.141 0-.329 0-.329.188 0 .203.188.203.329.203zm0 0"/></svg></svg>