<svg xmlns="http://www.w3.org/2000/svg" xmlns:xlink="http://www.w3.org/1999/xlink" width="64" height="64" viewBox="0 0 6.094 7.703"><svg overflow="visible" x="-.828" y="6.344"><path style="stroke:none" d="M6.563-5.938c.171 0 .359 0 .359-.203s-.188-.203-.36-.203h-2.67C2.17-6.344.828-5.03.828-3.454c0 1.595 1.375 2.892 3.063 2.892h2.671c.172 0 .36 0 .36-.204 0-.203-.188-.203-.36-.203H3.906C2.328-.969 1.22-2.14 1.22-3.453c0-1.36 1.14-2.485 2.687-2.485zM1.375.97c-.172 0-.344 0-.344.203 0 .187.172.187.344.187h5.188c.171 0 .359 0 .359-.187 0-.203-.188-.203-.36-.203zm0 0"/></svg></svg>