<svg xmlns="http://www.w3.org/2000/svg" xmlns:xlink="http://www.w3.org/1999/xlink" width="64" height="64" viewBox="0 0 5.453 8.844"><svg overflow="visible" x="-.313" y="6.922"><path style="stroke:none" d="M4.203-6.563c0-.171 0-.359-.203-.359-.188 0-.188.188-.188.36v6.328c-.39.453-.656 1-.765 1.25-.125-.266-.39-.813-.781-1.25v-6.329c0-.171 0-.359-.188-.359-.203 0-.203.188-.203.36v5.859c-.39-.36-.531-.438-.688-.547-.328-.234-.703-.438-.765-.438-.11 0-.11.11-.11.188 0 .14 0 .172.11.219C1.969-.484 2.625.734 2.937 1.844c.016.062.063.078.11.078.078 0 .094-.063.11-.11C3.53.516 4.265-.563 5.686-1.296c.079-.031.079-.094.079-.203 0-.078 0-.188-.11-.188-.047 0-.453.22-.765.422-.204.157-.344.266-.688.563zm0 0"/></svg></svg>