<svg xmlns="http://www.w3.org/2000/svg" xmlns:xlink="http://www.w3.org/1999/xlink" width="64" height="12" viewBox="0 0 4.266 9"><svg overflow="visible" x="-.453" y="6.953"><path style="stroke:none" d="M3.234-5.766c.172.172.407.172.61.172.25 0 .875 0 .875-.312 0-.25-.39-.266-.797-.266-.11 0-.375 0-.625.094-.063-.11-.078-.156-.078-.375 0-.14.047-.344.047-.36 0-.078-.047-.14-.11-.14-.187 0-.187.469-.187.5 0 .156.031.344.11.484C2.03-5.437.452-3.594.452-1.672.453-.266 1.36.047 2.078.281c.297.11.328.11.61.203.218.079.624.22.624.688 0 .266-.187.656-.562.656-.25 0-.531-.125-.734-.297-.079-.062-.079-.078-.125-.078-.047 0-.094.047-.094.11 0 .109.422.484.953.484.625 0 1.094-.64 1.094-1.203 0-.39-.188-.594-.281-.672-.157-.188-.36-.25-.938-.453-.797-.266-.953-.313-1.203-.531C1-1.188 1-1.75 1-1.938c0-1.547 1.219-3.297 2.234-3.829zm.22-.109c.155-.078.327-.078.468-.078.328 0 .36.016.547.062-.078.032-.188.079-.625.079-.203 0-.281 0-.39-.063zm0 0"/></svg></svg>