<svg xmlns="http://www.w3.org/2000/svg" xmlns:xlink="http://www.w3.org/1999/xlink" width="9.563" height="13.292" viewBox="0 0 7.172 9.969"><svg overflow="visible" x="148.712" y="127.293" transform="translate(-149.275 -127.293)"><path style="stroke:none" d="M7.031 9.625c.063.172.11.344.36.344.171 0 .343-.14.343-.344 0-.016 0-.078-.046-.219L4.5.328C4.453.188 4.39 0 4.14 0c-.234 0-.296.172-.343.313L.609 9.405c-.046.14-.046.203-.046.219 0 .203.171.344.328.344.187 0 .296-.094.359-.297L4.14 1.39zm0 0"/></svg></svg>