<svg xmlns="http://www.w3.org/2000/svg" xmlns:xlink="http://www.w3.org/1999/xlink" width="64" height="64" viewBox="0 0 4.938 7.047"><svg overflow="visible" x="-.531" y="6.922"><path style="stroke:none" d="M3.563-2.906c.406 1.047.89 2.562 1.046 2.797.157.218.25.218.532.218h.218c.094-.015.11-.062.11-.093 0-.032-.032-.063-.063-.094-.093-.11-.156-.266-.218-.453L3.155-6.203c-.219-.578-.75-.719-1.219-.719-.046 0-.187 0-.187.11 0 .078.078.109.094.109.328.047.406.11.656.797l.953 2.703L.703-.47c-.11.125-.172.172-.172.313 0 .172.14.281.297.281.156 0 .25-.11.328-.203zm0 0"/></svg></svg>