<svg xmlns="http://www.w3.org/2000/svg" xmlns:xlink="http://www.w3.org/1999/xlink" width="64" height="64" viewBox="0 0 6.281 7.141"><svg overflow="visible" x="-.313" y="7.141"><path style="stroke:none" d="M3.688-6.922c-.063-.203-.126-.219-.235-.219-.156 0-.172.047-.219.22L1.313-1c-.094.297-.297.688-1 .688V0c.328-.016.843-.031.937-.031.281 0 .813.015 1.125.031v-.313c-.547 0-.766-.28-.766-.515 0-.047 0-.078.047-.219l1.5-4.64L4.72-.782c.062.14.062.156.062.172 0 .296-.593.296-.86.296V0c.36-.031 1.063-.031 1.438-.031.391 0 .844.015 1.235.031v-.313c-.766 0-.797-.062-.907-.421zm0 0"/></svg></svg>