<svg xmlns="http://www.w3.org/2000/svg" xmlns:xlink="http://www.w3.org/1999/xlink" width="64" height="64" viewBox="0 0 4.813 4.797"><svg overflow="visible" x="-1.468" y="4.891"><path style="stroke:none" d="M3.875-2.766 1.891-4.75c-.125-.125-.141-.14-.22-.14a.197.197 0 0 0-.202.202c0 .063.015.079.125.188l2 2-2 2.016c-.11.109-.125.125-.125.187 0 .125.093.203.203.203.078 0 .094-.015.219-.14L3.875-2.22 5.938-.156a.236.236 0 0 0 .14.062c.125 0 .203-.078.203-.203 0-.016 0-.047-.031-.11A208.102 208.102 0 0 1 4.156-2.5l1.828-1.813c.047-.062.204-.187.25-.25 0-.015.047-.062.047-.125 0-.125-.078-.203-.203-.203-.078 0-.11.032-.219.141zm0 0"/></svg></svg>