<svg xmlns="http://www.w3.org/2000/svg" xmlns:xlink="http://www.w3.org/1999/xlink" width="64" height="64" viewBox="0 0 9.109 9.109"><svg overflow="visible" x="-.297" y="7.172"><path style="stroke:none" d="M1.5-6.266c.172.032.39.063.578.063.188 0 .688-.031 1.266-.234.062-.032.797-.344.797-.5 0-.079-.157-.235-.22-.235-.046 0-.077.016-.14.047-.781.531-1.469.531-1.719.531a2.92 2.92 0 0 1-1.28-.281c-.063-.016-.095-.031-.126-.031-.062 0-.094.031-.094.093 0 .032 0 .047.032.125a3 3 0 0 1 .281 1.282c0 .422-.063 1.015-.531 1.734-.031.063-.047.078-.047.125 0 .063.156.235.234.235.14 0 .422-.626.5-.813a3.674 3.674 0 0 0 .219-1.266c0-.328 0-.328-.047-.578l7.781 7.766c.125.125.141.14.235.14a.19.19 0 0 0 .187-.187c0-.078-.015-.11-.14-.234zm0 0"/></svg></svg>