<svg xmlns="http://www.w3.org/2000/svg" xmlns:xlink="http://www.w3.org/1999/xlink" width="3.125" height="13.313" viewBox="0 0 2.344 9.984"><svg overflow="visible" x="148.712" y="134.765" transform="translate(-150.025 -127.28)"><path style="stroke:none" d="M1.719-7.14c0-.157 0-.344-.203-.344-.204 0-.204.234-.204.375v9.234c0 .156 0 .375.204.375.203 0 .203-.188.203-.344zm1.937.03c0-.156 0-.374-.203-.374-.187 0-.187.187-.187.343v9.297c0 .156 0 .344.187.344.203 0 .203-.234.203-.375zm0 0"/></svg></svg>