<svg xmlns="http://www.w3.org/2000/svg" xmlns:xlink="http://www.w3.org/1999/xlink" width="64" height="64" viewBox="0 0 4.922 8.953"><svg overflow="visible" x="-.266" y="7.031"><path style="stroke:none" d="M.266-6.922v.297h.171c.297 0 .61.031.61.484v7.329c0 .39-.266.421-.578.421H.266v.313h2.25v-.313H2.28c-.297 0-.531-.03-.531-.39V-.516c.234.422.797.61 1.219.61 1.234 0 2.219-1.047 2.219-2.25s-.922-2.25-2.094-2.25c-.547 0-1.016.234-1.375.64V-7.03zm4.078 4.938C4.297-1.25 3.906-.204 3-.125h-.063c-.421 0-.812-.234-1.046-.594a.485.485 0 0 1-.141-.344v-1.671c0-.141-.016-.266-.016-.391 0-.531.672-1.031 1.266-1.031 1 0 1.36 1.312 1.36 2.015 0 .047 0 .11-.016.157zm0 0"/></svg></svg>