<svg xmlns="http://www.w3.org/2000/svg" xmlns:xlink="http://www.w3.org/1999/xlink" width="64" height="64" viewBox="0 0 2.188 4.797"><svg overflow="visible" x="-1.109" y="4.813"><path style="stroke:none" d="M2.578-2.422A6.418 6.418 0 0 0 1.141-.234c0 .03-.032.078-.032.125a.09.09 0 0 0 .094.093c.14 0 .281-.39.406-.578A5.945 5.945 0 0 1 3.141-2.25c.062-.031.156-.094.156-.156v-.016c0-.094-.203-.203-.313-.281A5.83 5.83 0 0 1 1.454-4.5c-.016-.031-.126-.313-.235-.313h-.032c-.062 0-.078.047-.078.094 0 .157.141.407.22.563.218.437.468.86.78 1.234.141.172.282.36.47.5zm0 0"/></svg></svg>