<svg xmlns="http://www.w3.org/2000/svg" xmlns:xlink="http://www.w3.org/1999/xlink" width="64" height="64" viewBox="0 0 11.96 7.359"><defs><clipPath id="a"><path d="M149 127h12v8h-12zm0 0"/></clipPath></defs><g clip-path="url(#a)"><svg overflow="visible" x="148.712" y="134.765"><path style="stroke:none" d="M9.172-1.39c0-.063-.047-.079-.078-.079h-.11c-.03 0-.062 0-.078.016-.469.672-1.094 1.312-1.594 1.312-.39 0-.562-.187-.562-.5 0-.484.39-1.265.984-2.093.235-.344.485-.688.735-1.032 1.328-.078 2.656-.359 3.406-1.421.313-.438.484-.891.484-1.235 0-.375-.203-.64-.703-.64-1.422 0-2.781 1.515-3.969 3.109h-1.28c.734-.985 1.5-1.985 2.28-2.969.016-.031.016-.062.016-.094l-.031-.078c-.016-.031-.031-.047-.078-.047-.016 0-.047 0-.063.016-.5.484-.984.969-1.515 1.5-.375.516-1.141.875-1.688.875-.125 0-.203-.063-.203-.172 0-.062.031-.156.125-.266.14-.203.203-.39.203-.546 0-.344-.266-.547-.703-.547-.516 0-1.063.656-1.438 1.172v.046c0 .047.032.094.079.094H3.5c.031 0 .047-.031.063-.047.39-.53.765-1.046 1.14-1.046.156 0 .25.093.25.234 0 .14-.078.312-.234.547-.094.125-.14.234-.14.343 0 .266.343.407.718.407.281 0 .64-.078.969-.235-.25.297-.5.579-.75.875-1.141.11-2.25.438-2.938 1.391l-.015.063c0 .03.03.078.078.078h.109a.12.12 0 0 0 .078-.032c.578-.812 1.5-1.14 2.5-1.265-.406.5-.797 1-1.156 1.515C3.438-1.094 2.516 0 1.688 0 1.015 0 .53-.203.53-.61c0-.093.031-.203.094-.343.078.11.188.156.297.156.265 0 .562-.203.562-.39 0-.25-.156-.344-.328-.344a.726.726 0 0 0-.562.297c-.188.25-.266.484-.266.671 0 .516.594.782 1.313.782 1.109 0 2.578-1.11 3.39-2.266.407-.562.797-1.11 1.203-1.672.235-.015.47-.015.688-.015h.61c-.22.312-.438.609-.641.89-.485.688-.766 1.375-.766 1.906 0 .61.36 1.016 1.156 1.016.64 0 1.39-.75 1.875-1.422.016-.015.016-.031.016-.047zm2.437-5.454c.329 0 .5.172.5.453 0 .282-.171.672-.484 1.11-.656.906-1.781 1.187-2.984 1.297 1.093-1.516 2.218-2.86 2.968-2.86zm0 0"/></svg></g></svg>