<svg xmlns="http://www.w3.org/2000/svg" xmlns:xlink="http://www.w3.org/1999/xlink" width="64" height="64" viewBox="0 0 7.234 7.359"><svg overflow="visible" x="-.109" y="7.141"><path style="stroke:none" d="M2.969-6.547c.015-.047.047-.078.047-.11 0-.046-.032-.077-.079-.077-.359 0-.828.156-1.25.421A3.996 3.996 0 0 0 .563-5.28C.267-4.844.11-4.438.11-4.078c0 .203.047.39.141.547.281.515.906.734 1.672.734.172 0 .36-.015.547-.047a.55.55 0 0 0 .031.172c.11.453.484.688 1.063.688.421 0 .78-.204 1.14-.516-.312.547-.453 1.078-.828 1.61-.344.484-.984.89-1.422.89C1.578 0 .891-.172.891-.625c0-.094.03-.203.093-.328.063.11.172.156.297.156.25 0 .547-.203.547-.39 0-.25-.14-.344-.328-.344a.75.75 0 0 0-.563.297c-.187.25-.265.468-.265.64 0 .61.875.813 1.75.813.781 0 1.812-.297 2.297-1 .5-.719.312-1.281.781-1.953.328-.454.438-1.016 1-1.344a.118.118 0 0 0 .031-.063l-.015-.093v-.016c-.016-.031-.047-.063-.079-.063-.015 0-.03 0-.046.016-.454.266-.813.61-1.11.984-.547.547-1.078 1.11-1.687 1.11-.328 0-.5-.188-.5-.453v-.063A2.54 2.54 0 0 1 3.172-3a7.313 7.313 0 0 0 1.515-.703c.97-.578 1.844-1.36 2.422-2.172.157-.219.235-.438.235-.64a.648.648 0 0 0-.047-.25c-.11-.266-.406-.376-.75-.376-.516 0-1.156.422-1.688.86-.765.625-1.375 1.343-1.875 2.047-.296.406-.468.812-.515 1.171a2.838 2.838 0 0 1-.5.047c-.672 0-1.157-.203-1.328-.609a1.007 1.007 0 0 1-.047-.313c0-.343.172-.78.5-1.25.234-.328.515-.671.89-.953.313-.234.657-.375.922-.375.031 0 .047-.015.063-.03zm.86 2.406c.483-.671 1.062-1.484 1.546-1.984.39-.422.813-.797 1.125-.797.234 0 .375.094.39.234v.047c0 .172-.124.407-.296.657A8.14 8.14 0 0 1 4.39-3.875a6.06 6.06 0 0 1-1.094.563c.14-.25.328-.532.531-.829zm0 0"/></svg></svg>