<svg xmlns="http://www.w3.org/2000/svg" xmlns:xlink="http://www.w3.org/1999/xlink" width="64" height="64" viewBox="0 0 10.25 7.109"><svg overflow="visible" x="-.438" y="7.125"><path style="stroke:none" d="M10.688-.016v-7.109H.438v7.11zm-.329-.296H.781v-6.5h9.578zM9.313-1.345l-.954-2.312.907-2.219h-.422L8.14-4.109l-.672-1.766H7.03l.89 2.219-.937 2.312h.407l.75-1.86.734 1.86zm-2.938 0-.938-4.531h-.453L4-1.344h.39l.282-1.406h1.047l.265 1.406zm-2.672-4.11v-.421H1.86v4.531h.36V-3.47h1.297v-.406H2.219v-1.578zM5.61-3.124h-.843l.437-2.063zm0 0"/></svg></svg>