<svg xmlns="http://www.w3.org/2000/svg" xmlns:xlink="http://www.w3.org/1999/xlink" width="64" height="64" viewBox="0 0 7.719 7.297"><svg overflow="visible" x="-.422" y="7.125"><path style="stroke:none" d="M.422-6.406c.172-.157.328-.235.469-.235.203 0 .375.157.515.438V-1.5h1.047v-4.766c.047-.14.188-.25.422-.359.375 0 .625.078.766.219l.078 4.968h1.047v-4.765c.125-.281.39-.422.78-.422.36 0 .798.344.798.672a.74.74 0 0 1-.11.328c-.359 0-.78.484-.78 1.156v.313c-.032.015-.048.062-.048.156 0 .281.157.844.469 1.734l.5.688c-.234.469-.64 1.062-1.188 1.75h.688l.86-1.047.827.984.563.063-1.11-1.39.907-1.548c.14-.546.219-1.078.219-1.546 0-.704-.391-1.329-.86-1.391l-.062-.844-.36-.344c-.343-.14-.671-.234-.968-.234-.454 0-.829.172-1.125.5l-.422-.406a2.21 2.21 0 0 0-.625-.078c-.547 0-1 .187-1.344.562 0-.375-.172-.578-.844-.578-.656.031-1.031.063-1.11.719zM6.594-1.86c-.516-1.063-.782-1.875-.782-2.438.016-.484.407-1 .735-1 .437.047.766.547.766 1.313 0 .125-.016.25-.032.39L6.734-1.86zm0 0"/></svg></svg>