<svg xmlns="http://www.w3.org/2000/svg" xmlns:xlink="http://www.w3.org/1999/xlink" width="64" height="64" viewBox="0 0 4.25 7.156"><svg overflow="visible" x="-.422" y="7.156"><path style="stroke:none" d="M1.25-5.61c.031-.64.453-1.14.953-1.14h.172c.953.453 1.438 1.266 1.438 2.406-.11.672-.422 1-.938 1-.078 0-.156 0-.234-.031-.907-.406-1.391-1.172-1.391-2.234zm.844-1.546C1.14-6.891.422-5.97.422-5.125c0 1.016.547 1.719 1.61 2.094v1.578h-.97v.281h.97V0h.89v-1.172h1.031v-.281H2.922v-1.438c1.172-.078 1.75-.75 1.75-2.015 0-1.5-.844-2.25-2.578-2.25zm0 0"/></svg></svg>