<svg xmlns="http://www.w3.org/2000/svg" xmlns:xlink="http://www.w3.org/1999/xlink" width="64" height="64" viewBox="0 0 6.484 9.344"><svg overflow="visible" x="-.188" y="7.203"><path style="stroke:none" d="M.406 2.14c.406-.046.469-.078.75-.437.219-.25.922-2.14 1.313-3.453H2.5c.078-.36.156-.719.25-1.094.734-3.297.922-3.812 1.672-3.812.516.031.875.468.875 1.093 0 .516-.297.86-1.188 1.282a1.02 1.02 0 0 0-.125.406c1.11.39 1.688 1.047 1.688 1.938 0 .921-.563 1.609-1.313 1.609-.406-.016-.625-.078-1.53-.516a1.665 1.665 0 0 0-.298.438c.844.312 1.39.437 1.985.437C5.766.031 6.672-.844 6.672-2c0-.922-.594-1.578-1.797-2 .625-.172 1.297-.953 1.297-1.625 0-.844-.922-1.578-1.969-1.578-1.36.11-1.422.344-2.437 4.687C1.219-.266.687 1.344.453 1.422c-.125.047-.266.422-.266.625.016.062.094.094.22.094zm0 0"/></svg></svg>