<svg xmlns="http://www.w3.org/2000/svg" xmlns:xlink="http://www.w3.org/1999/xlink" width="64" height="64" viewBox="0 0 8.281 7.312"><svg overflow="visible" x="-.531" y="7.141"><path style="stroke:none" d="M2.078-1.39c-.25 0-.531.03-.844.14-.203.078-.437.188-.562.36-.094.14-.14.25-.14.359 0 .172.109.312.234.406.28.219.703.297 1.171.297.594 0 1.297-.156 2-.438.547.22 1.11.438 1.86.438.39 0 .86-.219 1.281-.484.453-.282.86-.641 1.14-1.032v-.047c0-.046-.03-.078-.077-.078h-.11c-.031 0-.047 0-.062.016-.219.328-.563.625-.938.86-.375.218-.75.327-1.047.327-.546 0-.984-.125-1.39-.296.203-.11.406-.22.593-.329 1.157-.687 2.172-1.593 2.844-2.546.516-.72.781-1.422.781-2.032 0-.203-.03-.39-.093-.578-.25-.719-1-1.094-2.016-1.094-.562 0-1.234.188-1.922.547-.61.328-1.187.797-1.562 1.313-.344.468-.531.953-.531 1.36 0 .093.015.187.03.265.126.469.532.719 1.126.719.406 0 .906-.11 1.406-.344.406-.203.828-.5 1.063-.86.25-.328.343-.64.343-.906 0-.406-.203-.75-.468-1-.016-.016-.032-.031-.063-.031l-.156.062c-.032.032-.063.047-.063.094v.016l.032.031c.156.156.25.375.25.625 0 .281-.125.64-.391 1.016-.203.28-.5.578-.844.78-.375.204-.75.298-1.062.298-.47 0-.72-.219-.75-.547v-.078c0-.39.234-.89.609-1.406a4.406 4.406 0 0 1 1.328-1.235c.563-.344 1.125-.5 1.594-.5.828 0 1.344.36 1.437.953.016.063.032.14.032.219 0 .61-.391 1.406-.97 2.219-.624.875-1.437 1.781-2.468 2.469-.172.109-.344.218-.5.312l-.156-.078c-.563-.281-1.14-.563-1.969-.563zm-.812.53.109-.015.438.031c.687 0 1.234.203 1.75.406-.579.25-1.126.376-1.594.376-.39 0-.735-.047-.938-.22A.317.317 0 0 1 .938-.5c0-.078.03-.172.109-.281.031-.063.094-.063.219-.078zm0 0"/></svg></svg>