<svg xmlns="http://www.w3.org/2000/svg" xmlns:xlink="http://www.w3.org/1999/xlink" width="64" height="64" viewBox="0 0 8.406 8.562"><svg overflow="visible" x="-.063" y="7.187"><path style="stroke:none" d="m.64-.219.141-.218c0-.032.031-.047.063-.047l.328.187c.031.031.031.031.031.063l-.14.25-.047.015L.687-.14C.641-.156.641-.17.641-.219zm.282-.469.11-.203c.03-.03.046-.062.077-.062l.344.203c.016.016.016.031.016.047l-.14.265-.048.016-.328-.187C.922-.625.922-.625.922-.688zm.265-.453.125-.218c0-.032.016-.047.063-.047l.328.187c.031.016.031.047.031.063l-.125.25-.062.015-.328-.171c-.032-.032-.032-.032-.032-.079zM1.25.156l.14-.265c0-.016.032-.016.063-.016l.328.172c.016.015.016.047.016.078l-.125.25s-.031.016-.063.016zm.203-1.765.125-.22c0-.03.031-.046.063-.046l.328.188C2-1.673 2-1.641 2-1.625l-.125.234c0 .032-.016.032-.047.032l-.344-.172c-.03-.016-.03-.032-.03-.078zm.078 1.312.125-.266c.016-.03.016-.03.063-.03l.328.187c.015 0 .031.031.031.062l-.14.25c0 .016-.032.016-.063.016zm.25-.469.14-.265c.016-.016.016-.016.079-.016l.297.172c.031.016.047.031.047.063l-.14.25c0 .015-.017.015-.063.015l-.329-.187c-.015-.016-.03-.016-.03-.032zM1.86.516 2 .25c.016-.016.031-.031.047-.031l.328.187c.031.016.031.016.031.078l-.172.25-.359-.203zm.188-1.75.14-.266s.016-.016.079-.016l.312.188c.031.016.031.016.031.078l-.14.219C2.47-1 2.47-1 2.407-1l-.328-.203c-.015-.016-.031-.016-.031-.031zm.078 1.28.14-.25c.016-.03.032-.03.063-.03l.313.172c.03.015.046.015.046.078L2.5.28 2.14.062zm.266-.468.125-.234c.03-.031.046-.047.078-.047l.312.172c.031.015.031.031.031.094l-.171.25-.36-.204zm.265-.453.14-.234c.017-.047.032-.063.063-.063l.329.188.015.078-.156.265-.375-.218zM1.97-2.813l.64-1.109c.047-.11.125-.14.266-.14l.078.03 1.375.798c.188.109.219.156.219.312l-.64 1.125c-.032.078-.126.125-.25.125l-1.563-.89c-.078-.047-.125-.126-.125-.25zM3.516-.265l-.063.094c.39.11.64.125 1.125.125a3.386 3.386 0 0 1-1.062-.219zm.5-.828-.032.063.25.031h.344l-.297-.031zm.562-4.187c-.578 0-.719.047-1.125.312l.203.094.188-.14.25-.126c.14-.078.312-.109.484-.14zm0-.953c-1.672 0-2.75 1.078-2.75 2.75l.313-.547c.265-1.313 1.093-2.016 2.437-2.203zm0-.954c-.812 0-1.281.11-1.953.485C1.406-5.86.859-4.953.859-3.531c0 .39.094.812.282 1.281l.171-.297-.093-.297-.047-.375c-.11-2.219 1.203-3.765 3.406-3.969zM3.125-4.983a.498.498 0 0 0-.266.093l-.75 1.047-.265.438L.125-.172a.3.3 0 0 0-.063.188c0 .078.032.14.126.218l1.828 1.047a.498.498 0 0 0 .265.094c.078 0 .094-.031.188-.125L4.64-2.266l.515-1.078c.032-.11.063-.203.063-.281a.573.573 0 0 0-.188-.36c-1.578-.937-1.672-.968-1.906-1zM4.75-5.28c.906.14 1.484.781 1.516 1.64-.016.907-.61 1.547-1.516 1.704 1.078 0 1.797-.704 1.797-1.735 0-.937-.75-1.61-1.797-1.61zm0-.953c1.438.14 2.39 1.109 2.469 2.625C7.187-2.33 6.312-1.141 4.75-1c1.266 0 2.14-.578 2.61-1.734l.093-.391c.031-.172.047-.5.047-.625 0-1.64-1.547-2.484-2.75-2.484zm0-.954c2 .141 3.422 1.641 3.422 3.594C8.078-1.578 6.812-.28 4.75-.03c2.188 0 3.625-1.422 3.719-3.688-.063-2.015-1.563-3.453-3.719-3.469zm0 0"/></svg></svg>