<svg xmlns="http://www.w3.org/2000/svg" xmlns:xlink="http://www.w3.org/1999/xlink" width="64" height="64" viewBox="0 0 5.391 5.391"><svg overflow="visible" x="-.391" y="5.297"><path style="stroke:none" d="M5.781-2.61c0-1.484-1.218-2.687-2.703-2.687A2.668 2.668 0 0 0 .391-2.609C.453-1.922.5-1.516.984-.922l-.593.578.39.406.594-.578c.484.422 1.031.61 1.703.61 1.485 0 2.703-1.235 2.703-2.703zm-.593 0A2.09 2.09 0 0 1 3.078-.5c-.469 0-.89-.14-1.265-.422l.921-.937-.421-.422-.922.937C1.109-1.75.969-2.172.969-2.609a2.12 2.12 0 0 1 2.11-2.11 2.12 2.12 0 0 1 2.108 2.11zm0 0"/></svg></svg>