<svg xmlns="http://www.w3.org/2000/svg" xmlns:xlink="http://www.w3.org/1999/xlink" width="64" height="64" viewBox="0 0 4.797 7.141"><svg overflow="visible" x="-.468" y="7.156"><path style="stroke:none" d="M.672-5.64c.437-.61.953-.907 1.547-.907.547 0 1.078.5 1.078 1.047 0 .375-.203.813-.563 1.297L.47-1.47h2.875v1.453h.765V-1.47h1.157v-.265H4.109v-1.782l-.687.672-.078 1.11H1.219l1.86-1.782.687-.828c.296-.515.468-.984.468-1.39 0-.954-.64-1.422-1.906-1.422-.765.015-1.453.64-1.656 1.515zm0 0"/></svg></svg>