<svg xmlns="http://www.w3.org/2000/svg" xmlns:xlink="http://www.w3.org/1999/xlink" width="64" height="64" viewBox="0 0 8.859 7.312"><svg overflow="visible" x=".016" y="7.141"><path style="stroke:none" d="M6.094-3.64h-.219c.578-.938 1.234-1.907 2.203-2.657a.95.95 0 0 1 .25.656c0 .297-.125.657-.406 1.063a2.784 2.784 0 0 1-.984.86c-.125.062-.266.124-.391.187a.922.922 0 0 0-.453-.11zm-1.172.218c-.313.438-.61.86-.906 1.281-.72 1.016-1.766 2.032-2.61 2.032C.75-.11.281-.297.281-.672c0-.062.016-.14.047-.219a.368.368 0 0 0 .25.079c.266 0 .547-.188.547-.375 0-.25-.14-.344-.328-.344a.782.782 0 0 0-.578.297C.062-1-.016-.813-.016-.641c0 .516.657.75 1.375.75 1.157 0 2.704-1 3.5-2.156.25-.328.47-.703.75-1.094.204 0 .438-.015.672-.062 0 .015 0 .062-.015.11-.032.187-.266.546-.5.874l-.813 1.125a.681.681 0 0 0-.14.422A.63.63 0 0 0 5-.234c.14.172.344.265.578.312a.677.677 0 0 0 .328.094c.188 0 .407-.11.61-.234.125-.079.25-.172.375-.25a5.168 5.168 0 0 0 1-1.032c0-.015.015-.031.015-.047a.086.086 0 0 0-.047-.078h-.156c-.031 0-.047 0-.062.016a5.24 5.24 0 0 1-.938 1.031c-.094.078-.187.156-.281.219a.996.996 0 0 1-.469.14c-.11 0-.219 0-.312-.015a.356.356 0 0 1-.094-.188v-.062c0-.188.094-.422.266-.672l.75-1.047c.218-.312.328-.64.328-.906 0-.063 0-.125-.016-.188a.548.548 0 0 0-.094-.218c.14-.047.282-.094.438-.172.468-.235.953-.563 1.218-.953.282-.391.407-.75.407-1.063 0-.328-.125-.61-.328-.828-.047-.063-.094-.094-.141-.14l.36-.235c.03-.016.03-.031.03-.063l-.015-.109c0-.031-.063-.062-.094-.062 0 0-.015 0-.015.015a3.433 3.433 0 0 0-.47.297c-.53-.344-1.265-.469-2.077-.469-.688 0-1.532.204-2.375.641-.75.39-1.469.953-1.906 1.563-.344.484-.563.984-.563 1.406 0 .062 0 .11.016.172.062.421.406.703.953.703.297 0 .656-.125.984-.328.36-.22.672-.5.89-.797.391-.578.845-1.219.845-1.735v-.109a.106.106 0 0 0-.094-.063l-.157.063c-.03 0-.046.031-.046.063v.062c0 .422-.797 1.203-1.079 1.61-.187.265-.374.515-.656.734-.219.172-.469.281-.656.281-.453 0-.688-.203-.719-.531l-.015-.125c0-.36.203-.813.546-1.297.407-.578 1.063-1.125 1.782-1.484.797-.422 1.562-.61 2.219-.61.75 0 1.406.14 1.828.438-1.157.828-2.047 1.859-2.844 2.921-.031 0-.047 0-.078.032-.032.047-.047.078-.047.11zm1.14.016h.032c-.14.031-.266.031-.39.047.015-.016.015-.047.03-.047zm0 0"/></svg></svg>