<svg xmlns="http://www.w3.org/2000/svg" xmlns:xlink="http://www.w3.org/1999/xlink" width="64" height="64" viewBox="0 0 5.141 7.359"><svg overflow="visible" x="-.406" y="7.297"><path style="stroke:none" d="M1.313-3.234c.015-.688.546-1.297 1.218-1.297h.203c1.25.547 1.86 1.515 1.86 2.922-.016.671-.735 1.296-1.25 1.296-.594 0-2.031-1.125-2.031-2.921zM.53-7.297c0 1.25.453 2.047 1.422 2.484-.187 0-.547.282-1.062.86-.329.5-.485 1-.485 1.484 0 .172.016.344.047.5C.922-.609 1.781.063 3.031.063c1.39 0 2.516-1.157 2.516-2.563 0-1.047-.547-1.813-1.672-2.313.656-.28 1.125-.734 1.344-1.343l.156-1.14C4.985-5.938 4.281-5.25 3.297-5.25c-.469 0-.969-.14-1.547-.406C1.078-6.141.672-6.688.531-7.296zm0 0"/></svg></svg>