<svg xmlns="http://www.w3.org/2000/svg" xmlns:xlink="http://www.w3.org/1999/xlink" width="64" height="64" viewBox="0 0 3.625 7.328"><svg overflow="visible" x="-.375" y="7.281"><path style="stroke:none" d="m.375-7.281.281.984c.203.39.485.64.86.781-.625.375-.922.907-.922 1.563v.297l.281.703c.234.344.578.547 1 .656v1.203h-.86v.282h.86v.859h.86v-.86h.843v-.28h-.844V-2.25c.782-.406 1.235-1.047 1.235-1.703 0-.625-.344-1.156-1.031-1.563.578-.328.937-.875 1.062-1.625l-.344.704a2.11 2.11 0 0 1-1.078.562c-1 0-1.719-.469-2.203-1.406zm2 4.765c-.766-.53-1.156-1.156-1.156-1.89 0-.485.36-1 .734-1 .453 0 1.125.734 1.344 1.531v.64c-.14.547-.39.72-.922.72zm0 0"/></svg></svg>