<svg xmlns="http://www.w3.org/2000/svg" xmlns:xlink="http://www.w3.org/1999/xlink" width="64" height="64" viewBox="0 0 7.344 7.359"><svg overflow="visible" x="-.375" y="7.235"><path style="stroke:none" d="M4.531-1.875c0 .266-.234.453-.484.453-.266 0-.484-.187-.484-.453s.218-.469.484-.469c.25 0 .484.219.484.469zm0-3.344c0-.25-.234-.468-.484-.468a.484.484 0 0 0-.484.468c0 .25.218.469.484.469.25 0 .484-.219.484-.469zm1.235-.062c0 1-.72 1.75-1.72 1.75-1.046.047-1.734.687-1.734 1.594C2.329-1.11 2.5-.782 3-.516c.484.266.828.391 1.047.391-1.86 0-3.422-1.594-3.422-3.438 0-1.906 1.516-3.453 3.422-3.453.922 0 1.719.829 1.719 1.735zm1.953 1.75c0-2.063-1.625-3.703-3.672-3.703A3.658 3.658 0 0 0 .375-3.563 3.681 3.681 0 0 0 4.047.126 3.664 3.664 0 0 0 7.719-3.53zm0 0"/></svg></svg>