<svg xmlns="http://www.w3.org/2000/svg" xmlns:xlink="http://www.w3.org/1999/xlink" width="64" height="64" viewBox="0 0 7.953 8.828"><svg overflow="visible" x="-.188" y="7.25"><path style="stroke:none" d="M4.719-7.25c-.844.125-1.344.688-1.344 1.484 0 1.016.75 1.735 2.469 2.375C5.359-1.625 5-1 4.454-1c-.235-.031-.391-.094-.563-.344-.579-.922-.72-1.093-1.204-1.093-.5 0-1.156.25-1.562.75C.5-.891.187-.391.187-.157c0 .11.11.22.22.22C.53.063.64-.032.75-.204c.453-.969.766-1.36 1.14-1.36.344.032.47.157.923.938.28.484.796.797 1.296.797C5.188.094 5.906-.906 6.406-3.156c.672.328.844.531.844.969-.016.359-.063.609-.297 1.156-.281.734-.39 1.203-.39 1.75 0 .578.171.86.562.86.188 0 .344-.188.344-.423-.047-.281-.047-.312-.047-.312 0-.156.047-.328.14-.547.36-.828.579-1.578.579-2.078-.032-.875-.532-1.469-1.641-2.016.063-.281.094-.578.094-.906-.063-1.75-.61-2.469-1.875-2.547zm.14.61c.766.062 1.25.671 1.25 1.593-.015.328-.046.61-.14 1.094C4.78-4.484 4.203-5.156 4.203-5.86c0-.516.219-.735.656-.782zm0 0"/></svg></svg>