<svg xmlns="http://www.w3.org/2000/svg" xmlns:xlink="http://www.w3.org/1999/xlink" width="64" height="64" viewBox="0 0 11.688 7.391"><svg overflow="visible" x="-.328" y="7.172"><path style="stroke:none" d="M7.86-6.984c-.032 0-.048.015-.063.03-1.14 1.61-2.281 3.22-3.39 4.813C3.656-1.062 2.561 0 1.686 0 1.016 0 .532-.203.532-.61c0-.093.031-.203.094-.343.063.11.172.156.297.156.25 0 .562-.203.562-.39 0-.25-.156-.344-.328-.344a.726.726 0 0 0-.562.297c-.188.25-.266.484-.266.671 0 .516.594.782 1.313.782 1.015 0 2.203-1.172 3-2.266C5.359-3 6.047-3.984 7-5.328c-.125.5-.14.734-.156.734l-.032 1.11c.016.453.063.89.063 1.343 0 .657-.094 1.329-.5 2.094-.016.016-.016.031-.016.047 0 .031.016.063.047.063a.048.048 0 0 0 .032.015h.109c.047 0 .062-.015.078-.031.734-1.5 1.656-3.016 2.719-4.531.656-.922 1.531-1.86 2.594-2.297.03-.032.062-.047.062-.078l.016-.235c0-.047-.016-.078-.063-.078h-.047c-1.203.5-2.093 1.594-2.797 2.594a48.93 48.93 0 0 0-1.578 2.422c.11-.422.172-.797.172-1.172v-.156c0-.22-.094-.797-.094-1.454 0-.656.094-1.406.438-1.921.015-.016.015-.016.015-.032 0-.046-.03-.093-.093-.093zm0 0"/></svg></svg>