<svg xmlns="http://www.w3.org/2000/svg" xmlns:xlink="http://www.w3.org/1999/xlink" width="64" height="64" viewBox="0 0 4.656 7.172"><svg overflow="visible" x="-.297" y="7.187"><path style="stroke:none" d="M.297-5.125c.219 1.203.875 1.89 1.984 2.094v1.781h-.969v.266h.97v.968h.75v-.968h.952v-.266h-.953v-1.719c1.11-.234 1.75-.922 1.922-2.062l-.266-.063c-.406 1.11-1.062 1.688-1.968 1.688C1.547-3.453.875-4.016.563-5.172zm2.328-2.063c-1.078.094-1.61.625-1.61 1.641 0 1.078.72 1.688 1.923 1.688.765-.016 1.421-.766 1.421-1.688 0-.125 0-.25-.015-.375-.39-.844-.969-1.266-1.719-1.266zm.328 2.891C2.25-4.39 1.797-5 1.797-5.813c0-.625.156-.906.484-.906.594 0 1.266.64 1.266 1.469-.016.531-.125.953-.594.953zm0 0"/></svg></svg>