<svg xmlns="http://www.w3.org/2000/svg" xmlns:xlink="http://www.w3.org/1999/xlink" width="64" height="64" viewBox="0 0 4.25 7.172"><svg overflow="visible" x="-.5" y="7.172"><path style="stroke:none" d="M3.922-1.547C3.906-.89 3.484-.39 2.984-.39 2.141-.469 1.36-1.578 1.36-2.828c.11-.656.422-.985.938-.985a.73.73 0 0 1 .25.032c.906.406 1.375 1.172 1.375 2.234zM3.094 0C4.03-.266 4.75-1.188 4.75-2.031c0-1.016-.516-1.719-1.594-2.11v-1.578h.969V-6h-.969v-1.172h-.89V-6H1.219v.281h1.047v1.438C1.094-4.203.5-3.516.5-2.25.5-.75 1.344 0 3.094 0zm0 0"/></svg></svg>