<svg xmlns="http://www.w3.org/2000/svg" xmlns:xlink="http://www.w3.org/1999/xlink" width="64" height="64" viewBox="0 0 7.844 7.375"><svg overflow="visible" x="-.625" y="7.062"><path style="stroke:none" d="M8.469-5.61c0-.046-.031-.077-.078-.077-.172 0-.329.03-.5.078-.282-.891-1.079-1.454-2.407-1.454-1.171 0-2.75.688-3.515 1.782-.407.562-.61 1.125-.61 1.578 0 .594.375.984 1.157.984.718 0 1.656-.687 2.156-1.422.328-.468.516-.921.516-1.312v-.14c-.016-.032-.047-.063-.079-.063h-.03c-.016 0-.048 0-.063.015-.047.016-.063.032-.063.079 0 .375-.172.843-.516 1.328-.484.671-1.296 1.296-1.875 1.296-.5 0-.734-.25-.734-.656s.234-.984.672-1.594c.656-.937 1.984-1.656 2.938-1.656 1.218 0 1.921.516 2.156 1.344-1 .453-2 1.625-2.766 2.688-.687.984-1.453 2.062-2.094 2.515C2.5-.39 2.25-.484 1.922-.484h-.078c-.39 0-.969.015-1.172.28-.031.048-.047.079-.047.11 0 .235.734.266 1.203.266h.313c.234 0 .484-.063.718-.156.329.14.625.296 1.047.296.219 0 .453-.046.75-.156C5.796-.25 6.703-1.312 7.22-2.266c.5-.937.781-1.812.781-2.562 0-.172-.031-.36-.063-.516a.869.869 0 0 1 .407-.125c.031 0 .047-.015.062-.031.031-.047.063-.078.063-.11zM6.953-2.343c-.469.906-1.266 1.89-2.312 2.297-.266.094-.5.14-.704.14-.312 0-.562-.093-.812-.202.938-.516 1.86-1.61 2.563-2.61.656-.937 1.375-1.922 1.984-2.422 0 .11.016.22.016.329 0 .703-.25 1.546-.735 2.468zM2.187-.063c-.906 0-.984-.062-.984-.046.078-.125.36-.141.688-.141.234 0 .437.047.609.11a.834.834 0 0 1-.313.078zm0 0"/></svg></svg>