<svg xmlns="http://www.w3.org/2000/svg" xmlns:xlink="http://www.w3.org/1999/xlink" width="64" height="64" viewBox="0 0 7.219 7.344"><svg overflow="visible" x="-.375" y="7.25"><path style="stroke:none" d="M4.938-7.25C3.202-7.156 1.89-6.11 1.5-4.516H.625l-.25.625h1v.594h-.75l-.25.64H1.5c.39 1.61 1.797 2.75 3.438 2.75 1-.03 1.734-.28 2.406-.843v-.875c-.64.703-1.485 1.11-2.36 1.11-1.28 0-2.421-.844-2.859-2.141h4.031l.25-.64H2c0-.095-.016-.188-.016-.298 0-.094.016-.187.016-.297h4.656l.235-.625H2.125c.422-1.28 1.5-2.078 2.953-2.109.797 0 1.563.36 2.266 1.094l.25-.625c-.766-.75-1.61-1.094-2.657-1.094zm0 0"/></svg></svg>