<svg xmlns="http://www.w3.org/2000/svg" xmlns:xlink="http://www.w3.org/1999/xlink" width="64" height="64" viewBox="0 0 3.313 9.984"><svg overflow="visible" x="-.547" y="7.485"><path style="stroke:none" d="M3.86-6.39a1.177 1.177 0 0 0-1.172-1.094c-.61 0-1.157.468-1.157 1.109 0 2.063 1.047 4.953 1.078 6.89C2.58 1.657 1.97 2.095.75 2.095a.207.207 0 0 0-.203.203c0 .11.094.203.203.203 1.75 0 2.266-.797 2.266-2.016 0-1.984-1.094-4.406-1.094-6.859 0-.39.344-.703.766-.703.406 0 .734.312.765.719a.22.22 0 0 0 .219.187c.11-.016.187-.094.187-.203zm0 0"/></svg></svg>