<svg xmlns="http://www.w3.org/2000/svg" xmlns:xlink="http://www.w3.org/1999/xlink" width="64" height="64" viewBox="0 0 8.859 3.328"><svg overflow="visible" x="-.547" y="4.156"><path style="stroke:none" d="M9.188-2.688H3.484v-1.265c0-.031 0-.078-.03-.11-.032-.046-.095-.093-.157-.093a.226.226 0 0 0-.11.031L.642-2.656c-.016 0-.047.031-.063.062-.015.031-.031.063-.031.094a.29.29 0 0 0 .031.11c.016.03.047.062.063.062L3.187-.86a.226.226 0 0 0 .11.03c.062 0 .125-.046.156-.093.031-.031.031-.078.031-.11v-1.265h5.704c.124 0 .218-.078.218-.203 0-.11-.094-.188-.219-.188zM3.093-1.375 1.156-2.5l1.938-1.11zm0 0"/></svg></svg>