<svg xmlns="http://www.w3.org/2000/svg" xmlns:xlink="http://www.w3.org/1999/xlink" width="64" height="64" viewBox="0 0 14.933 5.672"><svg overflow="visible" x="-.563" y="5.328"><path style="stroke:none" d="M.953.156v-1.468h.078c.11 0 .188-.094.188-.204 0-.109-.078-.203-.188-.203H.953v-1.547h.078c.11 0 .188-.093.188-.203 0-.11-.078-.203-.188-.203H.953V-5.14c0-.109-.078-.187-.203-.187a.18.18 0 0 0-.188.187V.156c0 .11.079.188.188.188.125 0 .203-.078.203-.188zm0 0"/></svg><svg overflow="visible" x="-.563" y="5.328"><path style="stroke:none" d="M6.844-3.266c.156 0 .343 0 .343-.187 0-.203-.187-.203-.328-.203H.891c-.141 0-.329 0-.329.203 0 .187.188.187.329.187zm.015 1.938c.141 0 .329 0 .329-.203 0-.188-.188-.188-.344-.188H.89c-.141 0-.329 0-.329.188 0 .203.188.203.329.203zm0 0"/></svg><svg overflow="visible" x="5.526" y="5.328"><path style="stroke:none" d="M7.234-3.266c.422.36.938.625 1.266.766-.36.172-.86.422-1.266.781H.906c-.172 0-.36 0-.36.188 0 .203.188.203.345.203h5.89C6.313-.875 5.797.016 5.797.14c0 .109.125.109.187.109.079 0 .141 0 .188-.078.203-.375.484-.906 1.14-1.484a4.733 4.733 0 0 1 1.875-1.032c.157-.062.172-.062.188-.094.031 0 .031-.03.031-.062 0-.016 0-.031-.015-.047l-.032-.031c-.015 0-.03-.016-.218-.078a4.761 4.761 0 0 1-2.907-2.375c-.109-.188-.109-.203-.25-.203-.062 0-.187 0-.187.109 0 .125.5 1 .984 1.469H.891c-.157 0-.344 0-.344.203 0 .187.187.187.36.187zm0 0"/></svg></svg>