<svg xmlns="http://www.w3.org/2000/svg" xmlns:xlink="http://www.w3.org/1999/xlink" width="64" height="64" viewBox="0 0 4.781 8.859"><svg overflow="visible" x="-.547" y="6.922"><path style="stroke:none" d="M4.39 1.906a.12.12 0 0 0 .032-.078c0-.766.312-1.516.875-2.047a.214.214 0 0 0 .031-.093v-.032l-.047-.078c0-.016 0-.031-.015-.031-.016-.031-.047-.031-.079-.031-.03 0-.062 0-.078.03-.437.407-.75.954-.906 1.532L.937-6.797C.891-6.89.829-6.922.75-6.922c-.094 0-.203.078-.203.188 0 .03.015.062.015.078l3.282 7.89A3.26 3.26 0 0 0 2.219.781h-.11c-.046 0-.093.063-.093.11 0 .015 0 .03.015.046l.016.079c.031.03.062.062.094.062h.078c.75 0 1.484.297 2.015.828a.12.12 0 0 0 .079.032c.03 0 .046-.016.078-.032zm0 0"/></svg></svg>