<svg xmlns="http://www.w3.org/2000/svg" xmlns:xlink="http://www.w3.org/1999/xlink" width="11.792" height="4.438" viewBox="0 0 8.844 3.328"><svg overflow="visible" x="148.712" y="134.765" transform="translate(-149.259 -130.609)"><path style="stroke:none" d="M.75-2.297h5.703v1.266a.29.29 0 0 0 .031.11c.047.046.11.093.172.093.047 0 .078-.016.11-.031l2.53-1.47c.032 0 .048-.03.079-.062.016-.03.016-.078.016-.109a.172.172 0 0 0-.094-.156L6.766-4.125a.226.226 0 0 0-.11-.031.207.207 0 0 0-.203.203v1.265H.75c-.11 0-.203.079-.203.188 0 .125.094.203.203.203zm6.11.922v-2.234L8.796-2.5zm0 0"/></svg></svg>