<svg xmlns="http://www.w3.org/2000/svg" xmlns:xlink="http://www.w3.org/1999/xlink" width="64" height="64" viewBox="0 0 6.906 3.937"><svg overflow="visible" x="-.406" y="5.25"><path style="stroke:none" d="M5.688-5.172c0-.047-.047-.078-.094-.078h-.078c-.063 0-.11.063-.11.11v.046a3.237 3.237 0 0 0 1.078 1.422H1.25c.484-.36.86-.86 1.078-1.422v-.047c0-.046-.047-.109-.11-.109h-.077a.117.117 0 0 0-.11.078A2.772 2.772 0 0 1 .484-3.578a.117.117 0 0 0-.078.11l.016.046c.016.016.031.047.062.047a2.772 2.772 0 0 1 1.547 1.594c.016.031.031.062.063.062H.75a.207.207 0 0 0-.203.203c0 .11.094.204.203.204h6.234c.11 0 .188-.094.188-.204 0-.109-.078-.203-.188-.203H5.641c.015 0 .046-.031.046-.062A2.895 2.895 0 0 1 7.25-3.375c.031 0 .047-.031.063-.047v-.094c-.016-.015-.032-.046-.063-.062a2.895 2.895 0 0 1-1.563-1.594zm-.22 3.453H2.267c.046-.015.062-.062.062-.093v-.047A3.193 3.193 0 0 0 1.25-3.266h5.234a3.2 3.2 0 0 0-1.078 1.407v.046c0 .047.016.094.063.094zm0 0"/></svg></svg>