<svg xmlns="http://www.w3.org/2000/svg" xmlns:xlink="http://www.w3.org/1999/xlink" width="64" height="64" viewBox="0 0 4.953 5.797"><svg overflow="visible" x="-.844" y="5.391"><path style="stroke:none" d="M5.594-5.39H3.875C2.219-5.39.844-4.126.844-2.5.844-.86 2.219.406 3.875.406h1.719a.197.197 0 0 0 .203-.203c0-.11-.078-.187-.203-.187H3.875c-1.375 0-2.531-1-2.64-2.313H3.25v1.313c0 .109.094.203.203.203.11 0 .203-.094.203-.203v-1.313h1.938c.125 0 .203-.078.203-.203 0-.11-.078-.188-.203-.188H3.656V-4a.207.207 0 0 0-.203-.203A.207.207 0 0 0 3.25-4v1.313H1.234C1.344-4 2.5-5 3.875-5h1.719c.125 0 .203-.078.203-.188a.197.197 0 0 0-.203-.203zm0 0"/></svg></svg>