<svg xmlns="http://www.w3.org/2000/svg" xmlns:xlink="http://www.w3.org/1999/xlink" width="64" height="64" viewBox="0 0 8.828 3.328"><svg overflow="visible" x="-.563" y="4.156"><path style="stroke:none" d="M3.094-1.375 1.156-2.5l1.938-1.11zM.64-2.656c-.016 0-.047.031-.063.062-.015.031-.015.078-.015.094 0 .078.03.14.078.172L3.187-.86a.226.226 0 0 0 .11.03c.11 0 .187-.093.187-.202v-1.266h2.97v1.266c0 .11.093.203.202.203.047 0 .078-.016.11-.031l2.53-1.47c.063-.03.095-.093.095-.171 0-.016 0-.063-.016-.094-.031-.031-.047-.062-.078-.062L6.766-4.125a.226.226 0 0 0-.11-.031.207.207 0 0 0-.203.203v1.265H3.484v-1.265c0-.11-.078-.203-.187-.203a.226.226 0 0 0-.11.031zm6.218 1.281v-2.234L8.797-2.5zm0 0"/></svg></svg>