<svg xmlns="http://www.w3.org/2000/svg" xmlns:xlink="http://www.w3.org/1999/xlink" width="4.063" height="5.646" viewBox="0 0 3.047 4.234"><svg overflow="visible" x="148.712" y="134.765" transform="translate(-149.4 -127.062)"><path style="stroke:none" d="M.688-6.953v.297c.421 0 .875-.078 1.218-.297v2.719c0 .421-.343.453-.734.453H.828v.312h2.906v-.312H3.36c-.453 0-.703-.031-.703-.453v-3.172c0-.047.016-.078.016-.125 0-.094-.047-.172-.156-.172-.141 0-.266.203-.375.297-.422.312-.938.453-1.454.453zm0 0"/></svg></svg>