<svg xmlns="http://www.w3.org/2000/svg" xmlns:xlink="http://www.w3.org/1999/xlink" width="64" height="64" viewBox="0 0 6.203 4.172"><svg overflow="visible" x="-.016" y="7.703"><path style="stroke:none" d="M4-6.938c.063.204.172.422.25.625.172.407.531 1.547.734 1.579.157 0 .22-.344.297-.516.157-.375.297-.734.453-1.125l.141-.36c.031-.077.063-.14.094-.218v3.297c0 .062.047.125.125.125h.031c.078-.031.094-.125.094-.203v-3.797c0-.078-.016-.157-.11-.172h-.03c-.157 0-.47.984-.673 1.437-.125.36-.281.72-.422 1.079C4.61-5.97 4.36-6.813 4-7.595c-.016-.047-.063-.11-.125-.11h-.031c-.078.016-.094.095-.094.173v3.828c0 .078.016.172.125.172.078 0 .125-.063.125-.156zm-2.469-.328v3.532c0 .093.016.203.14.203.11 0 .11-.125.11-.203v-3.532h1.407c.062-.015.124-.046.124-.109 0-.078-.093-.11-.156-.11H.172c-.078 0-.156.016-.156.126 0 .078.093.109.156.109.047 0 .094-.016.125-.016zm0 0"/></svg></svg>