<svg xmlns="http://www.w3.org/2000/svg" xmlns:xlink="http://www.w3.org/1999/xlink" width="64" height="64" viewBox="0 0 6.969 7.016"><svg overflow="visible" x="-.344" y="6.812"><path style="stroke:none" d="M.344-6.813v.297h.375c.36 0 .64.047.64.438V-.75c0 .375-.328.438-.656.438h-.36v.296h2.391v-.296h-.109c-.219 0-.406-.032-.406-.344v-2.656H3.28c.36 0 .672.03.985.312.25.203.39.5.421.828v.985c0 .171-.171.234-.265.343-.188.156-.39.313-.578.469l.187.25.735-.61c.187.672.968.938 1.578.938.593 0 .968-.547.968-1.094 0-.093-.062-.156-.14-.156-.156 0-.125.297-.156.422-.094.297-.282.61-.61.61h-.031c-.578 0-.64-1.016-.656-1.25a.555.555 0 0 1-.032-.157c0-.094.079-.125.141-.187l.313-.266c.39-.313.78-.625 1.156-.953l-.188-.25-1.5 1.234c-.046-.781-.562-1.312-1.265-1.562.187-.063.375-.11.578-.188.547-.25 1.094-.687 1.156-1.344v-.078c0-1.14-1.36-1.718-2.297-1.796h-.484zM2.219-3.53v-2.61c0-.265.11-.343.36-.375h.718c.812 0 1.75.22 1.75 1.485 0 1.39-1.094 1.5-1.969 1.5zm0 0"/></svg></svg>