<svg xmlns="http://www.w3.org/2000/svg" xmlns:xlink="http://www.w3.org/1999/xlink" width="64" height="64" viewBox="0 0 3.594 7.141"><svg overflow="visible" x="-.547" y="5"><path style="stroke:none" d="M1.844 1.328c0 .094-.016.203-.016.297 0 .313.234.516.531.516.297 0 .516-.204.516-.563 0-.11 0-.187-.031-.281.562-.11 1.297-.375 1.297-1.11 0-.265-.157-.484-.47-.484a.44.44 0 0 0-.437.453c0 .281.204.469.5.469-.218.266-.578.406-.906.438 0-.188-.031-.391-.047-.579-.094-1.046-.172-2.093-.265-3.156l-.032-.297c0-.078 0-.156-.156-.156h-.062c-.157 0-.172.047-.172.14v.297a2.377 2.377 0 0 1-.813 1.75C.891-.594.547-.405.547.157v.078c.047.672.672 1.079 1.297 1.094zm.031-.234c-.375-.11-.5-.375-.5-.907 0-.515.297-.718.594-1.25.031-.078.078-.14.093-.218L1.922.484zm.39-6.078a.523.523 0 0 0-.437.515c0 .297.25.532.531.532a.524.524 0 0 0 .516-.532c0-.281-.25-.531-.516-.531-.03 0-.062.016-.093.016zm0 0"/></svg></svg>