<svg xmlns="http://www.w3.org/2000/svg" xmlns:xlink="http://www.w3.org/1999/xlink" width="64" height="64" viewBox="0 0 5.25 8.844"><svg overflow="visible" x="-.547" y="6.922"><path style="stroke:none" d="M3.484 1.531h-.562c-.156 0-.266.063-.266.203 0 .141.14.188.25.188h2.64c.173 0 .25-.063.25-.203 0-.11-.077-.188-.25-.188H4.97V-6.53h.578c.172 0 .25-.078.25-.203 0-.094-.078-.188-.219-.188H2.906C1.672-6.875.546-5.906.546-4.609c0 1.484 1.5 2.14 2.673 2.28h.062c.11 0 .203.017.203.11zm.391 0V-6.53h.703v8.06zm0 0"/></svg></svg>