<svg xmlns="http://www.w3.org/2000/svg" xmlns:xlink="http://www.w3.org/1999/xlink" width="64" height="64" viewBox="0 0 9.969 10.422"><svg overflow="visible" x="-.547" y="7.703"><path style="stroke:none" d="M5.297-7.703c-.266.031-.547.047-.813.11C2.22-7.064.547-4.97.547-2.517c0 2.157 1.344 4.375 3.656 5.032.438.125.89.203 1.344.203 2.75 0 4.875-2.36 4.969-5.016V-2.5c0-2.672-2.016-5.203-5.079-5.203zM.953-2.297v-.14c0-2.485 1.781-4.876 4.578-4.876h.14c2.36.11 4.454 2.11 4.454 4.813 0 2.438-1.875 4.797-4.625 4.797-2.172 0-4.063-1.688-4.469-3.86-.047-.234-.047-.484-.078-.734zM2.406-4.78v.312h.406c.344 0 .626.047.626.469V-.78c0 .422-.344.469-.75.469h-.282v.296h2.922v-.296h-.406c-.344 0-.625-.063-.625-.438v-1.39h1.906c.828-.047 2.094-.407 2.094-1.282 0-.922-1.281-1.297-2.172-1.36zm1.89 2.39v-1.734c0-.313.173-.344.563-.344h.797c.719 0 1.625.094 1.625 1.047 0 .813-.765 1.031-1.406 1.031zm0 0"/></svg></svg>