<svg xmlns="http://www.w3.org/2000/svg" xmlns:xlink="http://www.w3.org/1999/xlink" width="64" height="64" viewBox="0 0 4.359 6.281"><svg overflow="visible" x="-.328" y="5.328"><path style="stroke:none" d="M2.61-5.328v.766c0 .14-.172.109-.297.14C1.218-4.234.327-3.312.327-2.109.328-.891 1.36-.094 2.516.094c.078 0 .093.031.093.11v.75h.313v-.75c0-.157.328-.141.515-.188C4-.125 4.423-.5 4.657-1.063a.312.312 0 0 0 .03-.14c0-.047-.03-.094-.109-.094-.125 0-.14.094-.172.188-.265.64-.86.953-1.484.953V-4.22c.422.063.75.078 1.203.344v.016c-.266.015-.453.187-.453.468 0 .282.203.454.469.454.28 0 .437-.22.437-.47 0-.827-.984-1.015-1.656-1.062v-.86zm0 1.125v4.031c-1.016-.14-1.438-1.14-1.438-1.984 0-.906.422-1.938 1.437-2.047zm0 0"/></svg></svg>