<svg xmlns="http://www.w3.org/2000/svg" xmlns:xlink="http://www.w3.org/1999/xlink" width="64" height="64" viewBox="0 0 5.547 7.156"><svg overflow="visible" x="-.547" y="7.047"><path style="stroke:none" d="M2.422-3.625h-.703c-.078 0-.157.031-.157.14 0 .157.094.172.22.172h.64v1.72l-.016.312a1.882 1.882 0 0 0-.656-.125c-.563 0-1.203.328-1.203.922 0 .343.375.593.828.593.484 0 .953-.234 1.25-.562.047-.047.094-.125.14-.14.063 0 .157.077.204.109.5.28 1.062.578 1.64.578.782 0 1.485-.61 1.485-1.422 0-.078-.016-.156-.125-.156-.172 0-.14.296-.188.453-.156.437-.593.703-1.047.703-.437 0-.875-.219-1.25-.422-.171-.094-.328-.203-.5-.266.125-.312.141-.625.141-.953v-1.343h.953c.11 0 .172-.047.172-.157 0-.156-.094-.156-.219-.156h-.906v-1.438c0-.578 0-1.421.75-1.718.11-.032.203-.047.297-.047.687 0 1.187.594 1.344 1.203a.555.555 0 0 0-.157-.031c-.265 0-.468.187-.468.437s.171.485.468.485c.266 0 .454-.22.454-.485 0-.906-.657-1.828-1.672-1.828-.907 0-1.625.734-1.72 1.734zM2.297-.828c-.14.375-.5.703-.906.703-.188 0-.485-.094-.485-.36 0-.343.422-.468.703-.468h.079c.218 0 .406.078.609.125zm0 0"/></svg></svg>