<svg xmlns="http://www.w3.org/2000/svg" xmlns:xlink="http://www.w3.org/1999/xlink" width="64" height="64" viewBox="0 0 4.344 6.328"><svg overflow="visible" x="-.344" y="5.328"><path style="stroke:none" d="M4.125-5.328c-.125.219-.25.453-.375.687l-.094.172c-.031.047-.062.078-.125.078a.462.462 0 0 1-.14-.03c-.157-.032-.313-.032-.454-.048h-.14c-1.281 0-2.453.938-2.453 2.313 0 .719.375 1.484.984 1.828L.641.906.844 1 1.53-.203c.407.156.766.312 1.235.312.765 0 1.546-.343 1.843-1.078a.456.456 0 0 0 .079-.219c0-.062-.047-.109-.125-.109-.079 0-.11.063-.125.125-.266.656-.875 1.016-1.563 1.016h-.11c-.296-.016-.859-.157-1-.453 0-.063.094-.188.141-.266.125-.234.25-.453.375-.688.406-.718.813-1.468 1.235-2.203.046-.109.14-.218.171-.328l.25.11.188.125c-.25.046-.453.171-.453.468 0 .266.203.454.453.454.297 0 .453-.22.453-.485 0-.453-.36-.781-.766-.89l.516-.907zM1.594-.781c-.344-.375-.422-.938-.422-1.422 0-.938.469-2.016 1.672-2.016.219 0 .422.047.625.063L1.78-1.125zm0 0"/></svg></svg>