<svg xmlns="http://www.w3.org/2000/svg" xmlns:xlink="http://www.w3.org/1999/xlink" width="64" height="64" viewBox="0 0 3.063 9.062"><svg overflow="visible" x="-.672" y="7.031"><path style="stroke:none" d="M1.484-3.906c-.5.297-.812.781-.812 1.36 0 .718.484 1.437 1.094 1.796.53.328 1.406.469 1.515 1.188v.078c0 .593-.406 1.296-1.094 1.296a1.17 1.17 0 0 1-1.046-.64c.218 0 .39-.14.39-.36a.35.35 0 0 0-.36-.343.347.347 0 0 0-.343.344v.03c0 .72.735 1.188 1.39 1.188.86 0 1.516-.719 1.516-1.547 0-.578-.328-1.265-.796-1.578.484-.297.796-.797.796-1.375 0-.703-.468-1.422-1.078-1.781-.547-.328-1.406-.469-1.515-1.188v-.078c0-.609.39-1.296 1.093-1.296.422 0 .844.25 1.032.64-.204 0-.375.125-.375.344 0 .219.156.36.359.36a.347.347 0 0 0 .344-.345v-.03c0-.72-.735-1.188-1.406-1.188-.86 0-1.5.718-1.5 1.531 0 .594.328 1.281.796 1.594zM1.141-2.5v-.078c0-.375.156-.844.468-1.078.032-.016.063-.047.094-.047h.016c.078 0 .281.125.422.187.453.188 1.062.438 1.14 1v.079c0 .39-.156.859-.484 1.078-.031.03-.063.046-.078.062h-.031c-.063 0-.282-.125-.407-.203-.453-.172-1.062-.438-1.14-1zm0 0"/></svg></svg>