<svg xmlns="http://www.w3.org/2000/svg" xmlns:xlink="http://www.w3.org/1999/xlink" width="64" height="64" viewBox="0 0 3.234 7.016"><svg overflow="visible" x="-.328" y="7.031"><path style="stroke:none" d="M1.11-4.297H.327v.313h.781v3.296c0 .344-.296.375-.593.375H.344v.297h2.39v-.296h-.312c-.219 0-.453-.016-.563-.126-.078-.093-.078-.218-.078-.343v-3.203h1.125v-.313H1.75v-1.312c0-.547.375-1.204.906-1.204.11 0 .25.016.328.079-.187.046-.296.218-.296.421 0 .25.187.422.437.422s.438-.203.438-.421c0-.47-.485-.72-.907-.72-.906 0-1.547.704-1.547 1.673zm0 0"/></svg></svg>