<svg xmlns="http://www.w3.org/2000/svg" xmlns:xlink="http://www.w3.org/1999/xlink" width="64" height="64" viewBox="0 0 5.797 4.172"><svg overflow="visible" x="-.422" y="7.703"><path style="stroke:none" d="M4-6.938c.063.204.172.422.25.625.172.407.531 1.547.734 1.579.157 0 .22-.344.297-.516.157-.375.297-.734.453-1.125l.141-.36c.031-.077.063-.14.094-.218v3.297c0 .062.047.125.125.125h.031c.078-.031.094-.125.094-.203v-3.797c0-.078-.016-.157-.11-.172h-.03c-.157 0-.47.984-.673 1.437-.125.36-.281.72-.422 1.079C4.61-5.97 4.36-6.813 4-7.595c-.016-.047-.063-.11-.125-.11h-.031c-.078.016-.094.095-.094.173v3.828c0 .078.016.172.125.172.078 0 .125-.063.125-.156zm-2.86-.546c-.53.046-.718.359-.718.875 0 .609.187.921.984.921h.61c.234 0 .515 0 .687.188.14.156.14.39.14.61v.171c0 .625-.343.75-.765.75H.625c-.094 0-.188.016-.188.11 0 .078.063.109.188.109h1.344c.312 0 .672-.016.906-.234.203-.204.219-.485.219-.766v-.188c0-.234-.016-.484-.172-.671-.235-.282-.594-.297-.938-.297H1.36c-.39 0-.687-.032-.687-.703 0-.344.062-.657.625-.657h1.437c.079 0 .141-.015.141-.109 0-.11-.14-.125-.266-.125h-.156c-.203 0-.406.016-.61.016-.155 0-.312-.016-.468-.016-.078 0-.156 0-.234.016zm0 0"/></svg></svg>