<svg xmlns="http://www.w3.org/2000/svg" xmlns:xlink="http://www.w3.org/1999/xlink" width="64" height="10pt" viewBox="0 0 2.125 10"><svg overflow="visible" x="-.75" y="7.485"><path style="stroke:none" d="M1.938-2.516v.016C1.375-2.406.843-1.969.75-1.39v2.452c0 1.016.953 1.454 1.953 1.454.078 0 .172-.016.172-.11 0-.14-.297-.125-.422-.14-.562-.141-1-.547-1-1.204v-2.156c0-.922.594-1.203 1.234-1.297.094 0 .188-.015.188-.125-.016-.125-.219-.093-.313-.109-.624-.094-1.109-.531-1.109-1.234v-2.204c0-.765.578-1.171 1.297-1.203.063 0 .125-.046.125-.109 0-.078-.063-.11-.14-.11h-.047C2-7.484.875-7.202.75-6.28v2.468c0 .72.563 1.204 1.188 1.297zm0 0"/></svg></svg>