<svg xmlns="http://www.w3.org/2000/svg" xmlns:xlink="http://www.w3.org/1999/xlink" width="64" height="64" viewBox="0 0 8.859 4.984"><svg overflow="visible" x="-.547" y="5"><path style="stroke:none" d="M7-5c.125.797.578 1.656 1.172 2.14.047.063.11.11.172.141l-7.531.016c-.11 0-.266.015-.266.203 0 .172.156.203.265.203h7.532c-.172.11-.36.313-.516.5-.422.5-.734 1.14-.828 1.781h.39c.204-1 .782-1.796 1.704-2.343.094-.047.203-.079.312-.141-.11-.063-.219-.11-.312-.156C8.172-3.187 7.594-3.984 7.39-5zm0 0"/></svg></svg>