<svg xmlns="http://www.w3.org/2000/svg" xmlns:xlink="http://www.w3.org/1999/xlink" width="64" height="64" viewBox="0 0 9.891 7.016"><svg overflow="visible" x="-.172" y="6.812"><path style="stroke:none" d="M.172-6.813v.297h.266c.28 0 .515.047.656.407.172.593.375 1.171.562 1.75H.875c-.063.015-.125.062-.125.125 0 .062.063.093.156.093h.703c.188 0 .235.375.297.547.125.39.266.781.375 1.172H1.11c-.046 0-.109-.015-.156-.015-.078 0-.203.03-.203.109v.031c0 .047.031.078.094.094H2.36c.047.187.125.375.188.562.172.547.36 1.11.531 1.657.031.109.078.187.188.187.156 0 .187-.156.234-.266l.094-.28c.156-.516.328-1.048.5-1.563.031-.094.078-.203.093-.297h1.86c.047.234.156.484.234.719.125.375.25.765.375 1.14l.078.281c.047.11.079.266.235.266.203 0 .25-.36.312-.547.14-.437.282-.875.422-1.297.047-.187.125-.375.172-.562h1.531c.047-.016.078-.047.078-.094v-.031c0-.078-.125-.11-.187-.11-.063 0-.11.016-.172.016H7.953c.14-.5.328-1.015.484-1.515.032-.079.032-.204.188-.204h.703c.094 0 .156-.015.156-.093 0-.063-.046-.11-.109-.125h-.797c.14-.407.266-.797.406-1.22.079-.234.141-.484.313-.671.203-.203.5-.266.765-.266v-.296H7.97v.296c.281 0 .828.11.86.532 0 .14-.079.312-.142.468-.109.375-.28.766-.359 1.157H6.344c-.157 0-.188-.282-.235-.438-.125-.422-.28-.828-.406-1.25-.016-.062-.047-.11-.047-.156 0-.297.485-.313.782-.313H6.5v-.296H3.875v.296h.266c.437 0 .53.11.765.797.016.063.063.172.063.25v.032c-.047.359-.282.718-.328 1.078H2.656c-.156 0-.187-.266-.234-.422-.14-.422-.297-.844-.422-1.297a.294.294 0 0 1-.031-.125c0-.297.547-.313.843-.313v-.296zm6.14 2.672H8.25l-.547 1.72h-.812l-.063-.157-.39-1.188zm-3.687 0h1.938l-.579 1.704-.125.015h-.546l-.11-.015-.062-.141-.094-.328zm1.64 1.72.548-1.72h.609l.547 1.72zm-1 .218h.657l-.328 1.015zm4.016 1.015-.328-1.015h.656zm-2.39-3.171.234-.688.219.688zm0 0"/></svg></svg>