<svg xmlns="http://www.w3.org/2000/svg" xmlns:xlink="http://www.w3.org/1999/xlink" width="64" height="64" viewBox="0 0 7.25 6.797"><svg overflow="visible" x="-.109" y="6.812"><path style="stroke:none" d="M.11-6.813v.297h.218c.234 0 .453.016.625.11.219.125.36.422.485.64.28.47.562.954.859 1.407H.875c-.094 0-.172.015-.172.109 0 .11.078.11.14.11h1.532c.11.03.234.265.313.406.218.343.624.875.624 1.14 0 .063-.015.125-.015.172H.812c-.062.016-.109.047-.125.11 0 .078.063.109.125.109h2.485v1.281c0 .047.015.11.015.188 0 .375-.359.421-.75.421h-.296v.297h2.921v-.296h-.39c-.344 0-.64-.063-.64-.454v-1.437h2.5c.062 0 .124-.031.124-.11-.015-.062-.078-.093-.125-.109h-2.5c0-.047-.015-.11-.015-.172 0-.172.14-.328.218-.484l.422-.656.172-.282c.031-.046.063-.109.125-.125h1.547c.063 0 .14 0 .14-.109 0-.094-.077-.11-.171-.11H5.157c.28-.468.577-.921.859-1.374.343-.579.765-.766 1.343-.782v-.296H5.234v.296c.235 0 .547.094.563.375 0 .204-.14.375-.234.532-.157.25-.297.5-.454.734l-.203.328c-.047.078-.078.188-.234.188h-1.25c-.188 0-.375-.438-.516-.672l-.578-.938c-.047-.078-.14-.187-.14-.297 0-.25.453-.25.687-.25v-.296zM3.452-4.14h1.203l-.593.985zm0 0"/></svg></svg>