<svg xmlns="http://www.w3.org/2000/svg" xmlns:xlink="http://www.w3.org/1999/xlink" width="64" height="64" viewBox="0 0 3.594 7.125"><svg overflow="visible" x="-.547" y="7.141"><path style="stroke:none" d="M1.844-6.313C1.28-6.266.547-5.89.547-5.188c0 .22.11.47.469.47a.44.44 0 0 0 .453-.438c0-.313-.235-.469-.516-.469.219-.25.516-.422.828-.469.125 0 .094.172.11.282.046.656.109 1.328.171 1.984l.047.594c.016.078.032.171.032.265v.094c-.047.172-.047.36-.047.531v.313c0 .14.062.156.172.156h.062c.188 0 .156-.188.172-.344.016-.265.047-.515.078-.781 0-.125 0-.266.078-.39.438-.72 1.485-.97 1.485-1.782 0-.656-.625-1.047-1.297-1.14.015-.063.031-.125.031-.188v-.11a.514.514 0 0 0-.516-.53c-.312 0-.53.218-.53.515 0 .094.015.188.015.313zm.422 5.25a.527.527 0 0 0-.438.532c0 .281.25.515.531.515a.52.52 0 0 0 .516-.515.534.534 0 0 0-.516-.531h-.093zm.406-3.015h-.016l.172-1.969c.375.125.485.438.485.828 0 .203-.032.407-.141.578-.125.22-.375.344-.5.563zm0 0"/></svg></svg>