<svg xmlns="http://www.w3.org/2000/svg" xmlns:xlink="http://www.w3.org/1999/xlink" width="64" height="64" viewBox="0 0 6.172 7.078"><svg overflow="visible" x="-.281" y="6.985"><path style="stroke:none" d="M1.313-3.438h4.984c.14 0 .156-.078.156-.187 0-.922-.25-1.984-.937-2.625-.516-.5-1.235-.734-1.954-.734-1.874 0-3.28 1.625-3.28 3.53C.281-1.75 1.452-.046 3.483.095h.141c.969 0 2.219-.157 2.75-1.125.031-.047.078-.11.078-.172 0-.063-.078-.11-.11-.11-.155 0-.296.36-.437.5-.578.547-1.468.657-2.203.657-.89 0-1.625-.578-2.015-1.344-.297-.594-.375-1.281-.375-1.938zm0-.218c.015-1.313.593-3.11 2.203-3.11.718 0 1.296.438 1.625 1.125.28.61.359 1.313.359 1.985zm0 0"/></svg></svg>