<svg xmlns="http://www.w3.org/2000/svg" xmlns:xlink="http://www.w3.org/1999/xlink" width="64" height="64" viewBox="0 0 4.25 9.641"><svg overflow="visible" x="-.094" y="7.719"><path style="stroke:none" d="M.281.922h2.094v.265c0 .375-.313.438-.625.438-.125 0-.25-.016-.344-.016v.313H4.11v-.313c-.109 0-.234.016-.343.016-.329 0-.61-.047-.61-.438V.922h.985V.609h-.985v-2.953c0-.094-.047-.172-.172-.172-.187 0-.265.157-.359.266C1.922-1.36 1.172-.5.453.39.36.5.281.563.281.735zm.86-7.969c.234-.266.609-.406.968-.406.375 0 .688.203.688.687 0 .407-.11.954-.547 1.11-.156.031-.594-.016-.594.156v.031c.016.047.032.078.094.078H2c.547 0 .969.22.969 1.032 0 .453-.203.921-.86.921-.328 0-.671-.046-.984-.171v-.016c.266-.031.406-.266.406-.516a.525.525 0 0 0-.547-.546c-.312 0-.562.203-.562.562 0 .86 1.219.969 1.687.969.735 0 1.782-.297 1.891-1.188v-.062c0-.672-.844-1.094-1.313-1.11.516-.203 1.047-.562 1.047-1.187 0-.688-.859-1.016-1.53-1.016-.673 0-1.517.36-1.517 1.157 0 .328.22.515.516.515.266 0 .5-.187.5-.5 0-.266-.203-.516-.484-.516-.032 0-.063.016-.078.016zM.578.61l1.86-2.25V.61zM.234-2.969c-.093.016-.14.094-.14.188 0 .125.078.203.265.203h3.719c.14 0 .266-.063.266-.203 0-.125-.11-.203-.25-.203H.39c-.047 0-.094 0-.157.015zm0 0"/></svg></svg>