<svg xmlns="http://www.w3.org/2000/svg" xmlns:xlink="http://www.w3.org/1999/xlink" width="64" height="64" viewBox="0 0 6.981 7.127"><svg overflow="visible" x="-.55" y="7.141"><path style="stroke:none" d="M4.563-6.89v.015c.375.281.875.438 1.343.484.14.016.328.047.469.016-.156.203-.36.39-.547.578-.39.406-.781.828-1.187 1.234L2.734-2.577c-.28.312-.578.61-.875.906-.218.219-.437.453-.64.688l-.422.421c-.11.125-.344.297-.203.47.015.03.031.046.047.046.171.11.312-.078.421-.187.36-.36.72-.75 1.063-1.11.781-.843 1.578-1.64 2.375-2.468l1.422-1.485.75-.797c0 .469.11.938.312 1.36.079.156.172.28.266.437l.281-.281a2.632 2.632 0 0 1-.484-1.594c.016-.266.078-.5.156-.75-.469.156-.953.234-1.437.14a2.971 2.971 0 0 1-.657-.234 1.065 1.065 0 0 1-.187-.109c-.031 0-.063-.016-.094-.016s-.047.047-.078.063l-.188.187zm0 0"/></svg></svg>