<svg xmlns="http://www.w3.org/2000/svg" xmlns:xlink="http://www.w3.org/1999/xlink" width="64" height="64" viewBox="0 0 3.885 7.021"><svg overflow="visible" x="-.544" y="7.037"><path style="stroke:none" d="M.922-6.172c.11-.203.297-.344.5-.437a2.02 2.02 0 0 1 1.094-.204c.218.032.468.11.656.25.281.235.375.563.406.907.016.265.031.547-.031.812-.094.422-.36.782-.735 1.016a2.002 2.002 0 0 1-.53.219c-.079.015-.22.015-.266.078C2-3.484 2-3.453 2-3.406v1.031H.703c-.094.016-.11.156-.078.234.031.11.234.079.328.079H2v1.171c0 .157.031.36-.094.47a.292.292 0 0 1-.218.077c-.157.031-.313.031-.47.031v.297l.891-.03.922.015.422.015v-.296c-.156 0-.312 0-.469-.032a.292.292 0 0 1-.218-.078c-.11-.11-.079-.312-.079-.453v-1.188h1.094c.11 0 .281.032.297-.14 0-.016 0-.047-.016-.063-.03-.14-.218-.109-.328-.109H2.688v-.969c0-.031 0-.078.03-.094.016-.046.126-.078.188-.078.172-.046.328-.125.469-.187.547-.281.984-.735 1.047-1.344.047-.531-.125-1.14-.531-1.5-.36-.312-.829-.453-1.297-.484a2.87 2.87 0 0 0-.89.078 1.632 1.632 0 0 0-.813.422c-.22.234-.407.593-.329.922.063.328.5.453.75.234.204-.172.204-.5.016-.688a.54.54 0 0 0-.406-.109zm0 0"/></svg></svg>