<svg xmlns="http://www.w3.org/2000/svg" xmlns:xlink="http://www.w3.org/1999/xlink" width="64" height="64" viewBox="0 0 6.465 7.672"><svg overflow="visible" x=".117" y="6.141"><path style="stroke:none" d="M1.484-6.14c0 .124-.015.234-.015.343-.078.61-.36 1.36-1.016 1.547a1.548 1.548 0 0 1-.281.031V-4h.86v2.906c.015.032.03.078 0 .11 0 .062-.063.109-.11.156-.063.078-.14.172-.188.265-.203.266-.359.579-.5.875-.125.313-.218.61-.312.922-.016.094-.094.266.031.297h.063c.093 0 .109-.078.14-.156.016-.14.078-.281.11-.422C.453.375.719-.219 1.14-.672c.062.235.25.438.437.563.203.125.453.171.672.203.125 0 .234.015.36 0a.968.968 0 0 0 .578-.375c.296-.406.234-1.016-.204-1.297a.858.858 0 0 0-.578-.156c-.25.015-.469.156-.672.234V-4h1.422v-.313H1.734V-6.14zm.25 5.077c0-.046-.015-.093.016-.125.031-.03.078-.062.11-.093.109-.047.218-.11.327-.14a.664.664 0 0 1 .391-.048c.297.032.516.282.547.578a.705.705 0 0 1-.406.704.777.777 0 0 1-.563-.047c-.297-.172-.375-.516-.422-.829zm0 0"/></svg><svg overflow="visible" x="2.397" y="6.141"><path style="stroke:none" d="M1.578-.11c.36.204.781.22 1.188.204.25-.016.5-.047.75-.157a.97.97 0 0 0 .359-.218.799.799 0 0 0 .172-.703c-.094-.344-.516-.547-.86-.547a1.86 1.86 0 0 0-.515.062c-.281.078-.516.25-.703.453a1.884 1.884 0 0 0-.313.407c-.5-.532-.547-1.375-.453-2.063.016-.297.11-.61.25-.875.156-.25.375-.484.64-.594.188-.093.376-.093.579-.078.328.032.656.125.906.36-.14.015-.265.046-.375.156-.156.219-.11.578.14.719a.482.482 0 0 0 .688-.36c.032-.281-.11-.547-.328-.75-.219-.187-.531-.297-.828-.36a2.766 2.766 0 0 0-.719 0C1.11-4.265.36-3.312.328-2.265.312-1.719.453-1.187.781-.75c.125.14.25.281.406.406.032.031.094.047.125.078.016.032.047.032.047.063.016.047-.015.078-.03.11-.048.062-.095.14-.141.218C1 .406.828.703.64 1c-.063.094-.125.172-.172.281-.016.047-.031.094.015.14.047.032.11.016.157-.03a.252.252 0 0 0 .062-.11c.031-.062.063-.11.094-.172.156-.265.344-.546.515-.812.094-.125.188-.266.266-.406zm2.234-.624c-.062.421-.546.53-.906.562-.078.016-.14.016-.219.016-.109 0-.187 0-.296-.016a1.348 1.348 0 0 1-.438-.172c-.047-.031-.125-.062-.125-.125.016-.047.047-.078.063-.11l.187-.234c.297-.312.688-.546 1.14-.5.25.047.548.172.595.454v.125zm0 0"/></svg></svg>