<svg xmlns="http://www.w3.org/2000/svg" xmlns:xlink="http://www.w3.org/1999/xlink" width="64" height="64" viewBox="0 0 4.908 4.449"><svg overflow="visible" x="-.344" y="4.458"><path style="stroke:none" d="M1.703-2.266v-1.218c0-.141-.031-.36.078-.485a.46.46 0 0 1 .203-.078c.141-.016.266-.016.407-.016v-.25L2-4.28h-.828l-.828-.032v.25c.14 0 .281 0 .422.016.093.016.171.047.218.125a.659.659 0 0 1 .047.297v2.922c0 .11.016.219-.047.312-.046.079-.14.094-.218.125C.625-.25.484-.25.344-.25v.234h1.75c.203 0 .406.016.594 0a2.54 2.54 0 0 0 1.03-.25c.157-.078.298-.187.423-.296.078-.079.14-.188.187-.282.031-.062.047-.14.063-.203.015-.062.015-.125.015-.172-.031-.453-.453-.718-.812-.875a5.59 5.59 0 0 1-.297-.094c.078-.046.187-.078.265-.14.157-.11.282-.25.36-.406.078-.141.11-.282.14-.438.047-.172.079-.328.141-.5.031-.156.078-.328.188-.453l.078-.078c.203-.11.406.078.468.25A.88.88 0 0 1 5-3.766c0 .032 0 .079.016.11.03.078.125.094.187.062.063-.062.047-.14.047-.219A.857.857 0 0 0 5-4.296c-.172-.156-.39-.172-.625-.156-.14.016-.281.031-.422.094a.656.656 0 0 0-.297.14.539.539 0 0 0-.187.188c-.188.25-.156.562-.156.875 0 .187 0 .36-.11.531-.11.188-.312.297-.515.344-.141.015-.282.015-.422.015zm0 .22c.36 0 .734-.032 1.094.015.219.031.469.11.625.297.078.093.11.203.125.312.047.266.047.61-.14.828-.25.281-.688.281-1.032.281h-.453c-.047 0-.125 0-.172-.03-.031-.032-.031-.094-.031-.141-.032-.11-.016-.22-.016-.329zm0 0"/></svg></svg>