<svg xmlns="http://www.w3.org/2000/svg" xmlns:xlink="http://www.w3.org/1999/xlink" width="64" height="64" viewBox="0 0 4.328 4.297"><svg overflow="visible" x="-.344" y="4.313"><path style="stroke:none" d="M.344-4.313v.25c.14 0 .281 0 .406.016a.35.35 0 0 1 .234.125c.047.078.047.203.047.297v2.922c0 .11 0 .219-.047.297-.046.094-.125.11-.218.14C.625-.25.484-.25.344-.25v.234H4.28l.094-.015.047-.094.047-.25.203-.969H4.5c-.031 0-.047 0-.078.016s-.031.078-.031.11c-.032.077-.047.155-.079.234-.062.218-.187.437-.39.562-.219.125-.469.156-.719.156-.297.016-.594.016-.89.016-.126 0-.266.016-.376-.016-.078 0-.14-.03-.156-.078a.762.762 0 0 1-.062-.172v-1.578c.265 0 .531-.015.797.016.14 0 .28.031.39.125.11.125.125.312.125.469h.25v-1.5h-.25c0 .156-.015.343-.125.468-.11.094-.25.11-.39.125-.266.016-.532.016-.797.016v-1.172c0-.14-.032-.344.078-.453.062-.063.172-.063.25-.063h1.109c.203.016.438.032.625.141.11.063.203.156.25.266.11.172.14.36.188.562h.25L4.28-4.313zm0 0"/></svg></svg>