<svg xmlns="http://www.w3.org/2000/svg" xmlns:xlink="http://www.w3.org/1999/xlink" width="64" height="64" viewBox="0 0 1.953 2.26"><svg overflow="visible" x="-.95" y=".234"><path style="stroke:none" d="M2.344 1.719a.71.71 0 0 1-1.016-.375c-.062-.157-.062-.328-.062-.5V.016c0-.063.015-.125-.016-.172-.031-.078-.156-.094-.219-.063C.938-.187.953-.079.953 0v.672c0 .281-.031.562.11.828.28.547 1.046.688 1.546.328.204-.14.36-.437.266-.719-.11-.296-.531-.406-.766-.156-.234.235-.125.719.235.766zm0 0"/></svg></svg>