<svg xmlns="http://www.w3.org/2000/svg" xmlns:xlink="http://www.w3.org/1999/xlink" width="64" height="64" viewBox="0 0 3.848 4.742"><svg overflow="visible" x="-.422" y="4.535"><path style="stroke:none" d="M1.64-2.328a1.951 1.951 0 0 1-.28.078c-.454.188-.938.563-.938 1.11 0 .077 0 .156.031.234.031.11.063.203.125.312.078.125.188.235.313.328.265.22.609.36.937.422a2.61 2.61 0 0 0 1.844-.312c.187-.125.36-.266.5-.422.031-.047.078-.078.094-.125.015-.078-.016-.203-.11-.188-.093 0-.172.125-.234.188a1.99 1.99 0 0 1-.5.36l-.281.14c-.5.172-1.157.234-1.563-.172-.062-.063-.11-.14-.156-.203a1.037 1.037 0 0 1-.094-.313 1.372 1.372 0 0 1-.016-.437c.047-.438.36-.75.766-.86.172-.046.36-.03.531-.03.063 0 .125-.016.157-.095 0-.062-.032-.109-.079-.124-.109-.032-.203-.016-.312-.032-.094 0-.203 0-.297-.031a.838.838 0 0 1-.594-.547c-.171-.437.016-.984.485-1.156.218-.078.406-.078.64-.063.407.016.844.094 1.141.391a.509.509 0 0 0-.219.063.406.406 0 0 0-.078.578c.094.109.25.156.39.125.22-.047.329-.235.298-.454a.859.859 0 0 0-.375-.64 1.853 1.853 0 0 0-.688-.266c-.469-.093-1-.093-1.453.032-.375.109-.766.312-.969.656-.031.078-.078.172-.094.265-.015.063-.015.141-.015.22.031.437.39.718.781.874.094.047.203.078.313.094zm0 0"/></svg></svg>