<svg xmlns="http://www.w3.org/2000/svg" xmlns:xlink="http://www.w3.org/1999/xlink" width="64" height="64" viewBox="0 0 4.844 6.453"><svg overflow="visible" x="-.203" y="4.313"><path style="stroke:none" d="M.203-4.313V-4c.203 0 .453-.016.625.11a.776.776 0 0 1 .203.296c.063.14.125.297.188.438.25.578.5 1.172.765 1.765.094.235.204.47.313.72a.956.956 0 0 1 .078.187.29.29 0 0 1 .031.109c0 .078-.078.156-.11.219a2.19 2.19 0 0 0-.265.453.999.999 0 0 0-.125.297c-.156.515-.078 1.265.5 1.5a.885.885 0 0 0 .281.047c.141 0 .266-.016.407-.063.11-.047.203-.11.297-.187.078-.063.14-.141.203-.22.328-.5.234-1.077-.031-1.577-.11-.203-.25-.39-.376-.594-.046-.063-.078-.125-.109-.172-.031-.031-.062-.078-.062-.11a.23.23 0 0 1 .03-.093c.032-.047.048-.11.079-.156a5.92 5.92 0 0 1 .281-.657c.188-.453.375-.89.578-1.328.079-.187.141-.39.266-.562A.958.958 0 0 1 5.047-4v-.313l-.906.032-.688-.032V-4c.219.016.438.156.453.406a.47.47 0 0 1-.047.203c-.078.188-.156.375-.234.547-.156.375-.313.735-.469 1.094l-.203.438c-.015.078-.078.156-.094.25h-.015a.999.999 0 0 0-.094-.25 4.796 4.796 0 0 1-.172-.422c-.203-.422-.39-.875-.578-1.297-.063-.172-.14-.328-.219-.5-.031-.078-.078-.172-.062-.25.015-.094.078-.14.156-.172C2-4 2.141-4 2.265-4v-.313l-.89.032H.562zm2.39 4.141c.079.11.141.25.22.375.171.328.359.703.359 1.078 0 .25-.094.563-.375.625-.328.094-.61-.218-.688-.5-.109-.39.016-.797.204-1.14.093-.141.203-.282.28-.438zm0 0"/></svg></svg>