<svg xmlns="http://www.w3.org/2000/svg" xmlns:xlink="http://www.w3.org/1999/xlink" width="7pt" height="64" viewBox="0 0 7 7.022"><svg overflow="visible" x="-.313" y="6.922"><path style="stroke:none" d="M.313-6.813v.297c.171 0 .328 0 .468.032.125.03.235.078.281.203.047.156.032.328.032.484v4.844c0 .14.031.328-.032.469a.3.3 0 0 1-.25.14c-.171.031-.328.031-.5.031v.297L.75-.03l.922-.016.906.031v-.296c-.172 0-.328 0-.484-.032-.094 0-.188-.031-.235-.094-.078-.093-.062-.218-.062-.328v-1.5c0-.203-.016-.421.016-.609a1.611 1.611 0 0 1 .718-1.156c.328-.203.86-.282 1.125.078.078.078.11.187.14.297.095.36.048.75.063 1.11.016.53.094 1.046.313 1.546.14.344.375.656.703.844.172.11.375.187.594.218.125.032.265.047.406.032.094 0 .172-.032.266-.047.64-.234.921-.969 1.046-1.578.016-.11.047-.235.063-.344l.047-.484c.016-.204.016-.407.016-.61 0-.344 0-.734-.141-1.062a.555.555 0 0 0-.375-.39c-.281-.048-.578.25-.484.546.062.172.203.25.343.344.14.125.266.297.344.469.094.234.063.515.031.765-.015.516-.11 1.063-.36 1.516-.124.281-.359.547-.671.625-.063.031-.14.031-.234.031-.47.016-.797-.406-.938-.813-.203-.515-.266-1.093-.266-1.64 0-.485.047-1.031-.28-1.422-.204-.266-.548-.375-.86-.406a1.68 1.68 0 0 0-.485.015 1.489 1.489 0 0 0-1 .625 1.171 1.171 0 0 0-.156.313h-.015v-3.469zm0 0"/></svg></svg>