<svg xmlns="http://www.w3.org/2000/svg" xmlns:xlink="http://www.w3.org/1999/xlink" width="64" height="64" viewBox="0 0 5.512 4.609"><svg overflow="visible" x="-.285" y="4.507"><path style="stroke:none" d="M3-.688c.094.22.203.438.39.594.235.157.5.219.782.188a1.69 1.69 0 0 0 1.125-.61c.64-.75.64-1.875.14-2.703a2.064 2.064 0 0 0-.5-.594c-1.125-1-2.968-.906-3.984.188a2.36 2.36 0 0 0-.422.61c-.125.25-.219.53-.234.828-.031.296 0 .609.062.906.141.484.422.968.891 1.218.422.22.969.235 1.36-.062.093-.078.171-.172.234-.281A.995.995 0 0 0 3-.687zm-.016-2.171c-.093.015-.156.109-.187.203-.016.062 0 .14 0 .187v.438c0 .203.031.422.047.64.015.094.047.204.047.313a1.707 1.707 0 0 1-.079.266c-.109.28-.312.578-.64.656-.078.031-.172.031-.266.031-.047 0-.11 0-.156-.031-.422-.11-.531-.625-.578-.985a1.174 1.174 0 0 1-.031-.234 3.89 3.89 0 0 1 0-.953c.078-.578.343-1.172.812-1.563a1.55 1.55 0 0 1 .438-.265c.187-.078.375-.125.562-.125.203 0 .375 0 .563.062.156.047.328.125.468.219.829.563 1.063 1.625.954 2.578-.016.078-.016.156-.032.234-.078.422-.281.97-.765 1.063h-.204c-.078 0-.156-.031-.234-.047-.25-.125-.406-.36-.484-.61-.031-.093-.063-.187-.078-.28 0-.11.046-.235.062-.344a9.83 9.83 0 0 0 .078-.672c0-.14.016-.266.016-.39 0-.079 0-.141-.016-.22-.047-.109-.156-.203-.297-.171zm0 0"/></svg></svg>