<svg xmlns="http://www.w3.org/2000/svg" xmlns:xlink="http://www.w3.org/1999/xlink" width="64" height="64" viewBox="0 0 5.381 9.077"><svg overflow="visible" x="-.172" y="7.037"><path style="stroke:none" d="M3.313-4.313H1.734v-1.843h-.25c0 .125-.015.234-.015.36-.078.609-.36 1.359-1.016 1.546a1.548 1.548 0 0 1-.281.031V-4h.86v2.156c0 .39-.048.844.109 1.219.187.453.64.672 1.109.719.406.031.766-.047 1.063-.328 0 .5.046 1.015-.063 1.515-.047.219-.156.485-.406.516-.188.047-.375-.047-.547-.11A.46.46 0 0 0 2.5 1.61c.297-.187.234-.671-.094-.796C2.36.78 2.296.78 2.25.78c-.063 0-.125 0-.188.031-.265.094-.343.407-.25.657.188.5.875.687 1.344.5.25-.11.453-.297.594-.532.14-.234.219-.515.234-.796.016-.125 0-.266 0-.407v-5.156c0-.453-.03-.937.079-1.39.046-.204.156-.422.375-.485.187-.062.375.016.546.063-.109.046-.203.093-.265.187-.14.203-.11.484.078.625.11.094.25.11.375.094.297-.031.437-.36.36-.625-.048-.188-.188-.328-.345-.422a1.17 1.17 0 0 0-.515-.156c-.14-.016-.281 0-.422.031-.11.031-.234.094-.328.156-.094.063-.172.14-.235.219a1.76 1.76 0 0 0-.359.844c-.015.14-.015.281-.015.422zM1.734-4h1.579v3c0 .14 0 .266-.047.406a.726.726 0 0 1-.25.281c-.282.22-.704.22-.97 0a.944.944 0 0 1-.265-.468c-.047-.188-.047-.39-.047-.578zm0 0"/></svg></svg>