<svg xmlns="http://www.w3.org/2000/svg" xmlns:xlink="http://www.w3.org/1999/xlink" width="64" height="64" viewBox="0 0 6.028 8.5"><svg overflow="visible" x="-.333" y="6.353"><path style="stroke:none" d="M3.797-3.672H3.78A.973.973 0 0 0 3.547-4a1.192 1.192 0 0 0-.39-.281c-.532-.266-1.188-.11-1.688.156a2.225 2.225 0 0 0-1.094 2.36c.14.734.688 1.327 1.375 1.562.516.187 1.11.187 1.547-.172.11-.078.219-.188.297-.297.078-.11.14-.219.187-.344V.047c0 .344 0 .687-.14 1.016-.157.328-.407.625-.75.765-.235.094-.454.11-.704.094-.453-.031-.906-.14-1.234-.484a.487.487 0 0 0 .406-.141c.188-.219.125-.594-.14-.719C.984.453.64.563.562.844c-.046.156 0 .375.063.531.156.344.5.531.844.656.218.063.453.11.687.11.5.03 1.031-.047 1.469-.329.14-.093.266-.187.375-.312.234-.219.39-.5.453-.797.047-.187.031-.375.031-.547v-.703c0-.922.016-1.844 0-2.765 0-.063-.015-.11-.015-.172v-1.407c.031-.296.093-.625.25-.875.14-.234.375-.39.64-.359.11 0 .188.031.282.063a.9.9 0 0 1 .28.203.485.485 0 0 0-.374.156c-.203.25-.094.656.219.734a.446.446 0 0 0 .593-.375.945.945 0 0 0-.296-.734 1.69 1.69 0 0 0-.282-.172 1.137 1.137 0 0 0-.328-.094c-.64-.078-1.234.328-1.5.907-.14.343-.156.687-.156 1.062zM3.78-2.25c0 .14 0 .297-.015.438-.063.437-.22.89-.532 1.203a1.247 1.247 0 0 1-.296.203c-.063.031-.141.062-.22.094-.452.078-.859-.141-1.14-.5-.344-.454-.453-1.047-.406-1.625.047-.485.219-.97.547-1.329.281-.296.687-.484 1.093-.406.126.031.235.078.344.14.125.079.235.188.328.313.125.172.22.344.282.547.046.156.03.313.03.469 0 .156.017.312-.015.453zm0 0"/></svg></svg>