<svg xmlns="http://www.w3.org/2000/svg" xmlns:xlink="http://www.w3.org/1999/xlink" width="64" height="64" viewBox="0 0 4.827 7.034"><svg overflow="visible" x="-.057" y="6.926"><path style="stroke:none" d="M1.781-4.36c-.265.126-.531.266-.797.407-.109.062-.203.11-.312.172-.047.015-.11.031-.14.078-.095.078.03.25.077.328.016.031.032.078.079.11.046 0 .093 0 .125-.032.078-.031.156-.078.234-.11.312-.171.64-.327.969-.5.078.173.171.345.265.532.031.063.094.14.094.219 0 .062-.078.14-.11.187-.109.14-.203.297-.312.453C1.578-2 1.234-1.453.875-.922c-.094.125-.188.25-.281.39-.063.095-.125.188-.125.298 0 .328.453.468.64.203.094-.14.157-.313.235-.453.14-.297.297-.579.437-.875.157-.282.297-.563.438-.844.078-.125.14-.266.203-.39.047-.079.094-.157.125-.25h.015c.047.109.094.187.141.296.063.14.14.281.219.406.156.313.297.61.453.907.11.218.219.421.328.64.078.14.14.297.235.422.078.11.187.219.312.266.11.031.25 0 .36 0 .077 0 .234.031.265-.047.047-.11-.11-.203-.156-.266-.172-.218-.297-.5-.422-.75-.344-.703-.703-1.39-1.063-2.094-.203-.39-.39-.78-.609-1.171.094-.016.172-.079.25-.11.172-.093.344-.187.516-.265.109-.063.218-.11.328-.172.047-.032.125-.047.172-.078.078-.079-.016-.188-.047-.282l-.047-.078c-.016-.031-.031-.078-.094-.093-.047-.016-.078.015-.125.03-.078.048-.172.095-.25.141-.312.157-.61.313-.922.47-.172-.376-.375-.735-.562-1.095-.063-.14-.14-.265-.203-.406-.063-.125-.125-.25-.22-.344a.99.99 0 0 0-.359-.25c-.218-.109-.5-.14-.75-.156-.078 0-.218-.031-.25.078-.015.047 0 .11.063.125.063.016.14.016.203.047a.87.87 0 0 1 .36.266c.156.203.25.422.359.625.172.328.344.672.516 1 .078.14.125.281.218.422zm0 0"/></svg></svg>