<svg xmlns="http://www.w3.org/2000/svg" xmlns:xlink="http://www.w3.org/1999/xlink" width="64" height="64" viewBox="0 0 1.649 4.523"><svg overflow="visible" x="-.557" y="4.422"><path style="stroke:none" d="M.625-4.406c-.156.062 0 .265.031.343l.5.985c.047.094.078.187.125.265.032.047.078.079.14.047.048-.015.063-.062.079-.109.047-.063.078-.14.11-.203l.452-.906c.047-.079.079-.157.126-.235.015-.047.03-.093 0-.14-.032-.047-.079-.063-.141-.063H.766c-.032 0-.094 0-.141.016zm.734 2.843c-.046.016-.078.063-.093.094-.047.078-.079.157-.11.219l-.453.922a1.775 1.775 0 0 0-.125.234c-.015.047-.031.094 0 .14.031.048.078.048.125.048H2c.031 0 .094.015.14 0 .141-.063.016-.25-.03-.344l-.5-.984c-.048-.094-.079-.188-.141-.266-.016-.047-.063-.063-.11-.063zm0 0"/></svg></svg>