<svg xmlns="http://www.w3.org/2000/svg" xmlns:xlink="http://www.w3.org/1999/xlink" width="64" height="64" viewBox="0 0 5.016 4.53"><svg overflow="visible" x="-.313" y="4.422"><path style="stroke:none" d="M.313-4.313V-4c.14 0 .296 0 .437.016a.495.495 0 0 1 .234.093c.11.11.11.282.11.422v.969H.672c-.078 0-.156-.016-.219 0-.094.031-.11.219-.031.281.047.031.14.031.203.031h.469v.766c0 .39.015.781.265 1.078.22.266.547.375.875.422.22.031.454.047.672 0 .438-.094.828-.422.969-.86h.016v.876l1.437-.11v-.296c-.14 0-.281 0-.422-.032a.345.345 0 0 1-.234-.094c-.14-.124-.11-.343-.11-.515v-1.235h.422c.063 0 .157 0 .204-.015.109-.031.109-.203.046-.266-.046-.047-.14-.031-.203-.031h-.468v-1.922l-1.485.11V-4c.14 0 .297 0 .438.016.078.015.156.03.218.093.125.11.125.282.125.422v.969H1.797v-1.922zm1.484 2.125h2.062c0 .266.016.532-.015.797-.031.297-.14.61-.328.844-.063.078-.125.14-.204.203-.265.203-.578.25-.89.203-.203-.03-.39-.109-.516-.28-.11-.173-.11-.454-.11-.657zm0 0"/></svg></svg>