<svg xmlns="http://www.w3.org/2000/svg" xmlns:xlink="http://www.w3.org/1999/xlink" width="64" height="64" viewBox="0 0 4.355 4.583"><svg overflow="visible" x=".222" y="4.48"><path style="stroke:none" d="M3.578-3.86c-.125.016-.265.047-.344.141-.171.188-.156.516.032.672.187.156.515.14.656-.047.11-.125.11-.281.094-.422-.016-.078-.032-.156-.063-.25-.187-.437-.719-.625-1.172-.687a1.729 1.729 0 0 0-.75.031c-.25.063-.469.156-.687.297A1.935 1.935 0 0 0 1-3.844c-.906.906-.89 2.485.031 3.36.672.64 1.813.828 2.563.203.219-.172.375-.422.469-.672.03-.078.093-.188.062-.266-.031-.093-.172-.093-.219-.031-.031.047-.031.125-.062.172a1.278 1.278 0 0 1-.14.297 1.31 1.31 0 0 1-1.079.625c-.11 0-.219 0-.328-.032-.11-.015-.188-.062-.281-.109-.61-.344-.844-1.094-.844-1.75-.016-.531.031-1.11.312-1.547.157-.234.344-.437.61-.547.187-.093.375-.093.578-.078.328.032.656.125.906.36zm0 0"/></svg><path style="fill:none;stroke:#000;stroke-width:.305;stroke-linecap:butt;stroke-linejoin:miter;stroke-miterlimit:10;stroke-opacity:1" d="M0-.001h2.437" transform="matrix(1 0 0 -1 0 2.335)"/></svg>