<svg xmlns="http://www.w3.org/2000/svg" xmlns:xlink="http://www.w3.org/1999/xlink" width="64" height="5pt" viewBox="0 0 2.75 5"><svg overflow="visible" x="-.844" y="7.422"><path style="stroke:none" d="M2.203-7.422c-.015.14-.047.266-.094.39A1.876 1.876 0 0 1 .844-5.827v.406c.328-.078.656-.266.906-.484.094-.078.188-.188.25-.297h.016v3.375c0 .078-.016.172.015.25a.186.186 0 0 0 .188.156c.078 0 .156-.062.187-.156.016-.078 0-.172 0-.25v-3.375h.016c.062.11.156.219.265.297.25.218.579.406.907.484v-.406A1.868 1.868 0 0 1 2.313-7.03a1.587 1.587 0 0 1-.094-.39zm0 0"/></svg></svg>