<svg xmlns="http://www.w3.org/2000/svg" xmlns:xlink="http://www.w3.org/1999/xlink" width="64" height="64" viewBox="0 0 3.888 7.027"><svg overflow="visible" x="-.544" y="7.043"><path style="stroke:none" d="M.922-6.172c.11-.203.297-.344.5-.437A1.992 1.992 0 0 1 2.5-6.813c.219.032.438.079.61.204.265.171.39.453.437.75.11.609.047 1.296-.406 1.765-.079.078-.157.157-.25.219a1.652 1.652 0 0 1-.61.266c-.078.015-.234.015-.281.093-.031.063 0 .157 0 .22v2.077c0 .188 0 .375-.016.578a.292.292 0 0 1-.078.22.292.292 0 0 1-.218.077c-.157.031-.313.031-.47.031v.297l.891-.03.922.015.422.015v-.296c-.156 0-.328 0-.484-.032a.297.297 0 0 1-.203-.078c-.079-.094-.079-.203-.079-.297v-2.703c.032-.031.047-.047.094-.062.063-.016.125-.032.172-.047.25-.094.5-.203.719-.344.281-.188.5-.438.64-.75.235-.531.11-1.25-.234-1.719-.36-.468-.922-.64-1.5-.687a2.41 2.41 0 0 0-1 .11c-.375.124-.734.359-.922.718a.968.968 0 0 0-.094.625c.094.297.47.406.72.234.218-.156.25-.515.046-.703-.11-.11-.25-.14-.406-.125zm0 0"/></svg></svg>