<svg xmlns="http://www.w3.org/2000/svg" xmlns:xlink="http://www.w3.org/1999/xlink" width="64" height="64" viewBox="0 0 3.754 9.135"><svg overflow="visible" x="-.672" y="7.103"><path style="stroke:none" d="M2.328-7.094c-.531.047-1.015.219-1.328.672a2.1 2.1 0 0 0-.188.375c-.14.375-.14.75-.14 1.14v4.72c0 .312 0 .609.078.921.094.297.234.594.453.829.469.468 1.219.546 1.844.406a1.79 1.79 0 0 0 .875-.438c.234-.25.375-.562.453-.89.031-.141.047-.297.047-.438 0-.047.016-.125-.016-.172-.047-.047-.093-.047-.156-.047h-.36c-.046 0-.109 0-.14.063-.047.062-.016.187-.016.266-.03.218-.046.453-.171.656-.25.422-.829.453-1.282.422-.25-.032-.515-.094-.672-.297-.171-.219-.218-.485-.234-.75-.016-.313-.016-.64-.016-.969v-4.406c0-.407-.03-.938.313-1.235a.73.73 0 0 1 .156-.078c.14-.078.297-.093.453-.11.422-.03.938 0 1.203.376.141.203.172.469.188.719v.203c0 .047 0 .078.031.11.031.03.078.03.125.03h.235c.062 0 .187.016.25-.015.078-.047.046-.188.046-.266A2.774 2.774 0 0 0 4.234-6c-.125-.266-.28-.516-.5-.703-.375-.313-.937-.438-1.406-.39zm0 0"/></svg></svg>