<svg xmlns="http://www.w3.org/2000/svg" xmlns:xlink="http://www.w3.org/1999/xlink" width="64" height="64" viewBox="0 0 4.283 4.3"><svg overflow="visible" x="-.375" y="4.315"><path style="stroke:none" d="M.375-4.313v.25c.14 0 .266 0 .406.016C.86-4.03.953-4 1-3.922c.063.078.047.203.047.297v2.922c0 .11 0 .219-.047.297-.047.094-.125.11-.219.14C.641-.25.516-.25.375-.25v.234h2.203c.485 0 .969.032 1.406-.187a2.18 2.18 0 0 0 .422-.328c.063-.094.14-.203.172-.313.047-.078.063-.187.078-.281.032-.547-.468-.922-.953-1.063-.11-.03-.219-.062-.344-.062.094-.031.188-.047.297-.078.219-.078.453-.219.625-.406a.996.996 0 0 0 .125-.22.774.774 0 0 0 .063-.202c.047-.469-.36-.828-.766-1-.422-.188-.875-.157-1.328-.157zm1.313 1.954v-1.172c0-.11-.016-.203 0-.313.015-.047.015-.094.046-.125.047-.047.125-.031.172-.031h.469c.375 0 .781-.063 1.078.219.063.078.11.156.156.234a.44.44 0 0 1 .063.235.83.83 0 0 1-.469.843 1.12 1.12 0 0 1-.39.11c-.126.015-.266 0-.407 0zm0 .218h.921c.157 0 .329-.015.485.016.453.063.781.516.75.953a.81.81 0 0 1-.219.547.98.98 0 0 1-.531.281c-.219.047-.469.031-.688.031h-.5c-.047 0-.125.016-.172-.03-.03-.032-.03-.094-.046-.141-.016-.11 0-.235 0-.36zm0 0"/></svg></svg>