<svg xmlns="http://www.w3.org/2000/svg" xmlns:xlink="http://www.w3.org/1999/xlink" width="64" height="64" viewBox="0 0 4.929 8.957"><svg overflow="visible" x="-.328" y="6.922"><path style="stroke:none" d="M.328-6.813v.297c.156 0 .313 0 .453.032.125.03.25.078.281.203.063.156.047.328.047.484v4.844c0 .14.032.328-.046.469-.047.093-.141.14-.25.14-.157.031-.329.031-.485.031v.297l.89-.03.907.015.422.015v-.296c-.156 0-.313 0-.469-.032-.094 0-.187-.031-.234-.094C1.78-.53 1.78-.64 1.78-.75v-2.969h2.86c-.204.235-.422.422-.641.64-.328.345-.656.673-.984 1-.141.157-.297.298-.438.47-.062.046-.14.109-.156.187a.085.085 0 0 0 .078.11c.047.03.11.015.156.015.063 0 .11.016.172.016.485.031 1.047.203 1.344.61.219.327.266.718.234 1.093-.015.39-.093.781-.375 1.047-.078.078-.14.14-.218.187-.25.14-.5.172-.766.14-.328-.015-.688-.077-.969-.265-.094-.062-.172-.14-.25-.218.063 0 .14 0 .203-.032.235-.14.328-.484.156-.703a.444.444 0 0 0-.359-.172c-.062 0-.125 0-.187.016-.047.031-.079.047-.125.094-.266.203-.172.625 0 .875a.859.859 0 0 0 .109.14c.203.188.453.313.734.39.204.063.407.095.625.11.391.016.782-.015 1.125-.172a2.21 2.21 0 0 0 .641-.437c.14-.14.266-.328.36-.531.077-.172.124-.36.14-.563.016-.11 0-.219 0-.328-.11-1.031-1.125-1.781-2.094-1.844.547-.547 1.078-1.093 1.625-1.64.078-.079.157-.172.25-.25.032-.047.078-.094.11-.141.015-.063 0-.14 0-.203 0-.047.015-.125-.016-.172-.047-.078-.156-.063-.219-.063H1.781v-2.609zm0 0"/></svg></svg>