<svg xmlns="http://www.w3.org/2000/svg" xmlns:xlink="http://www.w3.org/1999/xlink" width="64" height="64" viewBox="0 0 3.328 6.345"><svg overflow="visible" x=".396" y="4.313"><path style="stroke:none" d="M.469-4.313V-4c.203 0 .39 0 .594.016.078.015.187.03.265.093.125.094.11.266.11.407v.984H.734c-.078 0-.203-.016-.25.047-.046.078-.03.234.079.265h.875V-.14c0 .438.03.875-.079 1.282-.078.296-.218.609-.546.656-.11.031-.25 0-.36-.016a.562.562 0 0 1-.281-.11C.484 1.626.594 1.25.469 1A.453.453 0 0 0 .063.781c-.063 0-.126 0-.204.031-.328.157-.312.594-.109.844s.563.36.875.375c.39.016.781-.125 1.047-.39.187-.188.297-.422.375-.672.062-.188.062-.39.062-.594v-2.563h.579c.062 0 .156.016.218-.046.047-.079.031-.235-.062-.266-.078-.016-.172 0-.25 0h-.485v-1c0-.14-.03-.297.079-.406.062-.047.156-.063.234-.078C2.578-4 2.734-4 2.875-4v-.313l-.422.032H1.47zm0 0"/></svg></svg>