<svg xmlns="http://www.w3.org/2000/svg" xmlns:xlink="http://www.w3.org/1999/xlink" width="64" height="64" viewBox="0 0 3.74 7.139"><svg overflow="visible" x="-.411" y="7.038"><path style="stroke:none" d="M2.156-7.031c-.687.078-1.094.734-1.344 1.312C.47-4.906.376-4 .422-3.125c.031.578.11 1.172.328 1.734.031.11.094.22.14.313C1.14-.562 1.5 0 2.126.094c.094 0 .172.015.25 0 .703-.063 1.11-.735 1.36-1.313.343-.812.453-1.718.406-2.593C4.11-4.406 4.017-5 3.813-5.547l-.14-.328c-.266-.516-.625-1.063-1.25-1.156-.078 0-.172-.016-.266 0zM1.25-3.625c0-.828.016-1.688.328-2.469.11-.312.328-.718.703-.718.375 0 .578.406.703.718.313.782.329 1.64.329 2.469zm0 .313h2.063c0 .828-.016 1.687-.329 2.468-.125.313-.328.719-.703.719-.375 0-.594-.406-.703-.719-.312-.781-.328-1.64-.328-2.469zm0 0"/></svg></svg>