<svg xmlns="http://www.w3.org/2000/svg" xmlns:xlink="http://www.w3.org/1999/xlink" width="64" height="64" viewBox="0 0 3.421 8.177"><svg overflow="visible" x="-.172" y="6.141"><path style="stroke:none" d="M1.484-6.14c0 .124-.015.234-.015.343-.078.61-.36 1.36-1.016 1.547a1.548 1.548 0 0 1-.281.031V-4h.86V.344c0 .14 0 .297.03.437.032.219.11.422.22.61.077.109.171.218.265.296.406.391 1.062.438 1.562.22.11-.063.22-.126.313-.22.156-.187.234-.468.11-.687a.615.615 0 0 0-.173-.172.5.5 0 0 0-.218-.047.474.474 0 0 0-.391.188c-.172.25-.063.656.266.703v.016c-.11.046-.22.093-.344.109a.85.85 0 0 1-.344 0c-.406-.078-.531-.578-.578-.922 0-.063 0-.14-.016-.203-.015-.188 0-.375 0-.547V-4h1.141v-.313h-1.14V-6.14zm0 0"/></svg></svg>