<svg xmlns="http://www.w3.org/2000/svg" xmlns:xlink="http://www.w3.org/1999/xlink" width="64" height="64" viewBox="0 0 3.86 4.57"><svg overflow="visible" x="-.275" y="4.475"><path style="stroke:none" d="M3.297-2.313c0 .594-.031 1.25-.453 1.704a.892.892 0 0 1-.219.203 1.14 1.14 0 0 1-.328.172.834.834 0 0 1-.39.078 1.12 1.12 0 0 1-.454-.078 1.387 1.387 0 0 1-.781-.641 1.429 1.429 0 0 1-.11-.219c-.015-.047-.03-.11-.046-.156-.032-.063-.141-.078-.204-.031-.046.062-.015.14 0 .187.032.14.11.282.188.422.328.516.906.781 1.516.766.25 0 .5-.063.734-.157.219-.093.438-.218.61-.374.171-.157.312-.329.437-.532.515-.86.437-2-.203-2.781a2.884 2.884 0 0 0-.578-.484c-.641-.344-1.547-.344-2.125.156a1.896 1.896 0 0 0-.438.61 2.88 2.88 0 0 0-.156.812c-.016.078-.047.219.016.297.046.062.14.046.203.046zM.953-2.515c.016-.125 0-.25.031-.359.032-.406.125-.828.438-1.125a1.35 1.35 0 0 1 .25-.156c.11-.047.219-.094.328-.094.36-.031.703.188.906.469.281.344.39.828.39 1.265zm0 0"/></svg></svg>