<svg xmlns="http://www.w3.org/2000/svg" xmlns:xlink="http://www.w3.org/1999/xlink" width="64" height="64" viewBox="0 0 4.829 7.039"><svg overflow="visible" x="-.054" y="6.922"><path style="stroke:none" d="M2.547-2.844h.015c.047.125.126.25.188.375.14.297.297.578.438.86.14.296.296.578.437.875.11.187.188.39.297.562.078.094.203.219.328.266.11.031.234 0 .344 0 .078 0 .203.031.265-.032.032-.015.032-.078 0-.124-.03-.032-.078-.079-.109-.11-.063-.062-.094-.125-.125-.187a6.067 6.067 0 0 1-.375-.704c-.11-.218-.219-.437-.344-.656L2.312-4.844c-.156-.297-.296-.593-.453-.89-.109-.204-.187-.407-.296-.61-.235-.375-.641-.515-1.047-.562-.094-.016-.188-.016-.282-.016H.11c-.062.047-.078.14-.015.188.031.03.078.03.125.03.062 0 .125.032.172.048.187.093.328.281.437.468.172.266.297.563.438.829.218.421.437.843.64 1.265.11.203.203.39.313.578.031.079.062.141.11.22.015.03.03.077.046.108 0 .079-.078.157-.11.22-.124.171-.234.343-.359.515-.343.515-.687 1-1.031 1.515a8.224 8.224 0 0 0-.281.407c-.047.078-.11.156-.125.265-.031.329.422.532.625.25.11-.14.172-.328.25-.468.14-.282.297-.579.437-.844.14-.297.297-.594.438-.89.078-.126.14-.25.203-.376.047-.078.094-.156.125-.25zm0 0"/></svg></svg>