<svg xmlns="http://www.w3.org/2000/svg" xmlns:xlink="http://www.w3.org/1999/xlink" width="64" height="64" viewBox="0 0 2.75 6.345"><svg overflow="visible" x="-.297" y="4.424"><path style="stroke:none" d="M.813 1.61v.312l.875-.031.937.015.422.016v-.313c-.14 0-.297 0-.438-.015-.093-.016-.171-.016-.234-.063-.11-.11-.094-.281-.094-.422v-4.125c0-.171.016-.328-.031-.5-.125-.53-.64-.937-1.188-.906-.062 0-.125.031-.171.031A.765.765 0 0 0 .484-4a2.182 2.182 0 0 0-.171.781c-.016.11-.016.203-.016.313 0 .11.11.187.203.11.031-.032.031-.079.031-.142l.031-.296c0-.141.032-.297.063-.454.047-.14.094-.28.188-.39a.379.379 0 0 1 .468-.063.6.6 0 0 1 .172.172c.078.156.11.36.125.547.016.266 0 .531 0 .797v3.64c0 .141.031.298-.031.438-.047.094-.156.125-.25.14-.156.016-.313.016-.484.016zm0 0"/></svg></svg>