<svg xmlns="http://www.w3.org/2000/svg" xmlns:xlink="http://www.w3.org/1999/xlink" width="64" height="64" viewBox="0 0 3.862 4.734"><svg overflow="visible" x="-.418" y="4.527"><path style="stroke:none" d="M.953-3.875c.297-.297.735-.375 1.14-.39.22-.016.423-.016.641.062.47.172.641.719.47 1.172-.11.265-.313.469-.579.531-.11.031-.219.031-.328.031-.078.016-.188 0-.281.031-.063.016-.079.063-.079.126.016.078.094.093.157.093.172 0 .344-.015.515.031.422.11.72.422.766.86.031.14.031.297 0 .437-.031.11-.063.22-.11.313a.794.794 0 0 1-.14.203c-.406.406-1.078.344-1.563.172a2.35 2.35 0 0 1-.28-.14 2.348 2.348 0 0 1-.516-.36C.703-.766.625-.891.53-.891c-.078-.015-.125.11-.11.188.017.047.063.078.095.125.156.156.328.297.515.422a2.58 2.58 0 0 0 1.83.312c.344-.062.672-.203.954-.422.109-.093.218-.203.296-.328.063-.11.11-.203.141-.312.016-.078.031-.156.031-.235 0-.546-.5-.921-.953-1.109-.094-.016-.172-.047-.265-.078.093-.031.203-.047.296-.078.204-.094.407-.203.563-.36a.86.86 0 0 0 .14-.218c.032-.079.047-.141.079-.22.062-.421-.188-.765-.516-.983-.453-.282-1.016-.375-1.547-.329-.203.016-.406.032-.594.079-.406.109-.843.328-.921.78a.475.475 0 0 0 .03.36c.126.203.407.25.595.11.171-.126.171-.407.03-.579-.062-.078-.171-.109-.265-.109zm0 0"/></svg></svg>