<svg xmlns="http://www.w3.org/2000/svg" xmlns:xlink="http://www.w3.org/1999/xlink" width="64" height="64" viewBox="0 0 4.267 4.522"><svg overflow="visible" x="-.313" y="4.422"><path style="stroke:none" d="m1.781-4.422-.5.047-.968.063V-4c.14 0 .28 0 .421.016a.495.495 0 0 1 .235.093c.094.079.125.235.125.36v1.874c0 .188-.016.376 0 .548.015.296.125.593.328.812.078.094.172.14.266.203.203.11.437.157.671.188.141.015.297 0 .438-.016.906-.14 1.5-1 1.703-1.828.094-.36.078-.719.078-1.078 0-.36 0-.735-.062-1.078-.047-.172-.094-.36-.25-.453-.282-.172-.672.078-.641.406.031.156.14.25.234.36.11.109.204.25.282.39.25.469.218 1.015.093 1.515-.187.625-.593 1.266-1.25 1.485-.265.094-.593.14-.828-.031-.062-.063-.125-.11-.172-.172-.187-.266-.203-.625-.203-.922zm0 0"/></svg></svg>