<svg xmlns="http://www.w3.org/2000/svg" xmlns:xlink="http://www.w3.org/1999/xlink" width="64" height="64" viewBox="0 0 3.354 4.414"><svg overflow="visible" x="-.271" y="4.313"><path style="stroke:none" d="M1.219-4.313V-4c.203 0 .406 0 .61.016.093.015.202.03.28.109.079.094.079.234.079.36v.687c0 .703.062 1.469-.282 2.094-.218.375-.578.671-1.015.609v-.016c.234-.093.296-.421.171-.609C1-.875.875-.922.75-.953c-.047 0-.11 0-.156.015-.063.016-.11.047-.14.063-.25.172-.22.531-.048.734.188.203.469.266.735.235.421-.047.734-.328.937-.688.063-.125.11-.25.14-.39h.016V.094l1.391-.11v-.296c-.14 0-.313 0-.453-.032a.406.406 0 0 1-.25-.14.6.6 0 0 1-.078-.329v-2.765c0-.094 0-.203.062-.297.063-.078.156-.094.25-.11C3.312-4 3.47-4 3.625-4v-.313l-.422.032H2.22zm0 0"/></svg></svg>