<svg xmlns="http://www.w3.org/2000/svg" xmlns:xlink="http://www.w3.org/1999/xlink" width="64" height="64" viewBox="0 0 4.381 6.828"><svg overflow="visible" x="-.278" y="4.578"><path style="stroke:none" d="M.281-4.219V-4c.156-.016.313-.078.469-.078.078 0 .156.016.219.078.094.125.078.344.078.484V1.11c0 .141.016.313-.016.47a.273.273 0 0 1-.11.218c-.109.094-.28.125-.405.172L.375 2c-.031.016-.063.031-.078.047-.031.047-.016.14-.016.203l1.063-.297.265-.078.11-.047.031-.14V.016c.078 0 .156-.032.234-.063.172-.031.329-.078.5-.125.25-.062.516-.125.766-.234a2.18 2.18 0 0 0 1.031-.844c.5-.797.547-1.906-.125-2.625a1.369 1.369 0 0 0-.375-.297 1.282 1.282 0 0 0-.484-.172c-.563-.093-1.063.203-1.578.344v-.578l-1.047.266zM1.75-.234v-3.407c0-.03 0-.062.016-.093.015-.032.078-.047.125-.063.093-.031.203-.062.296-.094.141-.046.297-.093.438-.14a.645.645 0 0 1 .344-.063c.11 0 .203.063.281.11a.87.87 0 0 1 .172.171c.312.376.36.876.36 1.344 0 .313-.016.61-.079.89-.047.298-.156.595-.375.813-.203.172-.453.235-.719.297-.171.047-.343.094-.5.14-.125.032-.25.063-.359.095zm0 0"/></svg></svg>