<svg xmlns="http://www.w3.org/2000/svg" xmlns:xlink="http://www.w3.org/1999/xlink" width="64" height="64" viewBox="0 0 4.273 5.755"><svg overflow="visible" x="-.276" y="4.314"><path style="stroke:none" d="m.531-4.313-.11 1.61h.25c.016-.344.032-.75.25-1.031.173-.235.454-.297.72-.329.218-.03.437-.03.656-.03h.86c-.25.296-.454.609-.688.905-.516.704-1.031 1.407-1.563 2.11l-.515.703c-.063.078-.157.203-.094.313.031.046.078.046.125.046H1.75l-.469.86-.187.36-.11.234c.079 0 .172.015.235-.016.031-.016.062-.078.078-.11l.14-.28c.125-.25.25-.485.391-.72.031-.062.078-.14.11-.187.03-.047.046-.078.093-.11.047-.046.14-.03.219-.03h.547c.484 0 1.031.062 1.453-.25.078-.063.14-.141.203-.22.25-.406-.016-.937-.453-1.093-.438-.156-.953.11-1.281.39-.078.063-.14.125-.203.188a2.95 2.95 0 0 0-.22.234c-.077.094-.155.204-.25.313-.03.047-.077.125-.124.156-.063.047-.172.031-.234.031h-.563c.328-.406.625-.843.938-1.265.437-.578.859-1.157 1.28-1.735.173-.218.36-.468.532-.687.047-.078.156-.188.094-.297-.047-.078-.156-.063-.235-.063zM2.187-.266c.094-.14.188-.265.297-.375.282-.343.641-.64 1.079-.734A.605.605 0 0 1 4-1.328c.219.125.375.437.25.672-.094.203-.328.297-.547.344-.219.046-.453.046-.687.046zm0 0"/></svg></svg>