<svg xmlns="http://www.w3.org/2000/svg" xmlns:xlink="http://www.w3.org/1999/xlink" width="64" height="64" viewBox="0 0 3.987 6.564"><svg overflow="visible" x="-.422" y="4.313"><path style="stroke:none" d="m.531-4.313-.078 1.25-.031.422h.25c.015-.312.094-.703.36-.89.218-.156.53-.172.765-.172.562-.031 1.125-.016 1.687-.016-.125.156-.28.281-.406.422-.297.313-.61.64-.906.953l-.375.375c-.11.14-.25.282-.375.407-.047.062-.11.125-.078.203.047.078.172.062.25.062.218 0 .437.047.656.094.125.047.25.094.36.172.093.047.187.11.25.187.312.297.39.719.39 1.14-.11-.062-.219-.14-.328-.202a2.53 2.53 0 0 0-.672-.188c-.453-.062-.969 0-1.36.25a1.43 1.43 0 0 0-.359.39.962.962 0 0 0 .031.876c.22.328.61.484.97.547a2.6 2.6 0 0 0 .78.062c.407-.031.813-.172 1.126-.453.124-.11.265-.234.343-.375.047.078.11.156.14.25.11.203.173.406.22.625.03.094.062.188.187.172.14-.031.063-.25.031-.344-.046-.234-.156-.453-.265-.656-.032-.063-.063-.14-.11-.188-.015-.03-.046-.078-.046-.109 0-.047.015-.094.046-.14.016-.063.047-.141.063-.22.047-.202.047-.421.031-.64-.094-.765-.687-1.375-1.39-1.64a1.49 1.49 0 0 0-.641-.157c.062-.062.11-.125.172-.187.14-.125.265-.266.39-.406.329-.329.625-.657.954-.985a3.59 3.59 0 0 1 .25-.265c.046-.047.124-.126.156-.188.015-.063.015-.14.015-.219 0-.047 0-.093-.015-.14-.031-.079-.125-.079-.203-.079zM3.234.563c-.015.141-.03.25-.062.391-.063.25-.203.485-.406.656a1.06 1.06 0 0 1-.516.204.857.857 0 0 1-.281-.016 2 2 0 0 1-.735-.14C1.047 1.577.86 1.452.75 1.28A.648.648 0 0 1 .734.67a.723.723 0 0 1 .282-.327c.375-.25.89-.297 1.328-.203.234.047.437.14.64.265.094.047.172.11.25.156zm0 0"/></svg></svg>