<svg xmlns="http://www.w3.org/2000/svg" xmlns:xlink="http://www.w3.org/1999/xlink" width="64" height="64" viewBox="0 0 3.353 6.469"><svg overflow="visible" x="-.29" y="4.426"><path style="stroke:none" d="M1.047-4.422c-.063.016-.125.031-.172.063C.703-4.297.594-4.156.5-4c-.125.234-.172.516-.188.781 0 .063-.015.125-.015.203 0 .047-.016.11 0 .172.016.078.11.11.187.063.047-.031.047-.078.047-.14.016-.095.016-.188.031-.282.016-.172.032-.36.094-.531a.64.64 0 0 1 .203-.36c.125-.11.313-.14.454-.047.078.047.14.125.171.204.125.25.125.53.125.812V.75c0 .203.016.375.094.563.203.453.703.796 1.203.718.531-.094.672-.719.719-1.187V.64c.016-.047.031-.125 0-.172-.016-.078-.11-.11-.172-.063-.047.016-.062.078-.062.125-.016.094-.016.203-.016.281-.031.22-.063.454-.14.657-.047.093-.094.187-.172.25-.126.093-.297.125-.438.047a.43.43 0 0 1-.188-.22c-.109-.25-.124-.546-.124-.812v-3.812c0-.203 0-.39-.079-.578-.187-.469-.671-.813-1.187-.766zm0 0"/></svg></svg>