<svg xmlns="http://www.w3.org/2000/svg" xmlns:xlink="http://www.w3.org/1999/xlink" width="64" height="64" viewBox="0 0 4.941 6.451"><svg overflow="visible" x="-.156" y="4.418"><path style="stroke:none" d="M2.672-.672h.015c.016.11.063.219.11.328.047.188.125.39.187.578.11.329.204.657.313.97.078.265.172.562.406.718.328.203.75.11 1-.14a1.45 1.45 0 0 0 .344-.75c.031-.11.047-.22.047-.345 0-.046.015-.093-.016-.125C5.047.484 4.922.47 4.86.532c-.015.046-.015.093-.03.14 0 .078-.016.14-.048.203a.673.673 0 0 1-.86.266c-.25-.094-.437-.329-.546-.563-.047-.11-.078-.219-.11-.328-.078-.203-.14-.406-.218-.594-.031-.125-.078-.25-.11-.36-.03-.077-.078-.155-.078-.218-.015-.078.079-.172.11-.219.11-.187.219-.359.328-.53.36-.61.719-1.204 1.078-1.813.094-.172.203-.329.297-.5.047-.063.11-.141.11-.22.015-.093-.079-.109-.141-.109h-.329c-.078 0-.171 0-.218.079-.094.14-.172.296-.266.437-.203.344-.406.672-.61 1.016-.124.203-.265.422-.39.64-.078.141-.187.282-.25.422-.062-.172-.11-.36-.187-.531-.125-.375-.266-.766-.36-1.156-.094-.313-.203-.735-.5-.906a.817.817 0 0 0-.25-.094.515.515 0 0 0-.218 0c-.485.062-.75.515-.86.953-.031.125-.047.25-.047.375 0 .062 0 .125.016.156.047.078.172.078.219 0 .015-.031.015-.094.03-.14 0-.063.032-.126.063-.172a.648.648 0 0 1 .782-.329c.5.157.656.72.812 1.157.031.11.078.25.125.36.047.124.078.25.125.358.031.079.047.141.063.22.015.077-.063.171-.11.25a7.045 7.045 0 0 0-.344.577C1.579-.062 1.22.516.875 1.094c-.094.156-.188.328-.281.484-.047.078-.11.156-.125.234-.016.079.047.11.11.11.124.016.265 0 .39 0 .062 0 .14 0 .187-.063.094-.125.157-.28.235-.406L1.906.61c.172-.265.328-.546.5-.812.094-.156.203-.313.266-.469zm0 0"/></svg></svg>