<svg xmlns="http://www.w3.org/2000/svg" xmlns:xlink="http://www.w3.org/1999/xlink" width="2.199" height="2.225" viewBox="0 0 1.649 1.669"><svg overflow="visible" x="148.712" y="134.765" transform="translate(-149.269 -130.343)"><path style="stroke:none" d="M.625-4.406c-.156.062 0 .265.031.343l.5.985c.047.094.078.187.125.265.032.047.078.079.14.047.048-.015.063-.062.079-.109.047-.063.078-.14.11-.203l.452-.906c.047-.079.079-.157.126-.235.015-.047.03-.093 0-.14-.032-.047-.079-.063-.141-.063H.766c-.032 0-.094 0-.141.016zm0 0"/></svg></svg>