<svg xmlns="http://www.w3.org/2000/svg" xmlns:xlink="http://www.w3.org/1999/xlink" width="64" height="64" viewBox="0 0 6.646 7.258"><svg overflow="visible" x="-.55" y="7.044"><path style="stroke:none" d="M3.703-7.031c-.14.015-.297.015-.437.047-.36.078-.704.218-1.016.406a3.12 3.12 0 0 0-.781.656C.312-4.578.234-2.484 1.312-1.078c.22.266.47.516.735.703.297.203.625.36.969.469.375.11.765.14 1.156.11a4.24 4.24 0 0 0 .797-.188c.25-.094.468-.22.672-.36.187-.11.343-.25.5-.406.796-.813 1.156-1.969 1.03-3.078-.14-1.281-.921-2.469-2.124-2.985a3.39 3.39 0 0 0-.656-.171 2.045 2.045 0 0 0-.688-.047zm.11 3.078c-.079.015-.141.047-.22.078a.597.597 0 0 0-.14.14.54.54 0 0 0 .25.829.676.676 0 0 0 .25.015c.063-.015.14-.046.188-.062a.369.369 0 0 0 .14-.125A.529.529 0 0 0 4-3.922c-.063-.031-.125-.031-.188-.031zm-2.235.687c-.016-.187 0-.406 0-.593.031-.813.266-1.641.828-2.25.156-.172.344-.329.547-.438.172-.094.36-.156.547-.203.64-.14 1.281.094 1.75.547.25.234.422.516.578.812.188.391.266.86.328 1.297.016.297.016.578 0 .89-.031.829-.218 1.688-.75 2.345a2.214 2.214 0 0 1-.562.515c-.157.11-.344.172-.516.235a1.633 1.633 0 0 1-.828.015c-.75-.172-1.281-.781-1.578-1.468a4.99 4.99 0 0 1-.313-1.172c-.015-.188-.015-.36-.03-.532zm0 0"/></svg></svg>