<svg xmlns="http://www.w3.org/2000/svg" xmlns:xlink="http://www.w3.org/1999/xlink" width="64" height="64" viewBox="0 0 4.176 6.347"><svg overflow="visible" x="-.271" y="4.313"><path style="stroke:none" d="M1.219-4.313V-4c.203 0 .406 0 .61.016.093.015.202.03.28.109.079.094.079.234.079.36v.687c0 .703.062 1.469-.282 2.094-.218.375-.578.671-1.015.609v-.016c.234-.093.296-.421.171-.609C1-.875.875-.922.75-.953c-.047 0-.11 0-.156.015-.063.016-.11.047-.14.063-.25.156-.22.5-.048.719.156.203.469.281.719.25.406-.047.719-.297.922-.64.047-.095.094-.188.125-.298h.015V.172c0 .203-.015.406 0 .61.032.171.079.343.157.5.125.25.297.468.531.609.39.218.938.187 1.281-.094.235-.188.39-.547.219-.813a.29.29 0 0 0-.11-.125C4.22.83 4.173.813 4.11.781h-.187c-.375.047-.516.531-.266.781.078.079.156.11.25.125-.219.094-.5.204-.719.047-.046-.03-.078-.062-.109-.093l-.094-.188A2.545 2.545 0 0 1 2.86.781C2.844.516 2.844.25 2.844-.016v-3.39c0-.125-.016-.313.047-.438.046-.078.156-.125.25-.14C3.297-4 3.469-4 3.625-4v-.313l-.766.032-.125-.032h-.406l-.172.032zm0 0"/></svg></svg>