<svg xmlns="http://www.w3.org/2000/svg" xmlns:xlink="http://www.w3.org/1999/xlink" width="64" height="64" viewBox="0 0 5.479 8.466"><svg overflow="visible" x="-.336" y="6.922"><path style="stroke:none" d="M3.031-6.813v.297c.156 0 .297 0 .453.032.079.015.172.046.22.109.062.063.077.14.093.234.015.157.015.329.015.485v1.843a2.006 2.006 0 0 0-.578-.453c-.859-.406-1.906.032-2.453.735-.672.906-.578 2.281.25 3.047.188.171.39.328.64.421.36.157.766.22 1.141.126-.218.359-.421.718-.593 1.093l-.047.063c-.031.093-.156.265-.016.312.063.032.125 0 .156-.031.047-.047.063-.11.094-.172.031-.078.094-.187.14-.266.142-.265.282-.53.423-.78.062-.11.125-.235.219-.329.046-.062.156-.11.218-.156.172-.11.36-.281.453-.469h.016c.063.188.188.36.328.5.125.11.281.188.438.234a.963.963 0 0 0 .515 0 .736.736 0 0 0 .531-.375.871.871 0 0 0 .11-.25c.11-.5-.281-1.015-.797-1.046-.188 0-.36.03-.531.093v-5.406zm-1.86 4.907c-.015-.172 0-.36 0-.532.032-.5.141-1.015.516-1.374.079-.063.157-.141.25-.188.36-.234.797-.25 1.188-.078.14.078.266.172.375.281.078.078.156.172.203.266a.73.73 0 0 1 .078.156c.016.188 0 .39 0 .563v1.515c0 .063 0 .14-.015.203-.032.047-.094.094-.141.14a2.133 2.133 0 0 0-.266.266c-.093.094-.171.204-.25.297a.439.439 0 0 1-.156.188c-.094.047-.219.062-.328.078-.563.063-1.047-.313-1.266-.813-.14-.312-.156-.64-.187-.968zm3.298.89c0-.062-.016-.187.031-.234.016-.047.078-.063.125-.078a.714.714 0 0 1 .406-.031c.282.046.5.28.532.578.03.344-.266.75-.641.656-.047 0-.094-.031-.14-.063-.266-.187-.282-.546-.313-.828zm0 0"/></svg></svg>