<svg xmlns="http://www.w3.org/2000/svg" xmlns:xlink="http://www.w3.org/1999/xlink" width="64" height="64" viewBox="0 0 6.844 4.406"><svg overflow="visible" x="-.172" y="4.422"><path style="stroke:none" d="M.172-.313v.297l.89-.03.766.03v-.296c-.25-.016-.531-.141-.578-.422 0-.047 0-.094.016-.141.015-.078.046-.156.078-.25.062-.172.125-.328.187-.5.14-.406.282-.813.422-1.203.094-.235.188-.469.25-.703h.016c.047.234.156.469.25.703.172.5.344.969.515 1.469.063.171.125.359.204.546.015.079.078.188.046.282-.015.078-.078.125-.156.156-.14.063-.281.063-.422.063v.296l.86-.03.734.015.344.015v-.296c-.188 0-.453.015-.61-.126-.093-.093-.125-.234-.171-.374a.59.59 0 0 1-.079-.235c0-.078.047-.172.079-.25.062-.156.124-.328.187-.484.188-.547.36-1.094.578-1.625.094.234.172.484.266.734.156.453.312.906.484 1.36.063.171.125.343.188.53.03.079.078.157.046.25a.305.305 0 0 1-.156.157c-.125.063-.281.063-.422.063v.296l.891-.03.781.015.36.015v-.296c-.204 0-.454.015-.61-.11-.093-.094-.11-.203-.156-.312-.063-.188-.125-.36-.188-.547-.265-.688-.484-1.375-.734-2.063-.11-.265-.203-.547-.297-.812-.047-.11-.078-.235-.203-.266-.156 0-.203.11-.25.219-.078.266-.187.531-.266.781-.093.266-.187.516-.28.781-.095.266-.188.5-.266.766-.063.156-.125.297-.172.453-.063-.125-.094-.266-.14-.406a44.35 44.35 0 0 1-.329-.875c-.078-.25-.172-.5-.266-.766-.093-.234-.171-.484-.25-.734-.046-.11-.093-.219-.234-.219-.14.016-.172.14-.219.25-.094.281-.187.531-.265.797-.282.75-.547 1.5-.813 2.25-.047.125-.094.266-.156.39a.878.878 0 0 1-.75.422zm0 0"/></svg></svg>