<svg xmlns="http://www.w3.org/2000/svg" xmlns:xlink="http://www.w3.org/1999/xlink" width="64" height="64" viewBox="0 0 5.52 4.497"><svg overflow="visible" x="-.28" y="4.396"><path style="stroke:none" d="M3.047-.75c.11.234.219.469.437.64.422.313 1 .25 1.438-.015.156-.094.312-.25.437-.406.47-.61.547-1.485.313-2.203a2.86 2.86 0 0 0-.703-1.11 2.03 2.03 0 0 0-.485-.406c-.062-.047-.14-.11-.218-.14-.094-.032-.188.077-.125.156.015.046.062.062.093.093.063.032.11.079.157.125.156.141.265.313.343.5.172.375.204.797.22 1.204.015.453.03.937-.079 1.39-.063.297-.203.672-.531.766-.063.031-.11.031-.172.031-.063 0-.125 0-.188-.016-.375-.062-.609-.375-.718-.703a1.297 1.297 0 0 1-.094-.328c-.016-.094.031-.219.047-.312.031-.188.047-.36.047-.547.015-.047.015-.11.015-.172.016-.094.016-.203.016-.297 0-.063 0-.125-.016-.172-.031-.094-.094-.172-.203-.187-.125-.032-.234.062-.281.171-.016.079 0 .157 0 .22v.405c.031.204.031.391.062.594.016.094.063.203.047.297 0 .11-.047.219-.078.328-.094.25-.25.5-.5.64a.769.769 0 0 1-.312.079h-.188c-.375-.063-.547-.438-.625-.766a5.325 5.325 0 0 1-.078-.718 5.048 5.048 0 0 1 0-.688c.016-.406.047-.812.203-1.187.11-.266.281-.5.516-.657.062-.062.172-.109.093-.218-.046-.063-.14-.032-.187.015a2.798 2.798 0 0 0-.438.313C.672-3.484.25-2.688.282-1.828c.015.187.03.36.077.547.063.187.141.375.235.547.125.218.297.437.515.578.422.281 1.032.36 1.47.047.233-.157.358-.407.468-.641zm0 0"/></svg></svg>