<svg xmlns="http://www.w3.org/2000/svg" xmlns:xlink="http://www.w3.org/1999/xlink" width="64" height="64" viewBox="0 0 1.198 2.978"><svg overflow="visible" x="-.714" y="6.922"><path style="stroke:none" d="M.953-6.078c.063.078.14.14.25.172a.6.6 0 0 0 .578-.11c.219-.25.157-.718-.14-.859-.063-.016-.11-.031-.172-.047h-.157c-.312.047-.468.297-.53.578-.173.61 0 1.313.327 1.844.125.172.25.344.422.484.047.063.14.11.203.032.016-.016.016-.032.016-.047.031-.078-.063-.14-.11-.188a2.253 2.253 0 0 1-.343-.422 2.39 2.39 0 0 1-.36-1.156c0-.094.016-.187.016-.281zm0 0"/></svg></svg>