<svg xmlns="http://www.w3.org/2000/svg" xmlns:xlink="http://www.w3.org/1999/xlink" width="64" height="64" viewBox="0 0 2.743 2.156"><svg overflow="visible" x="-.281" y="7.094"><path style="stroke:none" d="m.89-6.016.891-.328c.188-.078.375-.14.578-.218.141-.047.266-.094.407-.157a.592.592 0 0 0 .203-.093c.11-.079.047-.282-.094-.282-.078 0-.14.047-.219.078-.14.047-.265.094-.406.141-.453.172-.89.344-1.328.516-.172.062-.328.125-.485.171-.078.032-.156.079-.156.172 0 .094.063.141.14.172.173.063.329.125.5.188.438.156.907.343 1.345.515l.39.141c.078.031.14.063.219.063.14 0 .203-.188.094-.282-.063-.047-.14-.062-.219-.093l-.39-.157-.579-.203c-.297-.11-.593-.219-.89-.344zm0 0"/></svg></svg>