<svg xmlns="http://www.w3.org/2000/svg" xmlns:xlink="http://www.w3.org/1999/xlink" width="64" height="64" viewBox="0 0 5.598 6.46"><svg overflow="visible" x="-.109" y="4.424"><path style="stroke:none" d="M3.781-.406h.016v.89c0 .157-.016.313 0 .47.031.296.156.562.375.765.047.047.11.078.172.125.312.203.812.312 1.093-.016.188-.234.22-.562.25-.844 0-.109.016-.234.016-.359 0-.047.016-.11-.016-.156-.03-.094-.203-.094-.218.015-.032.079-.016.157-.016.25-.016.282 0 .61-.156.875-.016.063-.078.11-.14.157-.173.109-.376.015-.485-.141a1.044 1.044 0 0 1-.156-.469C4.469.875 4.5.594 4.5.313v-3.72c0-.124-.031-.296.031-.421.047-.094.157-.14.25-.156C4.938-4 5.11-4 5.281-4v-.313l-.906.032h-.922l-.437-.032V-4c.171 0 .328 0 .484.016.094.015.172.03.234.109.079.094.063.219.063.328v2.375c0 .078.015.172-.016.25 0 .078-.047.156-.078.219a1.166 1.166 0 0 1-.39.437.827.827 0 0 1-1.11-.156c-.14-.172-.219-.406-.265-.625-.063-.297-.063-.594-.063-.89v-1.266c0-.125.016-.25-.016-.375-.109-.485-.562-.875-1.078-.844a.555.555 0 0 0-.156.031c-.36.141-.453.547-.484.891-.016.078-.016.14-.016.203 0 .125-.016.25-.016.36 0 .062.016.124.063.14.094.031.172 0 .187-.094.016-.093 0-.203 0-.312 0-.156.016-.313.047-.469.016-.11.031-.219.094-.312.11-.188.375-.297.531-.125.11.109.14.234.157.375.015.171 0 .328-.016.5v1.671c.031.391.125.766.36 1.079.25.359.671.53 1.093.578.14 0 .297.015.438-.016.28-.047.593-.234.718-.484zm0 0"/></svg></svg>