<svg xmlns="http://www.w3.org/2000/svg" xmlns:xlink="http://www.w3.org/1999/xlink" width="64" height="64" viewBox="0 0 3.191 2.094"><svg overflow="visible" x=".167" y="4.406"><path style="stroke:none" d="M.844-3.766c0 .563.265 1.266.86 1.422.5.125 1.03-.125 1.234-.61.046-.124.109-.28.078-.421C3-3.453 2.89-3.5 2.812-3.438a.142.142 0 0 0-.046.11.899.899 0 0 1-.235.562c-.234.25-.672.329-.937.079-.125-.11-.203-.282-.25-.454A3.154 3.154 0 0 1 1.25-4c0-.14.031-.344-.14-.39-.032-.016-.048-.016-.079-.016-.125.015-.218.125-.297.187l-.625.5c-.062.047-.109.094-.171.125a.515.515 0 0 0-.094.11c-.047.109.078.218.14.28.032.017.063.032.094.017.047 0 .094-.047.14-.079l.25-.187c.126-.11.25-.203.376-.313zm0 0"/></svg></svg>