<svg xmlns="http://www.w3.org/2000/svg" xmlns:xlink="http://www.w3.org/1999/xlink" width="64" height="64" viewBox="0 0 4.031 4.75"><svg overflow="visible" x="-1.109" y="4.703"><path style="stroke:none" d="m5.031-4.39-.515-.313A13.27 13.27 0 0 0 1.937-2.61l-.046-.016c0-.313.046-1.375.062-1.953l-.047-.063-.797.266c.032.828.047 1.64.047 2.469 0 .625 0 1.265-.015 1.89l.171.063.625-.266a38.836 38.836 0 0 1-.062-1.89l.094-.047c.75.703 1.656 1.453 2.5 2.172l.672-.36v-.14a22.791 22.791 0 0 1-2.532-2.063l-.046-.11c0-.015 0-.03.015-.062.422-.5 1.547-1.156 2.438-1.531zm0 0"/></svg></svg>