<svg xmlns="http://www.w3.org/2000/svg" xmlns:xlink="http://www.w3.org/1999/xlink" width="64" height="64" viewBox="0 0 5.922 6.625"><svg overflow="visible" x="-.906" y="4.656"><path style="stroke:none" d="m3.188 1.828.124.14L4 1.75A18.136 18.136 0 0 1 3.922.156L4 .063c.813-.11 1.578-.376 2.156-.954.485-.5.672-1.187.672-1.875 0-.953-.5-1.859-1.61-1.859-.405 0-.921.11-1.343.484-.578.485-.672 1.141-.672 1.75v2.047l-.062.063c-.188 0-.454-.094-.829-.453-.484-.47-.609-1.266-.609-1.922 0-.813.313-1.39 1.14-1.781l-.109-.22C1.75-4.358.906-3.53.906-2.483c0 .687.188 1.28.625 1.812.516.594 1.016.688 1.61.75l.062.078zM4-.266l-.078-.062v-2.313c0-.906.297-1.593 1.11-1.593.827 0 .968 1.187.968 1.468 0 .657-.14 1.407-.594 1.86-.375.39-.875.625-1.406.64zm0 0"/></svg></svg>