<svg xmlns="http://www.w3.org/2000/svg" xmlns:xlink="http://www.w3.org/1999/xlink" width="64" height="64" viewBox="0 0 6.875 8.812"><svg overflow="visible" x=".062" y="6.922"><path style="stroke:none" d="m3.563 1.813.062.078.75-.36c-.063-.484-.094-1-.094-1.484l.078-.094c1.375-.281 2.454-1.422 2.454-2.797 0-.672-.25-1.297-.657-1.812l-.203-.032-.437.485-.032.125c.36.39.625.875.625 1.422 0 .547-.109 1.078-.468 1.515-.141.188-.672.72-1.297.766L4.28-.438v-3.515c0-.969 0-2.61.032-2.906l-.079-.063-.796.328c.062 1 .124 2.078.124 3.032v3.14l-.078.063c-.437 0-.937-.235-1.156-.438-.297-.281-.422-.687-.422-1.484v-1.281c0-1.157-.343-1.141-.625-1.141-.468 0-.968.344-1.343.656l.156.203c.203-.125.453-.297.64-.297.375 0 .438.61.438.907v1.515c0 1.063.422 1.703 2.312 1.703l.079.079zm0 0"/></svg></svg>