<svg xmlns="http://www.w3.org/2000/svg" xmlns:xlink="http://www.w3.org/1999/xlink" width="64" height="64" viewBox="0 0 4.891 6.984"><svg overflow="visible" x="-.203" y="6.875"><path style="stroke:none" d="m4.203.047.14.062.735-.265s.016-.032.016-.078c0-.016-.016-.032-.016-.032-1-2.203-1.344-3.156-1.531-3.687-.235-.64-.531-1.703-.75-2.14-.328-.626-.578-.782-.906-.782-.516 0-1.016.14-1.454.313l.079.25c.234-.063.546-.125.703-.125.812 0 1.25 1.687 1.297 2.03L.203-.061l.188.124.593-.171c.25-.782.344-.97 1.625-3.672 0-.031.016-.063.063-.063s.062.031.078.063zm0 0"/></svg></svg>