<svg xmlns="http://www.w3.org/2000/svg" xmlns:xlink="http://www.w3.org/1999/xlink" width="64" height="64" viewBox="0 0 5.438 4.766"><svg overflow="visible" x="-.156" y="4.688"><path style="stroke:none" d="M5.594-4.422 5.562-4.5 5-4.672l-.234.11C4.437-3.282 4.078-2.188 3.516-1h-.047c-.266-1.188-.625-2.828-1.172-3.375a1.28 1.28 0 0 0-.844-.313c-.531 0-.953.22-1.297.594l.188.266C.5-3.922.704-4 1.016-4c.734 0 1.156.969 1.39 1.625.266.766.422 1.578.547 2.39l.063.063.562-.312c.203-.5.422-.985.656-1.454zm0 0"/></svg></svg>