<svg xmlns="http://www.w3.org/2000/svg" xmlns:xlink="http://www.w3.org/1999/xlink" width="64" height="64" viewBox="0 0 7.109 4.828"><svg overflow="visible" x="-.672" y="4.703"><path style="stroke:none" d="m6.469-4.203-.032.125c.485.406.688 1.031.688 1.64 0 .876-.453 1.829-1.39 1.829-.938 0-1.079-1.172-1.079-2.016 0-.656 0-1.36.094-1.953l-.063-.063-.75.282v1.875c0 .53-.046 1.234-.374 1.562-.235.25-.547.422-.876.422-.906 0-1.203-1.016-1.203-1.813 0-.906.297-1.593 1.079-2.187l-.157-.14C1.062-4.173.672-2.923.672-1.75c0 .906.531 1.875 1.578 1.875.688 0 1.266-.531 1.703-1h.125c.36.781.64.922 1.203.922 1.453 0 2.5-1.688 2.5-3.094 0-.64-.25-1.265-.75-1.656l-.14.031zm0 0"/></svg></svg>