<svg xmlns="http://www.w3.org/2000/svg" xmlns:xlink="http://www.w3.org/1999/xlink" width="64" height="64" viewBox="0 0 6.625 7.062"><svg overflow="visible" x="-.203" y="6.953"><path style="stroke:none" d="M6.828-5.438c0-.75-.203-1.515-1.062-1.515-1.532 0-2.016 1.984-2.235 3.219h-.078c-.14-1.297-.453-3.22-1.906-3.22-.938 0-1.234.735-1.344 1.423l.188.062c.125-.39.39-.765.859-.765.828 0 1.313 1.015 1.516 1.78.203.735.28 1.5.28 2.25s0 1.5-.046 2.25l.172.063.672-.359c0-3.203.015-4.328 1.281-5.61.203-.187.453-.296.734-.296.516 0 .688.375.75.75zm0 0"/></svg></svg>