<svg xmlns="http://www.w3.org/2000/svg" xmlns:xlink="http://www.w3.org/1999/xlink" width="64" height="64" viewBox="0 0 6.047 6.656"><svg overflow="visible" x=".25" y="4.688"><path style="stroke:none" d="m5.203-4.688-.125.047c-.375.954-1.187 2.547-1.844 3.75l-.078-.03c0-1.454-.234-3.75-1.719-3.75-.765 0-1.187.327-1.687 1.109l.156.109.235-.266c.203-.234.593-.297.859-.297s.516.125.703.313C2.437-2.984 2.734-.391 2.734 0L2.22 1.64c.156.141.344.266.547.329l.343-.25c.047-.516.079-1.078.079-1.594v-.234l.171-.422C4.11-1.875 5-3.11 5.797-4.421zm0 0"/></svg></svg>