<svg xmlns="http://www.w3.org/2000/svg" xmlns:xlink="http://www.w3.org/1999/xlink" width="64" height="64" viewBox="0 0 4.703 8.281"><svg overflow="visible" x="-.734" y="6.922"><path style="stroke:none" d="M4.688 1.36c.328-.423.75-.954.75-1.423 0-.421-.547-.515-.875-.515-.391 0-1.235.11-1.797.11-.657 0-1.188-.391-1.188-1.079 0-1.312 1.219-1.797 2.297-1.797v-.219c-.734-.093-1.594-.296-1.594-1.203 0-1.093 1.125-1.437 1.985-1.53v-.282a5.26 5.26 0 0 1-.97.11c-.5 0-1.015-.126-1.405-.454h-.079l-.28.469c.405.219.874.266 1.312.266l.015.093C2.188-5.828 1.5-5.28 1.5-4.5c0 .703.578.938 1.078 1.047v.062C1.641-3.094.734-2.328.734-1.25c0 .797.625 1.328 1.454 1.328.28 0 1.328-.156 1.843-.156.344 0 .797.094.797.5 0 .25-.187.547-.344.797zm0 0"/></svg></svg>