<svg xmlns="http://www.w3.org/2000/svg" xmlns:xlink="http://www.w3.org/1999/xlink" width="64" height="64" viewBox="0 0 5.906 8.828"><svg overflow="visible" x="-.656" y="6.922"><path style="stroke:none" d="M4.031 1.563c-.062-.5-.11-1-.11-1.485l.095-.094C4.719-.046 5.39-.25 5.875-.75c.484-.469.688-1.156.688-1.828 0-1.235-.688-2.14-2.532-2.14l-.078-.095c0-.687.031-1.359.078-2.03l-.078-.079-.812.422a20.3 20.3 0 0 1 .062 1.688l-.094.093c-.421 0-1.25.219-1.718.688-.5.5-.735 1.203-.735 1.922 0 1.14.5 2.093 2.469 2.156l.078.078c0 .578-.047 1.125-.047 1.688l.156.093zM4-.329l-.078-.094v-3.906l.094-.094c.468.016.921.078 1.265.422.36.375.469.89.469 1.39C5.75-1.562 5.14-.405 4-.327zm-.89-4.063.093.079v3.937l-.078.078c-1.094 0-1.64-1.125-1.64-2.11 0-.562.124-1.155.53-1.562.297-.297.782-.422 1.094-.422zm0 0"/></svg></svg>