<svg xmlns="http://www.w3.org/2000/svg" xmlns:xlink="http://www.w3.org/1999/xlink" width="64" height="64" viewBox="0 0 6.641 7.016"><svg overflow="visible" x="-.266" y="6.875"><path style="stroke:none" d="M6.906-6.563v-.28c-.812.03-1.984.062-2.437.062H2.5c-.75 0-1.5-.047-2.234-.094v.297c.562.172.656.203.734.281.125.11.14.672.14.969v.734c0 1.532-.015 3.047-.077 4.578l.062.063.844-.203c-.016-1.016-.047-2.235-.047-3.047 0-1.031 0-2.031.078-3.031 0-.079.078-.141.14-.141h2.876c.015 0 .125.031.125.125.015 1.078.015 2.281.015 3.36 0 .984 0 1.937-.015 2.921l.14.11.797-.22c-.11-1.343-.125-2.687-.125-4.03 0-1 .016-2.157.063-2.22a.386.386 0 0 1 .14-.062zm0 0"/></svg></svg>