<svg xmlns="http://www.w3.org/2000/svg" xmlns:xlink="http://www.w3.org/1999/xlink" width="64" height="64" viewBox="0 0 4.781 8.75"><svg overflow="visible" x="-.484" y="6.812"><path style="stroke:none" d="M2.5-5.906h-.719v-.703a.207.207 0 0 0-.203-.204.19.19 0 0 0-.187.188v.719H.656c-.094 0-.172.11-.172.187 0 .125.079.219.172.219h.735v5.328c0 .094.093.172.187.172.11 0 .203-.078.203-.203v-1.984c0-.75.328-1.344.922-1.75.203-.11.375-.126.61-.157 1 .016 1.546 1 1.546 1.907 0 .578-.28 1.187-.468 1.734-.188.516-.47 1.11-.47 1.64 0 .72.72.75 1.063.75h.063c.094 0 .219-.093.219-.218-.016-.11-.141-.188-.22-.188H5c-.328 0-.656-.031-.656-.343 0-.407.203-.907.36-1.36.265-.75.562-1.39.562-2.015 0-1.11-.766-2.313-1.954-2.313-.265 0-.578.078-.812.219-.297.14-.531.39-.719.687V-5.5h.75c.047 0 .156-.078.156-.219 0-.125-.109-.187-.187-.187zm0 0"/></svg></svg>