<svg xmlns="http://www.w3.org/2000/svg" xmlns:xlink="http://www.w3.org/1999/xlink" width="64" height="64" viewBox="0 0 7.594 8.359"><svg overflow="visible" x="-.344" y="6.672"><path style="stroke:none" d="M.344.36c0 .734.61 1.328 1.344 1.328A1.33 1.33 0 0 0 3.03.359c0-1.718-1.719-2.875-1.719-4.453 0-1.297 1.313-2.187 2.829-2.187 1.515 0 2.843.89 2.843 2.187C6.984-2.516 5.25-1.359 5.25.36c0 .735.61 1.329 1.344 1.329A1.33 1.33 0 0 0 7.937.359a.207.207 0 0 0-.203-.203.207.207 0 0 0-.203.203.93.93 0 0 1-.937.938.94.94 0 0 1-.938-.938c0-1.578 1.735-2.718 1.735-4.453 0-1.593-1.61-2.578-3.25-2.578-1.641 0-3.235.984-3.235 2.578 0 1.266.922 2.235 1.422 3.282a1.267 1.267 0 0 0-.64-.172C.953-.984.343-.375.343.359zm1.344.937A.94.94 0 0 1 .75.359a.94.94 0 0 1 .938-.937.93.93 0 0 1 .937.937.93.93 0 0 1-.938.938zm0 0"/></svg></svg>