<svg xmlns="http://www.w3.org/2000/svg" xmlns:xlink="http://www.w3.org/1999/xlink" width="64" height="64" viewBox="0 0 4.297 7.5"><svg overflow="visible" x="-.547" y="5.359"><path style="stroke:none" d="M4.453-3.203c0 .453-.203.906-.531 1.234-.313.313-.766.5-1.219.5a1.79 1.79 0 0 1-1.234-.5 1.765 1.765 0 0 1-.516-1.234c0-.469.188-.906.516-1.25.328-.328.765-.5 1.234-.5.453 0 .906.172 1.219.5.328.344.531.781.531 1.25zM1.172-4.72c-.39.39-.625.938-.625 1.516 0 .562.234 1.11.625 1.515.36.36.828.563 1.328.61V.234H1.203A.207.207 0 0 0 1 .437c0 .11.094.204.203.204H2.5v1.296c0 .11.094.204.203.204.11 0 .203-.094.203-.204V.641h1.297c.11 0 .188-.094.188-.204 0-.109-.079-.203-.188-.203H2.906v-1.312a2.14 2.14 0 0 0 1.313-.61 2.21 2.21 0 0 0 .625-1.515c0-.578-.235-1.125-.625-1.516a2.092 2.092 0 0 0-1.516-.64c-.562 0-1.125.218-1.531.64zm0 0"/></svg></svg>