<svg xmlns="http://www.w3.org/2000/svg" xmlns:xlink="http://www.w3.org/1999/xlink" width="64" height="64" viewBox="0 0 7.313 6.922"><svg overflow="visible" x="-.328" y="6.922"><path style="stroke:none" d="M5.125-3.266a3.795 3.795 0 0 0 2.234 3.25c.032 0 .047.016.079.016a.207.207 0 0 0 .203-.203c0-.078-.047-.14-.125-.172a3.38 3.38 0 0 1 0-6.172c.078-.031.125-.094.125-.172a.207.207 0 0 0-.204-.203c-.03 0-.046 0-.078.016a3.776 3.776 0 0 0-2.234 3.25H2.844a3.788 3.788 0 0 0-2.219-3.25c-.031-.016-.063-.016-.094-.016-.094 0-.203.078-.203.188 0 .078.047.156.125.187a3.38 3.38 0 0 1 0 6.172c-.078.031-.125.094-.125.172 0 .11.094.203.203.203.031 0 .063-.016.094-.016a3.808 3.808 0 0 0 2.219-3.25zm0 0"/></svg></svg>