<svg xmlns="http://www.w3.org/2000/svg" xmlns:xlink="http://www.w3.org/1999/xlink" width="64" height="64" viewBox="0 0 11.219 8.891"><svg overflow="visible" x="-.344" y="6.953"><path style="stroke:none" d="M8.031.703c-.5.36-1.031.625-1.625.86a.183.183 0 0 0-.14.171c0 .11.109.204.203.204.015 0 .047 0 .078-.016A7.202 7.202 0 0 0 8.297 1c.14.11.281.203.437.281.032 0 .047.016.079.016.093 0 .203-.094.203-.203A.188.188 0 0 0 8.89.906c-.094-.031-.172-.094-.25-.14a7.621 7.621 0 0 0 2.921-6.016c0-.984-.859-1.703-1.828-1.703-.109 0-.218.016-.328.031a2.04 2.04 0 0 0-1.406.969 1.677 1.677 0 0 0-1.516-.969c-.656 0-1.203.36-1.484.875a1.696 1.696 0 0 0-2.969 0 1.677 1.677 0 0 0-1.484-.875.207.207 0 0 0-.203.203c0 .11.094.203.203.203.703 0 1.281.563 1.281 1.266v5.047c0 .11.094.203.203.203.11 0 .203-.094.203-.203V-5.25c0-.703.579-1.266 1.282-1.266.718 0 1.28.563 1.28 1.266v5.047c0 .11.095.203.204.203.11 0 .188-.094.188-.203V-5.25c0-.703.578-1.266 1.296-1.266A1.26 1.26 0 0 1 7.75-5.25v5.047c0 .328.11.656.281.906zM8.36.47a1.217 1.217 0 0 1-.203-.672V-5.22A1.611 1.611 0 0 1 9.47-6.53c.094-.016.187-.016.265-.016.766 0 1.438.563 1.438 1.297A7.24 7.24 0 0 1 8.359.469zm0 0"/></svg></svg>