<svg xmlns="http://www.w3.org/2000/svg" xmlns:xlink="http://www.w3.org/1999/xlink" width="64" height="64" viewBox="0 0 9.672 6.234"><svg overflow="visible" x="-.344" y="6.235"><path style="stroke:none" d="M6.813-4.172c.234.297.359.656.359 1.047 0 1.047-.922 1.828-1.984 1.828-1.079 0-2-.781-2-1.828 0-.39.124-.75.359-1.047-1.266.547-2.156 1.719-2.156 3.14V0h7.593v-1.031c0-1.422-.906-2.594-2.171-3.14zm-.079 1.047c0-.797-.718-1.375-1.546-1.375-.829 0-1.563.578-1.563 1.375 0 .813.734 1.39 1.563 1.39.828 0 1.546-.577 1.546-1.39zM2.547-4.828c.86-.219 1.734-.36 2.64-.36.891 0 1.766.141 2.625.36l-.218.672 2.078.703.344-.703v-1.032c-1.579-.53-3.172-1.046-4.829-1.046-1.671 0-3.265.515-4.843 1.046v1.032l.344.703 2.078-.703zm0 0"/></svg></svg>