<svg xmlns="http://www.w3.org/2000/svg" xmlns:xlink="http://www.w3.org/1999/xlink" width="64" height="64" viewBox="0 0 10.797 4.609"><svg overflow="visible" x="-.344" y="4.453"><path style="stroke:none" d="M8.766-2.375c.234.11.484.156.718.156.891 0 1.657-.719 1.657-1.64 0-.094-.016-.172-.032-.266-.015-.11-.093-.156-.187-.156h-.031c-.11 0-.172.11-.172.203v.016c0 .078.015.14.015.203 0 .703-.593 1.25-1.25 1.25-.187 0-.375-.047-.546-.125C8.172-3.11 7.89-4.297 6.89-4.297l-.125.016C5.719-4.203 5.5-2.828 4.687-2.766H4.61c-.75 0-1.125-1.125-1.89-1.515A1.788 1.788 0 0 0 2-4.453c-.89 0-1.656.719-1.656 1.656 0 .078 0 .172.015.266a.203.203 0 0 0 .204.172h.03a.198.198 0 0 0 .157-.188v-.047C.734-2.656.734-2.719.734-2.78c0-.703.594-1.25 1.266-1.25.172 0 .36.031.547.125.765.375 1.031 1.547 2.047 1.547h.125C5.75-2.453 5.984-3.813 6.78-3.891h.078c.75 0 1.125 1.125 1.907 1.516zm0 2.36c.234.109.484.171.718.171.891 0 1.657-.719 1.657-1.656 0-.078-.016-.172-.032-.266a.216.216 0 0 0-.203-.171h-.015c-.11.03-.172.109-.172.218v.016c0 .062.015.14.015.203 0 .719-.593 1.25-1.25 1.25-.187 0-.375-.047-.546-.125C8.171-.75 7.89-1.938 6.874-1.938h-.11C5.72-1.827 5.5-.468 4.689-.405H4.61c-.75 0-1.125-1.125-1.89-1.5A1.563 1.563 0 0 0 2-2.078c-.89 0-1.656.719-1.656 1.64 0 .094 0 .172.015.266.016.11.11.172.204.172h.03A.186.186 0 0 0 .75-.188v-.046C.734-.297.734-.375.734-.422A1.27 1.27 0 0 1 2-1.688c.172 0 .36.047.547.125.765.391 1.031 1.579 2.047 1.579L4.719 0C5.75-.094 5.984-1.453 6.78-1.531h.078c.75 0 1.125 1.125 1.907 1.515zm0 0"/></svg></svg>