<svg xmlns="http://www.w3.org/2000/svg" xmlns:xlink="http://www.w3.org/1999/xlink" width="64" height="64" viewBox="0 0 6.078 7.766"><svg overflow="visible" x="-.813" y="6.344"><path style="stroke:none" d="M6.61-.563c.03.032.062.032.093.032.078 0 .125-.047.172-.11 0-.03.016-.062.016-.093v-5.407c0-.03-.016-.062-.016-.093-.047-.063-.11-.11-.172-.11-.047 0-.062.016-.094.032L.938-3.626c-.063.031-.125.11-.125.188s.062.14.125.171zm-.126-.5-5-2.375 5-2.39zm.22 2.485c.109 0 .187-.094.187-.203a.18.18 0 0 0-.188-.188H1.016c-.11 0-.204.078-.204.188s.094.203.204.203zm0 0"/></svg></svg>