<svg xmlns="http://www.w3.org/2000/svg" xmlns:xlink="http://www.w3.org/1999/xlink" width="64" height="64" viewBox="0 0 5.922 5.875"><svg overflow="visible" x="-.625" y="6.344"><path style="stroke:none" d="m.969-.516 2.625-2.609 2.61 2.61a.252.252 0 0 0 .14.046c.11 0 .203-.094.203-.203v-5.484c0-.094-.094-.188-.203-.188a.252.252 0 0 0-.14.047l-2.61 2.61-2.625-2.61c-.031-.031-.078-.047-.14-.047-.095 0-.204.094-.204.188v5.484c0 .11.094.203.203.203.063 0 .11-.015.14-.047zm5.187-.625L3.875-3.406l2.281-2.25zM1.031-5.656l2.282 2.25L1.03-1.141zm0 0"/></svg></svg>