<svg xmlns="http://www.w3.org/2000/svg" xmlns:xlink="http://www.w3.org/1999/xlink" width="4.896" height="6.313" viewBox="0 0 3.672 4.734"><svg overflow="visible" x="148.712" y="134.765" transform="translate(-149.259 -130.03)"><path style="stroke:none" d="M2.61-.828h1.609v-.688c-.532 0-.625-.578-.625-1.203 0-.14.015-.265.015-.484 0-.797-.484-1.531-1.234-1.531-.734 0-1.203.734-1.203 1.515v.5c0 .625-.078 1.203-.625 1.203v.688h1.625a.441.441 0 0 0-.235.39c0 .235.204.438.438.438a.45.45 0 0 0 .453-.438.46.46 0 0 0-.219-.39zm0 0"/></svg></svg>