<svg xmlns="http://www.w3.org/2000/svg" xmlns:xlink="http://www.w3.org/1999/xlink" width="64" height="64" viewBox="0 0 6.203 6.203"><svg overflow="visible" x="-.547" y="6.203"><path style="stroke:none" d="M4.453-2.14a1.757 1.757 0 0 1-1.75 1.734 1.79 1.79 0 0 1-1.234-.5 1.765 1.765 0 0 1-.516-1.235c0-.468.188-.906.516-1.234a1.738 1.738 0 0 1 1.234-.516c.453 0 .906.188 1.235.516.312.328.515.766.515 1.234zM1.172-3.673a2.22 2.22 0 0 0-.625 1.531c0 .563.234 1.11.625 1.516.406.39.969.625 1.531.625.563 0 1.11-.234 1.516-.625a2.21 2.21 0 0 0 .625-1.516 2.1 2.1 0 0 0-.5-1.375l2-2v1.454c0 .109.093.187.203.187.11 0 .203-.078.203-.188V-6a.19.19 0 0 0-.063-.14c-.03-.048-.078-.063-.14-.063H4.609c-.109 0-.187.094-.187.203 0 .11.078.203.187.203h1.47l-2.016 2c-.375-.312-.86-.5-1.36-.5-.562 0-1.125.234-1.531.625zm0 0"/></svg></svg>