<svg xmlns="http://www.w3.org/2000/svg" xmlns:xlink="http://www.w3.org/1999/xlink" width="64" height="64" viewBox="0 0 4.297 9.453"><svg overflow="visible" x="-.547" y="7.312"><path style="stroke:none" d="M3.922-4.453c.328.344.531.781.531 1.25 0 .453-.203.906-.531 1.234-.313.313-.766.5-1.219.5a1.79 1.79 0 0 1-1.234-.5 1.765 1.765 0 0 1-.516-1.234c0-.469.188-.906.516-1.25.328-.328.765-.5 1.234-.5.453 0 .906.172 1.219.5zm-2.75 2.766c.36.359.828.562 1.328.609V.234H1.203A.207.207 0 0 0 1 .437c0 .11.094.204.203.204H2.5v1.296c0 .11.094.204.203.204.11 0 .203-.094.203-.204V.641h1.297c.11 0 .188-.094.188-.204 0-.109-.079-.203-.188-.203H2.906v-1.312a2.14 2.14 0 0 0 1.313-.61 2.21 2.21 0 0 0 .625-1.515 2.152 2.152 0 0 0-1.25-1.953 2.124 2.124 0 0 0 1.25-1.953.207.207 0 0 0-.203-.204c-.11 0-.188.094-.188.204 0 .968-.797 1.75-1.75 1.75-.969 0-1.75-.782-1.75-1.75a.197.197 0 0 0-.203-.204.207.207 0 0 0-.203.204c0 .875.515 1.609 1.25 1.953a2.152 2.152 0 0 0-1.25 1.953c0 .562.234 1.11.625 1.515zm0 0"/></svg></svg>