<svg xmlns="http://www.w3.org/2000/svg" xmlns:xlink="http://www.w3.org/1999/xlink" width="64" height="64" viewBox="0 0 10.766 5.031"><svg overflow="visible" x="-.359" y="5.031"><path style="stroke:none" d="M.563-.406a.207.207 0 0 0-.204.203c0 .11.094.203.204.203h10.359c.11 0 .203-.094.203-.203a.207.207 0 0 0-.203-.203zm7.296-1.735v.032c0 .093.079.187.188.203h2.875c.11 0 .203-.094.203-.203a.207.207 0 0 0-.203-.204h-2.64v-.046c0-.704-.25-1.407-.75-1.938-.47-.484-1.126-.734-1.798-.734-.656 0-1.296.25-1.765.734-.516.531-.75 1.234-.75 1.938v.046H.563a.207.207 0 0 0-.204.204c0 .109.094.203.204.203h2.89a.216.216 0 0 0 .172-.203v-.25c0-.625.203-1.22.625-1.641a2.07 2.07 0 0 1 1.484-.625c.579 0 1.11.219 1.5.625.438.422.641 1.016.641 1.64 0 .079 0 .141-.016.22zm0 0"/></svg></svg>