<svg xmlns="http://www.w3.org/2000/svg" xmlns:xlink="http://www.w3.org/1999/xlink" width="2.5pt" height="8.604" viewBox="0 0 2.5 6.453"><svg overflow="visible" x="148.712" y="134.765" transform="translate(-148.306 -130.359)"><path style="stroke:none" d="m2.094-4.406-1.516.11v.312c.766 0 .86.062.86.562V.516c0 .453-.094 1.312-.735 1.312-.047 0-.281 0-.531-.14a.446.446 0 0 0 .344-.438C.516.984.344.781.062.781a.451.451 0 0 0-.468.469c0 .516.562.797 1.14.797.735 0 1.36-.64 1.36-1.547zm0 0"/></svg></svg>