<svg xmlns="http://www.w3.org/2000/svg" xmlns:xlink="http://www.w3.org/1999/xlink" width="64" height="64" viewBox="0 0 8.859 8.047"><svg overflow="visible" x="-.547" y="7.485"><path style="stroke:none" d="M1.828-7.25c.25 0 .438.219.578.484a2.9 2.9 0 0 1 .281 1.297c0 .469-.078.907-.28 1.297-.141.281-.329.5-.579.5-.219 0-.375-.203-.5-.484-.156-.407-.156-.844-.156-1.313 0-.453 0-.89.156-1.297.125-.265.281-.484.5-.484zm3.484 4.016c.25 0 .438.218.579.5.203.375.265.828.265 1.28 0 .454-.062.891-.265 1.282-.141.281-.329.5-.579.5-.218 0-.375-.203-.5-.484-.156-.406-.156-.844-.156-1.297 0-.453 0-.906.157-1.297.125-.281.28-.484.5-.484zm0-.22c-.39 0-.718.267-.921.61-.25.406-.36.906-.36 1.39 0 .485.11.97.36 1.407.203.313.53.61.921.61.375 0 .641-.329.797-.625.22-.422.297-.922.297-1.391 0-.484-.078-.953-.297-1.39-.156-.313-.421-.61-.796-.61zm2.985.22c.25 0 .453.218.578.5.203.375.281.828.281 1.28 0 .454-.078.891-.281 1.282-.125.281-.328.5-.578.5-.219 0-.375-.203-.485-.484-.171-.406-.171-.844-.171-1.297 0-.453 0-.906.171-1.297.11-.281.266-.484.485-.484zm0-.22c-.406 0-.719.267-.922.61-.25.406-.36.906-.36 1.39 0 .485.11.97.36 1.407.203.313.516.61.922.61.39 0 .64-.329.797-.625.234-.422.312-.922.312-1.391 0-.484-.078-.953-.312-1.39-.156-.313-.406-.61-.797-.61zM2.734-6.608c.282.171.61.25.922.25.328 0 .64-.094.906-.266L1.392.265c0 .032-.016.047-.016.079 0 .11.094.219.203.219.078 0 .14-.047.188-.125l3.5-7.641c.015-.031.015-.047.015-.078a.207.207 0 0 0-.203-.203c-.078 0-.14.062-.172.125-.234.515-.75.78-1.265.78a1.56 1.56 0 0 1-1.204-.577c-.156-.188-.359-.328-.609-.328-.406 0-.719.296-.906.609-.281.438-.375.922-.375 1.406 0 .5.094 1 .375 1.422.187.313.5.61.906.61.39 0 .64-.329.797-.626.219-.437.313-.921.313-1.406 0-.39-.063-.765-.204-1.14zm0 0"/></svg></svg>