<svg xmlns="http://www.w3.org/2000/svg" xmlns:xlink="http://www.w3.org/1999/xlink" width="8.104" height="7.729" viewBox="0 0 6.078 5.797"><svg overflow="visible" x="148.712" y="134.765" transform="translate(-149.54 -129.374)"><path style="stroke:none" d="M.828-5.188V.204c0 .031.016.063.016.094.047.078.11.11.187.11.032 0 .063 0 .078-.016l5.672-2.704c.078-.03.125-.093.125-.171 0-.079-.047-.141-.125-.188L1.11-5.375c-.015-.016-.046-.016-.078-.016a.204.204 0 0 0-.187.11c0 .031-.016.062-.016.093zm.39 5.079v-4.766L6.235-2.5zm0 0"/></svg></svg>