<svg xmlns="http://www.w3.org/2000/svg" xmlns:xlink="http://www.w3.org/1999/xlink" width="64" height="64" viewBox="0 0 4.313 5.047"><svg overflow="visible" x="-.641" y="4.688"><path style="stroke:none" d="M3.281-.906v.453l.453.719 1.22-1.094-.063-.125c-.141.078-.25.14-.47.219l-.359-.454v-1.359c0-.687.047-1.36.141-2.031l-.078-.063-.672.344a2.53 2.53 0 0 1-.922-.39L.844-3.641A10.41 10.41 0 0 0 .64-1.562c0 .312 0 .609.03.921.282.344.563.688.86 1zm0-.281c-.594.406-.984.64-1.14.64-.157 0-.579-.547-.672-.656-.016-.266-.016-.531-.016-.797 0-.61 0-1.484.406-1.906.454.14.938.265 1.407.265zm0 0"/></svg></svg>