<svg xmlns="http://www.w3.org/2000/svg" xmlns:xlink="http://www.w3.org/1999/xlink" width="64" height="64" viewBox="0 0 6.625 10.875"><svg overflow="visible" x="-.563" y="7.594"><path style="stroke:none" d="M3.438 1.14c-.063.11-.063.126-.079.126-.015 0-.03 0-.093-.047-.22-.11-.61-.297-1.047-.297-.922 0-1.656.703-1.656 1.625 0 .219.062.297.14.297.11 0 .14-.172.14-.219.048-.844.876-1.14 1.376-1.14.375 0 .687.124.922.25-.11.218-.344.656-.5 1-.063.109-.157.296-.157.343 0 .11.063.203.204.203.109 0 .109-.015.218-.219.078-.109.422-.828.578-1.124.485.296.61.421.907.578.468.25.796.343 1.14.343.938 0 1.657-.718 1.657-1.609 0-.219-.063-.313-.141-.313-.11 0-.125.172-.14.313-.048.578-.673 1.047-1.376 1.047-.531 0-.984-.235-1.828-.797l.61-1.172c.062-.125.062-.125.078-.125 0 0 .03 0 .093.047.204.11.594.281 1.047.281.938 0 1.657-.719 1.657-1.61 0-.202-.063-.312-.141-.312-.11 0-.125.172-.14.329C6.858-.5 6.233-.016 5.53-.016c-.375 0-.703-.14-.922-.25l.5-1c.047-.109.157-.296.157-.343a.197.197 0 0 0-.204-.204c-.109 0-.125.016-.234.22-.062.109-.406.827-.578 1.109-.469-.282-.594-.407-.906-.579-.469-.25-.797-.328-1.125-.328C1.297-1.39.563-.703.563.234c0 .22.062.297.14.297.11 0 .14-.187.14-.234.048-.828.876-1.14 1.376-1.14.531 0 .984.25 1.812.812zm2.53-5.952h.579c.156 0 .375 0 .375-.188 0-.125-.094-.188-.156-.188-.063-.03-.329-.03-.516-.03-4.36 0-4.828-1.157-5.031-2.204a.198.198 0 0 0-.188-.172.197.197 0 0 0-.203.203c0 .016.047.875.735 1.485.578.515 1.343.765 2.03.89V-5c-1.265.219-1.812.688-2.015.86-.687.577-.75 1.452-.75 1.515 0 .125.094.203.203.203.11 0 .172-.078.188-.172.11-.562.281-1.515 2.172-1.969.78-.171 1.937-.25 2.578-.25zm0 0"/></svg></svg>