<svg xmlns="http://www.w3.org/2000/svg" xmlns:xlink="http://www.w3.org/1999/xlink" width="64" height="64" viewBox="0 0 2.047 8.719"><svg overflow="visible" x=".094" y="6.703"><path style="stroke:none" d="M1.672.438c.172-.188.219-.454.219-.704.046-1.265.062-3.421.062-3.937-.219-.188-.422-.375-.64-.531L.25-3.781l.14.125.282-.188a.165.165 0 0 1 .078-.031c.078 0 .266.203.328.36.094.312.094 1 .094 1.484 0 1.328-.016 2.734-.438 3.156-.25.266-.53.484-.828.703l.157.188A11.04 11.04 0 0 0 1.671.437zm.156-6.563a5.938 5.938 0 0 1-.516-.578l-.609.562c.172.204.36.454.547.61zm0 0"/></svg></svg>