<svg xmlns="http://www.w3.org/2000/svg" xmlns:xlink="http://www.w3.org/1999/xlink" width="64" height="64" viewBox="0 0 7.281 6.859"><svg overflow="visible" x="-.234" y="5.922"><path style="stroke:none" d="M1.281-5.39a.524.524 0 1 0-1.047 0c0 .28.235.53.516.53.297 0 .531-.25.531-.53zM7.516.405a.537.537 0 0 0-.532-.531.548.548 0 0 0-.53.531c0 .297.25.531.53.531a.527.527 0 0 0 .532-.53zM.922-1.719c-.172 0-.36 0-.36.188 0 .203.172.203.344.203h5.938c.172 0 .343 0 .343-.203 0-.188-.171-.188-.359-.188zM.906-3.656c-.172 0-.344 0-.344.203 0 .187.188.187.36.187h5.906c.188 0 .36 0 .36-.187 0-.203-.172-.203-.344-.203zm0 0"/></svg></svg>