<svg xmlns="http://www.w3.org/2000/svg" xmlns:xlink="http://www.w3.org/1999/xlink" width="64" height="64" viewBox="0 0 6.234 7.25"><svg overflow="visible" x="-.172" y="7.031"><path style="stroke:none" d="M1.14-2.188c.126-.046.47-.265.47-.406 0-.062-.048-.062-.11-.062-.344 0-1.328.422-1.328 1.422C.172-.516.984.219 2.203.219 3.828.219 5.72-.906 5.72-2.266c0-.937-1-1.406-1.813-1.765-.703-.313-1.156-.719-1.156-1.297 0-.203.094-.594.406-.86.297-.265.844-.296.985-.296.109 0 .53.015.968.203.188.093.438.203.438.64 0 .141 0 .188-.031.297-.016.032-.016.063-.016.094 0 .078.047.078.094.078.125 0 .375-.11.562-.266.14-.109.25-.234.25-.625 0-.484-.265-.625-.531-.75-.469-.218-.938-.218-1.063-.218-1.312 0-2.906 1-2.906 2.14 0 .829.86 1.235 1.344 1.438.703.328 1.61.781 1.61 1.625 0 .656-.485 1.5-2 1.5-1.016 0-1.829-.656-1.829-1.344 0-.172.047-.36.11-.516zm0 0"/></svg></svg>