<svg xmlns="http://www.w3.org/2000/svg" xmlns:xlink="http://www.w3.org/1999/xlink" width="64" height="64" viewBox="0 0 6.094 7.703"><svg overflow="visible" x="-.828" y="6.344"><path style="stroke:none" d="M6.547-3.313c.11.047.125.047.172.047.078 0 .203-.046.203-.187 0-.125-.078-.156-.203-.219l-5.5-2.594c-.125-.078-.172-.078-.188-.078a.207.207 0 0 0-.203.203c0 .125.078.157.203.22zm.172 2.016c.156-.062.203-.14.203-.219 0-.078-.031-.156-.203-.234l-5.5-2.594c-.125-.062-.172-.062-.188-.062-.078 0-.203.062-.203.203 0 .125.078.156.203.219L6.25-1.531 1.016.953c-.094.047-.188.11-.188.219 0 .11.094.187.203.187.032 0 .047 0 .172-.062zm0 0"/></svg></svg>