<svg xmlns="http://www.w3.org/2000/svg" xmlns:xlink="http://www.w3.org/1999/xlink" width="64" height="64" viewBox="0 0 6.641 8.859"><svg overflow="visible" x="-.828" y="6.922"><path style="stroke:none" d="M6.016-6.11a3.537 3.537 0 0 0 1.453 1v-.296a3.06 3.06 0 0 1-1.657-1.516 3.133 3.133 0 0 1-1.671 1.516C3.437-5.688 2.828-6.22 2.5-6.922c-.406.766-1 1.266-1.672 1.516v.297a3.625 3.625 0 0 0 1.453-1v7.671c0 .188 0 .375.203.375.204 0 .204-.156.204-.343v-7.719c.218.234.687.734 1.453 1.016.78-.282 1.25-.782 1.468-1.016v7.719c0 .187 0 .343.204.343.203 0 .203-.187.203-.375zm0 0"/></svg></svg>