<svg xmlns="http://www.w3.org/2000/svg" xmlns:xlink="http://www.w3.org/1999/xlink" width="64" height="64" viewBox="0 0 6.094 10.734"><svg overflow="visible" x="-.828" y="7.5"><path style="stroke:none" d="M3.547-1.734c.687 0 1.484 0 2.406-.782a2.769 2.769 0 0 0 .969-2.093c0-1.625-1.375-2.891-3.063-2.891H1.172c-.172 0-.344 0-.344.188 0 .203.172.203.344.203h2.656c1.61 0 2.688 1.171 2.688 2.484 0 .75-.329 1.375-.813 1.797-.766.687-1.61.687-1.984.687l.187-.453c.063-.14.156-.406.156-.453 0-.094-.062-.187-.187-.187-.14 0-.172.093-.203.187-.219.485-.219.5-.375.906H1.172c-.172 0-.344 0-.344.204 0 .203.172.203.344.203h1.953L2.5-.204H1.172C1-.203.828-.203.828 0c0 .203.172.203.344.203h1.156l-.625 1.531h-.531c-.172 0-.344 0-.344.204 0 .203.203.203.25.203h.453l-.172.468c-.062.125-.171.391-.171.438 0 .11.093.187.203.187.125 0 .14-.046.265-.312l.313-.781h4.593c.172 0 .36 0 .36-.204 0-.203-.188-.203-.36-.203H2.141l.625-1.53h3.796c.172 0 .36 0 .36-.204 0-.203-.188-.203-.36-.203h-3.64zm0 0"/></svg></svg>