<svg xmlns="http://www.w3.org/2000/svg" xmlns:xlink="http://www.w3.org/1999/xlink" width="64" height="64" viewBox="0 0 6.094 7.703"><svg overflow="visible" x="-.828" y="6.344"><path style="stroke:none" d="M6.734-5.922c.11-.062.188-.11.188-.219a.207.207 0 0 0-.203-.203c-.047 0-.14.047-.172.063L1.03-3.671c-.172.077-.203.14-.203.218 0 .11.094.187.203.187.047 0 .078-.015.157-.046zm-.187 7.219c.125.062.14.062.172.062.11 0 .203-.078.203-.187 0-.14-.094-.172-.203-.219L1.5-1.516l5.234-2.468c.11-.063.188-.11.188-.22 0-.14-.14-.202-.203-.202-.047 0-.14.047-.172.062L1.03-1.75c-.172.078-.203.156-.203.234 0 .079.047.157.203.22zm0 0"/></svg></svg>