<svg xmlns="http://www.w3.org/2000/svg" xmlns:xlink="http://www.w3.org/1999/xlink" width="64" height="64" viewBox="0 0 4.953 7.141"><svg overflow="visible" x="-.563" y="7.141"><path style="stroke:none" d="M5.453-6.734c.063-.141.063-.188.063-.204 0-.109-.079-.203-.188-.203-.14 0-.172.079-.219.204L3.047-2.595.984-6.954C.922-7.062.875-7.14.75-7.14c-.11 0-.188.094-.188.204 0 .062.032.125.063.171l2.203 4.641c.047.094.094.188.219.188s.156-.094.219-.204zM.922-.406c-.172 0-.36 0-.36.203S.75 0 .922 0h4.25c.172 0 .344 0 .344-.203s-.172-.203-.344-.203zm0 0"/></svg></svg>