<svg xmlns="http://www.w3.org/2000/svg" xmlns:xlink="http://www.w3.org/1999/xlink" width="64" height="64" viewBox="0 0 6.094 9.078"><svg overflow="visible" x="-.828" y="7.031"><path style="stroke:none" d="m4.922-4.11 1.797-.843c.156-.078.203-.14.203-.219 0-.14-.125-.203-.203-.203a.35.35 0 0 0-.157.047l-1.343.64.984-1.953c.078-.14.078-.156.078-.203 0-.11-.093-.187-.203-.187-.11 0-.14.047-.203.187l-1.25 2.438-3.61 1.687c-.124.063-.187.11-.187.219 0 .14.078.172.203.234l2.016.954L1.609 1.53c-.14.25-.14.266-.14.328 0 .11.093.188.203.188 0 0 .078 0 .125-.063.094-.093 1.39-2.687 1.61-3.125L6.108.125l.36.172c.187.094.203.094.25.094.078 0 .203-.063.203-.204 0-.093-.094-.156-.11-.171C6.688-.047 4.095-1.25 3.595-1.5zm-.578.282-1.11 2.156L1.5-2.5zm0 0"/></svg></svg>