<svg xmlns="http://www.w3.org/2000/svg" xmlns:xlink="http://www.w3.org/1999/xlink" width="64" height="64" viewBox="0 0 3.188 6.828"><svg overflow="visible" x=".062" y="4.688"><path style="stroke:none" d="M2.89.984A6.38 6.38 0 0 0 3.126-.64c0-.453-.031-.906-.14-1.328-.329-.203-.735-.36-1.11-.5l.813-.86a.606.606 0 0 0 .14-.358c0-.422-.578-.782-1.015-1-.532.359-1 .78-1.454 1.234l.11.11c.219-.173.64-.532.844-.532.265 0 .718.344.718.734 0 .235-.172.407-.344.563-.234.219-.703.672-.718.672v.11c.39.03.75.171 1.094.327-.454.453-.844.844-1.266 1.344C.469.25 0 .891-.063 1.156c.11.657.954.985 1.594.985zm-.64-2.28c.11.359.14.734.14 1.093 0 .734-.156 1.734-.562 1.734-.484 0-1.11-.39-1.11-.797 0-.703.891-1.484 1.532-2.03zm0 0"/></svg></svg>