<svg xmlns="http://www.w3.org/2000/svg" xmlns:xlink="http://www.w3.org/1999/xlink" width="64" height="64" viewBox="0 0 5.203 8.656"><svg overflow="visible" x="-.109" y="7.265"><path style="stroke:none" d="m1.797-3.078.11.11c.28-.141.593-.22.921-.22.844 0 1.578.407 1.578 1.61 0 1.125-.453 2.672-1.828 2.672-.422 0-.61-.172-.61-.672 0-.672-.062-.797-.484-.797C1-.375.516-.062.11.265l.125.157C.391.297.641.156.75.156c.422 0 .36.406.36 1.125.327.078.64.11.968.11.89 0 1.75-.344 2.438-.907.484-.734.796-1.578.796-2.453 0-.375-.046-.75-.156-1.11-.343-.515-.984-.687-1.593-.687-.157 0-.391.032-.547.063l-.063-.031c.813-.485 1.719-1.204 1.719-2.204 0-.562-.469-.796-1.11-.796-.343 0-.828.046-1.062.046-.328 0-.828 0-.828-.343 0-.078.047-.172.078-.235h-.156l-.688.954c0 .375.406.421.688.421.234 0 1.015-.093 1.484-.093.344 0 .75.187.75.578 0 .828-.781 1.64-1.594 1.703zm0 0"/></svg></svg>