<svg xmlns="http://www.w3.org/2000/svg" xmlns:xlink="http://www.w3.org/1999/xlink" width="64" height="64" viewBox="0 0 6.094 7.703"><svg overflow="visible" x="-.828" y="6.344"><path style="stroke:none" d="M1.031-3.672c-.172.078-.203.14-.203.219 0 .078.047.156.203.219L6.547-.641c.125.079.14.079.172.079.203 0 .203-.188.203-.36v-5.062c0-.172 0-.36-.203-.36-.047 0-.14.047-.172.063zm.469.219 5.016-2.375v4.75zM1.187.969c-.171 0-.359 0-.359.203 0 .187.172.187.344.187h5.39c.172 0 .36 0 .36-.187 0-.203-.188-.203-.36-.203zm0 0"/></svg></svg>