<svg xmlns="http://www.w3.org/2000/svg" xmlns:xlink="http://www.w3.org/1999/xlink" width="64" height="64" viewBox="0 0 10.859 7.531"><svg overflow="visible" x="-.266" y="7.031"><path style="stroke:none" d="M3.844-5.578c.265 1.297.703 3.437 1.265 4.594.22.421.329.64.438.64.031 0 .062 0 .234-.172.766-.734 1.282-1.312 1.969-2.109l2.188-2.531c-.141.843-.5 3.078-.5 4.25 0 .265.015.531.046.797 0 .109.047.406.47.406.421 0 1.171-.453 1.171-.64 0-.063-.063-.079-.094-.079-.125 0-.328.094-.437.156-.235-.03-.25-.187-.281-.406-.032-.328-.032-.625-.032-.656 0-1.11.438-4.14.735-5.375a.558.558 0 0 0 .015-.172c0-.031 0-.14-.078-.14-.031 0-.047 0-.234.234-.938 1.125-3.844 4.625-4.844 5.453-.25-.531-.422-.906-.766-2.297a33.598 33.598 0 0 1-.64-2.922c-.016-.14-.078-.406-.078-.437-.032-.047-.079-.047-.11-.047-.172 0-.593.218-.625.437-.125.828-.312 2.14-1.015 4.047C1.844-.422 1.625-.422 1.437-.422c-.125 0-.5-.078-.718-.281C.672-.75.64-.75.625-.75c-.14 0-.36.453-.36.734 0 .079 0 .204.329.375.25.125.484.141.531.141.625 0 1.203-1.422 1.406-1.938C3-2.563 3.562-4.14 3.844-5.577zm0 0"/></svg></svg>