<svg xmlns="http://www.w3.org/2000/svg" xmlns:xlink="http://www.w3.org/1999/xlink" width="64" height="64" viewBox="0 0 8.844 6.656"><svg overflow="visible" x="-.563" y="6.656"><path style="stroke:none" d="M9.047-4.781c.187 0 .36 0 .36-.203 0-.204-.188-.204-.36-.204H1.359a3.59 3.59 0 0 0 1.016-1.468h-.313c-.171.468-.562 1.172-1.5 1.672.938.515 1.344 1.218 1.5 1.671h.313A3.59 3.59 0 0 0 1.359-4.78zM8.594-1.47a3.45 3.45 0 0 0-1 1.469h.297c.28-.75.828-1.297 1.5-1.672a3.112 3.112 0 0 1-1.5-1.64h-.297a4.075 4.075 0 0 0 1 1.453H.922c-.188 0-.36 0-.36.187 0 .203.172.203.344.203zm0 0"/></svg></svg>