<svg xmlns="http://www.w3.org/2000/svg" xmlns:xlink="http://www.w3.org/1999/xlink" width="64" height="64" viewBox="0 0 7.703 7.953"><svg overflow="visible" x="-.109" y="7.265"><path style="stroke:none" d="M4.313-5.938c1.265 0 2.218.485 2.218 2.641 0 .625-.047 1.266-.297 1.844A1.834 1.834 0 0 1 4.547-.375c-.938 0-1.703-.39-2.563-.656a1.187 1.187 0 0 0-.406-.094c.453-.344 1.031-.89 1.031-1.484 0-.672-.968-1.563-.968-2.22 0-.359.406-.734.703-.952l-.203-.11C1.469-5.5.797-4.828.797-4.094c0 .25.265.516.64 1.078.188.282.422.61.422.954 0 .5-.406.859-.843 1A9.85 9.85 0 0 0 .109 0l.157.156c.218-.312.578-.531.953-.531s.734.203 1.062.328a4.32 4.32 0 0 0 1.594.313c.438 0 .844-.157 1.219-.36h.015c.407.375 1 .625 1.532.781L7.812.063v-.265c-.218.14-.468.266-.75.266-.39 0-.765-.422-1.046-.735.171-.14.343-.297.515-.437.688-.625.907-1.844.907-2.875 0-1.313-.485-2.454-2.391-2.61-.938-.078-1.64-.11-1.64-.422a.4.4 0 0 1 .109-.25h-.172l-.578.579c-.11.109-.11.234-.11.312 0 .344.485.469.797.469zm0 0"/></svg></svg>