<svg xmlns="http://www.w3.org/2000/svg" xmlns:xlink="http://www.w3.org/1999/xlink" width="64" height="64" viewBox="0 0 6.641 2.328"><svg overflow="visible" x="-.563" y="3.656"><path style="stroke:none" d="M7.203-1.656c0-.953-.625-2-1.656-2-.688 0-1.188.437-1.734.906-.5.453-.97.86-1.594.86C1.484-1.89.89-2.5.844-3.314c-.016-.14-.031-.343-.14-.343-.079 0-.141.094-.141.328 0 .953.609 2 1.656 2 .672 0 1.187-.438 1.719-.906.515-.454.968-.86 1.609-.86.703 0 1.328.594 1.375 1.422 0 .14.016.344.14.344.079 0 .141-.125.141-.328zm0 0"/></svg></svg>