<svg xmlns="http://www.w3.org/2000/svg" xmlns:xlink="http://www.w3.org/1999/xlink" width="64" height="64" viewBox="0 0 10.313 7.125"><svg overflow="visible" x="-.203" y="6.844"><path style="stroke:none" d="M8.922-4.828c-.125.156-.203.36-.203.937 0 .672.11 1.344.11 2.032 0 .671-.063.937-.173 1.125a.834.834 0 0 1-.734.421C7.282-.313 6.297-1 5.688-1c.234-.25.656-.797.796-1 .204-.703.282-1.469.282-2.25 0-.36-.016-.703-.032-1.031.25-.36.688-.875 1.188-.875.625 0 1.156.687 1.594.687zM3.516-1.906c.625-.938.718-2.469.718-2.844 0-.11-.062-.39-.062-.484.203-.282.5-.547.766-.797.843.375 1.109 1.531 1.109 2.422 0 .859-.063 1.984-.578 2.5-.422.406-.938.687-1.547.687-.563 0-1.14-.328-1.594-.672a8.983 8.983 0 0 0 1.188-.812zM4.078-5.5c-.234-.625-.844-1.344-1.531-1.344-.938 0-1.594.625-1.828.86-.281.28-.516.578-.516.984 0 .531.422.89.719 1.328.062.078.14.156.14.266 0 .312-.328.64-.64.797l.14.109c.594-.297 1.235-.688 1.235-1.328 0-.625-.922-.985-.922-1.688 0-.53.453-.687 1-.687.984 0 1.547 1.094 1.578 2.203 0 1.344-.406 2.781-1.875 2.781h-.031C1.094-.875.687-.484.313-.047l.14.156c.281-.25.719-.593 1.031-.593.235 0 .594.203.86.375.375.234.812.39 1.265.39.047 0 .11-.015.157-.015.375-.25.765-.438 1.171-.641.797 0 1.563.625 2.375.625.813 0 2.063-1.063 2.25-1.64.079-.22.094-.485.094-.735 0-.734-.14-1.469-.14-2.203 0-.89.359-1.297.937-1.719l.063-.219a.81.81 0 0 1-.375.079c-.594 0-1.047-.657-1.704-.657-.593 0-1.296.75-1.796 1.266-.157-.297-.547-.969-1.063-1.266-.5.375-.969.766-1.375 1.219zm0 0"/></svg></svg>