<svg xmlns="http://www.w3.org/2000/svg" xmlns:xlink="http://www.w3.org/1999/xlink" width="64" height="64" viewBox="0 0 6.438 7.141"><svg overflow="visible" x="-.656" y="6.891"><path style="stroke:none" d="m6.703-6.047-.047-.219c-.14.141-.312.22-.453.22-.422 0-.797-.438-1-.845l-.672.625c.078.407.547.766 1.016.938-.281.281-.734.64-1.063.86l-.5.265c-.109-.406-.265-1.11-.265-1.375 0-.36.265-.656.531-.89l-.11-.11-1.109.75-.312-.156c-.61.28-1.125.625-1.625.984a4.077 4.077 0 0 0-.438 1.813c0 .953.156 1.906.844 2.593.516.516 1.438.844 2.297.844.312 0 .515-.063.828-.172L6.156-.953c.563-.547.938-1.281.938-2.063 0-.453-.235-.875-.563-1.156-.172-.14-.562-.36-1.14-.36-.141 0-.282 0-.454.032zm-4.36 3.922c.485-.078.938-.234 1.298-.578.312-.313.359-.813.359-1.25.172-.031.344-.047.5-.047.813 0 1.719.594 1.719 1.453 0 .594-.172 1.297-.688 1.719-.453.375-.89.437-1.39.437-.735 0-1.344-.359-1.86-.89-.61-.61-.828-1.5-.828-2.375 0-.86.344-1.906 1.375-1.969-.015.11-.031.219-.031.313 0 .593.297 1.171.297 1.843 0 .594-.406 1.063-.906 1.188zm0 0"/></svg></svg>