<svg xmlns="http://www.w3.org/2000/svg" xmlns:xlink="http://www.w3.org/1999/xlink" width="64" height="64" viewBox="0 0 4.266 4.516"><svg overflow="visible" x=".203" y="4.297"><path style="stroke:none" d="M.953-2.14v-1.782c0-.172 0-.375-.203-.375-.188 0-.188.172-.188.344v2.047l-.625.36c-.046.03-.14.077-.14.187 0 .109.078.203.203.203.063 0 .078 0 .297-.125 0-.016.172-.11.266-.172v1.328c0 .172 0 .344.187.344.203 0 .203-.203.203-.375v-1.532l1.953-1.156v2.688c0 .172 0 .375.203.375.204 0 .204-.172.204-.344v-2.953l.624-.36c.047-.03.126-.078.126-.187 0-.11-.079-.203-.188-.203-.063 0-.094 0-.297.125 0 .015-.172.11-.265.172v-.422c0-.172 0-.344-.204-.344-.203 0-.203.203-.203.375v.625zm0 0"/></svg></svg>