<svg xmlns="http://www.w3.org/2000/svg" xmlns:xlink="http://www.w3.org/1999/xlink" width="64" height="64" viewBox="0 0 5.344 7.25"><svg overflow="visible" x="-.281" y="7.031"><path style="stroke:none" d="M2.375-3.625C.391-2.547.281-1.25.281-1.015c0 .75.735 1.234 1.688 1.234 1.656 0 3-1.578 3-1.782 0-.062-.047-.078-.11-.078-.109 0-.5.141-.718.438-.22.297-.625.875-1.516.875-.719 0-1.5-.375-1.5-1.125 0-.484.563-1.953 2.14-2.016.47-.015.813-.375.813-.484 0-.047-.047-.063-.094-.063-1.406-.062-1.687-.75-1.687-1.14 0-.235.14-1.328 1.547-1.328.187 0 .937.03.937.546a.689.689 0 0 1-.11.36c-.03.031-.062.078-.062.11 0 .077.079.077.11.077.297 0 .906-.39.906-.953 0-.593-.688-.687-1.125-.687-1.36 0-3.047 1.078-3.047 2.297 0 .593.438.953.922 1.109zm0 0"/></svg></svg>