<svg xmlns="http://www.w3.org/2000/svg" xmlns:xlink="http://www.w3.org/1999/xlink" width="64" height="64" viewBox="0 0 6.625 9.547"><svg overflow="visible" x="-.563" y="7.297"><path style="stroke:none" d="M6.719-4.188c.156-.062.203-.14.203-.218 0-.094-.047-.157-.203-.235l-5.5-2.593c-.125-.063-.172-.063-.188-.063a.207.207 0 0 0-.203.203c0 .125.078.157.203.219L6.25-4.422 1.016-1.938c-.141.063-.188.125-.188.22 0 .109.094.187.203.187.032 0 .047 0 .172-.063zM7.187.266c0-.235-.062-.329-.14-.329-.125 0-.14.235-.14.297-.032.86-.657 1.454-1.376 1.454-.64 0-1.11-.407-1.547-.813C3.422.391 2.906-.063 2.22-.063 1.172-.063.563 1 .563 1.923c0 .234.062.328.14.328.11 0 .14-.203.14-.234C.892.875 1.689.484 2.22.484c.625 0 1.094.422 1.547.829.546.484 1.062.937 1.765.937 1.047 0 1.657-1.063 1.657-1.984zm0 0"/></svg></svg>