<svg xmlns="http://www.w3.org/2000/svg" xmlns:xlink="http://www.w3.org/1999/xlink" width="64" height="64" viewBox="0 0 6.641 4.266"><svg overflow="visible" x="-.563" y="4.625"><path style="stroke:none" d="M7.203-2.813c0-.921-.656-1.812-1.672-1.812-.656 0-1.156.375-1.828.89-.406.329-.89.688-1.484.688-.781 0-1.344-.625-1.375-1.234-.016-.157-.031-.328-.14-.328-.079 0-.141.078-.141.312 0 .875.64 1.797 1.656 1.797.656 0 1.156-.375 1.828-.89.406-.313.89-.672 1.484-.672.782 0 1.344.593 1.39 1.234 0 .14.016.328.141.328.063 0 .141-.078.141-.313zM.922-.75c-.172 0-.36 0-.36.188 0 .203.172.203.344.203h5.938c.172 0 .36 0 .36-.204 0-.187-.188-.187-.36-.187zm0 0"/></svg></svg>