<svg xmlns="http://www.w3.org/2000/svg" xmlns:xlink="http://www.w3.org/1999/xlink" width="64" height="64" viewBox="0 0 6.094 8.672"><svg overflow="visible" x="-.828" y="6.344"><path style="stroke:none" d="M6.563-5.938c.171 0 .359 0 .359-.203s-.188-.203-.36-.203H3.876c-1.672 0-3.047 1.266-3.047 2.89 0 1.626 1.375 2.892 3.063 2.892h2.671c.172 0 .36 0 .36-.204 0-.203-.188-.203-.36-.203h-2.64c-1.61 0-2.703-1.172-2.703-2.484 0-1.36 1.14-2.485 2.687-2.485zm0 7.297c.171 0 .359 0 .359-.187 0-.203-.188-.203-.36-.203h-2.17C4.594.78 4.953.453 5 .422c.11-.11.14-.14.14-.219C5.14.156 5.095 0 4.939 0c-.063 0-.079 0-.297.188l-.844.78H1.375c-.172 0-.344 0-.344.204 0 .187.172.187.344.187h1.969a10.47 10.47 0 0 1-.594.547c-.094.094-.14.14-.14.235 0 .078.062.187.203.187.062 0 .078 0 .28-.187l.86-.782zm0 0"/></svg></svg>