<svg xmlns="http://www.w3.org/2000/svg" xmlns:xlink="http://www.w3.org/1999/xlink" width="64" height="64" viewBox="0 0 8.844 6.641"><svg overflow="visible" x="-.563" y="5.813"><path style="stroke:none" d="M9.078-3.953c.172 0 .328 0 .328-.203s-.187-.203-.39-.203H1.359a3.75 3.75 0 0 0 1.016-1.454h-.313c-.28.735-.765 1.282-1.5 1.657a3.156 3.156 0 0 1 1.5 1.656c-.343.906-.984 1.422-1.5 1.656.75.422 1.22.938 1.5 1.672h.313A3.75 3.75 0 0 0 1.359-.625h7.657c.203 0 .39 0 .39-.203s-.156-.203-.328-.203H1.36c.22-.203.735-.688 1.016-1.469-.281-.766-.797-1.25-1.016-1.453zm0 0"/></svg></svg>