<svg xmlns="http://www.w3.org/2000/svg" xmlns:xlink="http://www.w3.org/1999/xlink" width="64" height="64" viewBox="0 0 6.094 7.297"><svg overflow="visible" x="148.712" y="134.765" transform="translate(-149.54 -129)"><path style="stroke:none" d="M6.25-3.094c-.797 0-1.828-.094-2.625-.281-1.563-.39-2.234-1.156-2.39-2.14-.016-.11-.032-.25-.204-.25-.11 0-.203.062-.203.202 0 .094.078 1.032.86 1.688.484.406 1.203.797 2.343.984v.016c-1.125.203-2.265.61-2.843 1.563C1-1 .828-.563.828-.204c0 .125.094.203.203.203.032 0 .172-.016.188-.172.093-.64.312-1.656 2.343-2.203 1.126-.297 2.641-.313 2.876-.313.312 0 .484 0 .484-.203s-.219-.203-.375-.203zm.672 1.75c0-.203-.156-.203-.406-.203-.485 0-1.875.078-3.016.688-1.563.843-1.563 2.171-1.563 2.187 0 .14.11.203.204.203.156 0 .187-.14.203-.25C2.64-.625 4.938-1.14 6.656-1.14c.25 0 .266-.171.266-.203zm0 0"/></svg></svg>