<svg xmlns="http://www.w3.org/2000/svg" xmlns:xlink="http://www.w3.org/1999/xlink" width="64" height="64" viewBox="0 0 6.094 10.734"><svg overflow="visible" x="-.828" y="7.5"><path style="stroke:none" d="M5.766-1.734h.796c.172 0 .36 0 .36-.204 0-.203-.188-.203-.36-.203h-.546c.14-.218.28-.421.421-.625.125-.203.125-.218.125-.28 0-.11-.093-.188-.203-.188-.109 0-.125.03-.234.187l-.578.906H3.922c-1.61 0-2.703-1.171-2.703-2.468 0-1.36 1.14-2.5 2.687-2.5h2.656c.172 0 .36 0 .36-.204 0-.187-.188-.187-.36-.187H3.876C2.203-7.5.828-6.234.828-4.625c0 1.625 1.375 2.89 3.063 2.89h1.39L4.297-.202H1.172C1-.203.828-.203.828 0s.172.203.344.203h2.86l-.985 1.531H1.172c-.172 0-.344 0-.344.204 0 .203.172.203.344.203h1.625l-.422.625c-.125.203-.125.218-.125.28 0 .11.078.188.203.188.11 0 .14-.046.235-.187l.578-.906h3.296c.172 0 .36 0 .36-.204 0-.203-.188-.203-.36-.203h-3.03l.984-1.53h2.046c.172 0 .36 0 .36-.204 0-.203-.188-.203-.36-.203h-1.78zm0 0"/></svg></svg>