<svg xmlns="http://www.w3.org/2000/svg" xmlns:xlink="http://www.w3.org/1999/xlink" width="64" height="64" viewBox="0 0 8.406 8.016"><svg overflow="visible" x="-.5" y="6.906"><path style="stroke:none" d="M8.781-3.672c.125-.11.125-.11.125-.156 0-.11-.078-.11-.265-.11H5.75l-.906-2.796c-.047-.141-.063-.172-.14-.172-.079 0-.11.062-.141.203l-.907 2.766H.781c-.187 0-.281 0-.281.109 0 .062.031.078.125.156l2.39 1.735L2.11.858c0 .016-.046.125-.046.141 0 0 0 .11.109.11.015 0 .047 0 .156-.094l2.375-1.72 2.39 1.72c.032.046.095.093.141.093.11 0 .11-.109.11-.109a.373.373 0 0 0-.032-.14l-.906-2.797zm0 0"/></svg></svg>