<svg xmlns="http://www.w3.org/2000/svg" xmlns:xlink="http://www.w3.org/1999/xlink" width="64" height="64" viewBox="0 0 6.797 7.141"><svg overflow="visible" x="-.266" y="6.875"><path style="stroke:none" d="m.781-5.25.172.14c.313-.406.703-.812 1.281-.812.563 0 .985.672 1.063 1.203.047.36.047.703.047 1.063H1.969l-.375.422c.593-.079 1.172-.079 1.75-.079 0 .86-.125 1.782-.719 2.36-.25.265-.594.469-.984.469A.88.88 0 0 1 .859-1l-.593.688c.187.296.484.53.843.53.329 0 .688-.234.97-.421.39-.266.733-.578 1.062-.906l.421-.422c.172.828.641 1.797 1.594 1.797.11 0 .313-.063.469-.11l1.11-.89v-.22c-.313.22-.657.423-1.048.423-1.39 0-1.656-1.828-1.656-2.781.469 0 .938.015 1.39.078l.376-.422H4.03c0-.922.313-1.969 1.078-2.485.11.297.594.735.938.891l1.016-.578v-.188c-.141.063-.313.157-.422.157-.422 0-.563-.61-.782-1.016-.796.328-1.484.922-1.875 1.734v-.062c-.109-.406-.234-.875-.53-1.172-.313-.297-.767-.438-1.204-.469zm0 0"/></svg></svg>