<svg xmlns="http://www.w3.org/2000/svg" xmlns:xlink="http://www.w3.org/1999/xlink" width="64" height="64" viewBox="0 0 4.688 7.359"><svg overflow="visible" x="-.422" y="7.141"><path style="stroke:none" d="M2.75-.063c-.484 0-.86-.171-1.172-.625-.297-.453-.297-.906-.297-1.5 0-.53 0-1 .219-1.406.406-.75.984-.75 1.188-.75 1.046 0 1.546 1.016 1.546 1.89 0 .079 0 .173-.015.235 0 1.438-.657 2.156-1.469 2.156zm.36-6.062c.5.406 1.14 1.094 1.14 2.719v.015c-.11-.234-.516-1.171-1.563-1.171-.53 0-1.046.14-1.515.609-.594.578-.75 1.11-.75 1.765 0 .282 0 1 .64 1.657.329.328.782.75 1.672.75 1.188 0 2.375-.922 2.375-3.594 0-.281 0-.953-.437-1.719a3.967 3.967 0 0 0-1.14-1.218c.296-.125.577-.25.874-.391v.453c0 .125 0 .203.282.203.28 0 .28-.062.28-.281v-.453c0-.235 0-.297-.28-.297-.125 0-.188.031-.344.094l-1.094.468c-.922-.5-1.719-.625-2.297-.625-.14 0-.203 0-.203.125s.063.125.156.125c.297.016 1.125.047 1.922.563l-1.703.734v-.484c0-.078 0-.172-.281-.172s-.281.078-.281.281v.469c0 .219 0 .281.28.281.126 0 .141 0 .298-.078zm0 0"/></svg></svg>