<svg xmlns="http://www.w3.org/2000/svg" xmlns:xlink="http://www.w3.org/1999/xlink" width="64" height="64" viewBox="0 0 6.531 4.391"><svg overflow="visible" x="-.594" y="4.344"><path style="stroke:none" d="M5.266-2.688C4.625-1.546 4.53-.702 4.53-.438c0 .407.125.454.282.454.875 0 1.546-.75 1.546-1.079 0-.109-.078-.125-.125-.125-.078 0-.093.047-.125.125-.109.188-.562.391-1.234.407-.016-.047-.047-.11-.047-.188 0-.156.234-1.094.719-1.875.203-.297.219-.297.531-.515.375-.25.938-.625.984-.672 0-.016.063-.078.063-.188 0-.203-.219-.25-.313-.25-.25 0-.437.125-.546.203L2.437-1.594c.297-.484.75-1.531.75-2.265 0-.235 0-.454-.28-.454-.907 0-1.548.766-1.548 1.079 0 .062.032.125.11.125.093 0 .11-.047.14-.125.079-.172.547-.407 1.235-.407a.464.464 0 0 1 .031.188c0 .531-.703 2.031-.984 2.234-.047.016-.047.032-.391.25L.844-.53c-.172.125-.25.172-.25.328 0 .25.281.25.312.25.235 0 .438-.14.547-.203zm0 0"/></svg></svg>