<svg xmlns="http://www.w3.org/2000/svg" xmlns:xlink="http://www.w3.org/1999/xlink" width="64" height="64" viewBox="0 0 3.563 7.156"><svg overflow="visible" x="-.859" y="6.844"><path style="stroke:none" d="m1.344-5.969-.078.032-.172-.766-.172.047C.984-5.47 1-4.266 1-3.063c0 .797 0 1.626-.14 2.36.234.25.718.687 1.093 1.015C2.75-.046 3.5-.5 4.234-.968a11.05 11.05 0 0 0 .188-2.157c0-.313 0-.64-.031-.953-.391-.172-.782-.39-1.157-.61-.484.297-.953.688-1.406 1.063l-.062-.016c0-.984-.125-2.14.64-2.812a3.4 3.4 0 0 1 .313-.25l-.172-.14zm.437 2.657c.266-.204.64-.5.953-.532.532.219.75.328.844.453.047.407.047.72.047 1.125 0 .672-.11 1.844-.781 1.844-.266 0-.75-.469-1.063-.797zm0 0"/></svg></svg>