<svg xmlns="http://www.w3.org/2000/svg" xmlns:xlink="http://www.w3.org/1999/xlink" width="64" height="64" viewBox="0 0 6.641 6.641"><svg overflow="visible" x="-.563" y="5.813"><path style="stroke:none" d="M7.203-2.5c0-1.828-1.5-3.313-3.328-3.313A3.324 3.324 0 0 0 .562-2.5 3.318 3.318 0 0 0 3.876.828 3.33 3.33 0 0 0 7.203-2.5zM3.875.578a3.07 3.07 0 1 1 .017-6.142A3.07 3.07 0 0 1 3.875.578zM5.078-1.5c.125.078.281.219.36.219a.29.29 0 0 0 .28-.282c0-.156-.077-.187-.234-.265-.125-.063-.75-.344-1.375-.672L5.5-3.156c.14-.078.219-.11.219-.266a.29.29 0 0 0-.282-.281.254.254 0 0 0-.171.078L4-2.687l.14-1.563c0-.14 0-.39-.265-.39-.14 0-.281.124-.25.25v.14l.14 1.547-1.093-.781c-.125-.079-.281-.22-.36-.22-.156 0-.265.142-.265.282 0 .156.094.203.203.25l1.406.672-1.406.672c-.14.078-.203.11-.203.266 0 .14.11.28.265.28.063 0 .235-.124.344-.202l1.11-.797L3.609-.61c0 .187.157.265.266.265.11 0 .266-.078.266-.265 0-.032-.047-.5-.047-.532 0-.015-.032-.406-.047-.609L4-2.281zm0 0"/></svg></svg>