<svg xmlns="http://www.w3.org/2000/svg" xmlns:xlink="http://www.w3.org/1999/xlink" width="64" height="64" viewBox="0 0 6.094 7.312"><svg overflow="visible" x="-.828" y="7.312"><path style="stroke:none" d="M6.922-4.422c0-.203-.219-.203-.297-.203-1.578-.016-4-.469-4.281-2.438-.016-.093-.047-.25-.203-.25a.21.21 0 0 0-.204.22c0 .015.032.53.344 1.077.938 1.563 3.375 1.782 4.235 1.782.25 0 .406 0 .406-.188zm-2.89 1.547c-1.126.203-2.266.61-2.845 1.563C1-1 .829-.563.829-.204c0 .125.094.203.203.203.032 0 .172-.016.188-.172.093-.64.312-1.656 2.343-2.203 1.126-.297 2.641-.313 2.876-.313.312 0 .484 0 .484-.203s-.219-.203-.375-.203H6.25c-.797 0-1.828-.094-2.625-.281-1.563-.39-2.234-1.156-2.39-2.14-.016-.11-.032-.25-.204-.25-.11 0-.203.062-.203.202 0 .094.078 1.032.86 1.688.484.406 1.203.797 2.343.984zm0 0"/></svg></svg>