<svg xmlns="http://www.w3.org/2000/svg" xmlns:xlink="http://www.w3.org/1999/xlink" width="64" height="64" viewBox="0 0 10.188 7.156"><svg overflow="visible" x="-.266" y="6.891"><path style="stroke:none" d="M4.203-5.672c-.031.031-.047.063-.078.078-.25-.61-.828-1.297-1.516-1.297-.859 0-1.578.625-1.828.86-.265.281-.5.578-.5.984 0 .516.406.875.719 1.313.063.078.125.171.125.28 0 .313-.328.626-.64.798l.156.11c.578-.298 1.218-.688 1.218-1.329 0-.625-.906-.938-.906-1.75 0-.313.313-.656.985-.656.953 0 1.578 1.11 1.578 2.218v.407c0 .562-.047 1.125-.172 1.687-.078.344-.156.766-.422 1.032a4.28 4.28 0 0 1-.516.453c-.312-.266-.656-.579-.969-.579C.984-1.063.531-.438.266 0l.109.156c.172-.218.406-.422.688-.422.28 0 .625.313.843.532L3.61-1.22c.594-.968.72-2.11.72-3.234a5.67 5.67 0 0 0-.095-.828c.188-.36.454-.703.922-.703 1 0 1 1.359 1 2.328 0 1.078.032 2.437-.531 3-.36-.235-.594-.375-.797-.375-.25 0-.687.531-1.031 1.031l.125.14c.187-.203.312-.343.594-.343.187 0 .515.25.687.422l1.234-1.5a7.95 7.95 0 0 0 .625-3.063c0-.312-.078-.797-.14-1.093.281-.454.687-.829 1.25-.829.344 0 .437.22.594.688.156.5.25.672.421.687a4.807 4.807 0 0 0-.796.907 5.959 5.959 0 0 0-.157 1.28l.016 1.72.563 1.25L10.25-.813V-1c-.219.11-.516.203-.578.203-.25 0-.469-.36-.547-.578-.094-.313-.094-.922-.094-1.39 0-.641.016-1.376.313-1.954a4.255 4.255 0 0 1 1.11-.797v-.156c-.142.047-.282.094-.438.094-.735 0-.391-1.313-1.25-1.313-.72 0-1.5.625-1.922 1.141-.172-.469-.438-.828-1-.828-.657 0-1.266.406-1.64.906zm0 0"/></svg></svg>