<svg xmlns="http://www.w3.org/2000/svg" xmlns:xlink="http://www.w3.org/1999/xlink" width="64" height="64" viewBox="0 0 6.094 11.563"><svg overflow="visible" x="-.828" y="7.828"><path style="stroke:none" d="M3.828-7.422c1.61 0 2.688 1.172 2.688 2.484 0 1.344-1.125 2.485-2.672 2.485H1.172c-.172 0-.344 0-.344.203s.172.203.344.203h2.703c1.672 0 3.047-1.265 3.047-2.89 0-1.625-1.375-2.891-3.063-2.891H1.172c-.172 0-.344 0-.344.203s.172.203.344.203zM4.797.516h1.766c.171 0 .359 0 .359-.204 0-.187-.188-.187-.36-.187H5.141c.093-.11.484-.563.687-.797.188-.203.188-.219.188-.297 0-.11-.11-.203-.204-.203-.093 0-.093.016-.312.25L4.61.125H1.171C1 .125.828.125.828.313c0 .203.172.203.344.203h3.094l-1.313 1.53H1.172c-.172 0-.344 0-.344.204 0 .203.172.203.344.203h1.437c-.093.11-.53.61-.687.781-.188.22-.188.235-.188.297 0 .125.094.203.204.203.093 0 .093 0 .312-.234l.875-1.047h3.438c.171 0 .359 0 .359-.203s-.188-.203-.36-.203H3.485zm0 0"/></svg></svg>