<svg xmlns="http://www.w3.org/2000/svg" xmlns:xlink="http://www.w3.org/1999/xlink" width="64" height="64" viewBox="0 0 6.625 4.828"><svg overflow="visible" x="-.563" y="4.906"><path style="stroke:none" d="M5.297-3.656a1.445 1.445 0 0 0-1.422-1.25c-.625 0-1.297.422-1.438 1.25H.907c-.173 0-.345 0-.345.203 0 .187.188.187.36.187h1.547c.281 0 .344 0 .36-.296.03-.47.468-.938 1.046-.938.625 0 1.016.516 1.047.938.016.25.016.296.36.296h1.546c.188 0 .36 0 .36-.187 0-.203-.172-.203-.344-.203zM5.28-1.72c-.281 0-.343 0-.36.297-.03.469-.468.938-1.046.938a1.055 1.055 0 0 1-1.047-.938c-.015-.25-.031-.297-.36-.297H.923c-.172 0-.36 0-.36.188 0 .203.172.203.344.203h1.531c.141.86.86 1.25 1.438 1.25a1.43 1.43 0 0 0 1.422-1.25h1.547c.172 0 .343 0 .343-.203 0-.188-.171-.188-.359-.188zm0 0"/></svg></svg>