<svg xmlns="http://www.w3.org/2000/svg" xmlns:xlink="http://www.w3.org/1999/xlink" width="64" height="64" viewBox="0 0 6.094 9.078"><svg overflow="visible" x="-.828" y="7.031"><path style="stroke:none" d="M3.875-2.047c1.047-.219 2.328-.25 2.688-.25.171 0 .359 0 .359-.203 0-.188-.156-.188-.438-.188-.75 0-1.468-.062-2.203-.171l1.922-3.782c.078-.14.078-.156.078-.203 0-.11-.078-.187-.203-.187-.062 0-.11.015-.14.047L3.874-2.938C2.03-3.312 1.39-4.141 1.234-5.109c-.016-.141-.032-.266-.204-.266-.11 0-.203.078-.203.219 0 .047 0 1.984 2.86 2.578-.016.031-.032.078-.079.172-1.109.297-2.046.719-2.53 1.703-.126.234-.25.625-.25.875 0 .172.124.234.202.234.078 0 .172-.062.188-.187.078-.5.25-1.578 2.125-2.125l-.5 1.015c-.016.016-.406.797-.547 1.047L1.64 1.47c-.063.125-.172.328-.172.39 0 .11.078.188.203.188.047 0 .11-.016.14-.047zm0 0"/></svg></svg>