<svg xmlns="http://www.w3.org/2000/svg" xmlns:xlink="http://www.w3.org/1999/xlink" width="64" height="64" viewBox="0 0 6.641 7.234"><svg overflow="visible" x="-.563" y="8.562"><path style="stroke:none" d="M4.094-8.39c-.078-.141-.14-.172-.219-.172-.063 0-.14.03-.219.171L1.828-5.219c-.078.14-.078.172-.078.219 0 .188.172.188.36.188h3.546c.219 0 .36 0 .36-.25zm-.219.421 1.594 2.766H2.28zM.922-1.719c-.172 0-.36 0-.36.188 0 .203.172.203.344.203h5.938c.172 0 .36 0 .36-.203 0-.188-.188-.188-.36-.188zM.906-3.656c-.172 0-.344 0-.344.203 0 .187.188.187.36.187h5.922c.172 0 .36 0 .36-.187 0-.203-.188-.203-.36-.203zm0 0"/></svg></svg>