<svg xmlns="http://www.w3.org/2000/svg" xmlns:xlink="http://www.w3.org/1999/xlink" width="64" height="64" viewBox="0 0 6.625 5.859"><svg overflow="visible" x="-.563" y="7.187"><path style="stroke:none" d="M4.969-6.094c0-.64-.532-1.093-1.094-1.093-.594 0-1.094.484-1.094 1.093C2.781-5.5 3.266-5 3.875-5c.625 0 1.094-.516 1.094-1.094zm-1.094.688c-.469 0-.688-.14-.688-.688 0-.422.11-.687.688-.687.547 0 .688.234.688.687 0 .5-.188.688-.688.688zM.922-1.72c-.172 0-.36 0-.36.188 0 .203.172.203.344.203h5.938c.172 0 .343 0 .343-.203 0-.188-.171-.188-.359-.188zM.906-3.656c-.172 0-.344 0-.344.203 0 .187.188.187.36.187h5.906c.188 0 .36 0 .36-.187 0-.203-.172-.203-.344-.203zm0 0"/></svg></svg>