<svg xmlns="http://www.w3.org/2000/svg" xmlns:xlink="http://www.w3.org/1999/xlink" width="64" height="64" viewBox="0 0 3.5 9.984"><svg overflow="visible" x="-.734" y="7.485"><path style="stroke:none" d="M2.688 1.281C3.124.797 4.234-.469 4.234-2.5c0-2.016-1.109-3.281-1.546-3.766.468-.5.906-.765 1.203-.937.078-.047.109-.078.109-.14 0-.079-.047-.141-.11-.141-.078 0-.812.421-1.39 1.015-.64-.593-1.328-1.015-1.406-1.015-.078 0-.125.062-.125.14 0 .063.031.094.14.14.266.173.72.438 1.172.938C1.86-5.78.734-4.516.734-2.5.734-.469 1.86.797 2.281 1.281c-.453.5-.89.766-1.187.938-.094.047-.125.078-.125.14 0 .079.047.141.125.141s.797-.422 1.39-1.016C3.11 2.078 3.813 2.5 3.891 2.5c.062 0 .109-.063.109-.14 0-.063-.016-.094-.125-.141-.281-.172-.719-.438-1.188-.938zM2.5 1.063C2.156.688 1.187-.563 1.187-2.5a5.44 5.44 0 0 1 1.297-3.547c.344.375 1.297 1.625 1.297 3.547 0 1.828-.86 3.063-1.281 3.563zm0 0"/></svg></svg>