<svg xmlns="http://www.w3.org/2000/svg" xmlns:xlink="http://www.w3.org/1999/xlink" width="64" height="64" viewBox="0 0 6.75 6.109"><svg overflow="visible" x="-.5" y="5.781"><path style="stroke:none" d="M7.188-5.469c0-.218-.063-.297-.141-.297-.094 0-.125.157-.14.266-.032.672-.735 1.094-1.376 1.094-.593 0-1.047-.297-1.718-.75-.438-.282-.97-.625-1.594-.625-.922 0-1.656.703-1.656 1.625 0 .218.062.297.14.297.11 0 .14-.172.14-.235.048-.828.876-1.125 1.376-1.125.594 0 1.047.297 1.719.75.421.266.953.625 1.593.625.922 0 1.657-.703 1.657-1.625zM.859-.062C.688-.063.5-.063.5.124c0 .203.172.203.344.203H6.89c.171 0 .359 0 .359-.203 0-.188-.188-.188-.36-.188zm6.329-3.079c0-.203-.063-.312-.141-.312-.11 0-.125.172-.14.328-.048.563-.673 1.047-1.376 1.047-.593 0-1.047-.297-1.718-.75-.438-.281-.97-.625-1.594-.625-.922 0-1.656.687-1.656 1.625 0 .219.062.297.14.297.11 0 .14-.188.14-.235.048-.843.876-1.14 1.376-1.14.594 0 1.047.297 1.719.75.421.281.953.625 1.593.625.938 0 1.657-.719 1.657-1.61zm0 0"/></svg></svg>