<svg xmlns="http://www.w3.org/2000/svg" xmlns:xlink="http://www.w3.org/1999/xlink" width="64" height="64" viewBox="0 0 4.375 6.766"><svg overflow="visible" x="-.156" y="4.688"><path style="stroke:none" d="m.156 1.313.11.125.359-.188c.531.438 1.219.828 1.922.828.078 0 .25-.031.36-.078C3.5 1.437 4.03.812 4.53.172l-.28-1.266a1.703 1.703 0 0 1-.047-.406c0-1.234-.094-2.453.219-3.078l-.063-.063-.718.407c-.407-.094-.797-.22-1.141-.454A34.73 34.73 0 0 0 .89-3.671 12.187 12.187 0 0 0 .782-.64L1.5.234C1.047.625.61 1 .156 1.313zM3.406-.97c.11.469.266 1.203.266 1.422 0 .453-.25.89-.735.89-.562 0-1.062-.39-1.468-.796A23.006 23.006 0 0 1 3.406-.97zm-1.14.563c-.235-.235-.516-.547-.672-.828a19.752 19.752 0 0 1-.047-1.36c0-.437.016-.937.172-1.328.484.219 1.187.344 1.765.422-.078.75-.093 1.516-.093 2.281zm0 0"/></svg></svg>