<svg xmlns="http://www.w3.org/2000/svg" xmlns:xlink="http://www.w3.org/1999/xlink" width="64" height="64" viewBox="0 0 6.719 7.047"><svg overflow="visible" x="-.156" y="6.781"><path style="stroke:none" d="m6.313-3.469-.047-.156a.613.613 0 0 1-.22.047c-.359 0-.5-.344-.546-.5-.188-.484-.344-.906-.828-.906-.734 0-1.516.734-2.063 1.328a4.07 4.07 0 0 1-.203-1.235c0-.875.781-1.421 1.688-1.421.875 0 1.75.421 1.75 1.375L6-4.984c.094-.313.172-.657.172-.985 0-.61-.953-.812-1.5-.812-1.36 0-2.516.968-3.016 2.218a.873.873 0 0 0-.062.313c0 .719.593 1.828.593 2.813 0 .5-.062 1.078-.671 1.078-.329 0-.563-.344-.688-.625H.734l-.578.671c.219.297.516.532.906.563.72-.234 1.313-.86 1.766-1.531a6.36 6.36 0 0 0 .047-.782c.281-.124.578-.218.89-.218.766 0 .907.578 1.016 1.437.047.469.188 1.11.735 1.11.453 0 .984-.485 1.359-.86l-.031-.172c-.188.141-.5.235-.735.235-.734 0-.64-1.656-1-2.016a.768.768 0 0 0-.468-.156v-.016zM2.874-2.297c-.047-.312-.11-.687-.219-.969.297-.5.75-1.078 1.36-1.078.25 0 .562.203.656.532.078.218.172.546.39.687-.312.156-.671.297-1 .438-.437.078-.796.218-1.187.39zm0 0"/></svg></svg>