<svg xmlns="http://www.w3.org/2000/svg" xmlns:xlink="http://www.w3.org/1999/xlink" width="64" height="64" viewBox="0 0 9.9 1.047"><svg overflow="visible" x="-.859" y="3.015"><path style="stroke:none" d="M1.906-2.5a.524.524 0 1 0-1.047.016.524.524 0 0 0 1.047-.016zm0 0"/></svg><svg overflow="visible" x="3.572" y="3.015"><path style="stroke:none" d="M1.906-2.5a.524.524 0 1 0-1.047.016.524.524 0 0 0 1.047-.016zm0 0"/></svg><svg overflow="visible" x="7.994" y="3.015"><path style="stroke:none" d="M1.906-2.5a.524.524 0 1 0-1.047.016.524.524 0 0 0 1.047-.016zm0 0"/></svg></svg>