<svg xmlns="http://www.w3.org/2000/svg" xmlns:xlink="http://www.w3.org/1999/xlink" width="64" height="64" viewBox="0 0 5.531 7.078"><svg overflow="visible" x="-.859" y="6.844"><path style="stroke:none" d="M2.922-5.984c-.594.25-1.125.609-1.64 1a3.996 3.996 0 0 0-.423 1.796c0 .922.172 1.938.829 2.594.578.563 1.453.828 2.328.828.28 0 .546-.03.812-.078.5-.312 1-.64 1.438-1.015v-.204c-.407.266-1.016.61-1.579.61-.812 0-1.64-.281-2.25-.875-.593-.594-.796-1.438-.796-2.281 0-.86.343-1.985 1.39-2.016a1.19 1.19 0 0 0-.047.328c0 .61.329 1.234.329 1.875 0 .235-.016.547-.172.719-.25.172-.516.328-.797.375l.156.156c.734-.11 1.563-.422 1.75-1.234a.651.651 0 0 1 .375-.14.35.35 0 0 1 .156.046l.578.422.672-.375v-.094a2.913 2.913 0 0 1-.765-.75l-1.016.625c0-.687-.078-.922-.234-1.375a1.82 1.82 0 0 1-.094-.594c.015-.25.281-.53.5-.609.219.375.516.844.781 1 .39-.047.828-.25 1.188-.406v-.219c-.125.031-.313.078-.485.078-.203 0-.25-.078-.312-.234l-.282-.813c-.718.282-1.437.563-2.078 1.016zm0 0"/></svg></svg>