<svg xmlns="http://www.w3.org/2000/svg" xmlns:xlink="http://www.w3.org/1999/xlink" width="64" height="64" viewBox="0 0 6.094 8.812"><svg overflow="visible" x="-.828" y="6.344"><path style="stroke:none" d="M4.781-.563h1.782c.171 0 .359 0 .359-.203s-.188-.203-.36-.203H5.11c.141-.172.47-.547.579-.687.078-.094.125-.14.125-.219 0-.063-.063-.203-.204-.203-.093 0-.093.015-.28.219l-.735.89h-.672c-1.61 0-2.703-1.172-2.703-2.484 0-1.36 1.14-2.485 2.687-2.485h2.656c.172 0 .36 0 .36-.203s-.188-.203-.36-.203H3.876c-1.672 0-3.047 1.266-3.047 2.89 0 .845.39 1.626 1 2.142.875.75 1.734.75 2.422.75L2.969.968H1.375c-.172 0-.344 0-.344.204 0 .187.172.187.344.187h1.25c-.125.188-.453.547-.563.688-.093.11-.124.156-.124.219 0 .078.062.203.203.203.078 0 .093 0 .265-.203l.75-.907h3.406c.172 0 .36 0 .36-.187 0-.203-.188-.203-.36-.203H3.485zm0 0"/></svg></svg>