<svg xmlns="http://www.w3.org/2000/svg" xmlns:xlink="http://www.w3.org/1999/xlink" width="64" height="64" viewBox="0 0 6.094 7.297"><svg overflow="visible" x="148.712" y="134.765" transform="translate(-149.54 -129)"><path style="stroke:none" d="M1.203-3.094c-.156 0-.375 0-.375.203 0 .157.125.188.156.204h.579c.406 0 1.546.062 2.546.296 1.516.36 2.266 1.11 2.407 2.125.015.11.03.266.203.266a.206.206 0 0 0 .203-.203c0-.094-.078-1.047-.86-1.703-.484-.39-1.203-.782-2.375-.969 1.141-.219 2.297-.64 2.876-1.594.171-.297.359-.75.359-1.093 0-.094-.063-.204-.203-.204-.125 0-.188.11-.188.157-.11.687-.343 2.14-3.89 2.453-.375.031-.766.062-1.141.062zm4.61 4.422c0-.016-.032-1.297-1.422-2.11-1.329-.765-2.97-.765-3.172-.765-.235 0-.39 0-.39.203s.234.203.296.203c1.578 0 3.984.47 4.281 2.422.016.11.032.25.203.25.079 0 .204-.062.204-.203zm0 0"/></svg></svg>