<svg xmlns="http://www.w3.org/2000/svg" xmlns:xlink="http://www.w3.org/1999/xlink" width="64" height="64" viewBox="0 0 6.234 7.266"><svg overflow="visible" x="-.344" y="6.812"><path style="stroke:none" d="M2.688-.86c.156-1.218.156-2.124.156-2.265 0-.719 0-3.688-1.813-3.688-.343 0-.687.282-.687.422 0 .079.047.079.187.079 1.453.125 1.578 2.421 1.578 3.546 0 1-.14 2.204-.25 2.86-.03.125-.03.14-.03.187 0 .047 0 .172.077.172.11 0 2.516-1.844 3.782-3.765.515-.782.89-1.672.89-2.344 0-.844-.562-1.157-.969-1.157-.28 0-.421.625-.421.766 0 .14.046.14.171.156.657.079.782.61.782.844 0 .813-1.735 2.86-3.454 4.188zm0 0"/></svg></svg>