<svg xmlns="http://www.w3.org/2000/svg" xmlns:xlink="http://www.w3.org/1999/xlink" width="64" height="64" viewBox="0 0 2.938 9.141"><svg overflow="visible" x="148.712" y="134.765" transform="translate(-149.009 -128)"><path style="stroke:none" d="M2.047-3.5h1.062l.125-.375h-1.14A.817.817 0 0 0 2-4.125l-.5-.953c-.078-.172-.203-.422-.203-.578 0-.313.203-.469.5-.469.36 0 .64.36.781.688l.11-.016.468-.922c-.328-.328-.828-.39-1.25-.39-.484.343-1 .874-1 1.5 0 .343.266 1.218.266 1.421H.453L.297-3.5h.89c.016.766.016 2.078.016 2.219 0 1.328-.016 2.156-.172 2.687l-.265.89.187.079.5-.875c.484-.86.563-1.656.563-2.953zm0 0"/></svg></svg>