<svg xmlns="http://www.w3.org/2000/svg" xmlns:xlink="http://www.w3.org/1999/xlink" width="64" height="64" viewBox="0 0 6.625 4.422"><svg overflow="visible" x="-.563" y="4.703"><path style="stroke:none" d="M4.89-3.156a2.24 2.24 0 0 0-2.124-1.547A2.2 2.2 0 0 0 .562-2.5 2.204 2.204 0 0 0 2.767-.281c.906 0 1.812-.578 2.109-1.547C5.219-.766 6.203-.281 6.922-.281c.062 0 .266 0 .266-.203 0-.125-.094-.188-.172-.188C5.625-.75 5.187-1.797 5.187-2.5c0-.922.704-1.75 1.735-1.813.11 0 .266 0 .266-.187 0-.203-.204-.203-.266-.203-.766 0-1.75.547-2.031 1.547zM2.767-.672A1.817 1.817 0 0 1 .953-2.5a1.814 1.814 0 0 1 3.625 0A1.817 1.817 0 0 1 2.766-.672zm0 0"/></svg></svg>