<svg xmlns="http://www.w3.org/2000/svg" xmlns:xlink="http://www.w3.org/1999/xlink" width="64" height="64" viewBox="0 0 4.953 7.141"><svg overflow="visible" x="-.563" y="7.141"><path style="stroke:none" d="M5.156-6.734c.172 0 .36 0 .36-.204 0-.203-.172-.203-.344-.203H.906c-.172 0-.344 0-.344.204 0 .203.188.203.36.203zm-1.89 1.718c-.063-.125-.11-.187-.22-.187-.14 0-.171.094-.218.203L.625-.406c-.063.14-.063.187-.063.203 0 .11.079.203.188.203.14 0 .172-.078.234-.203l2.063-4.344 2.062 4.36c.047.093.094.187.22.187.109 0 .187-.094.187-.203 0-.031 0-.047-.063-.172zm0 0"/></svg></svg>