<svg xmlns="http://www.w3.org/2000/svg" xmlns:xlink="http://www.w3.org/1999/xlink" width="64" height="64" viewBox="0 0 12.156 6.297"><svg overflow="visible" x="-.563" y="5.641"><path style="stroke:none" d="M6.375-2.266c.125-.078.188-.109.188-.234 0-.11-.063-.14-.188-.219L.937-5.579A.383.383 0 0 0 .75-5.64a.193.193 0 0 0-.188.204c0 .109.079.156.188.218L5.938-2.5.75.234C.64.297.562.344.562.454c0 .093.063.202.188.202.047 0 .063 0 .203-.062zm6.156 0c.11-.062.188-.109.188-.234 0-.11-.047-.125-.203-.219l-5.422-2.86a.328.328 0 0 0-.172-.062c-.031 0-.203.016-.203.204 0 .109.047.125.187.203L12.094-2.5 6.89.25c-.11.063-.172.094-.172.203 0 .125.078.203.203.203.031 0 .062 0 .187-.062zm-3.078 0c.11-.062.188-.109.188-.234 0-.11-.047-.125-.204-.219l-5.421-2.86a.384.384 0 0 0-.172-.062c-.078 0-.203.047-.203.204 0 .109.078.156.171.203L9.017-2.5 3.844.234c-.14.078-.203.11-.203.22 0 .108.062.202.203.202.031 0 .047 0 .187-.062zm0 0"/></svg></svg>