<svg xmlns="http://www.w3.org/2000/svg" xmlns:xlink="http://www.w3.org/1999/xlink" width="64" height="64" viewBox="0 0 6.094 7.703"><svg overflow="visible" x="-.828" y="6.344"><path style="stroke:none" d="M6.734-5.922c.11-.062.188-.11.188-.219a.207.207 0 0 0-.203-.203c-.047 0-.14.047-.172.063L1.03-3.671c-.172.077-.203.14-.203.218 0 .078.047.156.203.219L6.547-.641c.125.079.14.079.172.079.11 0 .203-.094.203-.204 0-.125-.094-.171-.203-.218L1.5-3.454zm-.187 7.219c.125.062.14.062.172.062.11 0 .203-.078.203-.187 0-.14-.094-.172-.203-.219l-5.5-2.594c-.125-.078-.157-.078-.188-.078a.197.197 0 0 0-.203.203c0 .079.047.157.203.22zm0 0"/></svg></svg>