<svg xmlns="http://www.w3.org/2000/svg" xmlns:xlink="http://www.w3.org/1999/xlink" width="64" height="64" viewBox="0 0 3.859 5.594"><svg overflow="visible" x="-.516" y="5.313"><path style="stroke:none" d="M.953-2.297c0 .625-.015 1.094-.062 1.64.359.282.718.61 1.015.938l2.157-1.14c.171-.391.312-1.22.312-1.579 0-.718 0-1.046-.063-1.703a7.234 7.234 0 0 1-1.14-.609L1.75-3.734v-.329c-.25-.28-.469-.515-.469-.75 0-.171.078-.328.172-.468l-.14-.032C1-5.016.515-4.468.515-4.171c0 .328.406.5.406.734.015.454.031.829.031 1.141zm.797-1.172c.281-.203.625-.453.906-.484.297.062.61.172.844.39.047.376.078.766.078 1.141 0 .672-.14 1.938-.734 1.938-.375 0-.688-.438-.797-.438-.188-.156-.344-.375-.328-.625zm0 0"/></svg></svg>