<svg xmlns="http://www.w3.org/2000/svg" xmlns:xlink="http://www.w3.org/1999/xlink" width="64" height="64" viewBox="0 0 6.516 7.984"><svg overflow="visible" x=".078" y="6.656"><path style="stroke:none" d="M3.672 1.063c.172.187.422.265.687.265C4.734 1.328 5.5.625 6 .156c.36-.797.438-1.672.438-2.531 0-.61-.125-1.188-.282-1.766C5.641-4.53 5-4.67 4.36-4.67c-.656.39-1.28.827-1.812 1.374-.22-.454-.518-1.094-.518-1.484 0-.5.219-.828.485-1.094.468.234 1.03.516 1.515.516.328 0 1-.657 1.422-1.079l-.125-.156c-.531.407-.64.547-.86.547-.5 0-.937-.266-1.28-.61-.829.579-1.97 1.485-1.97 2.36 0 1.016 1.016 2.14 1.016 2.984-.015.25-.046.438-.234.688-.203-.234-.578-.531-.89-.531-.407 0-.907.531-1.188 1.062l.125.14c.125-.155.36-.405.656-.405.281 0 .625.28.875.515.188-.14.938-1.078 1.25-1.484.094-.125.11-.344.11-.516 0-.234-.079-.703-.282-1.218.422-.5.938-.97 1.547-.97.89 0 1.375.641 1.375 2.126 0 .984.031 2.703-.86 2.703A.657.657 0 0 1 4.14.423zm0 0"/></svg></svg>