<svg xmlns="http://www.w3.org/2000/svg" xmlns:xlink="http://www.w3.org/1999/xlink" width="64" height="64" viewBox="0 0 6.469 5.594"><svg overflow="visible" x="-.438" y="5.313"><path style="stroke:none" d="M4.172-3.672v-.36a9.915 9.915 0 0 1-1.266-.687c-.375.36-.797.672-1.234.969v-.313c-.234-.28-.453-.515-.453-.75 0-.171.062-.328.156-.468l-.14-.032c-.298.297-.798.844-.798 1.141 0 .328.376.453.407.734.047.454.031.922.031 1.376 0 .515-.016 1.03-.094 1.546.235.22.422.5.578.782l.75-.75c-.25-.297-.468-.688-.468-1.094 0-.64.015-1.547.015-1.89.203-.141.532-.438.735-.438.187 0 .515.219.937.5.047.39.047.797.047 1.187 0 .578-.031 1.172-.078 1.766.453.219.906.469 1.344.734l1.859-1c.219-.625.406-1.031.406-1.953 0-.453-.015-1.094-.062-1.36a16.09 16.09 0 0 1-1.266-.655zm.797-.172c.312.047.703.188 1 .375.078.313.11.563.11.844 0 .734-.016 2.188-.61 2.188-.625 0-1.266-.625-1.297-1.094a14.347 14.347 0 0 1-.031-.813c0-.344.015-.687.03-1.062.173-.11.579-.438.798-.438zm0 0"/></svg></svg>