<svg xmlns="http://www.w3.org/2000/svg" xmlns:xlink="http://www.w3.org/1999/xlink" width="64" height="64" viewBox="0 0 6.906 7.219"><svg overflow="visible" x=".266" y="6.953"><path style="stroke:none" d="M4.531-1.203 5.203.266 6.641-.797V-1c-.094.063-.36.219-.594.219-.672 0-.734-1.656-.734-1.828v-2c0-.75-.016-1.547.578-2.125l-.157-.11-1.265.907c.078 1.14.093 2.28.093 3.437 0 .297 0 .703-.046.86-.141.421-.86 1.156-1.375 1.156-.516 0-1.36-.579-2.016-.579l1.016-1.109c.109-.234.14-.484.14-.75 0-.922-.844-1.844-.844-2.594 0-.53.438-.968.844-1.265l-.094-.172C1.47-6.547.595-5.61.595-5.047c0 .813 1 1.844 1 2.547 0 .375-.11.75-.375 1.016-.19.203-.44.453-.69.484l-.797.89.11.172c.125-.187.344-.437.531-.437.797 0 1.563.64 2.453.64a1 1 0 0 0 .578-.203zm0 0"/></svg></svg>