<svg xmlns="http://www.w3.org/2000/svg" xmlns:xlink="http://www.w3.org/1999/xlink" width="64" height="64" viewBox="0 0 6.625 2.328"><svg overflow="visible" x="-.563" y="3.656"><path style="stroke:none" d="M7.188-3.25c0-.313-.094-.406-.157-.406-.093 0-.156.172-.156.312-.016.219-.031.547-.39.89a1.41 1.41 0 0 1-.97.376c-.609 0-1.062-.36-1.702-.86-.47-.374-.985-.718-1.594-.718-1 0-1.656.922-1.656 1.922 0 .343.109.406.156.406.11 0 .156-.203.156-.313.016-.234.031-.546.39-.89.126-.125.454-.375.954-.375.562 0 1.031.328 1.5.687.625.485 1.14.89 1.797.89 1 0 1.671-.921 1.671-1.921zm0 0"/></svg></svg>