<svg xmlns="http://www.w3.org/2000/svg" xmlns:xlink="http://www.w3.org/1999/xlink" width="64" height="64" viewBox="0 0 9.031 6.156"><svg overflow="visible" x="-.359" y="5.735"><path style="stroke:none" d="M3.766-2.297h4.828c-.094.078-.656.578-1 1.469h.297C8.062-1.281 8.453-2 9.39-2.5c-.938-.5-1.329-1.203-1.5-1.656h-.297c.343.89.906 1.39 1 1.468H3.766v-.609c0-1.531-.313-2.437-1.72-2.437-1.17 0-1.686.609-1.686 1.703 0 1.343.782 1.734 2.375 1.734h.625v2.36c0 .171 0 .359.204.359.203 0 .203-.188.203-.36zm-1-.39C1.172-2.688.75-3.063.75-4.032c0-.953.422-1.313 1.297-1.313.984 0 1.312.453 1.312 2.078v.579zm0 0"/></svg></svg>