<svg xmlns="http://www.w3.org/2000/svg" xmlns:xlink="http://www.w3.org/1999/xlink" width="64" height="64" viewBox="0 0 6.094 9.234"><svg overflow="visible" x="-.828" y="7.5"><path style="stroke:none" d="M6.734-7.094c.11-.047.188-.11.188-.218 0-.11-.094-.188-.203-.188a.554.554 0 0 0-.172.047L1.03-4.843c-.172.077-.203.155-.203.234 0 .078.047.14.203.218l5.516 2.594c.125.063.14.063.172.063.11 0 .203-.094.203-.204 0-.125-.094-.171-.203-.218L1.5-4.61zm-.171 8.828c.171 0 .359 0 .359-.203s-.188-.203-.36-.203H1.188c-.171 0-.359 0-.359.203s.172.203.344.203zm0-1.937c.171 0 .359 0 .359-.203 0-.188-.188-.188-.36-.188H1.188c-.171 0-.359 0-.359.188 0 .203.172.203.344.203zm0 0"/></svg></svg>