<svg xmlns="http://www.w3.org/2000/svg" xmlns:xlink="http://www.w3.org/1999/xlink" width="64" height="64" viewBox="0 0 7.953 9.078"><svg overflow="visible" x="-.063" y="6.891"><path style="stroke:none" d="M4.094-5.078c.36-.547.828-1.234 1.593-1.234.47 0 .61.265.625.796.032.516.204.813.563.891C6.5-4.312 6-3.906 6-3.453c0 .687.984 1.422.984 2.078 0 .484-.375.75-.812.75-.406 0-.64-.125-2.078-.594zm-.125-.313c-.235-.671-.844-1.437-1.578-1.437-.938 0-1.579.625-1.829.86-.265.28-.5.577-.5.968 0 .531.407.89.72 1.328.062.078.124.172.124.266 0 .328-.328.64-.64.812l.156.11C1-2.781 1.64-3.188 1.64-3.813c0-.624-.938-1.03-.938-1.687 0-.5.438-.703 1.016-.703 1 0 1.578 1.125 1.578 2.25v2.5a1.947 1.947 0 0 0-.469-.078c-.86 0-1.312.797-1.656 1.484l.11.203c.312-.422.655-.953 1.218-.953.172 0 .469.063.797.172 0 .906-.063 2.188-.266 2.703l.203.11c.329-.235.907-.657.97-.704-.095-.609-.11-1.234-.11-1.859l1.172.422c.093.031.203.062.312.062.969 0 1.906-1.171 1.906-2.234 0-.75-.75-1.25-.75-1.86 0-.406.782-.953 1.282-1.218l-.047-.156c-.125.03-.25.078-.375.078-.782 0-.094-1.61-1.219-1.61-.938 0-1.922.797-2.406 1.5zm0 0"/></svg></svg>