<svg xmlns="http://www.w3.org/2000/svg" xmlns:xlink="http://www.w3.org/1999/xlink" width="64" height="64" viewBox="0 0 6.094 13.359"><svg overflow="visible" x="-.828" y="9.172"><path style="stroke:none" d="M6.703-4.39c.14-.079.219-.11.219-.235 0-.11-.094-.172-.188-.219l-1.593-.75 1.093-3.172c.016-.062.047-.14.047-.203a.197.197 0 0 0-.203-.203c-.14 0-.172.11-.219.235l-1.078 3.17-3.547-1.67a.51.51 0 0 0-.203-.063c-.11 0-.203.078-.203.188 0 .125.063.156.219.218L4.64-5.39l-.61 1.813-3 1.422c-.172.078-.203.14-.203.219 0 .109.094.203.203.203.032 0 .063-.016.157-.063l2.671-1.25-.843 2.453H1.172c-.172 0-.344 0-.344.188 0 .203.203.203.375.203h1.672l-.516 1.531H1.172c-.172 0-.344 0-.344.203s.203.203.375.203H2.22l-.703 2.047c-.016.063-.047.14-.047.203 0 .11.078.204.203.204s.172-.11.219-.235l.75-2.219h3.906c.172 0 .375 0 .375-.203s-.172-.203-.36-.203h-3.78l.515-1.531h3.25c.172 0 .375 0 .375-.203 0-.188-.172-.188-.36-.188H3.438l.922-2.703zm-.453-.235-1.719.813.485-1.407zm0 0"/></svg></svg>