<svg xmlns="http://www.w3.org/2000/svg" xmlns:xlink="http://www.w3.org/1999/xlink" width="64" height="64" viewBox="0 0 2.859 4.937"><svg overflow="visible" x="-.718" y="4.641"><path style="stroke:none" d="M3.578-.922 3.5-1.094c-.344.203-.734.422-1.047.516-.312-.281-.656-.594-.844-.89a6.52 6.52 0 0 1-.062-.985c0-.485.031-1.172.203-1.469.375 0 .875.25 1.203.531l.094-.03.515-.782c-.328-.219-.687-.406-1.078-.438L.844-3.625C.719-3.062.719-2.469.719-2.172c0 .453.015.89.047 1.328.343.406.703.797 1.093 1.14zm0 0"/></svg></svg>