<svg xmlns="http://www.w3.org/2000/svg" xmlns:xlink="http://www.w3.org/1999/xlink" width="64" height="64" viewBox="0 0 6.625 10.75"><svg overflow="visible" x="-.563" y="7.297"><path style="stroke:none" d="M3.906 1.438c.547.453 1 .812 1.625.812 1.047 0 1.657-1.063 1.657-1.984 0-.235-.063-.329-.141-.329-.125 0-.14.235-.14.297-.032.86-.657 1.454-1.376 1.454-.531 0-.937-.266-1.39-.657L5.17-.875c.095-.14.095-.156.095-.203a.206.206 0 0 0-.204-.203c-.125 0-.14.047-.25.265L3.845.75c-.547-.453-1-.813-1.625-.813C1.172-.063.563 1 .563 1.923c0 .234.062.328.14.328.11 0 .14-.203.14-.234C.892.875 1.689.484 2.22.484c.515 0 .937.282 1.39.672l-1.03 1.89c-.095.157-.095.173-.095.22 0 .093.063.187.204.187.109 0 .14-.031.25-.25zm.125-5.844c-1.093.203-2.265.625-2.828 1.562-.203.313-.375.75-.375 1.11 0 .14.094.203.203.203.172 0 .188-.11.219-.36.36-2.14 3.61-2.312 5.375-2.312.11 0 .297 0 .297-.203 0-.078-.047-.125-.078-.157-.032-.015-.063-.03-.078-.03-.016-.016-.032-.016-.344-.016-.547 0-.563 0-1.203-.047-2.5-.203-3.766-.953-3.985-2.407-.015-.062-.03-.234-.203-.234a.197.197 0 0 0-.203.203c0 .032.031 1.047.953 1.766.578.469 1.313.75 2.25.922zm0 0"/></svg></svg>