<svg xmlns="http://www.w3.org/2000/svg" xmlns:xlink="http://www.w3.org/1999/xlink" width="64" height="64" viewBox="0 0 6.094 11.016"><svg overflow="visible" x="-.828" y="8"><path style="stroke:none" d="m5.219-5.219 1.484-.703c.156-.078.219-.094.219-.219a.197.197 0 0 0-.203-.203.383.383 0 0 0-.188.063l-1.078.515.766-1.843c.047-.125.062-.141.062-.204 0-.109-.078-.187-.203-.187-.062 0-.11.016-.14.063l-1.017 2.42-3.89 1.829c-.126.062-.204.124-.204.234 0 .125.094.172.203.219l2.453 1.156-.515 1.25L2-1.281c-.11-.047-.406-.188-.531-.25-.14-.063-.407-.188-.438-.188-.11 0-.203.078-.203.188 0 .14.063.156.266.25l1.718.812-1.28 3.094c-.063.125-.063.14-.063.203 0 .11.078.188.203.188.047 0 .11-.016.14-.063L3.11-.157c.016-.046.047-.124.079-.124.015 0 .656.297.734.344l2.5 1.171c.25.125.266.125.297.125.11 0 .203-.093.203-.187 0-.078-.031-.156-.203-.234L3.329-.657l.515-1.25 1.515.703c.875.422 1.297.64 1.36.64.11 0 .203-.109.203-.203 0-.125-.078-.156-.219-.234L4-2.266zM1.5-3.453 4.688-4.97 3.64-2.437zm0 0"/></svg></svg>