<svg xmlns="http://www.w3.org/2000/svg" xmlns:xlink="http://www.w3.org/1999/xlink" width="64" height="64" viewBox="0 0 7.188 7.25"><svg overflow="visible" x="-.563" y="7.031"><path style="stroke:none" d="M7.75-4.813c0-1.265-.563-2.218-1.781-2.218-1.032 0-1.907.843-1.985.906-.796.781-1.093 1.672-1.093 1.703 0 .063.046.063.093.063.204 0 .36-.094.5-.204.188-.125.188-.156.297-.39.094-.203.328-.688.688-1.11.25-.265.453-.421.843-.421.97 0 1.579.796 1.579 2.109 0 2.031-1.438 4.047-3.282 4.047-1.421 0-2.187-1.125-2.187-2.547 0-1.36.687-2.86 2.14-3.719.11-.062.407-.234.407-.36 0-.077-.078-.077-.094-.077-.36 0-3.313 1.593-3.313 4.578 0 1.39.735 2.672 2.391 2.672 1.938 0 4.797-1.953 4.797-5.032zm0 0"/></svg></svg>