<svg xmlns="http://www.w3.org/2000/svg" xmlns:xlink="http://www.w3.org/1999/xlink" width="64" height="64" viewBox="0 0 5.891 5.984"><svg overflow="visible" x="148.712" y="134.765" transform="translate(-149.556 -129)"><path style="stroke:none" d="M3.781-3.047c.313 1.5.828 2.438 1.703 2.953A2.95 2.95 0 0 0 6.516.22c.171 0 .218-.125.218-.203 0-.094-.078-.172-.171-.188C6.077-.25 5.03-.406 4.421-2.187 4.062-3.25 4-4.531 3.984-5.517c0-.046 0-.25-.203-.25a.156.156 0 0 0-.14.079c-.016.03-.047.062-.047.078v.359c-.016.906-.14 2.125-.406 2.969-.47 1.469-1.22 1.969-2.126 2.094C1-.172.845-.158.845.016c0 .078.031.203.203.203.016 0 1.047-.016 1.797-.969.5-.61.781-1.469.937-2.297zm0 0"/></svg></svg>