<svg xmlns="http://www.w3.org/2000/svg" xmlns:xlink="http://www.w3.org/1999/xlink" width="64" height="64" viewBox="0 0 6.094 7.703"><svg overflow="visible" x="-.828" y="6.344"><path style="stroke:none" d="M6.719-3.234c.156-.063.203-.141.203-.22 0-.077-.031-.14-.203-.218L1.203-6.266c-.125-.078-.14-.078-.172-.078-.203 0-.203.188-.203.36v5.062c0 .172 0 .36.203.36.032 0 .047 0 .172-.079zm-.469-.22L1.219-1.077v-4.75zm.313 4.813c.171 0 .359 0 .359-.187 0-.203-.188-.203-.36-.203H1.188c-.171 0-.359 0-.359.203 0 .187.172.187.344.187zm0 0"/></svg></svg>