<svg xmlns="http://www.w3.org/2000/svg" xmlns:xlink="http://www.w3.org/1999/xlink" width="64" height="64" viewBox="0 0 3.859 8.656"><svg overflow="visible" x="-.563" y="8.437"><path style="stroke:none" d="M4.422-2.172c0-.125 0-.515-.39-.515-.407 0-.407.421-.407.562v.844c0 .218 0 .375-.328.547-.266.125-.578.156-.797.156-.219 0-.5-.031-.766-.14-.375-.173-.375-.345-.375-.563v-5.657c0-.218 0-.375.329-.546.265-.125.578-.157.812-.157.203 0 .484.032.75.141.375.156.375.344.375.563v.843c0 .14 0 .547.406.547.39 0 .39-.375.39-.5v-.969c0-1.14-1.187-1.421-1.921-1.421-.75 0-1.938.296-1.938 1.421v5.797C.563-.062 1.75.22 2.5.22c.734 0 1.922-.297 1.922-1.438zm0 0"/></svg></svg>