<svg xmlns="http://www.w3.org/2000/svg" xmlns:xlink="http://www.w3.org/1999/xlink" width="64" height="64" viewBox="0 0 6.625 7.359"><svg overflow="visible" x="-.563" y="6.531"><path style="stroke:none" d="M3.047-5.234c-.36.484-.5.953-.563 1.312L2.781-4c.063-.422.25-.89.64-1.328.235-.219.282-.234.36-.234.11 0 .219-.016.219-.125 0-.125-.125-.125-.219-.125-.156 0-.437.046-.469.046-.015 0-.687-.14-1.265-.765-.063.015-.235.078-.281.078.453.516 1.046.781 1.078.797A3.328 3.328 0 0 0 .563-2.5c0 1.86 1.5 3.328 3.312 3.328 1.844 0 3.313-1.5 3.313-3.328 0-2.031-1.75-3-1.938-3-.11 0-.11.11-.11.125 0 .078.048.094.126.14 1.406.782 1.671 2.048 1.671 2.735A3.07 3.07 0 0 1 3.876.578 3.071 3.071 0 0 1 .812-2.5 3.06 3.06 0 0 1 3-5.438zm0 0"/></svg></svg>