<svg xmlns="http://www.w3.org/2000/svg" xmlns:xlink="http://www.w3.org/1999/xlink" width="64" height="64" viewBox="0 0 5.375 9.984"><svg overflow="visible" x=".203" y="7.485"><path style="stroke:none" d="M5.031-4.766c.125-.125.14-.14.14-.218a.207.207 0 0 0-.202-.204c-.078 0-.078.016-.313.235l-1 1v-3.14c0-.188 0-.391-.203-.391-.187 0-.187.171-.187.343v3.579L1.719-2v-5.14c0-.173 0-.344-.203-.344-.204 0-.204.203-.204.39v5.5L-.063-.234c-.109.109-.14.172-.14.234 0 .11.11.203.203.203C.078.203.094.187.281 0l1.031-1.031v3.14c0 .188 0 .391.204.391.203 0 .203-.172.203-.344v-3.578l1.547-1.562v5.14c0 .172 0 .344.187.344.203 0 .203-.203.203-.39v-5.5zm0 0"/></svg></svg>