<svg xmlns="http://www.w3.org/2000/svg" xmlns:xlink="http://www.w3.org/1999/xlink" width="64" height="64" viewBox="0 0 6.094 11.016"><svg overflow="visible" x="-.828" y="8"><path style="stroke:none" d="M6.219-7.61c.047-.124.062-.14.062-.202 0-.11-.078-.188-.203-.188-.062 0-.11.016-.14.063l-.782 1.859a3.11 3.11 0 0 0-1.297-.266H1.172c-.172 0-.344 0-.344.203 0 .204.172.204.344.204h2.656c.235 0 .672.015 1.172.218L3.016-.969H1.172c-.172 0-.344 0-.344.203 0 .204.172.204.344.204h1.687L2.22.968H1.172c-.172 0-.344 0-.344.204 0 .187.172.187.344.187h.875c-.078.22-.578 1.36-.578 1.47 0 .108.078.187.203.187s.156-.094.219-.235l.593-1.422h3.891c.172 0 .344 0 .344-.187 0-.203-.172-.203-.344-.203H2.656l.64-1.531h.579c1.672 0 3.047-1.266 3.047-2.891 0-1.156-.719-2.031-1.422-2.438zm-.875 2.094c.875.547 1.172 1.375 1.172 2.063 0 .734-.313 1.375-.86 1.844-.75.64-1.5.64-2.203.64zm0 0"/></svg></svg>