<svg xmlns="http://www.w3.org/2000/svg" xmlns:xlink="http://www.w3.org/1999/xlink" width="64" height="64" viewBox="0 0 5.156 6.828"><svg overflow="visible" x="-.203" y="6.828"><path style="stroke:none" d="M3.375-4.61c-.188 0-.344 0-.344.173 0 .14.156.171.188.171.187.032.187.266.187.282 0 .28-.187.468-.406.656-.203.203-.75.672-.969.875V-6.47c0-.343-.047-.36-.344-.36H.532c-.187 0-.328 0-.328.173 0 .14.14.172.172.172.266.046.281.453.281.796v4.547c0 .735-.172.766-.312.797a.17.17 0 0 0-.14.172C.203 0 .343 0 .53 0h1.61c.187 0 .328 0 .328-.172 0-.14-.125-.172-.172-.172C2.03-.406 2.03-.78 2.03-.969v-.984l.11-.094c.203.266.75.953.953 1.235.203.218.203.25.265.406-.078.015-.03.031-.125.047-.14.015-.296.015-.296.187s.14.172.328.172H5.03c.172 0 .328 0 .328-.172a.167.167 0 0 0-.156-.172c-.078-.031-.094-.031-.14-.078-.25-.234-1.922-2.375-1.985-2.469.047-.046.578-.53.703-.64.594-.5.922-.703 1.188-.735.062-.015.187-.03.187-.171 0-.172-.14-.172-.328-.172zm.39.641a.677.677 0 0 0-.062-.297h.438zM1-5.719c0-.265-.016-.547-.11-.765h.782v5.53c0 .126 0 .376.11.61H.89c.094-.219.11-.5.11-.765zm1.39 3.453.407-.39L4.64-.344h-.938c0-.156 0-.25-.172-.5zm0 0"/></svg></svg>