<svg xmlns="http://www.w3.org/2000/svg" xmlns:xlink="http://www.w3.org/1999/xlink" width="64" height="64" viewBox="0 0 7.109 7.312"><svg overflow="visible" x="-.203" y="6.812"><path style="stroke:none" d="M3.469-6.813C2.063-6.813 1-6.125.594-5.655c-.36.39-.39.687-.39.703 0 .062.046.078.109.078.156 0 .39-.14.468-.188.203-.14.235-.203.297-.39.14-.406.422-.75 1.672-.813-.172 2.25-.781 4.438-1.61 6.516-.062.156-.062.172-.062.172 0 .031.031.078.094.078.156 0 .64-.219.75-.484.516-1.22 1.344-3.5 1.64-6.282h.516c1.219 0 2.375.47 2.375 1.47 0 .75-.719 2.14-2.64 2.202-.22.016-.329.016-.61.188-.172.125-.25.234-.25.297 0 .062.063.062.188.062 1.812 0 4.171-1.531 4.171-3.172 0-1.14-1.343-1.593-2.5-1.593zm0 0"/></svg></svg>