<svg xmlns="http://www.w3.org/2000/svg" xmlns:xlink="http://www.w3.org/1999/xlink" width="64" height="64" viewBox="0 0 6.094 5.797"><svg overflow="visible" x="-.828" y="5.391"><path style="stroke:none" d="M3.734-3.438c.094 0 .188-.015.282-.015a.96.96 0 1 1 0 1.922c-.094 0-.188-.016-.282-.016H1.172c-.172 0-.344 0-.344.203s.172.203.344.203h2.844c.78 0 1.375-.625 1.375-1.359s-.594-1.344-1.375-1.344H1.172c-.172 0-.344 0-.344.203 0 .204.172.204.344.204zm.11-1.546c1.547 0 2.672 1.14 2.672 2.484 0 1.36-1.11 2.5-2.672 2.5H1.172C1 0 .828 0 .828.203s.172.203.344.203h2.703C5.531.406 6.922-.859 6.922-2.5c0-1.625-1.39-2.89-3.047-2.89H1.172c-.172 0-.344 0-.344.202 0 .204.172.204.344.204zm0 0"/></svg></svg>