<svg xmlns="http://www.w3.org/2000/svg" xmlns:xlink="http://www.w3.org/1999/xlink" width="64" height="64" viewBox="0 0 5.031 7.109"><svg overflow="visible" x="-.281" y="6.844"><path style="stroke:none" d="M5.203-6.688c-.234.22-.578.532-1 .532-.203 0-.36-.078-.531-.157-.5-.234-1.125-.53-1.531-.53-.938 0-1.36.859-1.86 2.187l.172.11c.25-.673.688-1.438 1.453-1.438.438 0 1.047.265 1.86.578a7.403 7.403 0 0 0 1.546-1.125zM.422.157l.531-.36c.266.235.594.47.953.47.828 0 1.563-.438 2.125-1 .453-.454.594-1.094.594-1.704 0-.718-.156-1.312-.156-2.187 0-.453.328-.844.656-1.14L5-5.829c-.5.312-1 .781-1.39 1.219-.016.109-.016.218-.016.328 0 .625.172 1.328.172 2.218 0 .797-.235 1.891-1.11 1.891-.25 0-.515-.125-.687-.297-.14-.125-.188-.234-.453-.812C1.469-1.234.703-.438.375 0zm0 0"/></svg></svg>