<svg xmlns="http://www.w3.org/2000/svg" xmlns:xlink="http://www.w3.org/1999/xlink" width="64" height="64" viewBox="0 0 7.734 6.922"><svg overflow="visible" x="-.563" y="6.922"><path style="stroke:none" d="M.953-6.563c0-.171 0-.359-.203-.359-.188 0-.188.188-.188.36V-.36c0 .171 0 .359.188.359.203 0 .203-.172.203-.344zm3.61 3.297h3.375c.171 0 .359 0 .359-.187 0-.203-.188-.203-.36-.203H4.563v-2.906c0-.172 0-.36-.203-.36-.187 0-.187.188-.187.36V-.36c0 .171 0 .359.187.359.204 0 .204-.172.204-.344zM2.766-6.562c0-.172 0-.36-.204-.36-.203 0-.203.188-.203.36V-.36c0 .171 0 .359.204.359.203 0 .203-.172.203-.344zm0 0"/></svg></svg>