<svg xmlns="http://www.w3.org/2000/svg" xmlns:xlink="http://www.w3.org/1999/xlink" width="64" height="8pt" viewBox="0 0 7.906 8"><svg overflow="visible" x="-.468" y="6.812"><path style="stroke:none" d="M6.125-6.813c-.953 0-1.781.47-2.234.797-1.094.766-1.204 1.61-1.204 1.625 0 .079.047.079.094.079.235 0 .672-.282.735-.47.328-1.046 1.046-1.484 2.03-1.484h1.329c-1.11.875-1.563 2.391-2.219 4.985C4.422-.36 3.813.64 2.796.64 2.032.64 1.314.125 1.314-.75c0-.203.046-.36.046-.406 0-.032 0-.094-.093-.094-.063 0-.282.047-.563.266C.578-.891.47-.797.47-.328c0 .922.703 1.516 1.672 1.516.843 0 1.656-.485 2.14-.891.922-.797 1.11-1.516 1.282-2.235.375-1.437.843-3.25 1.593-4.093.157-.172.203-.203.438-.235.437-.03.781-.359.781-.468 0-.063-.016-.079-.234-.079zm0 0"/></svg></svg>