<svg xmlns="http://www.w3.org/2000/svg" xmlns:xlink="http://www.w3.org/1999/xlink" width="64" height="64" viewBox="0 0 8.859 6.297"><svg overflow="visible" x="-.547" y="5.641"><path style="stroke:none" d="M6.172-5.219c.125-.078.203-.11.203-.218 0-.141-.11-.204-.203-.204a.335.335 0 0 0-.188.063l-5.25 2.86c-.109.077-.187.109-.187.218 0 .125.078.156.187.234l5.25 2.86c.11.062.141.062.188.062a.197.197 0 0 0 .203-.203c0-.11-.078-.14-.203-.219l-5-2.734zm3.047 0c.11-.078.187-.11.187-.218a.194.194 0 0 0-.187-.204.335.335 0 0 0-.188.063l-5.25 2.86c-.125.077-.187.109-.187.218 0 .125.062.156.187.234L9.016.594c.125.062.156.062.203.062.125 0 .187-.094.187-.203 0-.11-.078-.14-.187-.219L4.203-2.5zm0 0"/></svg></svg>