<svg xmlns="http://www.w3.org/2000/svg" xmlns:xlink="http://www.w3.org/1999/xlink" width="64" height="64" viewBox="0 0 6.094 11.516"><svg overflow="visible" x="-.828" y="8.25"><path style="stroke:none" d="M3.5-2.14H1.172c-.172 0-.344 0-.344.203s.172.203.344.203h2.14l-.687 1.53H1.172C1-.203.828-.203.828 0c0 .203.172.203.344.203h1.281l-.687 1.531h-.594c-.172 0-.344 0-.344.204 0 .203.172.203.344.203h.406c-.016.03-.156.359-.187.437-.079.156-.204.453-.204.5 0 .125.125.188.204.188.125 0 .171-.094.187-.172.156-.313.313-.625.453-.953h4.531c.172 0 .36 0 .36-.204 0-.203-.188-.203-.36-.203H2.204l.688-1.53h3.671c.172 0 .36 0 .36-.204 0-.203-.188-.203-.36-.203H3.079l.672-1.531c2.11 0 3.172-1.532 3.172-2.875 0-.985-.516-1.735-.938-2.094L6.5-7.875c.016-.047.063-.14.063-.188 0-.124-.125-.187-.204-.187-.109 0-.171.078-.234.203l-.469 1.078A3.313 3.313 0 0 0 3.86-7.5H1.172c-.172 0-.344 0-.344.188 0 .203.172.203.344.203h2.656c.547 0 1.094.125 1.656.515zm2.297-4.172a2.35 2.35 0 0 1 .719 1.687c0 1.203-.907 2.406-2.594 2.484zm0 0"/></svg></svg>