<svg xmlns="http://www.w3.org/2000/svg" xmlns:xlink="http://www.w3.org/1999/xlink" width="64" height="64" viewBox="0 0 6.094 9.078"><svg overflow="visible" x="-.828" y="7.031"><path style="stroke:none" d="M6.734-2.266c.11-.062.188-.109.188-.234s-.078-.156-.203-.219l-2.032-.953L6.204-6.64c.078-.14.078-.156.078-.203 0-.11-.093-.187-.203-.187-.11 0-.14.047-.203.187l-1.531 3-3.14-1.469a.45.45 0 0 0-.173-.062c-.11 0-.203.094-.203.188 0 .078.031.156.203.234l3.125 1.469L2.828-.875l-1.797.844C.86.047.828.125.828.203c0 .094.094.188.203.188.063 0 .625-.266.688-.313l.812-.375C2.375-.016 1.47 1.734 1.47 1.86c0 .11.093.188.203.188.031 0 .062 0 .11-.031.015-.032.03-.047.109-.188l1.234-2.39zM4.516-3.312 6.25-2.5 3.406-1.156zm0 0"/></svg></svg>