<svg xmlns="http://www.w3.org/2000/svg" xmlns:xlink="http://www.w3.org/1999/xlink" width="64" height="64" viewBox="0 0 6.094 10.25"><svg overflow="visible" x="-.828" y="7.5"><path style="stroke:none" d="M6.734-7.094c.11-.047.188-.11.188-.218 0-.11-.094-.188-.203-.188a.554.554 0 0 0-.172.047L1.03-4.843c-.172.077-.203.155-.203.234 0 .078.047.14.203.218l5.516 2.594c.125.063.14.063.172.063.11 0 .203-.094.203-.204 0-.125-.094-.171-.203-.218L1.5-4.61zM4.891-.204h1.671c.172 0 .36 0 .36-.202 0-.188-.188-.188-.36-.188H5.266c.156-.156.312-.328.468-.5.032-.031.11-.11.141-.156.063-.078.094-.094.094-.172 0-.11-.094-.187-.203-.187-.063 0-.079 0-.25.171-.422.407-.422.438-.797.844H1.187c-.171 0-.359 0-.359.188 0 .203.172.203.344.203h3.156L2.86 1.328H1.188c-.172 0-.36 0-.36.203s.172.203.344.203h1.312c-.156.157-.328.313-.468.485-.032.047-.11.125-.141.156-.078.094-.094.11-.094.188a.19.19 0 0 0 .188.187c.078 0 .078-.016.265-.172.422-.422.422-.437.797-.844h3.531c.172 0 .36 0 .36-.203s-.188-.203-.36-.203h-3.14zm0 0"/></svg></svg>