<svg xmlns="http://www.w3.org/2000/svg" xmlns:xlink="http://www.w3.org/1999/xlink" width="64" height="64" viewBox="0 0 4.344 5.078"><svg overflow="visible" x=".282" y="4.781"><path style="stroke:none" d="M1.906-2.438c-.047.032-.11.032-.156.032-.25 0-.328-.61-.328-.938 0-.234 0-.61.203-.797.266.25.797.485 1.516.516l.921-.766L4-4.562c-.266.171-.484.312-.719.312a.736.736 0 0 1-.265-.063l-.797-.468L.703-3.766c-.062.454-.062.938-.062 1.422.109.219.28.485.421.672l1.016-.578a.608.608 0 0 1 .36-.11c.25 0 .515.204.515.97 0 .312-.031 1.046-.265 1.046h-.032L1.844-.89a1.337 1.337 0 0 0-.719-.218c-.61 0-1.063.625-1.406.984l.094.094c.311-.282.592-.44.89-.44.406 0 .938.438 1.266.766C2.484-.016 3.03-.266 3.562-.5a4.88 4.88 0 0 0 .172-1.344c0-.25-.015-.515-.03-.765-.173-.157-.345-.313-.563-.375zm0 0"/></svg></svg>