<svg xmlns="http://www.w3.org/2000/svg" xmlns:xlink="http://www.w3.org/1999/xlink" width="64" height="64" viewBox="0 0 6.094 14.609"><svg overflow="visible" x="-.828" y="10"><path style="stroke:none" d="M6.672-9.563c.125-.046.25-.093.25-.234A.207.207 0 0 0 6.719-10c-.016 0-.047 0-.188.063L1.063-7.922c-.188.063-.235.125-.235.219 0 .14.11.187.203.219l5.516 2.03c.125.063.156.063.172.063.062 0 .203-.062.203-.203 0-.14-.11-.172-.219-.218L1.61-7.704zm-5.61 13.75c-.109.047-.234.094-.234.235 0 .11.094.187.203.187.016 0 .032 0 .188-.046l5.468-2.016c.188-.078.235-.14.235-.235 0-.124-.094-.171-.219-.218L1.203.063c-.14-.047-.156-.047-.172-.047-.078 0-.203.046-.203.187 0 .14.11.188.203.219l5.11 1.89zm.11-6.109c-.172 0-.344 0-.344.203 0 .188.172.188.344.188h5.39c.172 0 .36 0 .36-.188 0-.203-.188-.203-.36-.203zm0-1.937c-.172 0-.344 0-.344.203s.172.203.344.203h5.39c.172 0 .36 0 .36-.203s-.188-.203-.36-.203zm0 0"/></svg></svg>