<svg xmlns="http://www.w3.org/2000/svg" xmlns:xlink="http://www.w3.org/1999/xlink" width="64" height="64" viewBox="0 0 8.141 7.031"><svg overflow="visible" x="-.203" y="6.812"><path style="stroke:none" d="M4.031-6.266c1.922 0 2.422.47 2.422 1.125 0 .61-.484 1.813-2.125 1.875-.484.016-.828.36-.828.47 0 .062.031.062.047.062.422.078.625.265 1.14 1.453.454 1.047.72 1.5 1.297 1.5 1.22 0 2.36-1.219 2.36-1.438 0-.078-.078-.078-.11-.078-.125 0-.515.14-.718.422-.157.234-.375.547-.86.547-.515 0-.828-.703-1.156-1.484-.219-.5-.39-.875-.625-1.141 1.438-.531 2.422-1.578 2.422-2.61 0-1.25-1.672-1.25-3.188-1.25-.984 0-1.546 0-2.39.36C.39-5.86.203-5.031.203-4.953c0 .062.047.078.11.078.156 0 .39-.14.468-.188.203-.14.235-.203.297-.39.14-.406.422-.75 1.672-.813-.047.61-.14 1.547-.484 3A22.933 22.933 0 0 1 1.203.016c-.062.109-.062.125-.062.14 0 .063.078.063.109.063.203 0 .61-.235.719-.422C2-.266 3.266-3.078 3.562-6.266zm0 0"/></svg></svg>