<svg xmlns="http://www.w3.org/2000/svg" xmlns:xlink="http://www.w3.org/1999/xlink" width="64" height="64" viewBox="0 0 6.094 11.016"><svg overflow="visible" x="-.828" y="8"><path style="stroke:none" d="M4.266-2.922c1.546.422 2.109 1.188 2.25 2.078.015.125.03.281.203.281a.22.22 0 0 0 .203-.218c0-.188-.14-.969-.672-1.516-.484-.484-1.11-.797-1.828-1l.156-.375c1.031-.312 1.719-.828 2.063-1.5.265-.547.28-.953.28-.953a.21.21 0 0 0-.202-.219c-.125 0-.172.078-.203.188-.079.5-.235 1.406-1.735 1.984L6.22-7.609c.047-.125.062-.141.062-.204 0-.109-.078-.187-.203-.187-.062 0-.11.016-.14.063L4.28-4c-.968.266-1.968.344-2.968.344-.344 0-.485 0-.485.203 0 .187.156.187.485.187.859 0 1.718.063 2.562.25L2.219.97H1.172C1 .97.828.97.828 1.173c0 .187.172.187.344.187h.875c-.078.22-.578 1.36-.578 1.47 0 .108.078.187.203.187s.156-.094.219-.235l.593-1.422h4.079c.171 0 .359 0 .359-.187 0-.203-.188-.203-.36-.203H2.656zm-.532-.531.36-.078-.063.14zm0 0"/></svg></svg>