<svg xmlns="http://www.w3.org/2000/svg" xmlns:xlink="http://www.w3.org/1999/xlink" width="64" height="64" viewBox="0 0 6.094 5.797"><svg overflow="visible" x="-.828" y="5.391"><path style="stroke:none" d="M4.016-1.547c-.094 0-.204.016-.282.016a.96.96 0 1 1 0-1.922c.079 0 .188.015.282.015h2.546c.172 0 .36 0 .36-.203s-.188-.203-.36-.203H3.734A1.36 1.36 0 0 0 2.36-2.5c0 .75.594 1.36 1.375 1.36h2.828c.171 0 .359 0 .359-.204 0-.203-.188-.203-.36-.203zM3.906 0C2.36 0 1.22-1.14 1.22-2.5c0-1.344 1.125-2.484 2.687-2.484h2.656c.172 0 .36 0 .36-.204 0-.203-.188-.203-.36-.203H3.876C2.219-5.39.828-4.125.828-2.5.828-.86 2.218.406 3.875.406h2.688c.171 0 .359 0 .359-.203S6.734 0 6.562 0zm0 0"/></svg></svg>