<svg xmlns="http://www.w3.org/2000/svg" xmlns:xlink="http://www.w3.org/1999/xlink" width="64" height="64" viewBox="0 0 5.891 12.672"><svg overflow="visible" x="-.828" y="8.828"><path style="stroke:none" d="M6.484-8.406c.141-.047.235-.094.235-.235 0-.109-.094-.187-.203-.187-.016 0-.032 0-.172.062l-5.282 2c-.171.063-.234.11-.234.235 0 .14.11.187.203.218L6.328-4.28c.14.047.156.047.188.047.109 0 .203-.079.203-.188 0-.14-.094-.187-.203-.219L1.578-6.53zm0 10.187c.141-.062.235-.11.235-.234 0-.14-.125-.188-.203-.219L1.203-.703c-.14-.047-.156-.047-.172-.047-.11 0-.203.078-.203.188 0 .14.11.187.203.218l4.938 1.89-4.907 1.876c-.125.047-.234.094-.234.234 0 .11.094.188.203.188.032 0 .047 0 .188-.063zm-.109-4.078c.172 0 .344 0 .344-.203 0-.188-.188-.188-.36-.188H1.188c-.172 0-.36 0-.36.188 0 .203.172.203.344.203zm0 0"/></svg></svg>