<svg xmlns="http://www.w3.org/2000/svg" xmlns:xlink="http://www.w3.org/1999/xlink" width="64" height="64" viewBox="0 0 6.094 11.016"><svg overflow="visible" x="-.828" y="8"><path style="stroke:none" d="M3.516-2.063 2.406.97H1.172C1 .97.828.97.828 1.173c0 .187.203.187.375.187H2.25c-.14.422-.219.61-.25.72-.094.25-.266.702-.266.75 0 .108.094.187.204.187.14 0 .171-.094.218-.235l.531-1.422h3.86c.172 0 .375 0 .375-.187 0-.203-.172-.203-.36-.203H2.829l1.047-2.86L6.422-.703c.25.14.266.14.297.14.203 0 .203-.203.203-.359v-5.062c0-.188 0-.36-.203-.36a.383.383 0 0 0-.188.063l-1.281.625.719-1.985c.047-.109.047-.156.047-.171 0-.11-.11-.188-.204-.188-.14 0-.156.078-.218.219l-.875 2.36L1.03-3.688c-.125.062-.203.124-.203.234 0 .125.094.172.203.219zM4.53-4.89l-.89 2.454L1.5-3.454zM4-2.266 5.047-5.14l1.469-.687v4.734zm0 0"/></svg></svg>