<svg xmlns="http://www.w3.org/2000/svg" xmlns:xlink="http://www.w3.org/1999/xlink" width="64" height="64" viewBox="0 0 7.969 7.812"><svg overflow="visible" x="-.344" y="7.141"><path style="stroke:none" d="M4.844-6.188H6.5c1.313 0 1.813-.765 1.813-.89 0-.047-.032-.063-.094-.063-.11 0-.36.094-.61.266-.078.063-.109.063-.296.063h-4.36c-1.234 0-2.61 1.078-2.61 1.89 0 .063 0 .11.079.11.234 0 .86-.329.89-.563 0-.172.016-.36.22-.61.109-.124.187-.202.624-.202h1.985a.484.484 0 0 0-.235.359l-1.14 4.516c-.11.484-.329 1.109-.61 1.765-.062.11-.062.14-.062.156 0 .063.047.063.094.063.187 0 .687-.266.828-.469.062-.11.5-1.125.718-1.953zm0 0"/></svg></svg>