<svg xmlns="http://www.w3.org/2000/svg" xmlns:xlink="http://www.w3.org/1999/xlink" width="64" height="64" viewBox="0 0 7.563 6.812"><svg overflow="visible" x="-.5" y="6.812"><path style="stroke:none" d="M4.781-5.5c-.093-.734-.187-1.313-.89-1.313-.938 0-1.594.688-1.594.954 0 .078.062.078.11.078.109 0 .546-.125.734-.469l.015-.016c.547 0 .688.313.781 1.344l.141 1.469c-.36.187-1.703 1-2.422 1.5C.516-1.141.5-.843.5-.563.5-.219.672 0 .984 0c.297 0 .75-.328.75-.484 0-.047-.03-.047-.062-.063-.094-.015-.328-.047-.328-.437 0-.266 0-.391 1.062-1.094.61-.406 1.188-.719 1.703-1.047 0 .016.141 1.516.172 1.672C4.36-.656 4.421 0 5.156 0c.953 0 1.61-.672 1.61-.953 0-.078-.063-.078-.11-.078-.11 0-.547.14-.734.468-.031.016-.078.016-.094.016-.578 0-.64-.625-.719-1.469-.03-.312-.062-.578-.156-1.609 3.11-1.86 3.11-2.203 3.11-2.625 0-.344-.188-.563-.47-.563-.312 0-.78.344-.78.485 0 .062.062.062.078.062.078.016.312.063.312.438 0 .25-.031.406-.875.984-.297.203-.719.453-1.406.875zm0 0"/></svg></svg>