<svg xmlns="http://www.w3.org/2000/svg" xmlns:xlink="http://www.w3.org/1999/xlink" width="64" height="64" viewBox="0 0 3.781 4.922"><svg overflow="visible" x="-.156" y="4.719"><path style="stroke:none" d="M1.813-3.813v-.312a8.025 8.025 0 0 1-.657-.594l-1 .922.11.094.375-.156c.109.078.203.14.296.218.063-.078.094.594.094 1.204 0 .609 0 1.109-.062 1.687.328.344.656.672 1.031.953L3.453-.828l-.031-.188-.875.422c-.313-.234-.735-.61-.735-.922v-1.968c.063-.094.22-.22.375-.344.22.219.547.484.829.484.109 0 .234-.015.328-.094l.578-.546.015-.125c-.093.046-.265.14-.374.14-.25 0-.516-.437-.657-.703zm0 0"/></svg></svg>