<svg xmlns="http://www.w3.org/2000/svg" xmlns:xlink="http://www.w3.org/1999/xlink" width="64" height="64" viewBox="0 0 6.094 9.078"><svg overflow="visible" x="-.828" y="7.031"><path style="stroke:none" d="M3.875-2.047c1.75.375 2.469 1.156 2.64 2.172.016.125.032.281.204.281a.224.224 0 0 0 .203-.234c0-.047 0-1.984-2.86-2.578 0-.031.032-.078.079-.172 1.218-.328 2.062-.781 2.53-1.703.22-.438.25-.875.25-.875a.21.21 0 0 0-.202-.219c-.125 0-.172.078-.203.188-.063.468-.22 1.562-2.125 2.109l1.812-3.563c.078-.14.078-.156.078-.203 0-.11-.078-.187-.203-.187-.062 0-.11.015-.14.047l-2 3.921c-.063.11-.063.126-.079.126-.109.03-1.093.25-2.671.25-.188 0-.36 0-.36.187 0 .203.156.203.438.203.109 0 1.171 0 2.187.172L1.547 1.656c-.078.14-.078.157-.078.203 0 .11.078.188.203.188.047 0 .11-.016.14-.047zm0 0"/></svg></svg>