<svg xmlns="http://www.w3.org/2000/svg" xmlns:xlink="http://www.w3.org/1999/xlink" width="64" height="64" viewBox="0 0 7.281 6.859"><svg overflow="visible" x="-.234" y="5.922"><path style="stroke:none" d="M7.516-5.39a.527.527 0 0 0-.532-.532.537.537 0 0 0-.53.531c0 .282.25.532.53.532.297 0 .532-.25.532-.532zM1.28.405a.537.537 0 0 0-.53-.53.534.534 0 0 0-.516.531.524.524 0 1 0 1.047 0zm5.563-1.734c.172 0 .343 0 .343-.203 0-.188-.171-.188-.359-.188H.922c-.172 0-.36 0-.36.188 0 .203.172.203.344.203zm-.016-1.938c.188 0 .36 0 .36-.187 0-.203-.172-.203-.344-.203H.906c-.172 0-.344 0-.344.203 0 .187.188.187.36.187zm0 0"/></svg></svg>