<svg xmlns="http://www.w3.org/2000/svg" xmlns:xlink="http://www.w3.org/1999/xlink" width="64" height="64" viewBox="0 0 6.094 7.312"><svg overflow="visible" x="-.828" y="7.312"><path style="stroke:none" d="M5.813-7.094a.22.22 0 0 0-.204-.218c-.171 0-.187.14-.203.265C5.11-5.14 2.781-4.64 1.094-4.625c-.25 0-.266.172-.266.203 0 .188.156.188.39.188.673 0 3.188-.125 4.22-1.735a2.56 2.56 0 0 0 .375-1.125zm-4.61 4c-.156 0-.375 0-.375.203 0 .157.125.188.156.204h.579c.406 0 1.546.062 2.546.296 1.516.36 2.266 1.11 2.407 2.125.015.11.03.266.203.266a.206.206 0 0 0 .203-.203c0-.094-.078-1.047-.86-1.703-.484-.39-1.203-.782-2.375-.969 1.141-.219 2.297-.64 2.876-1.594.171-.297.359-.75.359-1.093 0-.094-.063-.204-.203-.204-.125 0-.188.11-.188.157-.11.687-.343 2.14-3.89 2.453-.375.031-.766.062-1.141.062zm0 0"/></svg></svg>