<svg xmlns="http://www.w3.org/2000/svg" xmlns:xlink="http://www.w3.org/1999/xlink" width="64" height="64" viewBox="0 0 9.938 3.172"><svg overflow="visible" x="-.563" y="4.078"><path style="stroke:none" d="M7.36-2.297c.124.86.827 1.39 1.562 1.39.89 0 1.578-.718 1.578-1.593a1.56 1.56 0 0 0-1.563-1.578c-.78 0-1.468.562-1.578 1.39H.906c-.172 0-.344 0-.344.188 0 .203.172.203.344.203zm1.577.985A1.177 1.177 0 0 1 7.75-2.5a1.17 1.17 0 0 1 1.172-1.172c.672 0 1.187.547 1.187 1.172 0 .672-.546 1.188-1.171 1.188zm0 0"/></svg></svg>