<svg xmlns="http://www.w3.org/2000/svg" xmlns:xlink="http://www.w3.org/1999/xlink" width="64" height="64" viewBox="0 0 6.625 10.453"><svg overflow="visible" x="-.563" y="7.594"><path style="stroke:none" d="M7.188 1.25c0-.219-.063-.313-.141-.313-.11 0-.125.172-.14.313-.048.578-.673 1.047-1.376 1.047-.593 0-1.047-.297-1.718-.735-.438-.28-.97-.64-1.594-.64-.922 0-1.656.703-1.656 1.625 0 .219.062.297.14.297.11 0 .14-.172.14-.219.048-.844.876-1.14 1.376-1.14.594 0 1.047.296 1.719.75.421.28.953.624 1.593.624.938 0 1.657-.718 1.657-1.609zm0-2.328c0-.203-.063-.313-.141-.313-.11 0-.125.172-.14.329C6.858-.5 6.233-.016 5.53-.016c-.593 0-1.047-.296-1.718-.75-.438-.28-.97-.625-1.594-.625C1.297-1.39.563-.703.563.234c0 .22.062.297.14.297.11 0 .14-.187.14-.234.048-.828.876-1.14 1.376-1.14.594 0 1.047.312 1.719.75.421.28.953.624 1.593.624.938 0 1.657-.719 1.657-1.61zM4.108-5c1.313-.25 1.86-.703 2.047-.875.688-.578.766-1.469.766-1.516a.206.206 0 0 0-.203-.203.198.198 0 0 0-.203.172c-.079.547-.25 1.516-2.204 1.969-1.015.234-2.453.234-3.062.234-.234 0-.422 0-.422.219 0 .188.203.188.375.188h.578c1.547 0 2.563.25 2.719.296 1.75.422 1.938 1.422 2.031 1.922 0 .047.032.172.188.172a.206.206 0 0 0 .203-.203c0-.016-.047-.875-.734-1.484-.579-.516-1.344-.782-2.079-.891zm0 0"/></svg></svg>