<svg xmlns="http://www.w3.org/2000/svg" xmlns:xlink="http://www.w3.org/1999/xlink" width="64" height="64" viewBox="0 0 6.625 4.25"><svg overflow="visible" x="-.563" y="4.813"><path style="stroke:none" d="M7.188-4.422c0-.266-.079-.39-.157-.39-.047 0-.14.062-.156.312-.016.125-.047.39-.438.625-.312.203-.656.25-.906.25-.562 0-1.031-.25-1.625-.594-.531-.297-1.078-.593-1.687-.593-.813 0-1.656.484-1.656 1.53 0 .282.078.391.156.391.11 0 .156-.203.156-.296.016-.126.031-.376.438-.626.312-.203.656-.25.906-.25.562 0 1.031.25 1.625.579.531.296 1.078.609 1.687.609.813 0 1.657-.5 1.657-1.547zm0 2.328c0-.297-.11-.39-.157-.39s-.14.062-.156.296c-.016.141-.047.391-.438.626-.312.203-.656.25-.906.25-.562 0-1.031-.25-1.625-.579C3.375-2.187 2.828-2.5 2.22-2.5 1.406-2.5.563-2 .563-.953c0 .281.078.39.156.39.11 0 .156-.218.156-.312.016-.125.031-.375.438-.625.312-.188.656-.25.906-.25.562 0 1.031.25 1.625.594.531.297 1.078.593 1.687.593.813 0 1.657-.484 1.657-1.53zm0 0"/></svg></svg>