<svg xmlns="http://www.w3.org/2000/svg" xmlns:xlink="http://www.w3.org/1999/xlink" width="64" height="64" viewBox="0 0 6.094 8.672"><svg overflow="visible" x="-.828" y="6.344"><path style="stroke:none" d="M3.828-5.938c1.61 0 2.688 1.172 2.688 2.485C6.516-2.11 5.39-.97 3.844-.97H1.172C1-.97.828-.97.828-.767c0 .204.172.204.344.204h2.703c1.672 0 3.047-1.266 3.047-2.891s-1.375-2.89-3.063-2.89H1.172c-.172 0-.344 0-.344.202 0 .204.172.204.344.204zM6.375 1.36c.172 0 .344 0 .344-.187 0-.203-.172-.203-.344-.203H4.328l.484-.563c.094-.094.125-.125.125-.203C4.938.156 4.891 0 4.734 0c-.062 0-.078.016-.25.188-.312.328-.312.343-.703.78h-2.61c-.171 0-.343 0-.343.204 0 .187.172.187.344.187h2.25c-.188.22-.406.438-.485.563-.093.11-.124.14-.124.219 0 .078.062.187.203.187.078 0 .093-.015.25-.172.312-.344.312-.36.687-.797zm0 0"/></svg></svg>