<svg xmlns="http://www.w3.org/2000/svg" xmlns:xlink="http://www.w3.org/1999/xlink" width="64" height="64" viewBox="0 0 6.094 11.016"><svg overflow="visible" x="-.828" y="8"><path style="stroke:none" d="M5.516-5.938h1.046c.172 0 .36 0 .36-.203s-.188-.203-.36-.203h-.875l.532-1.265c.047-.125.062-.141.062-.204 0-.109-.078-.187-.203-.187-.062 0-.11.016-.14.063L5.25-6.345H3.875c-1.672 0-3.047 1.266-3.047 2.89 0 1.423 1.031 2.438 2.094 2.735L2.219.97h-.844c-.172 0-.344 0-.344.203 0 .187.172.187.344.187h.672c-.078.22-.578 1.36-.578 1.47 0 .108.078.187.203.187s.156-.094.219-.235l.593-1.422h4.079c.171 0 .359 0 .359-.187 0-.203-.188-.203-.36-.203H2.656l.656-1.594c.25.063.516.063.579.063h2.671c.172 0 .36 0 .36-.204 0-.203-.188-.203-.36-.203h-2.64c-.078 0-.25 0-.453-.031zm-.422 0L3.078-1.093c-1.015-.281-1.86-1.187-1.86-2.36 0-1.358 1.141-2.483 2.688-2.483zm0 0"/></svg></svg>