<svg xmlns="http://www.w3.org/2000/svg" xmlns:xlink="http://www.w3.org/1999/xlink" width="64" height="64" viewBox="0 0 3.391 7.109"><svg overflow="visible" x="-.234" y="6.844"><path style="stroke:none" d="M3.484-1.094c-.28.203-.625.344-.937.5a6.903 6.903 0 0 1-.828-.687v-1.797h1.593l.141-.344H2.5l.86-.906c.124-.125.234-.313.234-.484 0-.36-.328-.75-.61-1.016-.437.297-.843.547-1.265.86.062-.673.187-1.048.968-1.766l-.171-.11c-.438.25-.875.61-1.297.938a7 7 0 0 0-.172-.797l-.172.031c.063.64.078.984.078 3.25H.328l-.094.344h.704v1.812c0 .172-.016.391-.063.579l1.063.953c.578-.391 1.25-.844 1.687-1.22zM1.72-3.422c0-.75-.063-1.375.687-1.734.203.172.469.437.469.703 0 .578-.61 1.031-1.156 1.031zm0 0"/></svg></svg>