<svg xmlns="http://www.w3.org/2000/svg" xmlns:xlink="http://www.w3.org/1999/xlink" width="64" height="64" viewBox="0 0 8.844 3.703"><svg overflow="visible" x="-.563" y="4.344"><path style="stroke:none" d="M5.078-2.297h3.969c.172 0 .36 0 .36-.203 0-.188-.188-.188-.36-.188H5.359l.75-1.124c.079-.11.172-.282.172-.329 0-.125-.093-.203-.187-.203-.047 0-.125 0-.219.14l-1 1.516H1.406c.75-.546 1.078-1.374 1.078-1.453 0-.093-.078-.125-.156-.125-.11 0-.14.063-.156.094-.14.36-.469 1.078-1.469 1.547-.11.047-.14.063-.14.125 0 .078.062.094.125.14.828.391 1.203.922 1.468 1.5.047.094.063.141.172.141.078 0 .156-.031.156-.125 0-.078-.328-.906-1.078-1.453H4.61l-.765 1.125c-.063.11-.172.281-.172.328 0 .125.094.203.203.203.047 0 .11 0 .219-.14zm0 0"/></svg></svg>