<svg xmlns="http://www.w3.org/2000/svg" xmlns:xlink="http://www.w3.org/1999/xlink" width="64" height="64" viewBox="0 0 6.625 10.875"><svg overflow="visible" x="-.563" y="7.594"><path style="stroke:none" d="M3.438 1.14c-.063.11-.063.126-.079.126-.015 0-.03 0-.093-.047-.22-.11-.61-.297-1.047-.297-.922 0-1.656.703-1.656 1.625 0 .219.062.297.14.297.11 0 .14-.172.14-.219.048-.844.876-1.14 1.376-1.14.375 0 .687.124.922.25-.11.218-.344.656-.5 1-.063.109-.157.296-.157.343 0 .11.063.203.204.203.109 0 .109-.015.218-.219.078-.109.422-.828.578-1.124.485.296.61.421.907.578.468.25.796.343 1.14.343.938 0 1.657-.718 1.657-1.609 0-.219-.063-.313-.141-.313-.11 0-.125.172-.14.313-.048.578-.673 1.047-1.376 1.047-.531 0-.984-.235-1.828-.797l.61-1.172c.062-.125.062-.125.078-.125 0 0 .03 0 .093.047.204.11.594.281 1.047.281.938 0 1.657-.719 1.657-1.61 0-.202-.063-.312-.141-.312-.11 0-.125.172-.14.329C6.858-.5 6.233-.016 5.53-.016c-.375 0-.703-.14-.922-.25l.5-1c.047-.109.157-.296.157-.343a.197.197 0 0 0-.204-.204c-.109 0-.125.016-.234.22-.062.109-.406.827-.578 1.109-.469-.282-.594-.407-.906-.579-.469-.25-.797-.328-1.125-.328C1.297-1.39.563-.703.563.234c0 .22.062.297.14.297.11 0 .14-.187.14-.234.048-.828.876-1.14 1.376-1.14.531 0 .984.25 1.812.812zM4.109-5c1.313-.25 1.86-.703 2.047-.875.688-.578.766-1.469.766-1.516a.206.206 0 0 0-.203-.203.198.198 0 0 0-.203.172c-.079.547-.25 1.516-2.204 1.969-1.015.234-2.453.234-3.062.234-.234 0-.422 0-.422.219 0 .188.203.188.375.188h.578c1.547 0 2.563.25 2.719.296 1.75.422 1.938 1.422 2.031 1.922 0 .047.032.172.188.172a.206.206 0 0 0 .203-.203c0-.016-.047-.875-.734-1.484-.579-.516-1.344-.782-2.079-.891zm0 0"/></svg></svg>