<svg xmlns="http://www.w3.org/2000/svg" xmlns:xlink="http://www.w3.org/1999/xlink" width="64" height="64" viewBox="0 0 7.969 7.109"><svg overflow="visible" x="-.266" y="6.844"><path style="stroke:none" d="M4.313-3.469c.03-.344.03-.703.03-1.031 0-.125-.046-.547-.062-.61.36-.609.75-1.156 1.344-1.156.734 0 .531 1.266.75 1.485.094.11.234.156.36.172l-1.282.734a4.25 4.25 0 0 0-1.14.406zm-.141-2c-.25-.64-.844-1.375-1.547-1.375-.938 0-1.594.625-1.828.86-.281.28-.5.578-.5.984 0 .531.406.89.703 1.328.063.078.14.156.14.266 0 .312-.327.64-.64.797l.14.109c.594-.297 1.235-.688 1.235-1.328 0-.563-.89-1.11-.89-1.516 0-.61.406-.86.968-.86.469 0 .922.329 1.172.704.39.578.406 1.375.406 1.844 0 1.297-.094 2.453-1.156 3.172-.234-.25-.594-.579-.938-.579C.922-1.063.516-.375.266 0l.109.156c.188-.234.422-.422.734-.422.204 0 .579.313.797.532.563-.454 1.125-1 1.688-1.454.39-.609.578-1.28.672-2.046.265-.079.687-.188.921-.188.282 0 .61.14.829.344.109.125.28.312.28 1.297 0 .281-.015.578-.03.89l.64 1.157 1.328-1v-.157c-.203.079-.53.204-.593.204-.235 0-.422-.532-.516-.844-.094-.266-.14-1.313-.172-1.969-.25-.219-.5-.375-1.016-.375.688-.531 1.454-.906 2.094-1.156l-.062-.125c-.125.015-.25.047-.375.047-.657 0-.5-.516-.532-.782-.046-.515-.25-.953-.796-.953-.875 0-1.532.657-2.063 1.328zm0 0"/></svg></svg>