<svg xmlns="http://www.w3.org/2000/svg" xmlns:xlink="http://www.w3.org/1999/xlink" width="64" height="64" viewBox="0 0 6.094 11.016"><svg overflow="visible" x="-.828" y="8"><path style="stroke:none" d="M6.703-1.297c.14-.062.219-.094.219-.234 0-.11-.094-.188-.203-.188-.047 0-.266.094-.39.157l-1.407.671-1 .47-.86.405.766-1.859 2.875-1.36c.14-.062.219-.093.219-.218 0-.11-.094-.172-.188-.219l-1.796-.844 1.28-3.093c.048-.125.063-.141.063-.204 0-.109-.078-.187-.203-.187-.062 0-.11.016-.14.063l-1.36 3.25-3.344-1.579c-.062-.03-.14-.078-.203-.078a.197.197 0 0 0-.203.203c0 .125.063.157.219.22l3.375 1.593-.906 2.156L1.03-1c-.17.078-.202.156-.202.234 0 .094.094.204.203.204.032 0 .063-.016.157-.063l2.109-.984c-.11.218-.75 1.796-.781 1.859L1.109.89c-.234.141-.28.141-.28.282 0 .094.093.187.202.187.032 0 .047 0 1.266-.578L1.53 2.625c-.062.125-.062.14-.062.203 0 .11.078.188.203.188.047 0 .11-.016.14-.063L2.829.531zm-1.922-2.86 1.469.704-2.188 1.031zm0 0"/></svg></svg>