<svg xmlns="http://www.w3.org/2000/svg" xmlns:xlink="http://www.w3.org/1999/xlink" width="64" height="64" viewBox="0 0 6.078 8.391"><svg overflow="visible" x="-.109" y="6.844"><path style="stroke:none" d="M3.672-2.922c-.266-.344-.594-.812-.594-1.219 0-.546.453-.906 1.031-1.093.235.14.5.25.72.25.437 0 1-.782 1.359-1.282l-.094-.14c-.235.25-.594.625-.828.625-.797 0-1.75-1.063-2.72-1.063-1.233 0-1.843 1.016-1.952 2.125l.156.11c.14-.672.453-1.547 1.219-1.547.578 0 1.297.406 1.86.75-.642.375-1.485 1.047-1.485 1.75 0 .453.469 1.062.797 1.531.375.531.89 1.25.89 1.75 0 .781-.468 1.578-1.312 1.578-.25 0-.469-.172-.64-.36-.126-.109-.298-.359-.298-.89 0-.453.14-.875.14-1.281 0-.39-.14-.86-.5-.86-.265 0-.734.157-1.312.547l.047.204c.11-.063.36-.172.594-.172.125 0 .344-.032.344.687 0 .36-.063.672-.063 1 0 .688.297 1.469 1.157 1.469 1.25 0 2.64-1 2.64-2.281 0-.297-.047-.657-.203-.875l-.86-1.125c.22-.172.532-.391.704-.391.25 0 .406.219.531.422l.422-.594c-.11-.297-.313-.547-.531-.797zm0 0"/></svg></svg>