<svg xmlns="http://www.w3.org/2000/svg" xmlns:xlink="http://www.w3.org/1999/xlink" width="64" height="64" viewBox="0 0 9.031 6.156"><svg overflow="visible" x="-.563" y="5.735"><path style="stroke:none" d="M6.594-2.297h.625c1.578 0 2.375-.39 2.375-1.734 0-1.203-.61-1.703-1.688-1.703-1.422 0-1.703.921-1.703 2.437v.61H1.36a3.724 3.724 0 0 0 1.016-1.47h-.313A3.056 3.056 0 0 1 .563-2.5c.938.516 1.344 1.219 1.5 1.672h.313A3.724 3.724 0 0 0 1.36-2.297h4.844v2.36c0 .171 0 .359.203.359.188 0 .188-.188.188-.36zm0-.39v-.579c0-1.625.328-2.078 1.312-2.078.89 0 1.297.36 1.297 1.313 0 .968-.422 1.343-2.015 1.343zm0 0"/></svg></svg>