<svg xmlns="http://www.w3.org/2000/svg" xmlns:xlink="http://www.w3.org/1999/xlink" width="64" height="64" viewBox="0 0 6.094 10.25"><svg overflow="visible" x="-.828" y="7.5"><path style="stroke:none" d="M6.719-4.39c.156-.079.203-.141.203-.22 0-.093-.047-.156-.203-.234l-5.5-2.593C1.094-7.5 1.047-7.5 1.03-7.5c-.11 0-.203.078-.203.188 0 .14.078.171.203.218l5.22 2.469-5.234 2.469c-.141.078-.188.125-.188.219 0 .109.094.203.203.203.032 0 .047 0 .172-.063zm-.157 6.124c.172 0 .36 0 .36-.203s-.188-.203-.36-.203H4.079V-.203h2.484c.172 0 .36 0 .36-.203 0-.188-.188-.188-.36-.188H4.079v-.64c0-.188 0-.375-.203-.375s-.203.156-.203.328v.687H1.187c-.171 0-.359 0-.359.188 0 .203.172.203.344.203h2.5v1.531H1.187c-.171 0-.359 0-.359.203s.172.203.344.203h2.5v.688c0 .156 0 .328.203.328s.203-.203.203-.375v-.64zm0 0"/></svg></svg>