<svg xmlns="http://www.w3.org/2000/svg" xmlns:xlink="http://www.w3.org/1999/xlink" width="64" height="64" viewBox="0 0 6.609 7.234"><svg overflow="visible" x="-.844" y="6.969"><path style="stroke:none" d="M1.734-2.625c-.093-.14-.093-.14-.156-.14-.234 0-.734.312-.734.484 0 .015 0 .031.078.172L2.187-.031c.047.093.141.25.157.265.015.032.062.032.125.032.203 0 .672-.266.719-.47.328-1.5.906-2.921 1.812-4.155.5-.704 1.188-1.5 2.172-2.235.172-.125.281-.218.281-.297 0-.078-.047-.078-.11-.078-.468 0-1.89 1.344-2.452 2.016-1.016 1.187-1.688 2.328-2.22 3.86zm0 0"/></svg></svg>