<svg xmlns="http://www.w3.org/2000/svg" xmlns:xlink="http://www.w3.org/1999/xlink" width="64" height="64" viewBox="0 0 8.828 3.328"><svg overflow="visible" x="-.563" y="4.156"><path style="stroke:none" d="M7.234-2.688a3.154 3.154 0 0 1-1.156-1.468h-.312c.328.86.906 1.39 1.015 1.468H.906c-.172 0-.344 0-.344.188 0 .203.172.203.344.203h5.875A3.847 3.847 0 0 0 5.766-.828h.312c.266-.735.781-1.203 1.156-1.469h1.36c-.094.078-.656.578-1 1.469h.297C8.062-1.281 8.453-2 9.39-2.5c-.938-.5-1.329-1.203-1.5-1.656h-.297c.343.89.906 1.39 1 1.468zm0 0"/></svg></svg>