<svg xmlns="http://www.w3.org/2000/svg" xmlns:xlink="http://www.w3.org/1999/xlink" width="64" height="64" viewBox="0 0 3.594 8.844"><svg overflow="visible" x="-.75" y="6.875"><path style="stroke:none" d="m2.266 1.828.171.14c.61-.468 1.188-1 1.626-1.655.25-.844.28-1.844.28-2.766a20.7 20.7 0 0 0-.077-1.703c-.422-.125-.829-.313-1.157-.61-.5.344-1.14.813-1.468 1.063v-1.094c0-.547.062-1.187.906-1.969l-.172-.109c-.016 0-.813.578-1.203.89l-.25-.765-.11.016a42.3 42.3 0 0 1 .063 2.437C.875-3.078.828-1.859.75-.64l.563.907.812-.75-.547-.766.063-2.156c.25-.188.625-.485.937-.485.328 0 .61.172.875.36.031.547.094 1.328.094 1.61 0 1.03.047 2.718-.64 3.202zm0 0"/></svg></svg>