<svg xmlns="http://www.w3.org/2000/svg" xmlns:xlink="http://www.w3.org/1999/xlink" width="64" height="64" viewBox="0 0 3.281 4.406"><svg overflow="visible" x="-1.141" y="4.406"><path style="stroke:none" d="M3.484-1.734c-.218.78-.75 1.421-1.703 1.421H1.47c-.188 0-.328 0-.328.172C1.14 0 1.25 0 1.453 0h.344c1.281 0 2.625-.984 2.625-2.516 0-1.109-.75-1.89-1.797-1.89-.64 0-1.297.39-1.297.515 0 .047.031.125.094.125.047 0 .062 0 .11-.03.234-.157.624-.392 1.077-.392.407 0 1.063.25 1.063 1.313 0 .14 0 .36-.11.828H1.907c-.156 0-.328 0-.328.172 0 .14.11.14.297.14zm0 0"/></svg></svg>