<svg xmlns="http://www.w3.org/2000/svg" xmlns:xlink="http://www.w3.org/1999/xlink" width="64" height="64" viewBox="0 0 7.031 7.094"><svg overflow="visible" x=".172" y="6.812"><path style="stroke:none" d="M4.922-2.953c-.234.844-.578 2.078-.578 2.844 0 .265.156.39.406.39.39 0 1.14-.437 1.14-.625 0-.062-.046-.078-.093-.078-.125 0-.297.094-.406.156-.141-.03-.204-.125-.204-.265 0-1.219 1.125-4.703 1.422-5.438.125-.281.25-.687.25-.765 0-.079-.062-.079-.093-.079-.22 0-.672.266-.75.47-.125.343-.141.39-.266.765-.328.937-1.313 2.594-2.297 3.75-.312.344-1.297 1.5-2 1.5-.469 0-.781-.406-.781-1.063 0-.703.39-1.593 1-2.968.36-.813.656-1.516.656-1.97 0-.468-.328-.484-.5-.484-.766 0-1.734.625-1.734.829 0 .062.078.062.11.062.124 0 .312-.078.468-.187a.79.79 0 0 1 .5-.157c.219 0 .297.141.297.36 0 .437-.36 1.265-.766 2.218-.656 1.5-.875 2.126-.875 2.704 0 .671.266 1.203.969 1.203.625 0 1.531-.406 2.547-1.36.687-.64 1.125-1.234 1.562-1.812zm0 0"/></svg></svg>