<svg xmlns="http://www.w3.org/2000/svg" xmlns:xlink="http://www.w3.org/1999/xlink" width="64" height="64" viewBox="0 0 6.094 9.641"><svg overflow="visible" x="-.828" y="7.5"><path style="stroke:none" d="M3.922-2.14c-1.61 0-2.703-1.172-2.703-2.47 0-1.359 1.14-2.5 2.687-2.5h2.656c.172 0 .36 0 .36-.202 0-.188-.188-.188-.36-.188H3.876C2.203-7.5.828-6.234.828-4.625c0 1.625 1.375 2.89 3.063 2.89h2.671c.172 0 .36 0 .36-.202 0-.204-.188-.204-.36-.204zm-2.75 3.874c-.172 0-.344 0-.344.204 0 .203.172.203.344.203h5.39c.172 0 .36 0 .36-.204 0-.203-.188-.203-.36-.203zm0-1.937C1-.203.828-.203.828 0s.172.203.344.203h5.39c.172 0 .36 0 .36-.203s-.188-.203-.36-.203zm0 0"/></svg></svg>