<svg xmlns="http://www.w3.org/2000/svg" xmlns:xlink="http://www.w3.org/1999/xlink" width="64" height="64" viewBox="0 0 5.516 6.187"><svg overflow="visible" x="-.563" y="5.969"><path style="stroke:none" d="M4.547-3.188c0-1-.844-1.234-1.234-1.234-.376 0-1.22.25-1.22 1.234v3.063c0 .172 0 .344.204.344.203 0 .203-.172.203-.344v-3.031c0-.219 0-.406.219-.625a.812.812 0 0 1 .594-.25c.156 0 .421.047.609.25.219.219.219.406.219.625v3.031c0 .172 0 .344.203.344s.203-.172.203-.344zm1.531-.593c0-1.531-1.531-2.188-2.766-2.188-1.218 0-2.75.672-2.75 2.188v3.656c0 .172 0 .344.188.344.203 0 .203-.172.203-.344V-3.75c0-1.406 1.516-1.813 2.36-1.813.562 0 1.171.157 1.64.454.734.5.734 1.109.734 1.359v3.625c0 .172 0 .344.188.344.203 0 .203-.172.203-.344zm0 0"/></svg></svg>