<svg xmlns="http://www.w3.org/2000/svg" xmlns:xlink="http://www.w3.org/1999/xlink" width="64" height="64" viewBox="0 0 6.094 11.016"><svg overflow="visible" x="-.828" y="8"><path style="stroke:none" d="m3.844-1.906 1.515.703c.875.422 1.297.64 1.36.64.11 0 .203-.109.203-.203 0-.125-.078-.156-.219-.234L4-2.266l1.219-2.953 1.484-.703c.156-.078.219-.094.219-.219a.197.197 0 0 0-.203-.203.383.383 0 0 0-.188.063l-1.078.515.766-1.843c.047-.125.062-.141.062-.204 0-.109-.078-.187-.203-.187-.062 0-.11.016-.14.063l-1.017 2.42-3.89 1.829c-.126.062-.204.124-.204.234 0 .125.094.172.203.219l2.453 1.156L2.22.969H1.172c-.172 0-.344 0-.344.203 0 .187.203.187.375.187h.844c-.078.22-.578 1.36-.578 1.47 0 .108.078.187.203.187s.156-.094.219-.235l.593-1.422h4.063c.172 0 .375 0 .375-.187 0-.203-.172-.203-.36-.203H2.656zm.844-3.063L3.64-2.437 1.5-3.454zm0 0"/></svg></svg>