<svg xmlns="http://www.w3.org/2000/svg" xmlns:xlink="http://www.w3.org/1999/xlink" width="64" height="64" viewBox="0 0 6.094 8.672"><svg overflow="visible" x="-.828" y="6.344"><path style="stroke:none" d="M6.734-5.922c.11-.062.188-.11.188-.219a.207.207 0 0 0-.203-.203c-.047 0-.14.047-.172.063L1.03-3.671c-.172.077-.203.14-.203.218 0 .078.047.156.203.219L6.547-.641c.125.079.14.079.172.079.11 0 .203-.094.203-.204 0-.125-.094-.171-.203-.218L1.5-3.454zM6.563 1.36c.171 0 .359 0 .359-.187 0-.203-.188-.203-.36-.203H4.36l.532-.531c.093-.094.14-.141.14-.235C5.031.156 5 0 4.828 0c-.078 0-.11.031-.234.156L3.797.97h-2.61c-.171 0-.359 0-.359.203 0 .187.172.187.344.187H3.39a9.1 9.1 0 0 1-.547.547c-.078.094-.125.14-.125.235 0 .078.047.187.187.187.094 0 .156-.062.25-.156l.797-.813zm0 0"/></svg></svg>