<svg xmlns="http://www.w3.org/2000/svg" xmlns:xlink="http://www.w3.org/1999/xlink" width="64" height="64" viewBox="0 0 6.625 10.453"><svg overflow="visible" x="-.563" y="7.594"><path style="stroke:none" d="M6.688-7.172c.14-.062.234-.094.234-.219a.207.207 0 0 0-.203-.203c-.047 0-.063.016-.172.063l-5.5 2.297C.922-5.188.828-5.141.828-5c0 .125.11.172.219.219L6.53-2.484c.14.062.157.062.188.062.11 0 .203-.094.203-.203 0-.125-.11-.172-.219-.219L1.547-5zm.5 8.422c0-.219-.063-.313-.141-.313-.11 0-.125.172-.14.313-.048.547-.641 1.047-1.376 1.047-.593 0-1.047-.297-1.718-.735-.438-.28-.97-.64-1.594-.64-.922 0-1.656.719-1.656 1.625 0 .219.062.297.14.297.094 0 .14-.172.14-.219.048-.828.845-1.14 1.376-1.14.594 0 1.047.296 1.719.75.421.28.953.624 1.593.624.938 0 1.657-.734 1.657-1.609zm0-2.328c0-.203-.063-.313-.141-.313-.11 0-.125.172-.14.329-.048.546-.641 1.046-1.376 1.046-.593 0-1.047-.296-1.718-.75-.438-.28-.97-.625-1.594-.625C1.297-1.39.563-.67.563.234c0 .22.062.297.14.297.094 0 .14-.187.14-.234.048-.813.845-1.14 1.376-1.14.594 0 1.047.312 1.719.75.421.28.953.624 1.593.624.938 0 1.657-.734 1.657-1.61zm0 0"/></svg></svg>