<svg xmlns="http://www.w3.org/2000/svg" xmlns:xlink="http://www.w3.org/1999/xlink" width="64" height="64" viewBox="0 0 5.531 7.562"><svg overflow="visible" x="-.563" y="7.344"><path style="stroke:none" d="M6.094-3.313c0-1.765-2.219-1.937-2.563-1.953v-1.718c0-.172 0-.36-.203-.36s-.203.188-.203.36v1.718C2.641-5.25.562-5.03.562-3.312v3.187c0 .172 0 .344.188.344.203 0 .203-.172.203-.344v-3.156c0-.266 0-.75.656-1.172.172-.11.672-.375 1.516-.406v4.734c0 .172 0 .344.203.344s.203-.172.203-.344v-4.734c.703.03 1.219.218 1.578.453.579.406.579.875.579 1.125v3.156c0 .172 0 .344.203.344s.203-.172.203-.344zm0 0"/></svg></svg>