<svg xmlns="http://www.w3.org/2000/svg" xmlns:xlink="http://www.w3.org/1999/xlink" width="64" height="64" viewBox="0 0 8.859 6.297"><svg overflow="visible" x="-.547" y="5.641"><path style="stroke:none" d="M6.188-2.266c.109-.078.187-.109.187-.234 0-.11-.078-.14-.188-.219L.923-5.579A.284.284 0 0 0 .75-5.64c-.094 0-.203.063-.203.204 0 .109.078.14.203.218l5 2.719-5 2.734C.625.312.547.344.547.454c0 .202.187.202.265.202zm3.03 0c.126-.078.188-.109.188-.234 0-.11-.062-.14-.187-.219l-5.25-2.86a.335.335 0 0 0-.188-.062.193.193 0 0 0-.187.204c0 .109.078.14.187.218L8.797-2.5 3.78.234c-.11.078-.187.11-.187.22 0 .202.187.202.25.202zm0 0"/></svg></svg>