<svg xmlns="http://www.w3.org/2000/svg" xmlns:xlink="http://www.w3.org/1999/xlink" width="64" height="64" viewBox="0 0 6.625 10.75"><svg overflow="visible" x="-.563" y="7.297"><path style="stroke:none" d="M6.719-4.188c.156-.062.203-.14.203-.218 0-.094-.047-.157-.203-.235l-5.5-2.593c-.125-.063-.172-.063-.188-.063a.207.207 0 0 0-.203.203c0 .125.078.157.203.219L6.25-4.422 1.016-1.938c-.141.063-.188.125-.188.22 0 .109.094.187.203.187.032 0 .047 0 .172-.063zM3.906 1.438c.547.454 1 .813 1.625.813 1.047 0 1.657-1.063 1.657-1.984 0-.235-.063-.329-.141-.329-.125 0-.14.235-.14.297-.032.86-.657 1.454-1.376 1.454-.531 0-.937-.266-1.39-.657L5.17-.875c.095-.14.095-.156.095-.203a.206.206 0 0 0-.204-.203c-.125 0-.14.047-.25.265L3.845.75c-.547-.453-1-.813-1.625-.813C1.172-.063.563 1 .563 1.923c0 .234.062.328.14.328.11 0 .14-.203.14-.234C.892.875 1.689.484 2.22.484c.515 0 .937.282 1.39.672l-1.03 1.89c-.095.157-.095.173-.095.22 0 .093.063.187.204.187.109 0 .14-.031.25-.25zm0 0"/></svg></svg>