<svg xmlns="http://www.w3.org/2000/svg" xmlns:xlink="http://www.w3.org/1999/xlink" width="64" height="64" viewBox="0 0 6.094 8.672"><svg overflow="visible" x="-.828" y="6.344"><path style="stroke:none" d="M6.719-3.234c.156-.063.203-.141.203-.22 0-.124-.078-.155-.203-.218l-5.5-2.594c-.125-.078-.172-.078-.188-.078a.207.207 0 0 0-.203.203c0 .125.078.157.203.22L6.25-3.454 1.016-.984C.875-.922.828-.86.828-.766c0 .11.094.204.203.204.032 0 .047 0 .172-.079zm-.157 4.593c.172 0 .36 0 .36-.187 0-.203-.188-.203-.36-.203H4.36l.532-.531c.093-.094.14-.141.14-.235C5.031.156 5 0 4.828 0c-.078 0-.11.031-.234.156L3.797.97h-2.61c-.171 0-.359 0-.359.203 0 .187.172.187.344.187H3.39a9.1 9.1 0 0 1-.547.547c-.078.094-.125.14-.125.235 0 .078.047.187.187.187.094 0 .156-.062.25-.156l.797-.813zm0 0"/></svg></svg>