<svg xmlns="http://www.w3.org/2000/svg" xmlns:xlink="http://www.w3.org/1999/xlink" width="64" height="64" viewBox="0 0 6.625 6.891"><svg overflow="visible" x="-.563" y="5.938"><path style="stroke:none" d="M4.422-5.39a.552.552 0 0 0-.547-.548.543.543 0 0 0-.547.547c0 .344.297.547.547.547a.553.553 0 0 0 .547-.547zm0 5.796a.552.552 0 0 0-.547-.547.543.543 0 0 0-.547.547c0 .328.266.547.547.547.25 0 .547-.203.547-.547zm-3.5-2.125c-.172 0-.36 0-.36.188 0 .203.172.203.344.203h5.938c.172 0 .343 0 .343-.203 0-.188-.171-.188-.359-.188zM.906-3.656c-.172 0-.344 0-.344.203 0 .187.188.187.36.187h5.906c.188 0 .36 0 .36-.187 0-.203-.172-.203-.344-.203zm0 0"/></svg></svg>