<svg xmlns="http://www.w3.org/2000/svg" xmlns:xlink="http://www.w3.org/1999/xlink" width="64" height="64" viewBox="0 0 6.625 11.375"><svg overflow="visible" x="-.563" y="7.594"><path style="stroke:none" d="M6.688-7.172c.14-.062.234-.094.234-.219a.207.207 0 0 0-.203-.203c-.047 0-.063.016-.172.063l-5.5 2.297C.922-5.188.828-5.141.828-5c0 .125.11.172.219.219L6.53-2.484c.14.062.157.062.188.062.11 0 .203-.094.203-.203 0-.125-.11-.172-.219-.219L1.547-5zM3.5 2.141C3.547 2 3.563 2 3.578 2c.016 0 .313.203.406.266.579.39 1.047.593 1.547.593.938 0 1.657-.734 1.657-1.609 0-.219-.063-.313-.141-.313-.11 0-.125.172-.14.313-.048.547-.641 1.047-1.376 1.047-.593 0-.984-.25-1.765-.766l.5-1.234c.015-.031.046-.125.078-.125a.48.48 0 0 1 .14.062 2.13 2.13 0 0 0 1.047.297c.938 0 1.657-.734 1.657-1.61 0-.202-.063-.312-.141-.312-.11 0-.125.172-.14.329-.048.546-.641 1.046-1.376 1.046-.265 0-.64-.078-1-.296.094-.25.735-1.72.735-1.813 0-.11-.11-.188-.204-.188-.14 0-.171.094-.218.204L4.25-.672c-.047.14-.078.14-.078.14-.031 0-.328-.202-.406-.265-.579-.39-1.047-.594-1.547-.594C1.297-1.39.563-.67.563.234c0 .22.062.297.14.297.094 0 .14-.187.14-.234.048-.813.845-1.14 1.376-1.14.578 0 .984.265 1.765.78l-.5 1.235c-.03.031-.062.125-.078.125a.685.685 0 0 1-.14-.078C3.03 1.094 2.64.922 2.219.922 1.297.922.563 1.64.563 2.547c0 .219.062.297.14.297.094 0 .14-.172.14-.219.048-.828.845-1.14 1.376-1.14.265 0 .625.077 1 .296-.094.25-.735 1.703-.735 1.813 0 .11.11.187.204.187.14 0 .171-.11.218-.203zm0 0"/></svg></svg>