<svg xmlns="http://www.w3.org/2000/svg" xmlns:xlink="http://www.w3.org/1999/xlink" width="64" height="64" viewBox="0 0 6.094 13.359"><svg overflow="visible" x="-.828" y="9.172"><path style="stroke:none" d="m5.438-6.484 1.265-.61c.156-.078.219-.093.219-.218 0-.11-.094-.188-.203-.188-.047 0-.063 0-1.094.484l.61-1.75c.015-.062.046-.14.046-.203a.197.197 0 0 0-.203-.203c-.14 0-.172.11-.219.235l-.734 2.156L1.031-4.86c-.125.062-.203.125-.203.234 0 .125.094.172.203.234L3.86-3.078 3.016-.594H1.172c-.172 0-.344 0-.344.188 0 .203.203.203.375.203h1.672l-.516 1.531H1.172c-.172 0-.344 0-.344.203s.203.203.375.203H2.22l-.703 2.047c-.016.063-.047.14-.047.203 0 .11.078.204.203.204s.172-.11.219-.235l.75-2.219h3.906c.172 0 .375 0 .375-.203s-.172-.203-.36-.203h-3.78l.515-1.531h3.25c.172 0 .375 0 .375-.203 0-.188-.172-.188-.36-.188H3.438l.782-2.312c.093.062.11.062 1.312.625l.625.297c.188.093.516.25.563.25.11 0 .203-.094.203-.204 0-.093-.063-.14-.078-.156-.016-.015-.032-.015-1.235-.594l-1.265-.578zM1.5-4.625 4.938-6.25l-.954 2.797zm0 0"/></svg></svg>