<svg xmlns="http://www.w3.org/2000/svg" xmlns:xlink="http://www.w3.org/1999/xlink" width="64" height="64" viewBox="0 0 6.641 6.641"><svg overflow="visible" x="-.563" y="5.813"><path style="stroke:none" d="M7.203-2.5c0-1.828-1.5-3.313-3.328-3.313A3.324 3.324 0 0 0 .562-2.5 3.318 3.318 0 0 0 3.876.828 3.33 3.33 0 0 0 7.203-2.5zM3.875.578a3.07 3.07 0 1 1 .017-6.142A3.07 3.07 0 0 1 3.875.578zm-1.36-3.203c-.187 0-.296 0-.296.125s.11.125.297.125H5.25c.172 0 .281 0 .281-.125s-.093-.125-.281-.125zm0 0"/></svg></svg>