<svg xmlns="http://www.w3.org/2000/svg" xmlns:xlink="http://www.w3.org/1999/xlink" width="64" height="64" viewBox="0 0 6.328 7.25"><svg overflow="visible" x="-.297" y="7.031"><path style="stroke:none" d="M2.797-6.766c.015-.109.015-.125.015-.156 0-.078-.015-.11-.109-.11-.11 0-.406.157-.61.25-.452.235-.843.423-.843.595 0 .062.078.062.11.062.124 0 .39-.14.577-.219a41.58 41.58 0 0 1-.546 3.11C1.03-1.547.844-.938.344.03.297.125.297.141.297.156c0 .063.078.063.11.063.156 0 .577-.172.734-.453.125-.235.5-.97.796-2.125.22-.844.61-2.157 1.313-3.188.453-.64.875-.937 1.5-.937.547 0 1.031.343 1.031.875 0 .875-.953 1.187-1.984 1.546-.125.032-.813.282-.813.532 0 .047.079.062.11.062s.265-.047.469-.047c1.015 0 1.828.61 1.828 1.547 0 1.235-1.047 1.64-1.97 1.64-.765 0-1.124-.421-1.265-.562-.031-.046-.047-.062-.125-.062-.219 0-.719.312-.719.484 0 .031.375.688 1.454.688 1.406 0 3.468-1 3.468-2.594 0-.844-.546-1.469-1.562-1.656.797-.344 1.953-1.063 1.953-2 0-.578-.469-1-1.219-1-.328 0-1.61.078-2.812 1.578zm0 0"/></svg></svg>