<svg xmlns="http://www.w3.org/2000/svg" xmlns:xlink="http://www.w3.org/1999/xlink" width="64" height="5pt" viewBox="0 0 7.484 5"><svg overflow="visible" x="-.063" y="4.735"><path style="stroke:none" d="M1.672-3.75v-.438c0-.015-.328-.343-.5-.515l-1.11.922.126.125.437-.235.25.25c.031.625.047 1.25.047 1.875 0 .391-.031.782-.078 1.188l.484.797.828-.703c-.5-.625-.484-.563-.484-1.032v-1.968l.61-.407c.343.079.796.22 1.046.438.047.328.047.656.047.984 0 1.203-.047 1.625-.14 2.016.187.187.421.453.546.719l.86-.735c-.438-.562-.5-.703-.5-.875v-2.172c.203-.14.421-.265.64-.375.297.079.953.22 1 .485.016.172.032.422.032.672 0 1.39-.047 1.718-.11 2.14.203.25.484.594.594.781l1.25-1.062-.125-.172a1.291 1.291 0 0 1-.469.266c-.14-.14-.25-.313-.36-.469v-1.219c0-.562 0-1.125.032-1.703-.36-.094-.813-.344-1.203-.547-.406.328-.844.64-1.281.938v-.39a5.631 5.631 0 0 1-1.204-.563zm0 0"/></svg></svg>