<svg xmlns="http://www.w3.org/2000/svg" xmlns:xlink="http://www.w3.org/1999/xlink" width="64" height="64" viewBox="0 0 3.156 9.984"><svg overflow="visible" x=".203" y="7.485"><path style="stroke:none" d="M2.828-4.766c.11-.109.125-.156.125-.218 0-.11-.078-.204-.187-.204-.094 0-.141.047-.297.204l-.89.78v-2.921c0-.172 0-.36-.188-.36-.204 0-.204.188-.204.36v3.297l-1.234 1.11c-.11.109-.156.14-.156.218 0 .125.11.203.203.203.078 0 .094 0 .297-.203l.89-.797v5.438c0 .171 0 .359.204.359.187 0 .187-.188.187-.36v-5.796zm0 0"/></svg></svg>