<svg xmlns="http://www.w3.org/2000/svg" xmlns:xlink="http://www.w3.org/1999/xlink" width="64" height="64" viewBox="0 0 6.625 4.359"><svg overflow="visible" x="-.563" y="4.672"><path style="stroke:none" d="M3.828-2.14c.531.421 1.047.812 1.688.812 1 0 1.671-.922 1.671-1.922 0-.313-.093-.406-.156-.406-.093 0-.156.172-.156.312-.016.219-.031.547-.39.89a1.41 1.41 0 0 1-.97.376c-.421 0-.812-.172-1.28-.531L5.608-4.25c.11-.125.125-.172.125-.219 0-.062-.062-.203-.203-.203-.093 0-.125.031-.218.156L3.921-2.844c-.531-.422-1.047-.812-1.703-.812-1 0-1.656.922-1.656 1.922 0 .343.109.406.156.406.11 0 .156-.203.156-.313.016-.234.031-.546.39-.89.126-.125.454-.375.954-.375.437 0 .828.172 1.297.531L2.14-.735c-.11.126-.125.172-.125.22 0 .062.062.203.203.203.094 0 .11-.032.219-.157zm0 0"/></svg></svg>