<svg xmlns="http://www.w3.org/2000/svg" xmlns:xlink="http://www.w3.org/1999/xlink" width="64" height="64" viewBox="0 0 8.813 8.828"><svg overflow="visible" x="-.313" y="7.078"><path style="stroke:none" d="M9.125-2.656c0-2.485-2-4.422-4.406-4.422A4.405 4.405 0 0 0 .312-2.656c0 2.5 2.032 4.406 4.407 4.406 2.36 0 4.406-1.906 4.406-4.406zM4.719 1.359A4.021 4.021 0 0 1 .703-2.656 4.004 4.004 0 0 1 4.72-6.672a4.004 4.004 0 0 1 4.015 4.016c0 2.265-1.859 4.015-4.015 4.015zm-.344-4.03h-.86v-1.75c0-.282.016-.391.141-.423.063-.031.328-.031.5-.031.735 0 1.578.031 1.578 1.094 0 .437-.062 1.11-1.359 1.11zm.906.124c.703-.172 1.313-.625 1.313-1.234 0-.672-.828-1.344-2.11-1.344H2.11v.25c.688 0 .72.063.72.484v3.657c0 .421-.032.484-.72.484V0c.297-.016.782-.031 1.063-.031.281 0 .812.015 1.062.031v-.25c-.671 0-.718-.063-.718-.484v-1.72h.875c.265 0 .53 0 .843.329.204.219.204.438.204.906 0 .532 0 .719.328 1.047.156.14.53.313 1.015.313.64 0 .797-.625.797-.813 0-.062 0-.156-.125-.156-.11 0-.125.094-.125.125-.078.61-.437.625-.5.625-.203 0-.281-.125-.344-.234-.078-.172-.14-.438-.28-1.079-.079-.359-.173-.859-.923-1.156zm0 0"/></svg></svg>