<svg xmlns="http://www.w3.org/2000/svg" xmlns:xlink="http://www.w3.org/1999/xlink" width="64" height="64" viewBox="0 0 6.063 6.922"><svg overflow="visible" x=".547" y="6.922"><path style="stroke:none" d="M2.578-3.266h2.594c.172 0 .344 0 .344-.187 0-.203-.172-.203-.344-.203H2.938L5.405-6.5c.094-.094.11-.14.11-.219 0-.125-.079-.203-.188-.203-.078 0-.11.031-.219.156L2.39-3.656H.953v-2.906c0-.172 0-.36-.203-.36-.188 0-.188.188-.188.36v5.015c-.359.375-.359.39-.906 1.016a.981.981 0 0 1-.172.187.58.58 0 0 0-.03.14c0 .11.093.204.187.204.093 0 .14-.047.265-.188l.656-.75v.579c0 .171 0 .359.188.359.203 0 .203-.172.203-.344V-1.39zm-.531 0L.953-2.016v-1.25zm0 0"/></svg></svg>