<svg xmlns="http://www.w3.org/2000/svg" xmlns:xlink="http://www.w3.org/1999/xlink" width="64" height="64" viewBox="0 0 7.688 7.703"><svg overflow="visible" x="-.266" y="7.203"><path style="stroke:none" d="M5.938-1.64c.046.624.156 1.077.218 1.265.11.453.157.672.578.672.454 0 1.22-.453 1.22-.64 0-.063-.032-.079-.095-.079-.125 0-.328.11-.359.125-.078.047-.094.047-.11.047-.28 0-.343-.266-.468-.86-.063-.343-.156-.734-.234-2.093a50.579 50.579 0 0 1-.11-3.063c0-.234.016-.5.016-.734 0-.156 0-.203-.11-.203-.14 0-.546.172-.734.437l-.063.11a32.863 32.863 0 0 1-2.046 3.703c-.594.906-1.625 2.531-2.172 2.531a.784.784 0 0 1-.766-.594c0-.015-.031-.078-.062-.078-.157 0-.375.469-.375.75 0 .406.437.844.906.844C1.859.5 3-1.297 3.219-1.64zm-.204-4.33v.578c0 .579.016 1.157.047 1.735.016.203.047.937.094 1.469H4.062c-.171 0-.312 0-.578.156.704-1.078 1.282-2.11 1.344-2.219.5-.89.766-1.469.89-1.719zm0 0"/></svg></svg>