<svg xmlns="http://www.w3.org/2000/svg" xmlns:xlink="http://www.w3.org/1999/xlink" width="64" height="64" viewBox="0 0 5.375 8.234"><svg overflow="visible" x=".172" y="6.844"><path style="stroke:none" d="M.688-4.938C.953-5.421 1.313-6 1.905-6c.672 0 1.047.719 1.703.86.313-.11 1.079-.485 1.594-.75v-.204c-.312.157-.64.313-1 .313-.672 0-1.266-1.063-1.969-1.063-.78 0-1.39 1.032-1.703 1.797zM-.125-.593c.172-.11.469-.203.656-.203.406 0 .469.39.531 1.016.032.297.11.625.329.844.25.265.64.328 1 .328 1.093 0 2.171-1.11 2.171-2.235 0-.547-.421-2.11-.421-2.969 0-.656.312-1.015.687-1.39l-.156-.094c-.516.406-.984.89-1.375 1.422 0 .094-.016.203-.016.297 0 1.031.547 2.094.547 3.203 0 .672-.312 1.406-1.062 1.406-.688 0-.97-.625-.97-1.562 0-.469-.046-.906-.624-.906-.453 0-.953.375-1.344.703zm0 0"/></svg></svg>