<svg xmlns="http://www.w3.org/2000/svg" xmlns:xlink="http://www.w3.org/1999/xlink" width="64" height="64" viewBox="0 0 6.094 9.078"><svg overflow="visible" x="-.828" y="7.031"><path style="stroke:none" d="M4.469-4.344 1.03-2.719c-.125.063-.203.11-.203.219 0 .14.094.188.203.234l2.094.985-1.11 2.484c-.109.219-.28.61-.28.656 0 .11.093.188.202.188.094 0 .141-.047.157-.063.047-.062.937-2.125 1.39-3.093l2.5 1.171c.25.126.688.344.735.344.203 0 .203-.203.203-.36V-5.03c0-.172 0-.344-.203-.344a.383.383 0 0 0-.188.063l-1.5.718.907-2.062c.062-.125.078-.14.078-.188 0-.11-.11-.187-.204-.187-.125 0-.171.078-.234.203zm-.235.563-.953 2.14L1.5-2.5zm.547-.266 1.735-.812v4.734L3.64-1.469zm0 0"/></svg></svg>