<svg xmlns="http://www.w3.org/2000/svg" xmlns:xlink="http://www.w3.org/1999/xlink" width="64" height="64" viewBox="0 0 6.063 6.016"><svg overflow="visible" x="-.563" y="5.5"><path style="stroke:none" d="M6.422-5.063c.125-.062.203-.109.203-.234 0-.11-.078-.203-.188-.203-.03 0-.062 0-.187.078L.75-2.719c-.11.063-.188.11-.188.219 0 .125.079.172.188.234L6.25.438c.125.078.156.078.188.078.109 0 .187-.094.187-.204 0-.124-.063-.156-.219-.234L5.25-.5a5.084 5.084 0 0 0 0-3.984zM1.203-2.5l3.688-1.813c.265.657.375 1.25.375 1.813 0 .625-.125 1.219-.375 1.828zm0 0"/></svg></svg>