<svg xmlns="http://www.w3.org/2000/svg" xmlns:xlink="http://www.w3.org/1999/xlink" width="64" height="64" viewBox="0 0 8.844 3.328"><svg overflow="visible" x="-.547" y="4.156"><path style="stroke:none" d="M1.89-3.406c-.124-.11-.187-.11-.218-.11-.063 0-.094 0-.281.188l-.688.594c-.11.109-.156.156-.156.234 0 .125.094.203.203.203.063 0 .078 0 .25-.156.203-.172.406-.375.672-.594l1.375 1.235c.015.015.187.171.25.203.125.14.156.14.219.14.078 0 .093 0 .312-.203l.781-.703.75-.672.735.656c.11.094.14.094.343.094h2.157c-.094.078-.656.578-1 1.469h.297C8.062-1.281 8.453-2 9.39-2.5c-.938-.5-1.329-1.203-1.5-1.656h-.297c.343.89.906 1.39 1 1.468H6.359c-.39-.359-.5-.468-.734-.671-.172-.157-.188-.157-.266-.157-.062 0-.078.016-.203.11a215.8 215.8 0 0 1-1.64 1.469zm0 0"/></svg></svg>