<svg xmlns="http://www.w3.org/2000/svg" xmlns:xlink="http://www.w3.org/1999/xlink" width="64" height="64" viewBox="0 0 9.313 4.594"><svg overflow="visible" x="-.172" y="4.609"><path style="stroke:none" d="M2.156-.875c.172-1.813 1.61-3.328 3.453-3.328 2.25 0 3.454 2.203 3.485 3.75 0 .266 0 .437.203.437.187 0 .187-.171.187-.343 0-1.907-1.421-4.25-3.875-4.25-1.75 0-3.578 1.296-3.859 3.78C1.203-1.593.36-1.921.281-1.921c-.11 0-.11.11-.11.156 0 .079 0 .125.095.157.703.296 1.203.734 1.546 1.5.032.046.047.093.125.093.063 0 .079-.015.141-.156.313-.64.766-1.11 1.453-1.406.172-.078.172-.078.172-.203 0-.016 0-.14-.11-.14 0 0-.75.202-1.437 1.046zm0 0"/></svg></svg>