<svg xmlns="http://www.w3.org/2000/svg" xmlns:xlink="http://www.w3.org/1999/xlink" width="64" height="64" viewBox="0 0 6.641 6.641"><svg overflow="visible" x="-.563" y="5.813"><path style="stroke:none" d="M7.203-2.5c0-1.828-1.5-3.313-3.328-3.313A3.324 3.324 0 0 0 .562-2.5 3.318 3.318 0 0 0 3.876.828 3.33 3.33 0 0 0 7.203-2.5zM3.875.578a3.07 3.07 0 1 1 .017-6.142A3.07 3.07 0 0 1 3.875.578zM5.265-2.5a1.38 1.38 0 0 0-1.39-1.375c-.75 0-1.375.625-1.375 1.375 0 .781.625 1.39 1.375 1.39.766 0 1.39-.624 1.39-1.39zm-1.39 1c-.531 0-.984-.453-.984-1a.99.99 0 0 1 .984-.984.99.99 0 0 1 .984.984c0 .547-.437 1-.984 1zm0 0"/></svg></svg>