<svg xmlns="http://www.w3.org/2000/svg" xmlns:xlink="http://www.w3.org/1999/xlink" width="64" height="64" viewBox="0 0 8.641 7.203"><svg overflow="visible" x="-.766" y="6.094"><path style="stroke:none" d="M9.047-2.297c.187 0 .36 0 .36-.203 0-.188-.188-.188-.36-.188h-7.36c.844-.578 1.329-1.187 1.547-1.421.079-.11.079-.125.282-.125h5.53c.173 0 .36 0 .36-.188 0-.203-.187-.203-.36-.203H3.595c.36-.594.61-1.11.719-1.469h-.47A6.477 6.477 0 0 1 .767-2.5c1.421.797 2.515 2.016 3.078 3.61h.469a7.339 7.339 0 0 0-.72-1.47h5.454c.172 0 .36 0 .36-.203 0-.187-.188-.187-.36-.187H3.516c-.204 0-.204-.016-.282-.11-.234-.28-.703-.859-1.546-1.437zm0 0"/></svg></svg>