<svg xmlns="http://www.w3.org/2000/svg" xmlns:xlink="http://www.w3.org/1999/xlink" width="64" height="64" viewBox="0 0 6.828 8.156"><svg overflow="visible" x="-.313" y="6.812"><path style="stroke:none" d="M4.063-.969c.03-.375.046-.922.046-1.187 0-1.047-.046-4.656-2.14-4.656-.688 0-1.297.609-1.297.765 0 .078.078.078.11.078a.812.812 0 0 0 .577-.343c.891.015 1.454.656 1.75 1.921.188.797.266 1.672.266 2.594 0 .594-.047 1.281-.063 1.406 0 .079 0 .094-.015.11-.031.015-1.031.86-1.516.86-.078 0-.89 0-1.078-.829C.688-.313.672-.375.625-.375.5-.375.312-.047.312.203a1.2 1.2 0 0 0 1.22 1.14c.765 0 2.405-1.468 3.28-2.468 1.985-2.297 2.329-4.016 2.329-4.531 0-.844-.563-1.157-.938-1.157-.297 0-.375.5-.375.61 0 .14.031.156.188.172.578.062.734.531.734.828 0 .312-.469 2.078-2.688 4.234zm0 0"/></svg></svg>