<svg xmlns="http://www.w3.org/2000/svg" xmlns:xlink="http://www.w3.org/1999/xlink" width="64" height="64" viewBox="0 0 5.891 5.984"><svg overflow="visible" x="148.712" y="134.765" transform="translate(-149.556 -129)"><path style="stroke:none" d="M3.781-2.5c-.156-.844-.437-1.688-.984-2.36-.64-.796-1.625-.906-1.75-.906-.172 0-.203.141-.203.204 0 .093.062.171.156.203.453.062 1.547.218 2.125 1.906.375 1.094.453 2.265.469 3.437 0 .032 0 .235.187.235.094 0 .14-.047.156-.078.016-.016.047-.047.047-.078v-.36c.016-.969.141-2.14.391-2.937.438-1.375 1.14-1.97 2.078-2.125.14-.016.281-.032.281-.204a.207.207 0 0 0-.218-.203c-.032 0-1 .047-1.72.907C4.329-4.313 4-3.547 3.782-2.5zm0 0"/></svg></svg>