<svg xmlns="http://www.w3.org/2000/svg" xmlns:xlink="http://www.w3.org/1999/xlink" width="64" height="64" viewBox="0 0 7.781 7.297"><svg overflow="visible" x="-.203" y="6.812"><path style="stroke:none" d="M3.297-3.344c.125-.469.265-.969.36-1.453.124-.672.187-1.328.187-1.453 0-.563-.547-.563-.656-.563-.766 0-1.438.282-1.907.61C.47-5.656.203-5 .203-4.937c0 .062.078.062.11.062.078 0 .546-.125.75-.5.265-.5.562-.89 1.453-.89.421 0 .484.28.484.437 0 .016-.031.484-.156 1.172-.047.281-.078.453-.281 1.312h-.36c-.281.016-.734.328-.734.485 0 .062 0 .062.218.062h.72A38.404 38.404 0 0 1 1.468.078c-.094.234-.094.25-.094.266 0 .062.078.062.094.062.14 0 .453-.125.656-.328.047-.062.063-.078.11-.172.343-.89.64-1.781.906-2.703h2.25c.109 0 .296 0 .453-.094-.11.422-.516 2.047-.516 2.829 0 .296.172.546.594.546 1.328 0 2.062-.828 2.062-1.14 0-.063-.046-.078-.093-.078-.079 0-.61.14-.766.53-.031.079-.047.079-.234.11-.11.032-.297.032-.313.032a.396.396 0 0 1-.406-.422c0-.125.062-.672.094-.891.171-1.11.656-2.984 1.515-5.25.032-.078.032-.094.032-.11 0-.077-.063-.077-.094-.077-.157 0-.438.14-.625.312-.016.016-.078.063-.11.156-.406.985-.718 1.985-1.015 3zm0 0"/></svg></svg>