<svg xmlns="http://www.w3.org/2000/svg" xmlns:xlink="http://www.w3.org/1999/xlink" width="64" height="64" viewBox="0 0 12.703 3.328"><svg overflow="visible" x="-.563" y="4.156"><path style="stroke:none" d="M12.469-2.297a3.826 3.826 0 0 0-1 1.469h.297c.312-.813.921-1.36 1.5-1.672a3.07 3.07 0 0 1-1.5-1.656h-.297a3.79 3.79 0 0 0 1 1.468h-1.406l-.438-.468c-.36-.36-.375-.36-.453-.36-.031 0-.078 0-.14.047a168.36 168.36 0 0 0-1.485 1.516L7.14-3.391c-.125-.125-.157-.125-.22-.125-.077 0-.124.032-.14.032l-1.484 1.53-1.406-1.42c-.11-.125-.141-.14-.22-.14-.077 0-.093 0-.358.28l-.547.547H1.359a3.724 3.724 0 0 0 1.016-1.468h-.313A3.056 3.056 0 0 1 .563-2.5c.938.516 1.344 1.219 1.5 1.672h.313A3.724 3.724 0 0 0 1.36-2.297h1.344c.219 0 .235 0 .313-.078.171-.156.062-.078.656-.656.11.14.562.578.844.86.14.14.5.53.64.671a.32.32 0 0 0 .14.031c.079 0 .11-.031.188-.093.063-.079.25-.266.329-.344l.39-.407c.234-.25.469-.484.719-.718.25.234.484.484.719.734.156.172.453.469.687.703.094.094.125.125.219.125.015 0 .062 0 .11-.031.187-.14.577-.578.734-.75l.78-.781.423.422c.281.312.297.312.547.312zm0 0"/></svg></svg>