<svg xmlns="http://www.w3.org/2000/svg" xmlns:xlink="http://www.w3.org/1999/xlink" width="64" height="64" viewBox="0 0 6.625 9.547"><svg overflow="visible" x="-.563" y="7.297"><path style="stroke:none" d="M6.734-6.875c.11-.063.188-.11.188-.219a.207.207 0 0 0-.203-.203c-.047 0-.14.047-.172.063L1.03-4.641c-.172.079-.203.157-.203.235 0 .078.047.156.203.218l5.516 2.594c.125.063.14.063.172.063.11 0 .203-.078.203-.188 0-.14-.094-.172-.203-.218L1.5-4.408zm.454 7.14c0-.234-.063-.328-.141-.328-.125 0-.14.235-.14.297-.032.86-.657 1.454-1.376 1.454-.64 0-1.11-.407-1.547-.813C3.422.391 2.906-.063 2.22-.063 1.172-.063.563 1 .563 1.923c0 .234.062.328.14.328.11 0 .14-.203.14-.234C.892.875 1.689.484 2.22.484c.625 0 1.094.422 1.547.829.546.484 1.062.937 1.765.937 1.047 0 1.657-1.063 1.657-1.984zm0 0"/></svg></svg>