<svg xmlns="http://www.w3.org/2000/svg" xmlns:xlink="http://www.w3.org/1999/xlink" width="64" height="64" viewBox="0 0 6.219 7.25"><svg overflow="visible" x="-.313" y="7.031"><path style="stroke:none" d="M1.797-.922a6.066 6.066 0 0 0 .828-2.015c.36-1.376.734-2.563 1.36-3.25.109-.125.187-.22.515-.22.688 0 .703.688.703.829 0 .172-.047.312-.047.36 0 .077.063.077.063.077.172 0 .437-.109.687-.296.172-.141.266-.235.266-.641 0-.547-.281-.953-.844-.953-.312 0-1.187.078-2.172 1.062-.797.828-1.265 2.625-1.453 3.36-.172.703-.25 1-.562 1.609-.063.11-.329.547-.47.688-.265.25-.359.421-.359.468 0 .016.016.063.094.063.031 0 .235-.047.5-.203.172-.11.188-.125.422-.36.5 0 .844.094 1.469.281.515.126 1.015.282 1.531.282.813 0 1.625-.61 1.938-1.047.203-.266.265-.516.265-.547 0-.078-.062-.078-.078-.078-.156 0-.39.125-.562.234-.266.172-.282.235-.344.407-.047.156-.11.234-.156.296-.079.11-.094.11-.235.11-.484 0-.984-.14-1.64-.328-.282-.079-.829-.235-1.329-.235-.124 0-.265.016-.39.047zm0 0"/></svg></svg>