<svg xmlns="http://www.w3.org/2000/svg" xmlns:xlink="http://www.w3.org/1999/xlink" width="64" height="64" viewBox="0 0 6.5 7.281"><svg overflow="visible" x="-.234" y="7.015"><path style="stroke:none" d="M6.047-1.328c-.36.36-.86.75-1.328.75-.375 0-.938-.25-1.36-.453.47-.39 1.157-.969 1.157-1.516 0-.765-1.172-1.484-1.172-2.062 0-.547.437-1.032.75-1.266.36.094.89.14 1.265.14.25 0 .485-.03.688-.156l.687-.89v-.235c-.265.313-.64.547-1.046.547-.907 0-1.891-.375-2.86-.375-.672 0-1.281.188-1.765.657-.422.375-.829 1-.829 1.546 0 .407.188.735.516.985l.64-.64c-.359-.141-.656-.454-.656-.845 0-.843.844-1.062 1.5-1.062a4.66 4.66 0 0 1 1.594.266c-.531.515-1.062 1.171-1.219 1.906.11.656 1.22 1.406 1.22 1.968 0 .376-.407.75-.75.954-.173-.063-.36-.063-.548-.063h-.297c-.437.36-.843.719-1.218 1.125l.093.156c.36-.265.813-.593 1.235-.593.734 0 1.344.656 2.125.75.64-.313 1.187-.86 1.687-1.438zm0 0"/></svg></svg>