<svg xmlns="http://www.w3.org/2000/svg" xmlns:xlink="http://www.w3.org/1999/xlink" width="64" height="64" viewBox="0 0 6.875 9.281"><svg overflow="visible" x="-.438" y="6.781"><path style="stroke:none" d="M7.078-6.375c.156-.063.234-.078.234-.219a.204.204 0 0 0-.203-.187c-.015 0-.03 0-.187.047L.64-4.422c-.094.031-.204.094-.204.219 0 .14.11.187.204.219l6.28 2.312c.157.063.173.063.188.063.125 0 .204-.11.204-.204 0-.125-.079-.156-.235-.218L1.203-4.203zM6.547-.094.64 2.078c-.094.031-.204.094-.204.219 0 .11.094.203.188.203.016 0 .047 0 .156-.047L7.078.125c.156-.063.234-.078.234-.219 0-.125-.078-.156-.234-.218L.828-2.61c-.156-.063-.172-.063-.203-.063-.156 0-.188.14-.188.203 0 .125.126.172.204.203zm0 0"/></svg></svg>