<svg xmlns="http://www.w3.org/2000/svg" xmlns:xlink="http://www.w3.org/1999/xlink" width="64" height="64" viewBox="0 0 6.625 2.328"><svg overflow="visible" x="-.563" y="3.656"><path style="stroke:none" d="M4.64-1.719c.063-.078.313-.36.313-.781 0-.406-.25-.688-.312-.766h2.187c.188 0 .36 0 .36-.187 0-.203-.172-.203-.344-.203H.906c-.172 0-.344 0-.344.203 0 .187.188.187.36.187h2.187c-.062.079-.312.36-.312.766 0 .422.25.703.312.781H.922c-.172 0-.36 0-.36.188 0 .203.172.203.344.203h5.938c.172 0 .343 0 .343-.203 0-.188-.171-.188-.359-.188zm-.577-1.547c.187 0 .28 0 .468.235a.727.727 0 0 1 .188.531c0 .25-.078.422-.157.531-.203.25-.312.25-.5.25h-.39c-.188 0-.266 0-.469-.234a.816.816 0 0 1-.187-.547.78.78 0 0 1 .171-.516c.204-.25.297-.25.485-.25zm0 0"/></svg></svg>