<svg xmlns="http://www.w3.org/2000/svg" xmlns:xlink="http://www.w3.org/1999/xlink" width="64" height="64" viewBox="0 0 6.625 10.453"><svg overflow="visible" x="-.563" y="7.594"><path style="stroke:none" d="M7.188 1.25c0-.219-.063-.313-.141-.313-.11 0-.125.172-.14.313-.048.578-.673 1.047-1.376 1.047-.593 0-1.047-.297-1.718-.735-.438-.28-.97-.64-1.594-.64-.922 0-1.656.703-1.656 1.625 0 .219.062.297.14.297.11 0 .14-.172.14-.219.048-.844.876-1.14 1.376-1.14.594 0 1.047.296 1.719.75.421.28.953.624 1.593.624.938 0 1.657-.718 1.657-1.609zm0-2.328c0-.203-.063-.313-.141-.313-.11 0-.125.172-.14.329C6.858-.5 6.233-.016 5.53-.016c-.593 0-1.047-.296-1.718-.75-.438-.28-.97-.625-1.594-.625C1.297-1.39.563-.703.563.234c0 .22.062.297.14.297.11 0 .14-.187.14-.234.048-.828.876-1.14 1.376-1.14.594 0 1.047.312 1.719.75.421.28.953.624 1.593.624.938 0 1.657-.719 1.657-1.61zm-1.22-3.734h.579c.156 0 .375 0 .375-.188 0-.125-.094-.188-.156-.188-.063-.03-.329-.03-.516-.03-4.36 0-4.828-1.157-5.031-2.204a.198.198 0 0 0-.188-.172.197.197 0 0 0-.203.203c0 .016.047.875.735 1.485.578.515 1.343.765 2.03.89V-5c-1.265.219-1.812.688-2.015.86-.687.577-.75 1.452-.75 1.515 0 .125.094.203.203.203.11 0 .172-.078.188-.172.11-.562.281-1.515 2.172-1.969.78-.171 1.937-.25 2.578-.25zm0 0"/></svg></svg>