<svg xmlns="http://www.w3.org/2000/svg" xmlns:xlink="http://www.w3.org/1999/xlink" width="64" height="64" viewBox="0 0 8.844 6.641"><svg overflow="visible" x="-.563" y="5.813"><path style="stroke:none" d="M8.61-3.953c-.22.203-.75.687-1.016 1.453.265.781.797 1.266 1.015 1.469H.891c-.188 0-.329 0-.329.203s.188.203.375.203h7.657a3.76 3.76 0 0 0-1 1.453h.297c.296-.734.765-1.281 1.515-1.656A3.158 3.158 0 0 1 7.891-2.5c.359-.89.984-1.406 1.515-1.64-.765-.423-1.219-.938-1.515-1.673h-.297a3.76 3.76 0 0 0 1 1.454H.938c-.188 0-.375 0-.375.203s.14.203.328.203zm0 0"/></svg></svg>