<svg xmlns="http://www.w3.org/2000/svg" xmlns:xlink="http://www.w3.org/1999/xlink" width="64" height="64" viewBox="0 0 6.094 11.016"><svg overflow="visible" x="-.828" y="8"><path style="stroke:none" d="m3.828-1.875 2.875-1.36c.14-.062.219-.093.219-.218 0-.11-.094-.172-.188-.219l-1.796-.844 1.28-3.093c.048-.125.063-.141.063-.204 0-.109-.078-.187-.203-.187-.062 0-.11.016-.14.063l-1.36 3.25-3.344-1.579c-.062-.03-.14-.078-.203-.078a.197.197 0 0 0-.203.203c0 .125.063.157.219.22l3.375 1.593-.906 2.156L1.03-1c-.17.078-.202.156-.202.234 0 .094.094.204.203.204.032 0 .063-.016.157-.063l2.109-1L2.219.969H1.172c-.172 0-.344 0-.344.203 0 .187.203.187.375.187h.844c-.078.22-.578 1.36-.578 1.47 0 .108.078.187.203.187s.156-.094.219-.235l.593-1.422h4.063c.172 0 .375 0 .375-.187 0-.203-.172-.203-.36-.203H2.656zm.953-2.281 1.469.703-2.188 1.031zm0 0"/></svg></svg>