<svg xmlns="http://www.w3.org/2000/svg" xmlns:xlink="http://www.w3.org/1999/xlink" width="64" height="64" viewBox="0 0 4.813 4.797"><svg overflow="visible" x="-1.468" y="4.891"><path style="stroke:none" d="M3.875-2.766 1.891-4.75c-.125-.125-.141-.14-.22-.14a.197.197 0 0 0-.202.202c0 .079.031.11.14.22L3.58-2.5 1.608-.516c-.109.11-.14.172-.14.22 0 .124.093.202.203.202.078 0 .094-.015.219-.14L3.875-2.22c.484.485 1.938 1.953 2.063 2.063.015.031.078.062.14.062.203 0 .203-.172.203-.344v-4.109c0-.172 0-.344-.203-.344-.078 0-.11.032-.219.141zm.297.266 1.703-1.719V-.78zm0 0"/></svg></svg>