<svg xmlns="http://www.w3.org/2000/svg" xmlns:xlink="http://www.w3.org/1999/xlink" width="64" height="64" viewBox="0 0 6.625 10.75"><svg overflow="visible" x="-.563" y="7.297"><path style="stroke:none" d="M6.734-6.875c.11-.063.188-.11.188-.219a.207.207 0 0 0-.203-.203c-.047 0-.14.047-.172.063L1.03-4.641c-.172.079-.203.157-.203.235 0 .078.047.156.203.218l5.516 2.594c.125.063.14.063.172.063.11 0 .203-.078.203-.188 0-.14-.094-.172-.203-.218L1.5-4.408zM3.906 1.438c.547.453 1 .812 1.625.812 1.047 0 1.657-1.063 1.657-1.984 0-.235-.063-.329-.141-.329-.125 0-.14.235-.14.297-.032.86-.657 1.454-1.376 1.454-.531 0-.937-.266-1.39-.657L5.17-.875c.095-.14.095-.156.095-.203a.206.206 0 0 0-.204-.203c-.125 0-.14.047-.25.265L3.845.75c-.547-.453-1-.813-1.625-.813C1.172-.063.563 1 .563 1.923c0 .234.062.328.14.328.11 0 .14-.203.14-.234C.892.875 1.689.484 2.22.484c.515 0 .937.282 1.39.672l-1.03 1.89c-.095.157-.095.173-.095.22 0 .093.063.187.204.187.109 0 .14-.031.25-.25zm0 0"/></svg></svg>