<svg xmlns="http://www.w3.org/2000/svg" xmlns:xlink="http://www.w3.org/1999/xlink" width="64" height="64" viewBox="0 0 5.547 8.219"><svg overflow="visible" x="-.438" y="7.031"><path style="stroke:none" d="M4.344-1.578c-.266.906-.532 1.36-.625 1.516-.39.687-.594.703-.938.703-.172 0-.875-.032-1.469-.438C.875.234.516.578.516.687c0 .094.687.5 1.609.5.719 0 1.89-.375 2.64-2a7.652 7.652 0 0 0 .454-1.25c.203-.687.406-1.484.406-1.53 0-.063-.016-.079-.11-.079-.077 0-.25.047-.468.188-.219.14-.234.187-.297.437-.11.344-.688 1.828-1.922 1.828-.969 0-1.547-.797-1.547-1.922 0-.765.313-1.796.89-2.484.267-.328.767-.86 1.892-.86a2.6 2.6 0 0 1 .718.11c.11.031.36.11.36.438s-.516.968-.563 1.03c-.031.048-.062.079-.062.126 0 .062.046.062.109.062.297 0 .625-.265.89-.64.079-.11.47-.657.47-1 0-.407-.298-.516-.423-.547-.375-.125-.703-.125-.843-.125-2.25 0-4.282 1.984-4.282 4.312 0 1.016.454 2.047 1.735 2.047.75 0 1.515-.39 2.172-.906zm0 0"/></svg></svg>