<svg xmlns="http://www.w3.org/2000/svg" xmlns:xlink="http://www.w3.org/1999/xlink" width="64" height="64" viewBox="0 0 5.203 7.266"><svg overflow="visible" x="-.125" y="7.031"><path style="stroke:none" d="M4.938-1.563c0-.062-.047-.078-.094-.078-.172 0-.407.157-.422.157-.188.125-.234.203-.36.375-.296.468-.75.796-1.39.796-.89 0-1.703-.64-1.703-2.14 0-.89.36-2.078.89-2.875.438-.64.97-1.156 2-1.156.375 0 .61.14.61.515 0 .344-.36 1.047-.485 1.25-.062.11-.062.14-.062.157 0 .062.062.062.11.062.202 0 .577-.219.687-.375.031-.047.61-1.016.61-1.531 0-.547-.454-.625-.813-.625-1.438 0-2.625.953-3.094 1.515A5.577 5.577 0 0 0 .125-2.03C.125-.562.859.234 2.015.234c1.61 0 2.922-1.546 2.922-1.796zm0 0"/></svg></svg>