<svg xmlns="http://www.w3.org/2000/svg" xmlns:xlink="http://www.w3.org/1999/xlink" width="64" height="64" viewBox="0 0 4.422 6.422"><svg overflow="visible" x="-.547" y="6.422"><path style="stroke:none" d="M.75-5.078c-.094.047-.203.11-.203.219s.094.203.203.203c.031 0 .063 0 .172-.063l1-.515v4.828H.906c-.156 0-.36 0-.36.203S.75 0 .907 0h3.719c.172 0 .344 0 .344-.203s-.172-.203-.344-.203H3.594v-5.657c0-.171 0-.359-.188-.359-.031 0-.062 0-.172.078zM3.203-.406h-.875v-5.032l.875-.453zm0 0"/></svg></svg>