<svg xmlns="http://www.w3.org/2000/svg" xmlns:xlink="http://www.w3.org/1999/xlink" width="64" height="64" viewBox="0 0 7.375 7.016"><svg overflow="visible" x="-.328" y="6.812"><path style="stroke:none" d="M.328-6.813v.297c.219 0 .422 0 .656.032.094 0 .204.015.282.093.093.079.093.204.093.313v3.39c0 .313-.03.626.063.938.047.188.11.375.219.547.328.61.906 1.062 1.578 1.266.328.109.672.14 1.015.14.297 0 .594-.062.86-.172.234-.093.437-.203.625-.36a2.53 2.53 0 0 0 .922-1.577c.062-.344.03-.703.03-1.047V-5.61c0-.22-.015-.454.126-.625.219-.25.594-.282.906-.282v-.296H5.328v.296c.313 0 .688.032.906.282.157.187.125.437.125.656v2.672c0 .312.016.64-.03.953A2.067 2.067 0 0 1 5.437-.5a1.73 1.73 0 0 1-.563.281c-.25.094-.516.125-.781.125a2.114 2.114 0 0 1-.563-.11c-.047-.015-.156-.03-.172-.093-.015-.047-.015-.11-.015-.14v-5.438c0-.156-.031-.344.062-.469.063-.11.188-.125.297-.14.219-.032.438-.032.672-.032v-.296zm2.719.297v6.063c-.125-.063-.219-.172-.313-.266-.343-.375-.437-.86-.484-1.36-.016-.187 0-.39 0-.577v-3.86zm0 0"/></svg></svg>