<svg xmlns="http://www.w3.org/2000/svg" xmlns:xlink="http://www.w3.org/1999/xlink" width="64" height="64" viewBox="0 0 6.75 6.75"><svg overflow="visible" x="148.712" y="134.765" transform="translate(-149.071 -128)"><path style="stroke:none" d="m.547-6.766-.188 2.25h.25c.016-.109.016-.203.032-.312.046-.5.14-1.11.609-1.375.203-.125.406-.172.625-.203.188-.032.39-.047.594-.032.078 0 .172.032.219.094.078.11.046.282.046.407v5.046c0 .141.016.297-.046.407-.079.109-.188.125-.313.14-.234.031-.469.031-.703.031v.297h4.125v-.296c-.234 0-.469 0-.719-.032-.11-.015-.219-.031-.297-.14-.062-.11-.047-.266-.047-.407v-5.046c0-.125-.03-.297.047-.407.047-.078.14-.093.235-.093.187-.016.39-.016.578.015a1.4 1.4 0 0 1 .5.125c.093.047.172.094.25.156.203.172.312.422.39.688.079.312.11.625.125.937h.25l-.187-2.25zm3.875.313v6.14h-.797v-6.14zm0 0"/></svg></svg>