<svg xmlns="http://www.w3.org/2000/svg" xmlns:xlink="http://www.w3.org/1999/xlink" width="64" height="64" viewBox="0 0 7.641 6.893"><svg overflow="visible" x="-.188" y="6.812"><path style="stroke:none" d="M.188-6.813v.297c.187 0 .343 0 .53.032.11.015.22.03.313.109.11.125.172.313.219.469.125.328.25.64.375.968a225.96 225.96 0 0 0 1.328 3.454c.14.375.281.734.422 1.109l.11.25c.015.063.03.14.093.172.078.047.156.031.235.031h.5c.218-.015.25-.234.312-.39.156-.422.313-.844.484-1.266.47-1.219.938-2.422 1.407-3.64.046-.157.109-.313.171-.47.047-.14.094-.296.188-.406.234-.312.594-.422.953-.422v-.296H5.734v.296c.094 0 .204.016.282.047a.46.46 0 0 1 .203.078.482.482 0 0 1 .234.36c0 .11-.047.203-.078.297-.063.156-.125.328-.188.484-.28.75-.578 1.484-.859 2.234-.094.25-.187.485-.281.72-.047.14-.11.265-.14.405H4.89c-.016-.125-.079-.25-.125-.359-.079-.219-.172-.438-.25-.656L3.672-5.11c-.11-.266-.219-.547-.313-.813-.046-.094-.125-.234-.093-.344.03-.109.14-.156.218-.187.188-.063.391-.063.579-.063v-.296zM4.296-.375l-.203-.516-.485-1.28-1.14-2.97-.531-1.375h.64c.047 0 .172-.015.219.032a.314.314 0 0 1 .062.125c.032.093.079.187.11.28.125.329.25.673.375 1 .328.813.64 1.641.953 2.454.094.266.203.531.297.797a.91.91 0 0 1 .078.219c.016.03.047.078.047.14.015.078-.047.188-.078.266-.079.203-.157.39-.22.578-.03.078-.062.203-.124.25zm0 0"/></svg></svg>