<svg xmlns="http://www.w3.org/2000/svg" xmlns:xlink="http://www.w3.org/1999/xlink" width="64" height="64" viewBox="0 0 6.719 6.766"><svg overflow="visible" x="-.328" y="6.781"><path style="stroke:none" d="M.328-6.781v.297c.234 0 .453 0 .672.03.11.016.234.032.297.141.078.11.062.282.062.422v5c0 .125.016.282-.046.407-.079.109-.188.125-.313.14-.219.031-.438.031-.672.031v.297h6.297l.188-1.109.234-1.453h-.25c-.078.422-.125.828-.266 1.234-.078.203-.156.438-.328.594-.437.453-1.125.438-1.719.438H3.72c-.11 0-.235-.016-.313-.11-.062-.078-.062-.187-.062-.281v-2.672h.5c.14 0 .265 0 .406.016.14.03.313.093.39.234.063.078.079.188.094.297.032.203.032.422.032.61h.25V-4.86h-.25c0 .203 0 .406-.032.609a.712.712 0 0 1-.093.313c-.079.124-.25.203-.391.234-.14.015-.266.015-.406.015h-.5v-2.437c0-.078 0-.188.062-.25.078-.078.188-.094.297-.11h.735c.53 0 1.218-.046 1.64.391.125.14.219.328.266.516.093.344.14.687.187 1.031h.25l-.125-1.016L6.5-6.78zm2.719.297v6.171H2.25v-6.171zm0 0"/></svg></svg>