<svg xmlns="http://www.w3.org/2000/svg" xmlns:xlink="http://www.w3.org/1999/xlink" width="64" height="64" viewBox="0 0 6.449 6.811"><svg overflow="visible" x="-.328" y="6.826"><path style="stroke:none" d="M.328-6.813v.297c.234 0 .453 0 .672.032.11.015.234.03.297.14.078.11.062.282.062.422V-.89c0 .125.016.282-.046.407-.079.109-.188.125-.313.14-.219.031-.438.031-.672.031v.297h4.047v-.296c-.219 0-.422 0-.64-.032-.11 0-.22-.015-.297-.094-.094-.078-.094-.203-.094-.312v-2.406h1.062c.532-.047 1.078-.188 1.532-.485.187-.125.375-.265.515-.453.094-.11.172-.25.234-.406a.84.84 0 0 0 .079-.328c.093-.688-.422-1.266-.985-1.594-.39-.234-.843-.344-1.312-.39-.36-.032-.719 0-1.078 0zm2.719.297v6.204H2.25v-6.204zm.297 3.094v-2.734c0-.078 0-.188.062-.266.047-.047.11-.062.188-.078.11-.016.234-.016.36-.016.374 0 .765.063 1.093.235.156.078.312.187.422.312.187.219.25.516.265.797.032.39 0 .844-.234 1.172-.11.125-.234.234-.375.313-.547.312-1.172.265-1.781.265zm0 0"/></svg></svg>