<svg xmlns="http://www.w3.org/2000/svg" xmlns:xlink="http://www.w3.org/1999/xlink" width="64" height="64" viewBox="0 0 7.828 6.797"><svg overflow="visible" x="-.094" y="6.812"><path style="stroke:none" d="M.094-6.813v.297c.172 0 .36 0 .531.032.125 0 .25.03.344.109.11.11.156.234.234.36l.281.577 1.032 2.094.359.703c.063.11.14.235.156.344.016.156 0 .313 0 .469v.89c0 .172.047.391-.11.516-.077.063-.202.078-.296.078A4.222 4.222 0 0 1 2-.313v.297h4.016v-.296c-.204 0-.407 0-.61-.032-.11 0-.218-.015-.297-.078C4.97-.547 5-.75 5-.922v-1.61c0-.062-.016-.124 0-.187.031-.078.078-.156.125-.234.094-.172.172-.344.266-.5.28-.531.578-1.047.859-1.578.125-.219.234-.422.36-.64.093-.173.171-.345.312-.485.281-.266.64-.36 1-.36v-.296h-2.11v.296c.25 0 .594.11.61.407.016.03 0 .078-.016.125a1.549 1.549 0 0 1-.156.328c-.094.156-.188.328-.281.5-.25.453-.5.906-.735 1.36-.125.233-.28.452-.375.702h-.015c-.032-.11-.094-.203-.14-.312l-.25-.485-.766-1.546-.297-.579c-.047-.078-.094-.187-.079-.28a.266.266 0 0 1 .204-.157c.171-.063.359-.063.546-.063v-.296zm4.593 6.5h-.796v-1.984l-.016-.25-.469-.984-1-1.969-.312-.64-.188-.376h.782l.109.016.078.125.14.297.61 1.187.719 1.454.218.453.11.25.016.265zm0 0"/></svg></svg>