<svg xmlns="http://www.w3.org/2000/svg" xmlns:xlink="http://www.w3.org/1999/xlink" width="64" height="64" viewBox="0 0 5.828 6.909"><svg overflow="visible" x="-.266" y="6.925"><path style="stroke:none" d="M.266-6.922v.297c.156 0 .328 0 .484.031.11 0 .203.047.25.14.078.141.047.329.047.47v5.046c0 .141.031.313-.031.438-.047.11-.141.14-.266.156-.156.031-.328.031-.484.031v.297h3.328v-.296c-.14 0-.297 0-.453-.032a.359.359 0 0 1-.22-.062c-.093-.078-.093-.203-.093-.313v-.828c0-.031 0-.078.016-.125.031-.078.14-.156.203-.219.156-.14.312-.265.437-.437H3.5c.297.515.64.984.953 1.484.078.14.14.36-.016.469a.21.21 0 0 1-.093.031.77.77 0 0 1-.188.031v.297h1.938v-.296c-.172 0-.36 0-.516-.094-.203-.11-.344-.344-.469-.547-.234-.36-.468-.735-.687-1.094-.11-.172-.219-.328-.328-.5-.032-.062-.11-.14-.11-.203 0-.047.063-.094.094-.125.094-.078.188-.188.281-.281C4.781-3.562 5.25-4 5.875-4v-.313H4.062V-4c.047 0 .094.016.141.031l.094.047c.156.156.094.36-.031.5-.125.156-.282.297-.438.438-.328.328-.672.64-1 .953v-4.547c0-.094.016-.266-.047-.313-.047-.046-.14-.03-.203-.03zm2.25.297v6.313h-.797v-6.313zm0 0"/></svg></svg>