<svg xmlns="http://www.w3.org/2000/svg" xmlns:xlink="http://www.w3.org/1999/xlink" width="64" height="64" viewBox="0 0 6.031 6.797"><svg overflow="visible" x="-.328" y="6.812"><path style="stroke:none" d="M.328-6.813v.297c.234 0 .453 0 .672.032.11.015.234.03.297.14.078.11.062.282.062.422V-.89c0 .125.016.282-.046.407-.079.109-.188.125-.313.14-.219.031-.438.031-.672.031v.297h5.75l.188-1.765.093-.797h-.25a6.63 6.63 0 0 1-.171 1.094c-.063.203-.125.406-.25.593-.11.141-.25.266-.391.36-.11.062-.234.11-.36.156-.203.063-.421.063-.64.063-.203 0-.438.015-.64-.016-.095-.016-.204-.016-.25-.094-.095-.11-.063-.281-.063-.406v-5.11c0-.125-.016-.28.062-.39.094-.125.219-.14.36-.156.28-.032.578-.032.859-.032v-.296zm2.719.297v6.204H2.25v-6.204zm0 0"/></svg></svg>