<svg xmlns="http://www.w3.org/2000/svg" xmlns:xlink="http://www.w3.org/1999/xlink" width="64" height="64" viewBox="0 0 7.641 6.808"><svg overflow="visible" x="-.328" y="6.823"><path style="stroke:none" d="M.328-6.813v.297c.234 0 .453 0 .672.032.11.015.234.03.297.14.078.11.062.282.062.422V-1c0 .156 0 .328-.078.469-.062.11-.187.156-.297.172-.218.046-.437.046-.656.046v.297h4.016v-.296c-.203 0-.422 0-.64-.032-.11-.031-.235-.078-.298-.172-.11-.156-.094-.359-.094-.53v-5.11h.016c.094.187.203.36.297.547.219.406.438.796.656 1.187.547 1.016 1.11 2.031 1.657 3.031.218.391.421.766.625 1.141.062.11.109.25.25.234.03 0 .062 0 .078-.03.046-.032.046-.079.046-.126v-5.453c0-.172-.015-.36.079-.516.171-.343.609-.375.953-.375v-.296H5.625v.296c.344 0 .781.032.953.36.094.156.078.328.078.5v3.875c-.093-.125-.14-.266-.218-.407a16.314 16.314 0 0 1-.407-.718c-.468-.86-.922-1.688-1.39-2.531-.188-.329-.36-.657-.547-1-.032-.079-.094-.157-.14-.235-.017-.047-.032-.11-.079-.125-.094-.047-.219-.016-.313-.016zm2.719.297v6.204H2.25v-6.204zm0 0"/></svg></svg>