<svg xmlns="http://www.w3.org/2000/svg" xmlns:xlink="http://www.w3.org/1999/xlink" width="64" height="64" viewBox="0 0 7.563 6.797"><svg overflow="visible" x="-.328" y="6.812"><path style="stroke:none" d="M.328-6.813v.297c.234 0 .453 0 .672.032.11.015.234.03.297.14.078.11.062.282.062.422V-.89c0 .125.016.282-.046.407-.079.109-.188.125-.313.14-.219.031-.438.031-.672.031v.297h4.047v-.296c-.203 0-.422 0-.625-.032-.094 0-.219-.015-.297-.078-.094-.078-.11-.203-.11-.328v-1.39c0-.032 0-.079.016-.11a.352.352 0 0 1 .11-.156l.203-.25.5-.578c.11-.11.187-.235.297-.329.047.11.11.204.156.297l.25.438c.234.453.484.89.734 1.328l.266.5c.063.11.14.234.125.375-.016.25-.328.313-.531.313h-.11v.296h2.532v-.296c-.22 0-.438 0-.641-.11s-.328-.344-.438-.547c-.187-.36-.375-.703-.578-1.062-.296-.516-.578-1.047-.859-1.563l-.234-.422c-.032-.046-.094-.125-.094-.187 0-.078.11-.156.14-.219l.438-.5.578-.672c.156-.172.297-.36.469-.5a1.61 1.61 0 0 1 1.078-.422v-.296H5.64v.296c.25 0 .594.141.563.438 0 .047-.016.094-.031.11a.694.694 0 0 1-.125.171c-.063.078-.14.156-.203.234-.219.235-.407.485-.625.735-.39.469-.797.922-1.203 1.39-.22.25-.422.532-.672.782v-3.39c0-.11 0-.25.094-.345.078-.078.187-.093.296-.093.22-.032.422-.032.641-.032v-.296zm2.719.297v6.204H2.25v-6.204zm0 0"/></svg></svg>