<svg xmlns="http://www.w3.org/2000/svg" xmlns:xlink="http://www.w3.org/1999/xlink" width="64" height="64" viewBox="0 0 6.422 6.797"><svg overflow="visible" x="-.547" y="6.812"><path style="stroke:none" d="m.797-6.813-.031.547L.719-5.14l-.031.563h.25a2.27 2.27 0 0 1 .125-.656 1.94 1.94 0 0 1 .25-.47 1.23 1.23 0 0 1 .265-.312c.25-.218.578-.328.89-.406.485-.094.985-.094 1.485-.094h.656l-.421.657-.75 1.156c-.657 1-1.313 2.016-1.97 3.031-.25.375-.5.766-.75 1.14-.077.11-.171.22-.171.36 0 .031 0 .078.015.11.032.046.079.046.141.046h6.094l.047-.578.078-1.484.047-.594h-.25a4.174 4.174 0 0 1-.157.985 1.533 1.533 0 0 1-.234.515c-.094.14-.203.281-.344.39-.203.173-.468.266-.734.329-.406.094-.828.11-1.234.11H2.859c.11-.22.266-.423.407-.626.203-.312.406-.64.625-.953.687-1.062 1.39-2.14 2.093-3.219.25-.375.5-.765.75-1.156.079-.11.25-.297.157-.469-.016-.046-.079-.046-.125-.046H6.53zm5.703.297c-.063.172-.188.313-.297.454-.187.312-.39.625-.594.921-.64 1-1.28 1.985-1.937 2.97L2.875-.954c-.078.14-.172.281-.25.406-.047.063-.078.14-.125.172-.063.047-.188.031-.25.031h-.672c.078-.172.203-.328.313-.469.187-.328.406-.64.609-.953.64-.984 1.281-1.984 1.938-2.968.265-.407.53-.797.78-1.204.079-.14.173-.25.25-.375a.49.49 0 0 1 .126-.171c.062-.047.172-.032.25-.032zm0 0"/></svg></svg>