<svg xmlns="http://www.w3.org/2000/svg" xmlns:xlink="http://www.w3.org/1999/xlink" width="64" height="64" viewBox="0 0 5.067 7.03"><svg overflow="visible" x="-.402" y="6.812"><path style="stroke:none" d="M1.406-6.813v.297c.297 0 .594 0 .89.032.142.015.282.03.36.14.11.125.078.297.078.438v3.828c0 .547.047 1.14-.265 1.64-.063.094-.14.204-.219.282-.36.281-.89.11-1.188-.172C.985-.406.922-.516.86-.594a.652.652 0 0 0 .5-.14c.235-.235.204-.688-.078-.875C1-1.797.563-1.688.438-1.344c-.079.219-.016.5.078.703a.883.883 0 0 0 .203.329c.234.28.562.468.922.515.25.031.5 0 .75 0s.5.016.734 0a1.972 1.972 0 0 0 1.078-.5c.25-.234.422-.562.469-.906.016-.125.016-.25.016-.375v-4.39c0-.141-.016-.345.093-.454a.407.407 0 0 1 .235-.062c.14-.032.296-.032.453-.032v-.296zm2.985.297v4.72c0 .28 0 .546-.079.812-.14.437-.546.78-.984.921-.203.047-.39.047-.594.047.422-.25.75-.671.829-1.156.03-.14.03-.281.03-.437v-4.907zm0 0"/></svg></svg>