<svg xmlns="http://www.w3.org/2000/svg" xmlns:xlink="http://www.w3.org/1999/xlink" width="64" height="64" viewBox="0 0 7.641 6.797"><svg overflow="visible" x="-.328" y="6.812"><path style="stroke:none" d="M.328-6.813v.297c.234 0 .453 0 .672.032.11.015.234.03.297.14.078.11.062.282.062.422V-.89c0 .125.016.282-.046.407-.079.109-.188.125-.313.14-.219.031-.438.031-.672.031v.297h4.047v-.296c-.219 0-.422 0-.64-.032-.11 0-.22-.015-.297-.094-.094-.078-.094-.203-.094-.312v-2.656h2.703V-.75c0 .11 0 .234-.078.313a.446.446 0 0 1-.297.093c-.219.031-.422.031-.64.031v.297h2.937v-.296c-.235 0-.453 0-.688-.032-.11-.015-.218-.031-.297-.14-.062-.125-.046-.282-.046-.407v-5.03c0-.141-.016-.313.062-.423.063-.11.172-.125.281-.14.235-.032.453-.032.688-.032v-.296H5.03v.296c.219 0 .422 0 .64.032.095 0 .204.015.298.093.078.079.078.204.078.313v2.375H3.344v-2.375c0-.11 0-.234.094-.313.078-.078.187-.093.296-.093.22-.032.422-.032.641-.032v-.296zm2.719.297v6.204H2.25v-6.204zm0 0"/></svg></svg>