<svg xmlns="http://www.w3.org/2000/svg" xmlns:xlink="http://www.w3.org/1999/xlink" width="64" height="64" viewBox="0 0 6.091 7.256"><svg overflow="visible" x="-.552" y="7.04"><path style="stroke:none" d="M5.875-6.188c-.11-.093-.219-.203-.328-.296-.219-.188-.5-.36-.797-.438-.406-.14-.828-.14-1.234-.078-.391.078-.75.188-1.11.375a3.793 3.793 0 0 0-.765.578 3.067 3.067 0 0 0-.532.656c-.578.922-.703 2.079-.39 3.11.39 1.25 1.469 2.219 2.765 2.437.22.047.47.078.72.047.28-.031.546-.078.827-.187a2.578 2.578 0 0 0 1.594-2.204c.016-.078.031-.156 0-.234-.016-.094-.188-.11-.219-.015-.031.062-.015.109-.015.156-.016.094-.016.203-.047.312a2.46 2.46 0 0 1-.297.797A2.302 2.302 0 0 1 4.25-.094c-.219 0-.438-.031-.656-.078a1.698 1.698 0 0 1-.531-.203C3-.406 2.937-.422 2.89-.485c-.047-.03-.032-.093-.032-.14v-5.594c0-.047 0-.078.016-.125a.318.318 0 0 1 .094-.062c.078-.047.156-.078.234-.125.328-.14.688-.235 1.047-.203.203.03.39.062.563.14.625.235 1.078.813 1.312 1.422.063.188.125.39.172.594 0 .062.016.125.016.187 0 .047 0 .11.03.141.032.063.173.063.22.047.093-.031.078-.125.078-.188v-2.484c0-.047 0-.11-.047-.14-.11-.079-.188.062-.25.124-.078.125-.172.266-.266.407-.062.093-.14.187-.203.296zm-3.328.079v5.39a1.796 1.796 0 0 1-.328-.36 2.438 2.438 0 0 1-.422-.796c-.203-.594-.234-1.234-.219-1.86.031-.374.063-.734.172-1.109a3.09 3.09 0 0 1 .5-.953 1.41 1.41 0 0 1 .297-.312zm0 0"/></svg></svg>