<svg xmlns="http://www.w3.org/2000/svg" xmlns:xlink="http://www.w3.org/1999/xlink" width="64" height="64" viewBox="0 0 6.647 7.257"><svg overflow="visible" x="-.551" y="7.044"><path style="stroke:none" d="M3.703-7.031c-.14.015-.297.015-.437.047-.36.093-.72.218-1.047.421a3.186 3.186 0 0 0-.766.688C.313-4.547.234-2.437 1.328-1.062c.203.25.453.484.703.671a3.2 3.2 0 0 0 .985.485c.375.093.765.14 1.156.11a4.24 4.24 0 0 0 .797-.188c.234-.094.468-.204.656-.344C6.765-1.11 7.328-2.5 7.172-3.844c-.14-1.265-.906-2.453-2.125-2.953a2.273 2.273 0 0 0-.656-.187 2.045 2.045 0 0 0-.688-.047zm.047.25c.594-.047 1.172.218 1.578.64.219.22.375.485.5.766.219.469.297 1 .328 1.516.047.843-.031 1.734-.422 2.5C5.391-.672 4.75-.094 3.97-.047c-.297 0-.578-.047-.844-.172-.047-.015-.11-.047-.172-.078-.015-.016-.062-.047-.078-.078-.031-.031-.016-.094-.016-.14v-5.829c0-.031-.015-.093.016-.14.031-.063.14-.094.203-.125a1.92 1.92 0 0 1 .672-.172zm-1.203.531v5.625c-.094-.078-.172-.172-.25-.266a2.917 2.917 0 0 1-.406-.75c-.204-.5-.282-1.03-.313-1.562-.016-.578 0-1.188.172-1.75.11-.344.281-.688.5-.984.078-.11.188-.25.297-.313zm0 0"/></svg></svg>