<svg xmlns="http://www.w3.org/2000/svg" xmlns:xlink="http://www.w3.org/1999/xlink" width="64" height="64" viewBox="0 0 6.991 6.797"><svg overflow="visible" x="-.344" y="6.812"><path style="stroke:none" d="M.344-6.813v.297c.219 0 .437 0 .672.032.109.015.234.03.296.14.079.11.047.282.047.422V-.89c0 .125.032.282-.046.407-.063.109-.172.125-.297.14-.235.031-.454.031-.672.031v.297H4.67c.298-.046.595-.125.86-.25.235-.109.438-.25.625-.406 1.547-1.312 1.547-3.906.14-5.312a2.923 2.923 0 0 0-.546-.438 2.952 2.952 0 0 0-1.016-.375c-.187-.016-.39-.016-.578-.016zm2.672.297v6.204h-.797v-6.204zm.64 0h.328c.188 0 .375 0 .579.047.187.047.375.125.562.219.125.063.266.156.375.266.828.718.86 1.937.828 2.953-.016.75-.156 1.547-.703 2.094-.11.093-.203.187-.313.265a2.627 2.627 0 0 1-.468.235c-.203.062-.39.109-.61.124h-.312c-.094 0-.203 0-.297-.015-.094-.016-.188-.016-.234-.078-.079-.11-.063-.25-.063-.36v-5.421c0-.063 0-.141.047-.204.047-.093.172-.109.281-.125zm0 0"/></svg></svg>