<svg xmlns="http://www.w3.org/2000/svg" xmlns:xlink="http://www.w3.org/1999/xlink" width="64" height="64" viewBox="0 0 9.219 6.805"><svg overflow="visible" x="-.375" y="6.82"><path style="stroke:none" d="M.375-6.813v.297c.219 0 .438 0 .672.032.11.015.234.03.281.14.094.11.063.282.063.422V-1c0 .156.015.328-.063.469-.078.11-.203.156-.328.187-.219.031-.422.031-.625.031v.297h4.016v-.296c-.22 0-.422 0-.625-.032-.141-.031-.25-.078-.329-.187-.093-.156-.078-.36-.078-.547v-5.297h.016c.031.188.11.375.156.547.125.328.235.64.328.969.344 1.125.72 2.25 1.094 3.375.125.375.25.75.375 1.14.031.11.063.328.219.328s.187-.234.219-.343c.125-.375.25-.766.375-1.141.375-1.125.734-2.25 1.093-3.375.11-.344.22-.672.329-1 .03-.11.062-.219.109-.328.031-.094.047-.172.078-.266v5.5c0 .156.031.36-.047.5-.078.094-.203.11-.312.125-.22.031-.438.031-.657.031v.297h2.86v-.296c-.235 0-.453 0-.688-.032-.11-.015-.219-.031-.297-.14-.062-.125-.046-.282-.046-.407v-5.03c0-.141-.016-.313.062-.423.063-.11.172-.125.281-.14.235-.032.453-.032.688-.032v-.296H7.859c-.062 0-.14-.016-.187.03-.047.032-.063.095-.078.141-.032.094-.063.188-.094.266-.11.36-.234.719-.344 1.063-.312.953-.61 1.89-.922 2.828-.078.265-.171.546-.265.812-.047.14-.094.297-.14.453-.063-.156-.11-.312-.157-.453-.094-.266-.172-.547-.266-.812-.312-.954-.61-1.907-.937-2.875L4.14-6.391c-.032-.078-.047-.171-.079-.25-.03-.062-.046-.125-.093-.14-.078-.063-.203-.032-.297-.032zm2.703.297v6.204h-.797v-6.204zm0 0"/></svg></svg>