<svg xmlns="http://www.w3.org/2000/svg" xmlns:xlink="http://www.w3.org/1999/xlink" width="64" height="64" viewBox="0 0 4.594 6.642"><svg overflow="visible" x="-.547" y="6.658"><path style="stroke:none" d="M.547-5.688v.313c.515-.016 1.047-.125 1.5-.375v4.86c0 .14.015.312-.078.437-.078.078-.219.11-.328.11-.235.03-.47.03-.704.03v.297h4.204v-.296c-.235 0-.47 0-.704-.032a.519.519 0 0 1-.328-.11c-.093-.124-.078-.28-.078-.421v-5.61c0-.046 0-.093-.031-.124-.047-.063-.188-.047-.25-.047h-.906c-.047 0-.094 0-.125.015-.047.016-.063.063-.094.094-.047.047-.078.094-.125.14-.14.141-.297.25-.469.345-.453.265-.969.375-1.484.375zm3.187-.656v6.032h-.796v-6.032zm0 0"/></svg></svg>