<svg xmlns="http://www.w3.org/2000/svg" xmlns:xlink="http://www.w3.org/1999/xlink" width="64" height="64" viewBox="0 0 6.016 6.909"><svg overflow="visible" x="-.313" y="6.925"><path style="stroke:none" d="M.313-6.922v.297c.171 0 .328 0 .5.031a.3.3 0 0 1 .25.14c.062.141.03.329.03.47v5.046c0 .141.032.313-.03.438-.047.11-.141.14-.25.156-.172.031-.329.031-.5.031v.297h3.359v-.296c-.156 0-.313 0-.469-.032-.094 0-.187-.031-.234-.094-.078-.093-.063-.234-.063-.343v-1.516c0-.203-.015-.39.016-.578.047-.39.203-.75.5-1.016a.993.993 0 0 1 .344-.218.998.998 0 0 1 .437-.094c.047 0 .11.016.172.031.406.125.453.578.484.938V-.72c0 .094 0 .203-.078.297a.384.384 0 0 1-.234.078c-.156.031-.313.031-.469.031v.297h2.25v-.296c-.156 0-.328 0-.484-.032-.125-.015-.235-.062-.282-.203-.015-.094-.015-.187-.015-.297v-1.969c0-.359.016-.718-.156-1.062-.188-.344-.563-.5-.938-.531a1.904 1.904 0 0 0-.422 0c-.36.062-.672.25-.906.515-.078.11-.172.22-.219.36-.015-.11 0-.203 0-.313v-2.812c0-.063.016-.188-.047-.235-.03-.046-.125-.03-.187-.03zm2.28.297v6.313h-.796v-6.313zm0 0"/></svg></svg>