<svg xmlns="http://www.w3.org/2000/svg" xmlns:xlink="http://www.w3.org/1999/xlink" width="64" height="64" viewBox="0 0 6.784 7.254"><svg overflow="visible" x="-.544" y="7.04"><path style="stroke:none" d="M5.922-.64c.11.218.281.374.453.53.063.048.172.157.25.063.031-.047.016-.125.016-.172v-1.625c0-.156-.047-.375.078-.484a.46.46 0 0 1 .203-.078c.14-.016.266-.016.406-.016v-.312H4.5v.312c.266 0 .516 0 .781.016.125.015.266.031.375.11.094.093.094.218.094.358v.266c0 .219.031.469-.031.688-.094.359-.438.64-.782.75a2.285 2.285 0 0 1-1.609-.032 2.3 2.3 0 0 1-.344-.156c-.03-.016-.093-.047-.109-.094-.016-.03-.016-.078-.016-.109v-5.578c0-.063-.015-.125.047-.172.047-.031.11-.063.172-.094.14-.078.297-.125.453-.187a3.59 3.59 0 0 1 .703-.078C5-6.688 5.61-6.172 5.97-5.516c.125.235.234.516.297.797.015.11.03.188.046.297 0 .047 0 .11.032.172.031.063.156.078.218.047.094-.031.079-.125.079-.188v-2.484c0-.047 0-.11-.047-.14-.11-.079-.188.062-.25.124-.078.125-.172.266-.266.407-.062.093-.14.187-.203.296a.713.713 0 0 1-.188-.187c-.109-.078-.203-.172-.312-.25-.453-.313-1-.453-1.547-.406-.672.047-1.297.265-1.828.687C1.031-5.64.5-4.454.547-3.266c.015.532.156 1.063.406 1.547.14.282.328.563.547.797.188.203.39.39.64.547a3.3 3.3 0 0 0 2.126.578c.468-.031.953-.172 1.328-.469.14-.109.234-.234.328-.375zM2.547-6.11v5.376a1.27 1.27 0 0 1-.281-.297 2.819 2.819 0 0 1-.485-.907c-.125-.39-.172-.78-.203-1.171-.031-.657.031-1.344.25-1.954a2.57 2.57 0 0 1 .469-.796c.078-.079.156-.188.25-.25zm0 0"/></svg></svg>