<svg xmlns="http://www.w3.org/2000/svg" xmlns:xlink="http://www.w3.org/1999/xlink" width="64" height="64" viewBox="0 0 6.699 6.814"><svg overflow="visible" x="-.359" y="6.815"><path style="stroke:none" d="M.36-6.813v.297c.234 0 .453 0 .671.032.11.015.235.03.297.14.078.11.063.282.063.422V-.89c0 .125.015.282-.063.407-.062.109-.172.125-.297.14-.218.031-.437.031-.672.031v.297h3.344c.39 0 .797.032 1.188 0 .421-.046.843-.156 1.203-.39a1.746 1.746 0 0 0 .859-.923c.063-.124.078-.234.094-.359a1.02 1.02 0 0 0 0-.312c-.094-.797-.906-1.297-1.64-1.484-.157-.032-.345-.079-.516-.079.14-.046.312-.062.468-.109.407-.125.797-.328 1.094-.656a.993.993 0 0 0 .219-.344 1.19 1.19 0 0 0 .094-.312.85.85 0 0 0 0-.282c-.079-.656-.657-1.109-1.235-1.328-.672-.265-1.406-.218-2.125-.218zm2.656.297v6.204h-.797v-6.204zm.296 2.86v-2.5c0-.078 0-.188.063-.25.078-.11.281-.11.39-.11.36 0 .735-.03 1.079.094.187.078.343.156.484.297.125.094.234.219.313.36.078.14.125.265.14.406a.998.998 0 0 1 .016.312c-.047.656-.578 1.125-1.188 1.313-.406.109-.859.078-1.296.078zm0 .219h.844c.235 0 .469-.016.703.046.766.204 1.344 1.016 1.172 1.829-.031.14-.078.265-.156.39-.25.438-.719.719-1.203.813-.313.062-.625.046-.938.046-.109 0-.28 0-.359-.093-.063-.078-.063-.188-.063-.266zm0 0"/></svg></svg>