<svg xmlns="http://www.w3.org/2000/svg" xmlns:xlink="http://www.w3.org/1999/xlink" width="64" height="64" viewBox="0 0 7.656 6.895"><svg overflow="visible" x="-.313" y="6.91"><path style="stroke:none" d="M3.281-6.906c.016.031.063.062.063.11.015.03-.016.093-.031.124l-.079.281-.406 1.204c-.328.984-.672 1.968-1 2.953-.094.312-.187.609-.297.921-.062.188-.11.391-.218.563-.22.328-.61.438-1 .438v.296L.686-.03l.875-.016.907.031v-.296c-.297 0-.735-.141-.75-.5 0-.11.031-.204.062-.297l.157-.454c.046-.14.093-.265.14-.406.016-.062.031-.14.078-.172.031-.03.11-.015.156-.015h.407c.515 0 1.062-.016 1.594 0a.14.14 0 0 1 .078.015c.062.032.062.125.078.172l.218.64.172.516c.016.063.063.157.047.235-.031.094-.125.156-.218.203-.188.063-.407.063-.61.063v.296L4.64-.03h.328l.172.015.593-.015h.563l.906-.016.766.031v-.296c-.172 0-.36 0-.532-.032a.49.49 0 0 1-.328-.11c-.125-.14-.171-.327-.218-.5-.11-.312-.22-.64-.329-.952C6.157-3.11 5.766-4.296 5.36-5.5l-.328-1.016-.093-.265c-.016-.032-.016-.094-.047-.11-.032-.03-.094-.015-.141-.015zm1.39.312.22.625.39 1.188.985 2.922.328 1 .172.546h-.61c-.062 0-.172.016-.218-.03-.032-.032-.047-.094-.063-.141l-.11-.344c-.14-.422-.28-.828-.421-1.25-.516-1.5-1.016-3-1.516-4.516zm-1.39 1.047.922 2.766.094.312H2.25l.906-2.719zm0 0"/></svg></svg>