<svg xmlns="http://www.w3.org/2000/svg" xmlns:xlink="http://www.w3.org/1999/xlink" width="64" height="64" viewBox="0 0 10.438 6.891"><svg overflow="visible" x="-.172" y="6.812"><path style="stroke:none" d="M.172-6.813v.297c.156 0 .312 0 .469.032a.46.46 0 0 1 .25.062c.14.11.187.328.218.484.125.36.235.72.344 1.094.344 1.14.703 2.282 1.047 3.422.11.328.219.672.313 1 .015.094.046.188.078.281.015.047.03.11.062.157.063.062.125.062.203.062h.516c.062 0 .11 0 .172-.031.031-.031.047-.094.078-.14.015-.079.031-.157.062-.235.11-.328.204-.672.313-1 .125-.453.281-.906.406-1.36.156-.5.313-1 .469-1.515.078-.234.125-.484.219-.719.093.234.156.484.218.719.157.5.313 1.016.47 1.516.124.453.28.906.405 1.359.11.328.22.672.313 1 .031.078.047.156.078.234.016.047.031.11.078.14.047.032.11.032.172.032h.516c.062 0 .14 0 .187-.062.031-.047.047-.11.063-.157.03-.093.062-.187.078-.28.11-.329.218-.673.312-1 .36-1.157.703-2.298 1.063-3.454l.234-.797c.078-.25.156-.484.375-.656.188-.14.438-.188.656-.188v-.296H8.516v.296c.234 0 .515.063.703.22.094.077.172.187.172.312a.352.352 0 0 1-.047.218c-.031.11-.063.22-.094.313-.11.39-.234.766-.344 1.156l-.844 2.719c-.124.406-.25.812-.359 1.219a4.393 4.393 0 0 1-.156-.485c-.094-.312-.203-.64-.297-.953l-.875-2.875c-.11-.375-.234-.75-.344-1.125-.031-.078-.062-.187-.093-.281 0-.047-.032-.11-.016-.172.031-.094.125-.156.234-.203.188-.063.407-.063.61-.063v-.296H4.187v.296c.11 0 .235 0 .344.016.094.016.219.016.297.063.11.062.156.187.203.296l.14.516c.032.078.095.188.079.281 0 .094-.047.188-.078.266-.047.156-.094.328-.14.5-.157.484-.313 1-.47 1.5-.046.172-.093.328-.14.5-.047.11-.078.219-.11.328-.03-.125-.078-.25-.109-.36a26.774 26.774 0 0 0-.187-.593l-.61-1.985c-.062-.25-.14-.5-.219-.75-.03-.109-.109-.234-.062-.343.031-.094.14-.14.219-.172.187-.063.375-.063.547-.063v-.296zM3.734-.359l-.39-1.235-1.016-3.328-.484-1.594h.765l.079.032.03.109.079.219.25.86.765 2.515.235.734.062.219.032.125-.047.14-.078.266zm0 0"/></svg></svg>