<svg xmlns="http://www.w3.org/2000/svg" xmlns:xlink="http://www.w3.org/1999/xlink" width="64" height="64" viewBox="0 0 8.855 11.082"><svg overflow="visible" x="-.555" y=".003"><path style="stroke:none" d="M3.203 3.016c-.437 0-.844.093-1.234.296C.625 4 .25 5.75 1.079 6.985c.343.5.921.922 1.624 1.032-.094 1.015-.031 3.046-1.25 2.828-.172-.031-.297-.125-.437-.188v-.015c.53-.079.453-.813-.016-.829-.313-.015-.484.25-.438.532.079.515.688.797 1.329.719 1.062-.204 1.343-1.532 1.468-2.422.032-.204.047-.391.079-.579h2.578c-.032.422-.063.86-.11 1.282-.062.562-.187 1.203-.61 1.437-.296.156-.702.063-.952-.14.125-.032.234-.063.297-.172a.42.42 0 0 0-.313-.656c-.297-.016-.484.234-.437.515.03.235.171.422.375.563.656.39 1.421.14 1.843-.454.36-.515.485-1.14.563-1.75.031-.218.062-.421.094-.624.796 0 1.453-.344 1.89-.797.797-.86.89-2.204.219-3.172-.344-.485-.938-.922-1.625-1.032.047-.187.047-.406.063-.593.046-.828.109-2.172.937-2.25.281-.032.484.093.688.203-.516.094-.47.75-.032.828.328.063.531-.203.5-.5a.806.806 0 0 0-.39-.563c-.61-.374-1.391-.171-1.797.391-.39.531-.532 1.203-.61 1.828-.03.203-.078.422-.078.61H3.938c.03-.157.03-.329.046-.485.079-.765.079-1.906.688-2.234.281-.156.687-.063.937.125a.512.512 0 0 0-.296.187.427.427 0 0 0 .375.657c.296-.016.437-.282.39-.547C5.984.203 5.36-.062 4.75.016 3.844.172 3.484 1.219 3.344 2c-.063.328-.094.688-.14 1.016zm-.047.406c-.14.953-.25 1.922-.328 2.89-.031.422-.094.875-.094 1.297a2.088 2.088 0 0 1-1.406-.984c-.625-1.016-.219-2.438.86-2.969a2.11 2.11 0 0 1 .968-.234zm3.313 0-.125 1.015a100.15 100.15 0 0 0-.297 3.22H3.484c.157-1.048.25-2.11.36-3.157l.047-.797c0-.062-.016-.219.03-.265.048-.032.142-.016.188-.016zm.343 4.234c.11-.781.188-1.562.282-2.343.047-.625.11-1.22.14-1.86.657.188 1.204.547 1.5 1.172.625 1.328-.296 3.031-1.921 3.031zm0 0"/></svg></svg>