<svg xmlns="http://www.w3.org/2000/svg" xmlns:xlink="http://www.w3.org/1999/xlink" width="64" height="64" viewBox="0 0 5.521 11.082"><svg overflow="visible" x="-.562" y=".001"><path style="stroke:none" d="M2.969 4.875c-.594.094-1.156.328-1.735.469l.11.39 1.578-.437c-.016.25-.047.469-.078.719-.031.453-.078.921-.11 1.375-.046.859-.046 1.75-.265 2.593-.063.266-.172.532-.375.72-.297.25-.781.171-1.078-.063.125-.032.234-.063.296-.172A.42.42 0 0 0 1 9.813c-.469-.032-.531.5-.328.812.312.484 1.078.563 1.547.328.219-.11.39-.265.515-.453.422-.531.532-1.234.625-1.86.157-1.046.266-2.093.391-3.156.016-.203-.078-.406.172-.453l.312-.093c.375-.11.766-.22 1.157-.313l-.11-.39-1.468.406c.062-.282.062-.61.078-.891.03-.547.078-1.078.125-1.61.046-.656.109-1.421.53-1.765.298-.25.782-.172 1.063.047a.817.817 0 0 0-.234.11.459.459 0 0 0-.016.624c.157.14.407.14.579.016.25-.188.14-.61-.047-.813-.266-.312-.797-.421-1.204-.328-.593.14-.921.656-1.14 1.188-.203.547-.25 1.11-.328 1.687-.094.656-.172 1.313-.25 1.969zm0 0"/></svg></svg>