<svg xmlns="http://www.w3.org/2000/svg" xmlns:xlink="http://www.w3.org/1999/xlink" width="64" height="64" viewBox="0 0 12.176 11.09"><svg overflow="visible" x="-.551" y=".009"><path style="stroke:none" d="M1.016 10.656c.156-.062.296-.11.343-.281.125-.36-.234-.672-.578-.531-.422.187-.187.781.094 1 .61.453 1.484.219 1.89-.39.563-.798.61-1.86.72-2.782.14-1.016.25-2.047.343-3.063.063-.843.11-1.687.188-2.53.062-.688.156-1.845.937-1.86.266 0 .484.078.656.203a.512.512 0 0 0-.296.187.425.425 0 0 0 .296.657c.047 0 .11 0 .157-.016.375-.094.375-.516.203-.797C5.687 0 4.953-.109 4.484.093c-.265.11-.484.313-.64.548-.531.78-.578 1.828-.688 2.718a89.9 89.9 0 0 0-.328 2.875c-.062.844-.11 1.688-.187 2.532-.016.14-.032.265-.032.39-.062.594-.14 1.625-.89 1.703-.297.032-.5-.093-.703-.203zm3.328 0v-.015a.422.422 0 0 0 .047-.829h-.157c-.375.047-.421.47-.28.75.28.516 1.046.626 1.546.407.25-.11.469-.313.625-.547.516-.766.563-1.781.672-2.672.125-.953.234-1.906.328-2.86.078-.859.125-1.702.188-2.562.015-.125.03-.265.046-.39.063-.657.172-1.625.86-1.72.297-.03.5.095.719.204-.141.062-.282.094-.329.25a.424.424 0 0 0 .5.578c.438-.125.329-.688.079-.922-.36-.375-1.016-.422-1.47-.203a1.661 1.661 0 0 0-.562.531c-.515.797-.562 1.813-.672 2.719-.14 1-.25 2-.343 3-.063.781-.094 1.563-.172 2.344-.078.812-.11 2.031-.907 2.14-.312.032-.5-.109-.718-.203zm3.328-.015c.11-.032.219-.063.297-.172.172-.266 0-.625-.297-.657H7.5c-.36.11-.36.532-.188.797a.88.88 0 0 0 .485.375c.61.235 1.266 0 1.64-.53.532-.798.579-1.829.688-2.75.234-1.798.375-3.61.516-5.423l.046-.39c.047-.579.141-1.594.86-1.672.312-.032.5.093.719.203-.157.062-.297.11-.36.281-.11.36.25.672.578.516.438-.188.204-.766-.078-.985-.61-.468-1.484-.218-1.906.391-.531.766-.578 1.813-.688 2.719-.265 1.906-.374 3.797-.546 5.719-.047.546-.141 1.78-.938 1.796a1.01 1.01 0 0 1-.656-.218zm0 0"/></svg></svg>