<svg xmlns="http://www.w3.org/2000/svg" xmlns:xlink="http://www.w3.org/1999/xlink" width="64" height="64" viewBox="0 0 8.835 11.083"><svg overflow="visible" x="-.568" y=".005"><path style="stroke:none" d="M1.016 10.656v-.015a.42.42 0 0 0 .046-.829c-.468-.078-.593.438-.421.766.28.531 1.078.61 1.578.375.219-.11.39-.265.515-.453.563-.734.61-1.75.735-2.656a56.84 56.84 0 0 0 .36-3.235c.062-.843.108-1.687.187-2.53.062-.704.187-1.813.906-1.86a.954.954 0 0 1 .687.203.512.512 0 0 0-.296.187.425.425 0 0 0 .296.657c.047 0 .11 0 .157-.016.359-.094.375-.516.203-.781a.922.922 0 0 0-.39-.344c-.626-.297-1.329-.063-1.704.5-.563.797-.61 1.844-.719 2.781-.219 1.781-.36 3.563-.515 5.344-.016.125-.016.266-.032.406-.062.578-.14 1.61-.875 1.703-.296.032-.515-.109-.718-.203zm3.328-.015c.125-.032.234-.063.297-.172.171-.266.015-.625-.297-.656h-.157c-.375.109-.375.53-.203.796.297.47 1.032.579 1.516.36.25-.11.469-.313.625-.547.516-.766.563-1.781.672-2.672.125-.953.234-1.906.328-2.86.078-.859.125-1.702.188-2.562.015-.125.03-.265.046-.39.047-.594.141-1.625.86-1.72.297-.03.515.095.719.204-.141.062-.282.094-.329.25a.417.417 0 0 0 .532.562c.421-.14.265-.718 0-.953C8.547-.25 7.609.016 7.203.61c-.562.782-.61 1.844-.719 2.766-.25 1.875-.39 3.766-.546 5.64-.032.454-.079.938-.266 1.344-.125.25-.344.485-.64.5-.282.032-.5-.078-.688-.218zm0 0"/></svg></svg>