<svg xmlns="http://www.w3.org/2000/svg" xmlns:xlink="http://www.w3.org/1999/xlink" width="64" height="64" viewBox="0 0 5.534 11.083"><svg overflow="visible" x="-.553" y=".008"><path style="stroke:none" d="M3.203 3.016h-2.11c-.312 0-.296.125-.296.375v4.312c0 .11-.016.219.062.297.125.11.36.063.5.063h1.344c-.031.156-.031.328-.047.484-.047.75-.078 1.906-.656 2.234-.313.156-.734.063-.984-.14.125-.032.234-.063.296-.172.188-.297-.03-.672-.359-.656-.312 0-.437.28-.39.546.078.5.703.782 1.328.704 1.062-.204 1.343-1.516 1.468-2.422.032-.204.047-.391.079-.579h2.109c.312 0 .297-.124.297-.374V3.375c0-.11.015-.219-.063-.297-.11-.11-.375-.062-.5-.062H3.938c.03-.157.03-.329.046-.485.047-.75.079-1.906.672-2.234.282-.156.703-.063.953.125a.512.512 0 0 0-.296.187.427.427 0 0 0 .375.657c.296-.016.437-.282.39-.547C6 .313 5.562.047 5.141.016a.826.826 0 0 0-.391 0C3.672.219 3.406 1.53 3.281 2.437c-.031.188-.047.391-.078.579zm-.047.406c-.14.953-.25 1.922-.328 2.89-.031.454-.094.891-.094 1.344h-1.53V3.422zm2.281 0v4.234H3.484c.141-.953.25-1.922.329-2.89.03-.454.093-.891.093-1.344zm0 0"/></svg></svg>