<svg xmlns="http://www.w3.org/2000/svg" xmlns:xlink="http://www.w3.org/1999/xlink" width="64" height="64" viewBox="0 0 15.465 11.083"><svg overflow="visible" x="-.567" y=".003"><path style="stroke:none" d="M1.031 10.64c.11-.03.219-.062.297-.171a.428.428 0 0 0-.312-.656c-.47-.047-.547.484-.344.796.094.157.234.25.39.344.61.281 1.282.078 1.672-.453.563-.75.594-1.766.72-2.672.155-1.062.28-2.14.358-3.219.079-.843.11-1.687.188-2.53.063-.72.172-1.845.953-1.86.281 0 .484.078.656.203a.501.501 0 0 0-.312.187c-.156.266 0 .625.312.657.47.046.547-.485.36-.813-.11-.14-.25-.25-.407-.328-.593-.281-1.28-.063-1.671.453-.579.781-.625 1.844-.735 2.766-.125.969-.25 1.922-.328 2.89-.094.922-.14 1.844-.219 2.766-.062.703-.171 1.844-.937 1.86a.935.935 0 0 1-.64-.22zm3.313.016c.156-.062.297-.11.343-.281a.416.416 0 0 0-.546-.531c-.438.156-.25.734.015.969.375.328 1.016.343 1.453.109.22-.125.375-.313.516-.531.516-.766.547-1.766.656-2.657.14-1.03.266-2.046.36-3.078.062-.781.093-1.547.171-2.328 0-.125.032-.265.032-.39.047-.594.14-1.625.86-1.704.296-.062.515.078.733.188-.156.062-.28.094-.343.25-.14.344.172.687.515.578.438-.14.297-.703.047-.938-.39-.374-1.062-.39-1.515-.14-.204.125-.36.281-.485.469-.531.796-.578 1.828-.687 2.734a54.037 54.037 0 0 0-.313 2.781c-.078.875-.125 1.766-.203 2.64-.016.142-.031.267-.047.392-.047.578-.14 1.593-.86 1.671-.28.032-.5-.093-.702-.203zm3.328 0c.031 0 .234-.078.297-.187.187-.266-.032-.735-.407-.656-.39.062-.421.484-.28.765.124.203.327.344.546.422a1.401 1.401 0 0 0 1.578-.516c.547-.812.594-1.843.719-2.78.11-.923.234-1.845.313-2.782.062-.89.124-1.766.203-2.656 0-.125.03-.25.03-.375.048-.579.173-1.594.876-1.672.281-.032.5.093.703.203-.156.062-.281.11-.344.281a.42.42 0 0 0 .547.531c.453-.156.25-.734-.015-.968-.391-.329-1.016-.344-1.454-.11-.218.125-.39.313-.53.516-.5.781-.548 1.765-.657 2.672a66.186 66.186 0 0 0-.344 3.078c-.062.781-.11 1.547-.172 2.328l-.047.406c-.078.656-.171 1.625-.843 1.688-.297.062-.516-.094-.72-.188zM11 10.641c.11-.032.219-.063.297-.172a.428.428 0 0 0-.313-.656c-.468-.047-.546.484-.343.796.093.157.234.25.39.344.61.281 1.281.078 1.672-.453.563-.75.594-1.766.719-2.672.14-1.016.265-2.062.36-3.094.077-.89.109-1.78.187-2.656.062-.719.172-1.844.953-1.86.281 0 .484.079.656.204a.501.501 0 0 0-.312.187c-.157.266 0 .625.312.657.469.046.547-.485.36-.813-.11-.14-.25-.25-.407-.328-.594-.281-1.281-.063-1.672.453-.578.766-.609 1.797-.734 2.719a72.231 72.231 0 0 0-.36 3.156c-.062.86-.109 1.703-.187 2.547-.062.703-.172 1.844-.937 1.86a.935.935 0 0 1-.641-.22zm0 0"/></svg></svg>