<svg xmlns="http://www.w3.org/2000/svg" xmlns:xlink="http://www.w3.org/1999/xlink" width="64" height="64" viewBox="0 0 8.855 11.082"><svg overflow="visible" x="-.555" y=".003"><path style="stroke:none" d="M3.203 3.016H.922c-.313 0-.297.109-.297.375v4.312c0 .11-.016.219.063.297.125.11.406.063.546.063h1.47c-.048.187-.048.39-.048.593-.078.953-.156 2.375-1.203 2.188-.172-.031-.281-.125-.437-.188v-.015c.53-.079.453-.813-.016-.829-.313-.015-.484.25-.438.532.079.515.688.797 1.329.719 1.062-.204 1.343-1.532 1.468-2.422.032-.204.047-.391.079-.579h2.578c-.032.422-.063.86-.11 1.282-.062.562-.187 1.203-.61 1.437-.296.156-.702.063-.952-.14.125-.032.234-.063.297-.172a.42.42 0 0 0-.313-.656c-.297-.016-.484.234-.437.515.03.235.171.422.375.563.656.39 1.421.14 1.843-.454.36-.515.485-1.14.563-1.75.031-.218.062-.421.094-.624h2.28c.298 0 .282-.126.282-.376V3.375c0-.11.016-.219-.062-.297-.11-.11-.391-.062-.547-.062H7.266c0-.188.03-.407.046-.61.063-.812.125-2.11.922-2.187.297-.032.5.093.704.203-.516.094-.47.75-.032.828.328.063.531-.203.5-.5a.806.806 0 0 0-.39-.563c-.61-.374-1.391-.171-1.797.391-.39.531-.532 1.203-.61 1.828-.03.203-.078.422-.078.61H3.938c.03-.157.03-.329.046-.485.079-.765.079-1.906.688-2.234.281-.156.687-.063.937.125a.512.512 0 0 0-.296.187.427.427 0 0 0 .375.657c.296-.016.437-.282.39-.547C5.984.203 5.36-.062 4.75.016 3.844.172 3.484 1.219 3.344 2c-.063.328-.094.688-.14 1.016zm-.047.406c-.156 1.047-.25 2.094-.36 3.156-.015.266-.03.531-.062.797 0 .063.032.219-.015.266-.031.03-.094.015-.14.015H1.03V3.422zm3.313 0-.125 1.015a100.15 100.15 0 0 0-.297 3.22H3.484c.157-1.048.25-2.11.36-3.157l.047-.797c0-.062-.016-.219.03-.265.048-.032.142-.016.188-.016zm2.468 0v4.234H6.813c.171-1.375.312-2.797.421-4.234zm0 0"/></svg></svg>