<svg xmlns="http://www.w3.org/2000/svg" xmlns:xlink="http://www.w3.org/1999/xlink" width="64" height="64" viewBox="0 0 6.221 11.083"><svg overflow="visible" x=".134" y=".008"><path style="stroke:none" d="M3.203 3.016c-.86.062-1.64.515-2.078 1.265a3.472 3.472 0 0 0-.219.5C.86 4.97.844 5.11.72 5.25l-.703.797c-.079.078-.22.203-.11.328.11.094.203-.016.281-.094.22-.187.407-.375.625-.562 0 .828.547 1.61 1.235 2 .203.11.422.218.656.25 0 .36-.047.734-.094 1.093-.062.61-.14 1.438-.609 1.72-.313.155-.734.062-.984-.141.125-.032.234-.063.296-.172.188-.297-.03-.672-.359-.656-.312 0-.437.28-.39.546.078.5.703.782 1.328.704 1.062-.204 1.343-1.516 1.468-2.422.032-.204.047-.391.079-.579.953-.078 1.812-.609 2.187-1.5.5-1.156.078-2.562-1.031-3.203-.203-.109-.422-.218-.657-.265 0-.36.047-.719.094-1.078.063-.625.14-1.454.625-1.72.282-.155.703-.062.953.126a.512.512 0 0 0-.296.187.427.427 0 0 0 .375.657c.296-.016.437-.282.39-.547C6 .313 5.562.047 5.141.016a.826.826 0 0 0-.391 0C3.672.219 3.406 1.53 3.281 2.437c-.031.188-.047.391-.078.579zm-.047.406c-.187 1.36-.297 2.765-.422 4.156-.656-.219-1.171-.672-1.421-1.312-.063-.204-.079-.407-.11-.61.234.188.438.422.656.61.079.062.172.203.282.109C2.297 6.25 2.094 6.094 2 6l-.531-.594c-.063-.078-.188-.187-.219-.281-.016-.063.016-.125.031-.188.25-.812 1.016-1.5 1.875-1.515zm.766.078c.172.063.36.125.531.234.406.266.734.672.875 1.125.36 1.079-.187 2.266-1.25 2.657-.187.078-.39.125-.594.125.22-1.204.297-2.422.391-3.688.016-.14 0-.312.047-.453zm0 0"/></svg></svg>