<svg xmlns="http://www.w3.org/2000/svg" xmlns:xlink="http://www.w3.org/1999/xlink" width="64" height="64" viewBox="0 0 8.846 11.084"><svg overflow="visible" x="-.559" y=".006"><path style="stroke:none" d="M1.016 10.656v-.015c.53-.079.468-.766.015-.829-.312-.03-.5.22-.468.516a.784.784 0 0 0 .359.547c.64.406 1.437.172 1.844-.422.359-.5.5-1.14.578-1.75.031-.219.078-.453.094-.672.515.36 1.234.485 1.843.438.25-.031.485-.11.719-.172-.016.344-.047.687-.094 1.047-.062.531-.172 1.25-.625 1.437-.281.156-.703.063-.937-.14.125-.032.234-.063.297-.157a.44.44 0 0 0-.454-.671c-.375.109-.375.53-.203.796.188.313.579.454.907.47.125 0 .25 0 .359-.032.984-.203 1.297-1.422 1.422-2.281.016-.188.047-.36.062-.547.032-.11.016-.25.063-.36.047-.078.156-.14.219-.203a2.97 2.97 0 0 0 .594-3.422 1.992 1.992 0 0 0-.235-.39c-.047-.063-.125-.14-.14-.219-.032-.125.015-.313.015-.453.031-.438.094-.89.11-1.313.062-.562.156-1.546.859-1.625.297-.062.515.078.719.188a.87.87 0 0 0-.297.172c-.204.281.015.687.359.672.313-.016.453-.282.39-.563-.109-.5-.718-.781-1.328-.687C7 .219 6.734 1.53 6.595 2.437a9.31 9.31 0 0 1-.078.61c-.516-.36-1.22-.5-1.844-.438-.25.032-.469.11-.719.172.11-.781.031-2.156.719-2.484.281-.156.687-.063.937.125a.575.575 0 0 0-.296.172c-.22.328.078.75.453.656.375-.094.375-.516.203-.797C5.78.156 5.406.016 5.062 0a1.02 1.02 0 0 0-.375.031c-.984.219-1.28 1.453-1.39 2.328-.031.172-.063.36-.078.547-.016.078-.016.219-.063.297-.031.094-.14.14-.203.203-.453.438-.812 1.125-.906 1.844a3.126 3.126 0 0 0 .297 1.594c.062.14.156.281.25.406.031.063.125.125.14.203.032.14-.015.344-.03.484-.032.313-.048.641-.079.954 0 .125-.016.25-.031.375-.063.562-.156 1.5-.844 1.578-.297.062-.531-.094-.734-.188zm5.046-7.422c.11.063.313.141.375.235.047.062 0 .203 0 .297-.171 1.234-.28 2.515-.39 3.812 0 .063.016.188-.031.25-.032.063-.141.094-.188.11-.203.062-.39.109-.594.125a2.542 2.542 0 0 1-1.312-.22c-.125-.046-.328-.124-.406-.234-.032-.078 0-.218.015-.28.125-1.016.25-2.079.328-3.126.016-.219.032-.453.047-.687 0-.079-.015-.22.031-.282.047-.046.157-.078.235-.109a2.712 2.712 0 0 1 1.89.11zm-2.968.625c-.047.985-.297 1.97-.297 2.954H2.78A2.57 2.57 0 0 1 2.656 4.5c.11-.219.25-.484.438-.64zm4.094.422c.093.188.187.39.25.61.218.828-.079 1.906-.563 2.328l.219-2.032.093-.906zm0 0"/></svg></svg>