<svg xmlns="http://www.w3.org/2000/svg" xmlns:xlink="http://www.w3.org/1999/xlink" width="64" height="64" viewBox="0 0 4.828 4.422"><svg overflow="visible" x="-.266" y="4.297"><path style="stroke:none" d="M2.938-3.719h1.671c.125 0 .485 0 .485-.344 0-.234-.203-.234-.407-.234h-2.78c-.204 0-.595 0-1.032.469-.328.36-.61.844-.61.89 0 .016 0 .11.126.11.078 0 .093-.047.156-.125.484-.766 1.062-.766 1.265-.766h.829L1.67-.516c-.046.11-.109.329-.109.36 0 .11.079.281.297.281.329 0 .375-.281.407-.438zm0 0"/></svg></svg>