<svg xmlns="http://www.w3.org/2000/svg" xmlns:xlink="http://www.w3.org/1999/xlink" width="64" height="64" viewBox="0 0 6.828 7.359"><svg overflow="visible" x="-.422" y="7.141"><path style="stroke:none" d="M6.938-1.203a1.123 1.123 0 0 1-1.11 1.11c-.547 0-1.062-.5-1.375-.891.453-.516.844-1.204 1.313-1.985.39-.656.593-1.015 1.484-1.015v-.313a53.2 53.2 0 0 1-.969.031c-.11 0-.953-.015-1.218-.03v.312c.453 0 .703.187.703.437 0 .094-.047.172-.047.203-.563.969-1 1.64-1.438 2.172-.125-.156-1.203-1.516-1.656-2.672.547-.594 1.219-1.344 1.219-2.015 0-.454-.156-1.282-.86-1.282-.625 0-1.359.547-1.359 1.61 0 .422.063 1.14.406 2.015l-.906.97c-.453.468-.703.733-.703 1.265 0 .875.812 1.5 1.797 1.5.86 0 1.437-.422 1.812-.75.688.594 1.266.75 1.75.75.766 0 1.39-.563 1.407-1.422zM2.546-4.078c-.266-.797-.297-1.375-.297-1.688 0-.828.406-1.156.75-1.156.594 0 .594 1.047.594 1.063 0 .656-.797 1.515-1.047 1.78zm-.422.797c.219.469.375.765.797 1.39.187.282.547.797.922 1.157-.64.578-1.266.64-1.547.64-.828 0-1.047-.969-1.047-1.5 0-.812.328-1.172.875-1.687zm0 0"/></svg></svg>