<svg xmlns="http://www.w3.org/2000/svg" xmlns:xlink="http://www.w3.org/1999/xlink" width="64" height="64" viewBox="0 0 6.094 5.781"><svg overflow="visible" x="-.828" y="5.375"><path style="stroke:none" d="M4.031-2.484c-.797.156-1.593.39-2.25.906C.891-.875.828.125.828.172c0 .172.11.234.203.234.14 0 .188-.11.188-.203.093-.5.25-1.531 2.078-2.094 1.015-.328 2.281-.375 3.328-.39.11 0 .297 0 .297-.203 0-.204-.14-.204-.5-.204-1.39 0-3.578-.187-4.563-1.156-.5-.515-.578-.984-.625-1.297-.015-.046-.03-.234-.203-.234a.21.21 0 0 0-.203.219c0 .14.094.625.297.984.39.688 1.125 1.344 2.906 1.688zm0 0"/></svg></svg>