<svg xmlns="http://www.w3.org/2000/svg" xmlns:xlink="http://www.w3.org/1999/xlink" width="64" height="64" viewBox="0 0 2.188 4.812"><svg overflow="visible" x="-1.109" y="4.828"><path style="stroke:none" d="M1.844-2.406a6.298 6.298 0 0 0 1.422-2.188c.015-.047.03-.093.03-.125 0-.062-.015-.093-.093-.11-.125 0-.265.407-.39.595a6.125 6.125 0 0 1-1.532 1.64c-.062.047-.172.094-.172.172v.016c0 .078.22.187.313.265A5.89 5.89 0 0 1 2.953-.328c.031.031.125.312.25.312h.031c.063-.015.063-.046.063-.093 0-.172-.14-.407-.219-.563a5.676 5.676 0 0 0-.781-1.234c-.14-.172-.266-.36-.453-.5zm0 0"/></svg></svg>