<svg xmlns="http://www.w3.org/2000/svg" xmlns:xlink="http://www.w3.org/1999/xlink" width="64" height="64" viewBox="0 0 7.771 5.078"><svg overflow="visible" x="-.266" y="5.031"><path style="stroke:none" d="M4.547-2.266c.156-.093.172-.171.172-.234 0-.047-.016-.125-.172-.219L.657-4.953C.53-5.031.483-5.031.452-5.031c-.187 0-.187.203-.187.36v4.359c0 .156 0 .359.187.359.031 0 .063 0 .188-.063zM4.109-2.5.656-.5v-3.984zm0 0"/></svg><svg overflow="visible" x="3.052" y="5.031"><path style="stroke:none" d="M.469-2.719c-.14.078-.203.11-.203.219 0 .078.03.156.187.234L4.328-.03c.094.047.14.078.188.078.203 0 .203-.172.203-.36v-4.359c0-.187 0-.36-.203-.36-.047 0-.094.032-.172.063zm.39.219 3.454-1.984V-.5zm0 0"/></svg></svg>