<svg xmlns="http://www.w3.org/2000/svg" xmlns:xlink="http://www.w3.org/1999/xlink" width="64" height="64" viewBox="0 0 6.656 6.641"><svg overflow="visible" x="-.547" y="4.985"><path style="stroke:none" d="M4.078-1.469h2.766c.172 0 .36 0 .36-.203 0-.187-.188-.187-.36-.187H4.078v-2.72h2.766c.172 0 .36 0 .36-.202 0-.203-.188-.203-.36-.203H.89c-.157 0-.344 0-.344.203s.187.203.344.203h2.78v2.719H.892c-.157 0-.344 0-.344.187 0 .203.187.203.344.203h2.78v2.782c0 .156 0 .343.204.343.203 0 .203-.218.203-.375zm0 0"/></svg></svg>