<svg xmlns="http://www.w3.org/2000/svg" xmlns:xlink="http://www.w3.org/1999/xlink" width="64" height="64" viewBox="0 0 9.966 5.203"><svg overflow="visible" x="-.547" y="5.094"><path style="stroke:none" d="M2.219-2.5a.193.193 0 0 0-.203-.188C1.172-2.733.953-3.155.953-3.453c0-.375.313-.75 1.047-.781.219 0 .219-.188.219-.188 0-.203-.203-.203-.25-.203-.61 0-1.422.375-1.422 1.172 0 .781.812 1.156 1.422 1.156.047 0 .25 0 .25-.203zm0 0"/></svg><svg overflow="visible" x=".56" y="5.094"><path style="stroke:none" d="M8.313-2.297c-.547.422-.813.828-.891.969-.453.687-.531 1.312-.531 1.312 0 .125.125.125.203.125.156 0 .172-.015.218-.203.22-.969.813-1.812 1.938-2.265.125-.047.156-.063.156-.141 0-.063-.062-.094-.078-.11-.453-.156-1.656-.656-2.031-2.328-.031-.125-.047-.156-.203-.156-.078 0-.203 0-.203.125 0 .016.093.64.5 1.313.203.297.5.64.921.969H.907c-.172 0-.36 0-.36.187 0 .203.188.203.36.203zm0 0"/></svg></svg>