<svg xmlns="http://www.w3.org/2000/svg" xmlns:xlink="http://www.w3.org/1999/xlink" width="64" height="64" viewBox="0 0 4.891 4.516"><svg overflow="visible" x="-.547" y="4.406"><path style="stroke:none" d="M.594-.39c-.047.14-.047.156-.047.234 0 .172.14.265.297.265.297 0 .36-.234.437-.562.094-.36.032-.172.469-1.844.828.031 1.703.203 1.703.844 0 .078 0 .125-.031.234a1.909 1.909 0 0 0-.047.344c0 .578.406.984.922.984.312 0 .578-.171.781-.515.25-.422.36-1 .36-1.016 0-.11-.079-.11-.11-.11-.11 0-.11.048-.14.188C5-.656 4.766-.109 4.313-.109 4.109-.11 4-.234 4-.594c0-.14.031-.39.078-.547.016-.093.047-.218.047-.328 0-.937-1.375-1.015-1.938-1.031.329-.188.657-.453.922-.688.454-.374.75-.624 1.141-.796-.016.062-.047.171-.047.218 0 .125.078.36.375.36.328 0 .547-.297.547-.547 0-.078-.047-.344-.406-.344-.61 0-1.188.5-1.625.875-.688.578-.922.719-1.281.844.03-.11.156-.61.203-.781.062-.266.171-.735.171-.782 0-.171-.109-.265-.28-.265-.032 0-.313 0-.407.36zm0 0"/></svg></svg>