<svg xmlns="http://www.w3.org/2000/svg" xmlns:xlink="http://www.w3.org/1999/xlink" width="64" height="64" viewBox="0 0 3.047 9.078"><svg overflow="visible" x="-.688" y="7.031"><path style="stroke:none" d="M2.61-.953a1.557 1.557 0 0 0 1.124-1.469c0-1-1.078-1.469-1.484-1.656-.688-.297-1-.875-1-1.438 0-.546.281-1.296.969-1.296.25 0 .828.109 1.062.671a.326.326 0 0 0-.36.329c0 .187.126.328.329.328.156 0 .344-.094.344-.36 0-.61-.61-1.187-1.375-1.187A1.53 1.53 0 0 0 .688-5.516c0 .625.421 1.11 1.125 1.485A1.538 1.538 0 0 0 .688-2.563c0 1 1.062 1.47 1.484 1.657.687.297.984.875.984 1.437 0 .547-.281 1.297-.969 1.297-.234 0-.812-.11-1.046-.672A.325.325 0 0 0 1.5.828.32.32 0 0 0 1.172.5C1 .5.828.594.828.86c0 .609.594 1.187 1.375 1.187A1.54 1.54 0 0 0 3.734.53c0-.625-.421-1.11-1.125-1.484zm-.344-.172c-.141 0-1.016-.453-1.016-1.438 0-.75.453-1.296.906-1.296.14 0 1 .453 1 1.437 0 .75-.437 1.297-.89 1.297zm0 0"/></svg></svg>