<svg xmlns="http://www.w3.org/2000/svg" xmlns:xlink="http://www.w3.org/1999/xlink" width="64" height="64" viewBox="0 0 5.547 6.187"><svg overflow="visible" x="-.547" y="5.969"><path style="stroke:none" d="M3.516-2.844h1.421c.141 0 .36 0 .36-.203 0-.187-.219-.187-.36-.187H3.516v-1.438c0-.156 0-.344-.204-.344-.187 0-.187.188-.187.344v1.438H1.703c-.14 0-.36 0-.36.187 0 .203.22.203.36.203h1.422v1.422c0 .156 0 .344.188.344.203 0 .203-.203.203-.344zm2.578-2.765c0-.172 0-.36-.203-.36-.204 0-.204.188-.204.36V-2c0 1.5-1.625 1.828-2.375 1.828-.437 0-1.062-.094-1.593-.437C.953-1.094.953-1.734.953-2v-3.61c0-.171 0-.359-.203-.359s-.203.188-.203.36v3.656C.547-.437 2.078.219 3.312.219c1.297 0 2.782-.703 2.782-2.156zm0 0"/></svg></svg>