<svg xmlns="http://www.w3.org/2000/svg" xmlns:xlink="http://www.w3.org/1999/xlink" width="64" height="64" viewBox="0 0 6.625 7.922"><svg overflow="visible" x="-.563" y="7.359"><path style="stroke:none" d="m6.625-7.234-.203-.125-.594.859c-.016.047-.062.094-.094.094 0 0-.015 0-.062-.047-.234-.14-.86-.578-1.797-.578-1.797 0-3.313 1.593-3.313 3.656 0 1.484.797 2.438 1.235 2.797l-.594.89-.094.11.204.14.593-.875c.016-.015.063-.093.094-.093 0 0 .016 0 .078.047.719.5 1.375.578 1.797.578 1.813 0 3.313-1.578 3.313-3.594 0-1.234-.5-2.14-1.25-2.844zM2.047-.97c-.344-.484-.594-1.14-.594-2.406 0-.563.016-1.547.516-2.328.468-.75 1.203-1.11 1.906-1.11.906 0 1.453.563 1.64.766zm3.64-4.875c.563.766.61 1.828.61 2.469 0 .5-.016 1.578-.578 2.375-.438.625-1.125 1-1.844 1-.61 0-1.219-.266-1.656-.75zm0 0"/></svg></svg>