<svg xmlns="http://www.w3.org/2000/svg" xmlns:xlink="http://www.w3.org/1999/xlink" width="64" height="64" viewBox="0 0 4.641 10.391"><svg overflow="visible" x="-.172" y="7.687"><path style="stroke:none" d="M2.688-6.313c.25.375.515.657.765.844.61.469 1.235.563 1.235.563.125 0 .125-.11.125-.188 0-.156 0-.172-.235-.234-.5-.14-.937-.422-1.297-.797a2.66 2.66 0 0 1-.672-1.469c-.015-.047-.062-.093-.109-.093-.094 0-.11.062-.125.187-.188.86-.61 1.297-.703 1.406-.563.563-1.031.703-1.406.797-.094.031-.094.11-.094.203 0 .078 0 .188.125.188a3.1 3.1 0 0 0 1.172-.516c.328-.25.61-.547.828-.89v7.64A3.43 3.43 0 0 0 1.53.484C.921.016.297-.078.297-.078c-.125 0-.125.11-.125.187 0 .157 0 .172.234.235.5.14.922.406 1.281.797a2.66 2.66 0 0 1 .688 1.468c.016.047.047.094.125.094s.094-.078.11-.156C2.827 1.422 3.562.64 4.64.328c.157-.047.173-.047.173-.219 0-.078 0-.187-.125-.187-.016 0-.61.11-1.172.515-.329.25-.61.547-.829.891zm0 0"/></svg></svg>