<svg xmlns="http://www.w3.org/2000/svg" xmlns:xlink="http://www.w3.org/1999/xlink" width="64" height="64" viewBox="0 0 8.859 2.5"><svg overflow="visible" x="-.547" y="3.797"><path style="stroke:none" d="M9.406-1.422c0-.11-1.453-2.375-4.422-2.375C2-3.797.547-1.53.547-1.422c0 .063.062.125.125.125.031 0 .047-.016.062-.031.016 0 .016-.016.141-.172.922-1.266 2.531-1.844 4.094-1.844.734 0 1.64.11 2.531.547a3.921 3.921 0 0 1 1.656 1.422c.031.031.063.078.125.078a.134.134 0 0 0 .125-.125zm0 0"/></svg></svg>