<svg xmlns="http://www.w3.org/2000/svg" xmlns:xlink="http://www.w3.org/1999/xlink" width="64" height="64" viewBox="0 0 5.234 8.969"><svg overflow="visible" x="-.484" y="6.922"><path style="stroke:none" d="M4.36-6.672c0-.031.03-.14.03-.14 0-.016 0-.11-.124-.11-.094 0-.11.031-.157.203l-.578 2.297C1.953-4.359.484-3.047.484-1.688c0 .954.704 1.735 1.922 1.813-.078.297-.156.625-.234.938-.125.468-.219.843-.219.875 0 .093.078.109.125.109s.063-.016.094-.047a3 3 0 0 0 .11-.39L2.655.124C4.266.062 5.72-1.281 5.72-2.609c0-.797-.532-1.704-1.922-1.813zM2.452-.094C1.858-.125 1.14-.484 1.14-1.469c0-1.203.859-2.593 2.343-2.734zm1.281-4.11c.766.048 1.329.5 1.329 1.376 0 1.187-.86 2.61-2.344 2.734zm0 0"/></svg></svg>