<svg xmlns="http://www.w3.org/2000/svg" xmlns:xlink="http://www.w3.org/1999/xlink" width="64" height="64" viewBox="0 0 9.109 9.109"><svg overflow="visible" x="-.547" y="6.922"><path style="stroke:none" d="M8.469 1.281a3.634 3.634 0 0 0-.578-.062c-.204 0-.688.031-1.266.234-.078.031-.813.344-.813.5 0 .078.157.234.235.234.031 0 .062-.015.125-.046.781-.532 1.469-.532 1.719-.532.609 0 1.062.172 1.296.282.047.015.079.03.11.03.047 0 .11-.015.11-.093 0-.031 0-.047-.032-.125-.14-.266-.281-.703-.281-1.281 0-.422.062-1.016.515-1.734.047-.063.047-.079.047-.125 0-.063-.156-.235-.219-.235-.14 0-.421.625-.5.813A3.428 3.428 0 0 0 8.704.406c0 .328 0 .328.047.578L.969-6.78c-.125-.125-.14-.14-.219-.14-.125 0-.203.093-.203.187 0 .078.015.109.156.234zm0 0"/></svg></svg>