<svg xmlns="http://www.w3.org/2000/svg" xmlns:xlink="http://www.w3.org/1999/xlink" width="64" height="64" viewBox="0 0 3.578 7.031"><svg overflow="visible" x="-.563" y="4.985"><path style="stroke:none" d="M2.344-3c-.016-.125-.094-.125-.125-.125-.125 0-.125.063-.125.25v.156c0 .406 0 1.485-1.031 2.36-.172.156-.5.437-.5 1.062 0 .563.312 1.344 1.656 1.344 1.047 0 1.922-.531 1.922-1.328 0-.344-.235-.485-.47-.485-.265 0-.452.203-.452.47 0 .234.187.484.547.437-.297.515-1.032.687-1.516.687-.86 0-.86-.578-.86-1.062 0-.61.11-.75.25-.97.626-.89.704-1.796.704-2.562zm.39-1.453a.524.524 0 1 0-1.046 0c0 .281.234.531.53.531.282 0 .516-.25.516-.531zm0 0"/></svg></svg>