<svg xmlns="http://www.w3.org/2000/svg" xmlns:xlink="http://www.w3.org/1999/xlink" width="64" height="64" viewBox="0 0 17.143 5.484"><svg overflow="visible" x="-.563" y="5.235"><path style="stroke:none" d="M9.063-1.328c.171 0 .343 0 .343-.203 0-.188-.172-.188-.36-.188H2.72c-.422-.36-.922-.625-1.25-.781.36-.156.843-.406 1.25-.766h6.328c.187 0 .36 0 .36-.187 0-.203-.173-.203-.345-.203h-5.89c.484-.453 1-1.344 1-1.469 0-.11-.14-.11-.188-.11-.093 0-.156 0-.203.079-.203.375-.484.906-1.125 1.484-.687.61-1.36.875-1.875 1.031-.172.063-.187.063-.203.094-.015 0-.015.031-.015.047v.063l.03.03c.032 0 .032.016.22.079A4.761 4.761 0 0 1 3.719.047c.11.187.125.203.265.203.047 0 .188 0 .188-.11 0-.124-.516-1-1-1.468zm0 0"/></svg><svg overflow="visible" x="7.736" y="5.235"><path style="stroke:none" d="M7.234-3.266c.422.36.938.625 1.266.766-.36.172-.86.422-1.266.781H.906c-.172 0-.36 0-.36.188 0 .203.188.203.345.203h5.89C6.313-.875 5.797.016 5.797.14c0 .109.125.109.187.109.079 0 .141 0 .188-.078.203-.375.484-.906 1.14-1.484a4.733 4.733 0 0 1 1.875-1.032c.157-.062.172-.062.188-.094.031 0 .031-.03.031-.062 0-.016 0-.031-.015-.047l-.032-.031c-.015 0-.03-.016-.218-.078a4.761 4.761 0 0 1-2.907-2.375c-.109-.188-.109-.203-.25-.203-.062 0-.187 0-.187.109 0 .125.5 1 .984 1.469H.891c-.157 0-.344 0-.344.203 0 .187.187.187.36.187zm0 0"/></svg></svg>