<svg xmlns="http://www.w3.org/2000/svg" xmlns:xlink="http://www.w3.org/1999/xlink" width="64" height="64" viewBox="0 0 7.172 8.859"><svg overflow="visible" x="-.563" y="6.922"><path style="stroke:none" d="M5.172-1.328h2.234c.14 0 .328 0 .328-.203 0-.188-.187-.188-.343-.188H5.297l.39-1.547h1.704c.156 0 .343 0 .343-.187 0-.203-.187-.203-.328-.203H5.813l.78-2.89c0-.016.032-.126.032-.173 0-.11-.078-.203-.188-.203-.171 0-.203.14-.234.25l-.797 3.016H3.531l.781-2.89c0-.016.032-.126.032-.173a.207.207 0 0 0-.203-.203c-.157 0-.188.14-.22.25l-.796 3.016H.891c-.141 0-.329 0-.329.203 0 .187.188.187.329.187H3l-.39 1.547H.89c-.14 0-.328 0-.328.188 0 .203.188.203.329.203h1.593l-.78 2.89a.482.482 0 0 0-.032.172c0 .11.078.204.187.204.172 0 .188-.141.22-.25l.812-3.016h1.875l-.782 2.89c0 .016-.03.125-.03.172 0 .11.077.204.187.204.171 0 .203-.141.218-.25zm-2.156-.39.39-1.548h1.875l-.39 1.547zm0 0"/></svg></svg>