<svg xmlns="http://www.w3.org/2000/svg" xmlns:xlink="http://www.w3.org/1999/xlink" width="64" height="64" viewBox="0 0 6.031 8.969"><svg overflow="visible" x="-.297" y="6.922"><path style="stroke:none" d="M4.813-6.656c0-.047.015-.11.015-.157 0-.093-.062-.109-.11-.109-.109 0-.109.031-.155.203L2.905-.125C2.155-.219 1.78-.594 1.78-1.25c0-.203 0-.453.532-1.844.046-.125.109-.297.109-.5 0-.437-.313-.812-.813-.812-.953 0-1.312 1.453-1.312 1.531 0 .11.094.11.11.11.109 0 .109-.032.156-.188.28-.938.671-1.235 1.015-1.235.078 0 .25 0 .25.313 0 .266-.11.516-.234.86-.485 1.265-.485 1.515-.485 1.687 0 .953.782 1.36 1.735 1.422-.078.36-.078.375-.219.906-.016.11-.219.906-.219.938 0 .015 0 .109.11.109.03 0 .078 0 .093-.047.032-.016.094-.266.125-.406L3.11.109c.375 0 1.25 0 2.188-1.062a3.86 3.86 0 0 0 .719-1.203c.093-.25.312-1.11.312-1.547 0-.563-.266-.703-.437-.703-.25 0-.5.265-.5.484 0 .125.062.188.156.266.11.11.36.36.36.844 0 .64-.516 1.453-.876 1.812-.875.89-1.515.89-1.875.89zm0 0"/></svg></svg>