<svg xmlns="http://www.w3.org/2000/svg" xmlns:xlink="http://www.w3.org/1999/xlink" width="64" height="64" viewBox="0 0 6.781 6.812"><svg overflow="visible" x="-.344" y="6.812"><path style="stroke:none" d="M6.094-6.031c0-.407 0-.469.765-.469.188 0 .266 0 .266-.156 0-.157-.11-.157-.172-.157-.281 0-1 .032-1.281.032h-.64c-.204 0-.423-.032-.641-.032-.063 0-.157 0-.157.157 0 .156.047.156.297.156.719 0 .719.063.719.469v5.718H2.219V-6.03c0-.407 0-.469.765-.469.188 0 .25 0 .25-.156 0-.157-.093-.157-.156-.157-.281 0-1 .032-1.281.032h-.64c-.204 0-.423-.032-.641-.032-.063 0-.172 0-.172.157 0 .156.062.156.312.156.719 0 .719.063.719.469v5.25c0 .406 0 .469-.766.469-.187 0-.265 0-.265.156S.422 0 .625 0h6.219c.203 0 .281 0 .281-.156 0-.157-.063-.157-.313-.157-.718 0-.718-.062-.718-.468zm0 0"/></svg></svg>