<svg xmlns="http://www.w3.org/2000/svg" xmlns:xlink="http://www.w3.org/1999/xlink" width="64" height="64" viewBox="0 0 6.094 7.703"><svg overflow="visible" x="-.828" y="6.344"><path style="stroke:none" d="M3.703-3.453c1.656-.313 2.5-.922 2.953-1.735.188-.375.266-.843.266-.937a.21.21 0 0 0-.203-.219c-.172 0-.203.157-.219.297-.297 1.797-2.297 2.375-5.39 2.39-.094 0-.282 0-.282.204 0 .203.125.203.5.203 1.031.016 2.078.078 3.063.375 1.89.547 2.062 1.64 2.125 2.094.015.11.078.219.203.219.093 0 .203-.063.203-.22 0-.062-.063-1.062-.969-1.765-.625-.5-1.375-.734-2.25-.906zM1.172.969c-.172 0-.344 0-.344.203 0 .187.172.187.344.187h5.39c.172 0 .36 0 .36-.187 0-.203-.188-.203-.36-.203zm0 0"/></svg></svg>