<svg xmlns="http://www.w3.org/2000/svg" xmlns:xlink="http://www.w3.org/1999/xlink" width="64" height="64" viewBox="0 0 1.672 6.641"><svg overflow="visible" x="-.547" y="5.813"><path style="stroke:none" d="M2.203.688c0-.094-.156-.125-.203-.141C1.812.53 1.562.516 1.312.062c-.202-.42-.202-.89-.202-.952 0-.562.235-1.015.5-1.5.344-.625.61-1.093.61-1.703 0-.875-.453-1.718-1.36-1.718-.265 0-.296.109-.296.14 0 .094.171.125.265.14.531.032.828.798.828 1.438 0 .563-.234 1.016-.515 1.5C.812-1.969.547-1.5.547-.89c0 .829.422 1.72 1.36 1.72.218 0 .296-.079.296-.141zm0 0"/></svg></svg>