<svg xmlns="http://www.w3.org/2000/svg" xmlns:xlink="http://www.w3.org/1999/xlink" width="64" height="64" viewBox="0 0 6.828 8.903"><svg overflow="visible" x="-.313" y="7.141"><path style="stroke:none" d="M4.688-6.266c0-.468-.407-.875-.954-.875-.562 0-.953.438-.953.875 0 .5.438.875.953.875.547 0 .954-.406.954-.875zm-.954.657c-.421 0-.703-.188-.703-.657 0-.453.266-.656.703-.656.422 0 .704.188.704.656 0 .454-.266.657-.704.657zm0 0"/></svg><svg overflow="visible" x="-.313" y="8.903"><path style="stroke:none" d="M3.969-6.938c-.047-.125-.078-.203-.235-.203-.156 0-.187.063-.234.204L1.437-.984C1.25-.47.86-.313.313-.313V0c.235-.016.672-.031 1.016-.031.313 0 .828.015 1.156.031v-.313c-.5 0-.75-.25-.75-.5 0-.03.016-.14.016-.156l.469-1.297h2.453l.53 1.516a.58.58 0 0 1 .031.14c0 .297-.562.297-.828.297V0c.36-.031 1.063-.031 1.438-.031.422 0 .89.015 1.297.031v-.313h-.172c-.594 0-.735-.062-.844-.39zm-.531 1.11 1.124 3.25H2.329zm0 0"/></svg></svg>