<svg xmlns="http://www.w3.org/2000/svg" xmlns:xlink="http://www.w3.org/1999/xlink" width="64" height="64" viewBox="0 0 2.594 3.625"><svg overflow="visible" x="-1.188" y="7.094"><path style="stroke:none" d="M1.531-3.469h.219c.11-.61.156-1.25.219-1.875.062-.422.14-.89.14-1.312 0-.25-.218-.438-.468-.438-.313 0-.454.219-.454.469 0 .172.032.36.063.547.094.875.219 1.734.281 2.61zm1.688 0h.219c.078-.984.25-1.969.328-2.969.015-.062.015-.125.015-.187 0-.25-.14-.469-.453-.469-.25 0-.469.188-.469.438 0 .156.032.312.047.453.078.672.14 1.344.235 2.031.015.234.046.469.078.703zm0 0"/></svg></svg>