<svg xmlns="http://www.w3.org/2000/svg" xmlns:xlink="http://www.w3.org/1999/xlink" width="64" height="64" viewBox="0 0 4.641 8.844"><svg overflow="visible" x="-.172" y="6.922"><path style="stroke:none" d="M2.688-6.563c0-.171 0-.359-.188-.359-.203 0-.203.188-.203.36V.546a3.43 3.43 0 0 0-.766-.844A3.137 3.137 0 0 0 .297-.859c-.125 0-.125.109-.125.187 0 .156 0 .172.234.25a2.574 2.574 0 0 1 1.281.797c.516.547.641 1.14.688 1.453.016.047.047.094.125.094s.094-.063.11-.156C2.827.64 3.546-.141 4.64-.454c.157-.046.173-.046.173-.218 0-.078 0-.187-.125-.187-.016 0-.61.109-1.172.515-.329.25-.61.547-.829.89zm0 0"/></svg></svg>