<svg xmlns="http://www.w3.org/2000/svg" xmlns:xlink="http://www.w3.org/1999/xlink" width="64" height="64" viewBox="0 0 4.703 6.562"><svg overflow="visible" x="-.297" y="4.406"><path style="stroke:none" d="M.328 1.719c-.031.125-.031.14-.031.172 0 .14.11.265.281.265.203 0 .328-.187.344-.219.062-.078.375-1.421.64-2.5.204.407.516.672.985.672C3.719.11 5-1.297 5-2.78c0-1.063-.656-1.625-1.375-1.625-.969 0-2.016 1-2.313 2.218zM2.547-.11c-.703 0-.86-.797-.86-.891 0-.031.047-.234.079-.36.28-1.124.375-1.484.593-1.874.438-.735.938-.954 1.235-.954.375 0 .687.297.687.985 0 .547-.281 1.656-.547 2.14-.328.641-.812.954-1.187.954zm0 0"/></svg></svg>