<svg xmlns="http://www.w3.org/2000/svg" xmlns:xlink="http://www.w3.org/1999/xlink" width="64" height="64" viewBox="0 0 4.406 7.141"><svg overflow="visible" x="-.281" y="7.031"><path style="stroke:none" d="M3.094-4.172c.89-.25 1.328-.86 1.328-1.437 0-.75-.719-1.422-1.703-1.422-.781 0-1.656.484-1.656 1.484v1.25H.28v.313h.781V-.75c0 .438-.109.438-.78.438V0c.187-.016.843-.031.968-.031.11 0 .281 0 .469.031v-5.563c0-1.14.797-1.25 1-1.25.406 0 .953.313.953 1.188 0 .64-.36 1.25-1.235 1.328-.093.016-.171.016-.171.11 0 .015 0 .093.093.109 1.188.094 1.594 1.312 1.594 2.36 0 1.28-.656 1.609-1.031 1.609a.736.736 0 0 1-.5-.188.36.36 0 0 0 .297-.36.345.345 0 0 0-.36-.359A.357.357 0 0 0 2-.64c0 .391.375.75.953.75.86 0 1.735-.734 1.735-1.843 0-.72-.313-1.922-1.594-2.438zm0 0"/></svg></svg>