<svg xmlns="http://www.w3.org/2000/svg" xmlns:xlink="http://www.w3.org/1999/xlink" width="64" height="64" viewBox="0 0 3.859 7.156"><svg overflow="visible" x="-.109" y="7.031"><path style="stroke:none" d="M.156-.984C.141-.954.11-.922.11-.891c0 .047.063.141.125.141.047 0 .078-.031.36-.313.078-.078.281-.265.36-.343.093.781.374 1.531 1.109 1.531.406 0 .75-.234.953-.39.14-.094.609-.485.609-.579 0-.031-.031-.125-.11-.125-.03 0-.046.016-.14.094-.64.625-1 .781-1.297.781-.437 0-.61-.531-.61-1.297 0-.062.032-.515.063-.578.016-.031.016-.047.219-.25.797-.797 2.219-2.484 2.219-4.031 0-.172 0-.781-.594-.781-.828 0-1.563 1.64-1.656 1.875C1.234-4.063.922-2.906.922-1.72zm1.422-1.391c.016-.125.453-2.328 1.016-3.5.265-.531.484-.938.797-.938.343 0 .343.36.343.516 0 1.672-1.687 3.422-2.156 3.922zm0 0"/></svg></svg>