<svg xmlns="http://www.w3.org/2000/svg" xmlns:xlink="http://www.w3.org/1999/xlink" width="64" height="64" viewBox="0 0 5.297 7.141"><svg overflow="visible" x="-.297" y="7.031"><path style="stroke:none" d="M5.094-3.547c.203-.844.203-1.375.203-1.5 0-.36-.063-1.984-1.11-1.984-.828 0-1.468 1.047-1.468 1.828 0 .969.937 1.437 1.625 1.672-.219.906-.375 1.484-.703 2.156-.125.281-.61 1.266-1.204 1.266-.671 0-.734-.516-.734-.797 0-.266.078-.578.125-.813.063-.25.125-.468.203-.765l.11-.47c.046-.171.109-.39.109-.53 0-.61-.453-.922-.922-.922-.453 0-.64.39-.734.562-.172.344-.297.938-.297.969 0 .11.094.11.11.11.109 0 .109-.016.171-.235.172-.703.375-1.188.735-1.188.156 0 .296.079.296.454 0 .218-.14.765-.218 1.125-.047.171-.141.515-.188.734-.078.297-.14.547-.14.844 0 .937.703 1.14 1.343 1.14 1.063 0 2.125-1.578 2.64-3.453.095.031.391.094.454.094.031 0 .094-.031.094-.125 0-.078-.078-.078-.203-.11zm-.688-.203c-.484-.172-1.453-.563-1.453-1.469 0-.61.531-1.593 1.219-1.593.25 0 .516.156.516 1.187 0 .625-.157 1.313-.282 1.875zm0 0"/></svg></svg>