<svg xmlns="http://www.w3.org/2000/svg" xmlns:xlink="http://www.w3.org/1999/xlink" width="64" height="64" viewBox="0 0 3.844 4.812"><svg overflow="visible" x="-.563" y="4.828"><path style="stroke:none" d="M2.031-2.422A5.993 5.993 0 0 0 .594-.234c-.031.03-.031.078-.031.109v.031c0 .047.062.078.109.078.078 0 .125-.109.156-.187C1.25-.984 1.844-1.75 2.594-2.25c.062-.031.156-.094.156-.156v-.016c0-.094-.203-.203-.297-.265-.656-.5-1.156-1.11-1.562-1.813-.047-.11-.141-.328-.22-.328-.077 0-.109.047-.109.11 0 .14.141.39.22.562.312.625.718 1.312 1.25 1.734zm1.64 0A6.158 6.158 0 0 0 2.25-.234c-.031.03-.031.078-.031.109v.031c0 .047.047.078.11.078.077 0 .124-.109.155-.187C2.906-.984 3.5-1.75 4.25-2.25c.063-.031.156-.094.156-.156v-.016c0-.094-.203-.203-.297-.265-.656-.5-1.156-1.11-1.562-1.813-.047-.11-.14-.328-.219-.328-.078 0-.11.047-.11.11 0 .14.141.39.22.562.296.625.718 1.312 1.234 1.734zm0 0"/></svg></svg>