<svg xmlns="http://www.w3.org/2000/svg" xmlns:xlink="http://www.w3.org/1999/xlink" width="64" height="64" viewBox="0 0 8.859 7.196"><svg overflow="visible" x="-.547" y="5.094"><path style="stroke:none" d="M9.125-2.297c.219 0 .281 0 .281-.156 0-.094 0-.094-.187-.219a4.503 4.503 0 0 1-1.906-2.281c-.063-.125-.063-.14-.22-.14-.077 0-.202 0-.202.109 0 .062.234.718.703 1.343.218.313.437.563.89.954H.906c-.172 0-.36 0-.36.187 0 .203.188.203.36.203zm0 0"/></svg><svg overflow="visible" x="-.547" y="7.087"><path style="stroke:none" d="M9.047-2.297c.187 0 .36 0 .36-.203 0-.188-.173-.188-.36-.188H.828c-.219 0-.281 0-.281.141 0 .11.015.125.094.172 1.328.797 1.765 1.766 2.015 2.36.047.109.063.124.219.124.063 0 .188 0 .188-.109 0-.063-.22-.719-.688-1.344-.219-.312-.453-.562-.906-.953zm0 0"/></svg></svg>