<svg xmlns="http://www.w3.org/2000/svg" xmlns:xlink="http://www.w3.org/1999/xlink" width="64" height="64" viewBox="0 0 2.672 4.516"><svg overflow="visible" x="-.563" y="4.406"><path style="stroke:none" d="M3.234-1.422c0-.11-.093-.11-.125-.11-.093 0-.109.048-.125.11-.312.984-1.14 1.313-1.562 1.313-.14 0-.266-.032-.266-.329 0-.234.078-.468.172-.734.453-1.203.86-2.89.86-2.969 0-.171-.11-.265-.282-.265a.41.41 0 0 0-.375.265c-.062.188-.156.672-.218.86-.016.047-.266.922-.297 1.062-.032.094-.125.344-.141.438-.078.281-.313.75-.313 1.078 0 .406.282.812.829.812 1.14 0 1.843-1.203 1.843-1.53zm0 0"/></svg></svg>