<svg xmlns="http://www.w3.org/2000/svg" xmlns:xlink="http://www.w3.org/1999/xlink" width="64" height="64" viewBox="0 0 6.656 5.578"><svg overflow="visible" x="-.547" y="5.281"><path style="stroke:none" d="M4.516-4.64a.643.643 0 0 0-.641-.641.643.643 0 0 0-.64.64c0 .313.28.625.64.625a.64.64 0 0 0 .64-.625zm0 4.296a.64.64 0 0 0-1.282 0c0 .328.282.64.641.64.375 0 .64-.312.64-.64zM.89-2.688c-.157 0-.344 0-.344.188 0 .203.187.203.344.203h5.968c.172 0 .344 0 .344-.203 0-.188-.172-.188-.344-.188zm0 0"/></svg></svg>