<svg xmlns="http://www.w3.org/2000/svg" xmlns:xlink="http://www.w3.org/1999/xlink" width="64" height="64" viewBox="0 0 6.063 6.812"><svg overflow="visible" x="-.563" y="6.812"><path style="stroke:none" d="M3.984-1.344c1.532-.125 2.641-1.047 2.641-2.062 0-1.031-1.125-1.938-2.64-2.063v-.547c0-.343 0-.484.937-.484h.328v-.313c-.36.032-1.266.032-1.688.032-.406 0-1.328 0-1.687-.032v.313h.328c.953 0 .953.125.953.484v.547C1.625-5.312.562-4.39.562-3.406c0 1.031 1.11 1.906 2.594 2.062v.563c0 .328 0 .469-.953.469h-.328V0c.36-.031 1.281-.031 1.688-.031.406 0 1.328 0 1.687.031v-.313h-.328c-.938 0-.938-.124-.938-.468zm-.828-.234c-1.422-.188-1.594-1.203-1.594-1.828 0-.516.094-1.625 1.594-1.828zm.828-3.672c1.375.172 1.641 1.078 1.641 1.844 0 .594-.14 1.656-1.64 1.844zm0 0"/></svg></svg>