<svg xmlns="http://www.w3.org/2000/svg" xmlns:xlink="http://www.w3.org/1999/xlink" width="64" height="64" viewBox="0 0 7.188 4.578"><svg overflow="visible" x="-.281" y="4.469"><path style="stroke:none" d="M2.406-.11c-.219 0-1.36-.093-1.36-2.109 0-1.922 1.11-2.031 1.36-2.031.188 0 1.406.078 1.406 2.031 0 1.906-1.078 2.11-1.406 2.11zM4.5-2.515c.11-1.453.938-1.734 1.297-1.734.937 0 .984 1.344 1.016 1.734zm0 .22h2.719c.218 0 .25 0 .25-.22 0-1.109-.578-1.953-1.672-1.953-.625 0-1.25.344-1.656 1.016-.36-.578-.985-1.016-1.735-1.016-1.14 0-2.125.985-2.125 2.282C.281-.891 1.25.108 2.406.108c.797 0 1.422-.484 1.75-1.03A2.094 2.094 0 0 0 5.922.108C7.047.11 7.469-1 7.469-1.187c0-.094-.078-.125-.125-.125-.094 0-.11.046-.157.203-.156.5-.609.968-1.218.968-.11 0-1.469 0-1.469-2.156zm0 0"/></svg></svg>