<svg xmlns="http://www.w3.org/2000/svg" xmlns:xlink="http://www.w3.org/1999/xlink" width="64" height="64" viewBox="0 0 3.719 6.453"><svg overflow="visible" x=".125" y="4.406"><path style="stroke:none" d="M3.547-3.125c.047-.188.047-.328.047-.36 0-.578-.406-.921-.906-.921-1.032 0-1.594 1.453-1.594 1.531 0 .11.093.11.11.11.077 0 .093-.016.187-.204.328-.797.828-1.219 1.265-1.219.14 0 .313.032.313.454 0 .234-.031.343-.063.515L1.97.5c-.19.703-.58 1.328-1.158 1.328-.078 0-.28-.016-.453-.094a.567.567 0 0 0 .422-.53c0-.157-.11-.345-.375-.345a.553.553 0 0 0-.531.563c0 .484.547.625.938.625.765 0 1.593-.594 1.812-1.516zm0 0"/></svg></svg>