<svg xmlns="http://www.w3.org/2000/svg" xmlns:xlink="http://www.w3.org/1999/xlink" width="64" height="64" viewBox="0 0 5.469 6.812"><svg overflow="visible" x=".082" y="6.812"><path style="stroke:none" d="m2.61-3.625-.11-.281-2.234.812.109.297zm0 0"/></svg><svg overflow="visible" x="-.328" y="6.812"><path style="stroke:none" d="M5.797-2.578h-.25c-.11 1.015-.25 2.265-2 2.265h-.813c-.468 0-.484-.062-.484-.39v-5.313c0-.343 0-.484.938-.484h.328v-.313c-.36.032-1.266.032-1.672.032-.39 0-1.172 0-1.516-.032v.313h.234c.766 0 .797.11.797.469v5.25c0 .36-.03.469-.796.469H.328V0h5.188zm0 0"/></svg></svg>