<svg xmlns="http://www.w3.org/2000/svg" xmlns:xlink="http://www.w3.org/1999/xlink" width="64" height="64" viewBox="0 0 9.109 7.25"><svg overflow="visible" x="-.703" y="7.031"><path style="stroke:none" d="M5.547 0h3.86l.405-2.578h-.25C9.329-1.094 9.172-.313 7.47-.313H6.375c-.469 0-.5-.062-.5-.39v-2.672h1.078c1 0 1.14.297 1.14 1.156h.25v-2.64h-.25c0 .859-.14 1.171-1.14 1.171H5.875v-2.406c0-.343.031-.406.5-.406h1.11c1.421 0 1.64.594 1.812 1.938h.25l-.281-2.25h-3.72c-.171 0-.312 0-.859-.11-.421-.11-.593-.11-.703-.11-1.718 0-3.28 1.548-3.28 3.657 0 2.078 1.562 3.594 3.28 3.594.25 0 .422-.032.797-.11C5.25 0 5.391 0 5.547 0zM4.03 0C2.734 0 1.688-1.563 1.688-3.531c0-1.89 1.078-3.281 2.343-3.281.875 0 .985.484 1.047 1.046.047.438.047 1.297.047 2.36 0 1.265 0 1.86-.047 2.312C5.016-.422 4.86 0 4.031 0zm0 0"/></svg></svg>