<svg xmlns="http://www.w3.org/2000/svg" xmlns:xlink="http://www.w3.org/1999/xlink" width="64" height="64" viewBox="0 0 6.625 7.031"><svg overflow="visible" x="-.563" y="7.031"><path style="stroke:none" d="M4.313-3.5c0-.953.265-2.766 1.578-2.766.312 0 .921.157.984.766.016.094.016.172.156.172.157 0 .157-.094.157-.172 0-.594-.407-1.531-1.313-1.531-1.031 0-1.766.906-2 2.422-.078-.422-.422-2.422-2.016-2.422-.906 0-1.296.937-1.296 1.531 0 .078 0 .172.156.172.14 0 .14-.078.156-.14.078-.798.922-.798.984-.798 1.375 0 1.563 1.97 1.563 2.766v2.719c0 .328 0 .469-.938.469h-.328V0c.36-.031 1.297-.031 1.719-.031.406 0 1.36 0 1.719.031v-.313h-.328c-.954 0-.954-.124-.954-.468zm0 0"/></svg></svg>