<svg xmlns="http://www.w3.org/2000/svg" xmlns:xlink="http://www.w3.org/1999/xlink" width="64" height="64" viewBox="0 0 4.984 6.906"><svg overflow="visible" x="-.547" y="6.906"><path style="stroke:none" d="M4.688-1.11c.453.5.468.813.484 1 .016.063.062.094.11.094.046 0 .25-.109.25-.625 0-.203 0-.39-.5-1l-.579-.687.375-2.594c.031.031.313.344.344.703 0 .047.016.125.11.125.046 0 .25-.11.25-.625 0-.343-.079-.484-.532-.906-.25-.203-.703-1-.766-1.188-.03-.046-.046-.093-.109-.093-.047 0-.25.125-.25.64 0 .297.094.516.656 1.063a7.757 7.757 0 0 1-.156 1.219c-.156.89-.172.968-.203 1.343L1.39-5.797C.953-6.313.92-6.625.906-6.813c-.015-.062-.062-.093-.094-.093-.062 0-.265.125-.265.64 0 .188 0 .391.5.985l.594.687C1.109-3.78.828-3.062.828-2.406c0 .328.094.562.344 1.047.156.296.25.546.25.75 0 .109 0 .375-.703.39-.094 0-.172 0-.172.11C.547 0 .64 0 .812 0h.563c.266 0 1.016-.016 1.016-.594 0-.375-.235-.656-.454-.937-.406-.485-.437-.625-.437-.938 0-.375.047-1.187.36-1.875zm0 0"/></svg></svg>