<svg xmlns="http://www.w3.org/2000/svg" xmlns:xlink="http://www.w3.org/1999/xlink" width="64" height="64" viewBox="0 0 6.359 7.141"><svg overflow="visible" x="-.547" y="7.031"><path style="stroke:none" d="M2.86-3.344c0-.078-.063-.11-.094-.11C1.25-3.546.859-4.546.859-5.14c0-.984.907-1.671 1.813-1.671.562 0 .89.359 1.312.906.454.562.938 1.172 1.782 1.172.703 0 1.14-.313 1.14-.704 0-.125-.093-.125-.156-.125-.125 0-.14.047-.156.141-.078.469-.782.469-.797.469-.14 0-.203-.031-.36-.328-.89-1.64-2.312-1.75-2.718-1.75C1.5-7.03.547-6.187.547-5.14c0 1.235 1.234 1.907 2.14 1.907.063 0 .172 0 .172-.11zM.812-1.828c-.172 0-.266 0-.266.11 0 .03 0 .109.094.109.343.03.671.046 1.437.75C3.141.109 3.36.109 4.156.109c.516 0 .938 0 1.422-.343.36-.235.64-.641.64-1.141 0-.36-.14-.563-.5-.969-.39-.437-.421-.61-.421-.844 0-.421.11-.89.469-.89.015 0 .75 0 .828.703.015.063.031.125.156.125s.156-.047.156-.14c0-.422-.453-.907-1.156-.907-.719 0-1.297.516-1.297 1.14 0 .407.234.657.531 1 .375.407.407.579.407.782 0 .922-1.032 1.25-1.22 1.25-.062 0-.327-.078-.655-.297-.172-.14-.454-.39-.5-.422-.72-.687-1.11-.984-1.797-.984zm0 0"/></svg></svg>