<svg xmlns="http://www.w3.org/2000/svg" xmlns:xlink="http://www.w3.org/1999/xlink" width="64" height="64" viewBox="0 0 6.297 7.703"><svg overflow="visible" x="-.828" y="6.344"><path style="stroke:none" d="M6.766-5.938c.171 0 .359 0 .359-.203s-.188-.203-.36-.203H1.298c-.313 0-.36.047-.36.36v5.062c0 .328.032.36.344.36h5.485c.171 0 .359 0 .359-.204 0-.203-.203-.203-.36-.203H1.329v-4.968zm0 7.297c.171 0 .359 0 .359-.187 0-.203-.219-.203-.36-.203H1.189c-.157 0-.36 0-.36.203 0 .187.172.187.344.187zm0 0"/></svg></svg>