<svg xmlns="http://www.w3.org/2000/svg" xmlns:xlink="http://www.w3.org/1999/xlink" width="64" height="64" viewBox="0 0 5.453 8.844"><svg overflow="visible" x="-.313" y="6.906"><path style="stroke:none" d="M4.203-4.281c.39.36.531.437.688.547.328.234.718.437.765.437.11 0 .11-.11.11-.187 0-.141 0-.172-.11-.22-1.593-.827-2.203-2.062-2.515-3.124-.016-.063-.063-.078-.094-.078-.094 0-.11.062-.11.11C2.579-5.61 1.907-4.47.392-3.688c-.079.03-.079.093-.079.203 0 .078 0 .187.11.187.062 0 .453-.219.766-.422.203-.156.343-.265.687-.562v5.86c0 .171 0 .359.203.359.188 0 .188-.188.188-.36V-4.75c.39-.453.671-1 .78-1.25.11.266.376.813.767 1.25v6.328c0 .172 0 .36.187.36.203 0 .203-.188.203-.36zm0 0"/></svg></svg>