<svg xmlns="http://www.w3.org/2000/svg" xmlns:xlink="http://www.w3.org/1999/xlink" width="64" height="64" viewBox="0 0 2.766 7.703"><svg overflow="visible" x="-.547" y="7.485"><path style="stroke:none" d="M.797-7.203c0-.188 0-.281-.125-.281s-.125.093-.125.28v7.141c0 .204 0 .282.125.282.11 0 1.14-.719 1.687-1.313.547-.578.954-1.281.954-2.11 0-.733-.547-1.374-1.36-1.374-.562 0-.953.219-1.156.406zm0 3.781c0-.234 0-.437.328-.625.313-.187.734-.187.75-.187.453 0 .64.546.64 1.03 0 1.579-1.484 2.845-1.718 3.048zm0 0"/></svg></svg>