<svg xmlns="http://www.w3.org/2000/svg" xmlns:xlink="http://www.w3.org/1999/xlink" width="64" height="64" viewBox="0 0 4.641 6.562"><svg overflow="visible" x="-.297" y="4.406"><path style="stroke:none" d="M4.86-2.766c.062-.171.077-.312.077-.578 0-.64-.39-1.062-1.14-1.062-.781 0-1.297.515-1.547.875-.047-.578-.469-.875-.922-.875-.453 0-.64.39-.734.562-.172.344-.297.938-.297.969 0 .11.094.11.11.11.109 0 .109-.016.171-.235.172-.703.375-1.188.735-1.188.156 0 .296.079.296.454 0 .218-.03.328-.156.843L.875-.594c-.031.156-.094.39-.094.438 0 .172.14.265.297.265a.414.414 0 0 0 .375-.28c0-.016.125-.485.188-.735l.218-.89c.047-.235.11-.454.172-.673l.11-.453c.015-.094.328-.64.671-.922.22-.156.532-.344.954-.344.437 0 .546.344.546.704 0 .046 0 .218-.109.625L3.078 1.719c-.031.125-.031.14-.031.172 0 .14.11.265.265.265.313 0 .391-.297.422-.406zm0 0"/></svg></svg>