<svg xmlns="http://www.w3.org/2000/svg" xmlns:xlink="http://www.w3.org/1999/xlink" width="64" height="64" viewBox="0 0 7.875 4.406"><svg overflow="visible" x="-.266" y="4.297"><path style="stroke:none" d="M1.906-4.297c-.218 0-.593 0-1.031.469-.344.39-.61.844-.61.89 0 .016 0 .11.126.11.078 0 .093-.031.156-.125.156-.235.328-.438.594-.578.28-.188.39-.188 1.015-.188-.562.703-1.031 1.594-1.031 2.672C1.125-.53 1.265.11 2 .11c.969 0 1.672-.796 2.14-1.64l.016.015c-.015.063-.015.172-.015.266 0 .703.234 1.36 1.046 1.36C6.641.11 7.531-2 7.531-2.985c0-.25-.047-.5-.11-.735.173 0 .438 0 .5-.015.079-.047.22-.157.22-.329 0-.234-.204-.234-.391-.234zm5.25.578c.078.235.125.578.125.735 0 1.046-.875 2.515-2 2.515-.61 0-.812-.469-.812-1.156 0-.125 0-.484.125-1.016.047-.156.047-.187.047-.187 0-.11-.11-.11-.125-.11-.079 0-.11.032-.125.11-.563 1.86-1.672 2.36-2.282 2.36-.468 0-.687-.313-.687-.907 0-.813.469-1.64 1.047-2.344zm0 0"/></svg></svg>