<svg xmlns="http://www.w3.org/2000/svg" xmlns:xlink="http://www.w3.org/1999/xlink" width="64" height="64" viewBox="0 0 14.658 5.203"><svg overflow="visible" x="-.563" y="5.094"><path style="stroke:none" d="M9.047-2.297c.187 0 .36 0 .36-.203 0-.188-.173-.188-.36-.188H1.64c.546-.421.828-.828.906-.968.437-.688.531-1.313.531-1.313 0-.125-.125-.125-.203-.125-.172 0-.188.016-.219.203-.234.97-.828 1.797-1.953 2.266-.11.047-.14.063-.14.125 0 .078.046.094.14.14 1.047.422 1.703 1.204 1.953 2.313.031.125.047.156.219.156.078 0 .203 0 .203-.125 0-.015-.094-.64-.515-1.312a4.007 4.007 0 0 0-.922-.969zm0 0"/></svg><svg overflow="visible" x="7.736" y="5.094"><path style="stroke:none" d="M6.563-2.297c.171 0 .359 0 .359-.203 0-.188-.188-.188-.36-.188h-5.39c-.172 0-.344 0-.344.188 0 .203.172.203.344.203zm0 0"/></svg></svg>