<svg xmlns="http://www.w3.org/2000/svg" xmlns:xlink="http://www.w3.org/1999/xlink" width="64" height="64" viewBox="0 0 5.406 6.672"><svg overflow="visible" x="-.75" y="4.515"><path style="stroke:none" d="M1.688-1.219c1.062-2.297 2.484-2.656 3.14-2.656.547 0 .719.484.719.969 0 .515-.25 1.437-.469 1.86-.406.734-.906.937-1.203.937-.234 0-.64-.11-.656-.641.234-.047.234-.234.234-.25a.198.198 0 0 0-.203-.172c-.234 0-.281.281-.281.438 0 .453.344.843.906.843C5 .11 6.156-1.25 6.156-2.578c0-.781-.437-1.516-1.312-1.516-.828 0-2.219.469-3.328 2.657-.235-.235-.235-.547-.235-.688 0-.86.547-2.078 1.157-2.172.078-.016.14-.016.14-.125 0-.094-.094-.094-.125-.094-.719 0-1.625 1.36-1.625 2.672 0 .578.156.766.406 1.063C1-.156.75.89.75 1.344c0 .437.172.812.672.812.656 0 1.312-.86 1.312-1.64 0-.391-.093-.5-.437-.938-.14-.187-.485-.61-.61-.797zM2.14.391c.109.14.125.25.125.406 0 .562-.438 1.14-.844 1.14C1 1.938 1 1.547 1 1.345c0-.516.266-1.422.406-1.89zm0 0"/></svg></svg>