<svg xmlns="http://www.w3.org/2000/svg" xmlns:xlink="http://www.w3.org/1999/xlink" width="64" height="64" viewBox="0 0 4.016 4.734"><svg overflow="visible" x="-.266" y="4.515"><path style="stroke:none" d="M1.406-2.266c.328.141.625.141.86.141.25 0 .812 0 .812-.313 0-.234-.36-.265-.734-.265-.203 0-.563.015-.922.187-.234-.109-.406-.312-.406-.578 0-.61.984-.969 1.875-.969.156 0 .515 0 .921.282.11.078.126.11.188.11.14 0 .281-.142.281-.282 0-.188-.61-.563-1.297-.563-1.14 0-2.218.672-2.218 1.422 0 .438.359.688.406.719-.594.328-.906.875-.906 1.344 0 .64.562 1.25 1.625 1.25 1.312 0 1.875-.875 1.875-1.032 0-.062-.063-.093-.11-.093-.062 0-.094.031-.11.062-.14.235-.374.61-1.577.61-.61 0-1.453-.157-1.453-.86 0-.343.28-.875.89-1.172zm.328-.125a1.87 1.87 0 0 1 .61-.093c.25 0 .281.015.469.062-.157.063-.172.078-.547.078-.22 0-.344 0-.532-.047zm0 0"/></svg></svg>