<svg xmlns="http://www.w3.org/2000/svg" xmlns:xlink="http://www.w3.org/1999/xlink" width="64" height="64" viewBox="0 0 9.281 5.484"><svg overflow="visible" x="-.344" y="5.235"><path style="stroke:none" d="M2.531-3.656c.563-.656.875-1.375.875-1.453 0-.125-.11-.125-.203-.125-.156 0-.156.015-.25.203-.406.922-1.14 1.843-2.437 2.406-.141.047-.172.063-.172.125v.063c.031.03.031.03.234.124C1.672-1.859 2.5-1 3 .158c.047.077.078.093.203.093.094 0 .203 0 .203-.125 0-.078-.312-.797-.875-1.453h4.89C6.86-.672 6.563.047 6.563.125c0 .125.11.125.204.125.14 0 .14-.016.234-.203.406-.922 1.14-1.844 2.453-2.406.14-.047.172-.063.172-.141 0-.016 0-.031-.016-.047-.015-.031-.03-.031-.234-.125-1.094-.453-1.906-1.312-2.422-2.469-.031-.078-.078-.093-.187-.093-.094 0-.204 0-.204.125 0 .078.297.796.86 1.453zm-.39 1.937C1.844-2.016 1.5-2.25 1.094-2.5c.547-.313.843-.563 1.047-.766h5.671c.297.297.641.532 1.047.766-.546.328-.843.578-1.046.781zm0 0"/></svg></svg>