<svg xmlns="http://www.w3.org/2000/svg" xmlns:xlink="http://www.w3.org/1999/xlink" width="64" height="64" viewBox="0 0 5.672 6.578"><svg overflow="visible" x="-.5" y="4.406"><path style="stroke:none" d="M1.688 1.688c-.032.14-.047.156-.047.203 0 .218.187.28.296.28a.413.413 0 0 0 .36-.265c.031-.078.078-.406.36-1.812.077 0 .155.015.327.015 1.657 0 3.188-1.562 3.188-3.14 0-.781-.39-1.375-1.14-1.375-1.438 0-2.048 1.937-2.641 3.875C1.312-.734.75-1.281.75-2c0-.281.234-1.375.828-2.063.094-.093.094-.109.094-.14 0-.031-.031-.094-.125-.094C1.266-4.297.5-2.844.5-1.89c0 .938.656 1.657 1.719 1.907zM3.077-.47c-.094 0-.11 0-.187-.015-.125 0-.125 0-.125-.032 0-.015.171-.937.187-1.078.313-1.281 1.094-2.234 1.985-2.234.687 0 .953.531.953 1.015C5.89-1.688 4.608-.47 3.077-.47zm0 0"/></svg></svg>