<svg xmlns="http://www.w3.org/2000/svg" xmlns:xlink="http://www.w3.org/1999/xlink" width="64" height="64" viewBox="0 0 4.406 7.016"><svg overflow="visible" x="-.281" y="6.922"><path style="stroke:none" d="M2.156-5.938C1.781-5.75 1-5.327 1-5.202c0 .047.063.11.125.11.016 0 .047 0 .063-.016l.203-.11c.296-.172.578-.328.859-.5.031-.015.063-.031.094-.031.094 0 .328.266.437.406.406.469.75 1.032.906 1.64h-.015c-.219-.468-.735-.765-1.235-.765-1.25 0-2.156 1.172-2.156 2.328A2.23 2.23 0 0 0 2.5.094c1.25 0 2.188-1.016 2.188-2.297v-.203c0-1.344-.485-2.531-1.5-3.406a1.353 1.353 0 0 0-.329-.266C3.188-6.266 4-6.672 4-6.797c0-.062-.047-.125-.11-.125h-.015c-.063 0-.203.094-.281.156-.281.141-.547.329-.828.47-.032.015-.063.046-.11.046-.078 0-.234-.125-.344-.188-.484-.234-.953-.406-1.484-.484H.766c-.063 0-.141.031-.157.11 0 .125.266.156.375.203.438.156.813.39 1.172.671zM1.11-1.983v-.157c0-.78.079-1.734 1.079-2.062a.73.73 0 0 1 .265-.047h.016c1.031 0 1.39 1.406 1.39 2.078 0 .719-.156 1.719-1.093 1.985-.079.03-.188.03-.266.03-.5 0-.938-.327-1.156-.765-.172-.328-.188-.687-.235-1.062zm0 0"/></svg></svg>