<svg xmlns="http://www.w3.org/2000/svg" xmlns:xlink="http://www.w3.org/1999/xlink" width="64" height="64" viewBox="0 0 3.766 5.484"><svg overflow="visible" x="-.313" y="4.406"><path style="stroke:none" d="M2.297-.203c.219.125.39.219.39.531 0 .25-.171.531-.453.531a1.058 1.058 0 0 1-.406-.093C1.797.75 1.766.75 1.734.75c-.046 0-.109.031-.109.094 0 .156.453.234.61.234C2.796 1.078 3.25.531 3.25 0c0-.5-.234-.625-.984-1.031l-.657-.36C1.25-1.609.83-1.828.83-2.453c0-.906 1.077-1.735 2.155-1.735.22 0 .422.032.782.188.078.047.109.063.14.063.078 0 .172-.094.172-.172 0-.22-.64-.297-1.031-.297-1.516 0-2.735 1.14-2.735 2.265 0 .844.625 1.188 1.047 1.422zm0 0"/></svg></svg>