<svg xmlns="http://www.w3.org/2000/svg" xmlns:xlink="http://www.w3.org/1999/xlink" width="64" height="64" viewBox="0 0 9.594 3.547"><svg overflow="visible" x=".187" y="4.265"><path style="stroke:none" d="M7.453-2.688c-.531 0-.953.313-1.36.594-.374.266-.718.516-1.109.516-.578 0-1.03-.5-1.515-1.047-.516-.578-1.047-1.188-1.797-1.188-.781 0-1.313.61-1.813 1.188a.177.177 0 0 0-.047.125c0 .125.094.203.188.203a.2.2 0 0 0 .156-.062c.485-.547.938-1.063 1.516-1.063.562 0 1.016.516 1.5 1.063.5.578 1.062 1.187 1.812 1.187.516 0 .954-.297 1.344-.61.375-.265.734-.515 1.125-.515h1.11A3.04 3.04 0 0 0 7.5-.875c0 .016-.016.031-.016.047 0 .062.047.11.11.11h.093c.032 0 .094-.032.094-.063.297-.766.813-1.297 1.563-1.61.047-.015.062-.046.062-.109 0-.047-.015-.078-.062-.094-.75-.312-1.266-.844-1.563-1.61 0-.03-.062-.062-.093-.062h-.079c-.078 0-.125.047-.125.11 0 .015.016.031.016.047a3.04 3.04 0 0 0 1.063 1.421zm0 0"/></svg></svg>