<svg xmlns="http://www.w3.org/2000/svg" xmlns:xlink="http://www.w3.org/1999/xlink" width="64" height="64" viewBox="0 0 4.5 7.25"><svg overflow="visible" x="-1.667" y="7.141"><path style="stroke:none" d="M4.688-6.266c0-.468-.407-.875-.954-.875-.562 0-.953.438-.953.875 0 .5.438.875.953.875.547 0 .954-.406.954-.875zm-.954.657c-.421 0-.703-.188-.703-.657 0-.453.266-.656.703-.656.422 0 .704.188.704.656 0 .454-.266.657-.704.657zm0 0"/></svg><svg overflow="visible" x="-.422" y="7.141"><path style="stroke:none" d="M3.313-.75c.046.39.312.813.78.813.22 0 .829-.141.829-.954v-.562h-.25v.562c0 .579-.25.641-.36.641-.328 0-.375-.453-.375-.5v-1.984c0-.422 0-.813-.359-1.188a1.9 1.9 0 0 0-1.36-.547C1.391-4.469.703-4 .703-3.344c0 .297.203.469.469.469a.435.435 0 0 0 .453-.453c0-.125-.047-.453-.516-.453.282-.36.766-.469 1.079-.469.5 0 1.062.39 1.062 1.281v.36c-.516.03-1.203.062-1.828.359-.75.344-1 .86-1 1.297 0 .812.969 1.062 1.594 1.062A1.38 1.38 0 0 0 3.312-.75zM3.25-2.39v1c0 .937-.719 1.28-1.172 1.28-.484 0-.89-.343-.89-.843 0-.547.421-1.375 2.062-1.438zm0 0"/></svg></svg>