<svg xmlns="http://www.w3.org/2000/svg" xmlns:xlink="http://www.w3.org/1999/xlink" width="64" height="64" viewBox="0 0 5.516 11.078"><svg overflow="visible" x="-.563"><path style="stroke:none" d="M3.578 7.39C4.672 7.235 5.25 6.36 5.25 5.548c0-.734-.453-1.5-1.297-1.781.063-1.047.11-1.407.11-1.61.109-1.094.25-1.937.921-1.937.094 0 .407.015.625.203a.418.418 0 0 0-.359.422c0 .281.219.406.406.406.203 0 .422-.125.422-.422 0-.484-.5-.828-1.11-.828-.796 0-1.171.672-1.374 1.25-.125.39-.188.703-.406 2.422-1.079.172-1.657 1.047-1.657 1.86 0 .734.438 1.5 1.297 1.78-.078 1.016-.11 1.344-.125 1.547-.094 1.079-.281 2-1.047 2-.125 0-.437-.03-.64-.218a.397.397 0 0 0 .375-.407.406.406 0 0 0-.407-.421.414.414 0 0 0-.421.437c0 .469.5.828 1.093.828.782 0 1.219-.594 1.469-1.203.219-.563.297-1.125.453-2.484zm-.734-.5a1.465 1.465 0 0 1-.922-1.359c0-.672.5-1.297 1.203-1.437zm1.078-2.718c.515.219.922.734.922 1.36A1.49 1.49 0 0 1 3.64 6.983zm0 0"/></svg></svg>