<svg xmlns="http://www.w3.org/2000/svg" xmlns:xlink="http://www.w3.org/1999/xlink" width="64" height="64" viewBox="0 0 6.656 7.469"><svg overflow="visible" x="-.547" y="7.141"><path style="stroke:none" d="M3.875-6.031c-.203-.422-.75-1.11-1.656-1.11C1.047-7.14.547-6.125.547-4.875c0 .922.375 1.875 1.828 3.266.234.187.563.5.64.609.282.328.47.656.641 1.11.047.124.094.218.219.218.14 0 .188-.11.203-.172.344-.844.64-1.156.953-1.453 1.094-1.031 2.172-2.078 2.172-3.578 0-1.281-.516-2.266-1.656-2.266-.906 0-1.453.672-1.672 1.11zm0 5.64a3.752 3.752 0 0 0-.86-1.187C1.298-3.125.954-4.031.954-4.875c0-.64.14-1.86 1.266-1.86.281 0 1.203.11 1.453 1.407.047.187.187.203.203.203.156 0 .188-.14.219-.234.218-1.11.984-1.375 1.453-1.375.375 0 .766.14 1 .562.266.516.266 1.172.266 1.297 0 .594-.157 1.5-1.688 2.953-.64.594-.922.86-1.25 1.531zm0 0"/></svg></svg>