<svg xmlns="http://www.w3.org/2000/svg" xmlns:xlink="http://www.w3.org/1999/xlink" width="64" height="64" viewBox="0 0 4.234 6.437"><svg overflow="visible" x="-.313" y="4.406"><path style="stroke:none" d="M.313-4.297v.313h.156c.328 0 .625.03.625.5v2.75c0 .406-.282.421-.719.421H.312v.297h2.266v-.296h-.234c-.297 0-.547-.047-.547-.407V-2.75c.047-.625.469-1.438 1.328-1.438.61 0 .719.563.719 1v3.5c0 .625-.031 1.5-.594 1.5a1.22 1.22 0 0 1-.484-.125c.203-.078.359-.218.359-.453 0-.25-.172-.453-.469-.453s-.437.25-.437.469c0 .547.578.781 1.015.781 1.172 0 1.313-1.437 1.313-2.281v-2.688c0-.328-.016-.656-.188-.953-.25-.39-.734-.515-1.171-.515-.61 0-1.25.422-1.438 1.015l-.016-1.015zm0 0"/></svg></svg>