<svg xmlns="http://www.w3.org/2000/svg" xmlns:xlink="http://www.w3.org/1999/xlink" width="64" height="64" viewBox="0 0 3.297 2.969"><svg overflow="visible" x="-.078" y="1.063"><path style="stroke:none" d="M1.047-.219c0 .094.016.188.016.281a2.324 2.324 0 0 1-.72 1.579c-.03.046-.109.093-.109.156v.031c0 .063.078.078.11.078.14 0 .406-.343.531-.547.234-.39.406-.875.406-1.343 0-.407-.11-1.016-.61-1.079-.374 0-.593.188-.593.532 0 .297.219.515.531.515a.554.554 0 0 0 .438-.203zm2.094 0c0 .094.015.188.015.281a2.324 2.324 0 0 1-.719 1.579c-.03.046-.109.093-.109.156v.031c0 .063.078.078.11.078.14 0 .406-.343.515-.547.25-.39.422-.875.422-1.343 0-.407-.11-1.016-.61-1.079-.374 0-.593.188-.593.532 0 .297.219.515.531.515a.554.554 0 0 0 .438-.203zm0 0"/></svg></svg>