<svg xmlns="http://www.w3.org/2000/svg" xmlns:xlink="http://www.w3.org/1999/xlink" width="64" height="64" viewBox="0 0 3.688 4.297"><svg overflow="visible" x="-.641" y="4.641"><path style="stroke:none" d="M2.734-4.25c.016-.14.016-.39-.234-.39-.172 0-.297.14-.266.265v.125l.141 1.547-1.281-.922C1-3.672.984-3.703.922-3.703c-.14 0-.281.14-.281.281 0 .156.109.203.203.25l1.422.672-1.375.672c-.157.078-.25.125-.25.266 0 .156.14.28.28.28.063 0 .079 0 .329-.187l1.125-.797-.156 1.672c0 .203.187.25.265.25.125 0 .266-.062.266-.25l-.14-1.672 1.265.922c.094.047.11.063.188.063.14 0 .265-.14.265-.282 0-.14-.094-.187-.219-.25-.593-.296-.609-.296-1.39-.671l1.375-.672c.156-.078.234-.11.234-.266 0-.14-.125-.281-.266-.281-.078 0-.093 0-.343.187l-1.11.813zm0 0"/></svg></svg>