<svg xmlns="http://www.w3.org/2000/svg" xmlns:xlink="http://www.w3.org/1999/xlink" width="64" height="64" viewBox="0 0 8.859 2.375"><svg overflow="visible" x="-.547" y="3.703"><path style="stroke:none" d="M9.406-3.563c0-.078-.062-.14-.125-.14a.118.118 0 0 0-.062.031c0 .016-.016.016-.14.172-.782 1-2.204 1.719-4.095 1.719-.421 0-1.375-.016-2.406-.438C1.5-2.688 1.016-3.329.781-3.625c-.015-.031-.047-.078-.11-.078-.062 0-.124.062-.124.14 0 .11 1.453 2.235 4.422 2.235 3.015 0 4.437-2.14 4.437-2.234zm0 0"/></svg></svg>