<svg xmlns="http://www.w3.org/2000/svg" xmlns:xlink="http://www.w3.org/1999/xlink" width="64" height="64" viewBox="0 0 3.531 9.984"><svg overflow="visible" x="-.718" y="7.485"><path style="stroke:none" d="M2.828-6.156c0-.39.25-1.032 1.344-1.094a.117.117 0 0 0 .078-.11c0-.124-.078-.124-.188-.124-.984 0-1.906.515-1.906 1.25v2.28c0 .392 0 .704-.406 1.032-.344.297-.719.313-.938.313C.75-2.594.72-2.547.72-2.5c0 .11.062.11.156.125.656.031 1.14.39 1.25.875.031.11.031.14.031.5V.969c0 .422 0 .734.469 1.11.39.296 1.047.421 1.438.421.109 0 .187 0 .187-.125 0-.094-.047-.094-.156-.11-.625-.03-1.11-.359-1.25-.859-.016-.093-.016-.11-.016-.468v-2.094c0-.453-.094-.625-.406-.953-.203-.204-.5-.297-.781-.391.828-.219 1.187-.688 1.187-1.266zm0 0"/></svg></svg>