<svg xmlns="http://www.w3.org/2000/svg" xmlns:xlink="http://www.w3.org/1999/xlink" width="64" height="64" viewBox="0 0 6.656 6.641"><svg overflow="visible" x="-.547" y="5.813"><path style="stroke:none" d="M7.203-2.5c0-1.828-1.5-3.313-3.328-3.313A3.328 3.328 0 0 0 .547-2.5 3.33 3.33 0 0 0 3.875.828 3.33 3.33 0 0 0 7.203-2.5zM.797-2.625c.094-1.672 1.39-2.86 2.953-2.938v2.938zM4-5.563c1.563.079 2.844 1.282 2.953 2.938H4zM3.75.579C2.203.5.89-.672.797-2.375H3.75zm3.203-2.953C6.843-.672 5.531.5 4 .578v-2.953zm0 0"/></svg></svg>