<svg xmlns="http://www.w3.org/2000/svg" xmlns:xlink="http://www.w3.org/1999/xlink" width="64" height="64" viewBox="0 0 6.656 8.875"><svg overflow="visible" x="-.547" y="7.25"><path style="stroke:none" d="M.594-2.938c-.016.032-.047.079-.047.126 0 .093.062.14.172.25C2.156-1.25 3.125.344 3.688 1.484c.015.047.078.141.187.141.125 0 .156-.063.234-.219.579-1.187 1.594-2.765 2.954-4 .109-.094.14-.125.14-.219 0-.093-.031-.124-.172-.25-.906-.812-2.078-2.234-2.968-4.046-.016-.047-.063-.141-.188-.141-.11 0-.14.063-.219.219-.531 1.047-1.453 2.578-2.812 3.86zM3.875.985C3.437.156 2.797-.969 1.719-2.125a14.102 14.102 0 0 0-.672-.688c.234-.203.484-.468.703-.718 1.125-1.235 1.813-2.5 2.125-3.063.438.813 1.094 1.938 2.172 3.094.203.234.437.484.656.688a9.91 9.91 0 0 0-.687.718C4.875-.859 4.187.406 3.875.984zm0 0"/></svg></svg>