<svg xmlns="http://www.w3.org/2000/svg" xmlns:xlink="http://www.w3.org/1999/xlink" width="64" height="64" viewBox="0 0 4.641 8.844"><svg overflow="visible" x="-.172" y="6.906"><path style="stroke:none" d="M2.688-5.531c.25.375.515.656.765.843a3.13 3.13 0 0 0 1.235.563c.125 0 .125-.11.125-.188 0-.156 0-.171-.235-.25a2.574 2.574 0 0 1-1.281-.796 2.63 2.63 0 0 1-.688-1.454c-.015-.062-.062-.093-.109-.093-.094 0-.11.062-.125.172-.234 1.109-.938 1.89-2.031 2.203-.156.047-.172.047-.172.218 0 .079 0 .188.125.188a3.1 3.1 0 0 0 1.172-.516c.328-.25.61-.546.828-.89v7.11c0 .171 0 .359.203.359.188 0 .188-.188.188-.36zm0 0"/></svg></svg>