<svg xmlns="http://www.w3.org/2000/svg" xmlns:xlink="http://www.w3.org/1999/xlink" width="64" height="64" viewBox="0 0 6.656 9.297"><g style="fill:#000;fill-opacity:1"><svg overflow="visible" x="148.712" y="134.765"><path style="stroke:none" d="M6.281-6.75c.078-.14.078-.156.078-.188 0-.078-.062-.203-.203-.203-.11 0-.14.063-.218.204l-4.47 8.703c-.077.14-.077.156-.077.187 0 .078.062.203.187.203s.156-.062.219-.203zm0 0"/></svg><svg overflow="visible" x="148.712" y="134.765"><path style="stroke:none" d="M7.203-3.328c0-.219-.062-.328-.14-.328-.047 0-.141.078-.141.265-.047.954-.703 1.5-1.406 1.5-.625 0-1.094-.421-1.594-.843-.5-.47-1.016-.922-1.703-.922-1.078 0-1.672 1.094-1.672 2 0 .328.125.328.14.328.11 0 .141-.203.141-.234.047-1.094.781-1.532 1.39-1.532.626 0 1.11.422 1.595.844.515.469 1.03.922 1.703.922 1.093 0 1.687-1.094 1.687-2zm0 0"/></svg></g></svg>