<svg xmlns="http://www.w3.org/2000/svg" xmlns:xlink="http://www.w3.org/1999/xlink" width="64" height="64" viewBox="0 0 6.094 5.781"><svg overflow="visible" x="-.828" y="5.375"><path style="stroke:none" d="M3.703-2.484c1.656-.313 2.5-.922 2.953-1.735.188-.375.266-.843.266-.937a.21.21 0 0 0-.203-.219c-.172 0-.203.156-.219.297-.297 1.781-2.297 2.375-5.39 2.39-.094 0-.282 0-.282.204 0 .203.125.203.5.203 1.031.015 2.078.078 3.063.375C6.28-1.36 6.437-.281 6.516.172c0 .062.03.234.203.234.093 0 .203-.062.203-.234 0-.047-.063-1.047-.969-1.75-.625-.5-1.375-.734-2.25-.906zm0 0"/></svg></svg>