<svg xmlns="http://www.w3.org/2000/svg" xmlns:xlink="http://www.w3.org/1999/xlink" width="64" height="64" viewBox="0 0 6.656 6.641"><svg overflow="visible" x="-.547" y="5.813"><path style="stroke:none" d="M7.203-2.5c0-1.828-1.5-3.313-3.328-3.313A3.328 3.328 0 0 0 .547-2.5 3.33 3.33 0 0 0 3.875.828 3.33 3.33 0 0 0 7.203-2.5zm-5.5 1.984c-.078.079-.078.094-.094.094-.03 0-.812-.797-.812-2.078a3.07 3.07 0 0 1 3.078-3.063c.344 0 1.266.047 2.078.813zm4.422-4.062c.484.516.828 1.266.828 2.078A3.084 3.084 0 0 1 3.875.578a2.997 2.997 0 0 1-2.078-.812zm0 0"/></svg></svg>