<svg xmlns="http://www.w3.org/2000/svg" xmlns:xlink="http://www.w3.org/1999/xlink" width="64" height="64" viewBox="0 0 6.453 4.578"><svg overflow="visible" x="-.453" y="4.469"><path style="stroke:none" d="M3.953-2.516c.094-1.453.922-1.734 1.281-1.734.954 0 1 1.344 1.016 1.734zm-.015.22h2.718c.219 0 .25 0 .25-.22 0-1.109-.578-1.953-1.656-1.953-.438 0-1 .157-1.516.766-.28-.469-.89-.766-1.515-.766-.797 0-1.516.469-1.516 1.125 0 .297.203.469.469.469a.435.435 0 0 0 .453-.453c0-.125-.047-.453-.516-.453.25-.328.72-.469 1.079-.469.515 0 1.062.406 1.062 1.281v.469C1.64-2.5.453-1.875.453-.922.453-.125 1.36.11 2.031.11c.813 0 1.422-.406 1.672-.89.578.812 1.36.89 1.656.89C6.484.11 6.906-1 6.906-1.187c0-.094-.078-.125-.125-.125-.093 0-.11.046-.156.203-.14.5-.61.968-1.219.968-.11 0-1.468 0-1.468-2.156zm-.688.015c0 .234 0 .437.094.75a.76.76 0 0 1 .031.218c0 .641-.578 1.204-1.297 1.204-.469 0-.86-.344-.86-.813 0-.531.423-1.297 2.032-1.36zm0 0"/></svg></svg>