<svg xmlns="http://www.w3.org/2000/svg" xmlns:xlink="http://www.w3.org/1999/xlink" width="64" height="64" viewBox="0 0 6.297 7.703"><svg overflow="visible" x="-.625" y="6.344"><path style="stroke:none" d="M6.813-5.984c0-.329-.032-.36-.36-.36H.984c-.171 0-.359 0-.359.203 0 .204.188.204.36.204h5.421V-.97H.984c-.156 0-.359 0-.359.203 0 .204.188.204.36.204h5.468c.328 0 .36-.032.36-.36zM.984.969c-.14 0-.359 0-.359.203 0 .187.188.187.36.187h5.577c.172 0 .36 0 .36-.187 0-.203-.188-.203-.36-.203zm0 0"/></svg></svg>