<svg xmlns="http://www.w3.org/2000/svg" xmlns:xlink="http://www.w3.org/1999/xlink" width="64" height="64" viewBox="0 0 6.656 9.297"><g style="fill:#000;fill-opacity:1"><svg overflow="visible" x="148.712" y="134.765"><path style="stroke:none" d="M6.281-6.75c.078-.14.078-.156.078-.188 0-.078-.062-.203-.203-.203-.11 0-.14.063-.218.204l-4.47 8.703c-.077.14-.077.156-.077.187 0 .078.062.203.187.203s.156-.062.219-.203zm0 0"/></svg><svg overflow="visible" x="148.712" y="134.765"><path style="stroke:none" d="M7.203-4.5c0-.219-.078-.313-.14-.313-.047 0-.141.047-.141.282-.047.687-.734 1.093-1.39 1.093-.579 0-1.079-.312-1.595-.656-.53-.36-1.078-.718-1.718-.718-.938 0-1.672.703-1.672 1.625 0 .218.078.296.14.296.094 0 .141-.187.141-.234.047-.828.86-1.125 1.39-1.125.579 0 1.079.297 1.595.656.53.36 1.078.719 1.718.719.922 0 1.672-.719 1.672-1.625zm0 2.328c0-.297-.125-.312-.14-.312-.047 0-.141.046-.141.265-.047.688-.734 1.11-1.39 1.11-.579 0-1.079-.313-1.595-.672-.53-.36-1.078-.719-1.718-.719C1.28-2.5.547-1.781.547-.875c0 .234.078.313.14.313.094 0 .141-.188.141-.235.047-.844.86-1.14 1.39-1.14.579 0 1.079.312 1.595.656.53.36 1.078.718 1.718.718.953 0 1.672-.734 1.672-1.609zm0 0"/></svg></g></svg>