<svg xmlns="http://www.w3.org/2000/svg" xmlns:xlink="http://www.w3.org/1999/xlink" width="64" height="64" viewBox="0 0 7.172 8.047"><svg overflow="visible" x="-.563" y="7.485"><path style="stroke:none" d="M6.828-7.094c.063-.093.078-.125.078-.187a.207.207 0 0 0-.203-.203c-.094 0-.14.078-.203.14-.5.688-1.172.953-1.89.953-.704 0-1.313-.25-1.876-.765-.187-.172-.39-.328-.703-.328-.765 0-1.469.843-1.469 2.015 0 1.203.72 2.016 1.47 2.016.718 0 1.28-.89 1.28-2.016 0-.14 0-.61-.203-1.125.657.375 1.141.422 1.5.422.766 0 1.266-.312 1.329-.344h.015L1.47.156c-.08.14-.08.188-.08.204 0 .11.093.204.187.204.11 0 .125-.047.203-.157zM2.031-3.672c-.203 0-.86-.14-.86-1.797 0-1.656.657-1.781.86-1.781.531 0 1.047.734 1.047 1.781 0 1.078-.531 1.797-1.047 1.797zM6.453.344c-.203 0-.86-.14-.86-1.797 0-1.656.641-1.781.86-1.781.531 0 1.031.734 1.031 1.78 0 1.079-.515 1.798-1.03 1.798zm1.281-1.797c0-1.14-.593-2-1.296-2-.75 0-1.47.828-1.47 2 0 1.203.72 2.016 1.47 2.016.734 0 1.296-.891 1.296-2.016zm0 0"/></svg></svg>