<svg xmlns="http://www.w3.org/2000/svg" xmlns:xlink="http://www.w3.org/1999/xlink" width="64" height="64" viewBox="0 0 4.266 6.344"><svg overflow="visible" x="-.734" y="4.406"><path style="stroke:none" d="M1.266-.953c.171.64.64 1.062 1.28 1.062C3.735.11 5-1.312 5-2.78c0-1.063-.656-1.625-1.375-1.625-.797 0-1.797.703-2.25 1.968-.047.11-.64 2.313-.64 3.204 0 .515.187.984 1.406.984.359 0 .562-.047.953-.047.187 0 .203 0 .265.016.157 0 .188.015.204.093 0 .063 0 .125.109.125.094 0 .156-.046.156-.28 0-.485-.437-.485-1.437-.485-.891 0-1.36 0-1.36-.672 0-.078 0-.453.235-1.453zm1.28.844c-.327 0-.733-.235-.733-1.047 0-.625.296-1.625.546-2.078.407-.704.907-.954 1.235-.954.375 0 .687.297.687.985 0 .547-.281 1.656-.547 2.14-.328.641-.812.954-1.187.954zm0 0"/></svg></svg>