<svg xmlns="http://www.w3.org/2000/svg" xmlns:xlink="http://www.w3.org/1999/xlink" width="64" height="64" viewBox="0 0 3.125 2.984"><svg overflow="visible" x="-.328" y="6.922"><path style="stroke:none" d="M1.531-5.875c0-.594-.25-1.047-.672-1.047a.517.517 0 0 0-.53.531c0 .266.171.532.53.532a.57.57 0 0 0 .391-.157c.016-.03.031-.03.031-.03.032 0 .032.14.032.171 0 .328-.079 1.047-.704 1.656-.125.125-.125.14-.125.172 0 .063.047.11.11.11.11 0 .937-.75.937-1.938zm1.922 0c0-.594-.234-1.047-.656-1.047-.36 0-.531.266-.531.531 0 .266.171.532.53.532.188 0 .329-.11.392-.157.015-.03.015-.03.03-.03.016 0 .016.14.016.171a2.28 2.28 0 0 1-.687 1.656c-.125.125-.125.14-.125.172 0 .063.047.11.094.11.109 0 .937-.75.937-1.938zm0 0"/></svg></svg>