<svg xmlns="http://www.w3.org/2000/svg" xmlns:xlink="http://www.w3.org/1999/xlink" width="64" height="64" viewBox="0 0 9.109 9.109"><svg overflow="visible" x="-.297" y="6.922"><path style="stroke:none" d="M9.266-6.5c.125-.125.14-.156.14-.234a.19.19 0 0 0-.187-.188c-.094 0-.11.016-.235.14L1.204.985c.03-.171.046-.39.046-.578 0-.203-.016-.687-.219-1.265-.047-.125-.36-.813-.5-.813-.078 0-.234.172-.234.234 0 .047.016.063.047.125.5.766.531 1.375.531 1.735 0 .61-.172 1.047-.281 1.281-.031.063-.031.094-.031.125 0 .063.03.094.093.094.016 0 .047 0 .125-.031a2.994 2.994 0 0 1 1.281-.282c.297 0 .954.016 1.72.532.062.03.093.046.14.046.062 0 .219-.156.219-.234 0-.14-.61-.422-.829-.5a3.551 3.551 0 0 0-1.234-.234c-.328 0-.328 0-.578.062zm0 0"/></svg></svg>