<svg xmlns="http://www.w3.org/2000/svg" xmlns:xlink="http://www.w3.org/1999/xlink" width="64" height="64" viewBox="0 0 6.656 4.266"><svg overflow="visible" x="-.547" y="4.625"><path style="stroke:none" d="M6.844-4.234c.172 0 .36 0 .36-.188 0-.203-.188-.203-.36-.203H.89c-.157 0-.344 0-.344.203 0 .188.203.188.36.188zm0 3.875c.172 0 .36 0 .36-.204 0-.187-.188-.187-.36-.187H.906c-.156 0-.36 0-.36.188 0 .203.188.203.345.203zm0-1.938c.172 0 .36 0 .36-.203 0-.188-.188-.188-.36-.188H.89c-.157 0-.344 0-.344.188 0 .203.187.203.344.203zm0 0"/></svg></svg>