<svg xmlns="http://www.w3.org/2000/svg" xmlns:xlink="http://www.w3.org/1999/xlink" width="64" height="64" viewBox="0 0 9.938 9.969"><svg overflow="visible" x="-.563"><path style="stroke:none" d="M10.5 4.984A4.965 4.965 0 0 0 5.531 0 4.975 4.975 0 0 0 .563 4.984 4.975 4.975 0 0 0 5.53 9.97a4.965 4.965 0 0 0 4.97-4.986zM2.766 1.72C3.516 1.047 4.53.687 5.53.687c1.016 0 2.032.375 2.766 1.032L5.53 4.484zm-.5 6.047C1.422 6.734 1.25 5.687 1.25 4.984c0-.78.219-1.812 1.016-2.78l2.78 2.78zm6.53-5.563a4.324 4.324 0 0 1 1.017 2.781c0 .782-.22 1.813-1.016 2.782L6.016 4.984zm-.5 6.047c-.75.672-1.765 1.031-2.765 1.031-1 0-2.015-.375-2.765-1.031L5.53 5.484zm0 0"/></svg></svg>