<svg xmlns="http://www.w3.org/2000/svg" xmlns:xlink="http://www.w3.org/1999/xlink" width="64" height="64" viewBox="0 0 5.234 6.547"><svg overflow="visible" x="-.172" y="4.406"><path style="stroke:none" d="M.406-2.531C.796-3.671 1.891-3.687 2-3.687c1.5 0 1.61 1.75 1.61 2.53 0 .61-.047.782-.126.985-.218.719-.515 1.875-.515 2.14 0 .11.047.173.125.173.14 0 .219-.22.328-.594.234-.844.328-1.406.36-1.719.03-.125.046-.25.093-.39.313-.985.953-2.47 1.344-3.25.078-.126.187-.344.187-.391 0-.094-.093-.094-.11-.094-.03 0-.093 0-.124.063-.516.953-.922 1.953-1.313 2.953-.015-.297-.015-1.063-.406-2.032-.25-.609-.64-1.093-1.328-1.093-1.25 0-1.953 1.515-1.953 1.828 0 .094.094.094.203.094zm0 0"/></svg></svg>