<svg xmlns="http://www.w3.org/2000/svg" xmlns:xlink="http://www.w3.org/1999/xlink" width="64" height="64" viewBox="0 0 6.609 6.812"><svg overflow="visible" x="-.563" y="6.812"><path style="stroke:none" d="M4.25-6.016c0-.343 0-.484.953-.484h.328v-.313c-.36.032-1.281.032-1.687.032-.406 0-1.328 0-1.688-.032v.313h.328c.938 0 .938.125.938.484v4.422c-1.297-.343-1.344-1.89-1.344-2.531-.015-1.203-.453-1.39-.89-1.39H.813c-.141 0-.25 0-.25.109 0 .047.03.093.093.11.328.03.578.171.594 1.343 0 .234.031 1.015.5 1.687.39.547 1 .829 1.672.922v.563c0 .328 0 .469-.938.469h-.328V0c.36-.031 1.266-.031 1.688-.031.406 0 1.328 0 1.687.031v-.313h-.328c-.953 0-.953-.124-.953-.468v-.563c.719-.093 1.328-.39 1.719-.906.515-.703.531-1.5.531-1.938 0-.156.016-1.046.547-1.109.062-.016.125-.031.125-.11 0-.109-.078-.109-.234-.109h-.375c-.391 0-.875.063-.891 1.516-.016 1.094-.344 2.14-1.422 2.406zm0 0"/></svg></svg>