<svg xmlns="http://www.w3.org/2000/svg" xmlns:xlink="http://www.w3.org/1999/xlink" width="64" height="64" viewBox="0 0 9.959 5.203"><svg overflow="visible" x="-.563" y="5.094"><path style="stroke:none" d="M9.047-2.297c.187 0 .36 0 .36-.203 0-.188-.173-.188-.36-.188H1.64c.546-.421.828-.828.906-.968.437-.688.531-1.313.531-1.313 0-.125-.125-.125-.203-.125-.172 0-.188.016-.219.203-.234.97-.828 1.797-1.953 2.266-.11.047-.14.063-.14.125 0 .078.046.094.14.14 1.047.422 1.703 1.204 1.953 2.313.031.125.047.156.219.156.078 0 .203 0 .203-.125 0-.015-.094-.64-.515-1.312a4.007 4.007 0 0 0-.922-.969zm0 0"/></svg><svg overflow="visible" x="7.74" y="5.094"><path style="stroke:none" d="M2.219-3.453c0-.797-.828-1.172-1.422-1.172-.047 0-.25 0-.25.203 0 .078.062.188.203.188.844.046 1.063.468 1.063.78 0 .36-.313.735-1.063.767-.203 0-.203.187-.203.187 0 .203.203.203.25.203.594 0 1.422-.375 1.422-1.156zm0 0"/></svg></svg>