<svg xmlns="http://www.w3.org/2000/svg" xmlns:xlink="http://www.w3.org/1999/xlink" width="64" height="64" viewBox="0 0 2.766 9.297"><svg overflow="visible" x="-.547" y="7.141"><path style="stroke:none" d="M2.64.188v1.171c0 .188 0 .266.11.266.14 0 .14-.094.14-.281V.094c.047 0 .282-.078.297-.078.126-.047.126-.063.126-.297v-.25c0-.172 0-.266-.11-.266a1.19 1.19 0 0 0-.312.094v-3.5c.046 0 .28-.078.296-.078.126-.047.126-.063.126-.297v-.25c0-.172 0-.266-.11-.266A1.19 1.19 0 0 0 2.891-5v-1.875c0-.172 0-.266-.11-.266-.14 0-.14.094-.14.282v1.937l-1.422.438v-1.86c0-.187 0-.265-.11-.265-.125 0-.125.093-.125.28v1.938c-.046 0-.28.079-.312.079-.11.046-.125.062-.125.296v.25c0 .172 0 .266.11.266.046 0 .265-.063.327-.094v3.5c-.046 0-.28.078-.312.078C.562.031.547.047.547.281v.25c0 .172 0 .266.11.266.046 0 .265-.063.327-.094v1.188c0 .171 0 .265.11.265.125 0 .125-.094.125-.281V.625zm0-4.297v3.484l-1.42.438v-3.485zm0 0"/></svg></svg>