<svg xmlns="http://www.w3.org/2000/svg" xmlns:xlink="http://www.w3.org/1999/xlink" width="64" height="64" viewBox="0 0 6.625 7.25"><svg overflow="visible" x="-.563" y="7.031"><path style="stroke:none" d="M7.188-3.375c0-2.031-1.5-3.656-3.313-3.656-1.797 0-3.313 1.593-3.313 3.656C.563-1.328 2.095.219 3.876.219c1.813 0 3.313-1.578 3.313-3.594zM3.874-.015c-.984 0-2.344-.86-2.344-3.36 0-2.563 1.375-3.438 2.344-3.438 1 0 2.344.907 2.344 3.438S4.812-.015 3.875-.015zm1.781-4.11h-.25v.344H2.344v-.344h-.25v1.438h.25v-.344h3.062v.344h.25zm0 0"/></svg></svg>