<svg xmlns="http://www.w3.org/2000/svg" xmlns:xlink="http://www.w3.org/1999/xlink" width="64" height="64" viewBox="0 0 4.688 4.406"><svg overflow="visible" x="-.531" y="4.406"><path style="stroke:none" d="M2.234-4.297c0-.016 0-.11-.125-.11-.234 0-.968.079-1.218.095-.079.015-.188.03-.188.203 0 .125.078.125.235.125.484 0 .5.062.5.171 0 .063-.125.532-.188.797L.64-.562c-.046.14-.109.421-.109.437 0 .11.094.125.156.125h.141c.703-.125 1.781-.516 2.813-1.469C4.953-2.687 5.219-4.047 5.219-4.14c0-.171-.11-.265-.282-.265a.42.42 0 0 0-.39.328C3.907-1.812 2.39-.703 1.25-.328zm0 0"/></svg></svg>