<svg xmlns="http://www.w3.org/2000/svg" xmlns:xlink="http://www.w3.org/1999/xlink" width="64" height="64" viewBox="0 0 4.031 8.484"><svg overflow="visible" x="-.468" y="7.703"><path style="stroke:none" d="M3.875-7.5a.207.207 0 0 0-.203-.203c-.156 0-.188.11-.25.328-.11.39-.016.047-.125.453A1.751 1.751 0 0 0 2.5-7.14c-.578 0-1.219.297-1.594 1.063C.516-5.266.47-4.36.47-3.438c0 .626 0 2.422.86 3.204-.22.765-.22.78-.22.812 0 .11.079.203.204.203.14 0 .171-.11.234-.328.125-.39.016-.047.125-.437.234.125.547.203.812.203 1.11 0 1.547-.938 1.735-1.422.25-.688.281-1.516.281-2.234 0-.735 0-2.391-.86-3.22zM1.469-.703c-.328-.688-.328-1.906-.328-2.86 0-.796 0-1.484.14-2.124.188-.938.766-1.235 1.219-1.235.188 0 .453.063.703.281zm2.047-5.531c.328.578.328 1.734.328 2.671 0 .735 0 1.47-.125 2.141C3.53-.375 3.016 0 2.484 0c-.234 0-.468-.078-.703-.297zm0 0"/></svg></svg>