<svg xmlns="http://www.w3.org/2000/svg" xmlns:xlink="http://www.w3.org/1999/xlink" width="64" height="64" viewBox="0 0 3.328 9.078"><svg overflow="visible" x="-.547" y="7.031"><path style="stroke:none" d="M2.313-4.656c.14.015.234.015.453.093.218.063.53.141.734.141.313 0 .375-.25.375-.328 0-.14-.094-.344-.375-.344-.078 0-.266.016-.594.11-.344.093-.437.093-.594.125.016-.22.016-.329.094-.766.063-.266.14-.734.14-1 0-.297-.155-.406-.327-.406-.313 0-.344.281-.344.406 0 .14.016.406.11.844.093.578.109.687.124.922-.14-.032-.234-.032-.468-.094-.204-.063-.516-.14-.72-.14-.327 0-.374.234-.374.327 0 .141.078.344.375.344.078 0 .265-.031.578-.11.36-.093.453-.109.61-.124a6.568 6.568 0 0 1-.11.765c-.047.266-.125.735-.125 1 0 .282.156.391.328.391.313 0 .344-.266.344-.39 0-.141-.031-.407-.11-.844-.109-.579-.109-.688-.124-.922zm0 4.531c.218.031.515.11.578.125.28.078.453.11.64.11.25 0 .344-.188.344-.329 0-.14-.11-.328-.344-.328-.156 0-.328.016-.765.125-.25.078-.266.078-.454.11.016-.204.016-.36.11-.891.094-.5.125-.75.125-.875 0-.078 0-.406-.344-.406-.172 0-.328.109-.328.406 0 .094.016.36.094.765.11.641.125.766.14 1a5.283 5.283 0 0 1-.578-.124c-.281-.079-.468-.11-.64-.11a.323.323 0 0 0-.344.328c0 .14.094.328.344.328.156 0 .328-.015.75-.125.25-.078.265-.078.468-.109-.015.203-.03.36-.109.875-.11.516-.125.766-.125.89 0 .298.156.407.328.407.313 0 .344-.281.344-.406 0-.094-.031-.36-.11-.766-.109-.64-.109-.766-.124-1zm0 0"/></svg></svg>