<svg xmlns="http://www.w3.org/2000/svg" xmlns:xlink="http://www.w3.org/1999/xlink" width="64" height="64" viewBox="0 0 3.531 9.984"><svg overflow="visible" x="-.718" y="7.485"><path style="stroke:none" d="M2.156 1.172c0 .39-.265 1.031-1.344 1.094-.062.015-.093.062-.093.109 0 .125.11.125.203.125.969 0 1.89-.5 1.906-1.25v-2.281c0-.39 0-.703.39-1.032.345-.296.735-.312.954-.312.047-.016.078-.063.078-.125 0-.094-.047-.094-.156-.11-.657-.03-1.14-.39-1.25-.874-.016-.11-.016-.141-.016-.5v-1.97c0-.421 0-.734-.484-1.109-.406-.312-1.094-.421-1.422-.421-.094 0-.203 0-.203.125 0 .093.062.093.156.109.625.031 1.125.36 1.25.86.031.093.031.109.031.468v2.094c0 .453.078.625.39.953.22.203.5.297.782.375-.812.234-1.172.703-1.172 1.281zm0 0"/></svg></svg>