<svg xmlns="http://www.w3.org/2000/svg" xmlns:xlink="http://www.w3.org/1999/xlink" width="64" height="64" viewBox="0 0 4.922 4.516"><svg overflow="visible" x="-.297" y="4.406"><path style="stroke:none" d="M5.219-3.703c0-.563-.266-.703-.438-.703-.25 0-.5.265-.5.484 0 .125.063.188.157.266.109.11.359.36.359.844 0 .656-.813 2.703-2.078 2.703-.188 0-.516-.047-.719-.25-.219-.22-.25-.516-.25-.735 0-.406.156-.937.563-2.031.046-.11.109-.281.109-.469 0-.437-.313-.812-.813-.812-.953 0-1.312 1.453-1.312 1.531 0 .11.094.11.11.11.109 0 .109-.032.156-.188.28-.938.671-1.235 1.015-1.235.078 0 .25 0 .25.313 0 .266-.11.516-.234.86-.422 1.109-.5 1.515-.5 1.812 0 1.031.875 1.312 1.593 1.312.907 0 1.5-.812 1.735-1.171.687-1.125.797-2.485.797-2.641zm0 0"/></svg></svg>