<svg xmlns="http://www.w3.org/2000/svg" xmlns:xlink="http://www.w3.org/1999/xlink" width="64" height="64" viewBox="0 0 9.109 9.109"><svg overflow="visible" x="-.547" y="7.172"><path style="stroke:none" d="M8.75-5.969a3.58 3.58 0 0 0 .188 1.844c.046.125.343.813.5.813.062 0 .218-.172.218-.235 0-.047 0-.062-.047-.125-.484-.765-.515-1.375-.515-1.734 0-.61.156-1.047.265-1.282.032-.062.047-.093.047-.125 0-.078-.062-.093-.11-.093-.015 0-.03 0-.108.031a3.137 3.137 0 0 1-1.297.281c-.282 0-.954-.015-1.72-.531-.062-.031-.093-.047-.124-.047-.078 0-.234.156-.234.234 0 .141.625.422.828.5a3.564 3.564 0 0 0 1.25.235c.312 0 .328 0 .578-.063L.703 1.516c-.14.125-.156.156-.156.234 0 .094.094.188.203.188.078 0 .094-.016.219-.141zm0 0"/></svg></svg>