<svg xmlns="http://www.w3.org/2000/svg" xmlns:xlink="http://www.w3.org/1999/xlink" width="64" height="64" viewBox="0 0 9.031 7.312"><svg overflow="visible" x="-.531" y="7.141"><path style="stroke:none" d="M2.875-1.797c-.328.469-.453.906-.453 1.281v.063c.015.312.156.625.578.625.344 0 .766-.203 1.14-.469.204-.125.391-.266.548-.437 0 .093-.016.171-.016.234l.016.156c.03.266.171.516.53.516.329 0 .75-.172 1.126-.422.422-.266.797-.594 1.047-.953 0-.016.015-.031.015-.047 0-.063-.047-.078-.093-.078h-.11c-.031 0-.047 0-.062.016-.22.328-.547.64-.938.89-.328.219-.687.36-.953.36-.016 0-.031 0-.031-.032 0-.047.015-.125.078-.265.11-.313.312-.641.562-.985a54.14 54.14 0 0 1 3.688-4.672c0-.015.015-.03.015-.062 0-.016-.015-.047-.03-.047-.016-.031-.032-.031-.048-.031h-.718c-.032 0-.047.015-.079.031A60.994 60.994 0 0 0 5-1.453c-.25.36-.578.703-1 1-.328.234-.688.39-.953.39-.063 0-.094-.03-.094-.093 0-.047.031-.157.094-.313.125-.39.375-.812.687-1.219l1.72-2.453c.452-.625.702-1.25.702-1.78 0-.11-.015-.22-.031-.313-.14-.579-.64-.907-1.39-.907-.594 0-1.313.235-2 .641A6.02 6.02 0 0 0 1-4.937c-.281.406-.469.828-.469 1.171 0 .063 0 .11.016.172.062.36.36.594.812.594.36 0 .782-.11 1.188-.328.39-.203.734-.485.969-.813.359-.468.437-.609.437-1.843a.106.106 0 0 0-.062-.094c-.032 0-.063.016-.094.031l-.094.031a.38.38 0 0 0-.047.079 3.525 3.525 0 0 1-.672 1.703 2.253 2.253 0 0 1-.718.718c-.297.204-.61.297-.86.297-.375 0-.562-.172-.61-.437L.782-3.75c0-.297.172-.672.469-1.078a5.268 5.268 0 0 1 1.61-1.484c.656-.391 1.312-.61 1.828-.61.593 0 .89.297.921.734v.063c0 .516-.375 1.281-.843 1.89zm0 0"/></svg></svg>