<svg xmlns="http://www.w3.org/2000/svg" xmlns:xlink="http://www.w3.org/1999/xlink" width="64" height="64" viewBox="0 0 9.469 7.469"><svg overflow="visible" x="-.406" y="7.25"><path style="stroke:none" d="M8.14-4.047c-.187 0-.39.125-.546.266a2.31 2.31 0 0 0-.578.594l-.125.171c-.25.063-.5.079-.735.094.203-.515.328-1.031.719-1.562a8.52 8.52 0 0 1 1.188-1.344c.015-.016.015-.047.015-.063l-.015-.093c0-.047-.032-.063-.079-.063h-.046c-.641.406-1.204.922-1.594 1.469-.407.562-.688 1.125-1.016 1.687a5.086 5.086 0 0 0-1.36.266c-.374.11-.859.281-1.109.625-.015.016-.015.031-.015.047 0 .031.015.047.031.062a.118.118 0 0 0 .063.016h.109c.031 0 .047-.016.062-.031.188-.266.579-.422.954-.547.39-.125.765-.172 1.125-.203-.11.156-.22.344-.344.515C4.078-1.062 2.984 0 2.109 0 1.266 0 .625-.172.625-.64c0-.094.016-.188.078-.313.078.11.188.156.297.156.266 0 .563-.203.563-.39 0-.25-.141-.344-.329-.344a.726.726 0 0 0-.562.297c-.188.25-.266.468-.266.64 0 .578.813.813 1.656.813 1.172 0 2.782-1.063 3.626-2.266.171-.219.28-.437.375-.64.218-.016.453-.047.687-.079a3.05 3.05 0 0 0-.266.563v.062c.016.016.032.032.047.032a.048.048 0 0 0 .032.015c.015 0 .03 0 .03-.015l.548-.22c.03-.015.062-.046.062-.077v-.016c-.016-.031-.016-.062-.016-.094 0-.109.032-.234.125-.375.344-.093.797-.234 1.016-.546.078-.11.14-.22.14-.329 0-.03 0-.046-.015-.078-.047-.14-.172-.203-.312-.203zm1.688-2.422c-.015-.015-.031-.015-.047-.015-1.281 0-1.922-.766-3.234-.766-.578 0-1.266.188-1.953.578-.64.36-1.25.844-1.625 1.39-.25.36-.39.72-.39 1.032 0 .078 0 .14.015.219.094.343.39.547.844.547a3.24 3.24 0 0 0 1.343-.297c.375-.156.766-.39.985-.703.218-.329.359-.657.359-.922a.67.67 0 0 0-.39-.625l-.048-.016c-.015 0-.03.016-.046.031l-.063.032c-.031.015-.031.046-.031.078v.031a.57.57 0 0 1 .078.328c0 .266-.125.61-.375.969a2.23 2.23 0 0 1-.734.625c-.375.172-.735.25-1.032.25-.375 0-.593-.172-.64-.406-.016-.032-.016-.079-.016-.125 0-.266.14-.594.39-.954.313-.437.813-.843 1.36-1.109a3.64 3.64 0 0 1 1.688-.406c1.28 0 1.921.766 3.25.766.03 0 .046-.016.046-.032l.282-.39c.015-.016.031-.032.031-.047 0-.032-.031-.047-.047-.063zM8.094-3.53c-.14.187-.375.297-.64.375.124-.172.265-.375.359-.469.125-.125.218-.203.28-.203.063 0 .095.031.11.062 0 .063-.031.11-.11.235zm0 0"/></svg></svg>