<svg xmlns="http://www.w3.org/2000/svg" xmlns:xlink="http://www.w3.org/1999/xlink" width="64" height="64" viewBox="0 0 9.5 7.312"><svg overflow="visible" x="-.813" y="7.141"><path style="stroke:none" d="M3.734-3.953c-.203.156-.437.25-.625.25-.375 0-.593-.172-.64-.406v-.125c0-.25.14-.594.375-.954a4.799 4.799 0 0 1 1.375-1.234c.547-.328 1.11-.5 1.562-.5.235 0 .375.078.39.234 0 .172-.187.422-.374.704a.669.669 0 0 0-.11.328c0 .218.172.36.297.468.22.172.532.266.86.297-.313.438-.61.891-.907 1.329H5.22c-.032 0-.047 0-.063.03l-.047.048v.062c0 .031.032.078.079.078h.578C5.109-2.438 4.375-1.5 3.625-.875c-.375-.125-.75-.234-1.25-.234-.484 0-1.125.078-1.438.546-.093.125-.125.22-.125.297 0 .329.61.344 1.032.344h.093c.532 0 1.11-.203 1.688-.531.438.297.844.625 1.563.625C5.968.172 7-.5 7.53-1.266c.016-.015.032-.03.032-.046 0-.047-.047-.079-.079-.079H7.36c-.015 0-.046 0-.062.032-.406.578-1.234.968-1.828.968-.563 0-1-.14-1.422-.312.984-.672 1.937-1.656 2.656-2.64h1.234a.086.086 0 0 0 .079-.048l.046-.046c0-.016.016-.032.016-.047 0-.047-.047-.079-.094-.079h-1.14c.281-.421.5-.89.75-1.343a6.31 6.31 0 0 0 1.312-.266c.422-.14.922-.344 1.188-.703.14-.219.219-.422.219-.61a.552.552 0 0 0-.047-.218c-.094-.234-.329-.36-.641-.36-.984 0-1.828.907-2.61 1.954-.234-.032-.39-.11-.452-.22a.356.356 0 0 1-.047-.171c0-.11.046-.234.14-.375.14-.203.219-.39.219-.563a.687.687 0 0 0-.11-.343c-.187-.266-.546-.36-.937-.36-.516 0-1.14.188-1.734.547-.61.344-1.14.813-1.485 1.313-.25.36-.406.734-.406 1.047 0 .062.016.14.016.203.094.343.406.547.86.547.28 0 .624-.11.952-.297.328-.188.625-.438.813-.703.218-.313.328-.61.328-.875a.597.597 0 0 0-.328-.563c-.016 0-.032-.016-.032-.016l-.046.016-.079.047c-.015 0-.03.031-.03.063 0 .015 0 .015.015.03.016.063.031.157.031.235 0 .266-.125.61-.375.969-.172.219-.344.453-.594.625zM8.797-5.36c-.39.109-.735.187-1.094.218.484-.906 1-1.703 1.89-1.703.25 0 .391.094.438.235 0 .03.016.062.016.109 0 .14-.063.328-.203.516-.219.296-.625.484-1.047.625zM2.344-.891c.39 0 .703.11.969.25-.454.313-.907.5-1.344.5-.516 0-.86-.015-.86-.172 0-.046.032-.109.063-.171.25-.329.734-.407 1.172-.407zm0 0"/></svg></svg>