<svg xmlns="http://www.w3.org/2000/svg" xmlns:xlink="http://www.w3.org/1999/xlink" width="64" height="64" viewBox="0 0 7.328 7.344"><svg overflow="visible" x="-.422" y="7.25"><path style="stroke:none" d="m5.766-4.844-.047-.172a.444.444 0 0 0-.36-.234l-.171.063-.141.078a.498.498 0 0 0-.094.265c.047.25.203.407.406.407l.297-.141a.498.498 0 0 0 .11-.266zm-2.532 0-.109-.297c-.063-.046-.11-.062-.156-.078l-.14-.031c-.173.063-.282.11-.313.14l-.11.266.125.282a.984.984 0 0 0 .297.109c.313-.11.406-.188.406-.39zM6.391-1.5v-.031c-.016.062-.032.078-.266.281-.625-.766-1.25-1.156-1.89-1.156-.688 0-1.36.422-2.063 1.25A3.035 3.035 0 0 1 1-3.578a3.1 3.1 0 0 1 3.094-3.094c2.093 0 3.093 1.766 3.093 3.094 0 .812-.265 1.5-.796 2.078zm-.313.297a2.588 2.588 0 0 1-1.812.719C3.516-.5 3.14-.563 2.64-.828c.015-.016.03-.016.046-.016-.093-.015-.156-.031-.468-.265.687-.579 1.344-.86 2.015-.86.625 0 1.235.25 1.844.766zM7.75-3.578A3.654 3.654 0 0 0 4.094-7.25 3.678 3.678 0 0 0 .422-3.578C.422-1.5 2.032.094 4.094.094c2.062 0 3.656-1.625 3.656-3.672zm0 0"/></svg></svg>