<svg xmlns="http://www.w3.org/2000/svg" xmlns:xlink="http://www.w3.org/1999/xlink" width="64" height="64" viewBox="0 0 4.375 7.219"><svg overflow="visible" x="-.375" y="7.235"><path style="stroke:none" d="M2.125-4.563.375-4.75l.031.797 1.781-.172-.25 4.11h.985L2.625-4.11l2.094.078.031-.766-2.14.266c.374-.203.734-.719.734-1.344 0-.797-.406-1.36-.953-1.36-.422 0-.735.516-.797 1.266 0 .422.187.922.531 1.407zm.563-.765L2.453-5l-.203-.297a1.17 1.17 0 0 1-.203-.61c0-.546.125-.765.453-.796.281 0 .422.25.422.766 0 .14-.078.343-.235.609zm0 0"/></svg></svg>