<svg xmlns="http://www.w3.org/2000/svg" xmlns:xlink="http://www.w3.org/1999/xlink" width="64" height="64" viewBox="0 0 9.828 7.281"><svg overflow="visible" x="-.313" y="7.062"><path style="stroke:none" d="M6.734-6.625c-.609 0-1.296.11-2.015.39-.532.204-1.125.516-1.438.954-.203.281-.265.515-.265.734 0 .328.171.594.406.781.5.454 1.265.61 2.14.625a22.26 22.26 0 0 0-.75 1C4.032-1.03 2.672 0 1.688 0 1 0 .532-.203.532-.61c0-.093.031-.203.094-.343.063.11.172.156.297.156.25 0 .562-.203.562-.39 0-.25-.156-.344-.328-.344a.782.782 0 0 0-.578.297c-.172.25-.265.484-.265.671 0 .516.609.782 1.328.782 1.312 0 3.125-.985 4.03-2.266.298-.406.595-.812.923-1.219.39-.093.812-.265 1.234-.484.688-.36 1.344-.86 1.734-1.438.313-.437.532-.875.579-1.265v-.14c0-.235-.094-.47-.422-.47-1.016 0-2.156 1.235-2.938 2.344a26.87 26.87 0 0 1-1.062 1.36c-.86 0-1.578-.157-2.016-.547-.172-.156-.297-.36-.297-.61 0-.187.078-.421.25-.671.266-.36.766-.672 1.25-.86.64-.266 1.25-.36 1.782-.36a.12.12 0 0 0 .078-.03l.03-.063c.016-.016.016-.031.016-.047 0-.047-.03-.078-.078-.078zm2.938-.219c.172 0 .234.11.234.266 0 .031 0 .094-.015.14-.063.344-.266.75-.563 1.157-.375.531-.969 1.015-1.625 1.36a5.413 5.413 0 0 1-.89.374c.28-.36.562-.719.828-1.078 1-1.422 1.171-2.219 2.03-2.219zm0 0"/></svg></svg>