<svg xmlns="http://www.w3.org/2000/svg" xmlns:xlink="http://www.w3.org/1999/xlink" width="64" height="64" viewBox="0 0 8.172 7.156"><svg overflow="visible" x="-.375" y="7.125"><path style="stroke:none" d="M.813-4.938c.953-.828 2.375-1.234 4.265-1.234 1.594.016 2.484.703 2.484 1.922l-.53.734-.829.079c-.594-.266-.89-.594-.89-1.063 0-.547.234-.938.687-1.188h-.266l-.406.204L4.906-5a1.674 1.674 0 0 0-.156.75c0 .875.656 1.39 1.734 1.39 1.329 0 2.063-.703 2.063-1.968-.11-1.734-1.14-2.297-4.453-2.297-1.547.281-2.64 1-3.282 2.188zm1.703.782c-.938 0-2.141.593-2.141 1.875C.531-.516 1.5.03 4.828.03 6.468-.28 7.562-.984 8.11-2.079 6.953-1.296 5.594-.905 4.031-.905h-.484l-1.5-.422c-.469-.281-.688-.719-.688-1.281.016-.438.641-1.016 1.125-1.016.594 0 1.22.578 1.22 1.14 0 .454-.25.844-.767 1.157h.329c.656-.266.984-.75.984-1.453 0-.125 0-.25-.016-.39-.312-.657-.89-.985-1.718-.985zm0 0"/></svg></svg>