<svg xmlns="http://www.w3.org/2000/svg" xmlns:xlink="http://www.w3.org/1999/xlink" width="64" height="64" viewBox="0 0 8.125 7.25"><svg overflow="visible" x="-.484" y="7.125"><path style="stroke:none" d="m.688-5.172.421-.844.282-.125c1.078 2.282 1.546 2.985 1.921 2.985.282 0 .516-.11.72-.344.734-1.766 1.155-2.672 1.25-2.719l.343.282 1.313 2.375.5.406h.484c.516-.328.687-.922.687-2.156l-.28.843a.498.498 0 0 1-.407.407c-.281-.282-.719-1.016-1.328-2.235-.313-.61-.563-.828-.985-.828A.974.974 0 0 0 5-6.906L3.672-3.984l-.266-.36-.984-2.093-.563-.61h-.406c-.469.328-.719.953-.766 1.875zM.484-1.969l.344-.64.344-.266c.281.36.719 1.203 1.328 2.5l.266.344c.078.093.218.156.406.156.531 0 .797-.266 1.687-2.734.047-.188.172-.266.344-.266l.281.266.97 1.812c.187.422.468.735.827.906h.5c.407-.14.657-.859.688-2.156-.14.594-.36 1.016-.688 1.25-.328-.281-.828-1.11-1.531-2.5l-.422-.406a.893.893 0 0 0-.422-.11c-.234 0-.437.11-.625.313L3.531-.719c-.219-.234-.64-1.031-1.25-2.375-.14-.312-.344-.547-.61-.687H1.25c-.375.14-.625.734-.766 1.812zm0 0"/></svg></svg>