<svg xmlns="http://www.w3.org/2000/svg" xmlns:xlink="http://www.w3.org/1999/xlink" width="64" height="64" viewBox="0 0 6.641 7.141"><svg overflow="visible" x="-.453" y="7.062"><path style="stroke:none" d="m6.234-6.094.047-.062c.016 0 .016-.032.016-.047 0-.031-.031-.078-.094-.078-.156 0-.36.078-.547.187a1.802 1.802 0 0 0-.5.469c-.156.219-.25.453-.25.656 0 .047.016.11.032.172.078.25.328.375.64.375.188 0 .406-.094.625-.234.234-.14.422-.344.563-.532.218-.312.328-.609.328-.89a.884.884 0 0 0-.125-.438c-.235-.375-.719-.546-1.313-.546-.406 0-.875.156-1.36.421-.452.266-.874.625-1.155 1.016-.297.406-.422.797-.422 1.14 0 .141.015.266.062.391.016.047.047.11.094.157a5.434 5.434 0 0 0-.656.25c-.5.234-.969.593-1.266.984-.344.484-.5.969-.5 1.375 0 .219.031.406.125.594.297.562.969.812 1.797.812.422 0 .922-.125 1.422-.375.437-.219.86-.547 1.125-.906.156-.25.234-.469.234-.656A.667.667 0 0 0 5-2.313c-.25-.328-.734-.453-1.266-.453-.671 0-1.421.922-1.515 1.704v.046c.015.032.031.047.062.047h.047L2.391-1c.03 0 .046-.031.046-.063.11-.718.735-1.484 1.25-1.484.454 0 .782.11.922.36a.44.44 0 0 1 .047.218c0 .172-.078.407-.265.657a3.013 3.013 0 0 1-.875.843 2.168 2.168 0 0 1-1.094.328c-.703 0-1.203-.234-1.344-.703a.73.73 0 0 1-.047-.265c0-.422.235-.938.625-1.5.235-.329.547-.657.938-.907.156-.078.312-.156.469-.218.25.203.593.28 1 .28.078 0 .203-.015.296-.046a.317.317 0 0 0 .204-.156c.046-.047.046-.094.046-.125 0-.11-.109-.172-.171-.203a1.488 1.488 0 0 0-.594-.11c-.172 0-.328.016-.516.047-.015-.047-.031-.078-.031-.125-.016-.047-.016-.078-.016-.11 0-.343.235-.78.563-1.25.219-.327.453-.624.797-.874.328-.219.656-.328.906-.328.547 0 .969.109 1.156.406A.57.57 0 0 1 6.781-6c0 .203-.078.453-.265.719-.11.172-.266.328-.454.453a.783.783 0 0 1-.453.187c-.296 0-.453-.125-.453-.328 0-.14.094-.343.25-.562a1.23 1.23 0 0 1 .375-.375.702.702 0 0 1 .39-.157c.032 0 .063-.015.063-.03zM3.797-3.875c.187 0 .36.016.484.063.047.03.063.03.063.046l-.016.016s-.047.047-.078.063c-.047.015-.11.015-.156.015-.266 0-.469-.062-.61-.172.11-.015.22-.031.313-.031zm0 0"/></svg></svg>