<svg xmlns="http://www.w3.org/2000/svg" xmlns:xlink="http://www.w3.org/1999/xlink" width="64" height="64" viewBox="0 0 9.516 7.516"><svg overflow="visible" x="-.453" y="7.141"><path style="stroke:none" d="M.453-6.36c.094-.187.25-.28.5-.28.172 0 .344.171.485.5v4.687h1.046V-6.22l.422-.422c.469 0 .75.094.828.282l.079 4.906h1.046V-6.22l.422-.422c.453 0 .735.172.844.5v5.032l.344.828c.406.437 1.015.656 1.828.656h.469c.609-.172.906-.484.906-.922 0-.172-.031-.344-.125-.562l.422-.344-1.125-1.063v1.688l.484-.281c.125.125.156.203.156.562-.39.36-.734.547-1.046.547-.5 0-.891-.453-1.204-1.328v-5.11c-.265-.484-.53-.703-1.437-.703-.39 0-.672.157-.86.5l-.296-.265-.485-.219H3.25c-.281 0-.516.188-.703.563l-.344-.422c-.047-.141-.062-.141-1.047-.141-.422.14-.656.39-.703.766zm0 0"/></svg></svg>