<svg xmlns="http://www.w3.org/2000/svg" xmlns:xlink="http://www.w3.org/1999/xlink" width="64" height="64" viewBox="0 0 8.906 7.312"><svg overflow="visible" x="-.578" y="7.141"><path style="stroke:none" d="M6.469-4.719c-.5.703-.907 1.407-1.375 2.11-.313-.094-.516-.297-.594-.563a.946.946 0 0 1-.031-.234c0-.39.218-.906.61-1.422.655-.938 1.812-1.297 2.984-1.656.124-.032.265-.079.374-.11-.78.516-1.484 1.188-1.968 1.875zM7-4.625c.594-.844 1.469-1.656 2.453-2.281.031-.016.031-.047.031-.078v-.079c-.015 0-.015-.015-.015-.03a.086.086 0 0 0-.078-.048h-.032c-1.796.735-3.734.672-4.812 2.204-.344.5-.531.984-.531 1.406 0 .156.03.312.078.437.14.36.453.594.86.719l-.173.234C4.031-1.094 2.86-.062 1.97-.062 1.28-.063.797-.234.797-.641a.61.61 0 0 1 .078-.312c.063.11.172.156.297.156.25 0 .547-.203.547-.39 0-.25-.14-.344-.328-.344a.75.75 0 0 0-.563.297c-.172.25-.25.453-.25.64 0 .516.625.766 1.36.766 1.203 0 2.906-.969 3.703-2.219l.187-.281a2.58 2.58 0 0 0 .906-.313c.375-.203.72-.484.938-.796.297-.407.36-.782.36-1.11 0-.125 0-.234-.016-.344-.016-.046-.047-.078-.079-.078h-.015c-.031 0-.063.032-.094.032-.031.015-.047.046-.047.093 0 .078.016.157.016.235 0 .328-.094.687-.375 1.078a2.547 2.547 0 0 1-.797.719 2.75 2.75 0 0 1-.672.25C6.328-3.266 6.5-3.923 7-4.626zm0 0"/></svg></svg>