<svg xmlns="http://www.w3.org/2000/svg" xmlns:xlink="http://www.w3.org/1999/xlink" width="64" height="64" viewBox="0 0 5.797 7.172"><svg overflow="visible" x="-.438" y="7.125"><path style="stroke:none" d="M2.516-6.016 3-6.094v2.563H1.969l-.36-.422v-2.14l.485.077v-.14l-.89-.969-.766 1.11.484-.079v2.203c.094.422.25.657.484.704L3-3.126v1.656H1.89v.282H3V.046h.688v-1.234h1.109v-.282h-1.11v-1.656h1.454a1.05 1.05 0 0 0 .625-.688v-2.28h.468L5.36-7.126l-.78 1.11.484-.079v2.14c-.032.313-.297.47-.797.47-.172 0-.36-.032-.579-.047v-2.563l.485.078v-.14l-.906-.969zm0 0"/></svg></svg>