<svg xmlns="http://www.w3.org/2000/svg" xmlns:xlink="http://www.w3.org/1999/xlink" width="64" height="64" viewBox="0 0 6.359 6.969"><svg overflow="visible" x="-.234" y="6.906"><path style="stroke:none" d="M4.125-6.906c-1.563.047-2.766 1.218-3.11 2.797H.36l-.125.468h.75v.672h-.64l-.11.469h.813C1.375-.86 2.516.063 4.219.063c.984-.016 1.765-.157 2.328-.454v-1.343c-.422.937-1.14 1.468-1.984 1.468-1.22 0-2.079-.843-2.313-2.234h3.14l.141-.469H2.188c-.016-.11-.016-.219-.016-.328 0-.11 0-.219.015-.344H5.72l.156-.468-3.64.015c.203-1.687.921-2.5 2.156-2.5.921 0 1.515.516 1.796 1.563l.407-1.36c-.719-.359-1.485-.515-2.469-.515zm0 0"/></svg></svg>