<svg xmlns="http://www.w3.org/2000/svg" xmlns:xlink="http://www.w3.org/1999/xlink" width="64" height="64" viewBox="0 0 6.797 7.391"><svg overflow="visible" x="-.234" y="7.297"><path style="stroke:none" d="M2.266-7.297C.89-7.109.234-6.53.234-5.5c.078.89.47 1.25 1.47 1.578-.532 2.203-.563 2.344-.563 2.797 0 .75.468 1.14.968 1.14.297 0 .563-.156 1.313-.859.297.578.797.938 1.312.938.922-.032 1.954-1.282 1.954-2.422 0-.297-.063-.563-.172-.781-.235-.47-.657-.704-1.438-.797.281-1.11.328-1.344.328-1.531 0-.25-.156-.375-.375-.36-.297 0-.343.14-.797 1.734-.468 0-1-.046-1.578-.14.297-1.125.328-1.266.328-1.453 0-.25-.14-.375-.375-.375C2.297-6 2.297-6 1.83-4.375.702-4.875.624-4.953.624-5.531c0-.844.703-1.047 1.625-1.047.719 0 1.86.219 2.563.375.343.062.625.11.875.11.687 0 1.343-.423 1.343-.798 0-.187-.14-.359-.265-.359-.141 0-.282.11-.282.266-.015.203-.25.375-.5.375-.125 0-.312-.047-.53-.125-.813-.36-1.97-.563-3.188-.563zm.312 3.422c.563.11 1.094.172 1.563.172C3.562-1.578 2.92-.516 2.187-.516c-.25-.015-.296-.171-.296-.343 0-.329.156-1.079.687-3.016zm2.469.25c.766.094 1.281.531 1.281 1.11C6.297-1.454 5.61-.438 4.891-.438c-.422-.063-.61-.235-.61-.516 0-.203.094-.547.766-2.672zm0 0"/></svg></svg>