<svg xmlns="http://www.w3.org/2000/svg" xmlns:xlink="http://www.w3.org/1999/xlink" width="64" height="64" viewBox="0 0 5.734 6.266"><svg overflow="visible" x="-.468" y="6.109"><path style="stroke:none" d="M3.89-6.11c-1.437.032-2.28.86-2.515 2.438H.672c-.125.078-.188.156-.188.25 0 .078.063.14.157.219h.75v.625H.64c-.11.078-.172.156-.172.25 0 .062.062.14.156.219h.766C1.937-.58 2.844.156 4.203.156c.828 0 1.516-.36 2-1.078 0-.187-.078-.281-.219-.281a.47.47 0 0 0-.187.047c-.5.547-1.047.812-1.656.812-1.016 0-1.813-.61-2.22-1.765h3.11c.078-.079.125-.157.125-.22 0-.077-.047-.171-.156-.25H1.844c-.047-.171-.047-.233-.047-.624H5.28a.326.326 0 0 0 .11-.235.326.326 0 0 0-.11-.234H1.86C2.156-5 2.83-5.625 3.922-5.625c.781 0 1.36.344 1.734 1.078v.297c.094.078.188.11.282.11.062 0 .14-.016.187-.079v-1.61c-.063-.077-.14-.124-.219-.124-.078 0-.172.047-.25.125v.422c-.36-.469-.937-.703-1.765-.703zm0 0"/></svg></svg>