<svg xmlns="http://www.w3.org/2000/svg" xmlns:xlink="http://www.w3.org/1999/xlink" width="64" height="64" viewBox="0 0 5.75 8.781"><svg overflow="visible" x="-.047" y="7.265"><path style="stroke:none" d="M3.703-7.016c-.062-.218-.172-.25-.5-.25-.078 0-.172.063-.297.235v.937C1.781-5.766.984-5.047.984-4.359c.047.828.72 1.28 1.922 1.312v2.36c-.39-.016-.719-.063-1-.188l-.593-.39a.595.595 0 0 0-.297-.063c-.235.016-.36.14-.36.39.078.72.594.97 2.25 1.063V1.25l.047.172a.613.613 0 0 0 .36.094c.187 0 .28-.047.374-.235L3.704.063C5.078-.22 5.797-.922 5.797-1.97c0-.984-.797-1.687-2.094-1.765v-1.688l.344.016c.547.11.89.156 1.031.156.266-.031.36-.11.36-.422-.047-.266-.891-.531-1.72-.531zM.063-1.844l-.016.094a.54.54 0 0 0 .344.25l.203.234c.015.016.031.032.078.032C.75-1.25.75-1.25.75-1.36l-.156-.204-.078-.187C.422-1.906.39-1.906.28-1.906l-.015.078c.109.062.156.094.187.219l-.156-.063-.14-.156zM1.188-.812l-.125-.11V-1l.125.016.015-.079-.047-.078h.11l.171.11c0 .125-.015.14-.046.218zm-.25.28L.813-.608.796-.766c.015.047.047.063.172.063.015-.031.015-.047.015-.063 0-.03 0-.046-.015-.078h.062l.125.11.016.156c-.031.047-.063.047-.234.047zM3.703-.75v-2.172l.531.172c.438.203.625.469.625.844-.015.468-.39.906-1.156 1.156zm-.797-3.063c-.5 0-.906-.234-.906-.546.016-.391.344-.75.906-.922zm0 0"/></svg></svg>