<svg xmlns="http://www.w3.org/2000/svg" xmlns:xlink="http://www.w3.org/1999/xlink" width="64" height="64" viewBox="0 0 6.875 7.219"><svg overflow="visible" x="-.438" y="7.156"><path style="stroke:none" d="M3.344-7.156C2.14-7.141 1-6.344.438-5.11l.984-.188C3.14-5.125 4-4.219 4-2.578c0 .219-.016.469-.047.703-.219.781-.703 1.36-1.437 1.781.343.11.75.157 1.218.157C5.954 0 7.313-1.563 7.313-4.141c-.47-2.015-1.797-3.015-3.97-3.015zM3.266-.22c1.109-.733 1.671-1.67 1.671-2.827-.03-.875-.546-1.64-1.53-2.328-.313-.172-.688-.25-1.157-.25-.39 0-.86.063-1.375.203v-.016C1.578-6.155 2.328-6.5 3.156-6.5c1.875.125 3.14 1.484 3.14 3.344C6.267-1.578 5-.312 3.267-.203zm0 0"/></svg></svg>