<svg xmlns="http://www.w3.org/2000/svg" xmlns:xlink="http://www.w3.org/1999/xlink" width="64" height="64" viewBox="0 0 10.375 10.125"><svg overflow="visible" x="-.984" y="7.141"><path style="stroke:none" d="M8.328-4.719c-.5.703-.922 1.407-1.375 2.11-.312-.11-.516-.297-.578-.563-.031-.062-.031-.14-.031-.234 0-.39.218-.906.593-1.422.657-.938 1.829-1.297 2.985-1.656.14-.032.265-.079.39-.11a7.612 7.612 0 0 0-1.984 1.875zm.531.094c.594-.844 1.47-1.656 2.47-2.281a.12.12 0 0 0 .03-.078l-.015-.079c-.016 0-.016-.015-.016-.03 0-.032-.047-.048-.078-.048h-.031c-1.781.75-3.719.672-4.813 2.204-.343.5-.531.984-.531 1.406a.99.99 0 0 0 .094.437c.125.36.437.594.843.703-.14.204-.265.391-.406.594a96.18 96.18 0 0 1-1.172 1.61c-.125.015-.25.046-.375.078-1.25.28-2.953.656-3.515 1.437-.235.344-.36.672-.36.969 0 .062 0 .125.016.187.094.329.39.5.797.5.766 0 1.719-.703 2.516-1.375A21.022 21.022 0 0 0 6.077-.17c.984-.266 1.953-.61 2.328-1.173.016-.015.031-.031.031-.047 0-.062-.046-.078-.093-.078h-.016c-.031 0-.062 0-.078.016-.313.437-1.078.75-1.938.984.344-.406.657-.812.938-1.219.156-.218.281-.421.39-.625.298-.03.641-.14.97-.328.359-.203.718-.484.937-.796.281-.407.36-.782.36-1.11 0-.125-.016-.234-.032-.344a.074.074 0 0 0-.078-.078H9.78c-.031 0-.062.032-.094.032-.03.015-.046.046-.046.093.015.078.015.157.015.235 0 .328-.094.687-.36 1.078a2.8 2.8 0 0 1-.812.719c-.25.14-.5.234-.718.265.343-.687.593-1.375 1.093-2.078zm.829-.313c-.016.016-.032.016-.032.016s.016 0 .031-.016zm-7.86 7.704c-.36 0-.578-.141-.625-.36a.555.555 0 0 1-.031-.156c0-.219.11-.5.328-.813C1.984.766 3.578.407 4.89.095l.141-.032c-.39.47-.781.938-1.25 1.391-.656.656-1.375 1.313-1.953 1.313zm0 0"/></svg></svg>