<svg xmlns="http://www.w3.org/2000/svg" xmlns:xlink="http://www.w3.org/1999/xlink" width="64" height="64" viewBox="0 0 11.5 5.484"><svg overflow="visible" x="-.218" y="5.328"><path style="stroke:none" d="M5.844.156c.172-.344.328-.515.453-.515s.266-.047.437-.125c.032-.032.079-.032.11-.032.125 0 .25.141.328.454l.187-.391v.39L7.594-.5c-.172-.094-.25-.25-.25-.453 0-.328.14-.953.984-.953.328 0 .75.078 1.266.234 0-.406.203-.625.61-.625.171 0 .358.031.593.11-.016-.094-.047-.188-.047-.266 0-.39.328-.656.969-.781-.86-.688-1.735-1.079-2.625-1.125l.203-.22c-.219 0-.36.048-.39.126-.048.094-.313.187-.798.312a4.99 4.99 0 0 0-1.078.375.734.734 0 0 1-.312.11c-.094 0-.125-.031-.125-.156 0-.11.031-.25.093-.422.063-.141.079-.297.079-.47-.032-.468-.079-.624-.172-.624-.094 0-.469.547-.75 1.047-.157-.297-.688-1.016-.766-1.016-.094 0-.219.375-.219.656a.78.78 0 0 0 .11.407c.078.14.125.25.125.343 0 .125-.063.188-.172.188a.875.875 0 0 1-.39-.11 3.253 3.253 0 0 0-.954-.312c-.328-.063-.562-.125-.672-.203-.14-.094-.281-.094-.484-.094l.265.156C1.5-4.094.672-3.687.22-3.062c.547.015.828.171.828.484a.993.993 0 0 1-.14.453 1.22 1.22 0 0 1 .452-.094c.344 0 .61.203.782.61.421-.157.78-.235 1.078-.235.61 0 1.11.516 1.11.985 0 .14-.079.25-.22.328v.437l.188-.265v.328c.156-.281.297-.422.422-.422.047 0 .093.016.11.031.14.094.28.125.421.125.328 0 .438 0 .594.453zm0 0"/></svg></svg>