<svg xmlns="http://www.w3.org/2000/svg" xmlns:xlink="http://www.w3.org/1999/xlink" width="64" height="64" viewBox="0 0 7.078 7.312"><svg overflow="visible" x="-.281" y="7.219"><path style="stroke:none" d="M.281-5.688c.61 0 1.188-.25 1.531-.687l.266.344 1.047.422H4.25c-1.484.968-2.313 1.734-2.438 2.296-.78.266-1.28.922-1.468 1.938.187-.375.437-.719.765-1.047l.5-.281-.078.844C1.578-.563 2.516.094 4.36.094h.36C6.047-.296 6.703-.984 6.703-1.97c0-.125 0-.25-.031-.39-.375-1.063-1.063-1.61-2.11-1.61-.39 0-.812.078-1.296.235.828-1.079 2.203-2.204 4.093-3.407l-1.093.407-1.407.359a2.909 2.909 0 0 1-.75.078c-.921 0-1.718-.281-2.437-.922-.375.782-.828 1.313-1.39 1.532zm3.844 5.5c-.797 0-1.5-.89-1.5-1.89 0-.14 0-.281.016-.422l.421-.813c.547-.203.672-.218 1.454-.218.796.375 1.203.937 1.203 1.703-.063.937-.688 1.64-1.594 1.64zm0 0"/></svg></svg>