<svg xmlns="http://www.w3.org/2000/svg" xmlns:xlink="http://www.w3.org/1999/xlink" width="64" height="64" viewBox="0 0 5.875 5.984"><svg overflow="visible" x="-.016" y="5.906"><path style="stroke:none" d="M3.734-5.906C2.328-5.828 1.25-4.97.922-3.672H.219l-.203.516h.812v.469H.203l-.187.53h.906C1.25-.843 2.406.079 3.734.079c.829-.015 1.422-.234 1.954-.703v-.703c-.532.594-1.235.906-1.922.906-1.047 0-1.985-.687-2.313-1.734H4.72l.203-.531H1.344v-.47h3.781l.203-.515H1.453c.328-1.047 1.219-1.703 2.39-1.734.657 0 1.282.297 1.86.89l.188-.5a2.937 2.937 0 0 0-2.157-.89zm0 0"/></svg></svg>