<svg xmlns="http://www.w3.org/2000/svg" xmlns:xlink="http://www.w3.org/1999/xlink" width="64" height="64" viewBox="0 0 7.328 7.328"><svg overflow="visible" x="-.422" y="7.235"><path style="stroke:none" d="M7.75-3.578a3.65 3.65 0 0 0-3.656-3.656A3.654 3.654 0 0 0 .422-3.578C.422-1.5 2.047.094 4.094.094S7.75-1.531 7.75-3.578zm-.578 0c0 1.75-1.344 3.094-3.078 3.094A3.08 3.08 0 0 1 1-3.578a3.087 3.087 0 0 1 3.094-3.078c2.078 0 3.078 1.765 3.078 3.078zm-1.406-1.25L5.703-5c-.047-.14-.234-.25-.344-.25l-.187.063-.125.093a.459.459 0 0 0-.094.266c.063.297.25.406.406.406l.282-.156c.078-.11.125-.203.125-.25zm-2.532 0-.125-.313a.368.368 0 0 0-.156-.078l-.125-.031c-.172.063-.281.11-.312.14l-.11.282.11.266c.171.093.265.125.312.125.36-.141.406-.235.406-.391zM2.031-3.125c.766 1.188 1.5 1.781 2.188 1.781.656 0 1.281-.547 1.86-1.625a.533.533 0 0 1 .234.344v-.188c0-.28-.125-.421-.375-.421-.11 0-.266.03-.438.078.219.015.406.062.531.156-.625.531-1.25.813-1.89.813-.688 0-1.375-.329-2.094-.954a1.14 1.14 0 0 1 .562-.171 1.298 1.298 0 0 0-.437-.094c-.25 0-.375.14-.375.437v.188a.533.533 0 0 1 .234-.344zm0 0"/></svg></svg>