<svg xmlns="http://www.w3.org/2000/svg" xmlns:xlink="http://www.w3.org/1999/xlink" width="64" height="64" viewBox="0 0 5.5 7.484"><svg overflow="visible" x="-.281" y="7.265"><path style="stroke:none" d="M.64.219C1.688-.75 2.298-1.937 2.5-3.328h1.14C4.188-1.016 4.89.14 5.767.14c-.72-.672-1.079-1.813-1.079-3.422l1 .219a.82.82 0 0 0 .094-.36c0-.11-.36-.234-1.093-.344 0-1.234.343-2.39 1-3.421-1.235.968-1.922 2.062-2.063 3.296H2.5c0-.859-.313-1.718-.938-2.593-.25-.36-.687-.61-1.28-.782C.843-6.875 1.327-5.5 1.421-4c0 .172-.047.266-.14.297L.5-3.484l-.078.5 1-.297c0 1.437-.203 2.031-.781 3.5zm0 0"/></svg></svg>