<svg xmlns="http://www.w3.org/2000/svg" xmlns:xlink="http://www.w3.org/1999/xlink" width="64" height="64" viewBox="0 0 11.813 7.531"><svg overflow="visible" x="-.297" y="7.172"><path style="stroke:none" d="M1.234-.14C1-.14.813-.173.688-.313a.373.373 0 0 1-.032-.141V-.5a.456.456 0 0 0 .14.031c.25 0 .579-.203.579-.406 0-.266-.156-.36-.344-.36-.172 0-.375.079-.468.204a.385.385 0 0 0-.094.078.79.79 0 0 0-.172.469c0 .359.406.562.875.562 1.406 0 2.625-1.906 3.75-3.156.719-.828 1.656-1.531 2.61-2.235-.86 1.172-1.845 2.344-2.688 3.516A3.1 3.1 0 0 0 4.28-.344v.14c0 .266.078.563.453.563.297 0 1.97-1.968 2.97-3.156l.25-.297c.484-.562 1.03-1.078 1.624-1.61-.625.97-1.187 1.938-1.875 2.907-.328.453-.453.89-.453 1.266v.156c.047.36.25.656.719.656.328 0 .734-.219 1.078-.469a4.703 4.703 0 0 0 1.078-1.078c0-.015.016-.03.016-.046s-.016-.047-.047-.063c0-.016-.031-.016-.031-.016h-.11c-.031 0-.062 0-.078.032-.25.359-.578.718-.969 1.015-.312.219-.656.406-.906.406-.11 0-.172-.078-.172-.203 0-.062.016-.156.047-.25.094-.406.344-.859.672-1.312.906-1.281 1.469-2.547 2.375-3.828L12.109-7v-.047c0-.016 0-.047-.015-.062l-.031-.016-.11-.031c-.016 0-.047.015-.062.015l-1.688 1.516c-.11.094-.187.203-.281.297-.797.687-1.563 1.375-2.203 2.14C6.344-1.562 4.984 0 4.859 0c-.015 0-.03-.016-.03-.047 0-.047.03-.156.124-.375.172-.406.438-.844.75-1.266L8.437-5.53 9.61-6.984c.016-.032.016-.032.016-.047a.12.12 0 0 0-.031-.078L9.5-7.156l-.047-.016c-.015 0-.031.016-.047.031C7.922-5.75 5.984-4.67 4.672-3.203c-1.328 1.515-2.156 3-3.344 3.062zm0 0"/></svg></svg>