<svg xmlns="http://www.w3.org/2000/svg" xmlns:xlink="http://www.w3.org/1999/xlink" width="64" height="64" viewBox="0 0 9.813 7.312"><svg overflow="visible" x="-.468" y="7.141"><path style="stroke:none" d="M3.203.047s-.015.015-.015.031c0 .047.046.094.078.094h.109c.031 0 .047-.016.063-.031C4.671-1.11 6.5-2.11 7.452-3.438c1.063-1.515 1.344-2.578 2.766-3.156.015-.015.047-.047.047-.078l.015-.25a.067.067 0 0 0-.062-.062c-.016 0-.031 0-.047.015-1.594.657-1.406 1.203-2.969 3.438-.734 1.015-2.016 1.844-3.11 2.765.72-1.03 1.516-2.187 1.782-2.687.64-1.188.938-2.344 1.797-3.563.016-.015.016-.03.016-.046 0-.032-.032-.079-.079-.079H7.5c-.016 0-.047 0-.063.016C5.86-5.5 4.485-3.844 3.048-2.187c.25-.438.453-.86.625-1.266.469-1.219 1.14-2.89 1.781-3.563.016 0 .031-.015.031-.046 0-.032-.015-.047-.03-.063-.016-.016-.048-.016-.063-.016h-.11c-.015 0-.031 0-.062.016a12.948 12.948 0 0 0-1.594 2c-.36.234-.781.375-1.125.375-.156 0-.25-.063-.25-.172 0-.062.047-.156.14-.25.22-.219.297-.406.297-.578 0-.313-.312-.531-.78-.531-.516 0-1.048.656-1.423 1.172 0 .015-.015.03-.015.046 0 .047.047.094.078.094h.125c.015 0 .047-.015.062-.047.375-.53.766-1.046 1.141-1.046.188 0 .297.093.297.234 0 .14-.094.328-.281.531-.141.14-.204.266-.204.375 0 .25.375.39.766.39.281 0 .625-.077.953-.218-.25.406-.453.828-.61 1.234C2.314-2.312 1.642-.64 1 .031.984.047.984.063.984.078c0 .031 0 .047.016.063.016.015.031.03.063.03h.109c.031 0 .047-.015.062-.03 1.141-1.172 2.188-2.375 3.22-3.579.64-.75 1.28-1.5 1.952-2.234-.61.875-1.187 1.734-1.406 2.14-.64 1.204-.938 2.36-1.797 3.579zm0 0"/></svg></svg>