<svg xmlns="http://www.w3.org/2000/svg" xmlns:xlink="http://www.w3.org/1999/xlink" width="64" height="64" viewBox="0 0 9.359 7.359"><svg overflow="visible" x="-.938" y="7.141"><path style="stroke:none" d="M4.688-6.5c-.75.39-1.454.953-1.891 1.563-.36.484-.547.968-.547 1.39v.172c.078.438.422.688.953.688.422 0 .938-.22 1.39-.516a5.403 5.403 0 0 0 1.313-1.281c.328-.454.422-.875.422-1.25 0-.172-.016-.329-.031-.47 0-.046-.047-.077-.094-.077a.222.222 0 0 0-.094.031c-.03.016-.046.063-.046.094.015.047.015.11.015.172 0 .39-.187.875-.562 1.406a5.143 5.143 0 0 1-1.141 1.203c-.39.281-.813.469-1.125.469-.453 0-.703-.203-.734-.516-.016-.047-.016-.094-.016-.125 0-.36.203-.812.531-1.281.406-.578 1.063-1.125 1.781-1.484.797-.422 1.579-.61 2.22-.61.937 0 1.718.188 2.187.61-1.11.906-2.031 2.078-2.844 3.218a.475.475 0 0 0-.11-.078.387.387 0 0 1-.14-.297c0-.094.031-.203.11-.312a1.15 1.15 0 0 1 .296-.328c.094-.063.188-.11.25-.11.032 0 .047-.015.063-.031l.047-.063v-.046c0-.016 0-.047-.016-.063-.031-.016-.031-.016-.063-.016-.14 0-.296.079-.421.172A1.51 1.51 0 0 0 6-3.891a.75.75 0 0 0-.156.438c0 .187.093.328.234.437.047.047.11.079.156.11-.093.14-.187.281-.28.406C5.03-1.203 3.453 0 2.296 0c-.625 0-1.078-.203-1.078-.594 0-.094.031-.187.078-.297a.355.355 0 0 0 .25.094c.25 0 .547-.203.547-.39 0-.25-.156-.344-.328-.344a.726.726 0 0 0-.563.297c-.187.25-.266.484-.266.671 0 .516.594.782 1.329.782 1.484 0 3.515-1.157 4.546-2.61l.204-.296h.328A3.21 3.21 0 0 0 8.719-3c.39-.188.797-.453 1.031-.781.375-.531.531-1 .531-1.406 0-.391-.14-.72-.36-.985a1.095 1.095 0 0 0-.124-.156c.187-.203.344-.344.469-.422.015-.016.03-.031.03-.063l-.03-.125c0-.03-.047-.046-.079-.046-.015 0-.03 0-.046.015a7.32 7.32 0 0 0-.625.422c-.594-.422-1.47-.594-2.438-.594-.703 0-1.531.204-2.39.641zM7.39-2.906h-.22c.75-1.047 1.626-2.281 2.313-3.078.094.171.141.375.141.609 0 .438-.172.938-.563 1.484-.187.266-.421.532-.718.704a1.878 1.878 0 0 1-.953.28zm0 0"/></svg></svg>