<svg xmlns="http://www.w3.org/2000/svg" xmlns:xlink="http://www.w3.org/1999/xlink" width="64" height="64" viewBox="0 0 8.313 8.281"><svg overflow="visible" x="-.484" y="6.328"><path style="stroke:none" d="M7.89.016C7.282.78 6.298 1.172 4.923 1.172 2.656 1.172 1.266 0 1.266-1.906c0-2.172 1.406-3.625 3.625-3.625 1.75 0 2.906.984 2.906 2.484 0 1.11-.906 2.266-1.516 2.266-.11 0-.172-.078-.172-.219l.72-3.453H5.687l-.11.469c-.25-.375-.625-.579-1.125-.579-1.312 0-2.344 1.297-2.344 2.86 0 1.078.672 1.797 1.657 1.797.453 0 .843-.157 1.171-.485.094.344.313.485.782.485 1.578 0 2.86-1.407 2.86-3.094 0-1.984-1.485-3.328-3.673-3.328C2-6.328.484-4.281.484-1.968c0 1.515.735 3.921 4.5 3.921 1.86 0 3.204-.672 3.813-1.937zM3.22-1.75c0-1.125.594-2.031 1.328-2.031.5 0 .797.406.797 1C5.344-1.72 4.78-.687 4-.687c-.672 0-.781-.672-.781-1.063zm0 0"/></svg></svg>