<svg xmlns="http://www.w3.org/2000/svg" xmlns:xlink="http://www.w3.org/1999/xlink" width="64" height="64" viewBox="0 0 9.438 7.234"><svg overflow="visible" y="7.203"><path style="stroke:none" d="m8.906-7.188-5.25-.015-.125.422h-.515c-.344 1.125-.532 2-.579 2.625l-.25.281H1.47l-.516.86-.437.874L0-.656.406.03h6.032l2.984-2.078V-4.89h.015-1.656l.188-.906h.5zm-.547.907-.156-.422-.015-.078-4.407-.016.047-.156h4.75zm-.296.25.078-.25.062.25zm-5.407 2.14c0-.515.266-1.828.547-2.64h4.735v.015c-.266.782-.438 1.657-.516 2.625zM8-3.734l-.031-.032-.297-.062-.016-.031.078-.797H8.97l-.36.297-.53.593c0 .032 0 .032-.079.032zM6.437-.266l-.25-.437.188-.516L6.719-2l.922-1.594.5.125.562-.64.485-.407v2.329zM.298-.812l.375-1.063c0-.016.14-.328.453-.953l.469-.781H7.36c-.328.453-.875 1.39-1.375 2.796zm.219.578L.344-.563h5.672v.047l.171.282zM4.53-3.516l-.218.297-.47.766-.437.875-.219.594h2.391l.14-.407.438-.89.5-.875.235-.297.03-.063zm-2.781.141c-.063.078-.219.36-.469.86h2.203l.172-.344.297-.485v-.031zm-.078.61.203-.36H3.53l-.187.36zm2.75-.172.219-.329h.25l-.032.032-.171.296zm.797 0 .218-.329h.235l-.031.032-.172.296zm.781 0 .219-.329h.234l-.203.329zm-2.078.859.203-.39h.266l-.157.39zm.797 0 .187-.39h.282L5-2.079zm.781 0 .188-.39h.28l-.171.39zm-1.969.844.14-.36.298-.015-.11.359zm.781 0 .157-.375h.281l-.11.359zm.782 0 .156-.375h.297l-.14.359zm0 0"/></svg></svg>