<svg xmlns="http://www.w3.org/2000/svg" xmlns:xlink="http://www.w3.org/1999/xlink" width="64" height="64" viewBox="0 0 10.25 7.312"><svg overflow="visible" x="-1.031" y="7.141"><path style="stroke:none" d="M4.75-4.578c-.172.219-.328.453-.578.625-.219.156-.453.25-.64.25-.36 0-.548-.203-.548-.5v-.047c0-.36.204-.813.547-1.281.25-.375.625-.735 1.063-1 .422-.25.86-.39 1.203-.39.719 0 1.078.405 1.078.984v.062c-.016.656-.422 1.469-.969 2.313H5.11c-.03 0-.062 0-.078.03L5-3.483c-.016.015-.016.03-.016.062 0 .016.016.047.032.047.015.016.03.031.046.031h.688c-.031.047-.063.11-.11.156-.53.766-1.093 1.547-1.827 2.235-.5.469-1.047.89-1.47.89-.609 0-1.03-.187-1.03-.562 0-.078.015-.156.062-.266a.368.368 0 0 0 .25.079c.266 0 .547-.188.547-.375 0-.25-.14-.344-.328-.344a.726.726 0 0 0-.563.297c-.172.25-.25.468-.25.64 0 .5.563.766 1.266.766.61 0 1.375-.469 2.031-.969a9.124 9.124 0 0 0 1.203-1.11c-.125.329-.203.657-.203.954v.094c.031.593.39 1.03 1.125 1.03.344 0 .781-.265 1.14-.562.516-.39.907-.859 1.235-1.296.016-.032.016-.032.016-.063s-.047-.078-.078-.078h-.11a.12.12 0 0 0-.078.031 5.586 5.586 0 0 1-1.125 1.25c-.328.266-.703.485-.969.485-.609 0-.89-.344-.906-.829v-.03c0-.626.36-1.376.922-2.173l.172-.25h.875c.031 0 .062-.015.062-.047.032-.03.063-.062.063-.093 0-.032-.016-.047-.031-.079h-.797a18.254 18.254 0 0 1 1.922-2.265c.562-.547 1.125-1.094 1.578-1.094h.156c-.125.078-.219.188-.219.297 0 .25.14.328.328.328.204 0 .454-.11.563-.281a.498.498 0 0 0 .11-.266c0-.297-.579-.297-.891-.297-.579 0-1.266.657-1.782 1.172-.484.453-.906.938-1.312 1.407A3.05 3.05 0 0 0 7.5-5.624c0-.094 0-.203-.016-.297-.125-.75-.703-1.219-1.656-1.219-.39 0-.89.157-1.36.438-.484.297-.905.672-1.187 1.078-.344.484-.562.969-.562 1.39v.079c.031.39.297.672.781.672.281 0 .64-.11.969-.297.312-.188.61-.438.812-.703.297-.422.453-.844.453-1.204a.872.872 0 0 0-.187-.562.118.118 0 0 0-.063-.031c-.015 0-.03 0-.046.015l-.063.032c-.031.03-.047.046-.047.078v.062c0 .438-.187.953-.578 1.516zm0 0"/></svg></svg>