<svg xmlns="http://www.w3.org/2000/svg" xmlns:xlink="http://www.w3.org/1999/xlink" width="64" height="64" viewBox="0 0 7.047 7.141"><svg overflow="visible" x="-.953" y="7.062"><path style="stroke:none" d="M5.203-4.922c-.016.031-.031.047-.031.063 0 .03.016.062.047.078.297.172.656.343 1.125.36-.078.655-.516 1.468-1.094 2.28-.344.5-.75 1-1.297 1.438-.422.328-.906.562-1.25.562-.781 0-1.125-.437-1.125-1.062v-.047c.031-.828.594-1.86 1.328-2.89.469-.673.969-1.344 1.672-1.923.531-.437 1.156-.78 1.594-.78.64 0 1.156.14 1.422.468.093.11.14.25.14.406 0 .203-.078.422-.25.688a1.408 1.408 0 0 1-.5.453c-.078.047-.14.094-.218.11-.094-.579-.5-.97-1.25-.97-.375 0-.844.329-1.235.641-.547.469-1 .984-1.375 1.516-.594.844-.844 1.64-.937 2.36v.046a.086.086 0 0 0 .078.047s.031 0 .031-.016l.14-.047c.032 0 .048-.03.048-.062a4.922 4.922 0 0 1 .89-2.234c.36-.5.766-1.016 1.281-1.454.36-.312.75-.578 1.047-.578.594 0 .86.328.86.828-.39-.03-.672-.187-.985-.343C5.344-5 5.33-5 5.313-5s-.032.016-.063.031zm1.922.281c.234-.14.453-.343.594-.546C7.922-5.47 8-5.734 8-5.97a.802.802 0 0 0-.188-.547c-.328-.406-.921-.546-1.609-.546-.61 0-1.406.359-2.11.828a8.062 8.062 0 0 0-2.046 2C1.359-3.266.953-2.297.953-1.5c0 .094 0 .188.016.281.094.797.687 1.297 1.687 1.297.469 0 1.078-.25 1.594-.625a5.842 5.842 0 0 0 1.531-1.5c.594-.844.985-1.703.985-2.422V-4.5c.125-.031.25-.078.359-.14zm0 0"/></svg></svg>