<svg xmlns="http://www.w3.org/2000/svg" xmlns:xlink="http://www.w3.org/1999/xlink" width="64" height="64" viewBox="0 0 8.906 7.203"><svg overflow="visible" x="-.344" y="7.062"><path style="stroke:none" d="M6.406-7.063c-.703 0-1.515.188-2.375.625-.718.36-1.422.907-1.86 1.5-.343.485-.546.97-.546 1.375 0 .079.016.141.016.188.078.438.406.688.953.688.344 0 .765-.11 1.172-.313.375-.203.734-.484.953-.781.39-.563.562-1.094.562-1.547 0-.094-.015-.188-.031-.281 0-.047-.047-.079-.094-.079a.301.301 0 0 1-.078.047c-.031.016-.047.032-.047.063v.078c0 .422-.406 1-.828 1.61a2.57 2.57 0 0 1-.719.703c-.296.203-.609.28-.859.28-.438 0-.688-.202-.734-.515v-.125c0-.36.187-.812.53-1.281.392-.563 1.032-1.078 1.735-1.438.782-.39 1.563-.578 2.203-.578.75 0 1.391.11 1.829.39-1.626 1.204-2.767 2.83-3.83 4.314C3.641-1.109 2.58-.078 1.75-.078 1.062-.078.547-.266.547-.656a.76.76 0 0 1 .078-.297c.063.11.172.156.297.156.25 0 .547-.203.547-.39 0-.25-.14-.344-.328-.344a.75.75 0 0 0-.563.297C.406-1 .344-.797.344-.625c0 .531.64.766 1.36.766 1.14 0 2.702-1.032 3.515-2.188a30 30 0 0 1 .703-.969c.14.047.297.063.453.063.36 0 .797-.14 1.219-.375a.795.795 0 0 1 .328.39c.016.079.031.157.031.25 0 .329-.172.782-.5 1.235-.25.344-.516.672-.89.937-.313.235-.657.375-.907.375-.328 0-.547-.125-.593-.328-.016-.047-.016-.094-.016-.14 0-.204.094-.454.297-.735.125-.187.375-.343.61-.453.312-.14.593-.187.843-.187.031 0 .047-.016.078-.032l.031-.062c.016 0 .016-.031.016-.047 0-.031-.047-.078-.078-.078-.297 0-.625.062-.969.219-.266.125-.563.312-.719.53-.218.313-.328.61-.328.876 0 .062 0 .125.016.187.093.313.375.47.765.47.375 0 .829-.157 1.266-.423.438-.265.828-.64 1.094-1 .297-.437.453-.843.453-1.203a.991.991 0 0 0-.11-.484 1.125 1.125 0 0 0-.453-.485 3.615 3.615 0 0 0 1.032-.968c.25-.36.359-.688.359-.985 0-.328-.14-.625-.375-.843a.74.74 0 0 0-.156-.157c.14-.125.265-.203.375-.281.015-.016.031-.031.031-.063l-.016-.109a.106.106 0 0 0-.093-.062s-.032 0-.032.015l-.515.328c-.547-.312-1.266-.421-2.063-.421zm.407 3.329c-.125 0-.25 0-.391.03.703-.968 1.437-1.921 2.047-2.53a.931.931 0 0 1 .265.671c0 .282-.109.61-.375.985-.218.328-.5.656-.859.922a2.974 2.974 0 0 0-.688-.078zm-.422.437c.078-.125.125-.156.125-.156.078-.063.171-.063.265-.063.172 0 .328.016.469.047-.297.172-.594.281-.828.281h-.11c.016-.03.047-.062.079-.109zm0 0"/></svg></svg>