<svg xmlns="http://www.w3.org/2000/svg" xmlns:xlink="http://www.w3.org/1999/xlink" width="64" height="64" viewBox="0 0 8.984 7.469"><svg overflow="visible" x="-.938" y="7.25"><path style="stroke:none" d="M5.453-2.14C4.687-1.063 3.593 0 2.72 0c-.89 0-1.563-.172-1.563-.64 0-.094.016-.188.078-.313.079.11.188.156.297.156.266 0 .563-.203.563-.39 0-.25-.156-.344-.328-.344a.726.726 0 0 0-.563.297c-.187.25-.266.468-.266.64 0 .61.86.813 1.735.813 1.187 0 2.781-1.063 3.64-2.266.594-.86.579-1.61 1.172-2.437a9.39 9.39 0 0 1 1.188-1.344.118.118 0 0 0 .031-.063l-.015-.093c-.016-.047-.047-.063-.094-.063h-.047c-.625.406-1.203.922-1.594 1.469-.578.812-.922 1.625-1.5 2.437zm4.469-4.266c0-.047-.047-.078-.078-.078-1.281 0-1.922-.766-3.25-.766-.563 0-1.266.188-1.938.578-.656.36-1.25.844-1.625 1.39-.25.36-.406.735-.406 1.048 0 .062.016.14.031.203.078.343.39.547.844.547.39 0 .86-.079 1.344-.297.375-.156.765-.39.984-.703.219-.329.36-.657.36-.922a.67.67 0 0 0-.391-.625l-.047-.016c-.016 0-.031.016-.047.031l-.062.032a.12.12 0 0 0-.032.078v.031a.726.726 0 0 1 .079.328c0 .266-.125.61-.391.969-.156.234-.438.469-.719.625-.375.172-.734.25-1.047.25-.36 0-.578-.172-.625-.406-.015-.032-.015-.079-.015-.125 0-.25.14-.594.39-.954.313-.437.813-.843 1.36-1.109a3.625 3.625 0 0 1 1.671-.406c1.297 0 1.938.766 3.25.766.032 0 .063-.016.063-.032l.281-.39c.016-.016.016-.032.016-.047zm0 0"/></svg></svg>