<svg xmlns="http://www.w3.org/2000/svg" xmlns:xlink="http://www.w3.org/1999/xlink" width="64" height="64" viewBox="0 0 6.766 7.219"><svg overflow="visible" x="-.422" y="7.125"><path style="stroke:none" d="m5.172-7.125-.453.89H.422v4.485h2.344L2.734.094l2.438-.828-1.469-.157.625-.859h2.86v-4.484H5.89l.703-.891zM3.547-4.031 1.03-5.938h3.532zM.78-2.36v-3.375l2.203 1.718zm.11.265 2.36-1.718.14.11-.265.515 1.5-.39.078.047-.86 1.437zm3.75-2.469 1.03-1.375h.876zm2.14 2.235L5.438-3.375l.828-1.188-1.704.454 2.22-1.594zm-2.28.235.75-1.031 1.375 1.031zm-1.219.906-.375-.562h.75zm0 0"/></svg></svg>