<svg xmlns="http://www.w3.org/2000/svg" xmlns:xlink="http://www.w3.org/1999/xlink" width="8pt" height="64" viewBox="0 0 8 7.187"><svg overflow="visible" x="-.422" y="7.109"><path style="stroke:none" d="M3.094-5.625C1.563-5.625.422-4.344.422-2.547.469-1.03 1.75.078 3.39.078 5 0 6.125-1.188 6.125-2.734c0-.547-.172-1.047-.5-1.5v-.22l1.5-1.234.078 1.579 1.219-3h-.203l-2.813.953 1.438.14-1.485 1.297c-.53-.61-1.296-.906-2.265-.906zm.422 5.219c-1.563-.86-2-1.953-2-3.563.312-.812.718-1.203 1.218-1.203 1.36.203 2.422 1.672 2.422 3.375-.015.797-.578 1.39-1.422 1.39l-.218-.015zm0 0"/></svg></svg>