<svg xmlns="http://www.w3.org/2000/svg" xmlns:xlink="http://www.w3.org/1999/xlink" width="64" height="64" viewBox="0 0 6.281 7.344"><svg overflow="visible" x="-.234" y="7.25"><path style="stroke:none" d="M4.156-7.25c-1.39 0-2.156.766-2.468 1.172-.391.578-.594 1.11-.61 1.562H.562l-.328.844H1v.61l-.484-.016-.282.844h.922C1.5-.688 2.61.094 4.453.094c.938-.11 1.531-.36 1.781-.781V-1.86c-.515.671-1.296 1.015-2.28 1.078-.876-.172-1.454-.656-1.767-1.453h2.688l.313-.829H1.983l-.062-.609H5.39l.046-.11.266-.718H2.031c.11-1.11.953-1.875 1.969-1.875.89 0 1.594.313 2.11.922l.406-.89c-.47-.61-1.266-.907-2.36-.907zm0 0"/></svg></svg>