<svg xmlns="http://www.w3.org/2000/svg" xmlns:xlink="http://www.w3.org/1999/xlink" width="64" height="64" viewBox="0 0 9.625 7.219"><svg overflow="visible" x="-.344" y="7.141"><path style="stroke:none" d="M7.36-1.469c-.376.375-.876.672-1.313.766l3.906-6.313c.016-.015.016-.03.016-.046 0-.032-.016-.063-.031-.063-.016-.016-.032-.016-.047-.016h-.11c-.031 0-.047.016-.078.032l-.094.14c-.609.422-1.218.875-1.812 1.313a31.93 31.93 0 0 0-2.219 1.812c-.36-.437-.937-.687-1.797-.687-.422 0-1 .187-1.281.578-.422.61-.61 1.14-.61 1.578 0 .64.391 1.11 1.032 1.422-.547.469-1.188.812-1.688.812-.39 0-.64-.156-.64-.406 0-.078 0-.156.047-.234a.334.334 0 0 0 .265.125c.266 0 .563-.203.563-.39 0-.25-.157-.345-.328-.345a.756.756 0 0 0-.579.297c-.14.219-.218.407-.218.578 0 .36.344.594.86.594.593 0 1.343-.39 1.952-.922.516.203 1.156.328 1.86.375l-.235.344c-.015 0-.031.031-.031.047 0 .015.031.047.047.062.016.016.031.016.047.016h.718c.032 0 .063-.016.063-.047l.266-.406c.515-.078 1.14-.406 1.578-.86A.12.12 0 0 0 7.5-1.39v-.03a.086.086 0 0 0-.047-.079h-.031c-.016 0-.047 0-.063.031zm-1.298-.484c.016-.094.016-.203.016-.313 0-.53-.11-1.015-.36-1.39.704-.656 1.485-1.266 2.282-1.86.39-.28.781-.562 1.188-.843zM2.906-3.734c.219-.297.594-.579.844-.579.781 0 1.297.235 1.64.641a11.08 11.08 0 0 0-1.702 1.875 5.1 5.1 0 0 1-.532.625c-.5-.266-.797-.656-.797-1.156 0-.39.172-.86.547-1.406zm1.016 2.046c.437-.625.984-1.218 1.594-1.796.203.343.28.765.28 1.25 0 .234-.015.484-.062.734l-.578.813C4.47-.735 3.86-.845 3.375-1.063a2.91 2.91 0 0 0 .547-.625zm0 0"/></svg></svg>