<svg xmlns="http://www.w3.org/2000/svg" xmlns:xlink="http://www.w3.org/1999/xlink" width="64" height="64" viewBox="0 0 4.422 7.25"><svg overflow="visible" x="-.484" y="7.203"><path style="stroke:none" d="M.484-4.172h.547l.438-1.344h.828v1.704c-.594.078-1.094.437-1.469 1.046-.14.329-.14.454-.14 1.329C1.078-.454 1.78.046 2.796.046 4.062 0 4.64-1.016 4.64-1.656c0-1.125-.532-1.828-1.563-2.11v-1.75l.844.079c0 .39.062.578.422 1.265h.562c-.297-.516-.437-1.031-.437-1.547 0-.468.125-.937.36-1.406a.416.416 0 0 0-.188-.047c-.36 0-.594.469-.72 1.375h-.843v-1.406h-.781v1.406l-.828-.062-.36-1.204-.625-.062c.235.438.344.922.344 1.406 0 .485-.11 1-.344 1.547zM2.875-.39c-.938-.421-1.406-1.171-1.406-2.234.234-.578.531-.86.843-.86.47 0 1.563.907 1.563 2.094-.031.594-.328 1-1 1zm0 0"/></svg></svg>