<svg xmlns="http://www.w3.org/2000/svg" xmlns:xlink="http://www.w3.org/1999/xlink" width="64" height="64" viewBox="0 0 8.188 7.156"><svg overflow="visible" x="-.375" y="7.156"><path style="stroke:none" d="M.75-5.688c.281-.609.75-.906 1.39-.906.797 0 1.61.89 1.766 1.922V0h1.172a25.315 25.315 0 0 1-.125-2.297c0-2.64.563-4.062 1.703-4.281h.547c.688.312 1.016.64 1.016 1.016 0 .265-.172.53-.547.828l-.813.343.672.766c.813-.313 1.032-1.047 1.032-2.266-.36-.843-.891-1.265-1.61-1.265-.437 0-.953.172-1.547.5-.187 0-.453.531-.875 1.515-.187-.953-.797-1.625-1.86-1.984h-.89C.844-6.859.375-6.297.375-5.453c0 .922.547 1.703 1.266 1.828l.484-.766c-.453-.078-.89-.328-1.313-.75zm0 0"/></svg></svg>