<svg xmlns="http://www.w3.org/2000/svg" xmlns:xlink="http://www.w3.org/1999/xlink" width="64" height="64" viewBox="0 0 7.297 7.328"><svg overflow="visible" x="-.297" y="7.235"><path style="stroke:none" d="M3.938-7.234C1.64-7.188.344-5.47.296-3.484c.031 1.28.625 2.312 1.766 3.062l.484.234.328.126c.36.093.64.14.875.156 1.672 0 2.953-.828 3.578-2.281l.203-.626.047-.312.016-.797c-.016-.219-.094-.547-.235-1-.265-.703-.687-1.203-1.5-1.781l-.53-.266c-.516-.172-.97-.265-1.391-.265zM3.905.016C1.828-.047.344-1.578.344-3.656c.015-.922.437-1.875 1.14-2.563.032.016.047.016.047.047l.032.016.515-.407.422-.187h.14l.516-.172-.078.078c-.14 0-.39.078-.781.235l-.14.156-.016.031.25-.062.234.03c.11.032.11.032.172.032l.719-.234.093-.125c0-.032-.03-.032-.078-.063v-.031h.063l.297-.297c.453 0 .875.078.984.14l.188.25c0 .016-.016.048-.047.048l.015.078c.047.015.063.047.063.062v.032l-.157-.032-.109.14c-.016-.03-.016-.03-.047-.109h-.218l.015.11-.078.078.016.047-.047.031.015.047h-.171l-.047.172c-.094 0-.188-.031-.188-.078l.172-.219v-.031l-.11-.016-.171.297c0 .016 0 .047.015.063l.157.015.015.031-.281.079c-.031 0-.031-.016-.031-.063l-.031-.016c-.032 0-.032.032-.032.079L3.734-6l-.218-.172h-.172l-.188.047c-.062.078-.11.14-.203.172l-.187.031c-.094.078-.11.094-.141.203l.047.063.062-.032v.032l-.125.015-.093.141H2.39l-.047.063-.063-.016.047-.063.031-.203c.047-.015.079-.062.11-.11l-.094-.062-.125.141-.156-.016-.11.11.016.078c.078 0 .11.031.11.062l-.079.047.047.047-.015.016c-.047 0-.063.015-.094.031v.125c0 .031 0 .063-.078.156l-.11-.062c-.031 0-.047-.032-.047-.063h-.062l-.031.078-.11.11c-.062.125-.062.14-.062.172l.062.046v.032l.078.062h.094l.094-.062.031-.078.156-.032.047-.078h.031l.032.047.156-.016v.094l.078.188.047.047v.046h-.063c-.046 0-.093 0-.171-.015v.031l.14.11a.034.034 0 0 0 .031-.032L2.39-4.5l.046-.078.032-.016.047.016.03.047v.156l.079.016.063-.047.03.015.016-.062-.046-.078.109-.032v.172l.078.125h.078c.14.047.14.047.235.047l.015.032-.094.218c-.015.016-.015.016-.03.016-.017 0-.048 0-.079-.016h-.172L2.5-4.172h-.078c-.016.016-.031.016-.031.11 0 .03-.016.03-.063.03l-.11-.109-.015-.109c-.062 0-.125-.031-.14-.094l.046-.093-.015-.125-.016-.032c-.203-.047-.25-.062-.469-.062l-.093-.078-.094.062-.11.016c-.062.093-.109.156-.109.203-.156 0-.219.031-.25.14l-.125.11c0 .203-.015.281-.094.375l-.046.156c.03.25.062.406.109.516l.047.203c.047.031.078.031.156.031l.094.078h.187l.11.078.03.141h.126l.031.047c0 .265 0 .265-.031.297l.172.234.11.39-.048.048-.015.156.03.094.204.25c0 .078.016.109.047.125v.062c.156.11.25.219.281.281l.125.079.313.03.14-.046c.063-.094.11-.156.11-.203.093 0 .109 0 .109-.063L3.078-1c.047-.063.14-.094.25-.11l.078-.093-.062-.266-.063-.093c.016-.063.016-.063-.015-.141l.078-.125.187-.188.172-.093.203-.22L4-2.515l.031-.171-.078-.016-.062.062-.313.032c-.015-.016-.015-.047-.015-.063 0-.015 0-.015.015-.031.125 0 .86-.297.86-.516l.078-.094c0-.03-.016-.062-.047-.093 0-.016-.047-.031-.11-.031l-.046-.126h.015l.047.047.14.032a2.1 2.1 0 0 0 .344-.047c.016 0 .063.047.094.125l.156.11.079-.032.03.031.063.25.203.344.11.125c.015-.016.031-.063.078-.156h.016v.109c0 .11.015.11.125.11.015-.032.03-.063.03-.094 0-.047-.046-.11-.124-.172v-.203c0-.063 0-.11-.016-.141l.125-.094.156-.312.157-.125c.015.015.046.031.046.094l.125.078c0 .078.032.14.079.171.046-.062.062-.078.078-.078l.078.125.047.313.093.078.016.14-.125-.062c-.094 0-.094.031-.094.094l.172.125.078.187a.528.528 0 0 0 .188.094l.031-.219a.341.341 0 0 0-.172-.156v-.015l.11.03-.032-.234-.093-.062-.094-.125-.016-.203.219.11.016.046a.82.82 0 0 0 .093-.36c-.015-.14-.062-.203-.14-.203-.063-.078-.078-.093-.078-.14l.015-.125h.063v.172h.062V-4l.125-.25v-.25l-.078-.281-.219-.188-.03-.187h.03l.125.093.016-.156-.14-.11-.141-.25c0-.015 0-.03.031-.077l-.281-.36-.188-.171-.078-.016-.047.047-.234-.266.016-.094.328.172.015-.031-.218-.14-.016-.048-.375-.203v-.015h.031c1.375.797 1.953 1.734 1.953 3.468-.093.985-.468 1.985-1.703 2.813l-.531.266c-.344.14-.828.25-1.39.25zM2.672-5.5l.062.016.141-.032.078-.125.094-.046-.016-.094.047-.047h.016l.125-.063-.063.047-.062.094.031.11-.047.03.016.063-.078-.016c-.047.047-.079.094-.079.157h-.03l-.032-.047-.156.016zm-.125-.875-.094.063-.047.125h.172c.047-.047.047-.079.047-.094-.016-.016-.031-.016-.031-.094zm.469 1.813c-.032-.016-.063-.047-.063-.079 0-.046.047-.093.125-.14l.031-.047c.016-.016.016-.016.032-.016.015 0 .03.016.062.125l.14-.031.032.031.14.094.016.063a.086.086 0 0 1-.078.046c-.14-.015-.156-.015-.219-.078-.14 0-.14 0-.156.032zm-.5-.094-.11-.125-.031-.157h.063l.03.11c.048.078.095.125.095.14zm1.453.422-.078-.032.015-.109.078-.078-.171-.219v-.047c.078-.062.14-.11.187-.11l.016.032-.063.094.078.094.016.14a.795.795 0 0 1 .062.219zm-.485 1.453-.015-.031-.156-.126c-.016-.109-.032-.109-.11-.218v-.219l-.078-.078a.548.548 0 0 1-.047-.25h.016l.11.172v.078l.077.062v.157l.094.078.031.125.063.062.047.188zm.391 1.437-.078.047-.078.125h-.047c-.047 0-.094.031-.14.094L3.593-1l-.078.078c0 .14.03.203.187.203l.094-.047.14-.328.047-.031c0-.125-.03-.188-.109-.219zm3.36-1.984v.078l-.157.266v.078L7-2.812l.031.203.063.03.172-.108.062-.297-.047-.141.047-.172zm-3.063-.125c-.047 0-.047 0-.156-.031-.125-.172-.157-.25-.157-.282l.079-.015.093.14.188.079.015.046zm0 0"/></svg></svg>