<svg xmlns="http://www.w3.org/2000/svg" xmlns:xlink="http://www.w3.org/1999/xlink" width="64" height="64" viewBox="0 0 7.703 5.281"><svg overflow="visible" x="-.359" y="5.281"><path style="stroke:none" d="M8.063-3.266c-.313.063-.61.079-.922.079-.329 0-.641-.016-.954-.11 0 .313.25.406.97.406.78-.062.905-.078.905-.375zm-.016-.218-.11-.61c-.03-.172-.093-.297-.156-.343-.765-.532-2-.844-3.578-.844-2.078.078-3.719.578-3.828 1.187l-.016.563c.282.047.594.078.907.078.312 0 .64-.031.984-.078a.682.682 0 0 1 .469-.422l.219-.063v.344c0 .25-.36.766-.61.86-.14.046-.344.234-.594.546-.296.36-.375.625-.484 1.36V0h5.938c-.047-1.719-.22-1.922-1.36-2.984l-.281-.313c-.047-.047-.078-.156-.078-.328l.015-.39c.313.077.579.202.704.5.343.078.671.124 1.015.124.281 0 .563-.03.844-.093zm-5.797.187c-.313.063-.61.094-.89.094-.36 0-.688-.047-1-.125 0 .281.28.422.921.422.688 0 .969-.11.969-.39zm2.828-.453c0 .125-.078.188-.219.188-.484-.094-.656-.11-.718-.11-.063 0-.079 0-.657.094-.156 0-.234-.078-.25-.203l-.03-.281c.296-.047.577-.079.874-.079.344 0 .672.032 1 .094zm.297 1.813c0 .578-.516 1.046-1.172 1.046-.64 0-1.172-.468-1.172-1.046 0-.563.531-1.016 1.172-1.016.64 0 1.172.453 1.172 1.015zm0 0"/></svg></svg>