<svg xmlns="http://www.w3.org/2000/svg" xmlns:xlink="http://www.w3.org/1999/xlink" width="64" height="64" viewBox="0 0 8.172 7.344"><svg overflow="visible" x="-.422" y="7.25"><path style="stroke:none" d="M4.5-7.25C2.734-7.25.422-6.047.422-3.484.422-1.578 2.297.094 4.406.094c1.375 0 2.438-.438 3.313-1.422h-.594C6.297-.453 5.5-.125 4.515-.125c-.577 0-1.343-.219-1.718-.469-.719-.422-.86-.656-.86-1.047v-1.703c0-.078.032-.125.11-.125h6.547c0-2.547-2.281-3.781-4.094-3.781zM1.937-5.5c0-.344.063-.469.454-.766.671-.515 1.312-.75 2.109-.75 1.297 0 2.594.766 2.594 1.516v1.688c0 .093-.047.14-.14.14H2.062c-.094 0-.126-.062-.126-.14zm0 0"/></svg></svg>