<svg xmlns="http://www.w3.org/2000/svg" xmlns:xlink="http://www.w3.org/1999/xlink" width="64" height="64" viewBox="0 0 7.359 7.328"><svg overflow="visible" x="-.484" y="7.172"><path style="stroke:none" d="M4.14-7.172C1.923-7.016.485-5.656.485-3.422.61-1.234 2.094.156 4.204.156 6.546 0 7.843-1.422 7.843-3.625 7.766-5.672 6.297-7.172 4.14-7.172zm.704 6.75c-1.438-.11-3.11-2.437-3.11-4.328 0-.14.016-.25.032-.36.343-.874.843-1.546 1.953-1.546 1.594.578 2.937 2.61 2.937 4.515-.031.672-.86 1.72-1.812 1.72zm-.735-3.672c-.421 0-.625.297-.625.64.047.438.188.657.704.657.406-.031.593-.25.593-.75-.031-.484-.5-.547-.672-.547zm0 0"/></svg></svg>