<svg xmlns="http://www.w3.org/2000/svg" xmlns:xlink="http://www.w3.org/1999/xlink" width="64" height="64" viewBox="0 0 11.641 7.359"><svg overflow="visible" x="-.328" y="7.141"><path style="stroke:none" d="M7.453-.453c-.266.219-.562.39-.75.39-.422 0-.578-.25-.578-.593v-.031c.016-.485.297-1.094.734-1.704.22-.328.375-.64.375-.921.297-.126.594-.313.891-.5a7.882 7.882 0 0 0 1.906-1.907c.422-.578 1.219-1.047 1.797-1.047h.047c.047 0 .094-.046.094-.078 0-.031-.016-.047-.016-.078a.122.122 0 0 0-.062-.062c-.079-.016-.157-.032-.25-.032-.672 0-1.594.532-2.079 1.22A7.7 7.7 0 0 1 7.86-3.985a5.056 5.056 0 0 1-.656.421c-.078-.203-.266-.328-.547-.328a.814.814 0 0 0-.39.125c.78-1.062 1.593-2.109 2.421-3.156 0-.031.016-.047.016-.062l-.031-.11c-.016-.031-.031-.047-.063-.047h-.03c-.017 0-.032.016-.048.016-.5.484-.984.969-1.515 1.5-.172.234-.454.453-.75.61a2 2 0 0 1-.938.265c-.125 0-.187-.063-.187-.11 0-.015-.016-.03-.016-.062 0-.062.031-.156.11-.266.14-.203.202-.39.202-.546 0-.079 0-.157-.03-.22-.11-.234-.36-.327-.657-.327-.234 0-.5.203-.703.375a5.718 5.718 0 0 0-.781.875v.047c0 .046.03.078.078.078h.11c.03 0 .046-.016.062-.032.203-.28.406-.562.687-.812.188-.172.375-.313.5-.313.188 0 .281.079.297.188v.016c0 .14-.125.343-.281.578a.36.36 0 0 0-.094.25c0 .11.047.203.11.281.124.14.312.219.546.219.297 0 .657-.094 1-.25-.765.86-1.468 1.75-2.11 2.64C3.438-1.094 2.517 0 1.688 0 1.016 0 .532-.203.532-.61c0-.093.031-.203.094-.343.078.11.188.156.297.156.265 0 .562-.203.562-.39 0-.25-.156-.344-.328-.344a.726.726 0 0 0-.562.297c-.188.25-.266.484-.266.671 0 .516.594.782 1.313.782 1.109 0 2.578-1.11 3.39-2.266.266-.36.532-.734.797-1.11l.047.048a.453.453 0 0 0 .281.078c.14 0 .266-.016.407-.047-.11.187-.25.39-.391.578-.406.563-.578 1.11-.578 1.578 0 .094 0 .188.015.281.079.47.438.813 1.047.813.297 0 .657-.234.938-.469.406-.312.75-.687 1.015-1.047 0-.015.016-.031.016-.047 0-.062-.047-.078-.094-.078h-.11c-.03 0-.046 0-.062.016-.25.36-.546.703-.906 1zm-1.078-3.11a.353.353 0 0 1 .234-.109c.094 0 .125.047.125.14 0 .032 0 .079-.015.126 0 .031-.016.047-.016.062a1.62 1.62 0 0 1-.5.094c-.062 0-.11 0-.11-.016.079-.109.157-.218.282-.296zm0 0"/></svg></svg>