<svg xmlns="http://www.w3.org/2000/svg" xmlns:xlink="http://www.w3.org/1999/xlink" width="64" height="64" viewBox="0 0 10.172 7.312"><svg overflow="visible" x="-.125" y="7.141"><path style="stroke:none" d="M7.969-1.39c0-.063-.032-.079-.078-.079h-.11c-.031 0-.062 0-.062.016-.469.64-1.375 1.14-2.032 1.14-.656 0-1.234-.14-1.796-.28.64-.391 1.203-.891 1.609-1.454l.984-1.39c1.297-.188 2.61-.688 3.36-1.75.297-.422.453-.86.453-1.188 0-.469-.281-.766-.89-.766-.97 0-2.423 1.766-3.735 3.547-.156.016-.297.031-.453.031-1.016 0-1.735-.374-1.735-1.03 0-.266.11-.579.36-.938.484-.688 1.437-1.235 2.094-1.235.03 0 .046 0 .062-.015l.047-.063c0-.015.016-.031.016-.047 0-.03-.016-.062-.047-.062 0-.016 0-.016-.016-.031-.094-.032-.203-.032-.313-.032-.765 0-1.812.61-2.375 1.391-.265.39-.39.734-.39 1.031 0 .844 1.031 1.25 2.265 1.25.11 0 .22 0 .313-.015-.297.421-.578.828-.86 1.218A6.11 6.11 0 0 1 3.267-.75c-.47-.11-.97-.203-1.547-.203h-.063c-.484 0-1.093.015-1.422.484a.422.422 0 0 0-.109.266c0 .36.797.375 1.313.375h.156c.562 0 1.203-.188 1.828-.5l.125.047c.562.234 1.14.453 1.922.453.812 0 1.922-.703 2.484-1.516.016-.015.016-.031.016-.047zM1.64-.064c-.579 0-.938-.015-.938-.171 0-.047 0-.078.047-.141.188-.266.578-.36.922-.36.484 0 .875.094 1.266.22-.454.28-.907.453-1.297.453zm7.734-6.859c.375 0 .547.203.547.516 0 .281-.156.687-.469 1.125-.61.86-1.672 1.36-2.765 1.562 1.234-1.703 2.39-3.203 2.687-3.203zm0 0"/></svg></svg>