<svg xmlns="http://www.w3.org/2000/svg" xmlns:xlink="http://www.w3.org/1999/xlink" width="64" height="64" viewBox="0 0 5.969 7.172"><svg overflow="visible" x="-.422" y="7.156"><path style="stroke:none" d="M3.094-7.156c-.75.031-2.672.453-2.672 2.797 0 .796.281 1.5.828 2.109H.422v.828h2.484c-.937-.594-1.422-1.516-1.422-2.75 0-.187.016-.406.047-.64.578-1.641.969-2.079 1.828-2.079.094 0 .204 0 .313.016a2.707 2.707 0 0 1 1.594 2.453c0 1.375-.454 2.375-1.391 3h2.469v-.828H5.39l.343-.266.344-.5c.219-.343.313-.78.313-1.328 0-1.781-1.204-2.812-3.297-2.812zM.422-.813v.829h5.922v-.829zm0 0"/></svg></svg>