<svg xmlns="http://www.w3.org/2000/svg" xmlns:xlink="http://www.w3.org/1999/xlink" width="64" height="64" viewBox="0 0 5.422 7.094"><svg overflow="visible" x="-.484" y="7.125"><path style="stroke:none" d="M3.64-3.047v-.406l-.171-.375a.596.596 0 0 0 .234-.25l.39.172H4.5c-.14.453-.438.734-.86.86zm-2.437-.86c.188.845.719 1.36 1.563 1.563V-.03h.875v-2.313C4.469-2.547 5-3.078 5.187-3.906h.72v-.938h-.72C5-5.687 4.47-6.204 3.641-6.406v-.719h-.875v.703c-.844.219-1.375.734-1.563 1.578H.484v.938zm1.094 0 .375-.171c.062.11.14.187.25.25l-.156.375v.406c-.454-.14-.735-.422-.875-.86zm.375-.78-.375-.157H1.89c.14-.437.437-.734.875-.875v.422l.156.375a.723.723 0 0 0-.25.234zm.797-.235.172-.375v-.422c.39.157.734.485.859.875h-.406l-.39.157a.565.565 0 0 0-.235-.235zm0 0"/></svg></svg>