<svg xmlns="http://www.w3.org/2000/svg" xmlns:xlink="http://www.w3.org/1999/xlink" width="64" height="64" viewBox="0 0 7.016 7.203"><svg overflow="visible" x="-.344" y="7.141"><path style="stroke:none" d="M4.281-7.14c-1.281.046-1.61.124-2.062.984l.187 2.453c-.187.719-.5 1.062-.875 1.062-.484-.062-.797-.39-.797-.828 0-.36.172-.625.516-.765H.984c-.437.187-.64.5-.64.953C.406-2.5.75-2.25 1.766-2.25c1.062-.031 1.671-.797 1.671-2.203l-.203-1.563c.282-.562.672-.843 1.204-.843.718.046 1.28.656 1.28 1.406 0 .422-.14.922-.437 1.484-.86 1.281-1.343 2.078-1.437 2.406v.61c.172.687.86 1.015 2.031 1.015.61 0 1.484-.374 1.484-1.265 0-.594-.515-.938-.953-.938-.39.032-.61.172-.61.5.079.422.141.547.798.547.11-.14.187-.218.234-.218.016 0 .016 0 .031.015l.063.344c-.266.422-.578.64-.953.64-.438-.062-1.032-.312-1.032-1.046.188-.547.641-1.375 1.375-2.47l.344-.827.063-1.094c-.188-.922-1-1.39-2.438-1.39zm0 0"/></svg></svg>