<svg xmlns="http://www.w3.org/2000/svg" xmlns:xlink="http://www.w3.org/1999/xlink" width="64" height="64" viewBox="0 0 7.359 7.344"><svg overflow="visible" x="-.422" y="7.25"><path style="stroke:none" d="M4.14-7.25C2.079-7.25.517-5.687.423-3.61.422-1.671 1.875 0 4.109.095 6.156.047 7.656-1.438 7.781-3.594 7.688-5.688 6.22-7.172 4.141-7.25zM1.532-1.969c-.312-.531-.468-1.047-.468-1.593 0-1.516.984-2.704 2.562-3.032zM4.11-.53a2.986 2.986 0 0 1-2.171-.906l.75-1.61h2.828l.718 1.656c-.578.547-1.28.829-2.125.86zM2.97-3.656l1.14-2.531 1.125 2.53zM6.672-1.97 4.578-6.594c1.563.297 2.563 1.516 2.563 3.047 0 .531-.157 1.063-.47 1.578zm0 0"/></svg></svg>