<svg xmlns="http://www.w3.org/2000/svg" xmlns:xlink="http://www.w3.org/1999/xlink" width="64" height="64" viewBox="0 0 7.828 7.312"><svg overflow="visible" x="-.266" y="7.125"><path style="stroke:none" d="M3.438-.875a.4.4 0 0 1-.126-.297c0-.156.063-.375.235-.61.156-.234.36-.468.625-.655.219-.141.437-.25.61-.25.343 0 .53.171.546.421v.047c0 .313-.203.703-.5 1.125-.203.282-.437.563-.766.766-.296.203-.625.297-.859.297-.594 0-.86-.344-.86-.828v-.11c.063-.75.626-1.687 1.282-2.594a8.525 8.525 0 0 0 1.953-.53c.797-.298 1.672-.782 2.14-1.454.235-.328.376-.656.376-.937 0-.047 0-.094-.016-.141-.047-.313-.312-.5-.703-.5-.672 0-1.547.5-2.281 1.063A11.495 11.495 0 0 0 2.812-3.72c-.109.016-.218.016-.328.016-.718 0-1.312-.172-1.593-.547a.711.711 0 0 1-.125-.422c0-.25.109-.547.328-.86a2.43 2.43 0 0 1 .781-.702c.375-.204.75-.282 1.063-.282A.118.118 0 0 0 3-6.546c.016-.048.047-.079.047-.11 0-.047-.031-.078-.078-.078a3.21 3.21 0 0 0-1.375.312c-.39.188-.797.453-1.032.797a1.42 1.42 0 0 0-.296.844c0 .25.093.5.25.672.406.453 1.125.625 1.921.625h.22c-.579.812-.938 1.64-.938 2.328 0 .078 0 .156.015.218.063.688.563 1.125 1.422 1.125.36 0 .781-.124 1.203-.343.391-.219.75-.516.985-.844.265-.39.422-.781.422-1.11 0-.078 0-.14-.032-.218-.093-.375-.437-.578-.921-.578-.235 0-.532.14-.782.297a3.272 3.272 0 0 0-.734.734c-.172.25-.266.5-.266.703 0 .188.078.36.25.469h.063l.078-.031.031-.016c0-.031.016-.031.016-.063 0-.03-.016-.046-.031-.062zm.015.125c0-.016.016-.031.016-.063 0 0 0-.015-.016-.03v.093zm3.89-6.14c.298 0 .454.124.485.327v.094c0 .235-.125.516-.344.844-.437.594-1.25 1.063-2.015 1.36a8.114 8.114 0 0 1-1.672.452c.515-.718 1.062-1.437 1.812-2.093.579-.516 1.235-.985 1.735-.985zm0 0"/></svg></svg>