<svg xmlns="http://www.w3.org/2000/svg" xmlns:xlink="http://www.w3.org/1999/xlink" width="64" height="64" viewBox="0 0 6.578 6.578"><svg overflow="visible" x="-.718" y="6.578"><path style="stroke:none" d="M1.688-5.61a3.24 3.24 0 0 0-.97 2.313A3.284 3.284 0 0 0 4 0c.875 0 1.719-.344 2.328-.969.625-.61.969-1.437.969-2.328a3.24 3.24 0 0 0-.969-2.312A3.249 3.249 0 0 0 4-6.58c-.875 0-1.703.345-2.313.97zm1.28 3.36c.313.188.673.297 1.032.297.36 0 .719-.11 1.031-.297l.266.25A1.585 1.585 0 0 1 4-1.328c-.516 0-.984-.25-1.281-.672zm.266-1.813a.385.385 0 0 1-.296.141.442.442 0 0 1-.313-.14.412.412 0 0 1-.11-.297c0-.11.032-.22.11-.297a.496.496 0 0 1 .313-.125.427.427 0 0 1 .421.422.422.422 0 0 1-.125.296zm2.141 0a.385.385 0 0 1-.594 0 .385.385 0 0 1 0-.593.427.427 0 0 1 .297-.125.427.427 0 0 1 .422.422.426.426 0 0 1-.125.296zm0 0"/></svg></svg>