<svg xmlns="http://www.w3.org/2000/svg" xmlns:xlink="http://www.w3.org/1999/xlink" width="64" height="64" viewBox="0 0 5.938 6.812"><svg overflow="visible" x="-.516" y="6.812"><path style="stroke:none" d="M2.766-3.906c.171-.469.359-1.11.359-1.61 0-.75-.39-1.296-1.188-1.296-.296 0-.75.156-.984.39-.265.234-.406.563-.437.922 0 .39.015.5.078.578.031.063.11.14.156.14.125 0 .234-.046.234-.187 0-.015 0-.047-.015-.062a1.025 1.025 0 0 1-.063-.36c.016-.28.078-.484.235-.656.187-.219.5-.36.796-.36.485 0 .766.36.766.923 0 .453-.094.812-.265 1.312-.25.594-.25.75-.735 1.703-.016.031-.016.078-.016.14 0 .063.094.142.141.142h2.063v2.046c0 .047.046.141.203.141.156 0 .203-.078.203-.14v-2.047H6.25c.14 0 .203-.11.203-.188a.197.197 0 0 0-.203-.203H4.297v-2c0-.11-.125-.172-.203-.188a.243.243 0 0 0-.203.157v2.03H2.203zm0 0"/></svg></svg>