<svg xmlns="http://www.w3.org/2000/svg" xmlns:xlink="http://www.w3.org/1999/xlink" width="64" height="64" viewBox="0 0 4.297 7.5"><svg overflow="visible" x="-.547" y="6.344"><path style="stroke:none" d="M4.453-.984c0 .453-.203.906-.531 1.234-.313.313-.766.5-1.219.5A1.79 1.79 0 0 1 1.47.25 1.765 1.765 0 0 1 .953-.984c0-.47.188-.907.516-1.235a1.738 1.738 0 0 1 1.234-.515c.453 0 .906.187 1.219.515.328.328.531.766.531 1.235zM2.906-5.656l.875.875c.031.047.094.062.14.062.11 0 .204-.093.204-.203a.142.142 0 0 0-.063-.125L2.845-6.28c-.047-.032-.094-.063-.14-.063-.063 0-.11.032-.157.063l-1.22 1.233c-.047.031-.047.078-.047.125 0 .11.078.203.188.203.047 0 .11-.015.14-.062l.891-.875v2.531A2.152 2.152 0 0 0 .547-.985c0 .563.234 1.11.625 1.516.406.39.969.625 1.531.625.563 0 1.11-.234 1.516-.625a2.21 2.21 0 0 0 .625-1.515 2.17 2.17 0 0 0-.64-1.532 2.145 2.145 0 0 0-1.298-.609zm-.203 4.468a.264.264 0 0 0-.156.047.264.264 0 0 0-.047.157c0 .046.016.093.047.14.047.031.094.063.156.063.047 0 .094-.031.14-.063.032-.047.063-.094.063-.14 0-.063-.031-.11-.062-.157a.252.252 0 0 0-.14-.046zm0 0"/></svg></svg>