<svg xmlns="http://www.w3.org/2000/svg" xmlns:xlink="http://www.w3.org/1999/xlink" width="64" height="64" viewBox="0 0 6.672 6.672"><svg overflow="visible" x="-.531" y="5.828"><path style="stroke:none" d="M5.813-2.5c0 .453-.157.89-.438 1.234L2.625-4c.36-.281.781-.438 1.234-.438A1.951 1.951 0 0 1 5.813-2.5zM2.358-4.281.875-5.766a.224.224 0 0 0-.156-.062c-.11 0-.188.094-.188.203 0 .047 0 .11.047.125L2.063-4a2.392 2.392 0 0 0-.547 1.5c0 .625.25 1.219.687 1.656a2.278 2.278 0 0 0 1.656.688c.563 0 1.094-.188 1.516-.547L6.859.78c.032.047.094.063.141.063.094 0 .203-.094.203-.203 0-.047-.031-.094-.062-.125l-1.485-1.5c.36-.422.547-.954.547-1.516 0-.61-.234-1.203-.687-1.64a2.278 2.278 0 0 0-1.657-.688c-.546 0-1.093.187-1.5.547zm.125 3.172A2.003 2.003 0 0 1 1.906-2.5c0-.438.172-.875.453-1.219L5.094-.984a1.952 1.952 0 0 1-1.235.437 1.951 1.951 0 0 1-1.375-.562zm0 0"/></svg></svg>