<svg xmlns="http://www.w3.org/2000/svg" xmlns:xlink="http://www.w3.org/1999/xlink" width="64" height="64" viewBox="0 0 6.438 6.437"><svg overflow="visible" x="-.422" y="5.985"><path style="stroke:none" d="M6.11-2.766c0 .657-.25 1.297-.72 1.75a2.458 2.458 0 0 1-1.75.72c-.656 0-1.28-.25-1.75-.72a2.497 2.497 0 0 1-.718-1.75c0-.64.266-1.28.719-1.734a2.473 2.473 0 0 1 1.75-.734c.656 0 1.28.265 1.75.734.468.453.718 1.094.718 1.734zM1.75-4.922l-.984-1c-.032-.047-.094-.062-.141-.062-.11 0-.203.109-.203.203 0 .047.016.11.062.14l.985 1C1.03-4.109.766-3.453.766-2.766c0 .704.265 1.375.703 1.891l-.985 1C.438.156.422.203.422.265c0 .11.094.188.203.188.047 0 .11-.016.14-.047l.985-1A2.92 2.92 0 0 0 3.64.11C4.345.11 5-.14 5.517-.594l1 1a.252.252 0 0 0 .14.047c.11 0 .203-.078.203-.187 0-.063-.015-.11-.046-.141l-1-1a2.86 2.86 0 0 0 .703-1.89 2.88 2.88 0 0 0-.704-1.876l1-1c.032-.03.047-.093.047-.14a.207.207 0 0 0-.203-.203.19.19 0 0 0-.14.062l-1 1a2.82 2.82 0 0 0-1.875-.703c-.688 0-1.36.25-1.891.703zm0 0"/></svg></svg>