<svg xmlns="http://www.w3.org/2000/svg" xmlns:xlink="http://www.w3.org/1999/xlink" width="64" height="64" viewBox="0 0 7.422 7.031"><svg overflow="visible" x="-.328" y="6.922"><path style="stroke:none" d="M.531-6.516h5.766C5.078-6.078 3.844-5.5 3.203-4.328A6.345 6.345 0 0 0 .391-2.562a.19.19 0 0 0-.063.14c0 .11.094.203.203.203.063 0 .11-.031.14-.062a6.095 6.095 0 0 1 2.313-1.547 3.108 3.108 0 0 0-.187 1.062c0 1.22.703 2.36 1.922 2.75.25.079.5.125.75.125C6.64.11 7.75-.719 7.75-2.062c0-1.532-1.469-2.47-3.156-2.47a5.11 5.11 0 0 0-.828.079c.75-1.016 2.046-1.484 3.406-1.953l.328-.125a.196.196 0 0 0 .14-.188.197.197 0 0 0-.202-.203H.53a.207.207 0 0 0-.203.203c0 .11.094.203.203.203zm6.813 4.563c-.047.969-.89 1.656-1.875 1.656a1.74 1.74 0 0 1-.625-.094c-1.032-.328-1.64-1.312-1.64-2.375 0-.406.093-.828.28-1.218a3.96 3.96 0 0 1 1.11-.157c1.515 0 2.75.844 2.75 2.094zm0 0"/></svg></svg>