<svg xmlns="http://www.w3.org/2000/svg" xmlns:xlink="http://www.w3.org/1999/xlink" width="64" height="64" viewBox="0 0 6.219 6.203"><svg overflow="visible" x="-.547" y="6.203"><path style="stroke:none" d="M2.703-4.281h-.328c-.969.187-1.828.953-1.828 2.125 0 1.187.86 1.953 1.828 2.14.078 0 .203.016.328.016s.25-.016.328-.016C3.984-.203 4.86-.984 4.86-2.14c0-.421-.14-.843-.375-1.203-.046-.078-.093-.14-.093-.14l-.032-.032c0-.015 2.375-2.359 2.407-2.421v-.079c0-.078-.079-.187-.188-.187-.031 0-.062 0-.094.016-.046.015-.28.25-1.234 1.203L4.078-3.797c-.344-.297-.781-.484-1.375-.484zm1.75 2.14c0 .47-.203.938-.562 1.266a1.732 1.732 0 0 1-1.188.469c-.5 0-1-.219-1.344-.625a1.767 1.767 0 0 1-.406-1.11c0-.468.188-.937.547-1.28a1.742 1.742 0 0 1 1.203-.47c.938 0 1.75.735 1.75 1.75zm0 0"/></svg></svg>