<svg xmlns="http://www.w3.org/2000/svg" xmlns:xlink="http://www.w3.org/1999/xlink" width="64" height="64" viewBox="0 0 7.594 8.359"><svg overflow="visible" x="-.344" y="6.672"><path style="stroke:none" d="M.75-5.344a.94.94 0 0 1 .938-.937.93.93 0 0 1 .937.937.93.93 0 0 1-.938.938.94.94 0 0 1-.937-.938zM.906-.89C.906.703 2.5 1.688 4.141 1.688c1.64 0 3.25-.985 3.25-2.579 0-1.734-1.735-2.875-1.735-4.453a.94.94 0 0 1 .938-.937.93.93 0 0 1 .937.937c0 .11.094.203.203.203.11 0 .204-.093.204-.203a1.33 1.33 0 0 0-1.344-1.328A1.34 1.34 0 0 0 5.25-5.344c0 1.719 1.734 2.875 1.734 4.453 0 1.297-1.328 2.188-2.843 2.188-1.516 0-2.829-.89-2.829-2.188 0-1.578 1.72-2.734 1.72-4.453a1.33 1.33 0 0 0-1.345-1.328A1.34 1.34 0 0 0 .345-5.344 1.353 1.353 0 0 0 1.688-4c.234 0 .453-.063.64-.172C1.828-3.125.906-2.156.906-.89zm0 0"/></svg></svg>