<svg xmlns="http://www.w3.org/2000/svg" xmlns:xlink="http://www.w3.org/1999/xlink" width="64" height="64" viewBox="0 0 7.297 8.031"><svg overflow="visible" x="-.328" y="7.485"><path style="stroke:none" d="M5.516-6.188a6.276 6.276 0 0 0 2.03-.921c.063-.032.079-.11.079-.172a.207.207 0 0 0-.203-.203.169.169 0 0 0-.11.046 6.035 6.035 0 0 1-2.046.907 5.996 5.996 0 0 1-2.578 0A6.035 6.035 0 0 1 .64-7.438a.169.169 0 0 0-.11-.046.207.207 0 0 0-.203.203c0 .062.016.14.078.172a6.276 6.276 0 0 0 2.031.921v5.454c-.718.171-1.406.5-2.03.921a.19.19 0 0 0-.079.157c0 .125.078.203.188.203A.294.294 0 0 0 .64.516a5.715 5.715 0 0 1 2.046-.891 5.17 5.17 0 0 1 1.297-.156c.422 0 .844.047 1.282.14a6.035 6.035 0 0 1 2.046.907.29.29 0 0 0 .11.03c.125 0 .203-.077.203-.202a.19.19 0 0 0-.078-.156c-.625-.422-1.313-.75-2.031-.922zm-.407.094v5.266a6.832 6.832 0 0 0-2.265 0v-5.266c.36.078.75.11 1.14.11a5.5 5.5 0 0 0 1.125-.11zm0 0"/></svg></svg>