<svg xmlns="http://www.w3.org/2000/svg" xmlns:xlink="http://www.w3.org/1999/xlink" width="64" height="64" viewBox="0 0 8.453 8.422"><svg overflow="visible" x="-.547" y="7.062"><path style="stroke:none" d="M2.703-2.938c-.125 0-.25 0-.328.016a2.221 2.221 0 0 0-1.61 1.188c-.14.296-.218.609-.218.937 0 .235.047.453.125.688.25.765.89 1.312 1.703 1.437a1.796 1.796 0 0 0 .656 0C3.984 1.156 4.86.375 4.86-.782c0-.421-.14-.843-.375-1.218-.046-.063-.093-.125-.093-.14l-.032-.016s.25-.266.563-.563l.547-.562c.36.297.781.484 1.375.484h.328C8.14-2.984 9-3.766 9-4.937a2.16 2.16 0 0 0-.5-1.375 2.23 2.23 0 0 0-1.328-.75h-.5a2.14 2.14 0 0 0-1.469.75c-.328.406-.516.89-.516 1.39 0 .313.094.64.235.938.062.14.219.359.266.421 0 0-.25.266-.563.563l-.547.563a2.018 2.018 0 0 0-1.375-.5zM8.61-4.921c0 .469-.203.938-.562 1.266a1.77 1.77 0 0 1-1.203.469c-.5 0-.985-.22-1.344-.626a1.767 1.767 0 0 1-.406-1.109c0-.469.187-.937.562-1.281.328-.313.75-.469 1.188-.469.937 0 1.765.734 1.765 1.75zM4.453-.782c0 .47-.203.938-.562 1.266A1.732 1.732 0 0 1 1.359.313 1.726 1.726 0 0 1 .953-.782a1.757 1.757 0 0 1 1.75-1.766c.938 0 1.75.75 1.75 1.766zm0 0"/></svg></svg>