<svg xmlns="http://www.w3.org/2000/svg" xmlns:xlink="http://www.w3.org/1999/xlink" width="64" height="64" viewBox="0 0 6.078 7.766"><svg overflow="visible" x="-.828" y="6.344"><path style="stroke:none" d="M.844-6.234c0 .03-.016.062-.016.093v5.407c0 .03.016.062.016.093.031.063.11.11.187.11.032 0 .063 0 .078-.031l5.672-2.704c.078-.03.125-.093.125-.156 0-.094-.047-.156-.125-.203L1.11-6.313a.12.12 0 0 0-.078-.03c-.078 0-.14.046-.187.109zm.375 5.171v-4.765l5.015 2.39zM1.03 1.422h5.672c.11 0 .203-.094.203-.203 0-.11-.093-.188-.203-.188H1.031c-.11 0-.203.078-.203.188s.094.203.203.203zm0 0"/></svg></svg>