<svg xmlns="http://www.w3.org/2000/svg" xmlns:xlink="http://www.w3.org/1999/xlink" width="64" height="64" viewBox="0 0 6.672 6.672"><svg overflow="visible" x="-.531" y="5.828"><path style="stroke:none" d="M2.36-1.266A1.967 1.967 0 0 1 1.905-2.5c0-.516.219-1 .578-1.375.36-.36.86-.563 1.375-.563.454 0 .891.157 1.235.438zM2.202-4.14a2.333 2.333 0 0 0-.686 1.64c0 .563.203 1.094.546 1.516L.579.516C.531.546.531.594.531.64c0 .11.079.204.189.204A.218.218 0 0 0 .875.78L2.359-.703c.407.36.954.547 1.5.547a2.28 2.28 0 0 0 1.657-.688A2.278 2.278 0 0 0 6.203-2.5c0-.547-.187-1.078-.547-1.5l1.485-1.5c.03-.016.062-.078.062-.125 0-.11-.11-.203-.203-.203-.047 0-.11.016-.14.062L5.374-4.28a2.316 2.316 0 0 0-1.516-.547c-.625 0-1.218.234-1.656.687zm3.031 3.032a1.951 1.951 0 0 1-1.375.562c-.453 0-.875-.156-1.234-.437l2.75-2.735a1.941 1.941 0 0 1-.14 2.61zm0 0"/></svg></svg>