<svg xmlns="http://www.w3.org/2000/svg" xmlns:xlink="http://www.w3.org/1999/xlink" width="64" height="64" viewBox="0 0 6.172 6.172"><svg overflow="visible" x="-.422" y="6.172"><path style="stroke:none" d="M2.14-2 .767-3.375c-.032-.047-.094-.063-.141-.063-.063 0-.11.016-.203.204 0 .046.016.109.062.14L1.86-1.719.484-.344a.19.19 0 0 0-.062.14c0 .11.094.204.203.204.047 0 .11-.016.14-.063l1.376-1.375L3.516-.063a.19.19 0 0 0 .14.063c.11 0 .203-.094.203-.203a.19.19 0 0 0-.062-.14L2.422-1.72l3.765-3.765v1.453c0 .11.094.187.204.187.109 0 .203-.078.203-.187V-5.97a.233.233 0 0 0-.063-.14.19.19 0 0 0-.14-.063H4.453a.207.207 0 0 0-.203.203c0 .11.094.203.203.203h1.453zm0 0"/></svg></svg>