<svg xmlns="http://www.w3.org/2000/svg" xmlns:xlink="http://www.w3.org/1999/xlink" width="64" height="64" viewBox="0 0 5.391 8.578"><svg overflow="visible" x=".016" y="6.781"><path style="stroke:none" d="M3.906-1.578a1.738 1.738 0 0 1 0 2.469c-.312.328-.765.5-1.219.5-.468 0-.906-.172-1.234-.5A1.676 1.676 0 0 1 .937-.344c0-.469.172-.906.516-1.234a1.738 1.738 0 0 1 1.234-.516c.454 0 .907.188 1.22.516zm-2.75 2.75a2.15 2.15 0 0 0 1.532.625 2.14 2.14 0 0 0 1.515-.625 2.21 2.21 0 0 0 .625-1.516 2.152 2.152 0 0 0-1.953-2.14v-1.407a2.167 2.167 0 0 0 1.953-2.14v-.063l.203.203c.047.032.094.063.14.063.11 0 .204-.11.204-.203a.19.19 0 0 0-.063-.14l-.546-.563a.252.252 0 0 0-.141-.047c-.063 0-.11.015-.14.047l-.563.562a.252.252 0 0 0-.047.14c0 .095.094.204.188.204a.33.33 0 0 0 .156-.063l.203-.203v.063c0 .89-.672 1.64-1.547 1.734v-1.797l.219.203a.233.233 0 0 0 .14.063c.094 0 .188-.11.188-.203a.252.252 0 0 0-.047-.14l-.547-.563a.252.252 0 0 0-.14-.047.264.264 0 0 0-.157.047l-.547.562a.19.19 0 0 0-.062.14c0 .095.11.204.203.204.047 0 .094-.031.14-.063l.22-.203v1.797A1.743 1.743 0 0 1 .937-6.03v-.063l.203.203a.233.233 0 0 0 .14.063c.11 0 .203-.11.203-.203a.19.19 0 0 0-.062-.14l-.547-.563C.843-6.765.78-6.78.734-6.78c-.063 0-.11.015-.141.047l-.547.562a.19.19 0 0 0-.063.14c0 .095.094.204.188.204.062 0 .11-.031.14-.063l.22-.203v.063c0 1.11.859 2.031 1.952 2.14v1.407a2.16 2.16 0 0 0-1.328.625A2.084 2.084 0 0 0 .531-.344c0 .563.219 1.11.625 1.516zm0 0"/></svg></svg>