<svg xmlns="http://www.w3.org/2000/svg" xmlns:xlink="http://www.w3.org/1999/xlink" width="64" height="64" viewBox="0 0 3.719 7.891"><svg overflow="visible" x="-.344" y="6.922"><path style="stroke:none" d="m2.875-1.094 1.156-2.203a.215.215 0 0 0 .032-.094.192.192 0 0 0-.11-.171c-.031-.032-.062-.032-.094-.032H.875l1.5-3.031a.217.217 0 0 0 .031-.094c0-.093-.094-.203-.203-.203a.212.212 0 0 0-.172.11L.375-3.485a.21.21 0 0 0-.031.093c0 .079.062.141.11.188.03 0 .062.015.093.015H3.53L2.406-1.094h-.719c-.109 0-.187.094-.187.203L1.672.781c.016.094.094.188.187.188a.25.25 0 0 0 .172-.063L3.516-.75a.252.252 0 0 0 .046-.14c0-.126-.078-.204-.203-.204zm0 0"/></svg></svg>