<svg xmlns="http://www.w3.org/2000/svg" xmlns:xlink="http://www.w3.org/1999/xlink" width="64" height="64" viewBox="0 0 6.578 6.578"><svg overflow="visible" x="-.718" y="6.578"><path style="stroke:none" d="M6.328-5.61A3.249 3.249 0 0 0 4-6.577c-.875 0-1.703.344-2.313.969A3.24 3.24 0 0 0 .72-3.297 3.284 3.284 0 0 0 4 0c.875 0 1.719-.344 2.328-.969.625-.61.969-1.437.969-2.328a3.24 3.24 0 0 0-.969-2.312zm-.281 4.36A2.858 2.858 0 0 1 4-.406a2.82 2.82 0 0 1-2.031-.844 2.846 2.846 0 0 1 0-4.078A2.837 2.837 0 0 1 4-6.188c.781 0 1.5.313 2.047.86.547.547.844 1.266.844 2.031 0 .781-.297 1.516-.844 2.047zm-.953-1.156c-.313.234-.703.36-1.094.36a1.87 1.87 0 0 1-1.094-.36l-.172.156c.235.5.735.797 1.266.797.547 0 1.031-.297 1.281-.797zM5.297-4a.34.34 0 0 0 .125-.281.37.37 0 0 0-.125-.297A.37.37 0 0 0 5-4.703a.34.34 0 0 0-.281.125.427.427 0 0 0-.125.297c0 .11.047.203.125.281A.391.391 0 0 0 5-3.875c.11 0 .219-.047.297-.125zm-2 0a.391.391 0 0 0 .125-.281A.427.427 0 0 0 3-4.703a.34.34 0 0 0-.281.125.385.385 0 0 0-.14.297c0 .11.046.203.14.281A.391.391 0 0 0 3-3.875.492.492 0 0 0 3.297-4zm0 0"/></svg></svg>