<svg xmlns="http://www.w3.org/2000/svg" xmlns:xlink="http://www.w3.org/1999/xlink" width="64" height="64" viewBox="0 0 4.359 8.234"><svg overflow="visible" x="-.328" y="6.297"><path style="stroke:none" d="M2.61.11v1.827h.296V.11c.875-.046 1.547-.5 1.781-1.265v-.032c0-.03-.03-.078-.078-.093h-.078c-.031 0-.078.031-.078.062-.219.672-.797 1.078-1.61 1.078-.468 0-.921-.218-1.234-.578-.312-.39-.437-.906-.437-1.422 0-.546.094-1.062.406-1.484.297-.36.719-.578 1.188-.578.546 0 1.078.094 1.359.344-.234 0-.453.156-.453.453 0 .312.219.469.437.469.235 0 .47-.157.47-.47 0-.765-.876-1.015-1.673-1.046v-1.844H2.61v1.844a2.45 2.45 0 0 0-1.562.672 2.247 2.247 0 0 0-.719 1.64c0 .61.266 1.188.719 1.594.422.39.984.61 1.562.656zm0 0"/></svg></svg>