<svg xmlns="http://www.w3.org/2000/svg" xmlns:xlink="http://www.w3.org/1999/xlink" width="64" height="64" viewBox="0 0 6.094 6.078"><svg overflow="visible" x="-.422" y="5.625"><path style="stroke:none" d="M6.11-2.766c0 .657-.25 1.297-.72 1.75a2.458 2.458 0 0 1-1.75.72c-.593 0-1.14-.204-1.593-.579l.984-.984A.19.19 0 0 0 3.094-2c0-.11-.11-.203-.219-.203a.19.19 0 0 0-.14.062l-.97.985a2.524 2.524 0 0 1-.593-1.61c0-.64.266-1.28.719-1.734a2.473 2.473 0 0 1 1.75-.734c.656 0 1.28.265 1.75.734.468.453.718 1.094.718 1.734zM1.61-4.78a2.878 2.878 0 0 0-.844 2.015c0 .704.265 1.375.703 1.891l-.985 1C.438.156.422.203.422.265c0 .11.094.188.203.188.047 0 .11-.016.14-.047l.985-1A2.92 2.92 0 0 0 3.64.11c.766 0 1.5-.296 2.032-.843a2.887 2.887 0 0 0 .844-2.032c0-.75-.313-1.484-.844-2.015a2.822 2.822 0 0 0-2.031-.844 2.85 2.85 0 0 0-2.032.844zm0 0"/></svg></svg>