<svg xmlns="http://www.w3.org/2000/svg" xmlns:xlink="http://www.w3.org/1999/xlink" width="64" height="64" viewBox="0 0 4.281 6.344"><svg overflow="visible" x="-.344" y="5.328"><path style="stroke:none" d="m4.375-5.203-.188-.125-.656 1.156A2.068 2.068 0 0 0 2.5-4.469C1.312-4.469.344-3.406.344-2.125c0 .797.406 1.469.937 1.844L.671.797.595.89l.187.125.688-1.172a2.13 2.13 0 0 0 1.015.265c1.188 0 2.141-1 2.141-2.234 0-.969-.531-1.64-.922-1.922zM1.453-.593c-.36-.407-.422-.985-.422-1.548 0-.406.032-.968.297-1.421a1.344 1.344 0 0 1 1.156-.688c.391 0 .704.188.891.344zm2.078-3.141c.39.468.406 1.187.406 1.593 0 .344 0 .938-.28 1.391-.298.453-.782.64-1.157.64a1.31 1.31 0 0 1-.875-.312zm0 0"/></svg></svg>