<svg xmlns="http://www.w3.org/2000/svg" xmlns:xlink="http://www.w3.org/1999/xlink" width="64" height="64" viewBox="0 0 4.359 6.422"><svg overflow="visible" x="-.281" y="6.422"><path style="stroke:none" d="M.484-4.5a.207.207 0 0 0-.203.203v2.172c0 .11.094.203.203.203H2.25v1.719c0 .11.094.203.203.203.063 0 .125-.047.172-.094 1.984-3.031 2.016-3.078 2.016-3.11 0-.046-.032-.093-2.016-3.124a.216.216 0 0 0-.172-.094.197.197 0 0 0-.203.203V-4.5zm.188.406h1.781c.11 0 .203-.093.203-.203v-1.25l1.547 2.344L2.656-.875v-1.25a.197.197 0 0 0-.203-.203H.672zm0 0"/></svg></svg>