<svg xmlns="http://www.w3.org/2000/svg" xmlns:xlink="http://www.w3.org/1999/xlink" width="64" height="64" viewBox="0 0 5.172 7.281"><svg overflow="visible" x="-1.156" y="7.125"><path style="stroke:none" d="M5.86-2.36a2.14 2.14 0 0 1-.626 1.5c-.39.391-.921.61-1.484.61a2.105 2.105 0 0 1-1.5-.625 2.065 2.065 0 0 1-.61-1.484c0-.547.22-1.094.626-1.485.39-.39.921-.625 1.484-.625s1.094.235 1.484.625c.391.39.625.938.625 1.485zm.374-4.624a.183.183 0 0 0-.171-.141c-.11 0-.204.078-.204.188 0 .171.063.312.063.453 0 .859-.953 1.625-2.172 1.625-1.234 0-2.188-.766-2.188-1.625 0-.141.079-.297.079-.438a.197.197 0 0 0-.204-.203c-.078 0-.156.063-.187.14a1.5 1.5 0 0 0-.094.516c0 .828.657 1.516 1.563 1.828A2.51 2.51 0 1 0 5.516-.578a2.51 2.51 0 0 0 0-3.547 2.608 2.608 0 0 0-.735-.516c.89-.312 1.547-.984 1.547-1.812 0-.172-.031-.36-.094-.531zm0 0"/></svg></svg>