<svg xmlns="http://www.w3.org/2000/svg" xmlns:xlink="http://www.w3.org/1999/xlink" width="64" height="64" viewBox="0 0 5.625 5.641"><svg overflow="visible" x="-.875" y="5.313"><path style="stroke:none" d="M1.75-2.5c0 .906-.297 1.781-.844 2.5C.875.047.875.078.875.125c0 .11.078.203.188.203.046 0 .078-.016.125-.031a4.025 4.025 0 0 1 2.5-.844c.89 0 1.78.281 2.5.844.015.016.078.031.109.031.11 0 .203-.094.203-.203C6.5.078 6.484.047 6.453 0a4.21 4.21 0 0 1-.828-2.5 4.2 4.2 0 0 1 .828-2.484c.031-.047.047-.079.047-.125a.207.207 0 0 0-.203-.204c-.031 0-.094.016-.11.032a4.057 4.057 0 0 1-2.5.843 4.025 4.025 0 0 1-2.5-.843c-.046-.016-.078-.016-.125-.016a.18.18 0 0 0-.187.188c0 .046 0 .093.031.125.547.718.844 1.593.844 2.484zM5.688-.484a4.589 4.589 0 0 0-2-.47 4.71 4.71 0 0 0-2.016.47A4.71 4.71 0 0 0 2.14-2.5c0-.688-.172-1.375-.47-2a4.71 4.71 0 0 0 2.016.469c.704 0 1.391-.172 2-.469a4.678 4.678 0 0 0 0 4.016zm0 0"/></svg></svg>