<svg xmlns="http://www.w3.org/2000/svg" xmlns:xlink="http://www.w3.org/1999/xlink" width="64" height="64" viewBox="0 0 9.391 6.922"><svg overflow="visible" x="-.344" y="6.922"><path style="stroke:none" d="M1.766-4.469c.265 0 .53.11.718.297a.99.99 0 0 1 .282.719c0 .265-.094.515-.282.719a1.016 1.016 0 0 1-.718.28 1.02 1.02 0 0 1-.72-.28 1.06 1.06 0 0 1-.296-.72c0-.28.11-.53.297-.718a1.03 1.03 0 0 1 .719-.297zm3.78-2.047c1.048 0 2.063.36 2.876 1.016.031.031.078.031.125.031.11 0 .203-.078.203-.187a.25.25 0 0 0-.078-.172 5.036 5.036 0 0 0-3.125-1.094C3.03-6.922.344-5.859.344-3.453c0 .36.156.719.422.984a1.42 1.42 0 0 0 1 .422 1.42 1.42 0 0 0 1-.422c.265-.265.421-.625.421-.984 0-.39-.156-.75-.421-1.016a1.475 1.475 0 0 0-1-.406 1.48 1.48 0 0 0-.672.172c.734-1.203 2.562-1.813 4.453-1.813zm2.782 4.063a1.02 1.02 0 0 1-.719-.281 1.06 1.06 0 0 1-.296-.72c0-.28.109-.53.296-.718a1.03 1.03 0 0 1 .72-.297c.265 0 .53.11.718.297a.99.99 0 0 1 .281.719c0 .265-.094.515-.281.719a1.016 1.016 0 0 1-.719.28zM4.531-.406a4.447 4.447 0 0 1-2.86-1.016.25.25 0 0 0-.124-.047c-.11 0-.219.11-.219.219 0 .047.031.11.094.14A4.917 4.917 0 0 0 4.532 0c2.53 0 5.202-1.078 5.202-3.453 0-.39-.14-.75-.406-1a1.478 1.478 0 0 0-1-.422c-.39 0-.734.156-1.015.422-.25.25-.407.61-.407 1 0 .36.157.719.422.984.266.266.61.422 1 .422.219 0 .453-.062.656-.172C8.25-1.016 6.438-.406 4.531-.406zm0 0"/></svg></svg>