<svg xmlns="http://www.w3.org/2000/svg" xmlns:xlink="http://www.w3.org/1999/xlink" width="64" height="64" viewBox="0 0 7.328 7.328"><svg overflow="visible" x="-.344" y="7.125"><path style="stroke:none" d="M5.875-3.453c0 .5-.188.969-.547 1.312-.344.36-.828.563-1.328.563-.484 0-.969-.203-1.313-.563a1.793 1.793 0 0 1-.546-1.312c0-.5.187-.985.546-1.344A1.869 1.869 0 0 1 4-5.328c.5 0 .984.187 1.328.547.36.343.547.828.547 1.328zM4.203-6.922A.207.207 0 0 0 4-7.125c-.11 0-.188.094-.188.203v1.188a2.353 2.353 0 0 0-1.265.53l-.86-.843a.142.142 0 0 0-.125-.062.207.207 0 0 0-.203.203c0 .047.016.11.063.14l.844.844c-.297.36-.485.797-.532 1.266H.547a.197.197 0 0 0-.203.203c0 .11.078.187.203.187h1.187c.047.47.235.907.532 1.266l-.844.844a.19.19 0 0 0-.063.14c0 .11.094.204.204.204.046 0 .093-.032.125-.063l.859-.844c.36.297.797.485 1.265.516V0c0 .11.079.203.188.203.11 0 .203-.094.203-.203v-1.203A2.221 2.221 0 0 0 5.47-1.72l.843.844a.233.233 0 0 0 .141.063c.11 0 .203-.094.203-.204 0-.046-.031-.093-.062-.14L5.75-2c.297-.36.484-.797.516-1.266h1.203c.11 0 .203-.078.203-.187a.207.207 0 0 0-.203-.203H6.266a2.221 2.221 0 0 0-.516-1.266l.844-.844a.233.233 0 0 0 .062-.14c0-.11-.11-.203-.203-.203-.047 0-.11.015-.14.062l-.844.844a2.353 2.353 0 0 0-1.266-.531zm0 0"/></svg></svg>