<svg xmlns="http://www.w3.org/2000/svg" xmlns:xlink="http://www.w3.org/1999/xlink" width="64" height="64" viewBox="0 0 4.719 6.812"><svg overflow="visible" x="-.547" y="6.812"><path style="stroke:none" d="M5.063-.406H.952v-2.469c1.844 0 4.313-.063 4.313-1.969 0-1.937-2.485-1.968-4.344-1.968H.75a.207.207 0 0 0-.203.203v6.406C.547-.093.64 0 .75 0h4.313a.207.207 0 0 0 .203-.203.207.207 0 0 0-.204-.203zm-.204-4.438c0 1.438-1.828 1.547-3.906 1.547v-3.11c2.078 0 3.906.11 3.906 1.563zm0 0"/></svg></svg>