<svg xmlns="http://www.w3.org/2000/svg" xmlns:xlink="http://www.w3.org/1999/xlink" width="64" height="64" viewBox="0 0 4.297 7.5"><svg overflow="visible" x="-.547" y="7.5"><path style="stroke:none" d="M4.453-2.14a1.757 1.757 0 0 1-1.75 1.734 1.79 1.79 0 0 1-1.234-.5 1.765 1.765 0 0 1-.516-1.235c0-.468.188-.906.516-1.234a1.738 1.738 0 0 1 1.234-.516c.453 0 .906.188 1.219.516.328.328.531.766.531 1.234zM2.906-5.595h1.297c.11 0 .188-.093.188-.203a.18.18 0 0 0-.188-.187H2.906v-1.313a.207.207 0 0 0-.203-.203.207.207 0 0 0-.203.203v1.313H1.203c-.11 0-.203.078-.203.187 0 .11.094.203.203.203H2.5v1.313a2.152 2.152 0 0 0-1.953 2.14c0 .563.234 1.11.625 1.516.406.39.969.625 1.531.625.563 0 1.11-.234 1.516-.625a2.21 2.21 0 0 0 .625-1.516c0-.578-.235-1.125-.64-1.53a2.145 2.145 0 0 0-1.298-.61zm0 0"/></svg></svg>