<svg xmlns="http://www.w3.org/2000/svg" xmlns:xlink="http://www.w3.org/1999/xlink" width="64" height="64" viewBox="0 0 6.578 6.578"><svg overflow="visible" x="-.718" y="6.578"><path style="stroke:none" d="M6.89-3.297a2.83 2.83 0 0 1-.843 2.047A2.858 2.858 0 0 1 4-.406a2.82 2.82 0 0 1-2.031-.844 2.846 2.846 0 0 1 0-4.078A2.837 2.837 0 0 1 4-6.188c.781 0 1.5.313 2.047.86.547.547.844 1.266.844 2.031zM1.689-5.609a3.24 3.24 0 0 0-.97 2.312A3.284 3.284 0 0 0 4 0c.875 0 1.719-.344 2.328-.969.625-.61.969-1.437.969-2.328a3.24 3.24 0 0 0-.969-2.312A3.249 3.249 0 0 0 4-6.58c-.875 0-1.703.345-2.313.97zM5-1.672l.188-.172A1.273 1.273 0 0 0 4-2.656c-.516 0-.984.328-1.172.812L3-1.672a1.49 1.49 0 0 1 1-.39c.375 0 .734.14 1 .39zM2.719-4A.391.391 0 0 0 3-3.875.492.492 0 0 0 3.297-4a.391.391 0 0 0 .125-.281A.427.427 0 0 0 3-4.703a.34.34 0 0 0-.281.125.385.385 0 0 0-.14.297c0 .11.046.203.14.281zm2 0A.391.391 0 0 0 5-3.875c.11 0 .219-.047.297-.125a.34.34 0 0 0 .125-.281.37.37 0 0 0-.125-.297A.37.37 0 0 0 5-4.703a.34.34 0 0 0-.281.125.427.427 0 0 0-.125.297c0 .11.047.203.125.281zm0 0"/></svg></svg>