<svg xmlns="http://www.w3.org/2000/svg" xmlns:xlink="http://www.w3.org/1999/xlink" width="64" height="64" viewBox="0 0 7.391 7.156"><svg overflow="visible" x="-.313" y="7.047"><path style="stroke:none" d="M4.203-4.344c0-1.14.578-2.312 1.734-2.312.75 0 1.344.593 1.344 1.297 0 .078 0 .156-.015.218 0 .141.078.22.171.235.266 0 .266-.266.266-.453 0-.938-.797-1.688-1.75-1.688S4.313-6.375 4-5.516c-.297-.859-.984-1.53-1.938-1.53-.953 0-1.75.765-1.75 1.687 0 .171 0 .453.22.453.14-.016.202-.094.202-.188 0-.11-.015-.187-.015-.265 0-.704.61-1.297 1.36-1.297 1.077 0 1.733 1.125 1.733 2.312v4.25c0 .11.079.203.188.203.11 0 .203-.093.203-.203zm0 0"/></svg></svg>