<svg xmlns="http://www.w3.org/2000/svg" xmlns:xlink="http://www.w3.org/1999/xlink" width="64" height="64" viewBox="0 0 4.063 6.672"><svg overflow="visible" x="-3.109" y="5.828"><path style="stroke:none" d="M4.703-2.5a3.67 3.67 0 0 1-1.5 2.969.369.369 0 0 0-.094.14c0 .204.188.235.375.235a4.144 4.144 0 0 0 2.72-.969c.687-.594.968-1.484.968-2.375 0-.875-.281-1.766-.969-2.36a4.144 4.144 0 0 0-2.719-.968c-.187 0-.375.031-.375.234.016.063.047.11.094.14a3.663 3.663 0 0 1 1.5 2.954zm.406 0c0-1.11-.468-2.172-1.25-2.922.75.047 1.485.375 2.079.875.578.484.843 1.25.843 2.047 0 .813-.265 1.578-.843 2.063-.594.5-1.329.828-2.079.875A4.086 4.086 0 0 0 5.11-2.5zm0 0"/></svg></svg>