<svg xmlns="http://www.w3.org/2000/svg" xmlns:xlink="http://www.w3.org/1999/xlink" width="64" height="64" viewBox="0 0 4.063 6.672"><svg overflow="visible" x="-.547" y="5.828"><path style="stroke:none" d="M3.875.438C3.125.39 2.391.061 1.797-.438 1.219-.922.953-1.688.953-2.5c0-.797.266-1.563.844-2.047.594-.5 1.328-.828 2.078-.875A4.077 4.077 0 0 0 2.625-2.5c0 1.125.469 2.188 1.25 2.938zm.656.03a3.67 3.67 0 0 1 0-5.921.224.224 0 0 0 .078-.172c0-.203-.25-.203-.406-.203-1 0-1.906.328-2.672.969C.844-4.266.547-3.375.547-2.5c0 .89.297 1.781.984 2.375a4.11 4.11 0 0 0 2.672.969c.14 0 .297 0 .406-.203 0-.063-.015-.125-.078-.172zm0 0"/></svg></svg>