<svg xmlns="http://www.w3.org/2000/svg" xmlns:xlink="http://www.w3.org/1999/xlink" width="64" height="64" viewBox="0 0 11.219 8.031"><svg overflow="visible" x="-.266" y="6.922"><path style="stroke:none" d="M11.078.25v.656c0 .11.094.203.203.203.11 0 .203-.093.203-.203v-1.11c0-.062-.015-.109-.062-.14a.233.233 0 0 0-.14-.062h-1.11c-.11 0-.188.094-.188.203 0 .11.079.203.188.203h.578c-.563.422-1.125.625-1.594.625-.64 0-1.078-.328-1.078-.828V-5.25c0-.922-.75-1.672-1.672-1.672-.656 0-1.203.36-1.484.875a1.696 1.696 0 0 0-2.969 0A1.696 1.696 0 0 0 .47-6.922a.207.207 0 0 0-.203.203c0 .11.093.203.203.203.703 0 1.281.563 1.281 1.266v5.047c0 .11.094.203.203.203.11 0 .203-.094.203-.203V-5.25c0-.703.578-1.266 1.281-1.266.704 0 1.282.563 1.282 1.266v5.047c0 .11.093.203.203.203.11 0 .187-.094.187-.203V-5.25c0-.703.579-1.266 1.297-1.266A1.26 1.26 0 0 1 7.672-5.25v5.047C7.672.594 8.282 1 9.078 1c.625 0 1.36-.25 2-.75zm0 0"/></svg></svg>