<svg xmlns="http://www.w3.org/2000/svg" xmlns:xlink="http://www.w3.org/1999/xlink" width="64" height="64" viewBox="0 0 3.531 6.656"><svg overflow="visible" x="-.718" y="5.813"><path style="stroke:none" d="M2.578.75A2.868 2.868 0 0 1 4.172-.797c.047-.015.078-.062.078-.094v-.093c0-.016 0-.016-.016-.047 0-.032-.062-.063-.093-.063h-.047A3.31 3.31 0 0 0 2.687-.016v-5.593a.206.206 0 0 0-.203-.204.197.197 0 0 0-.203.204v5.593A3.31 3.31 0 0 0 .875-1.094H.828c-.062 0-.11.063-.11.11v.093c0 .032.032.079.063.094A2.82 2.82 0 0 1 2.375.75c.016.031.031.063.063.078l.03.016c.048 0 .095-.031.11-.094zm0 0"/></svg></svg>