<svg xmlns="http://www.w3.org/2000/svg" xmlns:xlink="http://www.w3.org/1999/xlink" width="64" height="64" viewBox="0 0 6.625 3.547"><svg overflow="visible" x="-.547" y="4.265"><path style="stroke:none" d="M2.281-.719h.078c.063 0 .11-.047.11-.11v-.046A3.151 3.151 0 0 0 1.39-2.297h5.593c.125 0 .188-.094.188-.203 0-.094-.063-.188-.188-.188H1.391a3.152 3.152 0 0 0 1.078-1.421v-.047c0-.047-.047-.11-.11-.11h-.078a.132.132 0 0 0-.11.063 2.801 2.801 0 0 1-1.546 1.61c-.047.015-.078.077-.078.109l.015.03c0 .032.032.048.063.063A2.801 2.801 0 0 1 2.172-.78a.132.132 0 0 0 .11.062zm0 0"/></svg></svg>