<svg xmlns="http://www.w3.org/2000/svg" xmlns:xlink="http://www.w3.org/1999/xlink" width="64" height="64" viewBox="0 0 4.969 5.797"><svg overflow="visible" x="-.828" y="5.391"><path style="stroke:none" d="M1.031-5h1.735C4.14-5 5.28-4 5.39-2.687H3.375V-4c0-.11-.078-.203-.188-.203A.197.197 0 0 0 2.985-4v1.313H1.031c-.11 0-.203.078-.203.187 0 .125.094.203.203.203h1.953v1.313c0 .109.079.203.204.203.109 0 .187-.094.187-.203v-1.313h2.016C5.28-.984 4.14.016 2.766.016H1.03C.92.016.827.094.827.203c0 .11.094.203.203.203h1.735c1.64 0 3.03-1.265 3.03-2.906 0-1.625-1.39-2.89-3.03-2.89H1.03a.207.207 0 0 0-.203.202c0 .11.094.188.203.188zm0 0"/></svg></svg>