<svg xmlns="http://www.w3.org/2000/svg" xmlns:xlink="http://www.w3.org/1999/xlink" width="64" height="64" viewBox="0 0 6.641 3.547"><svg overflow="visible" x="-.547" y="4.265"><path style="stroke:none" d="M7.11-2.594a2.801 2.801 0 0 1-1.548-1.61.132.132 0 0 0-.109-.062h-.078c-.078 0-.11.063-.11.11v.047a3.151 3.151 0 0 0 1.079 1.421H.75c-.125 0-.203.094-.203.188 0 .11.078.203.203.203h5.594c-.485.36-.86.844-1.078 1.422v.047c0 .047.015.078.062.094.016.015.031.015.047.015h.078a.132.132 0 0 0 .11-.062 2.801 2.801 0 0 1 1.546-1.61.122.122 0 0 0 .063-.062l.016-.047s-.016-.016-.016-.031a.122.122 0 0 0-.063-.063zm0 0"/></svg></svg>