<svg xmlns="http://www.w3.org/2000/svg" xmlns:xlink="http://www.w3.org/1999/xlink" width="64" height="64" viewBox="0 0 2.313 9.984"><svg overflow="visible" x="-.547" y="7.485"><path style="stroke:none" d="M.953 1.938v-8.86C1.97-5.734 2.297-4.109 2.297-2.5c0 1.625-.328 3.25-1.344 4.438zm-.219.53C2.234 1.314 2.86-.593 2.86-2.5c0-1.89-.625-3.797-2.125-4.953-.03-.031-.062-.031-.093-.031a.118.118 0 0 0-.063.03c-.015.032-.031.048-.031.079v9.766c0 .03.015.046.031.078a.118.118 0 0 0 .063.031c.03 0 .062 0 .093-.031zm0 0"/></svg></svg>