<svg xmlns="http://www.w3.org/2000/svg" xmlns:xlink="http://www.w3.org/1999/xlink" width="64" height="64" viewBox="0 0 4.781 8.859"><svg overflow="visible" x="-.547" y="6.922"><path style="stroke:none" d="M2.156-6.063h-.015A.106.106 0 0 0 2.047-6l-.016.078c-.015.016-.015.031-.015.047 0 .047.046.11.093.11h.11a3.26 3.26 0 0 0 1.625-.454L.563 1.671c0 .016-.016.048-.016.079 0 .11.11.188.203.188.078 0 .14-.032.188-.125l3.265-7.875c.156.578.469 1.125.906 1.53.016.032.047.032.079.032.03 0 .062 0 .078-.031.015 0 .015-.016.015-.032l.047-.078v-.03a.137.137 0 0 0-.031-.095 2.825 2.825 0 0 1-.875-2.046c0-.063-.063-.11-.11-.11a.12.12 0 0 0-.078.031 2.863 2.863 0 0 1-2.015.829H2.14c-.032 0-.032.015-.032.015.016 0 .032 0 .047-.016zm0 0"/></svg></svg>