<svg xmlns="http://www.w3.org/2000/svg" xmlns:xlink="http://www.w3.org/1999/xlink" width="64" height="64" viewBox="0 0 3.313 8.859"><svg overflow="visible" x="-.75" y="6.922"><path style="stroke:none" d="M1.688 1.906c.03.016.046.032.078.032a.12.12 0 0 0 .078-.032 2.826 2.826 0 0 1 2-.828h.094c.046 0 .062-.031.078-.062L4.062.89c0-.047-.03-.11-.109-.11H3.86a3.26 3.26 0 0 0-1.625.453l1.735-4.17c.015-.032.015-.047.015-.079a.203.203 0 0 0-.125-.187c-.03-.016-.062-.016-.078-.016-.031 0-.047 0-.078.016l-1.547.625 1.688-4.078c.015-.016.015-.047.015-.063a.203.203 0 0 0-.125-.187c-.015-.016-.046-.016-.062-.016a.203.203 0 0 0-.188.125l-1.89 4.531c-.016.016-.016.047-.016.063 0 .078.047.156.125.187C1.72-2 1.75-2 1.781-2c.032 0 .047 0 .078-.016l1.547-.64L1.86 1.078A3.113 3.113 0 0 0 .97-.453C.953-.484.922-.484.89-.484c-.047 0-.079.015-.11.062l-.03.078v.047c0 .031 0 .063.031.078.563.531.875 1.282.875 2.047a.12.12 0 0 0 .032.078zm0 0"/></svg></svg>