<svg xmlns="http://www.w3.org/2000/svg" xmlns:xlink="http://www.w3.org/1999/xlink" width="64" height="64" viewBox="0 0 3.313 9.984"><svg overflow="visible" x="-.547" y="7.485"><path style="stroke:none" d="M.953-6.36a.769.769 0 0 1 .766-.718c.422 0 .781.312.781.703C2.5-3.906 1.406-1.485 1.406.5c0 1.203.516 2 2.25 2 .11 0 .203-.094.203-.203a.207.207 0 0 0-.203-.203c-1.25 0-1.86-.485-1.86-1.656 0-1.938 1.095-4.782 1.095-6.813 0-.64-.547-1.11-1.172-1.11-.61 0-1.125.485-1.172 1.094 0 .11.078.204.187.22.11 0 .22-.079.22-.188zm0 0"/></svg></svg>