<svg xmlns="http://www.w3.org/2000/svg" xmlns:xlink="http://www.w3.org/1999/xlink" width="64" height="64" viewBox="0 0 4.766 8.859"><svg overflow="visible" x="-.75" y="6.922"><path style="stroke:none" d="M1.844 1.906a2.826 2.826 0 0 1 2-.828h.094c.046 0 .062-.031.078-.062l.046-.11A.237.237 0 0 0 4 .781h-.14a3.26 3.26 0 0 0-1.626.453L5.5-6.656c.016-.016.016-.047.016-.078 0-.11-.11-.188-.204-.188a.176.176 0 0 0-.171.125L1.859 1.078A3.113 3.113 0 0 0 .97-.453C.938-.484.922-.484.89-.484s-.063 0-.079.03a.034.034 0 0 0-.03.032L.75-.344v.047c0 .031 0 .063.031.078.563.531.875 1.282.875 2.047a.12.12 0 0 0 .032.078.12.12 0 0 0 .078.032.12.12 0 0 0 .078-.032zm0 0"/></svg></svg>