<svg xmlns="http://www.w3.org/2000/svg" xmlns:xlink="http://www.w3.org/1999/xlink" width="64" height="64" viewBox="0 0 3.313 9.984"><svg overflow="visible" x="-.547" y="7.485"><path style="stroke:none" d="M.547 0c0 1.547 1.594 2.5 3.219 2.5.046 0 .093-.047.093-.11v-.03a.1.1 0 0 0-.093-.094c-1.297 0-2.375-1-2.375-2.266 0-2.188 1.468-4.14 1.468-6.375 0-.625-.53-1.11-1.156-1.11-.625 0-1.156.485-1.156 1.11 0 .297.219.438.437.438.22 0 .454-.141.454-.438 0-.297-.22-.438-.438-.438H.922a.887.887 0 0 1 .781-.437c.5 0 .906.39.906.875C2.61-4.109.547-2.328.547 0zm0 0"/></svg></svg>