<svg xmlns="http://www.w3.org/2000/svg" xmlns:xlink="http://www.w3.org/1999/xlink" width="64" height="64" viewBox="0 0 3.531 6.656"><svg overflow="visible" x="-.718" y="5.828"><path style="stroke:none" d="M2.516-5.813 2.5-5.827c-.047 0-.094.031-.125.094A2.82 2.82 0 0 1 .781-4.188c-.031.016-.062.063-.062.094V-4c0 .063.047.11.11.11h.046a3.31 3.31 0 0 0 1.406-1.08V.625c0 .14.094.203.203.203.094 0 .204-.062.204-.203v-5.594c.359.469.843.86 1.406 1.078h.047A.106.106 0 0 0 4.25-4v-.094c0-.031-.031-.078-.078-.093a2.868 2.868 0 0 1-1.594-1.547c0-.032-.031-.063-.062-.079zm0 0"/></svg></svg>