<svg xmlns="http://www.w3.org/2000/svg" xmlns:xlink="http://www.w3.org/1999/xlink" width="64" height="64" viewBox="0 0 4.766 8.859"><svg overflow="visible" x="-.75" y="6.922"><path style="stroke:none" d="M1.688-6.89a.12.12 0 0 0-.032.077c0 .766-.312 1.516-.875 2.047-.031.032-.031.047-.031.079v.046l.031.079c0 .015.016.03.031.03.016.032.047.032.079.032.03 0 .046 0 .078-.031.437-.407.75-.953.89-1.532l3.282 7.875c.03.094.109.125.171.125.094 0 .204-.078.204-.187 0-.031 0-.063-.016-.078l-3.266-7.89a3.26 3.26 0 0 0 1.625.452h.094c.047 0 .11-.046.11-.093v-.063L4.016-6c-.016-.031-.032-.063-.079-.063h-.093c-.75 0-1.469-.296-2-.828a.12.12 0 0 0-.078-.03.12.12 0 0 0-.079.03zm0 0"/></svg></svg>