<svg xmlns="http://www.w3.org/2000/svg" xmlns:xlink="http://www.w3.org/1999/xlink" width="64" height="64" viewBox="0 0 3.313 9.984"><svg overflow="visible" x="-.547" y="7.485"><path style="stroke:none" d="M3.484-6.813h-.078c-.219 0-.437.141-.437.438 0 .297.219.438.437.438.219 0 .453-.141.453-.438 0-.625-.53-1.11-1.156-1.11-.625 0-1.14.485-1.14 1.11C1.563-4.141 3.03-2.187 3.03 0c0 1.266-1.094 2.266-2.39 2.266-.047 0-.094.046-.094.125 0 .062.047.109.094.109 1.64 0 3.218-.953 3.218-2.5 0-2.328-2.062-4.11-2.062-6.375 0-.484.422-.875.906-.875.344 0 .64.172.781.438zm0 0"/></svg></svg>