<svg xmlns="http://www.w3.org/2000/svg" xmlns:xlink="http://www.w3.org/1999/xlink" width="64" height="64" viewBox="0 0 8.854 5.203"><svg overflow="visible" x="-.563" y="5.094"><path style="stroke:none" d="M9.047-2.297c.187 0 .36 0 .36-.203 0-.188-.173-.188-.36-.188H1.64c.546-.421.828-.828.906-.968.437-.688.531-1.313.531-1.313 0-.125-.125-.125-.203-.125-.172 0-.188.016-.219.203-.234.97-.828 1.797-1.953 2.266-.11.047-.14.063-.14.125 0 .078.046.094.14.14 1.047.422 1.703 1.204 1.953 2.313.031.125.047.156.219.156.078 0 .203 0 .203-.125 0-.015-.094-.64-.515-1.312a4.007 4.007 0 0 0-.922-.969zm0 0"/></svg><svg overflow="visible" x="9.4" y="5.094"><path style="stroke:none" d="M-.547-.828v-3.328A.207.207 0 0 0-.75-4.36a.197.197 0 0 0-.203.203v1.468h-.078a.18.18 0 0 0-.188.188c0 .125.078.203.188.203h.078v1.469c0 .11.078.203.203.203.11 0 .203-.094.203-.203zm0 0"/></svg></svg>