<svg xmlns="http://www.w3.org/2000/svg" xmlns:xlink="http://www.w3.org/1999/xlink" width="12" height="11pt" viewBox="0 0 9 11"><svg overflow="visible" y="8"><path d="M4-8h1v1H4zm1 0h1v1H5zm1 0h1v1H6zM2-7h1v1H2zm2 0h1v1H4zm1 0h1v1H5zm1 0h1v1H6zm1 0h1v1H7zM2-6h1v1H2zm2 0h1v1H4zm1 0h1v1H5zm2 0h1v1H7zM3-5h1v1H3zm1 0h1v1H4zm2 0h1v1H6zm1 0h1v1H7zM3-4h1v1H3zm2 0h1v1H5zM3-3h1v1H3zm1 0h1v1H4zm1 0h1v1H5zm1 0h1v1H6zM2-2h1v1H2zm6 0h1v1H8zM2-1h1v1H2zm1 0h1v1H3zm3 0h1v1H6zm1 0h1v1H7zM0 0h1v1H0zm2 0h1v1H2zm1 0h1v1H3zm2 0h1v1H5zm1 0h1v1H6zm1 0h1v1H7zM1 1h1v1H1zm7 0h1v1H8zM1 2h1v1H1z"/></svg></svg>