<svg xmlns="http://www.w3.org/2000/svg" xmlns:xlink="http://www.w3.org/1999/xlink" width="64" height="64" viewBox="0 0 3.578 4.344"><svg overflow="visible" x="-.422" y="7.703"><path style="stroke:none" d="M1.031-6.719c.235-.422.563-.687 1.032-.734h.062c.422 0 .672.219.672.734 0 .344-.14.813-.516.953-.156.047-.625 0-.625.157 0 .062.032.109.094.125H2c.484 0 .969.171.969.953 0 .453-.235.89-.86.89-.218 0-.468-.015-.687-.062-.11-.031-.203-.063-.281-.078v-.016c.25-.062.39-.297.39-.547 0-.281-.203-.531-.562-.531-.313 0-.547.234-.547.563v.03c.047.798 1.125.923 1.719.923C2.828-3.36 4-3.625 4-4.58c0-.64-.844-1-1.297-1.046.5-.219 1.031-.516 1.031-1.11 0-.64-.843-.968-1.484-.968-.688 0-1.563.437-1.563 1.437 0 .313.204.532.5.532.266 0 .5-.172.5-.5 0-.282-.218-.5-.5-.5-.046 0-.093 0-.156.015zm0 0"/></svg></svg>