<svg xmlns="http://www.w3.org/2000/svg" xmlns:xlink="http://www.w3.org/1999/xlink" width="64" height="64" viewBox="0 0 0.406 9.953"><svg overflow="visible" x="-.625" y="7.485"><path style="stroke:none" d="M.781-1.719a.2.2 0 0 0-.156.157v3.765c0 .14.047.266.203.266h.047c.078 0 .125-.078.156-.156v-3.766c0-.125-.047-.281-.187-.281-.031 0-.031.015-.063.015zm0-5.765a.246.246 0 0 0-.156.171v3.766c0 .14.047.266.203.266H.86c.141-.016.172-.14.172-.266v-3.672c0-.125-.047-.265-.187-.265H.78zm0 0"/></svg></svg>