<svg xmlns="http://www.w3.org/2000/svg" xmlns:xlink="http://www.w3.org/1999/xlink" width="64" height="64" viewBox="0 0 5.547 7.156"><svg overflow="visible" x="-.547" y="7.047"><path style="stroke:none" d="M2.422-3.922H1.75c-.078 0-.188 0-.188.11 0 .093.079.109.157.109h.703v1.281H1.75c-.078 0-.188.016-.188.11v.015c0 .078.079.094.157.094h.703l-.016.922a1.882 1.882 0 0 0-.656-.125c-.563 0-1.203.328-1.203.922 0 .343.375.593.828.593.484 0 .953-.234 1.25-.562.047-.047.094-.125.14-.14.063 0 .157.077.204.109.5.28 1.062.578 1.64.578.782 0 1.485-.61 1.485-1.422 0-.078-.016-.156-.125-.156-.172 0-.14.296-.188.453-.156.437-.593.703-1.047.703-.437 0-.875-.219-1.25-.422-.171-.094-.328-.203-.5-.266.125-.296.141-.625.141-.953v-.234h.969c.078 0 .156-.016.156-.094v-.015c0-.094-.11-.11-.188-.11h-.937v-1.281h.969c.078 0 .156-.016.156-.11 0-.109-.11-.109-.188-.109h-.937v-1.203c0-.594.063-1.719 1.063-1.719.671 0 1.171.625 1.328 1.219a.555.555 0 0 0-.157-.031c-.265 0-.468.187-.468.453 0 .25.187.453.453.453.234 0 .453-.156.468-.406v-.094c0-.953-.718-1.797-1.671-1.797-.875 0-1.641.703-1.72 1.734zM2.297-.828c-.14.375-.5.703-.906.703-.188 0-.485-.094-.485-.36 0-.343.422-.468.703-.468h.079c.218 0 .406.078.609.125zm0 0"/></svg></svg>