<svg xmlns="http://www.w3.org/2000/svg" xmlns:xlink="http://www.w3.org/1999/xlink" width="64" height="64" viewBox="0 0 6.109 8.031"><svg overflow="visible" x="-.547" y="7.485"><path style="stroke:none" d="M3.89-7.484v.453a4.02 4.02 0 0 0-.624.078C1.64-6.563.546-5.047.546-3.406c0 1.562 1 3.11 2.75 3.531.188.047.392.047.595.078v.344h.312V.312c0-.14.219-.14.36-.156C5.718-.062 6.546-1.078 6.64-2.266c0-.03.015-.046.015-.078 0-.078-.031-.172-.14-.172-.172 0-.125.188-.141.297-.078 1.14-1.047 2.11-2.172 2.125v-6.64c1.188.03 1.953 1.203 2.094 2.265.031.125-.016.282.203.282.094 0 .14-.047.14-.125v-2.563c0-.078-.015-.156-.109-.156-.125 0-.343.375-.468.578a1.006 1.006 0 0 0-.188.266c-.5-.407-.766-.688-1.578-.844-.063 0-.094-.032-.094-.094v-.36zm0 .78v6.579C3.063-.172 2.298-.781 1.954-1.5c-.312-.61-.375-1.313-.375-1.984 0-1.297.469-2.625 1.734-3.079.172-.078.376-.14.579-.14zm0 0"/></svg></svg>