<svg xmlns="http://www.w3.org/2000/svg" xmlns:xlink="http://www.w3.org/1999/xlink" width="64" height="64" viewBox="0 0 5.141 5.156"><svg overflow="visible" x="-.563" y="5.172"><path style="stroke:none" d="M.719-5.156a.186.186 0 0 0-.156.187c0 .14.125.219.218.313l.36.36c.437.421.843.843 1.265 1.28l.313.297c.031.031.094.078.094.125v.016c-.016.062-.094.11-.126.14l-.359.36L1-.75l-.25.266c-.078.078-.188.156-.188.28 0 .11.079.188.188.188.14 0 .266-.156.36-.25l.093-.109L2.61-1.781l.375-.375c.047-.047.094-.11.141-.11h.031c.047.016.11.11.156.141l.344.344c.547.562 1.078 1.14 1.64 1.656.063.063.141.11.22.11.109 0 .187-.11.187-.204 0-.093-.094-.172-.156-.234l-.25-.25c-.469-.469-.938-.953-1.406-1.422l-.344-.344c-.031-.031-.094-.078-.094-.125v-.015c0-.032.047-.063.063-.079l.187-.187c.438-.438.875-.89 1.313-1.328l.453-.438c.078-.093.234-.203.234-.328a.207.207 0 0 0-.203-.203c-.11 0-.203.125-.281.188l-.328.328c-.391.39-.75.765-1.141 1.156l-.453.453c-.031.031-.11.14-.172.14-.063-.015-.11-.093-.156-.14l-.328-.328c-.422-.422-.86-.86-1.282-1.297l-.39-.375c-.063-.062-.125-.125-.203-.125-.016 0-.032.016-.047.016zm2.406 3.86c-.36 0-.64.296-.64.64 0 .328.25.64.671.64.375 0 .625-.328.625-.656 0-.281-.25-.625-.625-.625zM1.141-3.235c-.36.062-.579.328-.579.656 0 .36.282.64.704.64.328-.062.578-.312.578-.656 0-.375-.282-.64-.703-.64zm1.906-1.938a.666.666 0 0 0-.563.64c0 .376.313.641.672.641h.078c.313-.03.532-.328.532-.625 0-.375-.266-.656-.72-.656zM5-3.234c-.328.046-.578.296-.578.625 0 .39.266.671.703.671.36-.078.578-.328.578-.671 0-.344-.297-.625-.703-.625zm0 0"/></svg></svg>