<svg xmlns="http://www.w3.org/2000/svg" xmlns:xlink="http://www.w3.org/1999/xlink" width="64" height="64" viewBox="0 0 9.969 10.422"><svg overflow="visible" x="-.547" y="7.703"><path style="stroke:none" d="M5.297-7.703c-.266.031-.547.047-.813.11C2.22-7.064.547-4.97.547-2.517c0 2.157 1.344 4.375 3.656 5.032.438.125.89.203 1.344.203 2.75 0 4.875-2.36 4.969-5.016V-2.5c0-2.672-2.016-5.203-5.079-5.203zM.953-2.297v-.14c0-2.485 1.781-4.876 4.578-4.876h.14c2.36.11 4.454 2.11 4.454 4.813 0 2.438-1.875 4.797-4.625 4.797-2.172 0-4.063-1.688-4.469-3.86-.047-.234-.047-.484-.078-.734zm0 0"/></svg></svg>