<svg xmlns="http://www.w3.org/2000/svg" xmlns:xlink="http://www.w3.org/1999/xlink" width="64" height="64" viewBox="0 0 4.25 9.625"><svg overflow="visible" x="-.094" y="7.703"><path style="stroke:none" d="M.281.922h2.094v.265c0 .375-.313.438-.625.438-.125 0-.25-.016-.344-.016v.313H4.11v-.313c-.109 0-.234.016-.343.016-.329 0-.61-.047-.61-.438V.922h.985V.609h-.985v-2.953c0-.094-.047-.172-.172-.172-.187 0-.265.157-.359.266C1.922-1.36 1.172-.5.453.39.36.5.281.563.281.735zm.406-8.235V-7c.407 0 .844 0 1.22-.14v3c0 .406-.329.452-.735.452H.828v.313h2.906v-.313H3.36c-.453 0-.703-.03-.703-.453V-7.5c0-.14-.031-.203-.187-.203-.11.016-.25.11-.344.172-.453.187-.953.218-1.438.218zM.579.61l1.86-2.25V.61zM.234-2.969c-.093.016-.14.094-.14.188 0 .125.078.203.265.203h3.719c.14 0 .266-.063.266-.203 0-.125-.11-.203-.25-.203H.39c-.047 0-.094 0-.157.015zm0 0"/></svg></svg>