<svg xmlns="http://www.w3.org/2000/svg" xmlns:xlink="http://www.w3.org/1999/xlink" width="64" height="64" viewBox="0 0 1.516 9.969"><svg overflow="visible" x="-1.734" y="7.485"><path style="stroke:none" d="M1.89-7.484c-.124.03-.156.171-.156.28 0 .063.016.126.016.173V2.03c0 .047-.016.11-.016.156 0 .126.047.297.204.297.171 0 .218-.187.218-.328 0-.062-.015-.125-.015-.187v-9.11c0-.14 0-.343-.204-.343h-.046zm1.094 0c-.125.03-.156.171-.156.28 0 .063.016.126.016.173V2.03c0 .047-.016.11-.016.156 0 .126.047.297.203.297.172 0 .219-.187.219-.328 0-.062-.016-.125-.016-.187v-9.11c0-.14 0-.343-.203-.343h-.047zm0 0"/></svg></svg>