<svg xmlns="http://www.w3.org/2000/svg" xmlns:xlink="http://www.w3.org/1999/xlink" width="64" height="64" viewBox="0 0 4.25 9.625"><svg overflow="visible" x="-.094" y="7.703"><path style="stroke:none" d="M1.203-1.969v-.015c.219-.047.406-.11.625-.11.547 0 1.172.25 1.172.89C3-.593 2.516-.124 2.11.25c-.329.297-.672.594-1.016.89l-.39.344c-.095.079-.22.157-.22.297 0 .047.016.094.016.14h3.14l.282-1.75h-.25c-.094.438-.078.907-.39.954-.188.016-.376.016-.563.016H1.453c.438-.344.922-.688 1.39-.985.5-.312 1.079-.719 1.079-1.375 0-.922-1.047-1.187-1.875-1.187C1.422-2.406.5-2.234.5-1.5c0 .281.156.531.531.531a.497.497 0 0 0 .516-.5.52.52 0 0 0-.344-.5zM.687-7.312V-7c.407 0 .844 0 1.22-.14v3c0 .406-.329.452-.735.452H.828v.313h2.906v-.313H3.36c-.453 0-.703-.03-.703-.453V-7.5c0-.14-.031-.203-.187-.203-.11.016-.25.11-.344.172-.453.187-.953.218-1.438.218zM.234-2.97c-.093.016-.14.094-.14.188 0 .125.078.203.265.203h3.719c.14 0 .266-.063.266-.203 0-.125-.11-.203-.25-.203H.39c-.047 0-.094 0-.157.015zm0 0"/></svg></svg>