<svg xmlns="http://www.w3.org/2000/svg" xmlns:xlink="http://www.w3.org/1999/xlink" width="64" height="64" viewBox="0 0 4.813 4.812"><svg overflow="visible" x="-1.468" y="4.906"><path style="stroke:none" d="M3.875-2.219c.078.078.156.172.234.25L5.72-.375c.11.11.218.281.36.281a.206.206 0 0 0 .202-.203c0-.11-.078-.172-.156-.25L4.328-2.344c-.047-.031-.125-.094-.125-.156 0-.063.078-.125.125-.156l1.797-1.797c.078-.078.156-.14.156-.25a.207.207 0 0 0-.203-.203c-.14 0-.25.172-.36.265L4.11-3.03a3.574 3.574 0 0 0-.234.25l-2-2c-.047-.047-.125-.125-.203-.125a.207.207 0 0 0-.203.203c0 .11.093.187.172.25l1.78 1.797c.032.031.126.094.126.156 0 .063-.094.125-.125.156L1.625-.547c-.063.063-.156.14-.156.25 0 .11.093.203.203.203.078 0 .156-.078.203-.125l1.75-1.75.25-.25zm0 0"/></svg></svg>