<svg xmlns="http://www.w3.org/2000/svg" xmlns:xlink="http://www.w3.org/1999/xlink" width="64" height="64" viewBox="0 0 6.656 6.656"><svg overflow="visible" x="-.547" y="6.656"><path style="stroke:none" d="M3.672-3.531H.797c-.14 0-.25.062-.25.203 0 .14.11.203.25.203h2.875v2.719H.75c-.11 0-.203.11-.203.203 0 .14.14.187.265.187H6.72c.062 0 .125.016.203.016.14 0 .281-.063.281-.203s-.125-.203-.234-.203H4.08v-2.719h2.874c.125 0 .25-.063.25-.203 0-.156-.14-.203-.266-.203H4.079v-2.844c0-.14-.047-.281-.203-.281-.14 0-.203.14-.203.25zm0 0"/></svg></svg>