<svg xmlns="http://www.w3.org/2000/svg" xmlns:xlink="http://www.w3.org/1999/xlink" width="64" height="64" viewBox="0 0 8.844 4.984"><svg overflow="visible" x="-.563" y="5"><path style="stroke:none" d="M2.563-5C2.358-3.984 1.78-3.187.875-2.656c-.11.047-.219.094-.313.156.094.063.204.094.313.14.906.547 1.484 1.344 1.688 2.344h.39c-.11-.796-.578-1.64-1.156-2.125-.063-.062-.11-.109-.188-.156h7.532c.125 0 .265-.031.265-.203 0-.188-.14-.203-.265-.203L1.609-2.72c.172-.094.36-.297.532-.484.406-.5.718-1.14.812-1.797zm0 0"/></svg></svg>