<svg xmlns="http://www.w3.org/2000/svg" xmlns:xlink="http://www.w3.org/1999/xlink" width="64" height="64" viewBox="0 0 13.969 8.031"><svg overflow="visible" x="-.547" y="7.485"><path style="stroke:none" d="M3.11-6.594c.453.266.984.422 1.53.422.47 0 .907-.14 1.329-.375-1 1.516-2.016 3.016-3.016 4.5C2.47-1.312 2-.562 1.484.125c-.03.078-.093.14-.093.219 0 .094.078.187.171.203h.016c.172 0 .25-.203.328-.313 1.672-2.421 3.282-4.906 4.938-7.328.031-.062.078-.14.078-.203 0-.11-.11-.187-.203-.187-.188 0-.344.343-.516.484-.437.39-.984.594-1.578.61h-.047c-.625 0-1.266-.282-1.734-.673-.235-.218-.469-.421-.813-.421C1-7.484.547-6.25.547-5.454c0 .891.547 1.985 1.469 1.985.906 0 1.312-1.172 1.312-2.015 0-.407-.094-.75-.219-1.11zm6.624 3.125c-.921.125-1.375 1.172-1.375 2.016 0 .828.5 2 1.485 2h.094C10.78.453 11.14-.656 11.14-1.438c0-.406-.063-.812-.235-1.187-.203-.422-.562-.86-1.062-.86-.031 0-.078.016-.11.016zm-3.39 0c-.922.125-1.375 1.172-1.375 2.016 0 .828.5 2 1.484 2h.094C7.39.453 7.75-.656 7.75-1.438a2.84 2.84 0 0 0-.234-1.187c-.204-.422-.563-.86-1.063-.86-.031 0-.078.016-.11.016zm6.781 0c-.938.125-1.375 1.172-1.375 2.016 0 .828.484 2 1.469 2h.094c.859-.094 1.203-1.203 1.203-1.985 0-.406-.063-.812-.235-1.187-.203-.422-.562-.86-1.062-.86-.031 0-.063.016-.094.016zM14.25-1.28c-.047.625-.328 1.61-1.031 1.61-.828 0-.844-1.485-.844-1.813v-.047c0-.625.14-1.719.875-1.719.125 0 .266.063.375.14.5.376.64 1.094.64 1.657 0 .062 0 .125-.015.172zm-3.375 0c-.047.625-.328 1.61-1.031 1.61-.828 0-.86-1.485-.86-1.813v-.047c0-.625.157-1.719.891-1.719.11 0 .266.063.36.14.515.376.656 1.094.656 1.657 0 .062 0 .125-.016.172zM3.062-5.297c-.046.625-.328 1.61-1.03 1.61-.829 0-.86-1.485-.86-1.813v-.047c0-.625.156-1.719.875-1.719.125 0 .281.063.375.141.515.375.656 1.094.656 1.656 0 .063 0 .11-.015.172zM7.484-1.28C7.438-.655 7.156.33 6.454.33c-.829 0-.845-1.485-.845-1.813v-.047c0-.625.141-1.719.875-1.719.11 0 .266.063.36.14.515.376.656 1.094.656 1.657 0 .062 0 .125-.016.172zm0 0"/></svg></svg>