<svg xmlns="http://www.w3.org/2000/svg" xmlns:xlink="http://www.w3.org/1999/xlink" width="64" height="64" viewBox="0 0 3.859 7.469"><svg overflow="visible" x="-.563" y="7.485"><path style="stroke:none" d="M4.172-7.484c-.078.03-.125.109-.156.171l-.094.188C2.875-5.031 1.859-2.906.812-.812c-.078.171-.25.437-.25.593 0 .11.063.203.188.203h.016c.109 0 .156-.093.203-.187l.703-1.422c.437-.89.875-1.797 1.328-2.719L3.563-5.5c.218-.453.437-.89.671-1.344.063-.125.188-.328.188-.437 0-.11-.078-.203-.188-.203h-.062zM1.39-7.36a.594.594 0 0 0-.532.593c0 .297.235.625.61.625a.624.624 0 0 0 .625-.609c0-.297-.235-.625-.61-.625-.03 0-.062.016-.093.016zm2.03 6.015a.608.608 0 0 0-.546.594c0 .297.25.625.61.625a.614.614 0 0 0 .624-.61c0-.296-.234-.624-.593-.624-.032 0-.063.015-.094.015zm0 0"/></svg></svg>