<svg xmlns="http://www.w3.org/2000/svg" xmlns:xlink="http://www.w3.org/1999/xlink" width="64" height="64" viewBox="0 0 6.75 6.797"><svg overflow="visible" x="-.453" y="6.812"><path style="stroke:none" d="M1.438-4.078H.625c-.11 0-.172.016-.172.14 0 .063 0 .157.094.172h.844c0 .063-.016.141-.016.22 0 .077.016.14.016.218H.547c-.094.015-.094.094-.094.172 0 .11.063.14.172.14h.797c.25 1.657 1.672 2.907 3.39 3h1.844c.188 0 .172-.375.219-.562.078-.485.156-.953.25-1.438l.047-.359a.217.217 0 0 0 .031-.094c0-.078-.078-.11-.14-.11-.188 0-.204.61-.25.782-.125.688-.25 1.484-1.141 1.484h-.516c-.234 0-.453-.015-.687-.062C3.453-.641 2.766-1.641 2.53-2.578c-.031-.156-.047-.297-.094-.438.25 0 .485-.015.72-.015h.171c.547 0 1.219.015 1.563.36.343.343.39.905.39 1.358v.079c0 .062.016.125.094.14h.031c.125 0 .125-.078.125-.172v-1.921c0-.063-.015-.157-.14-.157-.047 0-.094.016-.141.016H2.656c-.031 0-.078.015-.11.015-.077 0-.14-.03-.14-.109v-.031c0-.11 0-.219.016-.313h2.953c.125 0 .156-.046.156-.171v-1.938c0-.094-.047-.14-.125-.14s-.125.03-.125.14v.047c0 .5-.031 1.078-.422 1.437-.359.313-1.078.329-1.609.329h-.094c-.234 0-.469-.016-.703-.016.203-1.203 1.031-2.328 2.422-2.438h.859c1.22 0 1 1.11 1.22 1.844.015.063.062.094.124.094.063 0 .125-.031.125-.11 0-.14-.031-.28-.062-.421-.079-.516-.172-1.047-.22-1.563 0-.062-.03-.14-.14-.14H4.813c-1.329.093-2.594.765-3.157 2.015-.093.234-.187.469-.218.719zm0 0"/></svg></svg>