<svg xmlns="http://www.w3.org/2000/svg" xmlns:xlink="http://www.w3.org/1999/xlink" width="64" height="64" viewBox="0 0 3.422 4.25"><svg overflow="visible" x="-.5" y="7.719"><path style="stroke:none" d="M1.094-7.172c.265-.125.5-.219.812-.219.64 0 1.094.454 1.094 1.047 0 .422-.281.735-.594.985-.531.421-1.14.75-1.703 1.109-.11.078-.203.11-.203.266v.515h3.14l.282-1.75h-.25c-.094.547-.031.969-.625.969h-.203c-.235 0-.469.016-.703.016-.329 0-.657-.016-.985-.016.157-.094.313-.172.469-.25.313-.188.625-.36.953-.5.61-.266 1.344-.578 1.344-1.36 0-.89-.938-1.359-1.813-1.359C1.547-7.719.5-7.5.5-6.656c0 .265.172.531.531.531a.5.5 0 0 0 .516-.516c0-.343-.234-.453-.453-.53zm0 0"/></svg></svg>