<svg xmlns="http://www.w3.org/2000/svg" xmlns:xlink="http://www.w3.org/1999/xlink" width="64" height="64" viewBox="0 0 2.594 3.625"><svg overflow="visible" x="-1.188" y=".985"><path style="stroke:none" d="M1.531 2.64h.219c.11-.609.156-1.25.219-1.874.062-.422.14-.891.14-1.297a.457.457 0 0 0-.468-.453c-.313 0-.454.234-.454.468 0 .172.032.36.063.563.094.86.219 1.734.281 2.594zm1.688 0h.219c.078-.984.25-1.968.328-2.968.015-.063.015-.125.015-.188 0-.234-.14-.468-.453-.468a.457.457 0 0 0-.469.453c0 .14.032.297.047.437.078.672.14 1.344.235 2.031.015.235.046.47.078.704zm0 0"/></svg></svg>