<svg xmlns="http://www.w3.org/2000/svg" xmlns:xlink="http://www.w3.org/1999/xlink" width="64" height="64" viewBox="0 0 2.125 9.969"><svg overflow="visible" x="-.718" y="7.485"><path style="stroke:none" d="M1.656-2.5c.5-.203 1.11-.406 1.188-1.125V-6c0-.203-.016-.422-.094-.61-.297-.671-1.25-.874-1.813-.874H.875c-.063 0-.14.015-.14.109 0 .063.062.11.124.11.704.03 1.282.406 1.282 1.234v2.375c-.063.578-.563.953-1.11 1.031-.093.016-.297-.016-.312.11 0 .156.265.14.39.156.375.062.735.296.922.64.11.219.11.438.11.688V.687c0 .11.015.235.015.344 0 .578-.36 1.125-1.094 1.219-.109.016-.328-.031-.328.125 0 .078.063.11.172.11h.11c.796-.079 1.828-.329 1.828-1.454v-2.406c-.078-.672-.625-.89-1.188-1.125zm0 0"/></svg></svg>