<svg xmlns="http://www.w3.org/2000/svg" xmlns:xlink="http://www.w3.org/1999/xlink" width="64" height="64" viewBox="0 0 2.219 9.969"><svg overflow="visible" x="-.547" y="7.485"><path style="stroke:none" d="M.703-7.484c-.078.03-.156.109-.156.203v.015c.015.125.078.235.125.344.531 1.375 1.047 2.781 1.578 4.156.031.079.094.172.094.266 0 .031-.016.078-.031.125l-.079.188C1.72-.75 1.141.687.594 2.109c-.016.047-.047.11-.047.172 0 .11.094.203.203.203h.016C.89 2.47.937 2.36.984 2.25l.079-.203C1.5.844 1.969-.375 2.438-1.563l.234-.625c.031-.109.094-.218.094-.312 0-.11-.047-.203-.094-.297C2.156-4.203 1.594-5.594 1.078-7c-.047-.078-.125-.484-.328-.484H.703zm0 0"/></svg></svg>