<svg xmlns="http://www.w3.org/2000/svg" xmlns:xlink="http://www.w3.org/1999/xlink" width="64" height="64" viewBox="0 0 3.328 9.062"><svg overflow="visible" x="-.547" y="7.031"><path style="stroke:none" d="M2.11-4.875c-.391-.047-.766-.25-1.172-.25-.25 0-.391.156-.391.36 0 .202.156.343.406.343.39 0 .781-.203 1.156-.25-.062.61-.25 1.188-.25 1.797 0 .219.141.375.36.375.25 0 .344-.219.344-.422 0-.562-.188-1.172-.25-1.75.374.047.765.25 1.156.25.265 0 .406-.14.406-.344 0-.203-.14-.359-.39-.359-.407 0-.766.203-1.172.25.062-.594.25-1.188.25-1.797 0-.203-.141-.36-.344-.36-.266 0-.36.22-.36.407 0 .578.188 1.172.25 1.75zm0 4.531c-.391 0-.782-.234-1.172-.234-.22 0-.391.125-.391.344 0 .187.14.359.375.359.406 0 .781-.234 1.187-.25-.078.578-.25 1.188-.25 1.766 0 .187.079.39.36.39.234 0 .344-.172.344-.39 0-.36-.079-.72-.157-1.063C2.36.344 2.344.11 2.312-.125c.407.016.782.25 1.172.25.25 0 .391-.14.391-.344 0-.203-.14-.36-.375-.36-.406 0-.781.235-1.188.235.079-.562.25-1.172.25-1.75 0-.187-.078-.406-.359-.406-.234 0-.344.188-.344.39 0 .36.079.72.157 1.079.046.218.062.468.093.687zm0 0"/></svg></svg>