<svg xmlns="http://www.w3.org/2000/svg" xmlns:xlink="http://www.w3.org/1999/xlink" width="64" height="64" viewBox="0 0 6.188 6.812"><svg overflow="visible" x="-.172" y="6.828"><path style="stroke:none" d="M.484-6.813v.297H.86c.344 0 .641.047.641.422v3.672H.375c-.078 0-.203.016-.203.11v.015c0 .078.094.094.172.094H1.5v1.281c0 .047.016.11.016.188 0 .375-.36.421-.75.421H.484v.297h2.938v-.296h-.375c-.36 0-.672-.047-.672-.422 0-.079.016-.141.016-.188v-1.281h1.562c.078 0 .156.015.25.015.063 0 .203 0 .203-.109v-.015c0-.126-.14-.126-.218-.126-.079 0-.172.016-.25.016H2.39v-.734h1.843c.938-.078 2.125-.656 2.125-1.797 0-1.063-1.046-1.75-2.046-1.86-.157 0-.297-.015-.438-.015-.203 0-.406.016-.594.016zM2.36-3.421v-2.765c0-.266.172-.297.36-.329h.75c.562 0 1.203.032 1.594.5.234.282.265.688.265 1.047 0 .36-.031.735-.25 1.032-.328.421-.906.515-1.422.515zm0 0"/></svg></svg>