<svg xmlns="http://www.w3.org/2000/svg" xmlns:xlink="http://www.w3.org/1999/xlink" width="5pt" height="64" viewBox="0 0 5 7.891"><svg overflow="visible" x="-.328" y="7.485"><path style="stroke:none" d="M3.031-7.375v.313h.203c.329 0 .579.046.579.625v.265H1.671v.313h2.14l-.015 1.5c-.235-.391-.813-.61-1.266-.61-1.219 0-2.203 1.063-2.203 2.266 0 1.062.813 2.25 2.14 2.25.516 0 .985-.25 1.313-.656v.656l1.469-.11v-.312h-.14c-.329 0-.641-.031-.641-.484v-4.5h.672v-.313h-.672v-1.312zm-1.86 4.906v-.14c0-.735.079-1.485.766-1.954.204-.109.438-.187.672-.187.485 0 1.172.406 1.172 1.031v2.047a.465.465 0 0 1-.125.313c-.25.39-.687.687-1.156.687-.719 0-1.188-.672-1.297-1.36-.016-.14-.016-.296-.031-.437zM.704 0C.61.016.563.094.563.188c0 .14.109.218.28.218.063 0 .141-.015.204-.015h4.016c.14 0 .265-.047.265-.204 0-.124-.11-.203-.25-.203H.875c-.063 0-.125 0-.172.016zm0 0"/></svg></svg>