<svg xmlns="http://www.w3.org/2000/svg" xmlns:xlink="http://www.w3.org/1999/xlink" width="64" height="64" viewBox="0 0 4.422 8.812"><svg overflow="visible" x="-.281" y="6.922"><path style="stroke:none" d="M2.297.594H2.28c-.312-.64-1.234-1.188-2-1.36v.313c0 .11.531.25.766.39.547.297 1.25.985 1.25 1.47.11.046.156.312.187.484H2.5c.031-.172.078-.438.188-.485 0-1.015 2.015-1.828 2.015-1.86v-.312c-.766.172-1.687.72-2 1.36-.015-.031-.015-.078-.015-.11v-6.921c0-.063.015-.125.015-.204 0-.125-.047-.28-.203-.28-.125 0-.203.109-.203.218zm0 0"/></svg></svg>