<svg xmlns="http://www.w3.org/2000/svg" xmlns:xlink="http://www.w3.org/1999/xlink" width="64" height="64" viewBox="0 0 4.984 8.031"><svg overflow="visible" x="-.547" y="7.485"><path style="stroke:none" d="M2.344-7.484v.406c0 .156-.235.187-.36.203-.796.328-1.437.906-1.437 1.75 0 .86.765 1.5 1.562 1.734.079.016.157.047.235.063v3.062C1.672-.375 1.109-.672.844-1.39c.047 0 .11.016.156.016.25 0 .469-.172.469-.453a.444.444 0 0 0-.453-.453c-.375 0-.47.265-.47.531 0 1.016.907 1.734 1.798 1.797v.5h.312v-.47c.094.016.188.016.281.016.172 0 .344 0 .5-.016v.469h.313V.125c0-.156.219-.172.344-.203.797-.297 1.437-1.016 1.437-1.89V-2c-.015-.906-.765-1.547-1.547-1.828-.109-.047-.25-.016-.25-.172 0-.047.016-.094.016-.11v-2.562c.64.094 1.188.313 1.469.984-.047 0-.094-.015-.14-.015-.266 0-.47.187-.47.453 0 .281.22.469.516.469.313-.063.406-.266.406-.516 0-1.047-.922-1.625-1.781-1.687v-.5h-.313v.453h-.78v-.453zM3.75-.297v-2.672c.594.172 1.281.61 1.281 1.328 0 .72-.672 1.125-1.281 1.344zM2.656-3.25c.36.125.781.094.781.313v2.703c-.14.015-.28.03-.437.03h-.203c-.094 0-.156-.03-.156-.14 0-.031.015-.078.015-.11zm-.312-3.406v2.422c-.469-.172-.922-.297-1.203-.829a1.074 1.074 0 0 1-.079-.375c0-.687.766-1.062 1.282-1.218zm.312 2.5v-2.547l.297-.031.485.015v2.75l-.516-.125zm0 0"/></svg></svg>