<svg xmlns="http://www.w3.org/2000/svg" xmlns:xlink="http://www.w3.org/1999/xlink" width="64" height="64" viewBox="0 0 9.969 10.422"><svg overflow="visible" x="-.547" y="7.703"><path style="stroke:none" d="M5.297-7.703c-.266.031-.547.047-.813.11C2.22-7.064.547-4.97.547-2.517c0 2.157 1.344 4.375 3.656 5.032.438.125.89.203 1.344.203 2.75 0 4.875-2.36 4.969-5.016V-2.5c0-2.672-2.016-5.203-5.079-5.203zM.953-2.297v-.14c0-2.485 1.781-4.876 4.578-4.876h.14c2.36.11 4.454 2.11 4.454 4.813 0 2.438-1.875 4.797-4.625 4.797-2.172 0-4.063-1.688-4.469-3.86-.047-.234-.047-.484-.078-.734zm2.61-1.531v-.265c0-.11-.016-.188-.016-.298v-.421c0-.079-.016-.188-.125-.188-.078 0-.11.078-.11.14v1.813c0 .094.063.156.172.156.063 0 .125-.03.141-.093l.031-.172c.078-.86.922-1.531 1.64-1.531 1.157 0 1.985 1.156 1.985 2.312 0 1.063-.75 2.281-1.968 2.281-.86 0-1.641-.594-1.75-1.5v-.062c0-.094-.047-.14-.11-.14a.15.15 0 0 0-.14.109v.046c0 1.047 1 1.797 1.984 1.844h.11c1.405 0 2.89-1.234 2.89-2.578C8.297-3.75 6.812-5 5.453-5c-.719 0-1.578.438-1.89 1.172zm0 0"/></svg></svg>