<svg xmlns="http://www.w3.org/2000/svg" xmlns:xlink="http://www.w3.org/1999/xlink" width="64" height="64" viewBox="0 0 4.969 8.359"><svg overflow="visible" x="-.234" y="7.328"><path style="stroke:none" d="m1.922-.36-.563-2.78L.297-1.47l-.063.11.141.156.61-.938c.015.266.109.532.156.813.109.531.218 1.078.328 1.625l.11.562c0 .063 0 .172.093.172h.078c.219 0 .25-.125.297-.297l.39-1.5c.5-1.953.985-3.906 1.532-5.843.031-.11.062-.204.078-.313h.984a.216.216 0 0 0 .172-.203c0-.172-.156-.203-.281-.203h-.89c-.36 0-.36.234-.423.531A389.869 389.869 0 0 1 2.031-.75c-.031.125-.094.266-.11.39zm0 0"/></svg></svg>