<svg xmlns="http://www.w3.org/2000/svg" xmlns:xlink="http://www.w3.org/1999/xlink" width="64" height="64" viewBox="0 0 4.922 7.016"><svg overflow="visible" x="-.266" y="6.922"><path style="stroke:none" d="M.266-6.813v.297h.171c.297 0 .61.032.61.485v.922c0 .218-.453.484-.703.718l.187.235.516-.422v4.562L1.28-.03l.14-.172.235-.422h.016C1.906-.141 2.5.094 3 .094c1.234 0 2.188-1.078 2.188-2.25 0-1.156-.875-2.25-2.141-2.25-.531 0-.985.25-1.328.64v-1.343L3.39-6.531l-.188-.235-1.484 1.22v-1.376zm4.078 4.907c-.032.468-.094.89-.39 1.265-.25.313-.626.516-1.017.516-.437 0-.828-.25-1.046-.61-.094-.109-.141-.187-.141-.343v-1.656c0-.141-.016-.266-.016-.391 0-.61.735-1.063 1.282-1.063 1.078 0 1.343 1.25 1.343 2.047 0 .079 0 .141-.015.235zm0 0"/></svg></svg>