<svg xmlns="http://www.w3.org/2000/svg" xmlns:xlink="http://www.w3.org/1999/xlink" width="64" height="64" viewBox="0 0 3.938 4.547"><svg overflow="visible" x="-.422" y="7.672"><path style="stroke:none" d="M.984-6.422c.11-.422.375-1.016.907-1.016.656 0 .796 1.125.796 1.75v.407c-.859 0-2.265.172-2.265.953 0 .594.781.703 1.234.703.407 0 .89-.11 1.11-.469h.015c.031.219.14.407.438.407h.094c.468 0 1.046-.016 1.046-.61v-.25h-.25v.266c0 .265-.187.281-.343.281h-.063c-.14 0-.312-.047-.312-.25v-1.766c-.047-.765-.594-1.656-1.454-1.656-.828 0-1.234.922-1.234 1.61 0 .328.172.515.453.515A.435.435 0 0 0 1.61-6a.435.435 0 0 0-.453-.453.562.562 0 0 0-.172.031zm1.704 1.36v.453c0 .437-.313.75-.86.75-.25 0-.64-.125-.64-.47 0-.655 1.187-.718 1.5-.734zM.515-3.345c-.047.031-.079.063-.079.11 0 .078.079.109.157.109h3.219c.062 0 .156-.031.156-.11 0-.062-.047-.109-.094-.109H.781c-.047 0-.11-.015-.156-.015-.031 0-.078.015-.11.015zm0 0"/></svg></svg>