<svg xmlns="http://www.w3.org/2000/svg" xmlns:xlink="http://www.w3.org/1999/xlink" width="64" height="64" viewBox="0 0 3.875 3.891"><svg overflow="visible" x="-.547" y="4.453"><path style="stroke:none" d="M2.328-4.438c-.531.079-1.015.297-1.344.72A1.941 1.941 0 0 0 .547-2.5c0 1.031.86 1.938 1.937 1.938 1.032 0 1.938-.875 1.938-1.938 0-.969-.766-1.953-1.953-1.953-.047 0-.094.016-.14.016zM.953-2.39v-.093c0-.829.672-1.547 1.516-1.547.797 0 1.453.578 1.547 1.422v.078c0 .844-.672 1.547-1.532 1.547-.75 0-1.437-.547-1.53-1.407zm0 0"/></svg></svg>