<svg xmlns="http://www.w3.org/2000/svg" xmlns:xlink="http://www.w3.org/1999/xlink" width="64" height="64" viewBox="0 0 6.656 5.562"><svg overflow="visible" x="-.547" y="5.281"><path style="stroke:none" d="M.703-2.688c-.11.016-.156.11-.156.188 0 .125.11.203.25.203h6.109c.157 0 .297-.062.297-.203 0-.11-.078-.188-.187-.203H.78c-.031 0-.047 0-.078.015zM3.781-.984a.652.652 0 0 0-.547.625.633.633 0 1 0 .641-.625h-.094zm0-4.297a.641.641 0 0 0-.547.64.64.64 0 0 0 .641.625.63.63 0 0 0 .625-.64.627.627 0 0 0-.625-.625h-.094zm0 0"/></svg></svg>