<svg xmlns="http://www.w3.org/2000/svg" xmlns:xlink="http://www.w3.org/1999/xlink" width="64" height="64" viewBox="0 0 7.391 6.797"><svg overflow="visible" x="-.172" y="6.812"><path style="stroke:none" d="M.469-6.813v.297h.5c.281 0 .531.032.531.172v1.985H.375c-.078 0-.203.015-.203.109v.016c0 .093.094.093.172.093H1.5v1.72H.375c-.078 0-.203.015-.203.108v.016c0 .078.094.094.172.094H1.5v1.094c0 .734-.563.796-1.031.796v.297h2.328v-.296c-.469 0-1.016-.063-1.016-.797v-1.094h2.485c.046 0 .093-.016.14-.016.188 0 .328.313.453.5.344.516.72 1.032 1.063 1.563.047.062.094.14.187.14.079 0 .141-.03.141-.14v-2.047h1.14c.094 0 .173-.016.173-.094v-.015c0-.094-.11-.11-.204-.11H6.25V-4.14h1.14c.094 0 .173 0 .173-.093v-.016c0-.094-.11-.11-.204-.11H6.25v-1.374c0-.72.578-.782 1.031-.782v-.296H4.938v.296c.453 0 1.03.063 1.03.782v1.375h-1.75l-.171-.016-1.672-2.422-.188-.016zM1.78-2.421V-4.14h1.422l1.172 1.72zM4.203-4.14H5.97v1.72h-.61l-.906-1.345zm-2.422-.218v-1.875L3.078-4.36zm3.735 2.156h.453v.672zm0 0"/></svg></svg>