<svg xmlns="http://www.w3.org/2000/svg" xmlns:xlink="http://www.w3.org/1999/xlink" width="5pt" height="64" viewBox="0 0 5 7.219"><svg overflow="visible" x="-.547" y="6.922"><path style="stroke:none" d="M3.453-2.078c-.328-.297-.765-.438-1.219-.438-.75 0-1.687.407-1.687 1.313 0 .89.828 1.5 1.672 1.5.765 0 1.594-.531 1.64-1.484 0-.047-.015-.11-.015-.157.015-.234.015-.468.015-.703v-2.906c.25.5.485 1 .72 1.531.25.547.562 1.188.562 1.813 0 .14-.032.375.187.39h.016c.125 0 .203-.11.203-.234-.031-.281-.047-.563-.11-.844-.343-1.406-1.359-2.562-1.546-4-.016-.094-.032-.172-.032-.266v-.093c0-.125-.062-.266-.203-.266-.172 0-.203.156-.203.297zm0 0"/></svg></svg>