<svg xmlns="http://www.w3.org/2000/svg" xmlns:xlink="http://www.w3.org/1999/xlink" width="64" height="64" viewBox="0 0 2.219 9.969"><svg overflow="visible" x="-1.094" y="7.485"><path style="stroke:none" d="M3.078-7.484c-.156.03-.219.312-.265.453a330.24 330.24 0 0 0-1.376 3.593l-.234.626c-.031.093-.11.203-.11.312 0 .094.063.188.095.266.5 1.421 1.062 2.796 1.609 4.203.047.187.125.515.328.515.11 0 .188-.109.188-.203 0-.094-.063-.219-.094-.312l-.031-.11C2.718.672 2.265-.53 1.796-1.734l-.188-.516c-.03-.078-.078-.172-.078-.25 0-.047.016-.078.032-.125l.078-.203C2-3.844 2.406-4.844 2.797-5.86c.156-.438.36-.891.5-1.344.015-.016.015-.047.015-.078 0-.11-.078-.203-.187-.203h-.047zm0 0"/></svg></svg>