<svg xmlns="http://www.w3.org/2000/svg" xmlns:xlink="http://www.w3.org/1999/xlink" width="64" height="64" viewBox="0 0 6.141 8.031"><svg overflow="visible" x="-.359" y="7.485"><path style="stroke:none" d="M3.703-7.484v.671H.36v.297h.375c.36 0 .657.047.657.438V-.75c0 .375-.329.438-.672.438H.36v.296h3.344v.563H4v-.563h.25c.969 0 2.25-.578 2.25-1.812v-.078c-.047-.938-1.094-1.657-1.938-1.657v-.015c.672-.078 1.657-.656 1.657-1.5 0-1.188-1.235-1.734-2.219-1.734v-.672zM2.22-3.438h1.484v3.126H2.61c-.25 0-.39-.094-.39-.344zm0-.218v-2.531c0-.25.14-.329.39-.329h1.094v2.86zM4-.312v-3.126c.953 0 1.5.75 1.5 1.579 0 .812-.64 1.546-1.5 1.546zm0-3.376v-2.828c.766 0 1.25.72 1.25 1.391 0 .672-.563 1.344-1.25 1.438zm0 0"/></svg></svg>