<svg xmlns="http://www.w3.org/2000/svg" xmlns:xlink="http://www.w3.org/1999/xlink" width="64" height="64" viewBox="0 0 10.516 8.031"><svg overflow="visible" x="-.547" y="7.485"><path style="stroke:none" d="M3.094-6.61c.453.282 1 .423 1.531.423a2.7 2.7 0 0 0 1.344-.36c-.578.938-1.219 1.813-1.828 2.719-.391.594-.797 1.203-1.204 1.797L1.657-.125c-.095.14-.266.36-.266.469 0 .094.078.187.171.203h.016c.172 0 .25-.203.328-.313C3.531-2.219 5.188-4.64 6.828-7.094a.368.368 0 0 0 .078-.203c0-.11-.11-.187-.203-.187-.14 0-.187.14-.266.234a2.26 2.26 0 0 1-1.765.844c-.688 0-1.25-.203-1.828-.657-.235-.218-.469-.421-.828-.421-.97 0-1.438 1.109-1.47 1.875v.109c0 .89.485 2.031 1.47 2.031.937 0 1.312-1.219 1.312-2 0-.39-.078-.781-.234-1.14zm6.562 3.141c-.906.125-1.36 1.125-1.36 2 0 .828.47 2.016 1.47 2.016h.093c.86-.094 1.204-1.219 1.204-2.016 0-.781-.36-2.015-1.297-2.015-.032 0-.079.015-.11.015zm-3.312 0c-.907.125-1.375 1.125-1.375 2 0 .828.468 2.016 1.468 2.016h.11C7.407.453 7.75-.672 7.75-1.47c0-.781-.375-2.015-1.313-2.015-.03 0-.062.015-.093.015zM3.062-5.297c-.046.61-.328 1.594-1.03 1.594-.86 0-.86-1.5-.86-1.844 0-.61.125-1.719.875-1.719.156 0 .281.063.39.157.5.375.641 1.093.641 1.64 0 .063 0 .11-.015.172zM7.484-1.28C7.438-.67 7.172.313 6.454.313c-.845 0-.86-1.5-.86-1.843 0-.61.125-1.719.89-1.719.141 0 .266.063.391.156.484.375.625 1.094.625 1.64 0 .063 0 .126-.016.173zm3.329 0C10.75-.67 10.484.313 9.766.313c-.844 0-.86-1.5-.86-1.843 0-.61.14-1.719.89-1.719.157 0 .267.063.392.156.484.375.624 1.094.624 1.64v.173zm0 0"/></svg></svg>