<svg xmlns="http://www.w3.org/2000/svg" xmlns:xlink="http://www.w3.org/1999/xlink" width="64" height="64" viewBox="0 0 6.438 6.437"><svg overflow="visible" x="-.453" y="5.985"><path style="stroke:none" d="M.594-5.984c-.078.015-.14.109-.14.203 0 .093.062.156.108.203l.829.828c.03.031.062.047.078.078v.031c0 .032-.11.157-.157.22a3.004 3.004 0 0 0-.515 1.655c0 .704.25 1.235.64 1.813a.118.118 0 0 1 .032.062v.016c-.016.047-.047.063-.078.094l-.75.734C.562.047.453.156.453.266c0 .078.094.187.188.187.109 0 .203-.11.28-.187L1.688-.5c.032-.016.047-.063.094-.063s.094.032.125.063c.532.375 1.078.594 1.75.594A2.91 2.91 0 0 0 5.36-.453c.047-.031.125-.11.188-.11.031 0 .062.032.078.047l.75.75c.094.078.188.22.313.22S6.89.343 6.89.25c0-.094-.079-.156-.125-.219L5.937-.78c-.015-.031-.062-.063-.062-.094V-.89c0-.062.094-.14.125-.203a2.901 2.901 0 0 0 .547-1.687c0-.656-.234-1.25-.625-1.781-.016-.016-.047-.047-.047-.094v-.016c0-.031.047-.047.063-.078l.75-.75c.078-.078.203-.188.203-.297 0-.11-.11-.187-.204-.187-.109 0-.187.093-.265.171l-.766.766c-.031.016-.047.063-.093.078h-.016c-.047 0-.078-.047-.11-.078-.53-.36-1.093-.594-1.75-.594-.609 0-1.218.188-1.718.547-.047.047-.11.125-.172.125H1.78c-.031 0-.062-.031-.078-.062l-.75-.735C.874-5.858.78-5.983.64-5.983H.594zm.61 3.359v-.14c0-1.297 1.062-2.485 2.452-2.485 1.281 0 2.485 1.047 2.485 2.453C6.14-1.5 5.094-.312 3.687-.312c-1.25 0-2.359-.891-2.484-2.313zm0 0"/></svg></svg>