<svg xmlns="http://www.w3.org/2000/svg" xmlns:xlink="http://www.w3.org/1999/xlink" width="64" height="64" viewBox="0 0 6.781 8.031"><svg overflow="visible" x="-.547" y="7.485"><path style="stroke:none" d="M3.89-7.484v.453a4.02 4.02 0 0 0-.624.078C1.64-6.563.546-5.047.546-3.406c0 1.562 1 3.11 2.75 3.531.188.047.392.047.595.078v.344h.312V.203C4.75.125 5.234.047 5.656-.313c.11-.093.172-.218.266-.328.125.25.5.625.625.625.062 0 .094-.046.094-.14v-1.688c0-.062-.016-.125-.016-.203 0-.344.266-.36.703-.36v-.312H4.5v.313c.14 0 .297-.016.453-.016.484 0 .797.031.797.485v.593c0 .922-.828 1.25-1.547 1.25v-6.64c1.188.03 1.953 1.203 2.094 2.265.031.125-.016.282.203.282.094 0 .14-.047.14-.125v-2.563c0-.078-.015-.156-.109-.156-.125 0-.343.375-.468.578a1.006 1.006 0 0 0-.188.266c-.5-.407-.766-.688-1.578-.844-.063 0-.094-.032-.094-.094v-.36zm0 .78v6.579c-1.108-.172-1.92-.984-2.186-2.063A6.226 6.226 0 0 1 1.578-3.5c0-1.281.469-2.578 1.719-3.063.187-.078.39-.14.594-.14zm0 0"/></svg></svg>