<svg xmlns="http://www.w3.org/2000/svg" xmlns:xlink="http://www.w3.org/1999/xlink" width="64" height="64" viewBox="0 0 9.969 10.422"><svg overflow="visible" x="-.547" y="7.703"><path style="stroke:none" d="M5.297-7.703c-.266.031-.547.047-.813.11C2.22-7.064.547-4.97.547-2.517c0 2.157 1.344 4.375 3.656 5.032.438.125.89.203 1.344.203 2.75 0 4.875-2.36 4.969-5.016V-2.5c0-2.672-2.016-5.203-5.079-5.203zM.953-2.297v-.14c0-2.485 1.781-4.876 4.578-4.876h.14c2.36.11 4.454 2.11 4.454 4.813 0 2.438-1.875 4.797-4.625 4.797-2.172 0-4.063-1.688-4.469-3.86-.047-.234-.047-.484-.078-.734zM5.47-5c-1.125.14-2.25.656-2.625 1.953a3.162 3.162 0 0 0-.078.672v.078C2.844-.78 4.234.203 5.609.203c1.063 0 2.063-.672 2.141-1.812v-.047c0-.078-.047-.14-.14-.14-.079 0-.11.062-.11.14v.062c-.11.89-.875 1.485-1.75 1.485a2.008 2.008 0 0 1-1.469-.625c-.39-.454-.5-1.094-.5-1.672 0-.469.063-1 .328-1.39.329-.548.97-.892 1.61-.892.937 0 1.5.704 1.703 1.547.016.11-.016.235.172.235.11 0 .156-.031.156-.11v-1.812c0-.078-.031-.172-.11-.172-.187 0-.484.531-.609.531-.047 0-.11-.078-.14-.11A2.16 2.16 0 0 0 5.625-5h-.156zm0 0"/></svg></svg>