<svg xmlns="http://www.w3.org/2000/svg" xmlns:xlink="http://www.w3.org/1999/xlink" width="64" height="64" viewBox="0 0 8.063 7.016"><svg overflow="visible" x="-.516" y="6.922"><path style="stroke:none" d="M4.719-2.156 2.78-6.687l-.078-.11-.172-.016H.875v.297h.453c.297 0 .578.032.578.204v4.421c0 .594-.015 1.72-.625 1.72v-.016c.219-.079.328-.297.328-.516a.534.534 0 0 0-.546-.547c-.047 0-.094 0-.141.016l-.156.062a.56.56 0 0 0-.25.484c0 .422.375.782.796.782.579 0 .844-.844.86-1.407.015-.64.015-1.296.015-1.937v-2.766c.032.094.079.188.126.282L4.687-.188c.032.094.079.172.188.172h.031C5-.03 5-.109 5-.187V-5c0-.625.063-1.656.625-1.656-.188.11-.344.265-.344.515 0 .329.25.563.578.563.344 0 .532-.266.532-.563 0-.421-.375-.78-.797-.78h-.016c-.531 0-.703.702-.797 1.046-.062.25-.062.484-.062.734zM7.28-5.328c-.656.047-.984.828-.984 1.453 0 .672.36 1.344 1.11 1.344.609 0 .937-.781.937-1.36 0-.593-.313-1.437-1-1.437zm-.31 1.953v-.984c0-.313.031-.75.343-.75.313 0 .36.421.36.64v.907c0 .359 0 .78-.344.78-.312 0-.328-.343-.36-.593zm-.813 1.453c-.062.016-.078.078-.078.14 0 .11.078.157.188.157h2.14c.094 0 .172-.047.172-.156 0-.063-.047-.14-.11-.157H6.25c-.047 0-.063 0-.094.016zm0 0"/></svg></svg>