<svg xmlns="http://www.w3.org/2000/svg" xmlns:xlink="http://www.w3.org/1999/xlink" width="64" height="64" viewBox="0 0 3.141 8.71"><svg overflow="visible" x="-.109" y="6.68"><path style="stroke:none" d="M1.766-6.672a.46.46 0 0 0-.204.078.307.307 0 0 0-.14.14.426.426 0 0 0-.094.188c-.078.36.25.688.594.641a.46.46 0 0 0 .203-.078.403.403 0 0 0 .14-.14.484.484 0 0 0 .094-.204.527.527 0 0 0-.593-.625zm-.907 2.36V-4c.172 0 .344 0 .516.031.094.016.188.047.234.125.094.11.094.25.094.375v3.344c-.281 0-.531.031-.797.14a1.284 1.284 0 0 0-.5.36 1.07 1.07 0 0 0-.234.406.996.996 0 0 0-.063.375c0 .11.032.219.063.313.047.093.11.172.172.25.422.453 1.203.39 1.61-.047a1.74 1.74 0 0 0 .343-.594c.094-.328.078-.656.078-.984h.672c.078 0 .203 0 .203-.11 0-.109-.125-.109-.203-.109h-.672v-4.297zM1.703.093c0 .281.016.547-.016.828a1.915 1.915 0 0 1-.109.5c-.031.125-.11.266-.234.328A.43.43 0 0 1 1 1.797a.798.798 0 0 1-.547-.344C.266 1.172.391.766.593.531c.126-.14.282-.25.438-.328.219-.094.438-.11.672-.11zm0 0"/></svg></svg>