<svg xmlns="http://www.w3.org/2000/svg" xmlns:xlink="http://www.w3.org/1999/xlink" width="64" height="64" viewBox="0 0 5.172 6.346"><svg overflow="visible" x="-.109" y="4.424"><path style="stroke:none" d="M3.781-.406h.016v1.39c0 .157.047.407-.078.532-.063.062-.156.062-.235.078-.156.015-.296.015-.468.015v.313l.906-.031.906.015.453.016v-.313c-.172 0-.343 0-.5-.015-.093-.016-.203-.047-.25-.14-.062-.126-.031-.282-.031-.391v-4.485c0-.14-.031-.297.031-.422.047-.078.157-.125.25-.14C4.938-4 5.11-4 5.281-4v-.313l-.453.032h-.906l-.906-.032V-4c.171 0 .328 0 .484.016.094.015.172.03.234.109.079.094.063.219.063.328v2.375c0 .078.015.172-.016.25 0 .078-.047.156-.078.219a1.166 1.166 0 0 1-.39.437.827.827 0 0 1-1.11-.156c-.14-.172-.219-.406-.265-.625-.063-.297-.063-.594-.063-.89v-1.266c0-.125.016-.25-.016-.375-.109-.485-.562-.875-1.078-.844a.555.555 0 0 0-.156.031c-.36.141-.453.547-.484.891-.016.078-.016.14-.016.203 0 .125-.016.25-.016.36 0 .062.016.124.063.14.094.031.172 0 .187-.094.016-.093 0-.203 0-.312 0-.156.016-.313.047-.469.016-.11.031-.219.094-.312.11-.188.375-.297.531-.125.11.109.14.234.157.375.015.171 0 .328-.016.5v1.671c.031.391.125.766.36 1.079.25.359.671.53 1.093.578.14 0 .297.015.438-.016.28-.047.593-.234.718-.484zm0 0"/></svg></svg>