<svg xmlns="http://www.w3.org/2000/svg" xmlns:xlink="http://www.w3.org/1999/xlink" width="64" height="64" viewBox="0 0 4.875 4.406"><svg overflow="visible" x="-.188" y="4.422"><path style="stroke:none" d="M.188-.313v.297l.906-.03.703.03v-.296c-.188 0-.438-.047-.484-.266-.016-.047-.016-.078-.016-.125a.986.986 0 0 1 .125-.36l.219-.578c.156-.39.328-.78.468-1.171.11-.235.188-.47.297-.704.281.704.547 1.391.828 2.094l.235.563c.031.078.094.187.078.265a.242.242 0 0 1-.125.172.81.81 0 0 1-.422.11v.296l.89-.03.813.015.36.015v-.296c-.235 0-.516-.032-.704-.22a.8.8 0 0 1-.156-.327l-.219-.532c-.25-.64-.53-1.28-.78-1.921-.11-.282-.22-.563-.329-.829-.047-.125-.094-.28-.25-.28s-.188.14-.25.265c-.11.281-.219.562-.328.86-.266.64-.531 1.28-.781 1.937a5.077 5.077 0 0 1-.22.515.987.987 0 0 1-.234.39c-.171.142-.406.142-.625.142zm0 0"/></svg></svg>