<svg xmlns="http://www.w3.org/2000/svg" xmlns:xlink="http://www.w3.org/1999/xlink" width="64" height="64" viewBox="0 0 5.078 4.297"><svg overflow="visible" x="-.188" y="4.313"><path style="stroke:none" d="M.188-4.313v.25c.187 0 .39-.015.546.079.204.109.329.343.47.53.234.36.468.688.702 1.048.125.156.235.312.344.469.047.078.125.156.14.25.016.109 0 .218 0 .328v.656c0 .11.016.265-.093.36-.047.046-.11.062-.188.077-.125.016-.265.016-.39.016v.234l.375-.015.844-.016.812.031V-.25c-.14 0-.281 0-.406-.016-.078-.015-.14-.03-.188-.078-.094-.094-.094-.25-.094-.36v-.655c0-.11-.015-.235 0-.329.016-.093.094-.171.141-.25.11-.14.219-.312.328-.453l.531-.765c.297-.422.625-.906 1.204-.906v-.25l-.813.03-.64-.03v.25c.046 0 .078 0 .109.03.219.11.14.376.047.548-.078.125-.156.234-.235.359-.171.219-.328.453-.484.688-.094.124-.188.25-.266.39l-.328-.469c-.187-.28-.375-.562-.562-.828-.063-.11-.156-.203-.219-.312-.047-.063-.094-.125-.094-.219 0-.188.25-.188.375-.188v-.25l-.828.032H.531zm0 0"/></svg></svg>