<svg xmlns="http://www.w3.org/2000/svg" xmlns:xlink="http://www.w3.org/1999/xlink" width="64" height="64" viewBox="0 0 5.128 8.844"><svg overflow="visible" x="-.478" y="6.922"><path style="stroke:none" d="M1.906-6.922v.297c.172 0 .313 0 .469.031.094 0 .172.016.234.078.079.079.079.204.079.297V-4.5a1.7 1.7 0 0 0-.61.125C1.313-4.125.594-3.5.484-2.656c0 .14-.015.25 0 .39a1.5 1.5 0 0 0 .11.438c.078.219.203.406.36.578.202.25.484.438.765.594.297.14.64.25.968.265V.984c0 .157.047.407-.078.532-.062.062-.14.062-.234.078-.156.015-.297.015-.469.015v.313l.907-.031.921.015.438.016v-.313c-.172 0-.313 0-.469-.015-.078-.016-.172-.016-.234-.078-.125-.125-.078-.375-.078-.532V-.39c.328-.015.671-.125.968-.265.282-.156.563-.344.782-.594.14-.172.265-.36.343-.578.063-.14.094-.297.11-.438.015-.14.015-.25 0-.39C5.5-3.5 4.78-4.125 4-4.375a1.634 1.634 0 0 0-.61-.125v-1.719c0-.093 0-.218.079-.297.062-.062.156-.078.234-.078.156-.031.297-.031.469-.031v-.297l-.438.016-.937.015zm.782 2.64v3.657a1.777 1.777 0 0 1-1.172-.703c-.157-.203-.235-.438-.297-.688-.11-.64.031-1.359.531-1.812.266-.235.594-.375.938-.453zM3.39-.624V-4.28c.343.078.671.218.953.453.484.453.625 1.172.515 1.812-.046.25-.14.485-.296.688-.282.39-.704.625-1.172.703zm0 0"/></svg></svg>