<svg xmlns="http://www.w3.org/2000/svg" xmlns:xlink="http://www.w3.org/1999/xlink" width="64" height="64" viewBox="0 0 4.284 4.745"><svg overflow="visible" x="-.278" y="4.528"><path style="stroke:none" d="M3.297-2.313c.297-.093.578-.156.812-.374.079-.063.141-.157.204-.25a.812.812 0 0 0-.016-.86 1.256 1.256 0 0 0-.36-.344 2.206 2.206 0 0 0-.921-.343 2.55 2.55 0 0 0-.844-.016c-.328.047-.64.188-.89.375a2.3 2.3 0 0 0-.766 1c-.36.828-.344 1.875.28 2.578.126.14.282.281.438.39.672.438 1.532.47 2.282.204a2.08 2.08 0 0 0 .593-.36c.125-.093.22-.203.297-.328.063-.093.094-.187.125-.28.016-.079.032-.157.032-.22 0-.546-.516-.906-.97-1.078-.093-.031-.187-.078-.296-.094zm.234-.984c-.031.36-.265.719-.64.797-.172.063-.344.031-.516.063-.078 0-.156 0-.156.109 0 .062.047.11.11.11h.218c.156 0 .297.03.437.077.204.094.407.235.532.407.218.343.218.843-.016 1.187-.406.594-1.281.563-1.86.297C1.126-.5.72-.953.595-1.516a2.112 2.112 0 0 1-.063-.703c.094-.828.578-1.703 1.406-1.984.516-.156 1.25-.11 1.516.422.031.078.063.14.078.219 0 .078.016.171 0 .265zm0 0"/></svg></svg>