<svg xmlns="http://www.w3.org/2000/svg" xmlns:xlink="http://www.w3.org/1999/xlink" width="64" height="64" viewBox="0 0 3.038 8.955"><svg overflow="visible" x="-.328" y="6.922"><path style="stroke:none" d="M.328-6.813v.297c.156 0 .297 0 .438.032.093.015.171.03.234.093.14.125.11.36.11.532V.203c0 .14-.016.297 0 .438.015.234.062.453.171.656.125.281.36.531.657.656.453.188 1.156.047 1.375-.437.109-.266.062-.61-.235-.704-.062-.03-.11-.03-.172-.03-.062 0-.11 0-.172.03a.47.47 0 0 0-.187.72c.078.077.172.14.281.155a1.28 1.28 0 0 1-.422.125c-.047 0-.078 0-.14-.015-.22-.031-.329-.234-.391-.438-.14-.468-.094-.953-.094-1.421v-6.86zm0 0"/></svg></svg>