<svg xmlns="http://www.w3.org/2000/svg" xmlns:xlink="http://www.w3.org/1999/xlink" width="64" height="64" viewBox="0 0 3.575 6.459"><svg overflow="visible" x="-.266" y="4.422"><path style="stroke:none" d="M.266-4.313V-4c.14 0 .296 0 .437.016.078.015.156.03.219.093.125.11.125.282.125.422v3.406c0 .282-.031.579.016.844.046.25.156.485.312.688a1.53 1.53 0 0 0 1.063.562c.187.016.39 0 .578-.031.265-.063.562-.172.718-.406.157-.235.157-.594-.109-.75-.047-.031-.094-.047-.14-.063h-.188c-.39.063-.516.61-.188.828.047.032.094.063.157.063v.016c-.079.015-.172.062-.25.078-.313.078-.688.093-.938-.157-.344-.343-.36-.875-.36-1.328v-1.984c0-.484-.03-.969.11-1.438.125-.468.422-.968.938-1.046a.592.592 0 0 1 .234 0v.015c-.234.094-.281.406-.156.61.062.109.172.171.312.187h.156c.047-.031.094-.047.141-.063.25-.171.203-.546.031-.734-.171-.203-.468-.266-.718-.234-.422.047-.735.328-.938.687-.062.125-.125.25-.156.375v-1.078zm0 0"/></svg></svg>