<svg xmlns="http://www.w3.org/2000/svg" xmlns:xlink="http://www.w3.org/1999/xlink" width="64" height="64" viewBox="0 0 1.956 2.264"><svg overflow="visible" x=".69" y=".227"><path style="stroke:none" d="M-.172 1.688a.424.424 0 0 0 .266-.125.472.472 0 0 0 0-.672C-.172.656-.61.78-.672 1.14c-.031.078-.015.156 0 .234.094.453.594.703 1.016.656a.509.509 0 0 0 .219-.062c.234-.078.39-.266.5-.485.156-.312.203-.656.203-1v-.53c0-.079-.016-.157-.094-.173C1.109-.234 1-.234.969-.172c-.031.063-.016.14-.016.203v.406c0 .344-.031.72-.187 1.032-.125.218-.313.36-.563.343a1.063 1.063 0 0 1-.375-.125zm0 0"/></svg></svg>