<svg xmlns="http://www.w3.org/2000/svg" xmlns:xlink="http://www.w3.org/1999/xlink" width="64" height="64" viewBox="0 0 6.036 7.138"><svg overflow="visible" x="-.324" y="7.045"><path style="stroke:none" d="M3.781-3.844c-.11-.156-.297-.281-.453-.375-.656-.36-1.515-.187-2.094.235a2.46 2.46 0 0 0-.453.453 2.344 2.344 0 0 0 0 2.781c.14.188.313.344.5.484.36.235.766.36 1.203.36.375 0 .75-.14 1.032-.375.109-.078.187-.172.265-.266v.64l1.485-.109v-.296c-.157 0-.329 0-.47-.032-.109-.031-.218-.078-.265-.187-.078-.156-.047-.344-.047-.516V-4.39c0-.53-.03-1.046.094-1.562.094-.36.281-.781.703-.86h.157c.078 0 .171.032.234.047a.654.654 0 0 1 .25.172c-.156 0-.297.047-.375.157-.203.25-.094.671.219.75.296.062.578-.125.593-.438A.84.84 0 0 0 6-6.844a1.544 1.544 0 0 0-.234-.14c-.657-.22-1.375.187-1.704.75-.156.296-.25.609-.28.937v.531zm-2.61 1.938c-.015-.172 0-.36 0-.532.032-.5.141-1.015.516-1.374.094-.079.172-.141.25-.188a1.239 1.239 0 0 1 1.579.219.859.859 0 0 1 .203.265c.031.047.062.094.062.141.031.188 0 .39 0 .578v1.578c0 .063.016.14 0 .219-.015.063-.078.14-.11.203-.327.485-.905.797-1.483.625a.911.911 0 0 1-.282-.125 1.62 1.62 0 0 1-.312-.266c-.203-.234-.313-.515-.375-.812-.016-.188-.032-.344-.047-.531zm0 0"/></svg></svg>