<svg xmlns="http://www.w3.org/2000/svg" xmlns:xlink="http://www.w3.org/1999/xlink" width="64" height="64" viewBox="0 0 4.906 4.453"><svg overflow="visible" x="-.344" y="4.313"><path style="stroke:none" d="M.344-4.313v.25c.14 0 .281 0 .422.016.093.016.171.047.218.125a.659.659 0 0 1 .047.297v2.922c0 .11.016.219-.047.312-.046.079-.14.094-.218.125C.625-.25.484-.25.344-.25v.234l.39-.015.844-.016.813.031V-.25c-.141 0-.266 0-.407-.016a.46.46 0 0 1-.203-.078c-.11-.125-.078-.344-.078-.5v-1.203h.578c.11 0 .235-.015.344 0 .219.016.422.14.563.313.109.156.124.328.124.515 0 .172-.015.344 0 .516.016.219.11.406.282.547.078.078.172.14.281.172.125.046.266.093.422.109.266.031.531.031.734-.172.047-.047.078-.11.11-.156a.644.644 0 0 0 .109-.36c0-.062 0-.125-.063-.156-.046-.031-.14-.015-.171.047C5-.625 5-.594 5-.547c-.016.063-.031.125-.047.172-.062.172-.281.375-.484.266-.016-.016-.047-.047-.078-.063-.125-.156-.157-.36-.22-.562-.046-.157-.077-.329-.124-.485-.047-.14-.063-.281-.14-.406A1.315 1.315 0 0 0 3.561-2a1.576 1.576 0 0 0-.28-.14c.093-.016.187-.047.28-.079.376-.14.797-.437.844-.86 0-.077 0-.155-.015-.218-.032-.094-.063-.187-.11-.265a1.245 1.245 0 0 0-.234-.266 1.482 1.482 0 0 0-.422-.266 3.158 3.158 0 0 0-.938-.218h-.64zm1.36 2.047v-1.25c0-.109-.016-.218.015-.328 0-.031 0-.094.031-.125C1.797-4 1.875-4 1.922-4h.453c.344 0 .781 0 1.031.281a.51.51 0 0 1 .125.281c.063.266.063.657-.125.876-.156.171-.39.234-.61.265-.358.047-.733.031-1.093.031zm0 0"/></svg></svg>