<svg xmlns="http://www.w3.org/2000/svg" xmlns:xlink="http://www.w3.org/1999/xlink" width="64" height="64" viewBox="0 0 4.84 4.746"><svg overflow="visible" x="-.207" y="4.54"><path style="stroke:none" d="M2.734-2.922c-.062-.125-.109-.25-.187-.375-.25-.469-.578-1.031-1.125-1.203-.406-.11-.906 0-1.11.39a.67.67 0 0 0-.093.266c-.016.031-.016.078 0 .125.047.078.187.078.218.016.016-.047.016-.094.032-.14a.845.845 0 0 1 .062-.188c.094-.157.297-.313.485-.266a.43.43 0 0 1 .234.125c.156.156.281.344.39.531.188.313.344.625.5.954.047.124.11.234.157.359.031.047.078.11.062.172A.33.33 0 0 1 2.297-2c-.047.11-.094.203-.14.313-.188.343-.36.687-.329 1.093.047.39.328.781.75.797a.961.961 0 0 0 .516-.11c.14-.077.25-.155.328-.28.047-.079.094-.157.125-.235.11-.219.11-.5.031-.734-.047-.157-.125-.282-.187-.422-.11-.203-.204-.422-.313-.64-.031-.095-.094-.188-.14-.282-.016-.047-.047-.078-.047-.125-.016-.031.015-.078.03-.11.032-.062.063-.14.11-.218.14-.297.281-.594.485-.86.187-.28.468-.578.828-.484.047.016.11.031.14.047.063.031.11.078.157.125a.59.59 0 0 1 .14.234c0 .063 0 .125.032.188.046.062.187.062.218-.016.016-.047.016-.078.016-.125a1.536 1.536 0 0 0-.078-.25c-.188-.36-.64-.515-1.016-.39-.281.093-.484.296-.64.53-.235.313-.407.673-.579 1.032zM2.516-1.89c.062.141.125.266.203.407.11.25.234.484.265.765.032.188.032.406-.078.563l-.094.093c-.187.126-.437.016-.562-.14-.156-.172-.203-.438-.172-.672.063-.36.313-.672.438-1.016zm0 0"/></svg></svg>