<svg xmlns="http://www.w3.org/2000/svg" xmlns:xlink="http://www.w3.org/1999/xlink" width="64" height="64" viewBox="0 0 3.856 9.291"><svg overflow="visible" x=".276" y="7.045"><path style="stroke:none" d="M1.313.172a2.038 2.038 0 0 0-.688.031 1.65 1.65 0 0 0-.547.281 1.236 1.236 0 0 0-.25.313.615.615 0 0 0-.094.328.852.852 0 0 0 .016.344.718.718 0 0 0 .11.25c.312.5 1.046.547 1.484.187.156-.125.281-.297.375-.484.11-.234.218-.516.234-.781.094.062.188.125.266.203.234.187.437.469.531.75.047.156.078.297.094.453 0 .062-.016.14.062.187.078.032.172 0 .188-.078a1.492 1.492 0 0 0-.047-.453C2.953 1.328 2.734 1 2.469.734A1.486 1.486 0 0 0 2.156.5C2.11.469 2.031.437 2 .375 1.984.344 2 .297 2 .25c0-.094.016-.188 0-.266v-5.203c0-.156-.016-.312 0-.468.016-.282.031-.563.14-.813a.491.491 0 0 1 .344-.313c.188-.03.344.047.532.079-.11.046-.188.078-.266.171-.125.188-.125.454.031.61.172.172.485.187.656.016.204-.188.172-.516.016-.72a.645.645 0 0 0-.265-.234c-.422-.25-.985-.187-1.36.125-.062.063-.14.141-.187.22a1.493 1.493 0 0 0-.297.75c-.016.155-.016.296-.016.452v5.172c0 .125-.016.234-.016.344zm0 .234c0 .235-.016.469-.063.703a1.48 1.48 0 0 1-.11.454.56.56 0 0 1-.234.296c-.265.172-.64 0-.812-.234-.219-.297-.11-.703.14-.938C.344.579.5.5.656.454.781.406.937.375 1.078.375c.078.016.14.031.234.031zm0 0"/></svg></svg>