<svg xmlns="http://www.w3.org/2000/svg" xmlns:xlink="http://www.w3.org/1999/xlink" width="64" height="64" viewBox="0 0 4.804 8.969"><svg overflow="visible" x="-.047" y="7.047"><path style="stroke:none" d="M.047 1.61v.312l.437-.016.922-.015.89.03V1.61c-.155 0-.296 0-.468-.015-.078-.016-.156-.016-.219-.078-.078-.079-.078-.204-.078-.297V-.516c.188.204.407.391.688.5.64.266 1.422.063 1.937-.39.297-.266.516-.594.625-.985a2.133 2.133 0 0 0-.64-2.125c-.204-.156-.438-.312-.688-.375.078-.046.156-.093.219-.14.172-.094.312-.235.437-.39a1.672 1.672 0 0 0-.125-2.11 1.966 1.966 0 0 0-.656-.422c-.578-.203-1.25-.063-1.734.281-.39.266-.672.703-.75 1.172-.016.172-.016.313-.016.469v6.25c0 .093 0 .218-.078.297-.063.062-.156.062-.234.078-.157.015-.313.015-.47.015zm3.672-6.813c-.031.375-.094.75-.406 1.016a.694.694 0 0 1-.172.125C2.906-3.97 2.656-4 2.406-4c-.078 0-.219 0-.203.125.016.14.203.094.297.094.172 0 .344 0 .5.015.156.032.313.11.438.204.421.328.53.828.562 1.328v.562A3.347 3.347 0 0 1 3.89-1a1.31 1.31 0 0 1-.437.64.822.822 0 0 1-.25.157c-.515.219-1.094-.031-1.437-.453a1.168 1.168 0 0 1-.235-.375c-.015-.063 0-.11 0-.172v-3.39c0-.516-.031-1.032.203-1.5.235-.47.735-.845 1.25-.688a.367.367 0 0 1 .22.11.669.669 0 0 1 .25.218c.202.234.25.531.265.828.015.125.015.281 0 .422zm0 0"/></svg></svg>