<svg xmlns="http://www.w3.org/2000/svg" xmlns:xlink="http://www.w3.org/1999/xlink" width="64" height="64" viewBox="0 0 3.354 6.336"><svg overflow="visible" x="-.271" y="6.235"><path style="stroke:none" d="M1.219-6.234v.296c.203 0 .406 0 .61.032.109 0 .218.031.28.11.094.109.079.25.079.39v2.765c0 .47.03.938-.094 1.391-.125.5-.422 1.047-.969 1.125H.891v-.016c.234-.093.296-.421.171-.609C1-.875.875-.922.75-.953c-.047 0-.11 0-.156.015-.063.016-.11.047-.14.063-.25.172-.22.531-.048.734.188.203.469.266.735.235.421-.047.734-.328.937-.688.063-.125.11-.25.14-.39h.016V.094l1.391-.11v-.296c-.156 0-.313 0-.469-.032-.11-.031-.219-.078-.25-.187-.078-.125-.062-.297-.062-.438v-4.39c0-.125-.016-.297.047-.407.046-.093.156-.14.25-.14.156-.032.328-.032.484-.032v-.296l-.422.015-.984.016zm0 0"/></svg></svg>