<svg xmlns="http://www.w3.org/2000/svg" xmlns:xlink="http://www.w3.org/1999/xlink" width="64" height="64" viewBox="0 0 3.487 7.672"><svg overflow="visible" x=".117" y="6.141"><path style="stroke:none" d="M1.484-6.14c0 .124-.015.234-.015.343-.078.61-.36 1.36-1.016 1.547a1.548 1.548 0 0 1-.281.031V-4h.86v2.906c.015.032.03.078 0 .11 0 .062-.063.109-.11.156-.063.078-.14.172-.188.265-.203.266-.359.579-.5.875-.125.313-.218.61-.312.922-.016.094-.094.266.031.297h.063c.093 0 .109-.078.14-.156.016-.14.078-.281.11-.422C.453.375.719-.219 1.14-.672c.062.235.25.438.437.563.203.125.453.171.672.203.125 0 .234.015.36 0a.968.968 0 0 0 .578-.375c.296-.406.234-1.016-.204-1.297a.858.858 0 0 0-.578-.156c-.25.015-.469.156-.672.234V-4h1.422v-.313H1.734V-6.14zm.25 5.077c0-.046-.015-.093.016-.125.031-.03.078-.062.11-.093.109-.047.218-.11.327-.14a.664.664 0 0 1 .391-.048c.297.032.516.282.547.578a.705.705 0 0 1-.406.704.777.777 0 0 1-.563-.047c-.297-.172-.375-.516-.422-.829zm0 0"/></svg></svg>