<svg xmlns="http://www.w3.org/2000/svg" xmlns:xlink="http://www.w3.org/1999/xlink" width="64" height="64" viewBox="0 0 5.742 8.953"><svg overflow="visible" x="-.338" y="6.922"><path style="stroke:none" d="M3.047-6.813v.297c.14 0 .297 0 .437.032a.41.41 0 0 1 .235.109c.062.063.078.14.094.234.015.157 0 .313 0 .485v1.843a1.737 1.737 0 0 0-.72-.515c-.218-.094-.468-.094-.718-.078a2.194 2.194 0 0 0-1.578.875c-.703.922-.594 2.328.297 3.11.125.124.297.233.468.312.344.156.72.234 1.094.203.328-.047.64-.188.875-.39a1.89 1.89 0 0 0 .25-.25V.64c.031.203.063.406.156.593.126.297.329.547.61.672.39.203.953.157 1.281-.125.25-.218.39-.718.047-.937-.047-.031-.094-.047-.14-.063H5.53c-.375.063-.484.547-.234.797a.514.514 0 0 0 .25.11c-.188.062-.36.14-.547.109-.25-.016-.375-.266-.438-.484C4.454.859 4.484.359 4.484-.11v-6.813zM1.172-1.905c-.016-.172 0-.36 0-.532.031-.5.14-1.015.516-1.374.093-.079.171-.141.25-.188a1.239 1.239 0 0 1 1.578.219.859.859 0 0 1 .203.265c.031.047.062.094.062.141.031.188 0 .39 0 .578v1.578c0 .063.016.14 0 .219-.015.063-.078.14-.11.203-.327.485-.905.797-1.483.625a.911.911 0 0 1-.282-.125 1.62 1.62 0 0 1-.312-.266c-.203-.234-.313-.515-.375-.812-.016-.188-.032-.344-.047-.531zm0 0"/></svg></svg>