<svg xmlns="http://www.w3.org/2000/svg" xmlns:xlink="http://www.w3.org/1999/xlink" width="64" height="64" viewBox="0 0 6.036 9.076"><svg overflow="visible" x="-.324" y="7.045"><path style="stroke:none" d="M3.781-3.844c-.11-.156-.297-.281-.453-.375-.656-.36-1.515-.187-2.094.235a2.46 2.46 0 0 0-.453.453 2.344 2.344 0 0 0 0 2.781c.14.188.313.344.5.484.36.235.766.36 1.203.36.375 0 .75-.14 1.032-.375.109-.078.187-.172.265-.266V.641c.031.203.063.406.156.593.126.297.329.547.61.672.39.203.953.157 1.281-.125.25-.218.39-.718.047-.937-.047-.031-.094-.047-.14-.063H5.53c-.375.063-.484.547-.234.797a.514.514 0 0 0 .25.11c-.188.062-.36.14-.547.109-.219-.016-.344-.203-.406-.39-.125-.36-.11-.75-.11-1.11v-5c0-.297-.015-.578.016-.86l.047-.234c.078-.406.266-.906.703-1 .063-.016.11-.016.172-.016a.63.63 0 0 1 .234.047c.11.032.188.094.266.172-.156 0-.297.047-.375.157-.203.25-.094.671.219.75.296.062.578-.125.593-.438A.84.84 0 0 0 6-6.844a1.544 1.544 0 0 0-.234-.14c-.657-.22-1.375.187-1.704.75-.156.296-.25.609-.28.937v.531zm-2.61 1.938c-.015-.172 0-.36 0-.532.032-.5.141-1.015.516-1.374.094-.079.172-.141.25-.188a1.239 1.239 0 0 1 1.579.219.859.859 0 0 1 .203.265c.031.047.062.094.062.141.031.188 0 .39 0 .578v1.578c0 .063.016.14 0 .219-.015.063-.078.14-.11.203-.327.485-.905.797-1.483.625a.911.911 0 0 1-.282-.125 1.62 1.62 0 0 1-.312-.266c-.203-.234-.313-.515-.375-.812-.016-.188-.032-.344-.047-.531zm0 0"/></svg></svg>