<svg xmlns="http://www.w3.org/2000/svg" xmlns:xlink="http://www.w3.org/1999/xlink" width="64" height="64" viewBox="0 0 6.616 4.633"><svg overflow="visible" x="-.29" y="4.474"><path style="stroke:none" d="M3.594-3.469c-.172-.234-.344-.437-.578-.594a1.86 1.86 0 0 0-1.735-.234c-.406.156-.687.453-.875.813-.031.093-.078.187-.11.28 0 .032-.015.079 0 .126.048.094.188.062.235-.016l.094-.281c.078-.156.188-.297.313-.422.343-.312.921-.484 1.359-.297.203.078.39.219.515.39.391.5.47 1.157.422 1.767-.015.406-.078.796-.28 1.156-.142.25-.345.484-.626.61a1.212 1.212 0 0 1-.578.077c-.328-.031-.656-.125-.906-.36a.524.524 0 0 0 .36-.171c.171-.188.124-.547-.11-.688-.25-.156-.61-.03-.688.266-.062.203.016.453.125.625.188.281.531.438.844.516.516.125 1.031.078 1.484-.188.157-.093.282-.203.407-.328s.265-.297.343-.469h.016c.094.188.266.36.406.485C4.563.047 5.36.266 6-.046c.36-.157.625-.454.797-.813a.817.817 0 0 0 .094-.25c0-.047.015-.094 0-.141-.032-.078-.172-.078-.22 0-.03.047-.03.11-.046.172-.047.094-.078.187-.14.266-.22.375-.61.64-1.032.656-.14 0-.281-.016-.406-.047a1.091 1.091 0 0 1-.328-.172C4.64-.422 4.562-.5 4.484-.563c-.453-.468-.53-1.125-.53-1.75h2.702c.078 0 .157.016.219-.046.031-.016.031-.079.031-.141 0-.094 0-.203-.015-.297-.047-.453-.188-.922-.516-1.25a1.854 1.854 0 0 0-.36-.25c-.734-.375-1.656-.125-2.171.484-.11.11-.188.22-.25.344zm.36.953C4-3.03 4.108-3.562 4.5-3.922c.281-.281.719-.437 1.094-.25.078.063.156.11.234.188.14.14.219.328.281.515.094.297.125.625.125.953zm0 0"/></svg></svg>