<svg xmlns="http://www.w3.org/2000/svg" xmlns:xlink="http://www.w3.org/1999/xlink" width="64" height="64" viewBox="0 0 4.569 8.957"><svg overflow="visible" x="-.328" y="6.922"><path style="stroke:none" d="M.328-6.813v.297c.156 0 .313 0 .453.032.125.03.25.078.281.203.063.156.047.328.047.484v4.844c0 .14.032.328-.046.469-.047.093-.141.14-.25.14-.157.031-.329.031-.485.031v.297l.89-.03.907.015.422.015v-.296c-.156 0-.297 0-.469-.032-.078 0-.172-.015-.219-.078-.078-.078-.078-.187-.078-.281V-3.47c0-.078-.031-.203.016-.265.016-.047.062-.063.094-.079.328-.203.703-.28 1.062-.312.14-.016.328-.031.469.031.11.047.187.14.25.235.14.218.187.515.172.765-.031.188-.11.36-.188.516-.156.281-.312.562-.312.89 0 .157.094.329.172.485.187.344.484.656.515 1.062.016.047 0 .11 0 .157 0 .078.016.171.016.25-.016.437-.156.89-.453 1.218a1.347 1.347 0 0 1-.281.22c-.297.155-.672.124-.985.046a1.422 1.422 0 0 1-.75-.406c.14 0 .297-.032.39-.14.188-.22.141-.595-.124-.72a.47.47 0 0 0-.672.282c-.047.203.031.421.11.593.187.329.593.516.952.61.813.187 1.75-.016 2.282-.703.171-.22.296-.485.343-.75.016-.11.032-.22.032-.329 0-.062.015-.124 0-.203 0-.296-.11-.609-.282-.875-.109-.187-.296-.328-.437-.5-.078-.078-.156-.171-.172-.28a.36.36 0 0 1 .031-.22c.032-.156.11-.296.203-.453.125-.203.235-.422.297-.672v-.234a1.02 1.02 0 0 0-.11-.469 1.124 1.124 0 0 0-.187-.328l-.187-.187a1.34 1.34 0 0 0-.719-.297c-.11 0-.219 0-.328.015a2.853 2.853 0 0 0-.875.204 2.487 2.487 0 0 0-.344.203v-2.813zm0 0"/></svg></svg>