<svg xmlns="http://www.w3.org/2000/svg" xmlns:xlink="http://www.w3.org/1999/xlink" width="64" height="64" viewBox="0 0 3.143 6.244"><svg overflow="visible" x="-.545" y="4.415"><path style="stroke:none" d="M.547-2.5h.25c0-.438-.063-.953.187-1.344a.822.822 0 0 1 .188-.219.493.493 0 0 1 .61 0 .685.685 0 0 1 .265.36c.078.203.094.437.094.672v2.719H.719v.296H2.14v1.844h.234c0-.11.016-.219.031-.344.063-.609.344-1.359 1-1.546.094-.032.188-.032.281-.032v-.218h-.859v-2.235c0-.437.047-.906-.172-1.297-.187-.36-.578-.515-.969-.562a1.04 1.04 0 0 0-.437.031.938.938 0 0 0-.422.313C.5-3.595.547-3.032.547-2.5zm0 0"/></svg></svg>