<svg xmlns="http://www.w3.org/2000/svg" xmlns:xlink="http://www.w3.org/1999/xlink" width="64" height="64" viewBox="0 0 4.157 7.137"><svg overflow="visible" x="-.766" y="7.044"><path style="stroke:none" d="M.766-.016 1-.03l.14-.172.235-.422c.11.125.203.25.344.36.265.25.61.359.968.359.422 0 .844-.125 1.204-.36.25-.156.468-.359.64-.609.657-.953.469-2.313-.422-3.047-.593-.531-1.5-.656-2.203-.25-.156.094-.343.234-.453.406h-.016v-.765c0-.14-.015-.282 0-.407.016-.296.079-.609.204-.875.14-.328.39-.64.703-.828.312-.171.656-.203 1-.156.328.031.672.14.922.36A.552.552 0 0 0 4-6.375c-.234.14-.281.5-.11.719a.54.54 0 0 0 .547.11.488.488 0 0 0 .172-.141.297.297 0 0 0 .079-.204c.03-.078.015-.156 0-.234-.079-.484-.547-.75-.985-.844a3.233 3.233 0 0 0-.953-.062 2.338 2.338 0 0 0-1.578.922 2.462 2.462 0 0 0-.375.859c-.031.219-.031.422-.031.625zm3.312-1.906c-.016.14-.016.281-.047.422a1.71 1.71 0 0 1-.328.844c-.14.172-.312.312-.515.422-.344.156-.782.156-1.11-.047a1.346 1.346 0 0 1-.469-.422c-.046-.078-.109-.172-.14-.281-.016-.063 0-.157 0-.22v-1.562c0-.187-.016-.39 0-.578 0-.062.031-.094.062-.14a1.4 1.4 0 0 1 .235-.297c.406-.39 1.062-.563 1.578-.25.078.062.172.125.25.203.36.375.453.875.484 1.36.016.187.016.359 0 .546zm0 0"/></svg></svg>