<svg xmlns="http://www.w3.org/2000/svg" xmlns:xlink="http://www.w3.org/1999/xlink" width="64" height="64" viewBox="0 0 6.033 8.271"><svg overflow="visible" x="-.331" y="6.35"><path style="stroke:none" d="M3.813-3.625a1.442 1.442 0 0 0-.36-.453c-.61-.531-1.547-.375-2.172.062a2.55 2.55 0 0 0-.312.266 2.362 2.362 0 0 0-.453.703C.109-2.109.39-.953 1.203-.328c.484.375 1.172.562 1.781.344.172-.063.329-.157.47-.282.124-.093.25-.218.327-.359v1.844c0 .11 0 .218-.078.297-.047.062-.14.062-.219.078-.171.015-.312.015-.468.015v.313l.437-.016.906-.015.907.03V1.61c-.157 0-.329 0-.485-.015-.11-.016-.218-.063-.265-.172-.032-.078-.032-.172-.032-.25V-4.36c0-.25-.015-.5.047-.75.063-.407.266-.891.719-1 .047-.016.11-.016.156-.016.094 0 .172.016.235.031a.792.792 0 0 1 .25.14.505.505 0 0 0-.375.204.485.485 0 0 0 .234.703.485.485 0 0 0 .61-.375.788.788 0 0 0-.282-.672c-.5-.453-1.297-.25-1.75.188-.156.14-.281.328-.375.531-.078.188-.11.375-.14.563v.406zM1.171-2c-.016-.11 0-.25 0-.36.047-.609.297-1.25.812-1.609.11-.062.235-.125.36-.172a1.43 1.43 0 0 1 .265-.03c.532 0 .922.437 1.11.905.047.11.078.22.094.329.015.109 0 .203 0 .312V-1.5c0 .094.015.203 0 .297-.032.156-.141.312-.22.453a1.538 1.538 0 0 1-.39.39.943.943 0 0 1-.375.188c-.11.047-.234.047-.36.047-.312 0-.577-.188-.78-.406a2.483 2.483 0 0 1-.47-1.031L1.173-2zm0 0"/></svg></svg>