<svg xmlns="http://www.w3.org/2000/svg" xmlns:xlink="http://www.w3.org/1999/xlink" width="64" height="64" viewBox="0 0 5.555 5.97"><svg overflow="visible" x="-.313" y="4.422"><path style="stroke:none" d="M.313-4.313V-4c.156 0 .312 0 .468.031.094.016.188.047.25.125.063.11.063.235.063.344v2.766c0 .093 0 .203-.063.28-.047.079-.14.11-.234.11-.156.031-.313.031-.485.031v.297L.75-.03l.922-.016.906.031v-.296c-.172 0-.328 0-.484-.032-.094 0-.188-.031-.235-.094-.078-.093-.062-.234-.062-.359v-1.515c0-.188-.016-.376 0-.563.047-.281.156-.563.344-.797a.587.587 0 0 1 .218-.219 1.122 1.122 0 0 1 .766-.312c.078 0 .156.016.219.031.5.156.5.75.5 1.172v1.844c0 .062.015.125 0 .187-.031.047-.078.094-.11.156a1.347 1.347 0 0 0-.218.282 6.687 6.687 0 0 0-.594.969c-.14.265-.281.53-.406.78-.047.095-.141.22-.047.298 0 .015.031.015.047.03.125.016.171-.093.203-.187.156-.296.312-.609.484-.906.14-.266.281-.516.453-.75.078-.125.156-.266.266-.375.062.219.219.406.39.547.141.11.313.188.5.219.141.015.297 0 .454-.032.125-.046.234-.109.328-.187.375-.328.36-.938-.016-1.266a.953.953 0 0 0-1.031-.11v-1.375c0-.39-.016-.797-.266-1.125-.203-.266-.547-.375-.875-.406a1.902 1.902 0 0 0-.515.015 1.543 1.543 0 0 0-.922.594c-.094.125-.188.266-.219.406h-.016v-1.03zm4.234 3.36v-.188c0-.03 0-.062.016-.109.015-.031.046-.047.078-.063.078-.03.156-.046.234-.062.36-.063.703.234.75.594.031.328-.266.765-.64.656-.048 0-.094-.031-.141-.047-.235-.172-.266-.5-.297-.781zm0 0"/></svg></svg>