<svg xmlns="http://www.w3.org/2000/svg" xmlns:xlink="http://www.w3.org/1999/xlink" width="64" height="64" viewBox="0 0 4.766 4.297"><svg overflow="visible" x="-.344" y="4.313"><path style="stroke:none" d="M.344-4.313v.25c.14 0 .281 0 .406.016a.35.35 0 0 1 .234.125c.047.078.047.203.047.297v2.922c0 .11 0 .219-.047.297-.046.094-.125.11-.218.14C.625-.25.484-.25.344-.25v.234l.812-.03.86.015.39.015V-.25c-.14 0-.265 0-.406-.016-.063-.015-.14-.03-.203-.078-.11-.125-.078-.36-.078-.5v-1.265h2.015v1.265c0 .14.032.375-.078.5-.062.047-.14.063-.203.078-.14.016-.265.016-.406.016v.234l.39-.015.86-.016.812.031V-.25c-.14 0-.28 0-.421-.016-.094-.03-.172-.046-.22-.14-.046-.078-.046-.188-.046-.297v-2.922c0-.094 0-.219.047-.297a.352.352 0 0 1 .218-.125c.141-.016.282-.016.422-.016v-.25l-.39.032h-.86l-.812-.032v.25c.14 0 .265 0 .406.016.063.016.14.031.203.078.11.125.078.313.078.453v1.125H1.72v-1.125c0-.14-.032-.328.078-.453.062-.047.14-.062.203-.078.14-.016.266-.016.406-.016v-.25l-.812.032h-.86zm0 0"/></svg></svg>