<svg xmlns="http://www.w3.org/2000/svg" xmlns:xlink="http://www.w3.org/1999/xlink" width="64" height="64" viewBox="0 0 4.828 7.026"><svg overflow="visible" x="-.266" y="7.041"><path style="stroke:none" d="M.266-.313v.297L.703-.03l.875-.016.89.031v-.296c-.155 0-.312 0-.468-.032a.359.359 0 0 1-.219-.062c-.093-.078-.093-.219-.093-.328v-.938c0-.031 0-.078.015-.11.031-.077.125-.124.188-.187.14-.125.296-.25.437-.375.078.156.203.297.297.453.25.329.5.672.719 1.016.11.14.25.39.047.5-.032.031-.063.031-.094.031-.047.031-.11.031-.156.031v.297l.875-.03.75.015.328.015v-.296c-.172 0-.36 0-.516-.094-.234-.125-.375-.36-.516-.563a45.1 45.1 0 0 1-.765-1.062c-.11-.172-.235-.344-.36-.516a.923.923 0 0 1-.093-.125c-.016-.015-.031-.047-.016-.062 0-.063.063-.094.11-.141l.328-.281C3.719-3.546 4.234-4 4.875-4v-.313l-.89.032-.922-.032V-4a.368.368 0 0 1 .203.078c.156.156.03.375-.079.5-.156.14-.312.266-.468.406-.344.282-.672.579-1 .86v-2.219c0-.453-.047-.938.078-1.375.047-.172.11-.344.219-.484.062-.11.156-.22.25-.313.39-.328.921-.328 1.39-.14.11.03.188.109.297.171-.156.032-.297.063-.39.204-.11.171-.11.421.046.578a.52.52 0 0 0 .329.14.562.562 0 0 0 .171-.031c.032 0 .079-.031.125-.063.282-.203.188-.64 0-.875-.203-.25-.515-.375-.812-.437-.703-.14-1.453.078-1.922.64-.219.266-.39.579-.438.907-.046.312-.015.625-.015.937v3.672c0 .14.031.328-.094.438a.359.359 0 0 1-.219.062c-.156.031-.312.031-.468.031zm0 0"/></svg></svg>