<svg xmlns="http://www.w3.org/2000/svg" xmlns:xlink="http://www.w3.org/1999/xlink" width="64" height="64" viewBox="0 0 5.016 7.028"><svg overflow="visible" x="-.313" y="7.045"><path style="stroke:none" d="M.313-.313v.297L.75-.03l.922-.016.906.031v-.296c-.172 0-.328 0-.484-.032-.094 0-.188-.031-.235-.094-.078-.093-.062-.234-.062-.359v-1.562c0-.204-.016-.407.031-.594.063-.36.234-.703.516-.938a1.3 1.3 0 0 1 .344-.218c.14-.063.296-.094.468-.094a.91.91 0 0 1 .281.062c.235.11.344.36.391.594.047.281.031.578.031.86v1.921c0 .11.016.235-.078.329-.047.062-.125.093-.219.093-.156.031-.328.031-.484.031v.297l.438-.015.921-.016.891.031v-.296c-.156 0-.312 0-.469-.032-.14-.015-.265-.062-.296-.219-.016-.078 0-.187 0-.28V-2.78c0-.36 0-.735-.172-1.063-.188-.344-.516-.5-.891-.547a1.794 1.794 0 0 0-.578 0 1.53 1.53 0 0 0-.985.625 1.171 1.171 0 0 0-.156.313h-.015v-.64c0-.22-.016-.423 0-.641 0-.047.015-.11.015-.157v-.437c.047-.406.219-.797.516-1.11a1.21 1.21 0 0 1 .312-.218A.908.908 0 0 1 3-6.796c.188-.032.39-.016.578.015.172.015.328.062.485.125l.234.14c-.14.032-.281.063-.375.188-.11.172-.11.453.062.61a.515.515 0 0 0 .297.124.77.77 0 0 0 .188-.031c.031 0 .078-.031.11-.063.296-.218.202-.656 0-.89-.235-.266-.595-.375-.923-.438-.75-.109-1.547.094-2.078.657a1.74 1.74 0 0 0-.437.859c-.032.172-.032.344-.032.516 0 .046-.015.093-.015.156V-.86c0 .14.031.343-.094.453-.047.047-.14.062-.219.062-.156.031-.312.031-.469.031zm0 0"/></svg></svg>