<svg xmlns="http://www.w3.org/2000/svg" xmlns:xlink="http://www.w3.org/1999/xlink" width="64" height="64" viewBox="0 0 2.41 9.979"><svg overflow="visible" x="-1.281" y="7.489"><path style="stroke:none" d="M1.36-7.484c-.063.03-.079.093-.079.156v9.594c0 .046 0 .109.032.156.03.094.171.062.25.062.03 0 .078 0 .109-.015.047-.016.078-.078.078-.14V-7.25c0-.047 0-.11-.016-.172-.046-.094-.171-.062-.265-.062h-.11zm1.937 0c-.063.03-.063.093-.063.156v9.594c0 .046-.015.109.016.156.047.094.172.062.266.062.015 0 .062 0 .093-.015.063-.016.079-.078.079-.14V-7.25c0-.047.015-.11-.016-.172-.047-.094-.172-.062-.266-.062h-.11zm0 0"/></svg></svg>