<svg xmlns="http://www.w3.org/2000/svg" xmlns:xlink="http://www.w3.org/1999/xlink" width="64" height="64" viewBox="0 0 7.014 6.459"><svg overflow="visible" x="-.313" y="4.422"><path style="stroke:none" d="M.313-4.313V-4c.156 0 .312 0 .468.031.094.016.188.047.25.125.063.11.063.235.063.344v2.766c0 .093 0 .203-.063.28-.047.079-.14.11-.234.11-.156.031-.313.031-.485.031v.297L.75-.03l.922-.016.906.031v-.296c-.172 0-.328 0-.484-.032-.094 0-.188-.031-.235-.094-.078-.093-.062-.234-.062-.359v-1.562c0-.204-.016-.407.031-.594.063-.36.234-.703.516-.938a1.3 1.3 0 0 1 .344-.218c.14-.063.296-.094.468-.094a.91.91 0 0 1 .281.062c.235.11.344.36.391.594.047.281.031.578.031.86v1.921c0 .11.016.235-.078.329-.047.062-.125.093-.219.093-.156.031-.328.031-.484.031v.297l.438-.015.921-.016.891.031v-.296c-.156 0-.312 0-.469-.032-.093 0-.187-.031-.234-.094-.078-.093-.063-.234-.063-.343v-1.516c0-.203-.015-.39.016-.578a1.52 1.52 0 0 1 .36-.844c.062-.094.14-.156.234-.234.11-.078.234-.14.375-.188.187-.062.406-.093.61-.015.218.078.343.281.405.484.063.219.063.438.063.64v2.985c0 .344.016.688-.063 1.016-.046.344-.234.719-.593.828-.282.062-.563-.031-.828-.11v-.015c.328-.063.437-.484.234-.734a.464.464 0 0 0-.61-.094c-.046.031-.077.047-.109.094-.203.25-.078.609.14.812.157.14.36.203.579.25.5.094 1.031.016 1.422-.328.266-.234.453-.578.516-.922.03-.25 0-.516 0-.766v-2.453c0-.469.062-.984-.172-1.406-.25-.406-.72-.547-1.172-.547a1.76 1.76 0 0 0-.5.078c-.14.047-.266.11-.375.188-.266.172-.422.422-.563.703-.078-.266-.156-.5-.375-.688-.203-.171-.484-.25-.75-.265a1.574 1.574 0 0 0-.469.015c-.374.047-.687.25-.937.547-.094.125-.219.297-.25.453h-.016v-1.03zm0 0"/></svg></svg>