<svg xmlns="http://www.w3.org/2000/svg" xmlns:xlink="http://www.w3.org/1999/xlink" width="64" height="64" viewBox="0 0 6.392 4.6"><svg overflow="visible" x="-.593" y="4.459"><path style="stroke:none" d="M6.984-1.344h-.156c-.031 0-.062 0-.078.016-.031.016-.031.078-.047.11 0 .077-.031.14-.047.218-.078.234-.187.453-.39.594-.188.11-.422.14-.641.14-.266.032-.516.016-.797.016-.14 0-.39.047-.469-.094a.356.356 0 0 1-.046-.172c-.016-.109 0-.234 0-.375v-1.203c.28 0 .578-.015.875.016.125 0 .265 0 .359.094.156.125.187.312.187.5h.25v-1.5h-.25c0 .171-.03.375-.187.484-.094.094-.234.094-.36.11-.296.015-.593.015-.875.015v-1.156c0-.11-.015-.203 0-.313.016-.047.032-.11.063-.156.047-.063.14-.063.219-.063h.468c.235 0 .47-.015.704.032a.77.77 0 0 1 .453.172c.078.078.14.171.187.265a2 2 0 0 1 .14.5h.235l-.187-1.219H4.828c-.297 0-.61.032-.906 0-.281-.015-.547-.109-.828-.14-.219-.016-.469 0-.688.062a2.021 2.021 0 0 0-.734.297A2.33 2.33 0 0 0 .625-1.75c.047.281.156.563.313.797C1.359-.25 2.171.157 2.983.14c.313-.016.61-.125.922-.157h2.672c.047 0 .094.016.125-.015.031-.016.031-.063.031-.094l.047-.25c.063-.328.14-.64.203-.969zm-5.578-.734c-.015-.125 0-.25.016-.375.031-.578.297-1.203.781-1.547.266-.172.563-.266.89-.234.173.03.313.062.423.203.109.125.14.312.156.468.015.204 0 .422.015.626.016.468.016.937.016 1.39 0 .078-.015.156-.015.219 0 .219 0 .453-.032.672a.655.655 0 0 1-.125.344c-.094.14-.25.203-.422.218-.25.032-.5 0-.718-.125C1.92-.484 1.625-1 1.5-1.5a3.712 3.712 0 0 1-.094-.578zm0 0"/></svg></svg>