<svg xmlns="http://www.w3.org/2000/svg" xmlns:xlink="http://www.w3.org/1999/xlink" width="64" height="64" viewBox="0 0 2.957 4.447"><svg overflow="visible" x="-.325" y="4.313"><path style="stroke:none" d="M1.219-4.313v.25c.172 0 .36 0 .547.016.093.016.203.047.265.125.078.11.078.266.078.406v2.11c0 .25.032.515-.03.75-.079.265-.282.515-.548.562-.125.032-.265 0-.39-.031C1-.156.89-.235.75-.313a.774.774 0 0 0 .203-.062c.219-.14.25-.469.078-.64a.417.417 0 0 0-.218-.11.321.321 0 0 0-.172 0c-.047.016-.079.016-.125.031-.25.157-.22.5-.11.719.14.25.406.406.672.469.484.11 1.016 0 1.39-.328a.991.991 0 0 0 .298-.563c.03-.172 0-.344 0-.515v-2.375c0-.094.015-.235.093-.297.11-.094.297-.079.422-.079v-.25l-.328.032h-.797zm0 0"/></svg></svg>