<svg xmlns="http://www.w3.org/2000/svg" xmlns:xlink="http://www.w3.org/1999/xlink" width="64" height="64" viewBox="0 0 4.922 6.579"><svg overflow="visible" x="-.335" y="4.422"><path style="stroke:none" d="M3.781-1.016V.047c0 .344 0 .687-.14 1.016-.157.328-.407.625-.75.765-.235.094-.454.11-.704.094-.453-.031-.906-.14-1.234-.484a.39.39 0 0 0 .266-.047c.265-.125.328-.5.14-.72A.53.53 0 0 0 .844.548a.405.405 0 0 0-.172.11.491.491 0 0 0-.11.2c-.03.094-.015.172 0 .266.063.469.47.75.891.89.89.297 1.984.141 2.64-.593.173-.219.313-.484.36-.766.047-.172.031-.344.031-.5v-4.578l-.203.031-.062.079-.063.156-.281.64a1.482 1.482 0 0 0-.266-.421 1.436 1.436 0 0 0-.625-.422c-.187-.063-.39-.063-.609-.047a2.33 2.33 0 0 0-1.047.36 2.261 2.261 0 0 0-.953 2.28c.14.735.688 1.329 1.375 1.563.516.187 1.11.187 1.547-.172.11-.078.219-.188.297-.297.078-.11.14-.219.187-.344zm.031-1.25c-.03.047-.03.11-.03.188 0 .11-.016.219-.032.328-.078.469-.266.969-.656 1.25-.078.063-.156.094-.25.14-.078.016-.14.047-.219.047-.453.063-.828-.203-1.078-.562-.406-.563-.469-1.344-.297-2 .14-.547.516-1.14 1.11-1.297.078-.016.187-.031.28-.031.626.031 1.063.64 1.172 1.219.016.109 0 .234 0 .343 0 .125.032.25 0 .375zm0 0"/></svg><path style="fill:none;stroke:#000;stroke-width:.305;stroke-linecap:butt;stroke-linejoin:miter;stroke-miterlimit:10;stroke-opacity:1" d="M.002.002h3.152" transform="matrix(1 0 0 -1 1.768 5.28)"/></svg>