<svg xmlns="http://www.w3.org/2000/svg" xmlns:xlink="http://www.w3.org/1999/xlink" width="64" height="64" viewBox="0 0 2.743 2.156"><svg overflow="visible" x="148.712" y="134.765" transform="translate(-149 -127.671)"><path style="stroke:none" d="M2.406-6.016c-.281.125-.578.235-.875.344l-.578.203-.39.157c-.079.03-.157.046-.22.093-.109.094-.046.282.094.282.079 0 .141-.032.204-.063l.39-.14c.453-.173.907-.36 1.36-.516.156-.063.328-.125.484-.188.078-.031.156-.078.156-.172 0-.093-.078-.14-.156-.171a5.982 5.982 0 0 1-.484-.172c-.454-.172-.891-.344-1.329-.516l-.421-.14c-.063-.032-.125-.079-.204-.079-.14 0-.203.203-.093.282.062.046.14.078.203.093.14.063.265.11.406.157.188.078.39.14.578.218.297.11.594.219.875.328zm0 0"/></svg></svg>