<svg xmlns="http://www.w3.org/2000/svg" xmlns:xlink="http://www.w3.org/1999/xlink" width="64" height="64" viewBox="0 0 3.417 6.448"><svg overflow="visible" x="-.172" y="6.345"><path style="stroke:none" d="M1.063-4.313H.171V-4h.86v2.234c0 .438-.032.891.187 1.297.187.344.578.516.953.563.156.015.297.015.437-.032a.84.84 0 0 0 .438-.328c.328-.453.265-1.015.265-1.546h-.234c0 .437.047.953-.187 1.343a.822.822 0 0 1-.188.219.542.542 0 0 1-.61 0 .75.75 0 0 1-.265-.36c-.078-.203-.094-.453-.094-.671V-4h1.422v-.313H1.734c0-.437-.03-.906.125-1.328.094-.218.25-.437.5-.484.22-.031.422.047.625.094-.109.062-.218.125-.28.265a.498.498 0 0 0 .202.594.596.596 0 0 0 .297.047c.063-.016.11-.031.156-.047a.626.626 0 0 0 .11-.094c.234-.25.094-.64-.14-.828a1.043 1.043 0 0 0-.563-.218 1.42 1.42 0 0 0-.516-.016 1.326 1.326 0 0 0-.969.672c-.078.172-.156.36-.187.547-.047.265-.032.53-.032.796zm0 0"/></svg></svg>