<svg xmlns="http://www.w3.org/2000/svg" xmlns:xlink="http://www.w3.org/1999/xlink" width="64" height="64" viewBox="0 0 6.539 8.961"><svg overflow="visible" x="-.326" y="6.922"><path style="stroke:none" d="M2.531-6.813v.297c.156 0 .297 0 .453.032.094.015.172.046.22.109a.31.31 0 0 1 .093.219c.015.156.015.312.015.468v1.782h-.015c-.063-.125-.172-.203-.281-.297-.641-.453-1.532-.14-2.032.375-.796.797-.859 2.14-.25 3.062C1.125-.14 1.984.328 2.72 0c.234-.11.406-.266.578-.453.047.062.14.078.187 0 .047-.078.047-.172.094-.25.078-.156.156-.281.266-.406.047-.063.11-.157.172-.172.062-.032.14-.016.203 0 .093 0 .172 0 .265.015.516.063 1.079.266 1.36.75.172.297.187.641.172.97-.032.39-.11.765-.391 1.046a.905.905 0 0 1-.547.297c-.219.031-.437 0-.656-.031-.328-.079-.64-.204-.844-.454.078 0 .14 0 .203-.03.047-.032.094-.063.14-.11.157-.188.142-.5-.046-.656a.478.478 0 0 0-.313-.11.671.671 0 0 0-.187.031c-.39.188-.281.688-.094.97.031.062.094.109.14.155.173.188.423.282.657.36.516.156 1.125.172 1.64-.047a2 2 0 0 0 .626-.422c.406-.422.61-1.031.484-1.61a1.89 1.89 0 0 0-.344-.718c-.437-.578-1.171-.89-1.89-.953.593-.563 1.172-1.125 1.781-1.688.063-.046.11-.109.188-.171a.497.497 0 0 0 .171-.188c.032-.063.016-.14.016-.203s.016-.125-.016-.172c-.046-.063-.14-.063-.187-.063H3.984v-2.609zm1.453 5.204v-2.11H6.22l-.5.485-.875.812-.532.516zm-2.812-.204c-.031-.234 0-.453 0-.687.031-.516.125-1.031.516-1.422.28-.265.703-.36 1.062-.172.125.063.25.172.344.282.062.093.172.218.187.343.016.063 0 .156 0 .219v2.063c0 .078.016.171 0 .25-.015.062-.047.109-.078.156-.219.422-.687.781-1.172.625a.548.548 0 0 1-.219-.094 1.202 1.202 0 0 1-.28-.281 1.725 1.725 0 0 1-.329-.89c-.016-.141-.016-.266-.031-.391zm0 0"/></svg></svg>