<svg xmlns="http://www.w3.org/2000/svg" xmlns:xlink="http://www.w3.org/1999/xlink" width="64" height="64" viewBox="0 0 5.692 6.459"><svg overflow="visible" x=".364" y="4.422"><path style="stroke:none" d="M.313-4.313V-4c.171 0 .328 0 .468.031.11.016.219.078.266.172.062.14.047.328.047.485V.844c-.016.219-.032.453-.11.656-.03.063-.062.11-.093.156a.39.39 0 0 1-.079.094c-.218.14-.453.031-.656-.063.047 0 .11-.015.157-.046C.625 1.5.64 1 .328.828.11.718-.188.781-.312 1a.655.655 0 0 0-.032.422c.172.531.828.734 1.297.547.25-.11.422-.297.547-.516.14-.25.188-.5.234-.781 0-.047.032-.11.032-.156.015-.22 0-.454 0-.672v-2.328c0-.204 0-.422.062-.625.14-.516.547-.954 1.078-1.063.25-.047.516-.031.703.156a.369.369 0 0 1 .094.141.749.749 0 0 1 .11.313c.062.265.046.546.046.828v1.953c0 .11.016.25-.078.344-.047.062-.125.093-.219.093-.156.031-.328.031-.484.031v.297l.438-.015.921-.016.891.031v-.296c-.156 0-.312 0-.469-.032-.14-.015-.265-.062-.296-.219-.016-.078 0-.187 0-.28v-1.923c0-.39 0-.75-.172-1.093-.188-.329-.532-.485-.875-.532a1.794 1.794 0 0 0-.579 0c-.39.047-.734.266-.984.579-.078.109-.172.218-.203.359h-.016v-.969zm0 0"/></svg></svg>