<svg xmlns="http://www.w3.org/2000/svg" xmlns:xlink="http://www.w3.org/1999/xlink" width="64" height="64" viewBox="0 0 4.438 4.518"><svg overflow="visible" x="-.547" y="4.313"><path style="stroke:none" d="M.547-4.313V-4l.765.094.407.047c-.078.156-.14.296-.235.421-.265.36-.609.704-.75 1.157-.046.14-.046.297-.046.453.015.266.078.547.203.797.109.25.25.468.437.656.172.156.36.281.563.39.828.391 1.812.157 2.421-.5a2.33 2.33 0 0 0 .485-.984c.062-.265.078-.562.016-.797-.141-.453-.5-.812-.766-1.171-.094-.126-.156-.266-.234-.422l.406-.047L4.984-4v-.313H3.703c-.047 0-.11.016-.14.063-.047.078-.032.203-.016.281.015.266.11.547.187.797.094.328.204.64.25.985C4-2.031 4-1.875 4-1.72c-.016.344-.078.688-.234.985-.204.375-.563.718-1 .718-.438 0-.797-.343-.985-.718-.172-.297-.218-.641-.25-.985 0-.156 0-.312.016-.468.047-.344.156-.657.25-.985.078-.25.172-.531.187-.797.016-.078.047-.203-.015-.281a.142.142 0 0 0-.125-.063h-.235zm0 0"/></svg></svg>