<svg xmlns="http://www.w3.org/2000/svg" xmlns:xlink="http://www.w3.org/1999/xlink" width="64" height="64" viewBox="0 0 3.394 6.906"><svg overflow="visible" x="-.215" y="6.922"><path style="stroke:none" d="M.875-6.813v.297c.156 0 .297 0 .438.032a.49.49 0 0 1 .25.093c.125.157.093.407.093.594v1.469a2.22 2.22 0 0 0-.953.187.903.903 0 0 0-.36.282c-.25.359-.109.875.204 1.156.219.187.515.281.812.297a.636.636 0 0 0 .297 0V-.72c0 .094 0 .219-.078.297-.062.063-.156.078-.234.078-.157.031-.313.031-.469.031v.297l.438-.015.906-.016.875.031v-.296c-.156 0-.297 0-.469-.032a.292.292 0 0 1-.219-.078c-.078-.078-.078-.187-.078-.281v-1.844c.125-.031.25-.094.375-.156.344-.172.64-.39.906-.656v-.016l-.14-.156h-.016a2.992 2.992 0 0 1-1.125.734v-4.125zm.781 2.72v1.405a.994.994 0 0 1-.593-.187c-.25-.203-.391-.594-.188-.875.125-.172.313-.25.516-.313.078-.015.171-.015.265-.03zm0 0"/></svg></svg>