<svg xmlns="http://www.w3.org/2000/svg" xmlns:xlink="http://www.w3.org/1999/xlink" width="64" height="64" viewBox="0 0 3.796 4.581"><svg overflow="visible" x="148.712" y="134.765" transform="translate(-149 -130.345)"><path style="stroke:none" d="M.844-.453a.673.673 0 0 0 .344-.14.492.492 0 0 0-.047-.688c-.188-.14-.5-.125-.657.062a.511.511 0 0 0-.078.422.64.64 0 0 0 .047.235c.203.453.734.64 1.188.703.25.03.5.03.734-.032.25-.062.484-.156.703-.296.125-.079.235-.188.344-.297.89-.891.89-2.47-.047-3.36-.656-.625-1.797-.812-2.531-.203-.219.172-.39.422-.485.672-.03.078-.093.203-.062.281.016.094.172.094.219.016.03-.047.03-.11.046-.156.047-.11.079-.188.141-.282.235-.39.625-.625 1.078-.656.11 0 .219.016.328.031.11.032.188.079.282.11.625.343.843 1.093.859 1.765.016.516-.031 1.094-.313 1.532-.156.25-.359.453-.609.562-.187.078-.39.094-.578.078-.328-.031-.656-.14-.906-.36zm0 0"/></svg></svg>