<svg xmlns="http://www.w3.org/2000/svg" xmlns:xlink="http://www.w3.org/1999/xlink" width="64" height="64" viewBox="0 0 4.237 9.07"><svg overflow="visible" x="-.313" y="7.031"><path style="stroke:none" d="M.313-.313v.297L.75-.03l.922-.016.906.031v-.296c-.172 0-.328 0-.484-.032-.094 0-.188-.031-.235-.094-.078-.093-.062-.234-.062-.343v-1.516c0-.203-.016-.39 0-.578a1.72 1.72 0 0 1 .36-.828c.077-.078.155-.172.234-.235.109-.078.234-.156.359-.187.203-.078.422-.11.625-.031.219.078.36.281.406.5.063.203.063.422.063.64V.766c-.063.39-.219.921-.656 1.03-.282.063-.563-.03-.813-.109v-.015c.047 0 .094-.031.14-.063.313-.187.25-.687-.109-.812C2.36.78 2.296.78 2.25.78c-.063 0-.11 0-.172.031-.297.11-.344.485-.203.75.188.329.625.438.969.47.11 0 .219.015.328 0A1.539 1.539 0 0 0 4.5.921c.047-.188.047-.375.047-.563v-3.265c0-.36-.016-.719-.203-1.016-.203-.312-.563-.453-.922-.484a1.975 1.975 0 0 0-.61.031 1.654 1.654 0 0 0-.843.563c-.078.109-.157.218-.188.359h-.015c0-.438-.016-.86 0-1.281 0-.047.015-.11.015-.157v-.421c.016-.235.078-.485.188-.704.125-.28.343-.53.61-.671.296-.157.655-.157.983-.079.188.047.36.125.516.25a.45.45 0 0 0-.328.141c-.219.219-.14.61.14.75a.483.483 0 0 0 .641-.281c.047-.172 0-.375-.078-.532-.172-.328-.531-.484-.86-.546-.765-.157-1.593.078-2.093.687-.188.25-.313.547-.36.844-.03.156-.03.312-.03.469 0 .046-.016.093-.016.156v3.984c0 .14.031.328-.094.438-.047.047-.14.062-.219.062-.156.031-.312.031-.469.031zm0 0"/></svg></svg>