<svg xmlns="http://www.w3.org/2000/svg" xmlns:xlink="http://www.w3.org/1999/xlink" width="64" height="64" viewBox="0 0 4.278 4.741"><svg overflow="visible" x="-.415" y="4.531"><path style="stroke:none" d="M1.672-2.328c-.094.047-.203.078-.297.11a2.04 2.04 0 0 0-.563.327 1.078 1.078 0 0 0-.25.282c-.046.078-.109.171-.125.28-.124.548.297 1.016.766 1.235.86.438 2 .438 2.75-.234.36-.313.61-.734.703-1.203.032-.219.047-.438.032-.657-.063-.78-.438-1.578-1.094-2.015a2.107 2.107 0 0 0-.969-.328c-.125 0-.25 0-.375.015a2.37 2.37 0 0 0-1.156.344c-.11.063-.235.156-.328.266a.842.842 0 0 0-.157.25.552.552 0 0 0-.062.265c0 .079.015.157.015.22.094.405.454.655.829.765a.585.585 0 0 0 .28.078zm-.25-.985c0-.093.016-.187.031-.28.016-.079.047-.141.078-.22.328-.53 1.078-.546 1.594-.343.844.328 1.266 1.218 1.328 2.078.047.969-.672 1.812-1.61 1.984-.484.078-1.077-.015-1.374-.469-.235-.328-.219-.828 0-1.171.11-.172.312-.313.515-.407.141-.046.282-.078.438-.078h.219c.078 0 .125-.047.125-.11 0-.108-.094-.108-.172-.108-.172-.032-.344 0-.516-.063-.375-.078-.61-.438-.656-.813zm0 0"/></svg></svg>