<svg xmlns="http://www.w3.org/2000/svg" xmlns:xlink="http://www.w3.org/1999/xlink" width="64" height="64" viewBox="0 0 3.358 4.395"><svg overflow="visible" x="-.266" y="4.41"><path style="stroke:none" d="M.266-.313v.297L.703-.03l.969-.016 1.016.031v-.296c-.204 0-.422 0-.61-.032-.11 0-.219-.031-.281-.11-.078-.077-.078-.187-.078-.296v-2.125c0-.297-.047-.61.11-.89a.897.897 0 0 1 1.359-.204.42.42 0 0 0-.329.156c-.14.172-.125.454.047.594.047.031.11.063.172.094a.32.32 0 0 0 .172 0c.047 0 .094-.016.156-.031.281-.14.25-.5.125-.75-.265-.531-.953-.563-1.453-.453-.11.03-.203.062-.297.109-.11.047-.25.11-.343.203-.125.11-.22.234-.282.39-.015.063-.031.126-.047.204-.015.047-.046.078-.062.14-.016.047 0 .126 0 .188V-.75c0 .11 0 .234-.063.328a.472.472 0 0 1-.25.078c-.156.031-.312.031-.468.031zm0 0"/></svg></svg>