<svg xmlns="http://www.w3.org/2000/svg" xmlns:xlink="http://www.w3.org/1999/xlink" width="64" height="64" viewBox="0 0 4.41 4.584"><svg overflow="visible" x="-.28" y="4.479"><path style="stroke:none" d="M2.344-4.469c-.516.047-.985.25-1.36.61C.172-3.08.047-1.734.688-.83c.125.157.25.298.406.423.218.172.453.312.718.406.297.094.594.125.907.094.297-.032.594-.14.844-.266a2.31 2.31 0 0 0 .562-.453 2.14 2.14 0 0 0 .484-.906c.25-.907-.093-1.969-.859-2.532a2.581 2.581 0 0 0-.656-.328c-.25-.062-.5-.109-.75-.078zM1.109-2.312c0-.516.047-1.063.391-1.47.11-.14.25-.25.406-.327.422-.235.938-.172 1.313.093.187.125.328.297.437.485.188.375.203.812.203 1.219zm0 .312h2.75c0 .5-.093 1.063-.437 1.438a1.26 1.26 0 0 1-1.781.078 1.421 1.421 0 0 1-.282-.329c-.187-.359-.25-.78-.25-1.187zm0 0"/></svg></svg>