<svg xmlns="http://www.w3.org/2000/svg" xmlns:xlink="http://www.w3.org/1999/xlink" width="64" height="64" viewBox="0 0 4.709 4.304"><svg overflow="visible" x="-.422" y="4.313"><path style="stroke:none" d="m.531-4.313-.11 1.391h.25c0-.187.032-.375.063-.562a.702.702 0 0 1 .11-.282C1-3.969 1.28-4 1.53-3.984c.11.015.219.03.282.125.046.078.046.187.046.28v2.845c0 .093 0 .203-.062.28-.047.079-.14.11-.234.11-.157.031-.313.031-.47.031v.297c.61 0 1.22.016 1.845 0 .5-.015 1.046-.046 1.515-.265a1.28 1.28 0 0 0 .5-.406c.266-.407.234-1-.094-1.36-.39-.406-1-.531-1.53-.594-.173-.015-.376-.046-.548-.046-.047 0-.156.015-.203-.032-.031-.015-.015-.078-.015-.125v-.75c0-.11 0-.203.062-.281.063-.078.14-.094.234-.11C3.016-4 3.188-4 3.344-4v-.313zM2.562-.234V-2.47c.126.031.266.031.391.063.39.062.813.203 1.094.5.25.25.312.656.156.984a1.181 1.181 0 0 1-.297.328c-.375.25-.89.344-1.344.36zm0 0"/></svg></svg>