<svg xmlns="http://www.w3.org/2000/svg" xmlns:xlink="http://www.w3.org/1999/xlink" width="64" height="64" viewBox="0 0 4.13 8.387"><svg overflow="visible" x=".412" y="6.35"><path style="stroke:none" d="M1.313-2.578H.28v.312h1.031v2.063c0 .406.032.844-.03 1.25-.032.234-.11.484-.282.64-.234.204-.61.141-.844 0a.445.445 0 0 0 .219-.125A.482.482 0 0 0 .39.906.506.506 0 0 0-.157.812c-.328.157-.313.579-.11.829.204.265.532.375.86.39.14.016.281 0 .406-.031.469-.14.797-.563.938-1.016.03-.125.03-.25.046-.39C2 .313 2 .063 2-.203v-2.063h1.031v-.312H2v-1.75c0-.344-.031-.703.031-1.047a.962.962 0 0 1 .11-.36.504.504 0 0 1 .109-.202c.031-.032.063-.079.11-.11.203-.14.5-.078.718.016.047.031.11.062.156.093-.156.047-.312.094-.39.25-.11.22-.016.5.203.625.11.063.25.063.375.016.281-.094.344-.406.265-.656-.093-.297-.374-.5-.656-.594-.484-.14-1.031 0-1.36.39-.14.141-.218.329-.28.516-.11.329-.079.704-.079 1.032zm0 0"/></svg></svg>