<svg xmlns="http://www.w3.org/2000/svg" xmlns:xlink="http://www.w3.org/1999/xlink" width="64" height="64" viewBox="0 0 4.938 4.516"><svg overflow="visible" x="-.266" y="4.422"><path style="stroke:none" d="M.266-4.313V-4c.156 0 .312 0 .468.031.094.016.188.047.25.125.063.11.063.266.063.39v3.438L1.28-.03l.14-.172.235-.422c.11.125.203.25.344.36.266.25.61.359.953.359.438 0 .86-.125 1.219-.36.25-.156.469-.359.64-.609.657-.953.47-2.313-.421-3.047-.594-.531-1.5-.656-2.204-.25-.156.094-.359.234-.468.406v-.656zm4.093 2.391c-.015.14-.015.281-.046.422a1.71 1.71 0 0 1-.329.844c-.14.172-.312.312-.515.422-.344.156-.781.156-1.11-.047a1.346 1.346 0 0 1-.468-.422c-.047-.078-.11-.172-.141-.281-.016-.063 0-.157 0-.22v-1.562c0-.187-.031-.39 0-.578 0-.062.031-.094.063-.14a1.4 1.4 0 0 1 .234-.297c.406-.39 1.062-.563 1.578-.25.078.062.156.125.25.203.36.375.453.875.484 1.36 0 .187.016.359 0 .546zm0 0"/></svg></svg>