<svg xmlns="http://www.w3.org/2000/svg" xmlns:xlink="http://www.w3.org/1999/xlink" width="64" height="64" viewBox="0 0 4.75 4.526"><svg overflow="visible" x="-.25" y="4.313"><path style="stroke:none" d="M.25-4.313V-4c.203 0 .469-.016.672.078.203.11.344.36.484.547.203.281.422.563.64.86.063.093.142.187.204.28a.74.74 0 0 0 .172.204v.015c-.094.063-.188.157-.266.235-.234.25-.437.531-.453.875a1.11 1.11 0 0 0 .047.39.95.95 0 0 0 .14.282.793.793 0 0 0 .22.234c.39.313.968.25 1.374.016.422-.25.657-.75.5-1.235-.062-.187-.187-.343-.312-.5-.14-.14-.281-.281-.422-.406-.047-.031-.156-.11-.172-.172 0-.062.063-.125.094-.172l.281-.375c.203-.281.406-.594.672-.828A1.38 1.38 0 0 1 5-4v-.313l-.89.032-.704-.032V-4a.29.29 0 0 1 .11.031c.187.078.187.266.109.438-.047.11-.14.219-.203.312-.125.14-.235.313-.344.453-.062.079-.125.157-.172.25-.125-.093-.203-.25-.297-.375-.14-.203-.296-.39-.437-.593-.063-.079-.125-.141-.172-.22a.436.436 0 0 1-.031-.14c.015-.047.062-.078.11-.11C2.155-4 2.28-4 2.374-4v-.313l-.906.032H.625zm2.375 2.375c.203.172.406.344.563.563.078.125.14.266.171.422.016.125.016.25 0 .36a.999.999 0 0 1-.125.296.666.666 0 0 1-.187.172.484.484 0 0 1-.203.094c-.063.015-.125.015-.203.015-.422-.046-.704-.468-.688-.875.016-.171.078-.328.156-.484.125-.234.329-.375.516-.563zm0 0"/></svg></svg>