<svg xmlns="http://www.w3.org/2000/svg" xmlns:xlink="http://www.w3.org/1999/xlink" width="64" height="64" viewBox="0 0 4.746 4.598"><svg overflow="visible" x="-.458" y="4.459"><path style="stroke:none" d="M4.14-.375c.126.11.22.219.344.297.047.031.11.078.172.062.047-.03.063-.078.063-.14v-.985c0-.109 0-.25.093-.312.11-.078.266-.078.391-.078v-.235l-.328.016-.797.016-.922-.032v.235c.156 0 .328 0 .5.031.078 0 .172.016.235.078.125.094.125.25.125.39 0 .22.015.438-.141.61-.063.031-.11.078-.156.11-.235.14-.516.156-.781.14-.547-.062-1.063-.312-1.36-.781-.187-.297-.25-.64-.266-.985a2.769 2.769 0 0 1 .016-.718c.031-.219.094-.438.203-.64a1.66 1.66 0 0 1 1.328-.845c.266-.03.547.016.797.157.14.078.281.203.39.328.173.203.298.422.36.672.032.109.032.218.063.328.031.062.11.078.172.047.062-.016.078-.079.078-.125v-1.61c0-.047-.032-.078-.063-.11-.047-.015-.093 0-.14.032l-.204.25c-.062.063-.14.14-.187.219a1.569 1.569 0 0 0-.313-.25c-.374-.219-.78-.281-1.203-.234A2.44 2.44 0 0 0 .813-3.345a2.311 2.311 0 0 0-.297.672c-.172.719.046 1.469.53 2.016.204.219.454.39.72.531.515.25 1.156.344 1.718.188.25-.063.532-.204.657-.438zm0 0"/></svg></svg>