<svg xmlns="http://www.w3.org/2000/svg" xmlns:xlink="http://www.w3.org/1999/xlink" width="64" height="64" viewBox="0 0 5.355 6.906"><svg overflow="visible" x="-.254" y="6.922"><path style="stroke:none" d="M.594-6.813v.297c.14 0 .297 0 .437.032a.41.41 0 0 1 .235.109c.062.063.078.14.093.234.016.172 0 .344 0 .516H.703c-.11 0-.234-.016-.344 0-.093.031-.125.156-.093.234.046.11.187.079.28.079h.813v4.421c0 .125.032.297-.046.422-.047.094-.141.125-.235.125-.156.031-.328.031-.484.031v.297L1.03-.03l.907-.016.906.031v-.296c-.156 0-.328 0-.485-.032-.093 0-.171-.031-.218-.094-.094-.093-.079-.234-.079-.359v-1.562c0-.204-.015-.407.032-.594.062-.36.234-.703.515-.938.11-.093.22-.156.344-.218.14-.063.313-.094.469-.094.094 0 .203.031.281.062.235.11.344.36.39.594.048.281.032.578.032.86v1.921c0 .11.016.235-.063.329a.318.318 0 0 1-.234.093c-.156.031-.312.031-.484.031v.297L3.78-.03l.922-.016.906.031v-.296c-.171 0-.328 0-.484-.032-.14-.015-.266-.062-.297-.219-.016-.078 0-.187 0-.28V-2.78c0-.36 0-.735-.172-1.063-.187-.344-.515-.5-.89-.547a1.794 1.794 0 0 0-.579 0 1.46 1.46 0 0 0-.968.625.881.881 0 0 0-.172.313H2.03v-1.86h1.11c.093 0 .265.032.296-.078.016-.015.016-.046.016-.078 0-.015 0-.047-.015-.062-.032-.125-.235-.094-.344-.094H2.03v-1.297zm0 0"/></svg></svg>