<svg xmlns="http://www.w3.org/2000/svg" xmlns:xlink="http://www.w3.org/1999/xlink" width="64" height="64" viewBox="0 0 4.955 8.965"><svg overflow="visible" x=".016" y="7.043"><path style="stroke:none" d="M-.016 1.61v.312l.438-.016.922-.015.906.03V1.61c-.172 0-.313 0-.469-.015-.093-.016-.172-.016-.234-.078-.078-.079-.078-.204-.078-.297V-.516c.093.11.203.22.312.313.328.25.703.328 1.094.297A2.084 2.084 0 0 0 4.031-.36c.203-.141.36-.313.5-.516.657-.953.469-2.313-.422-3.047-.593-.531-1.5-.656-2.203-.25-.156.094-.343.234-.453.406h-.016v-1.046c0-.329-.015-.625.125-.938.047-.156.141-.313.25-.438a1.721 1.721 0 0 1 1.063-.609c.188-.031.36-.016.531-.016.25.016.485.047.719.125.125.047.234.11.344.172-.14.032-.266.063-.36.188-.187.25-.046.656.266.719a.38.38 0 0 0 .188 0 .306.306 0 0 0 .156-.047c.328-.188.25-.672.031-.922-.25-.297-.688-.39-1.063-.438-.921-.109-2 .094-2.578.86a1.62 1.62 0 0 0-.312.687c-.047.172-.031.36-.031.532V1c0 .156.046.39-.079.516-.062.062-.156.062-.234.078-.156.015-.297.015-.469.015zm4.094-3.532c-.016.14-.016.281-.047.422a1.71 1.71 0 0 1-.328.844c-.14.172-.312.312-.515.422-.344.156-.782.156-1.11-.047a1.346 1.346 0 0 1-.469-.422c-.046-.078-.109-.172-.14-.281-.016-.063 0-.157 0-.22v-1.562c0-.187-.016-.39 0-.578 0-.062.031-.094.062-.14a1.4 1.4 0 0 1 .235-.297c.406-.39 1.062-.563 1.578-.25.078.062.172.125.25.203.36.375.453.875.484 1.36.016.187.016.359 0 .546zm0 0"/></svg></svg>