<svg xmlns="http://www.w3.org/2000/svg" xmlns:xlink="http://www.w3.org/1999/xlink" width="64" height="64" viewBox="0 0 7.766 6.344"><svg overflow="visible" x="-.203" y="4.313"><path style="stroke:none" d="M.203-4.313V-4c.156 0 .328 0 .484.016.125.03.235.062.266.203a.82.82 0 0 1 .031.281v1.89c0 .329-.03.673.094.985.047.14.125.281.234.39.188.172.438.282.672.297.407.079.813.032 1.172-.187.156-.11.313-.25.438-.422.062-.094.11-.203.172-.312.078.265.156.5.375.687.203.156.468.234.75.266.156 0 .312.015.468-.016.375-.062.688-.25.938-.547.094-.125.219-.297.25-.453h.016v2.953l1.406-.11V1.61c-.157 0-.313 0-.469-.03-.11-.016-.219-.063-.25-.173-.078-.125-.047-.297-.047-.437v-4.39c0-.126-.031-.298.031-.423.047-.078.157-.125.25-.14C7.641-4 7.813-4 7.97-4v-.313l-.89.032h-.923l-.437-.032V-4c.156 0 .328 0 .484.016.094.015.172.03.234.109.079.094.063.234.063.36v1.562c0 .203.016.39-.031.594a1.565 1.565 0 0 1-.516.937 1.85 1.85 0 0 1-.344.219 1.54 1.54 0 0 1-.468.078.817.817 0 0 1-.282-.047c-.234-.125-.343-.36-.39-.594-.047-.296-.032-.578-.032-.875v-1.906c0-.11-.015-.234.063-.328.063-.078.14-.094.234-.11C4.891-4 5.047-4 5.22-4v-.313l-.907.032h-.906l-.453-.032V-4c.172 0 .328 0 .485.016.093.015.187.03.234.109.078.094.062.234.062.36v1.562c0 .203.016.39-.03.594a1.486 1.486 0 0 1-.86 1.156c-.14.047-.297.078-.469.078a.885.885 0 0 1-.281-.047c-.235-.125-.344-.36-.39-.594-.032-.296-.032-.578-.032-.875v-1.906c0-.11 0-.234.078-.328.047-.078.14-.094.219-.11C2.14-4 2.297-4 2.453-4v-.313l-.89.032H.64zm0 0"/></svg></svg>