<svg xmlns="http://www.w3.org/2000/svg" xmlns:xlink="http://www.w3.org/1999/xlink" width="64" height="64" viewBox="0 0 3.931 4.582"><svg overflow="visible" x="-.213" y="4.422"><path style="stroke:none" d="M3.313-2H.453c-.062 0-.156-.016-.203.031-.063.078-.031.235-.016.328a2.2 2.2 0 0 0 .22.891c.093.188.218.36.39.516.219.172.469.28.734.343.516.11 1.047.047 1.5-.234a2.15 2.15 0 0 0 .531-.469c.782-.937.704-2.437-.218-3.265a2.616 2.616 0 0 0-.625-.391 2.423 2.423 0 0 0-.875-.172 1.76 1.76 0 0 0-1.454.797c-.078.125-.14.25-.187.39-.016.063-.047.141 0 .188.063.078.172.047.203-.031.031-.047.047-.11.063-.156a.648.648 0 0 1 .109-.204 1.41 1.41 0 0 1 .766-.64 1.4 1.4 0 0 1 .5-.094c.14 0 .265.031.406.078.11.032.219.094.328.172.094.063.172.14.234.219.407.469.454 1.11.454 1.703zM.89-1.797h2.406c0 .453-.11.938-.39 1.281-.22.266-.532.47-.86.454-.11 0-.219-.032-.328-.063a.927.927 0 0 1-.36-.219C1.094-.609.97-1 .922-1.375c-.016-.14 0-.281-.031-.422zm0 0"/></svg></svg>