<svg xmlns="http://www.w3.org/2000/svg" xmlns:xlink="http://www.w3.org/1999/xlink" width="64" height="64" viewBox="0 0 2.596 3.161"><svg overflow="visible" x="-.453" y="6.958"><path style="stroke:none" d="m.453-3.953.188.156c.093-.078.171-.187.265-.297.156-.156.297-.328.438-.484l1.312-1.453c.078-.078.14-.157.219-.235a.512.512 0 0 0 .14-.187c.063-.11.032-.266-.046-.36a.243.243 0 0 0-.125-.093c-.016-.016-.063-.032-.094-.047-.281-.047-.422.25-.547.437l-.11.172C1.735-5.828 1.36-5.297 1-4.766c-.11.157-.219.313-.313.47-.078.109-.171.234-.234.343zm0 0"/></svg></svg>