<svg xmlns="http://www.w3.org/2000/svg" xmlns:xlink="http://www.w3.org/1999/xlink" width="64" height="64" viewBox="0 0 5.149 7.022"><svg overflow="visible" x="-.338" y="6.922"><path style="stroke:none" d="M3.047-6.813v.297c.14 0 .297 0 .437.032a.41.41 0 0 1 .235.109c.062.063.078.14.094.234.015.172 0 .344 0 .516H2.718c-.094 0-.266-.031-.313.078v.141c.031.125.25.093.344.093h1.063v1.5a1.737 1.737 0 0 0-.72-.515c-.218-.094-.468-.094-.718-.078a2.194 2.194 0 0 0-1.578.875c-.703.922-.594 2.328.297 3.11.125.124.297.233.468.312.344.156.72.234 1.094.203.328-.047.64-.188.875-.39a1.89 1.89 0 0 0 .25-.25v.64l1.485-.11v-.296c-.157 0-.329 0-.47-.032-.109-.031-.202-.062-.25-.156-.077-.14-.062-.313-.062-.469v-4.343h.61c.093 0 .203.015.297-.016.109-.016.109-.156.078-.234-.047-.079-.172-.063-.25-.063h-.735v-1.297zM1.172-1.905c-.016-.172 0-.36 0-.532.031-.5.14-1.015.516-1.374.093-.079.171-.141.25-.188a1.239 1.239 0 0 1 1.578.219.859.859 0 0 1 .203.265c.031.047.062.094.062.141.031.188 0 .39 0 .578v1.578c0 .063.016.14 0 .219-.015.063-.078.14-.11.203-.327.485-.905.797-1.483.625a.911.911 0 0 1-.282-.125 1.62 1.62 0 0 1-.312-.266c-.203-.234-.313-.515-.375-.812-.016-.188-.032-.344-.047-.531zm0 0"/></svg></svg>