<svg xmlns="http://www.w3.org/2000/svg" xmlns:xlink="http://www.w3.org/1999/xlink" width="64" height="64" viewBox="0 0 4.936 4.521"><svg overflow="visible" x="-.33" y="4.422"><path style="stroke:none" d="M3.781-.547v.64l1.485-.109v-.296c-.157 0-.313 0-.454-.032-.109-.015-.203-.062-.25-.14-.093-.11-.078-.266-.078-.391v-3.547l-.203.031-.14.188-.25.484a2.743 2.743 0 0 0-.297-.312 1.54 1.54 0 0 0-.844-.375c-.39-.047-.797.047-1.14.203-.36.187-.657.422-.876.75a2.358 2.358 0 0 0 0 2.64c.5.72 1.5 1.125 2.344.797.297-.109.5-.312.703-.53zm-2.61-1.36c-.015-.171 0-.359 0-.53.032-.5.141-1.016.516-1.376.094-.078.172-.14.25-.187a1.239 1.239 0 0 1 1.579.219.859.859 0 0 1 .203.265c.031.047.062.094.062.141.031.188 0 .39 0 .578v1.578c0 .063.016.14 0 .219-.015.063-.078.14-.11.203-.327.485-.905.797-1.483.625a.911.911 0 0 1-.282-.125 1.62 1.62 0 0 1-.312-.266c-.203-.234-.313-.515-.375-.812-.016-.188-.032-.344-.047-.531zm0 0"/></svg></svg>