<svg xmlns="http://www.w3.org/2000/svg" xmlns:xlink="http://www.w3.org/1999/xlink" width="64" height="64" viewBox="0 0 5.016 6.344"><svg overflow="visible" x="-.203" y="4.313"><path style="stroke:none" d="M.203-4.313V-4c.156 0 .313 0 .469.016.14.03.265.078.297.218.015.094.015.204.015.282v1.953c0 .36-.015.734.157 1.062.187.344.53.5.89.547.188.031.39.031.578 0a1.53 1.53 0 0 0 1.157-.937v2.89l1.453-.11V1.61c-.172 0-.328 0-.469-.03-.11-.016-.219-.063-.266-.173-.062-.125-.046-.297-.046-.437v-4.39c0-.126-.032-.298.03-.423a.406.406 0 0 1 .25-.14C4.892-4 5.048-4 5.219-4v-.313l-.905.032h-.907l-.453-.032V-4c.172 0 .328 0 .485.016.093.015.187.03.234.109.078.094.062.234.062.36v1.562c0 .203.016.39-.03.594a1.486 1.486 0 0 1-.86 1.156c-.14.047-.297.078-.469.078a.885.885 0 0 1-.281-.047c-.235-.125-.344-.36-.39-.594-.032-.296-.032-.578-.032-.875v-1.906c0-.11 0-.234.078-.328.047-.078.14-.094.219-.11C2.14-4 2.297-4 2.453-4v-.313l-.89.032H.64zm0 0"/></svg></svg>