<svg xmlns="http://www.w3.org/2000/svg" xmlns:xlink="http://www.w3.org/1999/xlink" width="64" height="64" viewBox="0 0 5.48 6.641"><svg overflow="visible" x=".25" y="6.641"><path style="stroke:none" d="m1.266-.766 1.062-1.03c1.547-1.376 2.14-1.907 2.14-2.907 0-1.14-.89-1.938-2.109-1.938A1.843 1.843 0 0 0 .5-4.828c0 .547.5.547.531.547.172 0 .516-.11.516-.532a.513.513 0 0 0-.531-.515c-.079 0-.094 0-.125.016.218-.657.765-1.016 1.343-1.016.907 0 1.329.812 1.329 1.625 0 .797-.485 1.578-1.047 2.203L.609-.375C.5-.265.5-.235.5 0h3.703l.266-1.734h-.235C4.172-1.438 4.11-1 4-.844c-.063.078-.719.078-.938.078zm0 0"/></svg><path style="fill:none;stroke:#000;stroke-width:.305;stroke-linecap:butt;stroke-linejoin:miter;stroke-miterlimit:10;stroke-opacity:1" d="M0 0h5.48" transform="matrix(1 0 0 -1 0 4.067)"/></svg>