<svg xmlns="http://www.w3.org/2000/svg" xmlns:xlink="http://www.w3.org/1999/xlink" width="64" height="64" viewBox="0 0 3.361 6.344"><svg overflow="visible" x="-.266" y="4.422"><path style="stroke:none" d="M.266-4.313V-4c.156 0 .328 0 .468.031.11.016.22.078.266.188.063.125.047.297.047.437v4.375c0 .14.031.297-.047.422-.047.094-.14.125-.25.14-.156.016-.328.016-.484.016v.313l.437-.016.969-.015 1.016.03V1.61c-.22 0-.422 0-.626-.015-.093-.016-.203-.032-.28-.125-.095-.11-.063-.25-.063-.375v-2.766c0-.469-.032-.937.078-1.406.125-.485.422-1.031.969-1.11a.592.592 0 0 1 .234 0v.016c-.234.094-.281.406-.156.61.062.109.172.171.312.187h.156c.047-.031.094-.047.141-.063.25-.171.203-.546.031-.734-.171-.203-.468-.266-.718-.234-.422.047-.735.328-.938.687-.062.125-.125.25-.156.375v-1.078zm0 0"/></svg></svg>