<svg xmlns="http://www.w3.org/2000/svg" xmlns:xlink="http://www.w3.org/1999/xlink" width="64" height="64" viewBox="0 0 3.586 6.349"><svg overflow="visible" x="-.414" y="4.314"><path style="stroke:none" d="M2.297-1.86c-.438.048-.86.235-1.188.532C.484-.75.203.234.594 1.016a1.873 1.873 0 0 0 .953.874c.687.282 1.61.157 2.125-.406.203-.203.328-.5.328-.78 0-.25-.14-.454-.39-.5a.483.483 0 0 0-.422.155c-.172.204-.141.532.078.672.078.078.203.094.312.094-.094.14-.187.266-.312.375-.47.36-1.235.469-1.672 0-.235-.281-.313-.61-.328-.969a2.652 2.652 0 0 1 .015-.61c.032-.202.063-.405.172-.562.234-.421.703-.609 1.156-.656.063-.016.125-.016.188-.016.047 0 .094.016.14 0a.085.085 0 0 0 .079-.109c0-.078-.094-.14-.141-.203-.14-.156-.266-.281-.406-.438-.516-.562-1.016-1.109-1.547-1.656.562 0 1.125-.015 1.687.016.25 0 .563.015.766.172.281.187.36.578.375.89H4l-.031-.421-.078-1.25H.67c-.062 0-.171-.016-.218.062-.031.047-.016.125-.016.172 0 .062-.015.14.016.203s.078.11.11.156c.078.063.14.14.203.203.296.329.593.641.906.97.203.218.406.468.625.687zm0 0"/></svg></svg>