<svg xmlns="http://www.w3.org/2000/svg" xmlns:xlink="http://www.w3.org/1999/xlink" width="64" height="64" viewBox="0 0 4.551 6.572"><svg overflow="visible" x="-.285" y="4.525"><path style="stroke:none" d="M3.297-4.063c-.172-.109-.344-.218-.547-.28-.594-.173-1.281-.048-1.734.39a1.507 1.507 0 0 0-.422.828 1.39 1.39 0 0 0 .172.828c.046.094.109.172.171.25.032.031.094.078.094.125s-.062.094-.078.14a.95.95 0 0 0-.14.282c-.11.297-.079.64.062.938.078.14.172.265.313.328v.015a1.143 1.143 0 0 0-.297.11C.53.062.219.453.297.875c.016.266.187.484.406.656.25.188.547.313.844.39.312.095.61.126.937.126.47 0 .938-.078 1.391-.266.266-.14.531-.312.688-.562.28-.469.093-1.094-.282-1.453-.172-.141-.36-.22-.562-.297-.485-.156-1-.14-1.516-.14h-.39c-.11 0-.22 0-.313-.032-.281-.078-.469-.406-.438-.688.016-.156.079-.28.141-.406.625.406 1.5.406 2.094-.062.515-.422.703-1.157.375-1.735a.876.876 0 0 0-.25-.328c.094-.062.172-.14.265-.187.204-.141.485-.235.735-.188-.063.031-.11.063-.14.125a.297.297 0 0 0 .327.422c.032-.016.079-.016.11-.031.203-.14.11-.469-.032-.61a.369.369 0 0 0-.14-.093.693.693 0 0 0-.36-.032 1.67 1.67 0 0 0-.656.235.795.795 0 0 0-.234.218zM1.344-2.75c-.016-.14 0-.297.015-.438.016-.28.063-.546.282-.765a.827.827 0 0 1 1.187.062c.156.172.219.375.25.61a3.38 3.38 0 0 1 0 .562c-.031.266-.078.5-.25.703a.814.814 0 0 1-.984.188.773.773 0 0 1-.297-.25c-.156-.203-.172-.438-.203-.672zM.812.844c-.046-.36.204-.719.532-.86.234-.093.5-.062.75-.062.484 0 .984-.047 1.453.125.312.094.562.312.61.656.062.438-.376.766-.735.922a2.44 2.44 0 0 1-1.985-.047C1.141 1.422.86 1.172.813.844zm0 0"/></svg></svg>