<svg xmlns="http://www.w3.org/2000/svg" xmlns:xlink="http://www.w3.org/1999/xlink" width="64" height="64" viewBox="0 0 3.895 7.021"><svg overflow="visible" x="-.539" y="7.037"><path style="stroke:none" d="M2.281-2.375H1.234c-.109 0-.296-.031-.328.11-.015.015-.015.046-.015.062.015.172.187.14.312.14h1.078v1.188c0 .14.047.344-.078.453A.28.28 0 0 1 2-.344c-.172.031-.328.031-.484.031v.297L1.89-.03l.734-.016.75.016.39.015v-.296c-.171 0-.328 0-.484-.032-.078 0-.156-.015-.203-.078-.125-.11-.094-.312-.094-.469v-1.171h1.032c.093 0 .296.03.343-.079.032-.078 0-.218-.093-.234H2.984v-1.031c0-.047 0-.078-.03-.125-.048-.063-.188-.063-.267-.078a2.241 2.241 0 0 1-.53-.22 1.734 1.734 0 0 1-.735-1.015c-.063-.265-.047-.547-.031-.812.03-.344.14-.672.406-.907.203-.14.437-.218.672-.25.36-.03.75.032 1.078.204.203.093.39.234.5.437a.504.504 0 0 0-.39.11c-.204.187-.204.515 0 .687.265.219.687.094.765-.234.062-.329-.11-.688-.344-.922a1.632 1.632 0 0 0-.812-.422 2.789 2.789 0 0 0-.891-.078c-.469.031-.938.172-1.297.484-.406.36-.578.969-.531 1.5.078.61.515 1.063 1.047 1.344.156.062.312.14.468.187.063 0 .172.032.204.079.015.015.015.062.015.093v.188zm0 0"/></svg></svg>