<svg xmlns="http://www.w3.org/2000/svg" xmlns:xlink="http://www.w3.org/1999/xlink" width="64" height="64" viewBox="0 0 4.439 8.854"><svg overflow="visible" x="-.546" y="6.93"><path style="stroke:none" d="M2.547-3.484H.703c-.062 0-.11 0-.14.062-.016.047-.016.078-.016.125 0 .078-.016.188.078.219.063.031.14.015.219.015h1.703v1.235H.703c-.062 0-.11 0-.14.062-.016.032-.016.079-.016.11 0 .078-.016.203.078.234.063.031.14.016.203.016h1.719v3.078c0 .062 0 .156.031.219.047.046.156.03.219.03.031 0 .062 0 .094-.015.093-.015.093-.11.093-.187v-3.125h1.72c.062 0 .14.015.202-.016.094-.031.078-.156.078-.234 0-.032 0-.078-.015-.11-.032-.062-.078-.062-.14-.062H2.983v-1.234h1.704c.078 0 .156.015.218-.016.094-.031.078-.14.078-.219 0-.047 0-.078-.015-.125-.032-.062-.078-.062-.14-.062H2.983V-6.72c0-.078 0-.172-.093-.203h-.094c-.063 0-.172-.031-.219.031-.047.063-.031.157-.031.22zm0 0"/></svg></svg>