<svg xmlns="http://www.w3.org/2000/svg" xmlns:xlink="http://www.w3.org/1999/xlink" width="64" height="64" viewBox="0 0 3.145 8.178"><svg overflow="visible" x="-.172" y="6.141"><path style="stroke:none" d="M1.484-6.14c0 .124-.015.234-.015.343-.078.61-.36 1.36-1.016 1.547a1.548 1.548 0 0 1-.281.031V-4h.86v2.219c0 .453-.032.89.171 1.297.219.406.688.578 1.14.578.282 0 .595-.14.72-.39h.015v.593c0 .344-.015.656-.14.984-.11.282-.344.532-.672.532-.172 0-.313-.063-.47-.125a.41.41 0 0 0 .235-.11c.266-.25.14-.703-.203-.797a.515.515 0 0 0-.219 0c-.046.016-.093.031-.14.063-.235.14-.266.437-.157.672.11.234.36.39.594.468.14.047.313.063.453.047.47-.047.766-.453.875-.875.11-.39.079-.797.079-1.203v-1.766h-.235c0 .438.047.954-.187 1.344a.822.822 0 0 1-.188.219.542.542 0 0 1-.61 0 .75.75 0 0 1-.265-.36c-.078-.203-.094-.453-.094-.671V-4h1.422v-.313H1.734V-6.14zm0 0"/></svg></svg>