<svg xmlns="http://www.w3.org/2000/svg" xmlns:xlink="http://www.w3.org/1999/xlink" width="64" height="64" viewBox="0 0 4.877 6.332"><svg overflow="visible" x="-.188" y="6.347"><path style="stroke:none" d="M.188-.313v.297l.906-.03.703.03v-.296c-.078 0-.156-.032-.234-.063-.172-.094-.25-.281-.22-.484.048-.125.11-.25.157-.391.094-.219.172-.422.266-.64.125-.313.265-.626.39-.938.078-.188.14-.406.25-.594.094.25.203.485.297.735.188.437.375.906.563 1.359.062.172.14.344.218.531.032.078.079.172.063.266-.016.078-.078.125-.14.156-.126.063-.282.063-.407.063v.296l.875-.03.828.015.36.015v-.296c-.11 0-.204 0-.313-.016-.11-.016-.234-.016-.328-.094a.858.858 0 0 1-.188-.328c-.078-.172-.14-.344-.203-.5-.281-.672-.547-1.328-.828-2-.11-.266-.219-.531-.328-.781-.031-.094-.125-.219-.094-.328.063-.172.156-.344.219-.532.14-.343.297-.718.563-.984.25-.219.578-.328.89-.188.047.032.11.063.156.11a.454.454 0 0 0-.312.172.448.448 0 0 0 .047.547c.062.078.156.093.234.125.063 0 .11 0 .172-.016.047-.016.078-.031.125-.047.234-.14.219-.469.125-.687-.219-.422-.75-.579-1.172-.438a1.296 1.296 0 0 0-.578.422c-.234.266-.375.594-.5.938-.078.203-.172.421-.25.625-.36.875-.719 1.734-1.078 2.593-.078.172-.14.344-.219.516-.11.281-.219.594-.516.766-.062.03-.14.062-.203.078a.91.91 0 0 1-.296.046zm0 0"/></svg></svg>