<svg xmlns="http://www.w3.org/2000/svg" xmlns:xlink="http://www.w3.org/1999/xlink" width="64" height="64" viewBox="0 0 2.757 5.019"><svg overflow="visible" x="-.837" y="7.488"><path style="stroke:none" d="M2.016-3.703H2c-.063-.11-.14-.172-.219-.25a2.159 2.159 0 0 0-.937-.531v.25c0 .046-.016.093 0 .125.031.03.047.046.078.046.062.032.11.047.156.063.172.078.313.156.453.281.282.235.5.531.61.89.03.11.062.235.062.36h.016a.93.93 0 0 1 .078-.36c.11-.358.312-.655.594-.89.14-.125.296-.203.453-.281a.468.468 0 0 0 .156-.063.086.086 0 0 0 .078-.046c.016-.032.016-.079.016-.125v-.25c-.36.093-.688.28-.953.53-.079.079-.157.142-.22.25-.015-.108-.015-.218-.015-.327v-3.14c0-.11.016-.22-.078-.282a.194.194 0 0 0-.297.11c-.031.062-.015.155-.015.234zm0 0"/></svg></svg>