<svg xmlns="http://www.w3.org/2000/svg" xmlns:xlink="http://www.w3.org/1999/xlink" width="64" height="64" viewBox="0 0 3.266 6.504"><svg overflow="visible" x="-.322" y="4.473"><path style="stroke:none" d="M1.719 1.688c-.078.046-.157.093-.25.109-.078 0-.14.016-.219.016-.406-.032-.578-.5-.625-.844A.77.77 0 0 1 .594.78C.594.703.578.61.578.531v-.36C.578.11.563.048.61-.015c.047-.078.125-.14.188-.218A.106.106 0 0 1 .89-.297c.03 0 .062.031.093.047a1.6 1.6 0 0 0 .172.14c.172.094.375.172.563.204.515.062 1.125-.047 1.515-.422.094-.094.172-.234.235-.36.047-.109.078-.234.094-.343.03-.14.03-.297.015-.438a1.144 1.144 0 0 0-.125-.39 2.233 2.233 0 0 0-.219-.313 1.712 1.712 0 0 0-.734-.453c-.219-.063-.438-.094-.656-.125-.14-.031-.282-.047-.407-.094-.328-.125-.687-.39-.609-.781l.047-.188a.855.855 0 0 1 .61-.421c.421-.11.952-.079 1.28.25.172.171.266.39.313.609 0 .11 0 .219.016.297.031.094.172.125.219.047.03-.031.03-.063.03-.11v-1.203c0-.047-.015-.093-.046-.11-.125-.077-.25.095-.344.173a.096.096 0 0 1-.11.047c-.062 0-.124-.063-.187-.094-.11-.047-.219-.094-.344-.125-.14-.016-.28-.016-.421-.016-.5 0-1.11.14-1.391.61-.094.156-.14.328-.156.484a.819.819 0 0 0 .015.39c.032.11.079.204.141.297.047.079.125.172.188.235.203.187.468.312.734.375.297.078.625.11.922.187.437.141.812.532.75 1a.81.81 0 0 1-.25.485c-.188.172-.438.25-.688.281-.25.016-.515 0-.75-.11C1.094-.39.875-.702.75-1a4.135 4.135 0 0 1-.125-.422c-.016-.062-.031-.156-.063-.219-.03-.062-.14-.078-.187-.046-.078.062-.047.203-.047.28v1.72c0 .359 0 .703.125 1.03.11.298.297.563.61.657a.82.82 0 0 0 .28.031c.391-.015.798-.25.876-.656a.51.51 0 0 0 0-.266C2.14.781 1.688.656 1.453.891c-.281.28-.11.78.266.796zm0 0"/></svg></svg>