<svg xmlns="http://www.w3.org/2000/svg" xmlns:xlink="http://www.w3.org/1999/xlink" width="64" height="64" viewBox="0 0 6.979 7.132"><svg overflow="visible" x="-.553" y="6.925"><path style="stroke:none" d="M6.39-.563c-.156-.03-.327 0-.484.016-.468.047-.968.203-1.343.485v.015l.187.188c.031.015.047.062.078.062.047.016.078-.016.11-.031.062-.031.109-.078.171-.11.22-.093.438-.171.657-.218.5-.094.968-.016 1.437.14-.078-.25-.14-.5-.156-.75a2.632 2.632 0 0 1 .484-1.593l-.281-.282c-.094.141-.188.282-.266.438a3.15 3.15 0 0 0-.312 1.36c-.328-.345-.656-.688-.984-1.048L4.016-3.625 2.828-4.859c-.234-.25-.469-.47-.687-.72L1.719-6c-.219-.234-.422-.453-.64-.672-.11-.11-.282-.36-.454-.203-.031 0-.031.031-.047.047-.094.172.094.312.203.422.14.14.281.297.422.437l.625.672c.469.469.922.953 1.375 1.422.781.797 1.531 1.594 2.297 2.39.297.313.594.626.89.923zm0 0"/></svg></svg>