<svg xmlns="http://www.w3.org/2000/svg" xmlns:xlink="http://www.w3.org/1999/xlink" width="64" height="64" viewBox="0 0 4.828 4.5"><svg overflow="visible" x="-.313" y="4.515"><path style="stroke:none" d="M.313-.25v.234l.859-.03.625.03V-.25c-.063-.016-.125-.016-.188-.047A.293.293 0 0 1 1.5-.39c-.266-.296.031-.671.11-.968h1.624c.032 0 .11 0 .141.03.031.016.047.063.063.11.03.078.078.157.093.25.078.188.266.453.078.625-.015.016-.046.031-.078.047a.294.294 0 0 1-.125.031c-.062.016-.14.016-.203.016v.234L4-.046l.781.015.36.015V-.25c-.204 0-.454.016-.594-.125a1.255 1.255 0 0 1-.203-.375c-.063-.188-.14-.36-.203-.547l-.844-2.11c-.11-.28-.219-.562-.344-.843-.031-.125-.078-.266-.234-.266-.14 0-.188.141-.219.266-.125.266-.234.547-.344.828A155.3 155.3 0 0 1 1.203-1c-.125.313-.312.625-.672.719-.078.015-.14.031-.219.031zm1.421-1.422.422-1.062.344-.86.469 1.188.297.734zm0 0"/></svg></svg>