<svg xmlns="http://www.w3.org/2000/svg" xmlns:xlink="http://www.w3.org/1999/xlink" width="64" height="64" viewBox="0 0 4.828 6.344"><svg overflow="visible" x="-.172" y="4.297"><path style="stroke:none" d="M.172-4.297v.313c.172 0 .36 0 .516.078.234.125.375.375.515.562.266.36.516.719.766 1.078.11.157.234.329.36.5a.867.867 0 0 0 .093.125c.015.032.031.047.015.079 0 .046-.062.093-.109.125L2-1.157c-.453.407-.969.845-1.61.845V0l.891-.031.922.031v-.313c-.047 0-.094 0-.125-.03-.031 0-.062-.032-.078-.048-.172-.14-.031-.359.078-.484.156-.156.313-.281.469-.406.328-.297.672-.578 1-.875v4.203L5 1.937v-.312c-.172 0-.328 0-.469-.031-.11-.016-.218-.063-.265-.172-.063-.14-.047-.313-.047-.438v-4.39c0-.125-.032-.297.031-.422.063-.094.156-.125.25-.14.172-.016.328-.016.5-.016v-.313l-.438.016-.89.015-.875-.03v.312c.156 0 .312 0 .469.015.078.016.156.016.218.078.094.079.094.204.094.329v.921c0 .032 0 .079-.015.125-.032.079-.141.125-.188.188a8.85 8.85 0 0 0-.438.36c-.078-.157-.203-.298-.312-.438-.234-.344-.484-.688-.719-1.016-.093-.14-.234-.39-.031-.515a.22.22 0 0 1 .094-.032c.047-.015.11-.015.156-.015v-.313l-.875.031L.5-4.28zm0 0"/></svg></svg>