<svg xmlns="http://www.w3.org/2000/svg" xmlns:xlink="http://www.w3.org/1999/xlink" width="64" height="64" viewBox="0 0 4.022 4.304"><svg overflow="visible" x="-.266" y="4.313"><path style="stroke:none" d="M.266-4.313V-4c.156 0 .312 0 .468.016.094.015.188.03.25.109a.595.595 0 0 1 .047.281v2.86c0 .093 0 .203-.047.28a.31.31 0 0 1-.25.11c-.156.031-.312.031-.468.031v.297c.609 0 1.218.016 1.828 0 .5-.015 1.062-.03 1.515-.265.172-.094.344-.203.47-.36.296-.406.28-1.03-.063-1.406-.375-.406-.985-.531-1.516-.594-.172-.015-.36-.046-.547-.046-.047 0-.156.015-.203-.032-.031-.015-.016-.078-.016-.125v-.75c0-.11 0-.203.063-.281.062-.078.14-.094.234-.11C2.187-4 2.36-4 2.516-4v-.313zM1.734-.234V-2.47c.172 0 .375.047.532.094.312.078.625.188.875.39.093.094.187.204.234.313a.854.854 0 0 1-.078.844c-.266.375-.781.5-1.219.562-.11 0-.234.032-.344.032zm0 0"/></svg></svg>