<svg xmlns="http://www.w3.org/2000/svg" xmlns:xlink="http://www.w3.org/1999/xlink" width="64" height="64" viewBox="0 0 4.422 4.449"><svg overflow="visible" x="-.375" y="4.465"><path style="stroke:none" d="M1.61-.64c-.204 0-.407.015-.61 0-.078 0-.172 0-.219-.063C.734-.75.72-.828.703-.891a2.428 2.428 0 0 1-.078-.359h-.25L.594-.016H1.78c.047 0 .094 0 .125-.03.063-.079.032-.22.016-.298-.016-.281-.094-.547-.172-.797-.047-.14-.094-.265-.14-.39-.235-.657-.516-1.485-.094-2.14.046-.079.125-.157.187-.22a.897.897 0 0 1 .36-.234c.171-.078.343-.11.53-.11.173 0 .36.032.516.11a.897.897 0 0 1 .36.234c.062.063.14.141.187.22.422.655.14 1.483-.094 2.14-.046.125-.093.25-.14.39-.078.25-.156.516-.172.797-.016.078-.047.219.016.297.03.031.078.031.14.031H4.58l.218-1.234h-.25c-.016.125-.047.25-.078.36-.016.062-.016.14-.078.187-.047.062-.141.062-.22.062-.187.016-.405 0-.609 0 .079-.156.172-.312.25-.453.407-.578 1.016-1.187.891-1.953a1.297 1.297 0 0 0-.094-.328c-.156-.36-.484-.64-.828-.813-.703-.359-1.64-.375-2.36-.015-.452.219-.859.61-.952 1.14-.125.782.484 1.391.89 1.97.094.14.172.296.25.452zm0 0"/></svg></svg>