<svg xmlns="http://www.w3.org/2000/svg" xmlns:xlink="http://www.w3.org/1999/xlink" width="64" height="64" viewBox="0 0 2.888 6.906"><svg overflow="visible" x="-.486" y="6.922"><path style="stroke:none" d="M.813-6.813v.297c.156 0 .296 0 .453.032a.41.41 0 0 1 .234.109c.063.063.078.14.078.234.031.172.016.344.016.516v1.938H.922c-.11 0-.219-.016-.328 0-.11.03-.125.156-.094.234.047.11.188.078.281.078h.813v2.64c0 .11 0 .22-.063.313a.472.472 0 0 1-.25.078c-.156.031-.297.031-.468.031v.297L1.25-.03l.906-.016.89.031v-.296c-.171 0-.312 0-.468-.032a.472.472 0 0 1-.25-.078c-.062-.094-.062-.203-.062-.312v-2.641h.687c.094 0 .235.016.328-.016.094-.015.11-.14.078-.234-.046-.094-.187-.063-.28-.063h-.813v-3.234zm0 0"/></svg></svg>