<svg xmlns="http://www.w3.org/2000/svg" xmlns:xlink="http://www.w3.org/1999/xlink" width="64" height="64" viewBox="0 0 4.508 4.578"><svg overflow="visible" x="-.056" y="4.415"><path style="stroke:none" d="M1.672-3.563h-.016c-.031-.218-.093-.437-.265-.593-.313-.313-.829-.266-1.11.062a.857.857 0 0 0-.219.5c-.015.11 0 .188 0 .297v.438h.25v-.516c0-.14 0-.297.063-.438.078-.171.234-.296.406-.203.11.047.188.157.219.282.031.109.031.218.031.343v1.657c0 .218-.015.453.032.656.03.234.14.453.28.625.485.578 1.36.75 2.048.516.343-.11.656-.329.812-.672.078-.157.11-.375.047-.532-.094-.28-.422-.359-.656-.25-.25.141-.313.516-.125.72.11.109.25.155.406.155-.078.079-.14.141-.234.204-.344.25-.875.343-1.266.156a1.178 1.178 0 0 1-.453-.422c-.203-.344-.188-.735-.188-1.125.438 0 .891-.063 1.313-.172.297-.078.61-.188.875-.375a1.46 1.46 0 0 0 .437-.438c.079-.124.141-.265.172-.406a.94.94 0 0 0-.218-.89 1.296 1.296 0 0 0-.47-.282 2.562 2.562 0 0 0-.687-.14c-.234-.016-.469-.016-.687.062A1.727 1.727 0 0 0 1.938-4c-.11.125-.235.266-.266.438zm.062 1.657v-.766c0-.156-.015-.312.016-.484a1.216 1.216 0 0 1 1.125-1.047c.5 0 .969.422.906.937a1.366 1.366 0 0 1-.11.422 1.84 1.84 0 0 1-.296.39 1.87 1.87 0 0 1-.64.36c-.329.11-.657.172-1 .188zm0 0"/></svg></svg>