<svg xmlns="http://www.w3.org/2000/svg" xmlns:xlink="http://www.w3.org/1999/xlink" width="64" height="64" viewBox="0 0 3.857 9.079"><svg overflow="visible" x=".275" y="7.042"><path style="stroke:none" d="M.266 1.688c.156-.047.296-.11.359-.282.016-.047.016-.11.016-.172A.455.455 0 0 0 .047.797a.306.306 0 0 0-.125.062c-.297.188-.219.61-.016.829.297.343.86.437 1.266.265.25-.11.453-.312.594-.531.125-.234.203-.5.234-.781v-5.516c0-.469-.047-.969.078-1.422.047-.203.14-.437.36-.5.203-.062.39.031.578.063-.141.062-.25.125-.313.265a.48.48 0 0 0 .094.532c.14.125.36.156.515.078a.34.34 0 0 0 .126-.079c.265-.234.124-.64-.094-.843-.297-.266-.797-.328-1.172-.188a1.244 1.244 0 0 0-.578.485c-.14.218-.235.468-.266.718-.016.188 0 .375 0 .563V0c0 .453.031.906-.094 1.328-.062.234-.187.453-.421.469a.348.348 0 0 1-.22 0 .904.904 0 0 1-.327-.11zm0 0"/></svg><path style="fill:none;stroke:#000;stroke-width:.305;stroke-linecap:butt;stroke-linejoin:miter;stroke-miterlimit:10;stroke-opacity:1" d="M0 .001h3.652" transform="matrix(1 0 0 -1 .108 5.755)"/><path style="fill:none;stroke:#000;stroke-width:.305;stroke-linecap:butt;stroke-linejoin:miter;stroke-miterlimit:10;stroke-opacity:1" d="M0 .001h3.652" transform="matrix(1 0 0 -1 .108 3.825)"/></svg>