<svg xmlns="http://www.w3.org/2000/svg" xmlns:xlink="http://www.w3.org/1999/xlink" width="64" height="64" viewBox="0 0 4.766 4.454"><svg overflow="visible" x="-.344" y="4.313"><path style="stroke:none" d="M.344-4.313v.25c.14 0 .281 0 .406.016.063.016.14.031.203.078.11.11.078.313.078.453v1.844c0 .203-.015.39.032.578.03.11.078.219.14.328.328.61 1.016.922 1.688.907.187 0 .375-.047.53-.11.142-.062.282-.14.407-.234.281-.219.485-.547.563-.906.046-.22.03-.438.03-.641v-1.266c0-.328-.046-.734.266-.937.047-.031.094-.063.157-.078.078-.032.172-.032.265-.032v-.25l-.656.032-.953-.032v.25c.094 0 .172 0 .266.032a.73.73 0 0 1 .156.078c.312.203.25.61.25.937v1.172c0 .203.016.39-.016.594-.047.344-.234.64-.515.844a2.3 2.3 0 0 1-.344.156c-.14.047-.313.078-.469.078a.917.917 0 0 1-.36-.062c-.093-.032-.187-.063-.28-.125-.047-.047-.11-.094-.157-.157-.312-.296-.312-.734-.312-1.14v-1.907c0-.109-.016-.25.062-.359.047-.078.125-.11.219-.125.14-.016.266-.016.406-.016v-.25l-.812.032h-.86zm0 0"/></svg></svg>