<svg xmlns="http://www.w3.org/2000/svg" xmlns:xlink="http://www.w3.org/1999/xlink" width="64" height="64" viewBox="0 0 2.674 4.527"><svg overflow="visible" x="-.266" y="4.422"><path style="stroke:none" d="M.266-4.313V-4c.156 0 .296 0 .453.031a.41.41 0 0 1 .234.11c.078.093.078.234.078.359v2.016c0 .171-.015.359 0 .53.032.22.125.438.266.61.187.25.469.39.781.438.188.031.39 0 .531-.14.204-.173.266-.485.297-.735.031-.188.031-.36.031-.531 0-.063.016-.157-.03-.204-.063-.062-.173-.046-.204.032-.015.046-.015.125-.015.171 0 .125 0 .25-.016.375-.016.188-.031.391-.11.563-.078.188-.265.313-.453.234-.14-.03-.218-.156-.265-.28-.094-.235-.11-.516-.11-.782v-3.219l-.375.031zm0 0"/></svg></svg>