<svg xmlns="http://www.w3.org/2000/svg" xmlns:xlink="http://www.w3.org/1999/xlink" width="64" height="64" viewBox="0 0 6.065 4.736"><svg overflow="visible" x="-.419" y="4.535"><path style="stroke:none" d="M.953-3.875c.11-.11.219-.188.375-.25.125-.047.25-.078.375-.11.438-.062.984-.124 1.344.235.031.047.078.094.11.156.265.485.03 1.172-.5 1.344-.188.063-.376.031-.548.063-.078 0-.171 0-.171.109 0 .047.03.078.078.094.093.03.203.015.296.015.376 0 .766.156.954.5.078.14.125.297.14.469.031.438-.14.875-.578 1.078-.375.172-.844.11-1.234-.031a2.6 2.6 0 0 1-.703-.39C.828-.657.75-.72.687-.782c-.03-.047-.062-.11-.125-.11-.109-.03-.156.094-.14.172A.34.34 0 0 0 .5-.594c.063.063.125.11.172.172.625.547 1.484.734 2.281.563.328-.078.672-.203.922-.438.11-.125.219-.234.297-.39a.993.993 0 0 0 .094-.282c.015-.094.03-.172.015-.25-.031-.453-.406-.75-.765-.937a1.595 1.595 0 0 0-.454-.172c.094-.016.172-.047.25-.078.313-.11.626-.297.766-.61a.822.822 0 0 0 .063-.28c0-.063-.016-.142.03-.188.048-.079.173-.125.235-.172.172-.125.375-.235.547-.36v.891c0 .11-.016.219 0 .328.016.14.094.281.188.39.375.391 1.093.298 1.296-.202a.73.73 0 0 0 .047-.266c-.015-.094-.156-.14-.218-.063-.032.032-.032.094-.032.141a.468.468 0 0 1-.062.156c-.14.266-.5.36-.703.125-.14-.171-.14-.343-.14-.546V-4.22c0-.047.015-.093-.016-.14-.032-.063-.094-.063-.141-.063-.047 0-.094 0-.14.016-.079.015-.126.062-.188.093-.11.079-.219.157-.328.22-.157.109-.313.218-.485.327-.14-.265-.375-.437-.64-.546-.563-.266-1.25-.266-1.844-.141-.313.078-.625.203-.813.453a.696.696 0 0 0-.171.594c.046.25.312.36.546.265.22-.093.282-.406.125-.593a.334.334 0 0 0-.28-.141zm0 0"/></svg></svg>