<svg xmlns="http://www.w3.org/2000/svg" xmlns:xlink="http://www.w3.org/1999/xlink" width="64" height="64" viewBox="0 0 3.828 4.297"><svg overflow="visible" x="-.344" y="4.313"><path style="stroke:none" d="M.344-4.313v.25c.14 0 .265 0 .406.016.078.016.172.047.219.125.062.078.047.203.047.297v2.922c0 .11 0 .219-.047.297-.047.094-.125.11-.219.14C.625-.25.484-.25.344-.25v.234H4l.11-.937.062-.516h-.25c-.031.188-.047.375-.125.578a1.397 1.397 0 0 1-.14.25c-.282.375-.766.391-1.204.391H2c-.078 0-.172-.016-.219-.063-.062-.078-.062-.203-.062-.28V-3.61c0-.11 0-.235.062-.313a.386.386 0 0 1 .25-.125c.188-.016.36-.016.547-.016v-.25l-.937.032H.734zm0 0"/></svg></svg>