<svg xmlns="http://www.w3.org/2000/svg" xmlns:xlink="http://www.w3.org/1999/xlink" width="64" height="64" viewBox="0 0 3.886 7.029"><svg overflow="visible" x="-.544" y="6.925"><path style="stroke:none" d="M.89-.922c.172.031.344 0 .454-.125a.462.462 0 0 0-.14-.734c-.25-.11-.563.015-.641.281-.047.203 0 .438.078.625.156.36.468.61.828.766.562.265 1.25.28 1.828.062.125-.031.234-.094.344-.156.5-.328.734-.906.78-1.5a2.075 2.075 0 0 0-.202-1.11c-.344-.656-1.047-1.078-1.782-1.171v-2.704c0-.078.016-.156-.03-.203-.048-.046-.11-.03-.157-.03h-.36c-.062 0-.124.03-.14.077-.031.11 0 .219 0 .328v2.422c0 .078-.016.157 0 .219.031.14.203.11.297.11.312 0 .61.109.844.312.093.078.187.156.265.265.453.563.5 1.297.406 1.985-.03.234-.093.484-.25.687-.406.532-1.171.454-1.734.204a1.234 1.234 0 0 1-.36-.22 1.613 1.613 0 0 1-.327-.39zm0 0"/></svg></svg>