<svg xmlns="http://www.w3.org/2000/svg" xmlns:xlink="http://www.w3.org/1999/xlink" width="64" height="64" viewBox="0 0 7.854 8.363"><svg overflow="visible" x="-.338" y="6.922"><path style="stroke:none" d="M3.047-6.813v.297c.14 0 .297 0 .437.032a.41.41 0 0 1 .235.109c.062.063.078.14.094.234.015.157 0 .313 0 .485v1.843a1.737 1.737 0 0 0-.72-.515c-.218-.094-.468-.094-.718-.078a2.194 2.194 0 0 0-1.578.875c-.703.922-.594 2.328.297 3.11.125.124.297.233.468.312.344.156.72.234 1.094.203.328-.047.64-.188.875-.39a1.89 1.89 0 0 0 .25-.25v.64l1.485-.11v-.296c-.141 0-.297 0-.438-.032a.375.375 0 0 1-.234-.094c-.125-.109-.11-.296-.11-.453v-6.03zM1.172-1.905c-.016-.172 0-.36 0-.532.031-.5.14-1.015.516-1.374.093-.079.171-.141.25-.188a1.239 1.239 0 0 1 1.578.219.859.859 0 0 1 .203.265c.031.047.062.094.062.141.031.188 0 .39 0 .578v1.578c0 .063.016.14 0 .219-.015.063-.078.14-.11.203-.327.485-.905.797-1.483.625a.911.911 0 0 1-.282-.125 1.62 1.62 0 0 1-.312-.266c-.203-.234-.313-.515-.375-.812-.016-.188-.032-.344-.047-.531zm0 0"/></svg><svg overflow="visible" x="3.304" y="6.922"><path style="stroke:none" d="m.531-4.313-.11 1.61h.25c.016-.344.032-.75.25-1.031.173-.235.454-.297.72-.329.218-.03.437-.03.656-.03h.86c-.25.296-.454.609-.688.905-.516.704-1.031 1.407-1.563 2.11l-.515.703c-.063.078-.157.203-.094.313.031.046.078.046.125.046H1.75l-.469.86-.187.36-.11.234c.079 0 .172.015.235-.016.031-.016.062-.078.078-.11l.14-.28c.125-.25.25-.485.391-.72.031-.062.078-.14.11-.187.03-.047.046-.078.093-.11.047-.046.14-.03.219-.03h.547c.484 0 1.031.062 1.453-.25.078-.063.14-.141.203-.22.25-.406-.016-.937-.453-1.093-.438-.156-.953.11-1.281.39-.078.063-.14.125-.203.188a2.95 2.95 0 0 0-.22.234c-.077.094-.155.204-.25.313-.03.047-.077.125-.124.156-.063.047-.172.031-.234.031h-.563c.328-.406.625-.843.938-1.265.437-.578.859-1.157 1.28-1.735.173-.218.36-.468.532-.687.047-.078.156-.188.094-.297-.047-.078-.156-.063-.235-.063zM2.187-.266c.094-.14.188-.265.297-.375.282-.343.641-.64 1.079-.734A.605.605 0 0 1 4-1.328c.219.125.375.437.25.672-.094.203-.328.297-.547.344-.219.046-.453.046-.687.046zm0 0"/></svg></svg>