<svg xmlns="http://www.w3.org/2000/svg" xmlns:xlink="http://www.w3.org/1999/xlink" width="64" height="64" viewBox="0 0 1.943 2.725"><svg overflow="visible" x="-.952" y="6.46"><path style="stroke:none" d="M2.39-6.11a.6.6 0 0 0-.28.141.473.473 0 0 0 .03.672c.235.219.657.11.735-.219.078-.28-.078-.578-.281-.734a.909.909 0 0 0-.39-.188 1.27 1.27 0 0 0-.345-.015.371.371 0 0 0-.187.047c-.469.156-.656.703-.703 1.156-.016.078-.016.156-.016.234v1.063c0 .078-.015.187.094.219.062 0 .172 0 .203-.063.031-.062.016-.156.016-.203v-.453c0-.438-.016-.906.14-1.328.078-.219.235-.422.485-.453h.203c.11.03.203.078.297.125zm0 0"/></svg></svg>