<svg xmlns="http://www.w3.org/2000/svg" xmlns:xlink="http://www.w3.org/1999/xlink" width="64" height="64" viewBox="0 0 3.031 6.906"><svg overflow="visible" x="-.641" y="6.922"><path style="stroke:none" d="M1.047-6.813v.297c.156 0 .297 0 .453.032.078.015.172.046.219.109.062.063.078.14.093.234.016.157.016.313.016.485v1.812c-.094-.015-.172-.031-.266-.031-.437.016-.671.453-.921.75v.016c.03.03.109.125.171.109.032-.016.063-.047.079-.063.03-.03.078-.093.109-.124.172-.157.39-.266.625-.22.047 0 .14.016.172.063.047.047.031.14.031.188V-.72c0 .094 0 .203-.078.281-.047.063-.14.094-.219.094-.172.031-.328.031-.484.031v.297l.422-.015.906-.016.89.031v-.296c-.156 0-.312 0-.468-.032a.421.421 0 0 1-.235-.078C2.5-.516 2.5-.625 2.5-.719v-2.297c.11.032.219.047.344.032.281-.063.469-.313.64-.516.063-.078.141-.156.188-.25l-.188-.125c-.171.219-.406.453-.718.438a.935.935 0 0 1-.188-.032c-.031-.015-.062-.031-.078-.062v-3.391zm0 0"/></svg></svg>