<svg xmlns="http://www.w3.org/2000/svg" xmlns:xlink="http://www.w3.org/1999/xlink" width="64" height="64" viewBox="0 0 3.338 4.153"><svg overflow="visible" x="-.54" y="7.606"><path style="stroke:none" d="M.953-6.906c.078-.11.188-.188.297-.266.094-.047.188-.078.281-.125.438-.14 1.078-.14 1.344.313a.617.617 0 0 1 .094.234c.031.125.047.266.047.406.046.438-.016.907-.329 1.235a1.358 1.358 0 0 1-.546.39.627.627 0 0 1-.235.047c-.047.016-.11.016-.14.063-.063.046-.047.171-.047.25v.609c0 .078-.016.188.031.25.031.047.078.047.14.047h.36c.047 0 .11 0 .14-.031.047-.063.032-.172.032-.235v-.562c0-.063-.016-.188.015-.235.032-.046.11-.046.172-.062.125-.047.25-.11.375-.172.454-.219.829-.625.891-1.156.031-.469-.14-.969-.5-1.297a1.732 1.732 0 0 0-.656-.328c-.64-.157-1.469-.094-1.938.437-.156.203-.297.532-.219.782.11.312.532.421.766.203.172-.172.188-.485.031-.657a.504.504 0 0 0-.406-.14zm0 0"/></svg></svg>