<svg xmlns="http://www.w3.org/2000/svg" xmlns:xlink="http://www.w3.org/1999/xlink" width="64" height="64" viewBox="0 0 3.329 6.347"><svg overflow="visible" x=".397" y="4.313"><path style="stroke:none" d="M.469-4.313V-4c.203 0 .406 0 .61.016.093.015.202.03.28.109.079.094.079.219.079.328v3.11H.734c-.078 0-.203-.016-.25.046-.046.079-.03.235.079.266h.875v.36c0 .374 0 .765-.141 1.124-.078.204-.234.391-.453.438a.633.633 0 0 1-.297 0C.422 1.78.266 1.75.172 1.672a.252.252 0 0 0 .14-.047c.329-.203.25-.75-.14-.844h-.188c-.046 0-.109.031-.156.047-.344.188-.25.672-.016.89.141.157.36.235.563.282.469.094.953 0 1.297-.36.11-.109.187-.25.266-.374.218-.438.171-.922.171-1.391h.485c.078 0 .172 0 .25-.016.094-.015.11-.172.062-.265-.062-.047-.156-.031-.219-.031H2.11v-3.126c0-.109-.015-.218.063-.312.047-.078.14-.094.234-.11C2.562-4 2.72-4 2.875-4v-.313l-.422.032H1.47zm0 0"/></svg></svg>