<svg xmlns="http://www.w3.org/2000/svg" xmlns:xlink="http://www.w3.org/1999/xlink" width="64" height="64" viewBox="0 0 5.323 6.553"><svg overflow="visible" x="-.331" y="6.453"><path style="stroke:none" d="M3.781-4.016a1.763 1.763 0 0 0-.906-.437 2.155 2.155 0 0 0-2.031.781c-.735.938-.688 2.36.187 3.188.61.578 1.594.78 2.344.359.297-.172.531-.469.672-.781.031-.078.062-.156.078-.235a.096.096 0 0 0-.016-.109c-.046-.063-.156-.063-.203 0-.031.047-.031.078-.047.125a.578.578 0 0 1-.078.172 1.31 1.31 0 0 1-.515.61 1.222 1.222 0 0 1-.766.188c-.594-.048-1-.517-1.188-1.032-.14-.391-.156-.829-.14-1.25.031-.36.078-.75.281-1.079.14-.265.344-.5.625-.625.188-.093.39-.093.594-.078.328.032.656.125.906.36a.407.407 0 0 0-.234.062c-.25.125-.297.5-.125.703.156.188.484.203.672.047.14-.14.14-.297.14-.469v-.765c0-.485-.031-1 .157-1.453.093-.235.265-.454.515-.485.125-.031.234.016.375.032-.14.062-.25.125-.297.265a.475.475 0 0 0 .11.531c.109.094.25.11.39.11.297-.047.438-.36.344-.64a.703.703 0 0 0-.328-.407C5-6.5 4.609-6.5 4.328-6.297c-.14.094-.25.234-.328.39-.297.579-.219 1.266-.219 1.891zm0 0"/></svg></svg>