<svg xmlns="http://www.w3.org/2000/svg" xmlns:xlink="http://www.w3.org/1999/xlink" width="64" height="64" viewBox="0 0 5.999 6.56"><svg overflow="visible" x="-.461" y="6.418"><path style="stroke:none" d="M4.125-3.953h-.016a1.194 1.194 0 0 0-.421-.313c-.704-.343-1.563-.187-2.188.235a2.253 2.253 0 0 0-.422.343c-.156.172-.297.36-.39.563A2.21 2.21 0 0 0 1.03-.672c.25.266.547.469.86.61a2.53 2.53 0 0 0 1.625.124c.25-.078.515-.218.625-.437.125.11.218.219.343.297.047.031.11.078.172.062.047-.03.063-.078.063-.14v-.985c0-.109 0-.25.093-.312.11-.078.266-.078.391-.078v-.235l-.328.016-.797.016-.922-.032v.235c.156 0 .328 0 .5.031.078 0 .172.016.235.078.125.094.125.25.125.39 0 .22.015.438-.141.61l-.14.094c-.235.156-.532.172-.797.156-.532-.062-1.047-.312-1.36-.781-.187-.281-.25-.64-.266-.985-.03-.25-.015-.5.016-.75.047-.218.125-.468.234-.656a1.663 1.663 0 0 1 1.22-.781c.25-.047.515-.016.75.078.202.094.39.234.53.406.172.204.282.422.344.657.032.109.032.218.063.328.031.062.11.078.187.062.094-.031.078-.14.078-.219V-4.53c0-.407 0-.797.172-1.172a.94.94 0 0 1 .313-.39.693.693 0 0 1 .61-.048c.077.047.155.094.218.157a.481.481 0 0 0-.203.046.422.422 0 0 0-.125.61c.11.14.281.187.453.14a.29.29 0 0 0 .11-.03c.187-.141.202-.376.155-.579-.093-.328-.39-.547-.718-.61a.85.85 0 0 0-.282 0 .51.51 0 0 0-.203.063c-.515.203-.703.813-.75 1.313-.015.14-.015.281-.015.422 0 .078.015.156 0 .218-.016.063-.078.11-.11.157-.078.093-.156.171-.234.28zm0 0"/></svg></svg>