<svg xmlns="http://www.w3.org/2000/svg" xmlns:xlink="http://www.w3.org/1999/xlink" width="64" height="64" viewBox="0 0 2.667 6.664"><svg overflow="visible" x="-.265" y="6.68"><path style="stroke:none" d="M1.36-6.672c-.063.016-.141.031-.188.078a.443.443 0 0 0-.156.14c-.032.048-.063.126-.094.188-.078.36.25.688.61.641.062-.016.14-.031.187-.078.062-.031.11-.094.156-.14.031-.063.063-.126.094-.204.078-.36-.25-.687-.61-.625zm-.83 2.36V-4c.125 0 .266 0 .39.016.079.015.173.03.22.093.125.11.125.282.125.438v.953H.672c-.11 0-.219-.016-.297 0-.11.031-.14.172-.078.25.031.078.156.063.234.063h.735v1.28c0 .157.046.376-.094.5a.359.359 0 0 1-.219.063c-.156.031-.312.031-.469.031v.297l.875-.03.875.015.391.015v-.296c-.125 0-.281 0-.422-.032A.368.368 0 0 1 2-.422c-.11-.11-.063-.344-.063-.5v-1.265h.61c.078 0 .203.015.297-.016.094-.016.11-.156.062-.235-.031-.078-.172-.062-.25-.062h-.719v-1.922zm0 0"/></svg></svg>