<svg xmlns="http://www.w3.org/2000/svg" xmlns:xlink="http://www.w3.org/1999/xlink" width="64" height="64" viewBox="0 0 5.246 6.361"><svg overflow="visible" x="-.276" y="4.314"><path style="stroke:none" d="m.531-4.313-.11 1.61h.25c.016-.344.032-.75.25-1.031.173-.235.47-.297.735-.329.219-.03.453-.03.672-.03h.813c-.282.359-.532.734-.813 1.093L.922-1.078C.734-.844.562-.61.39-.375c-.063.078-.157.203-.094.313.047.078.156.046.219.046h3.03c0 .532-.03 1.063.22 1.532.093.187.234.343.437.453.36.172.86.047 1.125-.25.14-.14.219-.36.188-.563a.46.46 0 0 0-.594-.36c-.36.095-.438.626-.11.813.047.047.11.063.188.079-.125.062-.219.109-.36.109-.312.062-.562-.156-.687-.438-.187-.437-.156-.906-.156-1.375h.031L4-1.875h-.25c-.047.406-.047.875-.313 1.219-.171.234-.484.344-.765.375-.235.015-.453.015-.672.015h-.875c.734-1 1.484-1.984 2.219-2.984l.515-.703c.063-.078.172-.188.094-.297-.047-.078-.156-.063-.219-.063zm0 0"/></svg></svg>