<svg xmlns="http://www.w3.org/2000/svg" xmlns:xlink="http://www.w3.org/1999/xlink" width="64" height="64" viewBox="0 0 6.635 9.971"><svg overflow="visible" x="-.557" y="7.486"><path style="stroke:none" d="M.703-3.656c-.203.047-.187.344 0 .375a.86.86 0 0 0 .188.015h5.812c.14 0 .344.032.438-.062.109-.125.03-.328-.125-.344H.89c-.063 0-.141 0-.188.016zm0 1.937c-.187.032-.203.328 0 .375.047.016.11.016.172.016h5.828c.14 0 .344.031.438-.063.109-.14.03-.328-.125-.343-.141-.016-.297 0-.438 0H.891c-.047 0-.125-.016-.188.015zm0 0"/></svg><svg overflow="visible" x=".826" y="7.486"><path style="stroke:none" d="M4.172-7.484c-.078.03-.125.125-.156.203l-.11.265c-.172.485-.344.97-.515 1.438C2.67-3.594 1.937-1.61 1.219.375A67.363 67.363 0 0 1 .64 2c-.047.14-.157.328-.016.438a.118.118 0 0 0 .063.03.198.198 0 0 0 .093.016c.11-.015.14-.109.172-.203.047-.11.078-.219.125-.328.203-.547.406-1.094.594-1.64.719-1.985 1.453-3.97 2.172-5.938.172-.5.36-.984.531-1.484.016-.063.047-.125.047-.204 0-.109-.125-.187-.25-.171zm0 0"/></svg></svg>