<svg xmlns="http://www.w3.org/2000/svg" xmlns:xlink="http://www.w3.org/1999/xlink" width="64" height="64" viewBox="0 0 3.668 6.342"><svg overflow="visible" x="-.422" y="4.313"><path style="stroke:none" d="m.531-4.313-.078 1.25-.031.422h.25c.015-.312.094-.703.36-.89.218-.156.53-.172.765-.172.562-.031 1.125-.016 1.687-.016-.187.219-.406.422-.609.625-.297.328-.625.672-.938 1-.156.156-.28.297-.437.453-.047.063-.156.125-.172.22 0 .062.031.109.094.109.047.03.11.015.172.015.078 0 .14.016.203.016.516.062 1.047.265 1.297.75.156.297.172.656.14.984-.015.313-.046.64-.234.906-.063.079-.125.141-.188.204-.453.421-1.203.265-1.64-.079a1.03 1.03 0 0 1-.328-.359.57.57 0 0 0 .281-.063c.219-.14.281-.468.125-.671A.535.535 0 0 0 .828.203a.46.46 0 0 0-.406.469c0 .281.11.562.297.781.203.219.453.375.734.453.5.172 1.063.172 1.531-.047.22-.093.438-.234.61-.406.14-.156.25-.328.328-.516C4 .781 4.047.61 4.078.422c.063-.531-.125-1.078-.469-1.484-.25-.282-.562-.5-.89-.625-.219-.079-.453-.157-.672-.157.062-.062.11-.125.172-.187.14-.125.265-.266.39-.406.329-.329.625-.657.954-.985a3.59 3.59 0 0 1 .25-.265c.046-.047.124-.126.156-.188.015-.063.015-.14.015-.219 0-.047 0-.093-.015-.14-.031-.079-.125-.079-.203-.079zm0 0"/></svg></svg>