<svg xmlns="http://www.w3.org/2000/svg" xmlns:xlink="http://www.w3.org/1999/xlink" width="64" height="64" viewBox="0 0 4.766 4.305"><svg overflow="visible" x="-.344" y="4.313"><path style="stroke:none" d="M.344-4.313v.25c.172 0 .328 0 .5.032.047 0 .14 0 .156.047.031.03.031.062.031.093v2.828c0 .125 0 .25-.031.391C.906-.375.64-.25.344-.25v.234l.984-.03.656.03V-.25c-.234 0-.484-.078-.593-.313a.51.51 0 0 1-.063-.203c-.031-.14-.016-.28-.016-.421v-2.594c.094.11.188.234.266.36l.516.655c.484.657.984 1.297 1.469 1.938.187.234.359.469.546.703.063.078.172.172.282.078.062-.047.03-.156.03-.234v-2.922c0-.125 0-.266.032-.39.016-.063.031-.126.063-.188.125-.203.359-.281.593-.281v-.25l-.656.03-.984-.03v.25c.234 0 .453.062.578.28a.33.33 0 0 1 .062.157c.032.14.032.281.032.406v2.125l-.72-.953-1.015-1.328-.5-.64-.125-.173-.093-.093-.157-.032zm0 0"/></svg></svg>