<svg xmlns="http://www.w3.org/2000/svg" xmlns:xlink="http://www.w3.org/1999/xlink" width="64" height="64" viewBox="0 0 5.83 6.456"><svg overflow="visible" x="-.313" y="4.422"><path style="stroke:none" d="M.313-4.313V-4c.156 0 .312 0 .468.031.094.016.188.047.25.125.063.11.063.235.063.344v2.766c0 .093 0 .203-.063.28-.047.079-.14.11-.234.11-.156.031-.313.031-.485.031v.297L.75-.03l.922-.016.906.031v-.296c-.172 0-.328 0-.484-.032-.094 0-.188-.031-.235-.094-.078-.093-.062-.234-.062-.359v-1.5c0-.203-.016-.39.016-.578.046-.313.156-.594.343-.828.078-.094.156-.172.25-.235.11-.093.235-.156.375-.203a.885.885 0 0 1 .531-.03c.063 0 .11.03.157.062.39.203.39.734.39 1.125V.359c0 .157 0 .313.016.485a2 2 0 0 0 .172.484c.14.266.344.5.625.61.312.14.703.125 1.016-.032a.792.792 0 0 0 .39-.39c.125-.266.078-.61-.219-.704-.062-.03-.125-.03-.171-.03-.063 0-.11 0-.172.03-.282.094-.375.47-.204.704a.448.448 0 0 0 .297.171c-.171.063-.343.141-.53.125-.204-.03-.329-.171-.391-.343-.125-.297-.125-.625-.125-.938v-3.469c0-.328-.032-.656-.204-.953-.171-.312-.5-.453-.843-.5a1.891 1.891 0 0 0-.594 0 1.424 1.424 0 0 0-.985.641c-.078.11-.156.234-.187.36h-.016v-1.032zm0 0"/></svg></svg>