<svg xmlns="http://www.w3.org/2000/svg" xmlns:xlink="http://www.w3.org/1999/xlink" width="64" height="64" viewBox="0 0 2.151 8.865"><svg overflow="visible" x="-1.134" y="6.94"><path style="stroke:none" d="M1.219-6.922c-.063.031-.078.078-.078.14v8.47c0 .047-.016.11 0 .157.03.093.203.093.28.062.063-.015.079-.062.079-.125v-8.468c0-.047.016-.11 0-.157-.031-.11-.203-.11-.281-.078zm1.765 0c-.062.031-.078.078-.078.14v8.47c0 .046 0 .109.016.156.031.093.203.093.281.062.063-.015.078-.062.078-.125v-8.469c0-.046.016-.109-.015-.156-.032-.078-.11-.078-.188-.078h-.094zm0 0"/></svg></svg>