<svg xmlns="http://www.w3.org/2000/svg" xmlns:xlink="http://www.w3.org/1999/xlink" width="64" height="64" viewBox="0 0 3.895 7.027"><svg overflow="visible" x="-.536" y="7.043"><path style="stroke:none" d="M1.516-.313v.297L1.89-.03l.734-.016.75.016.39.015v-.296c-.171 0-.328 0-.484-.032-.078 0-.156-.015-.203-.078a.308.308 0 0 1-.094-.219c-.015-.203 0-.39 0-.578v-2.078c0-.062.016-.156-.015-.219-.031-.078-.203-.078-.281-.093a1.767 1.767 0 0 1-.61-.266 3.129 3.129 0 0 1-.25-.219c-.453-.468-.5-1.156-.406-1.765.047-.297.187-.579.437-.75.188-.125.407-.172.61-.204.375-.03.75.032 1.078.204.203.093.39.234.5.437-.156-.016-.297.016-.406.125-.188.188-.172.547.046.703.25.172.626.063.72-.234.062-.188 0-.453-.095-.625-.171-.36-.546-.594-.906-.719a2.485 2.485 0 0 0-1.015-.11c-.563.048-1.141.22-1.5.688-.344.469-.47 1.188-.235 1.719.14.313.375.563.656.75.22.14.454.25.704.344.062.015.125.031.171.047.047.015.079.03.094.062.016.078 0 .172 0 .235V-.72c0 .094 0 .203-.062.297A.373.373 0 0 1 2-.344c-.156.031-.328.031-.484.031zm0 0"/></svg></svg>