<svg xmlns="http://www.w3.org/2000/svg" xmlns:xlink="http://www.w3.org/1999/xlink" width="64" height="64" viewBox="0 0 4.942 8.844"><svg overflow="visible" x="-.266" y="6.922"><path style="stroke:none" d="M.266-6.813v.297c.14 0 .296 0 .437.032.078 0 .172.03.235.093.125.11.109.313.109.47v7.124c0 .078 0 .172-.047.25-.047.094-.14.125-.25.14-.156.016-.328.016-.484.016v.313l.437-.016.922-.015.89.03V1.61c-.14 0-.296 0-.453-.015-.078-.016-.171-.016-.234-.063-.11-.11-.078-.297-.078-.437V.062c.266-.015.547-.078.813-.124.343-.079.671-.141 1-.266.437-.156.874-.36 1.203-.703.64-.657.515-1.703.062-2.422a1.667 1.667 0 0 0-.297-.36 2.214 2.214 0 0 0-.672-.453 1.843 1.843 0 0 0-1.687.11 1.37 1.37 0 0 0-.453.39v-3.156zM1.75-.171v-2.844c0-.109-.031-.218 0-.328.016-.062.047-.11.078-.172.078-.109.172-.203.281-.296.313-.282.797-.438 1.204-.297a.97.97 0 0 1 .39.218c.422.375.61.97.656 1.516 0 .219 0 .406-.046.61a1.387 1.387 0 0 1-.329.593c-.421.484-1.062.734-1.656.875-.187.063-.39.11-.578.125zm0 0"/></svg></svg>