<svg xmlns="http://www.w3.org/2000/svg" xmlns:xlink="http://www.w3.org/1999/xlink" width="64" height="64" viewBox="0 0 5.359 7.094"><svg overflow="visible" x=".156" y="6.953"><path style="stroke:none" d="m3.89-3.688-.046.047c-1.11-.093-2.125-.968-2.125-2.109 0-.438.328-.813.765-.813.61 0 1 .797 1.188 1.375.172.485.219.985.219 1.5zM1.079-1.171c0 .75.313 1.313 1.031 1.313 1.047 0 1.954-.938 2.297-1.938.172-.5.235-.969.235-1.5l.046-.031h.516v-.266h-.531l-.031-.062c0-.985-.204-2.14-.97-2.906a1.268 1.268 0 0 0-.89-.391c-.844 0-1.484.625-1.484 1.453 0 1.36 1.281 2.078 2.594 2.203l.046.047c0 1.031-.187 2.906-1.437 2.906-.563 0-.688-.36-.688-1.547v-1.062c0-.39-.187-.75-.578-.75-.5 0-1.015.344-1.39.672l.11.203c.218-.125.468-.281.687-.281.39 0 .437.484.437.843zm0 0"/></svg></svg>