<svg xmlns="http://www.w3.org/2000/svg" xmlns:xlink="http://www.w3.org/1999/xlink" width="64" height="64" viewBox="0 0 8.156 6.891"><svg overflow="visible" x="-.25" y="6.875"><path style="stroke:none" d="M8.328-.594c-.703 0-1.656.047-2.5.078v-.109c1.344-.547 1.844-1.922 1.844-3.219 0-1.515-.688-3.031-3.063-3.031-.984 0-1.968.234-2.671.938C1.25-5.25.984-4.329.984-3.376c0 1.125.297 2.094 1.391 2.688l-.063.156a23.289 23.289 0 0 0-1.89-.11L.25-.047c.39-.015.797-.031 1.203-.031.688 0 1.375.031 2.078.094l.203-.547C2.297-.812 1.86-2.11 1.86-3.281c0-1.594.672-3.235 2.563-3.235 1.672 0 2.344 1.485 2.344 2.844 0 1.375-.422 2.75-1.954 3.11L4.72.015c.562-.047 1.11-.063 1.672-.063.593 0 1.187.016 1.78.063l.235-.532zm0 0"/></svg></svg>