<svg xmlns="http://www.w3.org/2000/svg" xmlns:xlink="http://www.w3.org/1999/xlink" width="64" height="64" viewBox="0 0 3.797 7.016"><svg overflow="visible" x="-.563" y="6.922"><path style="stroke:none" d="M3.828-6.844a4.904 4.904 0 0 0-.797-.078c-.734 0-1.36.219-1.703.922a.802.802 0 0 0-.11.375c0 .375.532.875.923 1.219C1.359-3.641.562-2.625.562-1.594.563-.78 1 .094 2.032.094 3.343.094 4.358-1.22 4.358-2.5c0-.547-.296-1.047-.671-1.438l-.954-.906c-.796-.765-1.046-.922-1.046-1.187 0-.313.328-.407.656-.407.656 0 1.031.063 1.39.094l.141-.422zm-1.453 2.64c.594.595 1.36 1.407 1.36 2.126 0 .828-.454 1.64-1.204 1.64-.844 0-1.203-.953-1.203-1.671 0-.766.344-1.375 1.047-2.094zm0 0"/></svg></svg>