<svg xmlns="http://www.w3.org/2000/svg" xmlns:xlink="http://www.w3.org/1999/xlink" width="64" height="64" viewBox="0 0 5.297 4.828"><svg overflow="visible" x=".125" y="4.703"><path style="stroke:none" d="M3.86-3.969c.39.375.562.906.562 1.453 0 .75-.344 2-1.625 2-.672 0-.938-.578-.938-1.28 0-.704.047-1.298.047-1.954 0-.453-.11-.953-.656-.953-.5 0-.984.36-1.375.703l.172.219c.203-.172.437-.344.703-.344.297 0 .375.422.375.828v2.11c0 .656.266 1.312 1.078 1.312 1.563 0 2.969-1.516 2.969-3.078 0-.656-.281-1.266-.734-1.735l-.204.032-.421.515zm0 0"/></svg></svg>