<svg xmlns="http://www.w3.org/2000/svg" xmlns:xlink="http://www.w3.org/1999/xlink" width="64" height="64" viewBox="0 0 4.25 7.031"><svg overflow="visible" x="-.594" y="6.922"><path style="stroke:none" d="M2.297.11c1.094 0 2-.985 2.312-2.016.188-.563.235-1.172.235-1.766 0-1.328-.157-3.25-1.688-3.25-1.14 0-2.031.813-2.375 1.89-.187.579-.187 1.188-.187 1.798C.594-1.891.78.109 2.297.109zm-.875-3.797-.063-.079c0-.921.11-2.687 1.36-2.687C3.89-6.453 3.938-4.797 4-3.766l-.047.079zm2.547.374.078.079c0 .843-.047 1.921-.516 2.406-.187.187-.39.36-.656.36-1.25 0-1.516-1.673-1.516-2.782l.063-.063zm0 0"/></svg></svg>