<svg xmlns="http://www.w3.org/2000/svg" xmlns:xlink="http://www.w3.org/1999/xlink" width="64" height="64" viewBox="0 0 6.938 7.109"><svg overflow="visible" x="-.297" y="6.985"><path style="stroke:none" d="M2.078-3.484v1.078h.266v-.64c0-.142.156-.157.25-.157.453-.031.969-.047 1.36-.047.358 0 .687.047 1.046.047.219 0 .188.406.188.625 0 .062-.016.094-.016.14l.297.016v-2.14h-.282l.032.515c0 .313-.828.219-1.219.219-.531 0-1.672.047-1.672-.156 0-.188-.031-.375-.031-.579h-.25zM3.344.125c1.953 0 3.89-.828 3.89-3.922 0-.875-.203-1.797-.828-2.422C5.844-6.78 5-6.984 4.22-6.984c-1.516 0-2.907.578-3.485 1.578-.421.734-.437 1.156-.437 2.11 0 .983.25 2 .953 2.702.547.547 1.344.719 2.094.719zm.437-.438c-1.828 0-2.562-1.656-2.562-3.124 0-1.594.531-3.172 2.453-3.172.687 0 1.375.171 1.86.671.562.563.765 1.375.765 2.172 0 .922-.063 2.094-.64 2.688-.5.5-1.032.766-1.876.766zm0 0"/></svg></svg>