<svg xmlns="http://www.w3.org/2000/svg" xmlns:xlink="http://www.w3.org/1999/xlink" width="64" height="64" viewBox="0 0 5.25 4.797"><svg overflow="visible" x="-.813" y="4.75"><path style="stroke:none" d="M2.61-4.61C1.343-4.561.812-3.374.812-2.202c0 1.094.468 2.25 1.75 2.25 1.437 0 2.312-1 2.312-2.313 0-.828-.344-1.53-1.016-1.984l.016-.063a27.58 27.58 0 0 1 1.984.297l.063-.062.14-.563-.046-.109zm.187.329c1.031 0 1.297 1.218 1.297 2.125 0 .687-.203 1.797-1.157 1.797-.609 0-1-.657-1.156-1.141a3.192 3.192 0 0 1-.14-1.016c0-.75.265-1.765 1.156-1.765zm0 0"/></svg></svg>