<svg xmlns="http://www.w3.org/2000/svg" xmlns:xlink="http://www.w3.org/1999/xlink" width="64" height="64" viewBox="0 0 5.859 4.875"><svg overflow="visible" x="-.844" y="4.672"><path style="stroke:none" d="M4.016-2.11c-.5.72-1.079 1.485-1.657 1.485-.687 0-.859-.953-.859-1.531 0-.735.234-1.938 1.156-1.938.75 0 1.016.86 1.36 1.985zm1.546-2.562-.937 1.61-.094-.016c-.156-.547-.5-1.594-1.375-1.594-1.515 0-2.312 1.61-2.312 2.984C.844-1 1.094.125 1.89.125c.609 0 1.203-.5 1.562-.938l.64-.78.11.015.469 1.344c.047.25.297.437.531.437.344 0 .828-.422 1.5-.953L6.64-.953h-.094c-.281.203-.625.453-.875.453-.484 0-.813-1.266-.984-1.86 0-.015.921-1.39 1.39-2.078zm0 0"/></svg></svg>