<svg xmlns="http://www.w3.org/2000/svg" xmlns:xlink="http://www.w3.org/1999/xlink" width="64" height="64" viewBox="0 0 5.5 6.906"><svg overflow="visible" x="-.484" y="6.922"><path style="stroke:none" d="M3.39-3.61c.032-.062.11-.156.11-.218a.264.264 0 0 0-.047-.156l-1.375-2.22.11-.124H5.5l.219-.484-.047-.11a66.09 66.09 0 0 1-3.047.078c-.36 0-.719 0-1.078-.015l-.672.468 1.5 2.25c.14.188.281.438.36.657-.094.25-.344.578-.532.843L.578-.484a5.734 5.734 0 0 0-.094.468c.907 0 1.797-.078 2.704-.078.874 0 1.75.016 2.64.047l.156-.89-.03-.094c-.532.078-1.063.093-1.61.093-.89 0-1.766 0-2.657-.015l-.046-.11zm0 0"/></svg></svg>