<svg xmlns="http://www.w3.org/2000/svg" xmlns:xlink="http://www.w3.org/1999/xlink" width="64" height="64" viewBox="0 0 7.141 5.516"><svg overflow="visible" x="-.734" y="5.391"><path style="stroke:none" d="m4.766-3.297-.813.281c.031.22.047.438.047.657 0 .812-.25 1.89-1.281 1.89-.828 0-1.125-1.031-1.125-1.765 0-.532.172-1.047.547-1.422l-.094-.203C1.312-3.344.812-2.766.812-1.938c0 .875.375 2.016 1.422 2.016.72 0 1.36-.39 1.844-.922l.078.016c.203.578.688.953 1.266.953 1.344 0 2.453-1.766 2.453-3.172 0-1.61-1.406-2.344-3.469-2.344-1.547 0-2.172.25-2.593.516-.454.281-.75.64-1.079 1.031l.157.172c.671-.687 1.14-1.078 3.125-1.078.875 0 1.968.078 2.546.688.516.546.641 1 .641 1.578 0 .843-.375 1.921-1.344 1.921-.562 0-1.015-.437-1.015-1.078v-1.53zm0 0"/></svg></svg>