<svg xmlns="http://www.w3.org/2000/svg" xmlns:xlink="http://www.w3.org/1999/xlink" width="64" height="64" viewBox="0 0 6.063 4.906"><svg overflow="visible" x="-.203" y="4.859"><path style="stroke:none" d="M1.86-4.578c-.579 0-1.188 0-1.376.578l-.28 1.125.218.094.172-.453c.234-.594.5-.688.984-.688h.734A14.003 14.003 0 0 1 .86-.234l.016.14.547.14.11-.093c.437-1.281.874-2.578 1.155-3.875H4.11l.063.047A17.55 17.55 0 0 0 4-1.469c0 .453.031 1.078.313 1.344.125.125.343.125.53.125.407 0 .813-.313 1.126-.594l-.094-.172-.063-.015a.936.936 0 0 1-.484.156c-.656 0-.64-1.281-.64-2.188 0-.343.046-.703.062-1.046l.078-.063c.375-.015.75-.125 1.078-.281l.36-.594-.079-.062a2.485 2.485 0 0 1-1.109.28zm0 0"/></svg></svg>