<svg xmlns="http://www.w3.org/2000/svg" xmlns:xlink="http://www.w3.org/1999/xlink" width="64" height="64" viewBox="0 0 3.5 4.844"><svg overflow="visible" x="-.781" y="4.688"><path style="stroke:none" d="M3.906-4.281c-.312-.219-.656-.407-1.047-.407-.843 0-1.656.547-1.656 1.5 0 .297.188.641.422.782v.062c-.531.25-.844.688-.844 1.25 0 .797.735 1.25 1.469 1.25.797 0 1.516-.406 2.031-.969l-.078-.14-.094-.031c-.375.328-.859.609-1.312.609-.64 0-1.328-.406-1.328-1.125 0-.547.484-.813.937-.813.156 0 .313.016.453.047l.22-.468c-.813-.047-1.392.078-1.392-.782 0-.484.454-.765.86-.765.39 0 .797.203.953.625l.11.015zm0 0"/></svg></svg>