<svg xmlns="http://www.w3.org/2000/svg" xmlns:xlink="http://www.w3.org/1999/xlink" width="64" height="64" viewBox="0 0 4.547 8.969"><svg overflow="visible" x="-1.125" y="6.953"><path style="stroke:none" d="m3.797-3.781.015-.125c.641-.25 1.22-.953 1.22-1.703 0-.75-.61-1.344-1.36-1.344-1.047 0-1.766.562-2.14 1.375-.22.469-.298 1.234-.313 1.75-.078 1.89-.047 3.797-.094 5.687l.125.157.75-.329a75.24 75.24 0 0 1-.094-3.765c0-1.844-.047-2.485.172-3.36.14-.609.5-1.046 1.172-1.046.594 0 1 .546 1 1.093 0 1.063-.797 1.547-1.672 1.547l-.031.36c.219-.032.422-.032.64-.032.97 0 1.641.579 1.641 1.579 0 .734-.36 1.734-1.203 1.734-.375 0-.719-.313-.719-.688v-.078l-.125-.062-.484.687c.203.36.547.5.937.5 1.282 0 2.438-.797 2.438-2.172a2.01 2.01 0 0 0-.531-1.328c-.313-.312-.86-.422-1.344-.437zm0 0"/></svg></svg>