<svg xmlns="http://www.w3.org/2000/svg" xmlns:xlink="http://www.w3.org/1999/xlink" width="64" height="64" viewBox="0 0 5.797 6.609"><svg overflow="visible" x=".172" y="4.641"><path style="stroke:none" d="M2.875-2.047h-.11l-.89-1.922c-.14-.297-.375-.672-.734-.672-.25 0-.5.079-.688.22l-.625.484.14.203c.188-.141.47-.36.657-.36.281 0 .5.328.64.61.344.718 1.094 2.14 1.094 2.156A48.029 48.029 0 0 0 .25 1.609l.5.297.172-.062c.36-.907.953-1.797 1.531-2.672h.094C3.172.64 3.594 1.969 4.25 1.969c.406 0 .938-.328 1.375-.578l-.078-.22c-.219.11-.453.141-.688.141-.625 0-1.328-1.687-1.843-2.875.14-.203.312-.39.468-.578l1.797-2.062-.015-.063-.329-.312-.203.031zm0 0"/></svg></svg>