<svg xmlns="http://www.w3.org/2000/svg" xmlns:xlink="http://www.w3.org/1999/xlink" width="64" height="64" viewBox="0 0 5.406 6.984"><svg overflow="visible" x="-.266" y="6.922"><path style="stroke:none" d="M5.453-6.86.406-6.921c-.062.563-.062 1.14-.14 1.703l.265-.015.235-.641c.078-.203.312-.281.515-.281H4.72c.187 0 .422.11.453.328l.156.61h.344zM1.22-3.28a41.16 41.16 0 0 1 1.406-.031c.547 0 1.078.015 1.625.015L4.39-4c-.624.016-1.265.047-1.89.047-.375 0-.75 0-1.11-.031zm4.452 1.81h-.25c-.172.625-.172.75-.39.75h-4a.377.377 0 0 1-.36-.297l-.14-.515-.266.015C.312-1 .375-.016.375 0c1.719.016 5.14.063 5.14.063zm0 0"/></svg></svg>