<svg xmlns="http://www.w3.org/2000/svg" xmlns:xlink="http://www.w3.org/1999/xlink" width="64" height="64" viewBox="0 0 5.094 6.625"><svg overflow="visible" x=".312" y="4.641"><path style="stroke:none" d="m3.953 1.984.828-.343C4.625.42 4.61-.813 4.61-2.031c0-1.766.11-2.61-.937-2.61-.625 0-1.344.375-1.89.75l-.11-.03C1.64-4.407 1.39-4.61.984-4.61c-.453 0-.937.406-1.296.687l.156.188c.218-.141.5-.329.687-.329.36 0 .39.407.39.735V.016L1 .109l.719-.25a34.892 34.892 0 0 1-.063-1.687c0-.531 0-1.36.016-1.594.406-.297.89-.578 1.36-.578 1.046 0 .843 1.063.843 2.75v3.125zm0 0"/></svg></svg>