<svg xmlns="http://www.w3.org/2000/svg" xmlns:xlink="http://www.w3.org/1999/xlink" width="64" height="64" viewBox="0 0 7.234 6.937"><svg overflow="visible" x=".282" y="6.922"><path style="stroke:none" d="m4.078-2.438.063-.062c1.156-.016 1.906-.344 2.203-2.36.172-.906.172-1.452.61-1.734l-.032-.172c-.344.032-.688.11-1.031.235-.125.437-.125.875-.188 1.312-.187 1.266-.469 2.407-1.594 2.469l-.062-.063a65.368 65.368 0 0 1-.031-1.75c0-.75.062-1.484.125-2.234l-.032-.078-.859.219c.063.828.063 2.015.063 3.015v.829l-.063.078c-1.5-.094-1.672-1.875-1.672-3.204 0-.578-.078-.984-.437-.984-.11 0-.313 0-.344.031l-1.078.344.078.234.625-.109h.016c.671 0 .203 1.047.687 2.719.234.89.938 1.234 2.125 1.234l.063.063v1.531c0 .094-.079.453-.297.5l-.672.11v.28H5v-.28l-.578-.11c-.219-.047-.328-.266-.328-.484zm0 0"/></svg></svg>