<svg xmlns="http://www.w3.org/2000/svg" xmlns:xlink="http://www.w3.org/1999/xlink" width="64" height="64" viewBox="0 0 4.047 8.281"><svg overflow="visible" x="-.844" y="6.922"><path style="stroke:none" d="M4.172 1.36C4.5.952 4.89.421 4.89-.064c0-.359-.391-.468-.797-.468-.235 0-.61.062-1 .062-1.047 0-1.485-.797-1.485-1.625 0-1.797 1.47-3.765 3.016-4.25v-.187a6.659 6.659 0 0 1-.89.078c-.547 0-.97-.11-1.438-.438-.078-.03-.063-.03-.078-.03h-.063l-.265.359c-.032.015-.032.015-.032.03.188.173.438.235.688.266l.906.079.016.078C2.172-5.031.844-3.313.844-1.734c0 .921.375 1.828 1.61 1.828.265 0 .937-.078 1.343-.078.219 0 .515.14.515.375 0 .25-.203.578-.343.843zm0 0"/></svg></svg>