<svg xmlns="http://www.w3.org/2000/svg" xmlns:xlink="http://www.w3.org/1999/xlink" width="64" height="64" viewBox="0 0 4.016 4.797"><svg overflow="visible" x="-.875" y="4.688"><path style="stroke:none" d="M2.781-2.578c-.015.031-.64.015-1.015.015l-.063-.062c.016-.781.375-1.64 1.328-1.64.531 0 .781.124 1.203.702l.125-.015.375-.531c-.375-.36-.859-.579-1.375-.579C1.922-4.688.875-3.421.875-2.03c0 .61.156 1.219.594 1.656.36.36.922.484 1.437.484.719 0 1.422-.421 1.985-.859l-.125-.203h-.079c-.39.328-.906.484-1.406.484-.36 0-.812-.047-1.047-.281a1.993 1.993 0 0 1-.546-1.328l.046-.063c.266 0 .672-.015.688-.015h1.406l.14-.422zm0 0"/></svg></svg>