<svg xmlns="http://www.w3.org/2000/svg" xmlns:xlink="http://www.w3.org/1999/xlink" width="64" height="64" viewBox="0 0 6.719 6.828"><svg overflow="visible" x="-.734" y="6.844"><path style="stroke:none" d="M2.781-6.813v.266l.625.094c.125.016.235.14.235.266v.125l-.079.078c-.828.015-1.624.296-2.203.875-.468.484-.625 1.156-.625 1.796 0 1.735 1.407 2.438 2.829 2.454l.078.062c-.016.156-.079.375-.235.422l-.625.14v.22h2.672v-.25l-.594-.11c-.203-.047-.328-.219-.359-.422l.078-.062c.719-.032 1.625-.297 2.156-.813.516-.531.72-1.297.72-2.047 0-1.297-.766-2.265-2.891-2.265L4.5-6.063v-.125c0-.14.078-.28.234-.296l.625-.11v-.25zM4.5-5.625l.063-.094c1.093.032 1.984.5 1.984 2.203 0 1.188-.61 2.344-1.984 2.375L4.5-1.219zm-.86 4.422-.078.062c-1.25-.03-1.921-1.234-1.921-2.312 0-1.156.718-2.203 1.921-2.266l.079.094zm0 0"/></svg></svg>