<svg xmlns="http://www.w3.org/2000/svg" xmlns:xlink="http://www.w3.org/1999/xlink" width="64" height="64" viewBox="0 0 5.375 6.625"><svg overflow="visible" x="-.953" y="4.641"><path style="stroke:none" d="m4.828-4.64-.766.312c.032.562.047 1.14.047 1.719 0 .203-.015.937-.03 1.406-.36.39-.923.64-1.282.64-.844 0-.922-.734-.922-1.296v-2.672l-.094-.078-.828.265c.047.235.172 1.078.172 1.625v1.89c0 .923-.016 1.829-.031 2.75l.11.063.53-.203A10.915 10.915 0 0 1 1.547-.25l.062-.016c.172.204.297.297.61.297.5 0 1.25-.437 1.828-.765l.078.062c.063.406.172.688.688.688.546 0 1.109-.47 1.515-.844l-.078-.14-.11-.016c-.234.14-.53.328-.765.328-.469 0-.516-.656-.516-.985v-1.671c0-.313.032-.813.063-1.22zm0 0"/></svg></svg>