<svg xmlns="http://www.w3.org/2000/svg" xmlns:xlink="http://www.w3.org/1999/xlink" width="64" height="64" viewBox="0 0 4.078 6.641"><svg overflow="visible" x="-.891" y="4.75"><path style="stroke:none" d="m1.203 1.89.563-.202c.015-.047.062-.125.062-.125-.203-.782-.25-1.5-.266-2.297l.063-.016c.328.5.781.781 1.313.781 1.203 0 2.03-1.36 2.03-2.531 0-.578-.077-1.313-.484-1.719a1.876 1.876 0 0 0-1.343-.531c-.532 0-1.11.156-1.516.516-.75.671-.734 1.718-.734 2.906C.89-.281.953.766 1 1.797zm.406-4.187c0-.906.282-2.094 1.375-2.094.907 0 1.11 1.157 1.11 2.063 0 .86-.407 1.86-1.438 1.86-.844 0-1.047-1.063-1.047-1.829zm0 0"/></svg></svg>