<svg xmlns="http://www.w3.org/2000/svg" xmlns:xlink="http://www.w3.org/1999/xlink" width="64" height="64" viewBox="0 0 5.016 4.922"><svg overflow="visible" x="-.156" y="4.828"><path style="stroke:none" d="M1.422-4.594c-.297 0-.688.047-.89.344-.126.203-.345 1.219-.376 1.406l.219.031c.125-.343.297-.796.422-.937.203-.203.562-.219.844-.219h.75l.078.078c-.078.813-.156 1.641-.156 2.47 0 .64.093 1.515.78 1.515.423 0 .954-.39 1.345-.75l-.094-.14-.094-.016c-.156.093-.406.25-.594.25-.625 0-.61-1.344-.61-1.688 0-.531.079-1.297.11-1.64l.078-.079h.688c.281 0 .547-.031.828-.094l.422-.671-.125-.094a2.648 2.648 0 0 1-1.094.234zm0 0"/></svg></svg>